<svg xmlns="http://www.w3.org/2000/svg" xmlns:xlink="http://www.w3.org/1999/xlink" viewBox="0 0 780.93 216"><defs><style>.cls-1{fill:#68d0f4;}.cls-2{fill:url(#New_Gradient_Swatch_1);}.cls-3{fill:url(#New_Gradient_Swatch_1-2);}.cls-4{fill:none;}.cls-5{fill:url(#New_Gradient_Swatch_1-3);}.cls-6{fill:url(#New_Gradient_Swatch_1-4);}.cls-7{fill:#3bc0ed;}.cls-8{fill:url(#radial-gradient);}.cls-9{fill:url(#linear-gradient);}.cls-10{fill:#fff;}.cls-11{fill:url(#linear-gradient-2);}.cls-12{fill:url(#linear-gradient-3);}</style><linearGradient id="New_Gradient_Swatch_1" x1="65.25" y1="186.74" x2="65.25" y2="38.21" gradientUnits="userSpaceOnUse"><stop offset="0" stop-color="#00ade5"/><stop offset="1" stop-color="#79d6f7"/></linearGradient><linearGradient id="New_Gradient_Swatch_1-2" x1="355.96" y1="187.15" x2="355.96" y2="38.39" xlink:href="#New_Gradient_Swatch_1"/><linearGradient id="New_Gradient_Swatch_1-3" x1="213.29" y1="182.67" x2="213.29" y2="40.87" xlink:href="#New_Gradient_Swatch_1"/><linearGradient id="New_Gradient_Swatch_1-4" x1="490.31" y1="182.87" x2="490.31" y2="42.93" xlink:href="#New_Gradient_Swatch_1"/><radialGradient id="radial-gradient" cx="672.93" cy="108" r="108" gradientUnits="userSpaceOnUse"><stop offset="0" stop-color="#fff"/><stop offset="0.32" stop-color="#fdfeff"/><stop offset="0.46" stop-color="#f6fdff"/><stop offset="0.56" stop-color="#e9fafe"/><stop offset="0.64" stop-color="#d7f5fd"/><stop offset="0.72" stop-color="#c0effc"/><stop offset="0.78" stop-color="#a4e8fa"/><stop offset="0.85" stop-color="#82e0f9"/><stop offset="0.9" stop-color="#5ad6f7"/><stop offset="0.95" stop-color="#2fcbf4"/><stop offset="1" stop-color="#00bff2"/></radialGradient><linearGradient id="linear-gradient" x1="678.93" y1="200" x2="678.93" y2="38" gradientUnits="userSpaceOnUse"><stop offset="0" stop-color="#fff"/><stop offset="0.09" stop-color="#f3fbfe"/><stop offset="0.25" stop-color="#d3f2fb"/><stop offset="0.46" stop-color="#a0e2f7"/><stop offset="0.71" stop-color="#58cdf1"/><stop offset="1" stop-color="#00b2ea"/></linearGradient><linearGradient id="linear-gradient-2" x1="675.93" y1="200" x2="675.93" y2="41" gradientUnits="userSpaceOnUse"><stop offset="0" stop-color="#cddd50"/><stop offset="0.11" stop-color="#dde88a"/><stop offset="0.23" stop-color="#ecf2bc"/><stop offset="0.33" stop-color="#f6f9e0"/><stop offset="0.41" stop-color="#fdfdf7"/><stop offset="0.46" stop-color="#fff"/><stop offset="0.53" stop-color="#fefefa"/><stop offset="0.61" stop-color="#f9fbeb"/><stop offset="0.7" stop-color="#f2f6d3"/><stop offset="0.8" stop-color="#e9f0b1"/><stop offset="0.9" stop-color="#dce785"/><stop offset="1" stop-color="#cddd50"/></linearGradient><linearGradient id="linear-gradient-3" x1="673.36" y1="195.13" x2="673.36" y2="41.09" gradientUnits="userSpaceOnUse"><stop offset="0" stop-color="#00b0e7"/><stop offset="0.03" stop-color="#06b2e8"/><stop offset="0.21" stop-color="#28bcec"/><stop offset="0.4" stop-color="#43c5f0"/><stop offset="0.59" stop-color="#56caf2"/><stop offset="0.79" stop-color="#61cef4"/><stop offset="1" stop-color="#65cff4"/></linearGradient></defs><g id="Layer_2" data-name="Layer 2"><g id="Layer_1-2" data-name="Layer 1"><path class="cls-1" d="M780,112.49a14.85,14.85,0,0,1-1.75.29l-.16-17A5.85,5.85,0,0,0,780,96Z"/><path class="cls-2" d="M109.1,139.31c-3.6,2.45-6.75,5.11-10.32,6.94-10.14,5.16-20.38,8.64-32.39,5.77-9-2.15-15.26-7.26-21.45-13.18-8.26-16-8.43-32.36-1.94-48.95a17.5,17.5,0,0,0,3-2.66c9.26-13.15,22.09-17.34,38.15-14.35,8.52,1.6,14.77,6.34,19.77,9.9,8.15-8,15.68-15.45,23.62-23.29-9.71-10.41-22.11-16.69-37.17-19.6C70.26,36,51.64,38.83,34.21,48.76,19.05,57.39,8.94,70.3,5,87.53c-6.45,11.79-5.86,32.53-2.64,45.8a73.21,73.21,0,0,0,2.94,8,51.06,51.06,0,0,0,19.4,29.13c24.28,18.18,51.2,19.75,79.09,11.34,10.25-3.09,20.23-8.18,26.72-18.09C123.21,155.43,116.25,147.49,109.1,139.31Z"/><path class="cls-3" d="M391.68,102.31c-6.46-2.75-13.4-4.44-20.21-6.25-10.41-2.77-27.54-4.06-31.59-6.75-3-2-3.7-7.06-2.68-10.57,1.14-3.93,4.88-6,7.39-7,12.34-4.74,30.89-.85,44.82,7.91l19.24-25.91a43.29,43.29,0,0,1-5.47-2.67c-12.73-8.84-27.36-11.74-42.37-12.61-6.72-.39-13.55,1.1-20.32,1.85-13.07,1.43-24.65,6.44-32.91,16.63S295.93,83,301.27,97.81c5,13.91,16.14,21.53,30,24.86,9.16,2.2,18.65,3.23,28,4.29,11.83,1.34,18.3,6.46,19.54,16.26-5.55,9.24-15,10.71-24.15,10.06-14.43-1-28.23-4.95-39.34-16.09L295,162c9.43,10.67,19.5,18.13,32.25,21.5,20.1,5.33,40.21,5.13,59.71-2.07,16.51-6.09,27.93-17.12,29.31-35.82C419.66,125.82,408,109.24,391.68,102.31Z"/><path class="cls-4" d="M204.79,98.19l-10,28.08h36c-4.71-12.76-9.09-24.59-13.46-36.42l-4.36-9Z"/><path class="cls-4" d="M204.79,98.19l-10,28.08h36c-4.71-12.76-9.09-24.59-13.46-36.42l-4.36-9Z"/><path class="cls-5" d="M274.76,137.4q-11.16-24.83-22.33-49.64c-2.07-5.32-4-10.69-6.25-15.94-4.47-10.51-9.1-21-13.46-30.95H194c-3.63,8-7.39,15.88-10.83,23.91-4.11,9.61-7.95,19.34-11.91,29-4,8.43-8.26,16.78-12.08,25.3-2.6,5.81-4.64,11.87-6.93,17.82-7.87,14.45-13.94,29.66-20.44,45.17h40.74l8.68-22H244.4c3,7.55,6,15,9.1,22.54,7.07,0,13.61,0,20.16,0,6.71,0,13.45.21,21.12-.24Zm-80-11.13,10-28.08L213,80.86l4.36,9c4.37,11.83,8.75,23.66,13.46,36.42Z"/><path class="cls-6" d="M516.44,91.93l-1,3.47H465c-.31-1.53-.51-2.53-.71-3.53V42.93H427.08v49l.07,43.33V182h37.1V135.2c.3-1.91.61-3.82.88-5.54h50.64c.28,3,.51,5.3.74,7.66v45.37c6.77,0,12.89.18,19-.05s12.2,1.1,18-.88V137.28h0l0-45.39V42.94h-37.1Z"/><path class="cls-7" d="M740.69,71.33c.1-.92.21-1.85.32-2.77l1.75,2.53Z"/><circle class="cls-8" cx="672.93" cy="108" r="108"/><circle class="cls-9" cx="678.93" cy="119" r="81"/><path class="cls-10" d="M678.93,200.5a81.5,81.5,0,1,1,81.5-81.5A81.59,81.59,0,0,1,678.93,200.5Zm0-162a80.5,80.5,0,1,0,80.5,80.5A80.59,80.59,0,0,0,678.93,38.5Z"/><ellipse class="cls-11" cx="675.93" cy="120.5" rx="78" ry="79.5"/><ellipse class="cls-12" cx="673.36" cy="118.11" rx="75.57" ry="77.02"/><path class="cls-10" d="M711.24,123.93c11.39-5.88,16.66-14.54,15-26.9a48.67,48.67,0,0,1-.16-5.13h0A39.89,39.89,0,0,0,706.7,71.76c-12.07-5.81-24.75-7.62-38-6.69-7.72.54-14.69,2.78-20.57,8a57.61,57.61,0,0,1-6.62,4.52c-1.64,5.86-7.65,10.85-3.8,18l26,3c8.75-11.18,21.08-11.28,31-1,.56,4.12,1.19,8.29-4.29,10.79-4.25,0-9.09.27-13.89-.07s-9.28-1.28-14-2c-3.79,7.54-3.46,14.74-2.45,21.94l23.4,3.34,7.08,5v10.32L685,151.52c-18.81,1-23.46-1.48-26.65-13.84-6.71-2.58-24.25-4.38-30.45-2.84.82,5.57,1.65,11.23,2.48,16.88,5.61,11,14.86,17.3,26.33,21.49,11.07,4,22.35,4.07,33.64,3.14,16.68-1.37,32-10,33.7-30.83C722.46,136.89,718.82,129.4,711.24,123.93Z"/></g></g></svg>