<svg xmlns="http://www.w3.org/2000/svg" xmlns:xlink="http://www.w3.org/1999/xlink" viewBox="0 0 780.93 216"><defs><style>.cls-1{fill:url(#linear-gradient);}.cls-2{fill:url(#linear-gradient-2);}.cls-3{fill:none;}.cls-4{fill:url(#linear-gradient-3);}.cls-5{fill:url(#linear-gradient-4);}.cls-6{fill:url(#radial-gradient);}.cls-7{fill:url(#New_Gradient_Swatch_2);}.cls-8{fill:#fff;}.cls-9{fill:url(#New_Gradient_Swatch_3);}.cls-10{fill:url(#linear-gradient-5);}.cls-11{fill:#fdfefd;}</style><linearGradient id="linear-gradient" x1="65.25" y1="178.74" x2="65.25" y2="30.21" gradientUnits="userSpaceOnUse"><stop offset="0" stop-color="#7ebf51"/><stop offset="1" stop-color="#bad644"/></linearGradient><linearGradient id="linear-gradient-2" x1="355.96" y1="179.15" x2="355.96" y2="30.39" xlink:href="#linear-gradient"/><linearGradient id="linear-gradient-3" x1="213.29" y1="174.67" x2="213.29" y2="32.87" xlink:href="#linear-gradient"/><linearGradient id="linear-gradient-4" x1="490.31" y1="174.87" x2="490.31" y2="34.93" xlink:href="#linear-gradient"/><radialGradient id="radial-gradient" cx="672.93" cy="108" r="108" gradientUnits="userSpaceOnUse"><stop offset="0" stop-color="#fff"/><stop offset="0.35" stop-color="#fefffd"/><stop offset="0.5" stop-color="#fbfdf6"/><stop offset="0.62" stop-color="#f6fae9"/><stop offset="0.71" stop-color="#eef5d8"/><stop offset="0.79" stop-color="#e4f0c0"/><stop offset="0.87" stop-color="#d7e9a4"/><stop offset="0.93" stop-color="#c9e082"/><stop offset="0.99" stop-color="#b8d75c"/><stop offset="1" stop-color="#b6d657"/></radialGradient><linearGradient id="New_Gradient_Swatch_2" x1="678.93" y1="205.65" x2="678.93" y2="43.65" gradientUnits="userSpaceOnUse"><stop offset="0" stop-color="#cddd50"/><stop offset="0.11" stop-color="#dde88a"/><stop offset="0.23" stop-color="#ecf2bc"/><stop offset="0.33" stop-color="#f6f9e0"/><stop offset="0.41" stop-color="#fdfdf7"/><stop offset="0.46" stop-color="#fff"/><stop offset="0.53" stop-color="#fefefa"/><stop offset="0.61" stop-color="#f9fbeb"/><stop offset="0.7" stop-color="#f2f6d3"/><stop offset="0.8" stop-color="#e9f0b1"/><stop offset="0.9" stop-color="#dce785"/><stop offset="1" stop-color="#cddd50"/></linearGradient><linearGradient id="New_Gradient_Swatch_3" x1="675.93" y1="205.65" x2="675.93" y2="46.65" gradientUnits="userSpaceOnUse"><stop offset="0" stop-color="#fff"/><stop offset="0.09" stop-color="#f3fbfe"/><stop offset="0.25" stop-color="#d3f2fb"/><stop offset="0.46" stop-color="#a0e2f7"/><stop offset="0.71" stop-color="#58cdf1"/><stop offset="1" stop-color="#00b2ea"/></linearGradient><linearGradient id="linear-gradient-5" x1="673.36" y1="200.78" x2="673.36" y2="46.74" gradientUnits="userSpaceOnUse"><stop offset="0" stop-color="#7fbf51"/><stop offset="0.14" stop-color="#8cc44e"/><stop offset="0.42" stop-color="#9fcb4a"/><stop offset="0.7" stop-color="#aad048"/><stop offset="1" stop-color="#aed147"/></linearGradient></defs><g id="Layer_2" data-name="Layer 2"><g id="Layer_1-2" data-name="Layer 1"><path class="cls-1" d="M109.1,131.31c-3.6,2.45-6.75,5.11-10.32,6.94-10.14,5.16-20.38,8.64-32.39,5.77-9-2.15-15.26-7.26-21.45-13.18-8.26-16-8.43-32.36-1.94-48.95a17.5,17.5,0,0,0,3-2.66c9.26-13.15,22.09-17.34,38.15-14.35,8.52,1.6,14.77,6.34,19.77,9.9,8.15-8,15.68-15.45,23.62-23.29-9.71-10.41-22.11-16.69-37.17-19.6C70.26,28,51.64,30.83,34.21,40.76,19.05,49.39,8.94,62.3,5,79.53c-6.45,11.79-5.86,32.53-2.64,45.8a73.21,73.21,0,0,0,2.94,8,51.06,51.06,0,0,0,19.4,29.13c24.28,18.18,51.2,19.75,79.09,11.34,10.25-3.09,20.23-8.18,26.72-18.09C123.21,147.43,116.25,139.49,109.1,131.31Z"/><path class="cls-2" d="M391.68,94.31c-6.46-2.75-13.4-4.44-20.21-6.25-10.41-2.77-27.54-4.06-31.59-6.75-3-2-3.7-7.06-2.68-10.57,1.14-3.93,4.88-6,7.39-7,12.34-4.74,30.89-.85,44.82,7.91l19.24-25.91a43.29,43.29,0,0,1-5.47-2.67c-12.73-8.84-27.36-11.74-42.37-12.61-6.72-.39-13.55,1.1-20.32,1.85-13.07,1.43-24.65,6.44-32.91,16.63S295.93,75,301.27,89.81c5,13.91,16.14,21.53,30,24.86,9.16,2.2,18.65,3.23,28,4.29,11.83,1.34,18.3,6.46,19.54,16.26-5.55,9.24-15,10.71-24.15,10.06-14.43-1-28.23-4.95-39.34-16.09L295,154c9.43,10.67,19.5,18.13,32.25,21.5,20.1,5.33,40.21,5.13,59.71-2.07,16.51-6.09,27.93-17.12,29.31-35.82C419.66,117.82,408,101.24,391.68,94.31Z"/><path class="cls-3" d="M204.79,90.19l-10,28.08h36c-4.71-12.76-9.09-24.59-13.46-36.42l-4.36-9Z"/><path class="cls-3" d="M204.79,90.19l-10,28.08h36c-4.71-12.76-9.09-24.59-13.46-36.42l-4.36-9Z"/><path class="cls-4" d="M274.76,129.4q-11.16-24.83-22.33-49.64c-2.07-5.32-4-10.69-6.25-15.94-4.47-10.51-9.1-21-13.46-30.95H194c-3.63,8-7.39,15.88-10.83,23.91-4.11,9.61-7.95,19.34-11.91,29-4,8.43-8.26,16.78-12.08,25.3-2.6,5.81-4.64,11.87-6.93,17.82-7.87,14.45-13.94,29.66-20.44,45.17h40.74l8.68-22H244.4c3,7.55,6,15,9.1,22.54,7.07,0,13.61,0,20.16,0,6.71,0,13.45.21,21.12-.24Zm-80-11.13,10-28.08L213,72.86l4.36,9c4.37,11.83,8.75,23.66,13.46,36.42Z"/><path class="cls-5" d="M516.44,83.93l-1,3.47H465c-.31-1.53-.51-2.53-.71-3.53V34.93H427.08v49l.07,43.33V174h37.1V127.2c.3-1.91.61-3.82.88-5.54h50.64c.28,3,.51,5.3.74,7.66v45.37c6.77,0,12.89.18,19-.05s12.2,1.1,18-.88V129.28h0l0-45.39V34.94h-37.1Z"/><circle class="cls-6" cx="672.93" cy="108" r="108"/><circle class="cls-7" cx="678.93" cy="124.65" r="81"/><path class="cls-8" d="M678.93,206.15a81.5,81.5,0,1,1,81.5-81.5A81.59,81.59,0,0,1,678.93,206.15Zm0-162a80.5,80.5,0,1,0,80.5,80.5A80.59,80.59,0,0,0,678.93,44.15Z"/><ellipse class="cls-9" cx="675.93" cy="126.15" rx="78" ry="79.5"/><ellipse class="cls-10" cx="673.36" cy="123.76" rx="75.57" ry="77.02"/><path class="cls-11" d="M624,129.52c15.49-13,60.92-51,60.92-51l26.6,3.52s-2.69,19.11-3.66,26.16c-1.06,7.72-2.08,15.44-3.11,23.15-.58,3-1.15,6-1.72,8.93.6.43,1.09,1.09,1.66,1.17,4.94.65,8.85,1.55,8.85,1.55L710.3,164.9l-10.8-1.41-1.94,16-27-3.27,2.33-17.33s-8.56-1.24-12.59-1.86c-10.84-1.66-21.67-3.49-32.56-4.73-3.85-.43-4.55-2-4.38-5.24C623.72,141.22,623.84,135.36,624,129.52ZM653.2,134c8.08,1.34,14,2.48,20,3.2,1.25.15,3.73-1.11,3.87-2,1.15-7.09,1.87-14.24,2.94-23.15C670.52,119.85,662.66,126.29,653.2,134Z"/></g></g></svg>