<svg id="uuid-4f7665a2-6090-4e78-b9bc-6bbdf7338afb" xmlns="http://www.w3.org/2000/svg" width="324.33" height="242.4" viewBox="0 0 324.33 242.4"><g id="uuid-55ed8a0e-7277-4804-a0a9-e7e95192429d"><path d="M318.19,129.58l-146.83,108.21-3.99,2.86c-3.4,2.44-8.02,2.31-11.28-.33l-5.95-4.81L6.92,129.96l-3.88-2.95c-4.04-3.07-4.05-9.13-.03-12.21l3.91-3L154.69,3.2s3.91-3.2,7.1-3.2c3.98,0,7.11,2.83,7.11,2.83l151.38,111.62,1.11,.87c4.06,3.16,3.89,9.35-.34,12.28l-2.86,1.99Z" style="fill:#1f5ec6;"/><path d="M316.49,129.36l-145.36,107.13-3.95,2.84c-3.37,2.42-7.94,2.29-11.17-.32l-5.89-4.76L8.32,129.73l-3.84-2.92c-4-3.04-4.01-9.03-.03-12.09l3.87-2.97L154.62,4.25s3.87-3.17,7.03-3.17c3.94,0,7.04,2.8,7.04,2.8l149.86,110.5,1.1,.86c4.02,3.13,3.85,9.25-.33,12.16l-2.83,1.97Z" style="fill:#fff;"/><path d="M308.76,128.95l-138.09,101.77-3.76,2.69c-3.2,2.3-7.55,2.17-10.61-.31l-5.59-4.52L16.01,129.3l-3.65-2.77c-3.8-2.88-3.81-8.58-.03-11.49l3.68-2.82L154.99,10.09s3.68-3.01,6.68-3.01c3.75,0,6.69,2.66,6.69,2.66l142.37,104.98,1.05,.81c3.82,2.97,3.66,8.79-.32,11.55l-2.69,1.87Z" style="fill:#1f5ec6;"/><path d="M179.46,23.16l1.97,3.4h0c.03,.05,.09,.08,.15,.06l3.84-.84-2.63,2.93h0s-.05,.11-.02,.16l1.98,3.4-3.6-1.6c-.05-.02-.12-.01-.16,.03l-2.62,2.94,.41-3.91h0c0-.06-.03-.11-.08-.14l-3.6-1.58,3.85-.82h0c.06-.01,.1-.06,.11-.12l.39-3.91Z" style="fill:#fff; fill-rule:evenodd;"/><path d="M144.91,27.08c0,.06,.05,.11,.11,.12h0s3.85,.82,3.85,.82l-3.6,1.58c-.05,.02-.09,.08-.08,.14h0s.41,3.91,.41,3.91l-2.62-2.94s-.1-.06-.16-.03l-3.6,1.6,1.98-3.4c.03-.05,.02-.12-.02-.16h0s-2.63-2.93-2.63-2.93l3.84,.84c.06,.01,.12-.01,.15-.06h0s1.97-3.4,1.97-3.4l.39,3.91Z" style="fill:#fff; fill-rule:evenodd;"/><path d="M282.35,127.55l-113.24,83.45-3.08,2.21c-2.63,1.88-6.19,1.78-8.7-.25l-4.59-3.71L42.29,127.84l-2.99-2.27c-3.11-2.37-3.12-7.04-.02-9.42l3.01-2.31L156.26,30.08s3.01-2.47,5.48-2.47c3.07,0,5.48,2.18,5.48,2.18l116.74,86.08,.86,.67c3.13,2.44,3,7.21-.26,9.47l-2.2,1.53Z" style="fill:#fff;"/><path d="M275.14,127.22l-106.44,78.45-2.89,2.08c-2.47,1.77-5.82,1.67-8.18-.24l-4.31-3.49L49.48,127.49l-2.81-2.14c-2.93-2.22-2.94-6.62-.02-8.85l2.83-2.18L156.61,35.6s2.83-2.32,5.15-2.32c2.89,0,5.15,2.05,5.15,2.05l109.74,80.92,.81,.63c2.94,2.29,2.82,6.78-.24,8.9l-2.07,1.44Z" style="fill:#1f5ec6;"/><path d="M271.75,127.05l-103.25,76.09-2.81,2.01c-2.39,1.72-5.64,1.62-7.93-.23l-4.18-3.38L52.86,127.32l-2.73-2.07c-2.84-2.16-2.85-6.42-.02-8.59l2.75-2.11L156.78,38.19s2.75-2.25,4.99-2.25c2.8,0,5,1.99,5,1.99l106.45,78.49,.78,.61c2.85,2.22,2.73,6.57-.24,8.64l-2.01,1.4Z" style="fill:#01299b;"/><circle cx="248.02" cy="119.99" r="13.41" style="fill:#1f5ec6;"/><path d="M93.28,157.11l7.53,5.55,2.83-2.48,5.18,3.4v4.99l22.34,16.47h61.9l19.5-14.37-.63-3.54-.86-4.61-1.62-2.75c0-1.82-.42-3.43-.56-4.38-.15-.95-.43-1.43,3.11-2.47v-4.24l3.95-.28-1.13-9.88,6.78-1.2,1.77-9.72,6.1-3.19,.77-5.07-.77-6.17,2.3-7.41,8.34-3.47-2.14-4.35h4l-1.47-2.87s1.36-3.5,2.13-4.47c2.27-2.86,6.01-3.8,6.01-3.8l1.41-4.24s-5.74-1.04-5.84-6.21c-.04-2.16,2.26-2.18,3.85-1.93,.75,.12,1.4-.51,1.33-1.26l-.19-1.79,3.2-4.43s-1.35-2.49-1.03-3.29c.73-1.81,5.24-2.89,6.39-4.46,.72-.99,1.42-4.67,1.42-4.67l.75-3.11-12.89,.47s-8.85,1.22-9.04-2.64c-.32-6.49,8-6.02,8-13.65,0,0,1.13-4.71-4.14-4.71l-6.4,.05-146.99,1.08,6.29,49.28-1.5,75.83Z" style="fill:#e42440; fill-rule:evenodd;"/><g><polygon points="133.89 187.03 190.36 187.03 193.07 185.03 131.18 185.03 133.89 187.03" style="fill:#fff;"/><polygon points="100.82 162.66 102.46 163.87 103.82 162.68 106.83 164.65 106.83 167.09 108.83 168.57 108.83 163.57 103.65 160.18 100.82 162.66" style="fill:#fff;"/><path d="M92.78,81.39l-1.47,74.27,1.97,1.45,1.5-75.83-6.29-49.28,146.99-1.08,6.4-.05c5.27,0,4.14,4.71,4.14,4.71,0,7.62-8.32,7.16-8,13.65,.12,2.36,3.47,2.82,6.06,2.82,1.64,0,2.97-.18,2.97-.18l12.89-.47-.75,3.11s-.71,3.68-1.42,4.67c-1.15,1.58-5.66,2.66-6.39,4.46-.32,.8,1.03,3.29,1.03,3.29l-3.2,4.43,.19,1.79c.07,.7-.47,1.28-1.15,1.28-.06,0-.12,0-.18-.01-.39-.06-.83-.1-1.26-.1-1.32,0-2.62,.41-2.59,2.04,.09,5.18,5.84,6.21,5.84,6.21l-1.41,4.24s-3.74,.94-6.01,3.8c-.77,.97-2.13,4.47-2.13,4.47l1.47,2.87h-4l2.14,4.35-8.34,3.47-2.3,7.41,.77,6.17-.77,5.07-6.1,3.19-1.77,9.72-6.78,1.2,1.13,9.88-3.95,.28v4.24c-3.54,1.04-3.25,1.52-3.11,2.47,.15,.95,.56,2.55,.56,4.38l1.62,2.75,.86,4.61,.63,3.54,1.8-1.32-.45-2.56-.87-4.63c-.04-.23-.13-.45-.24-.65l-1.36-2.3c-.05-1.35-.28-2.53-.45-3.42-.03-.14-.05-.27-.07-.39,.31-.13,.82-.31,1.64-.55,.85-.25,1.44-1.03,1.44-1.92v-2.37l2.1-.15c.54-.04,1.05-.3,1.4-.72s.51-.96,.45-1.5l-.92-8.01,4.92-.87c.82-.15,1.47-.79,1.62-1.61l1.6-8.76,5.24-2.74c.57-.3,.96-.84,1.05-1.47l.77-5.07c.03-.18,.03-.36,0-.55l-.71-5.75,1.9-6.11,7.48-3.11c.51-.21,.91-.63,1.1-1.14s.17-1.09-.08-1.59l-.72-1.47h.79c.7,0,1.34-.36,1.71-.96,.36-.59,.39-1.33,.08-1.95l-1.05-2.06c.56-1.36,1.21-2.76,1.5-3.13,1.8-2.27,4.91-3.1,4.94-3.11,.66-.17,1.19-.66,1.4-1.31l1.41-4.24c.18-.55,.12-1.15-.18-1.65-.3-.5-.79-.85-1.37-.95-.41-.08-4.09-.88-4.19-4.23,.11-.03,.3-.05,.59-.05s.61,.03,.96,.08c.16,.02,.32,.04,.48,.04,.89,0,1.74-.38,2.34-1.04,.6-.66,.89-1.55,.79-2.44l-.11-1.03,2.75-3.81c.45-.62,.5-1.45,.14-2.12-.31-.58-.62-1.3-.76-1.74,.48-.4,1.58-.96,2.29-1.32,1.48-.75,2.89-1.46,3.69-2.56,.87-1.2,1.52-4.15,1.76-5.42l.72-2.96c.05-.18,.08-.37,.08-.57,0-1.1-.89-2-2-2h0s-.06,0-.09,0l-12.88,.47c-.07,0-.13,0-.2,.02-.01,0-1.23,.17-2.7,.17-3.03,0-4.05-.68-4.06-.92-.1-2.03,.94-2.97,2.95-4.59,2.22-1.79,4.97-4.01,5.05-8.76,.14-.79,.36-3.01-1.05-4.81-.76-.96-2.25-2.1-5.09-2.1,0,0,0,0-.01,0l-6.4,.05-146.99,1.08c-.57,0-1.11,.25-1.49,.68-.38,.43-.55,1-.48,1.57l6.27,49.13Z" style="fill:#fff;"/></g><path d="M144.01,208.41l1.97,3.4h0c.03,.05,.09,.08,.15,.06l3.84-.84-2.63,2.93h0s-.05,.11-.02,.16l1.98,3.4-3.6-1.6c-.05-.02-.12-.01-.16,.03l-2.62,2.94,.41-3.91h0c0-.06-.03-.11-.08-.14l-3.6-1.58,3.85-.82h0c.06-.01,.1-.06,.11-.12l.39-3.91Z" style="fill:#fff; fill-rule:evenodd;"/><path d="M123.6,193.8l1.97,3.4h0c.03,.05,.09,.08,.15,.06l3.84-.84-2.63,2.93h0s-.05,.11-.02,.16l1.98,3.4-3.6-1.6c-.05-.02-.12-.01-.16,.03l-2.62,2.94,.41-3.91h0c0-.06-.03-.11-.08-.14l-3.6-1.58,3.85-.82h0c.06-.01,.1-.06,.11-.12l.39-3.91Z" style="fill:#fff; fill-rule:evenodd;"/><path d="M104.27,178.6l1.97,3.4h0c.03,.05,.09,.08,.15,.06l3.84-.84-2.63,2.93h0s-.05,.11-.02,.16l1.98,3.4-3.6-1.6c-.05-.02-.12-.01-.16,.03l-2.62,2.94,.41-3.91h0c0-.06-.03-.11-.08-.14l-3.6-1.58,3.85-.82h0c.06-.01,.1-.06,.11-.12l.39-3.91Z" style="fill:#fff; fill-rule:evenodd;"/><path d="M82.53,163.31l1.97,3.4h0c.03,.05,.09,.08,.15,.06l3.84-.84-2.63,2.93h0s-.05,.11-.02,.16l1.98,3.4-3.6-1.6c-.05-.02-.12-.01-.16,.03l-2.62,2.94,.41-3.91h0c0-.06-.03-.11-.08-.14l-3.6-1.58,3.85-.82h0c.06-.01,.1-.06,.11-.12l.39-3.91Z" style="fill:#fff; fill-rule:evenodd;"/><path d="M61.65,147.75l1.97,3.4h0c.03,.05,.09,.08,.15,.06l3.84-.84-2.63,2.93h0s-.05,.11-.02,.16l1.98,3.4-3.6-1.6c-.05-.02-.12-.01-.16,.03l-2.62,2.94,.41-3.91h0c0-.06-.03-.11-.08-.14l-3.6-1.58,3.85-.82h0c.06-.01,.1-.06,.11-.12l.39-3.91Z" style="fill:#fff; fill-rule:evenodd;"/><path d="M41.3,132.04l1.97,3.4h0c.03,.05,.09,.08,.15,.06l3.84-.84-2.63,2.93h0s-.05,.11-.02,.16l1.98,3.4-3.6-1.6c-.05-.02-.12-.01-.16,.03l-2.62,2.94,.41-3.91h0c0-.06-.03-.11-.08-.14l-3.6-1.58,3.85-.82h0c.06-.01,.1-.06,.11-.12l.39-3.91Z" style="fill:#fff; fill-rule:evenodd;"/><path d="M20.24,115.96l1.97,3.4h0c.03,.05,.09,.08,.15,.06l3.84-.84-2.63,2.93h0s-.05,.11-.02,.16l1.98,3.4-3.6-1.6c-.05-.02-.12-.01-.16,.03l-2.62,2.94,.41-3.91h0c0-.06-.03-.11-.08-.14l-3.6-1.58,3.85-.82h0c.06-.01,.1-.06,.11-.12l.39-3.91Z" style="fill:#fff; fill-rule:evenodd;"/><path d="M181.57,212.32c0,.06,.05,.11,.11,.12h0s3.85,.82,3.85,.82l-3.6,1.58c-.05,.02-.09,.08-.08,.14h0s.41,3.91,.41,3.91l-2.62-2.94s-.1-.06-.16-.03l-3.6,1.6,1.98-3.4c.03-.05,.02-.12-.02-.16h0s-2.63-2.93-2.63-2.93l3.84,.84c.06,.01,.12-.01,.15-.06h0s1.97-3.4,1.97-3.4l.39,3.91Z" style="fill:#fff; fill-rule:evenodd;"/><path d="M201.98,197.72c0,.06,.05,.11,.11,.12h0s3.85,.82,3.85,.82l-3.6,1.58c-.05,.02-.09,.08-.08,.14h0s.41,3.91,.41,3.91l-2.62-2.94s-.1-.06-.16-.03l-3.6,1.6,1.98-3.4c.03-.05,.02-.12-.02-.16h0s-2.63-2.93-2.63-2.93l3.84,.84c.06,.01,.12-.01,.15-.06h0s1.97-3.4,1.97-3.4l.39,3.91Z" style="fill:#fff; fill-rule:evenodd;"/><path d="M221.31,182.51c0,.06,.05,.11,.11,.12h0s3.85,.82,3.85,.82l-3.6,1.58c-.05,.02-.09,.08-.08,.14h0s.41,3.91,.41,3.91l-2.62-2.94s-.1-.06-.16-.03l-3.6,1.6,1.98-3.4c.03-.05,.02-.12-.02-.16h0s-2.63-2.93-2.63-2.93l3.84,.84c.06,.01,.12-.01,.15-.06h0s1.97-3.4,1.97-3.4l.39,3.91Z" style="fill:#fff; fill-rule:evenodd;"/><path d="M243.05,167.22c0,.06,.05,.11,.11,.12h0s3.85,.82,3.85,.82l-3.6,1.58c-.05,.02-.09,.08-.08,.14h0s.41,3.91,.41,3.91l-2.62-2.94s-.1-.06-.16-.03l-3.6,1.6,1.98-3.4c.03-.05,.02-.12-.02-.16h0s-2.63-2.93-2.63-2.93l3.84,.84c.06,.01,.12-.01,.15-.06h0s1.97-3.4,1.97-3.4l.39,3.91Z" style="fill:#fff; fill-rule:evenodd;"/><path d="M263.93,151.66c0,.06,.05,.11,.11,.12h0s3.85,.82,3.85,.82l-3.6,1.58c-.05,.02-.09,.08-.08,.14h0s.41,3.91,.41,3.91l-2.62-2.94s-.1-.06-.16-.03l-3.6,1.6,1.98-3.4c.03-.05,.02-.12-.02-.16h0s-2.63-2.93-2.63-2.93l3.84,.84c.06,.01,.12-.01,.15-.06h0s1.97-3.4,1.97-3.4l.39,3.91Z" style="fill:#fff; fill-rule:evenodd;"/><path d="M284.28,135.96c0,.06,.05,.11,.11,.12h0s3.85,.82,3.85,.82l-3.6,1.58c-.05,.02-.09,.08-.08,.14h0s.41,3.91,.41,3.91l-2.62-2.94s-.1-.06-.16-.03l-3.6,1.6,1.98-3.4c.03-.05,.02-.12-.02-.16h0s-2.63-2.93-2.63-2.93l3.84,.84c.06,.01,.12-.01,.15-.06h0s1.97-3.4,1.97-3.4l.39,3.91Z" style="fill:#fff; fill-rule:evenodd;"/><path d="M305.34,119.87c0,.06,.05,.11,.11,.12h0s3.85,.82,3.85,.82l-3.6,1.58c-.05,.02-.09,.08-.08,.14h0s.41,3.91,.41,3.91l-2.62-2.94s-.1-.06-.16-.03l-3.6,1.6,1.98-3.4c.03-.05,.02-.12-.02-.16h0s-2.63-2.93-2.63-2.93l3.84,.84c.06,.01,.12-.01,.15-.06h0s1.97-3.4,1.97-3.4l.39,3.91Z" style="fill:#fff; fill-rule:evenodd;"/><path d="M282.17,99.53l1.97,3.4h0c.03,.05,.09,.08,.15,.06l3.84-.84-2.63,2.93h0s-.05,.11-.02,.16l1.98,3.4-3.6-1.6c-.05-.02-.12-.01-.16,.03l-2.62,2.94,.41-3.91h0c0-.06-.03-.11-.08-.14l-3.6-1.58,3.85-.82h0c.06-.01,.1-.06,.11-.12l.39-3.91Z" style="fill:#fff; fill-rule:evenodd;"/><path d="M261.76,84.92l1.97,3.4h0c.03,.05,.09,.08,.15,.06l3.84-.84-2.63,2.93h0s-.05,.11-.02,.16l1.98,3.4-3.6-1.6c-.05-.02-.12-.01-.16,.03l-2.62,2.94,.41-3.91h0c0-.06-.03-.11-.08-.14l-3.6-1.58,3.85-.82h0c.06-.01,.1-.06,.11-.12l.39-3.91Z" style="fill:#fff; fill-rule:evenodd;"/><path d="M42.2,103.45c0,.06,.05,.11,.11,.12h0s3.85,.82,3.85,.82l-3.6,1.58c-.05,.02-.09,.08-.08,.14h0s.41,3.91,.41,3.91l-2.62-2.94s-.1-.06-.16-.03l-3.6,1.6,1.98-3.4c.03-.05,.02-.12-.02-.16h0s-2.63-2.93-2.63-2.93l3.84,.84c.06,.01,.12-.01,.15-.06h0s1.97-3.4,1.97-3.4l.39,3.91Z" style="fill:#fff; fill-rule:evenodd;"/><path d="M62.61,88.84c0,.06,.05,.11,.11,.12h0s3.85,.82,3.85,.82l-3.6,1.58c-.05,.02-.09,.08-.08,.14h0s.41,3.91,.41,3.91l-2.62-2.94s-.1-.06-.16-.03l-3.6,1.6,1.98-3.4c.03-.05,.02-.12-.02-.16h0s-2.63-2.93-2.63-2.93l3.84,.84c.06,.01,.12-.01,.15-.06h0s1.97-3.4,1.97-3.4l.39,3.91Z" style="fill:#fff; fill-rule:evenodd;"/><path d="M81.94,73.63c0,.06,.05,.11,.11,.12h0s3.85,.82,3.85,.82l-3.6,1.58c-.05,.02-.09,.08-.08,.14h0s.41,3.91,.41,3.91l-2.62-2.94s-.1-.06-.16-.03l-3.6,1.6,1.98-3.4c.03-.05,.02-.12-.02-.16h0s-2.63-2.93-2.63-2.93l3.84,.84c.06,.01,.12-.01,.15-.06h0s1.97-3.4,1.97-3.4l.39,3.91Z" style="fill:#fff; fill-rule:evenodd;"/><path d="M163.58,15.84c.02,.06,.07,.09,.13,.09h0s3.93-.01,3.93-.01l-3.18,2.31s-.07,.1-.05,.15h0s1.23,3.74,1.23,3.74l-3.18-2.31s-.11-.03-.16,0l-3.18,2.32,1.22-3.74c.02-.06,0-.12-.05-.15h0s-3.19-2.3-3.19-2.3h3.93c.06,0,.11-.04,.13-.09h0s1.2-3.75,1.2-3.75l1.21,3.74Z" style="fill:#fff; fill-rule:evenodd;"/><g><polygon points="70.74 136.42 71.43 103.41 71.45 102.37 70.42 102.39 56.95 102.57 55.99 102.59 55.97 103.55 55.02 148.72 55 149.75 56.03 149.74 90.5 149.26 91.47 149.25 91.49 148.28 91.72 137.16 91.74 136.13 90.71 136.14 70.74 136.42" style="fill:#2f2928;"/><path d="M143.92,100.8h-.97s-.02,.98-.02,.98l-.23,11.05v.35c-1.09-2.49-2.6-4.69-4.57-6.52-4.4-4.09-10.74-6.16-18.86-6.16h0c-.2,0-.41,0-.61,0-8.2,.1-14.76,2.37-19.5,6.73-5.04,4.64-7.27,9.78-7.44,17.19-.14,5.82,1.07,11.37,3.22,14.86,2.27,3.68,5.34,6.4,9.1,8.07,3.56,1.58,8.08,2.38,13.44,2.38,.23,0,.46,0,.7,0,5.59-.07,10.37-1.12,14.19-3.13,3.85-2.02,6.87-4.87,8.97-8.46,2.09-3.57,3.22-8.17,3.35-13.65,.09-4-.49-7.55-1.7-10.63h.73s12.13-.18,12.13-.18l-.67,32.67-.02,1.04h1.04s12.91-.2,12.91-.2h.97s.02-.98,.02-.98l.67-32.74,12.21-.17h.97s.02-.98,.02-.98l.23-11.05,.02-1.04h-1.04s-39.26,.58-39.26,.58Zm-19.07,32.44c-1.75,1.61-4.25,2.45-7.45,2.48h-.18c-3,0-5.36-.79-7.03-2.36-1.68-1.58-2.48-4.31-2.37-8.14,.11-3.88,1.07-6.67,2.87-8.3,1.85-1.68,4.22-2.51,7.24-2.54h.19c3.02,0,5.42,.78,7.11,2.33,1.7,1.55,2.51,4.13,2.41,7.67-.12,4.29-1.06,7.27-2.79,8.86Z" style="fill:#2f2928;"/><path d="M271.16,104.31c-4.4-4.09-10.74-6.16-18.86-6.16h0c-.2,0-.41,0-.61,0-8.2,.1-14.76,2.37-19.5,6.73-2.56,2.36-4.4,4.85-5.6,7.7l.02-.81,.22-11.05,.02-1.04h-1.04s-39,.57-39,.57h-.97s-.02,.98-.02,.98l-.22,11.05-.02,1.04h1.04s12.05-.19,12.05-.19l-.66,32.67-.02,1.03h1.04s12.83-.2,12.83-.2h.97s.02-.98,.02-.98l.66-32.74,12.12-.17h.9c-1.12,2.7-1.69,5.74-1.77,9.31-.14,5.82,1.07,11.37,3.22,14.86,2.27,3.68,5.34,6.4,9.1,8.07,3.56,1.58,8.08,2.38,13.44,2.38,.23,0,.46,0,.7,0,5.59-.07,10.37-1.12,14.19-3.13,3.85-2.02,6.87-4.87,8.97-8.46,2.09-3.57,3.22-8.17,3.35-13.65,.18-7.62-2.03-13.61-6.56-17.83Zm-13.29,26.57c-1.75,1.61-4.25,2.45-7.45,2.48h-.18c-3,0-5.36-.79-7.03-2.36-1.68-1.58-2.48-4.31-2.37-8.14,.11-3.88,1.07-6.67,2.87-8.3,1.85-1.68,4.22-2.51,7.24-2.54h.19c3.02,0,5.42,.78,7.11,2.33,1.7,1.55,2.51,4.13,2.41,7.67-.12,4.29-1.06,7.27-2.79,8.87Z" style="fill:#2f2928;"/></g><g><path d="M52.74,100.13l13.46-.19-.72,34.04,21.01-.29-.23,11.12-34.47,.48,.95-45.17Z" style="fill:#fff;"/><path d="M66.2,99.94l-.72,34.04,21.01-.29-.23,11.12-34.47,.48,.95-45.17,13.46-.19m1.02-1.01h-1.04s-13.46,.2-13.46,.2h-.97s-.02,.98-.02,.98l-.95,45.17-.02,1.04h1.04s34.47-.49,34.47-.49h.97s.02-.98,.02-.98l.23-11.12,.02-1.04h-1.04s-19.97,.29-19.97,.29l.7-33.01,.02-1.04h0Z" style="fill:#01299b;"/></g><g><path d="M88.5,121c.18-7.46,2.55-12.27,7.12-16.48,4.57-4.21,10.85-6.37,18.83-6.46,8.19-.1,14.45,1.86,18.78,5.89,4.33,4.03,6.41,9.72,6.24,17.07-.13,5.34-1.2,9.73-3.21,13.17-2.02,3.44-4.87,6.13-8.58,8.08-3.7,1.95-8.28,2.95-13.74,3.02-5.55,.07-10.12-.69-13.71-2.29-3.6-1.6-6.48-4.16-8.66-7.68-2.18-3.52-3.2-8.98-3.08-14.31Zm14.1,.74c-.12,4.14,.78,7.11,2.69,8.9,1.91,1.79,4.54,2.67,7.91,2.63,3.46-.04,6.17-.95,8.11-2.74,1.95-1.79,2.98-4.98,3.11-9.57,.11-3.86-.8-6.67-2.73-8.44-1.93-1.76-4.59-2.62-7.98-2.59-3.25,.03-5.88,.97-7.9,2.8-2.02,1.83-3.09,4.84-3.2,9.01Z" style="fill:#fff;"/><path d="M115.05,98.06c7.89,0,13.95,1.96,18.18,5.89,4.33,4.03,6.41,9.72,6.24,17.07-.13,5.34-1.2,9.73-3.21,13.17-2.02,3.44-4.87,6.13-8.58,8.08-3.7,1.95-8.28,2.95-13.74,3.02-.23,0-.46,0-.68,0-5.24,0-9.58-.76-13.03-2.3-3.6-1.6-6.48-4.16-8.66-7.68-2.18-3.52-3.2-8.98-3.08-14.31,.18-7.46,2.55-12.27,7.12-16.48,4.57-4.21,10.85-6.37,18.83-6.46,.2,0,.4,0,.6,0m-2.06,35.21c.06,0,.13,0,.19,0,3.46-.04,6.17-.95,8.11-2.74,1.95-1.79,2.98-4.98,3.11-9.57,.11-3.86-.8-6.67-2.73-8.44-1.89-1.73-4.49-2.59-7.78-2.59-.07,0-.13,0-.2,0-3.25,.03-5.88,.97-7.9,2.8-2.02,1.83-3.09,4.84-3.2,9.01-.12,4.14,.78,7.11,2.69,8.9,1.87,1.75,4.44,2.63,7.71,2.63m2.06-36.21h0c-.2,0-.41,0-.61,0-8.2,.1-14.76,2.37-19.5,6.73-5.04,4.64-7.27,9.78-7.44,17.19-.14,5.82,1.07,11.37,3.22,14.86,2.27,3.68,5.34,6.4,9.1,8.07,3.56,1.58,8.08,2.38,13.44,2.38,.23,0,.46,0,.7,0,5.59-.07,10.37-1.12,14.19-3.13,3.85-2.02,6.87-4.87,8.97-8.46,2.09-3.57,3.22-8.17,3.35-13.65,.18-7.62-2.03-13.61-6.56-17.83-4.4-4.09-10.74-6.16-18.86-6.16h0Zm-2.06,35.21c-3,0-5.36-.79-7.03-2.36-1.68-1.58-2.48-4.31-2.37-8.14,.11-3.88,1.07-6.67,2.87-8.3,1.85-1.68,4.22-2.51,7.24-2.54h.19c3.02,0,5.42,.78,7.11,2.33,1.7,1.55,2.51,4.13,2.41,7.67-.12,4.29-1.06,7.27-2.79,8.87-1.75,1.61-4.25,2.45-7.45,2.48h-.18Z" style="fill:#01299b;"/></g><g><path d="M139.71,98.35l39.26-.56-.23,11.05-13.17,.19-.69,33.71-12.91,.18,.69-33.71-13.17,.19,.23-11.05Z" style="fill:#fff;"/><path d="M178.96,97.79l-.23,11.05-13.17,.19-.69,33.71-12.91,.18,.69-33.71-13.17,.19,.23-11.05,39.26-.56m1.02-1.01h-1.04s-39.26,.58-39.26,.58h-.97s-.02,.98-.02,.98l-.23,11.05-.02,1.04h1.04s12.13-.19,12.13-.19l-.67,32.67-.02,1.04h1.04s12.91-.2,12.91-.2h.97s.02-.98,.02-.98l.67-32.74,12.21-.17h.97s.02-.98,.02-.98l.23-11.05,.02-1.04h0Z" style="fill:#01299b;"/></g><g><path d="M182.6,97.82l39-.56-.22,11.05-13.08,.19-.68,33.71-12.83,.18,.68-33.71-13.08,.19,.22-11.05Z" style="fill:#fff;"/><path d="M221.6,97.26l-.22,11.05-13.08,.19-.68,33.71-12.83,.18,.68-33.71-13.08,.19,.22-11.05,39-.56m1.02-1.01h-1.04s-39,.57-39,.57h-.97s-.02,.98-.02,.98l-.22,11.05-.02,1.04h1.04s12.05-.19,12.05-.19l-.66,32.67-.02,1.03h1.04s12.83-.2,12.83-.2h.97s.02-.98,.02-.98l.66-32.74,12.12-.17h.97s.02-.98,.02-.98l.22-11.05,.02-1.04h0Z" style="fill:#01299b;"/></g><g><path d="M221.52,118.65c.18-7.46,2.55-12.27,7.12-16.48,4.57-4.21,10.85-6.37,18.83-6.46,8.19-.1,14.45,1.86,18.78,5.89,4.33,4.03,6.41,9.72,6.24,17.07-.13,5.34-1.2,9.73-3.21,13.17-2.02,3.44-4.87,6.13-8.58,8.08-3.7,1.95-8.28,2.95-13.74,3.02-5.55,.07-10.12-.69-13.71-2.29-3.6-1.6-6.48-4.16-8.66-7.68-2.18-3.52-3.2-8.98-3.08-14.31Zm14.1,.74c-.12,4.14,.78,7.11,2.69,8.9,1.91,1.79,4.54,2.67,7.91,2.63,3.46-.04,6.17-.95,8.11-2.74,1.95-1.79,2.98-4.98,3.11-9.57,.11-3.86-.8-6.67-2.73-8.44-1.93-1.76-4.59-2.62-7.98-2.59-3.25,.03-5.88,.97-7.9,2.8-2.02,1.83-3.09,4.84-3.2,9.01Z" style="fill:#fff;"/><path d="M248.07,95.71c7.89,0,13.95,1.96,18.18,5.89,4.33,4.03,6.41,9.72,6.24,17.07-.13,5.34-1.2,9.73-3.21,13.17-2.02,3.44-4.87,6.13-8.58,8.08-3.7,1.95-8.28,2.95-13.74,3.02-.23,0-.46,0-.68,0-5.24,0-9.58-.76-13.03-2.3-3.6-1.6-6.48-4.16-8.66-7.68-2.18-3.52-3.2-8.98-3.08-14.31,.18-7.46,2.55-12.27,7.12-16.48,4.57-4.21,10.85-6.37,18.83-6.46,.2,0,.4,0,.6,0m-2.06,35.21c.06,0,.13,0,.19,0,3.46-.04,6.17-.95,8.11-2.74,1.95-1.79,2.98-4.98,3.11-9.57,.11-3.86-.8-6.67-2.73-8.44-1.89-1.73-4.49-2.59-7.78-2.59-.07,0-.13,0-.2,0-3.25,.03-5.88,.97-7.9,2.8-2.02,1.83-3.09,4.84-3.2,9.01-.12,4.14,.78,7.11,2.69,8.9,1.87,1.75,4.44,2.63,7.71,2.63m2.06-36.21h0c-.2,0-.41,0-.61,0-8.2,.1-14.76,2.37-19.5,6.73-5.04,4.64-7.27,9.78-7.44,17.19-.14,5.82,1.07,11.37,3.22,14.86,2.27,3.68,5.34,6.4,9.1,8.07,3.56,1.58,8.08,2.38,13.44,2.38,.23,0,.46,0,.7,0,5.59-.07,10.37-1.12,14.19-3.13,3.85-2.02,6.87-4.87,8.97-8.46,2.09-3.57,3.22-8.17,3.35-13.65,.18-7.62-2.03-13.61-6.56-17.83-4.4-4.09-10.74-6.16-18.86-6.16h0Zm-2.06,35.21c-3,0-5.36-.79-7.03-2.36-1.68-1.58-2.48-4.31-2.37-8.14,.11-3.88,1.07-6.67,2.87-8.3,1.85-1.68,4.22-2.51,7.24-2.54h.19c3.02,0,5.42,.78,7.11,2.33,1.7,1.55,2.51,4.13,2.41,7.67-.12,4.29-1.06,7.27-2.79,8.87-1.75,1.61-4.25,2.45-7.45,2.48h-.18Z" style="fill:#01299b;"/></g></g></svg>