<svg xmlns="http://www.w3.org/2000/svg" viewBox="0 0 265.82 175.96"><title>dc-dc2</title><g id="Layer_2" data-name="Layer 2"><g id="Layer_2-2" data-name="Layer 2"><path d="M221.8,49.3q0,24.75-25,41.2l-44,27.1h68.3v37H94.5c0-13.7,3-25,9-34,4.6-6.9,13.4-15.3,26.5-25.2,12.8-7.9,22.4-14.1,28.6-18.6,12.4-9,18.6-17.2,18.6-24.5q0-8.25-5.1-13.2c-3.4-3.3-7.9-5-13.5-5-13.8,0-20.7,9.9-20.7,29.6H97.1c0-20.2,5.6-35.8,16.8-47S140.8,0,161.2,0q24.3,0,41.4,12.3c12.8,9.1,19.2,21.5,19.2,37" style="fill:#ec1c24"/><path d="M0,108H21.4c12.8,0,19.5,8.7,19.5,23.3,0,13.1-6.5,23.3-18.8,23.3H0Zm4.5,42.1H21.2c7.9,0,14.8-4.6,14.8-18.9,0-12.3-4.6-18.9-14.8-18.9H4.5Z" style="fill:#0a0827"/><path d="M91.8,136.8c-1,10.4-9.1,18.9-21.8,18.9-14.3,0-23.4-9.5-23.4-24.4,0-10.6,6.2-24.5,23.5-24.5,9.6,0,20.1,4.6,21.4,16.9H86.9c-1.4-8.9-8.9-12.5-16.9-12.5-10.9,0-18.5,6.5-18.5,20,0,10.4,5.1,20,18.5,20,10.5,0,15.7-5.6,17.2-14.5Z" style="fill:#0a0827"/><polygon points="184.3 175.97 195.45 139.49 164.76 116.81 202.96 116.08 215.09 79.82 227.58 115.96 265.82 116.32 235.24 139.26 246.75 175.74 215.45 153.91 184.3 175.97" style="fill:#0a0827"/><polygon points="182.51 122.47 202.43 137.19 195.17 160.91 215.42 146.57 235.72 160.73 228.24 137.01 248.05 122.15 223.29 121.92 215.18 98.46 207.31 122 182.51 122.47" style="fill:#fff"/></g></g></svg>