<svg xmlns="http://www.w3.org/2000/svg" viewBox="0 0 271.8 188.94"><title>dc-dcluckymidday</title><g id="Layer_2" data-name="Layer 2"><g id="Layer_2-2" data-name="Layer 2"><path d="M154.5,64.6c3.7-.2,7.4.5,11.1.2,12.3,0,27.8-3,27.8-16.8,0-10.4-11.1-16.2-24.6-16.2-17,0-26.8,8.3-26.6,22.9H103.1c1-36,28.8-54.7,65.4-54.7,29.8,0,64,11.8,64,44.5,0,14.1-8.1,28.9-23.9,31.4v.5c19.7,4.8,29.3,18,29.3,36.9,0,36.5-35.4,51.7-69.4,51.7-40.1,0-72.6-19.2-70.1-60.5h39.1c-.5,19.2,9.6,28.6,30.8,28.6,14.3,0,27.8-5.8,27.8-19.8,0-17.8-13.8-21.9-30.5-21.9-3.7,0-7.4.2-11.1.5Z" style="fill:#ec1c24"/><path d="M0,114.5H21.8c13,0,19.8,8.8,19.8,23.7,0,13.3-6.6,23.7-19.1,23.7H0Zm4.6,42.8H21.5c8,0,15-4.6,15-19.2,0-12.5-4.6-19.2-15-19.2H4.6Z" style="fill:#0a0827"/><path d="M93.2,143.8c-1,10.6-9.3,19.2-22.1,19.2-14.5,0-23.8-9.7-23.8-24.9,0-10.8,6.3-24.9,23.8-24.9,9.8,0,20.4,4.7,21.8,17.2H88.3c-1.4-9-9-12.7-17.1-12.7-11.1,0-18.8,6.6-18.8,20.3,0,10.5,5.2,20.4,18.8,20.4,10.7,0,15.9-5.7,17.5-14.7h4.5Z" style="fill:#0a0827"/><polygon points="190.28 188.94 201.43 152.46 170.74 129.78 208.94 129.05 221.07 92.79 233.56 128.93 271.81 129.3 241.22 152.24 252.73 188.72 221.43 166.88 190.28 188.94" style="fill:#0a0827"/><polygon points="188.5 135.44 208.41 150.16 201.15 173.89 221.4 159.54 241.7 173.71 234.22 149.99 254.03 135.13 229.27 134.89 221.16 111.43 213.29 134.97 188.5 135.44" style="fill:#fff"/></g></g></svg>