<svg xmlns="http://www.w3.org/2000/svg" viewBox="0 0 272.8 184.94"><title>dc-dc4</title><g id="Layer_2" data-name="Layer 2"><g id="Layer_2-2" data-name="Layer 2"><path d="M238.3,90.7v32.8H216.2v35.3H174.9V123.5H100.8V87.3L176.5,0h39.6V90.7Zm-62.3,0V39.5h-.5L132.7,90.8Z" style="fill:#ec1c24"/><path d="M0,111H21.5c12.9,0,19.6,8.7,19.6,23.4,0,13.2-6.5,23.4-18.9,23.4H0Zm4.6,42.3H21.4c7.9,0,14.8-4.6,14.8-18.9,0-12.4-4.6-18.9-14.8-18.9H4.6Z" style="fill:#0a0827"/><path d="M92.1,139.9c-1,10.5-9.2,19-21.9,19-14.4,0-23.5-9.6-23.5-24.6,0-10.7,6.3-24.6,23.5-24.6,9.7,0,20.1,4.7,21.5,17H87.1c-1.4-8.9-8.9-12.5-16.9-12.5-11,0-18.6,6.5-18.6,20.1,0,10.4,5.1,20.1,18.6,20.1,10.5,0,15.7-5.6,17.3-14.5Z" style="fill:#0a0827"/><polygon points="191.28 184.94 202.43 148.47 171.74 125.78 209.94 125.06 222.07 88.8 234.56 124.94 272.8 125.3 242.22 148.24 253.73 184.72 222.43 162.88 191.28 184.94" style="fill:#0a0827"/><polygon points="189.49 131.45 209.4 146.16 202.15 169.89 222.4 155.55 242.7 169.71 235.21 145.99 255.03 131.13 230.27 130.9 222.16 107.44 214.29 130.98 189.49 131.45" style="fill:#fff"/></g></g></svg>