<svg xmlns="http://www.w3.org/2000/svg" viewBox="0 0 270.8 179.95"><title>dc-dc5</title><g id="Layer_2" data-name="Layer 2"><g id="Layer_2-2" data-name="Layer 2"><path d="M138.9,109c.2,12.5,14.7,19.7,27,19.7,15.9,0,28-10,28-25.4s-9.7-26-26.6-26c-11.6,0-20.3,2.5-26.8,12H103.4L119.8,0H226.1V32.6H151.5l-6.3,28.8h.5c8.4-7.7,20-11.3,32.8-11.3,34.5,0,56.5,18.6,56.5,51.4,0,39-29.9,58.5-69.1,58.5-36.7,0-65.7-13.1-68.1-51Z" style="fill:#ec1c24"/><path d="M0,105.7H21.4c12.8,0,19.5,8.6,19.5,23.2,0,13.1-6.5,23.2-18.8,23.2H0Zm4.6,42H21.2c7.9,0,14.7-4.6,14.7-18.8,0-12.3-4.5-18.8-14.7-18.8H4.6Z" style="fill:#0a0827"/><path d="M91.5,134.5c-1,10.4-9.1,18.9-21.7,18.9-14.3,0-23.4-9.5-23.4-24.4,0-10.6,6.2-24.4,23.4-24.4,9.6,0,20,4.6,21.4,16.8H86.6c-1.3-8.8-8.9-12.4-16.8-12.4-10.9,0-18.5,6.4-18.5,20,0,10.3,5.1,20,18.5,20,10.5,0,15.6-5.6,17.2-14.4Z" style="fill:#0a0827"/><polygon points="189.28 179.95 200.43 143.47 169.74 120.79 207.94 120.06 220.07 83.8 232.56 119.94 270.81 120.31 240.22 143.25 251.73 179.73 220.43 157.89 189.28 179.95" style="fill:#0a0827"/><polygon points="187.5 126.45 207.41 141.17 200.15 164.9 220.4 150.56 240.7 164.72 233.22 141 253.03 126.14 228.27 125.9 220.16 102.44 212.29 125.98 187.5 126.45" style="fill:#fff"/></g></g></svg>