<svg version="1.1" id="Layer_1" xmlns="http://www.w3.org/2000/svg" xlink="http://www.w3.org/1999/xlink" x="0px" y="0px" viewBox="207.78503 43.5 544.41497 473" enable-background="207.78503 43.5 544.41497 473" space="preserve">
<g>
	<g>
		<path fill="#929497" d="M224.4,248.2c0,0,11.7-42.8,51.8-54.4c40.2-11.7,40.2-50.5,40.2-50.5s3.9-10.4,31.1-19.4s40.2-35,40.2-35
			l31.1,20.7L472,43.5c0,0,68.7,123.1,98.5,68.7l36.3,45.4c0,0-2.6-22,25.9,7.8c28.5,29.8,70,88.1,70,88.1l-54.4-3.9
			c0,0-35-6.5-75.2,0c-40.2,6.5-146.4-7.8-146.4-7.8s-81.6,9.1-97.2,9.1C313.9,250.8,224.4,248.2,224.4,248.2z"/>
		<path fill="#F0F3F7" d="M280.2,214.5c0,0,41.5-38.9,50.5-58.3c9.1-19.4,37.6-19.4,37.6-19.4l35-25.9c0,0,50.5,22,7.8,46.7
			c0,0-25.9-6.5-50.5,13C335.9,189.9,308.7,231.4,280.2,214.5z"/>
		<path fill="#FFFFFF" stroke="#929497" stroke-width="3" stroke-miterlimit="10" d="M481,64.2c0,0-54.4,28.5-58.3,79
			c0,0-66.1,54.4-72.6,54.4s59.6,2.6,67.4-14.3l8.2,22.5l32.8-42.3c0,0,42.8,7.8,41-9.1c-1.7-16.8-36.3-16.8-20.3-40.6
			S481,64.2,481,64.2z"/>
		<path fill="#FFFFFF" stroke="#929497" stroke-width="3" stroke-miterlimit="10" d="M479.7,210.7c0,0,13-15.6,37.6-20.7
			s50.5-66.1,50.5-66.1l46.7,51.8c0,0-53.1-7.8-63.5,20.7S479.7,210.7,479.7,210.7z"/>
	</g>
	<g>
		<g>
			<linearGradient id="SVGID_1_" gradientUnits="userSpaceOnUse" x1="258.6942" y1="236.96" x2="258.6942" y2="342.5742">
				<stop offset="0" style="stop-color:#25AAE1"/>
				<stop offset="0.5153" style="stop-color:#2388C9"/>
				<stop offset="1" style="stop-color:#1A3E95"/>
			</linearGradient>
			<path fill="url(#SVGID_1_)" d="M239.2,344.7V227h39v117.8H239.2z"/>
			<linearGradient id="SVGID_2_" gradientUnits="userSpaceOnUse" x1="340.652" y1="236.96" x2="340.652" y2="342.5742">
				<stop offset="0" style="stop-color:#25AAE1"/>
				<stop offset="0.5153" style="stop-color:#2388C9"/>
				<stop offset="1" style="stop-color:#1A3E95"/>
			</linearGradient>
			<path fill="url(#SVGID_2_)" d="M392.3,344.7h-37.8v-9.3c-6.1,7.1-13.8,10.6-23.3,10.6c-8.4,0-15.8-2-22.2-5.9
				c-6.4-3.9-11.3-9.5-14.8-16.7c-3.5-7.2-5.2-15.6-5.2-25.3c0-9.4,1.7-17.6,5-24.7c3.4-7.1,8.1-12.5,14.3-16.3
				c6.2-3.8,13.4-5.7,21.7-5.7c4.9,0,9.5,0.9,13.6,2.8c4.2,1.9,7.7,4.5,10.7,8v-42.1h37.8V344.7z M350.8,312.1
				c2.5-3.3,3.7-7.6,3.7-12.9c0-5.4-1.2-9.7-3.7-12.9c-2.5-3.3-5.7-4.9-9.8-4.9c-4.2,0-7.5,1.6-10,4.9c-2.5,3.3-3.8,7.6-3.8,12.9
				c0,5.4,1.3,9.7,3.8,12.9c2.5,3.3,5.8,4.9,10,4.9C345,317,348.3,315.4,350.8,312.1z"/>
			<linearGradient id="SVGID_3_" gradientUnits="userSpaceOnUse" x1="451.7605" y1="236.96" x2="451.7605" y2="342.5742">
				<stop offset="0" style="stop-color:#25AAE1"/>
				<stop offset="0.5153" style="stop-color:#2388C9"/>
				<stop offset="1" style="stop-color:#1A3E95"/>
			</linearGradient>
			<path fill="url(#SVGID_3_)" d="M487.4,260.1c7.5,6,11.2,14.4,11.2,25.1v59.4h-37.1v-9.9c-5.6,7.7-14.2,11.6-25.8,11.6
				c-9.6,0-17.2-2.6-22.6-7.8c-5.4-5.2-8.2-12.2-8.2-21.1c0-9.1,3-16,9.1-20.7c6-4.7,14.9-7.2,26.5-7.4h21c-0.1-3.2-1.4-5.7-3.8-7.5
				c-2.4-1.7-5.9-2.6-10.5-2.6c-3.6,0-7.9,0.5-12.9,1.5c-5,1-10,2.5-15,4.4l-8.4-25.2c7.8-2.9,15.6-5.1,23.4-6.6
				c7.8-1.5,15.1-2.3,21.9-2.3C469.6,251.2,480,254.2,487.4,260.1z M455.8,320.6c2.3-1.2,4.2-3,5.7-5.2v-8.4h-13.1
				c-5.4,0-8,2.5-8,7.4c0,2.6,0.7,4.6,2.2,6c1.4,1.4,3.5,2.1,6.2,2.1C451.1,322.4,453.5,321.8,455.8,320.6z"/>
			<linearGradient id="SVGID_4_" gradientUnits="userSpaceOnUse" x1="564.6324" y1="236.96" x2="564.6324" y2="342.5742">
				<stop offset="0" style="stop-color:#25AAE1"/>
				<stop offset="0.5153" style="stop-color:#2388C9"/>
				<stop offset="1" style="stop-color:#1A3E95"/>
			</linearGradient>
			<path fill="url(#SVGID_4_)" d="M598,255.5c5,2.9,8.9,7,11.7,12.3c2.8,5.2,4.2,11.3,4.2,18.3v58.6h-37.8V297c0-3.8-1-6.9-3-9.1
				c-2-2.3-4.6-3.4-7.9-3.4c-3.7,0-6.7,1.3-8.8,4c-2.2,2.7-3.2,6.3-3.2,10.7v45.5h-37.8V220.1h37.8v45.8c3.1-4.8,7.1-8.5,11.8-11
				c4.8-2.5,10.1-3.8,16.1-3.8C587.4,251.2,593,252.6,598,255.5z"/>
			<linearGradient id="SVGID_5_" gradientUnits="userSpaceOnUse" x1="674.9612" y1="236.96" x2="674.9612" y2="342.5742">
				<stop offset="0" style="stop-color:#25AAE1"/>
				<stop offset="0.5153" style="stop-color:#2388C9"/>
				<stop offset="1" style="stop-color:#1A3E95"/>
			</linearGradient>
			<path fill="url(#SVGID_5_)" d="M702.3,257.3c7.8,3.9,13.9,9.4,18.1,16.5c4.2,7.1,6.4,15.4,6.4,24.9c0,9.5-2.1,17.8-6.4,24.9
				c-4.2,7.1-10.3,12.6-18.1,16.5c-7.8,3.9-17,5.9-27.3,5.9s-19.5-2-27.4-5.9c-7.9-3.9-13.9-9.4-18.2-16.5
				c-4.2-7.1-6.4-15.4-6.4-24.9c0-9.5,2.1-17.8,6.4-24.9c4.2-7.1,10.3-12.6,18.1-16.5c7.8-3.9,17-5.8,27.4-5.8
				C685.4,251.5,694.5,253.4,702.3,257.3z M665,286.3c-2.5,3.3-3.8,7.6-3.8,12.9c0,5.4,1.3,9.7,3.8,12.9c2.5,3.3,5.8,4.9,10,4.9
				c4.2,0,7.5-1.6,10-4.9c2.5-3.3,3.7-7.6,3.7-12.9c0-5.4-1.3-9.7-3.8-12.9c-2.5-3.3-5.8-4.9-9.9-4.9
				C670.8,281.4,667.5,283,665,286.3z"/>
		</g>
		<g>
			<linearGradient id="SVGID_6_" gradientUnits="userSpaceOnUse" x1="273.2909" y1="351.2603" x2="273.2909" y2="491.754">
				<stop offset="0" style="stop-color:#8BC53C"/>
				<stop offset="0.5153" style="stop-color:#74C043"/>
				<stop offset="1" style="stop-color:#46B848"/>
			</linearGradient>
			<path fill="url(#SVGID_6_)" d="M307.5,376.5c10.5,3.9,19.4,9.3,26.6,16.3l-23.8,31.7c-4.2-5.2-9.2-9.3-14.9-12.3
				c-5.7-2.9-11.2-4.3-16.4-4c-8,0.4-14.4,3.7-19.3,9.7c-4.9,6-7.1,13.4-6.6,22.3c0.3,5.8,1.8,11,4.4,15.6
				c2.6,4.6,6.1,8.1,10.5,10.5c4.4,2.4,9.2,3.5,14.4,3.2c4.8-0.3,9.9-1.9,15.3-4.9c5.4-3,10.1-7,14.2-12l26.9,25.8
				c-7.1,8.5-15.7,15.5-25.9,20.8c-10.2,5.4-20.4,8.3-30.6,8.9c-13.4,0.7-25.7-1.6-36.8-6.9c-11.1-5.4-19.9-13.1-26.6-23.2
				c-6.6-10.1-10.3-21.7-11-34.8c-0.7-12.9,1.8-24.7,7.4-35.3c5.6-10.6,13.8-19.1,24.5-25.6c10.7-6.4,22.9-10,36.7-10.8
				C286.6,371,297,372.7,307.5,376.5z"/>
			<linearGradient id="SVGID_7_" gradientUnits="userSpaceOnUse" x1="413.7495" y1="351.2603" x2="413.7495" y2="491.754">
				<stop offset="0" style="stop-color:#8BC53C"/>
				<stop offset="0.5153" style="stop-color:#74C043"/>
				<stop offset="1" style="stop-color:#46B848"/>
			</linearGradient>
			<path fill="url(#SVGID_7_)" d="M386.9,481.7l-5.8,19.2l-45.2,2.5l49-136.5l45.2-2.5l61.5,130.4l-47,2.6l-7.7-18.5L386.9,481.7z
				 M408.5,409.7l-11.9,39.8l27.8-1.5L408.5,409.7z"/>
			<linearGradient id="SVGID_8_" gradientUnits="userSpaceOnUse" x1="549.38" y1="351.2603" x2="549.38" y2="491.754">
				<stop offset="0" style="stop-color:#8BC53C"/>
				<stop offset="0.5153" style="stop-color:#74C043"/>
				<stop offset="1" style="stop-color:#46B848"/>
			</linearGradient>
			<path fill="url(#SVGID_8_)" d="M581.7,398.8c-2.9-1.6-6-3.1-9.4-4.4c-2.9-1.2-6.1-2.4-9.6-3.4c-3.6-1-7.1-1.7-10.7-2.2l0.9,17.1
				c1.2,0.2,2.4,0.5,3.7,0.8c1.3,0.4,2.6,0.7,4.1,1c6.3,1.6,12,3.3,17.2,5.4c5.1,2,9.6,4.5,13.3,7.4c3.7,2.9,6.7,6.5,8.8,10.9
				c2.1,4.3,3.4,9.7,3.7,16c0.4,7.5-0.5,13.9-2.9,19.3c-2.3,5.4-5.5,9.9-9.6,13.5c-4.1,3.6-8.8,6.4-14.1,8.4
				c-5.4,2-10.9,3.4-16.8,4.1l1.3,23l-15.2,0.8l-1.3-23.4c-8.8-0.3-17.6-1.5-26.3-3.7c-8.8-2.2-16.7-5.1-23.8-8.8l14.2-33.4
				c3.5,2,7.3,3.8,11.4,5.5c3.4,1.5,7.3,2.9,11.8,4.2c4.5,1.3,9,2.2,13.6,2.6l-0.9-16.7c-4-0.8-8-1.8-12-3
				c-6.1-1.7-11.3-3.6-15.8-5.7c-4.4-2.1-8.1-4.6-11.1-7.4c-3-2.8-5.2-6.1-6.7-9.8c-1.5-3.7-2.4-8.1-2.7-13
				c-0.4-6.8,0.4-13,2.4-18.4c2-5.4,4.9-10.1,8.6-14.1c3.7-4,8.2-7.3,13.3-9.9c5.1-2.6,10.7-4.3,16.6-5.3l-1.1-19.2l15.2-0.8
				l1.1,19.4c4.2,0.3,8.3,0.8,12.3,1.6c4,0.8,7.8,1.8,11.5,2.9c3.7,1.1,7.2,2.3,10.4,3.6c3.2,1.3,6.2,2.5,9,3.6L581.7,398.8z
				 M534.8,395.6c0.1,1.9,0.8,3.4,2.2,4.6c1.3,1.1,3.3,2.1,5.9,3l-0.8-14.5C537,389.6,534.6,391.9,534.8,395.6z M563.9,453.2
				c-0.1-1.8-0.9-3.3-2.5-4.5c-1.6-1.2-3.7-2.3-6.3-3.2l0.8,14.1c3-0.4,5.1-1.2,6.4-2.3C563.4,456.2,564,454.8,563.9,453.2z"/>
			<linearGradient id="SVGID_9_" gradientUnits="userSpaceOnUse" x1="683.767" y1="351.2603" x2="683.767" y2="491.7322">
				<stop offset="0" style="stop-color:#8BC53C"/>
				<stop offset="0.5153" style="stop-color:#74C043"/>
				<stop offset="1" style="stop-color:#46B848"/>
			</linearGradient>
			<path fill="url(#SVGID_9_)" d="M708.1,483.1l-2.6-48.1l-41.2,2.3l2.6,48.1l-44.2,2.4l-7.3-133.4l44.2-2.4l2.8,51.7l41.2-2.3
				l-2.8-51.7l44.1-2.4l7.3,133.4L708.1,483.1z"/>
		</g>
	</g>
</g>
</svg>
