<svg version="1.1" id="Layer_1" xmlns="http://www.w3.org/2000/svg" xlink="http://www.w3.org/1999/xlink" x="0px" y="0px" viewBox="126.5 84.1 707 392" enable-background="126.5 84.1 707 392" space="preserve">
<g>
	<g>
		<path fill="#E81D28" d="M126.5,312.6v-130c0-10.7,8.7-19.4,19.4-19.4h52.7c34.4,0,53.3,23.3,53.3,51.3c0,27.7-19.2,51.1-53.3,51.1
			h-36.4c-3.9,0-7,3.1-7,7v40c0,7.9-6.4,14.4-14.4,14.4h0C133,326.9,126.5,320.5,126.5,312.6z M222.5,214.5c0-15.7-11.5-26-27.7-26
			h-32.5c-3.9,0-7,3.1-7,7v37.7c0,3.9,3.1,7,7,7h32.5C211,240.2,222.5,229.9,222.5,214.5z"/>
		<path fill="#E81D28" d="M272.7,181c-2.1-11.3,7.5-20.9,18.8-18.8c6.3,1.2,11.4,6.3,12.6,12.5c2.1,11.3-7.5,20.9-18.8,18.8
			C279,192.4,273.9,187.3,272.7,181z"/>
		<path fill="#E81D28" d="M275.3,314v-92.8c0-7.1,5.8-12.9,12.9-12.9h0c7.1,0,12.9,5.8,12.9,12.9V314c0,7.1-5.8,12.9-12.9,12.9h0
			C281.1,326.9,275.3,321.1,275.3,314z"/>
		<path fill="#E81D28" d="M327.5,272.4c-2.6-40,33.2-72.6,72.7-66.1c8.3,1.4,15.1,4.2,20.7,7.8c7.8,5.1,8.8,16.3,1.8,22.6l0,0
			c-2.9,2.7-7.6,2.5-10.4-0.1c-6-5.6-13.5-8.4-22.6-8.4c-21.4,0-35.8,16.2-35.8,39.3s14.5,39.5,35.8,39.5c8.7,0,15.9-2.8,21.8-8.1
			c3.4-3.1,8.5-3.3,11.9-0.1l3.7,3.5c4,3.8,4.1,10.2,0,13.9c-8.5,7.7-20.7,13.6-38.6,13.6C354.3,329.9,329.7,305.7,327.5,272.4z"/>
		<path fill="#E81D28" d="M532,322.3l-30.5-41.5c-1.2-1.6-3.5-1.8-4.9-0.3l-13.2,13.5c-0.6,0.6-0.9,1.4-0.9,2.2V314
			c0,7.1-5.8,12.9-12.9,12.9h0c-7.1,0-12.9-5.8-12.9-12.9V176c0-7.1,5.8-12.9,12.9-12.9h0c7.1,0,12.9,5.8,12.9,12.9v81.2
			c0,2.9,3.6,4.3,5.6,2.2l43.6-47.7c2-2.2,4.8-3.4,7.7-3.4h0c10.5,0,15.9,12.4,8.9,20.2l-28.9,31.6c-1.1,1.2-1.1,2.9-0.2,4.1
			l34.4,44.5c5.7,7.4,0.4,18.1-8.9,18.1h-3.8C537.5,326.9,534.1,325.2,532,322.3z"/>
	</g>
	<g>
		<circle fill="#F6941D" cx="699.4" cy="218.2" r="134.1"/>
		<path fill="#FFFFFF" d="M711.1,211.3v-0.5c27.7-5.6,41.6-20.5,41.6-44.6c0-12.9-4.8-23.7-14.4-32.5c-9.1-8.3-20.9-13-35.4-14.2
			l0,0c-5.8-0.8-10.9-0.4-14.2,0.1v0c-12.5,1.4-22.9,6-31.1,13.8c-3.9,3.6-7,7.6-9.1,12.2c-2.1,4.6-3.2,10.1-3.2,16.6
			c0,6.5,1.7,11.5,5,15.1c3.3,3.6,7.6,5.4,12.9,5.4c5.3,0,9.4-1.5,12.4-4.5c3-3,4.5-7.1,4.5-12.2s-1.9-9.4-5.6-12.6
			c-1.7-1.4-4.8-3-9.2-4.7c0.9-6.1,3.5-10.8,7.8-14.1c4.1-3.1,9-4.9,14.7-5.5c5.9-0.6,10.1,0.1,12.1,0.6v0.1
			c14.6,3.7,21.9,16.7,21.9,39.2c0,11.9-2.8,21-8.3,27.5c-2.3,2.9-4.8,4.9-7.5,6.2c-2.7,1.3-5.2,2.3-7.5,3
			c-2.3,0.7-7.1,1.3-14.4,1.6c-5.1,0-7.6,1.9-7.6,5.7c0,3.8,2.5,5.7,7.6,5.7c1.2,0,2.5,0,3.7-0.1l6.1-0.1c8.9,0,16,3,21.4,9
			c6.6,7.4,9.9,19,9.9,34.9c0,25.2-8.3,39.7-24.8,43.7c-2.1,0.4-6.9,1.2-12.3,1.2c-7.4-0.3-13.6-2.1-18.7-5.7
			c-5.1-3.6-7.7-8-7.9-13.4c5.2-1.7,9-3.7,11.6-5.9c1.5-1.3,2.7-3,3.6-4.9c0.9-1.9,1.3-4.6,1.3-8.1c0-3.5-1.3-7.1-4-10.8
			c-3-3.9-6.7-5.9-11.1-5.9c-14.4,0-21.7,8.6-21.7,25.7c0,10.8,4.1,19.7,12.3,26.9c7.8,6.7,18.1,10.6,31.1,11.9
			c0.9,0.1,5.9,0.8,15,0.1v0.1c17.2-1.2,31.2-7.3,42-18.2c10.5-10.6,15.8-23.5,15.8-38.8C757.5,233,742,216.8,711.1,211.3z"/>
	</g>
	<g>
		<g>
			<path fill="#FFFFFF" d="M504.2,386.2l-0.4-0.7c-9.1-14.5-20-21.8-32.4-21.8c-6.4,0-12.6,2.1-18.4,6c-4.7-2.8-9.6-4.2-14.8-4.2
				c-4.5,0-8.9,1.1-13.1,3.1l-0.1-0.1l-1.9-0.7l-24.2-4.8l-3.6,0.2l-2.4,0.8l-0.7-0.2l-3.3-0.2l-21.3,3.7l-2.4,0.9l-3.2,1.9
				l-1.9,1.7l-0.8,1l-0.5-0.5l-2.6-1.6l-4.2-1.5l-3-0.4l-10.6,1.1l0.6-1.5l0.4-2.2l0.1-3.3l-0.3-2.2l-0.6-2l-0.9-2l-1.9-2.7
				l-1.5-1.6c-2.1-1.6-13.2-9.5-27.8-9.5c-8.6,0-16.5,2.7-23.4,8.2c-12.1,9.4-16.4,23.2-11.8,36.9c0.3,4.1,2.7,7.4,5.3,11.1
				c1.1,1.5,2.3,2.8,3.7,4l-0.6,0.7l-9.3,22l-0.5,2.4l-0.2,3.6l0.3,2.4l0.7,2.2l1.1,2.2l2.2,2.9l1.8,1.6c7.9,4.9,17.7,7.7,27,7.7
				c12,0,22.5-4.4,30.5-12.6c8.6,11.4,19.9,12.8,24.6,12.8c5.4,0,9.4-1.4,10.5-1.9l0.4-0.2l0.8,0.3l2.1,0.3h7.6l2.3-0.4l3.3-1.2
				l2.1-1.2l1.7-1.4l1.6-1.8l1.8-3l0.9-2.2l3.6-17.7l6.3,18.7l1.1,2l2.1,2.7l1.7,1.6l1.8,1.2l2.1,0.9l3.3,0.8l2.3,0.2l10.4-0.9
				l2.8-0.8l3.7-2l2.2-1.9l0.6,0.6l2,1.5l3.4,1.7l2.5,0.7l14.6,1.3l3-0.4l4.2-1.5l0.8-0.5l2.1,1.2l3.2,0.9l17.2,0.4l2.2-0.3l3.1-1
				l2-1l1.7-1.2l1.6-1.5l2-2.6l1-2C514,408.3,506.1,389.9,504.2,386.2z"/>
			<path fill="#FFFFFF" d="M590.9,420.5l-1.9-3.7l-1.7-2.2l-1.9-1.6l-2.5-1.3l-3.9-1.2l-1.8-0.2c-0.8-2.3-1.8-5.8-2.8-10.2l1-0.2
				l4.2-2l2.5-2l1.7-2.2l1.3-2.9l0.9-4.6l-0.1-3.2l-2.4-8.5l-1.1-2.2l-2.1-2.9l-1.8-1.7l-1.9-1.3l-2.2-1l-3.5-0.8l-2.4-0.1l-2,0.2
				l-1.6-2.4l-3.4-3.2l-2.8-1.6l-2.7-0.8l-3.2-0.2l-4.6,0.9l-2.3,1c-2.8-7.6-10.2-13-18.7-13c-11,0-20,9-20,20c0,4.5,1.5,8.6,4,12
				l-1,2.7l-0.4,2.3l-0.9,53.7l0.6,2.9l1.8,4l1.8,2.4l2,1.8l2.6,1.5l4.2,1.3l3,0.2l19.4-2.6l2.7-1l0.6-0.4
				c5.6,4.1,12.8,6.3,21.2,6.3c7,0,12.5-1.5,14.1-1.9l2.1-1l2.8-2l1.7-1.7l1.2-1.8l1-2.1l0.9-3.3l0.2-2.3l-0.9-13.1L590.9,420.5z"/>
			<path fill="#FFFFFF" d="M755.9,417.6l0.7-2.7l3.3-56.4l-0.6-3.2l-1.9-4.3l-1.9-2.6l-2.2-1.8l-2.9-1.4l-4.6-1l-3.2,0l-24.8,6.3
				l-2.4,1.1l-3.2,2.3l-1.8,2l-1.3,2.1l-0.9,2.5l-0.7,3.9l0.1,2.7l0.1,0.6c-2.6-0.7-5.3-1.1-8.1-1.1c-3.3,0-6.6,0.5-9.9,1.6
				l-0.8-0.7l-2.5-1.4l-3.2-0.9l-4.9-0.1l-3.3,0.7l-1.6,0.8l-1.6-1l-4.6-1.5l-3.3-0.2l-21.3,3.7l-2.4,0.9l-3.2,1.9l-1.9,1.7l-0.8,1
				l-0.5-0.5l-2.6-1.6l-4.2-1.5l-3-0.4l-18.5,2l-2.6,0.8l-3.5,1.9l-2.1,1.7l-1.5,1.9l-1.3,2.4l-1.2,3.8l-0.3,2.7
				c0.5,5.4,3.6,33.2,12.7,48.8c8.7,14.9,21.9,16.5,27.1,16.5c5.4,0,9.4-1.4,10.5-1.9l0.4-0.2l0.8,0.3l2.1,0.3h6.6l-0.9,11.1
				l0.5,3.1l1.7,4.3l1.8,2.6l2,1.9l2.7,1.5l4.4,1.3l3.1,0.2l24.2-4.1l2.5-0.9l3.3-2.1l2-1.8l1.4-2l1.1-2.4l1-3.8l0.1-2.7l-0.6-4.1
				c3.4-0.8,5.8-2,6.7-2.4c4.2-2.1,7.9-4.6,11.2-7.4c3.3,6.5,10.1,11,17.9,11c11,0,20-9,20-20c0-5-1.8-9.5-4.9-13L755.9,417.6z"/>
		</g>
		<path fill="#4B308F" d="M302.8,444.3c-8,0-16.5-2.4-23.3-6.7l-2.2-2.9l-0.7-2.2l0.2-3.6l9.3-22l4.2-3.2l3-0.4l1.2,0.5
			c-4.9-2.2-9.6-4.8-12.2-8.5c-2.6-3.7-4.2-5.9-4.1-8.3c-4.2-11.4-0.9-22.3,9.2-30.2c5.7-4.4,12.1-6.7,19.2-6.7
			c12.6,0,22.5,7.2,23.6,8.1l1.9,2.7l0.6,2l-0.1,3.3l-3.8,10.2l-2.9,3l-2.4,1l-4.2-0.1c-1.9-0.9-7.8-3.2-12.1-3.2
			c-1.3,0-1.9,0.2-2.1,0.3c0,0,0,0.2-0.1,0.4c-0.6,3.4,5,5.5,8.4,6.4c7.1,2,13.6,6.3,18.1,12c7.8,9.8,8.6,20.9,2.1,31
			C324.5,441.4,311.9,444.3,302.8,444.3z M298.1,405.6c1.3,1.6,4.2,4.1,6.3,4.1c0.5,0,0.9-0.2,1.5-0.5c-2.1-1.2-5.5-2.7-7.5-3.5
			C298.2,405.6,298.2,405.6,298.1,405.6z"/>
		<path fill="#9EAC3D" d="M302.8,439.1c-7.1,0-14.5-2.1-20.5-5.9l-0.7-2.2l9.3-22l3-0.4c0,0.1,4.9,6.3,10.5,6.3
			c2.3,0,4.5-1.1,6.6-3.3c1.1-1.2,1.6-2.3,1.5-3.2c-0.6-2.7-6.6-5.3-12-7.6c-5.6-2.4-11.4-4.9-13.9-8.5c-3.1-4.4-3.3-4.7-2.8-5.7
			c-2.6-5.9-4.7-16.6,6.9-25.7c4.7-3.7,10.1-5.6,15.9-5.6c11.1,0,20,6.7,20.4,7l0.6,2l-3.8,10.2l-2.4,1c-0.1,0-7.9-3.7-14.3-3.7
			c-5.7,0-6.9,2.9-7.3,5c-1.3,7.1,5.9,10.7,12.1,12.4c6.1,1.7,11.5,5.3,15.5,10.2c6.4,8.1,7,16.7,1.8,25
			C321.4,436.6,310.5,439.1,302.8,439.1z"/>
		<path fill="#FFB52A" d="M325.8,363.8l-3.8,10.2c0,0-21.8-10.2-24.1,2.6c-1.6,8.8,7.5,12.8,13.3,14.4c5.7,1.6,10.9,5,14.6,9.7
			c4.5,5.6,7.6,13.7,1.7,23c-11.6,18.3-32.8,15.4-44.4,8.1l9.3-22c0,0,10.2,13.3,19.7,3.2c9.6-10.2-18.6-13.3-24.4-21.5
			c-5.8-8.1-0.3-1.2-0.3-1.2s-11.9-15.4,4.1-27.8C307.6,349.9,325.8,363.8,325.8,363.8z"/>
		<path fill="#4B308F" d="M357.9,444.5c-5,0-14.4-1.7-21.1-13c-8.6-14.6-11.5-42.8-11.8-45.9l1.2-3.8l1.5-1.9l3.5-1.9l18.5-2
			l4.2,1.5l1.9,1.9l1.5,4.2c-1.7,17.5-1.2,33.7,0.3,39.7l0.4,0l0.1,0c0.1-0.1,0.4-0.2,0.7-0.6c1.2-1.3,6.9-9.2,4.2-40.9l1.1-3.6
			l1.4-1.9l3.2-1.9l21.3-3.7l4.6,1.5l2,2.1l1.4,4.7l-12,58.5l-1.8,3l-1.7,1.4l-3.3,1.2h-7.6l-3-0.9l-0.7-0.5l-0.5,0.5l-1.7,1.1
			C365.3,443.4,362.2,444.5,357.9,444.5z"/>
		<path fill="#9EAC3D" d="M357.9,439.3c-4.8,0-11.5-1.8-16.6-10.5c-8.2-13.9-11-42.6-11.1-43.8l1.5-1.9l18.5-2l1.9,1.9
			c-1.4,15.1-2.1,40.8,2.3,45.6c0.4,0.5,0.7,0.5,0.9,0.5c0.4,0,0.8-0.2,1.3-0.5l1.3-0.2c0,0,0.1,0,0.3,0c0.8,0,2.5-0.3,4.4-2.3
			c3.2-3.5,8.2-13.9,5.6-44.8l1.4-1.9l21.3-3.7l2,2.1l-12,58.5l-1.7,1.4h-7.6l-1.6-1.1c-0.5-1.4-1.7-3-2.4-3c-0.4,0-1.5,0.8-2.9,3.8
			l-0.9,0.9C363.8,438.3,361.3,439.3,357.9,439.3z"/>
		<path fill="#FFB52A" d="M331.9,384.9l18.5-2c0,0-5.2,55,7.2,47.2c0,0,16.8,3.7,12.4-49l21.3-3.7l-12,58.5h-7.6
			c0,0-3.7-9.8-8.5,0.7c0,0-12.4,5-20.5-8.7C334.8,414.2,331.9,384.9,331.9,384.9z"/>
		<path fill="#4B308F" d="M632.9,444.5c-5,0-14.4-1.7-21.1-13c-8.6-14.6-11.5-42.8-11.8-45.9l1.2-3.8l1.5-1.9l3.5-1.9l18.5-2
			l4.2,1.5l1.9,1.9l1.5,4.2c-1.7,17.5-1.2,33.7,0.3,39.7l0.4,0l0.1,0c0.1-0.1,0.4-0.2,0.7-0.6c1.2-1.3,6.9-9.2,4.2-40.9l1.1-3.6
			l1.4-1.9l3.2-1.9l21.3-3.7l4.6,1.5l2,2.1l1.4,4.7l-12,58.5l-1.8,3l-1.7,1.4l-3.3,1.2h-7.6l-3-0.9l-0.7-0.5l-0.5,0.5l-1.7,1.1
			C640.3,443.4,637.2,444.5,632.9,444.5z"/>
		<path fill="#9EAC3D" d="M632.9,439.3c-4.8,0-11.5-1.8-16.6-10.5c-8.2-13.9-11-42.6-11.1-43.8l1.5-1.9l18.5-2l1.9,1.9
			c-1.4,15.1-2.1,40.8,2.3,45.6c0.4,0.5,0.7,0.5,0.9,0.5c0.4,0,0.8-0.2,1.3-0.5l1.3-0.2c0,0,0.1,0,0.3,0c0.8,0,2.5-0.3,4.4-2.3
			c3.2-3.5,8.2-13.9,5.6-44.8l1.4-1.9l21.3-3.7l2,2.1l-12,58.5l-1.7,1.4h-7.6l-1.6-1.1c-0.5-1.4-1.7-3-2.4-3c-0.4,0-1.5,0.8-2.9,3.8
			l-0.9,0.9C638.8,438.3,636.4,439.3,632.9,439.3z"/>
		<path fill="#FFB52A" d="M606.9,384.9l18.5-2c0,0-5.2,55,7.2,47.2c0,0,16.8,3.7,12.4-49l21.3-3.7l-12,58.5h-7.6
			c0,0-3.7-9.8-8.5,0.7c0,0-12.4,5-20.5-8.7C609.8,414.2,606.9,384.9,606.9,384.9z"/>
		<path fill="#4B308F" d="M473,442.1l-4.2-2.4l-1.6-2.4l-0.1-0.8l-0.9,2.5l-1.9,1.9l-4.2,1.5l-14.6-1.3l-3.4-1.7l-1.6-1.7l-1.4-3.5
			c0-20.3-3.2-36.1-5.8-40.2c-1.2,1.7-5.4,9.8,0.1,39.1l-1,4.1l-1.6,2l-3.7,2l-10.4,0.9l-3.3-0.8l-1.8-1.2l-2.1-2.7l-19.8-58.5
			l1-5.1l2-2.3l4.9-1.7l24.2,4.8l2.6,1.3l0.6,0.6c3.5-2.3,8-4.2,13.2-4.2c5.3,0,10.4,2,15.1,5.9c4.2-3.8,10.4-7.7,18.1-7.7
			c9.8,0,18.7,6.3,26.5,18.6l0.2,0.4c0.9,1.8,8.6,18.4-1.3,48.1l-2,2.6l-1.7,1.2l-3.1,1L473,442.1z M473.5,392.3
			c-0.5,0-0.9,0.1-1.6,0.8c-3.1,3.4-6,15.2-4.5,37.7c5.8-14.8,9.9-33.2,7.2-38.2l-0.3-0.2C474,392.3,473.7,392.3,473.5,392.3z"/>
		<path fill="#9EAC3D" d="M473.1,436.9l-1.6-2.4c3.8-9.3,12.5-35.4,7.6-44.4c-0.9-1.6-2.1-2.5-3.9-2.8c-0.6-0.1-1.2-0.2-1.8-0.2
			c-2.1,0-3.9,0.8-5.5,2.5c-5.5,6-7.5,22.7-5.5,45.8l-1.9,1.9L446,436l-1.6-1.7c0-19-3.3-45.8-10.5-45.8c-0.3,0-0.5,0-0.8,0.1
			l-0.5,0c0,0-1.5,0-3.1,2c-2.8,3.4-6.7,13.7-1.2,43.6l-1.6,2l-10.4,0.9l-1.8-1.2l-19.8-58.5l2-2.3l24.2,4.8l1.4,1.3l0.9,3.9
			c2.9-3,8.3-7.4,15.2-7.4c5.4,0,10.5,2.7,15.2,8.1c2.7-3.3,9.3-9.9,18-9.9c7.9,0,15.3,5.4,22,16.2c0.4,0.8,7.7,16.1-1.6,44.1
			l-1.7,1.2L473.1,436.9z"/>
		<path fill="#FFB52A" d="M396.3,376.8l24.2,4.8l1.7,7.2c0,0,15-20.9,31.3-0.2c0,0,18.5-27.4,38.5,4.4c0,0,7.4,15-1.7,42.6
			l-17.2-0.4c0,0,18.9-46.6,2.4-49.6c-16.5-3-16.5,29.8-14.8,50l-14.6-1.3c0,0,0-50.7-13.5-47.4c0,0-15-0.7-6.1,47.6l-10.4,0.9
			L396.3,376.8z"/>
		<path fill="#4B308F" d="M519.5,441.9l-2-1.8l-1.8-4l0.9-53.7l1.2-3.2l1.4-1.7l2.9-1.8c0.6-0.1,3.8-0.8,6-0.8
			c4.6,0,7.2,3.2,7.6,6.4c0.8,3.2,7.6,29.6,13.1,50.6l-0.7,4.2l-1.4,2.2l-3.6,2.3l-19.4,2.6L519.5,441.9z"/>
		<path fill="#9EAC3D" d="M521,436.2l0.9-53.7l1.4-1.7c0.3-0.1,3.3-0.7,4.9-0.7c2.3,0,2.4,1.6,2.4,1.9c0.2,1.2,8,31.3,13.2,51.1
			l-1.5,2.2l-19.4,2.6L521,436.2z"/>
		<path fill="#FFB52A" d="M523.6,382.5c0,0,5.2-1.1,5.2-0.4c0,0.7,13.3,51.6,13.3,51.6l-19.4,2.6L523.6,382.5z"/>
		<path fill="#4B308F" d="M527.1,378.3c-7.2,0-13.1-5.9-13.1-13.1c0-7.2,5.9-13.1,13.1-13.1s13.1,5.9,13.1,13.1
			C540.1,372.5,534.3,378.3,527.1,378.3z"/>
		<path fill="#9EAC3D" d="M527.1,373.1c-4.3,0-7.8-3.5-7.8-7.8c0-4.3,3.5-7.8,7.8-7.8s7.8,3.5,7.8,7.8
			C534.9,369.6,531.4,373.1,527.1,373.1z"/>
		<circle fill="#FFB52A" cx="527.1" cy="365.3" r="6.1"/>
		<path fill="#4B308F" d="M739.4,446.2c-7.2,0-13.1-5.9-13.1-13.1c0-7.2,5.9-13.1,13.1-13.1s13.1,5.9,13.1,13.1
			C752.5,440.4,746.6,446.2,739.4,446.2z"/>
		<path fill="#9EAC3D" d="M739.4,441c-4.3,0-7.8-3.5-7.8-7.8c0-4.3,3.5-7.8,7.8-7.8s7.8,3.5,7.8,7.8
			C747.3,437.5,743.8,441,739.4,441z"/>
		<circle fill="#FFB52A" cx="739.4" cy="433.2" r="6.1"/>
		<path fill="#4B308F" d="M568.5,445.4c-14.9,0-24.9-8.4-26.8-22.4l0-0.8l0.8-27.2l-0.4,0l-3.2-0.6l-1.8-1l-2.2-2.5l-2.8-6.5
			l0.4-4.9l1.6-2.4l4.4-2.4h2.9l0.3-2.6l0.7-1.6l1.7-2.2l5.4-4.1l4.6-0.9l2.7,0.8l3.4,3.2l1.8,4.9l7.4-0.9l3.5,0.8l1.9,1.3l2.1,2.9
			l2.4,8.5l-0.9,4.6l-1.7,2.2l-4.2,2l-6.3-0.1c2,12.4,4.9,21.3,6.8,24.1l4.1-0.5l3.9,1.2l1.9,1.6l1.9,3.7l0.9,13.1l-0.9,3.3
			l-1.2,1.8l-2.8,2C579.7,444,574.7,445.4,568.5,445.4z"/>
		<path fill="#9EAC3D" d="M568.5,440.2c-12.4,0-20.1-6.4-21.6-17.9l1-33.3l-6.5,0.8l-1.8-1l-2.8-6.5l1.6-2.4h8.9l-0.8-5.9l0.7-1.6
			l5.4-4.1l2.7,0.8l3.2,8.7l11.5-1.4l1.9,1.3l2.4,8.5l-1.7,2.2l-12.4-0.2c1.8,14.6,6.5,34.5,11.6,34.8l5.8-0.6l1.9,1.6l0.9,13.1
			l-1.2,1.8C579,438.8,574.3,440.2,568.5,440.2z"/>
		<path fill="#FFB52A" d="M548.2,373.8l5.4-4.1l3.7,10l12.8-1.5l2.4,8.5l-14.4-0.2c0,0,4.1,37.9,13.5,38.3l6.1-0.7l0.9,13.1
			c0,0-27,8.1-30-15l1.1-35l-8.5,1.1l-2.8-6.5h10.9L548.2,373.8z"/>
		<path fill="#4B308F" d="M603.2,384.7"/>
		<path fill="#9EAC3D" d="M603.2,384.7"/>
		<path fill="#FFFFFF" d="M603.2,384.7"/>
		<path fill="#4B308F" d="M730.6,421.4l-4.9-4.1l-11.3-51.8l0.7-3.9l1.3-2.1l3.2-2.3l24.8-6.3l4.6,1l2.2,1.8l1.9,4.3l-3.3,56.4
			l-1.8,3.7l-1.9,1.6L742,421c-0.1,0-1.6-0.2-3.3-0.2c-1.8,0-2.4,0.2-2.5,0.2c0,0,0.6-0.2,1.2-0.8l-3.6,1.3L730.6,421.4z"/>
		<path fill="#9EAC3D" d="M730.8,416.1l-11.3-51.8l1.3-2.1l24.8-6.3l2.2,1.8l-3.3,56.4l-1.9,1.6c0,0-1.8-0.2-3.8-0.2
			c-3.9,0-4.6,0.7-4.6,0.7L730.8,416.1z"/>
		<path fill="#FFB52A" d="M721.2,364l24.8-6.3l-3.3,56.4c0,0-9.8-1.1-10.2,1.7L721.2,364z"/>
		<path fill="#4B308F" d="M663.1,467.7l-2-1.9l-1.7-4.3l6.3-79.6l0.9-2.5l1-1.4l2-1.8l8.7-4.4l4.9,0.1l2.5,1.4l2,3
			c3.4-1.7,7.4-3,12-3c7.9,0,15.3,3.7,21.9,11.1c2.9,3.2,5,7.2,6.2,11.7c5.5,21-1.7,37.7-20.4,47.1c-0.8,0.4-5.2,2.5-10.6,2.5
			c-0.3,0-0.6,0-0.9,0l1.6,11.2l-1,3.8l-1.4,2l-3.3,2.1l-24.2,4.1L663.1,467.7z M699.2,398.8c-1,1.7-2.2,5.2-2.2,10.2
			c0,5,1.2,8.4,2.2,10.2c1-1.7,2.2-5.2,2.2-10.2C701.4,403.9,700.2,400.5,699.2,398.8z"/>
		<path fill="#9EAC3D" d="M664.6,462l6.3-79.6l1-1.4l8.7-4.4l2.5,1.4l0.7,7.4c3.1-2.8,8.8-6.7,15.8-6.7c6.3,0,12.4,3.2,18.1,9.4
			c2.3,2.6,4,5.8,5,9.5c4.9,18.6-1.2,32.8-17.7,41.1c-0.1,0.1-3.8,2-8.3,2l0,0c-2.7,0-5.1-0.7-7.2-2.1l2.7,19.2l-1.4,2l-24.2,4.1
			L664.6,462z M699.2,392.5c-3.5,0-7.4,6.7-7.4,16.4s3.9,16.4,7.4,16.4s7.4-6.7,7.4-16.4S702.7,392.5,699.2,392.5z"/>
		<path fill="#FFB52A" d="M721,398c-0.9-3.3-2.4-6.3-4.6-8.8c-18-19.9-33.9,0-33.9,0l-1.1-11.1l-8.7,4.4l-6.3,79.6l24.2-4.1
			l-3.5-24.6c5.9,9.6,17.2,3.7,17.2,3.7C725.5,426.4,723.8,408.5,721,398z M699.2,427.1c-5,0-9.1-8.1-9.1-18.2s4.1-18.2,9.1-18.2
			s9.1,8.1,9.1,18.2S704.2,427.1,699.2,427.1z"/>
	</g>
</g>
</svg>
