<svg xmlns="http://www.w3.org/2000/svg" viewBox="0 0 250.43 92.88"><defs><style>.cls-1{fill:#0090b4;}.cls-2{fill:#fff;}</style></defs><g id="Layer_2" data-name="Layer 2"><g id="Layer_1-2" data-name="Layer 1"><path class="cls-1" d="M157.85,46.37C157.84,20.94,178.55,0,203.71,0a46.44,46.44,0,1,1-45.86,46.37Zm60.63-13.32q0-9.61,0-19.23c0-1.61-.34-2-1.9-2-1.35,0-2.7,0-4,0a5.28,5.28,0,0,0-4.29,2.24c-9,11.41-18,22.84-27.2,34.12-2.36,2.9-3.89,5.75-3.42,9.59.27,2.17.31,2.45,2.54,2.45,6.15,0,12.31,0,18.46,0,1.22,0,1.61.36,1.56,1.58-.09,2.11-.1,4.22,0,6.33a3.23,3.23,0,0,1-2,3.44c-1.53.74-1.89,2.11-1.38,4.29.36,1.53,1.63,1.26,2.67,1.26,6.91,0,13.82,0,20.74,0A6.84,6.84,0,0,0,222,77a1.49,1.49,0,0,0,.9-.74,3.89,3.89,0,0,0-2-5,4,4,0,0,1-2.42-3.69c0-2.07,0-4.14,0-6.2,0-.83.32-1.14,1.12-1.12,1.35,0,2.7,0,4,0,1.06,0,2-.42,1.8-1.6-.2-1.65,1.05-3.74-1.3-4.8a2.7,2.7,0,0,0-1-.15l-2.78,0c-1.89,0-1.89,0-1.89-1.85Q218.47,42.42,218.48,33.05Z"/><path class="cls-1" d="M0,57.7C0,50.87,0,44,0,37.2a14.18,14.18,0,0,1,.26-2.76,4.46,4.46,0,0,1,3.22-3.57,8,8,0,0,1,2.34-.47c7.59.07,15.19-.11,22.74.39,10.45.68,16,8.64,14.15,19.55-1.05,6.15-5,9.9-10.81,11.43a54.82,54.82,0,0,1-9.85,1.34,89.45,89.45,0,0,1-9,0c-1.36,0-1.85.33-1.82,1.76.08,4.17,0,8.35,0,12.53a21.56,21.56,0,0,1-.11,2.27c-.4,3.54-2.49,5.45-5.81,5.35S.13,82.84.06,79.34C0,73.77,0,68.21,0,62.64Zm11.31-11h0c0,2.4-.05,4.81,0,7.21,0,.4.59,1.13.9,1.12,4.16-.08,8.34-.06,12.47-.5a7.19,7.19,0,0,0,6.51-5.06c1.73-5.4-1.08-10-7-10.72-3.95-.48-8-.28-12-.39-.9,0-1,.55-1,1.25C11.33,42,11.32,44.33,11.32,46.69Z"/><path class="cls-1" d="M118.67,57.5c0-7,0-13.93,0-20.89a15,15,0,0,1,.28-3.14,4.58,4.58,0,0,1,5.3-4,4.75,4.75,0,0,1,4.58,4.68c.1,1.18.12,2.36.12,3.54,0,6.84-.05,13.67-.06,20.51a8.07,8.07,0,0,0,.26,1.44,11.58,11.58,0,0,0,1.19-.85l12.32-12.19c1.46-1.45,3.05-2.49,5.27-2.17,3.23.47,4.8,3.56,2.84,6.15a49.44,49.44,0,0,1-5.14,5.2,33,33,0,0,1-2.95,2.58c-.81.62-.84,1.12-.27,2q5.69,8.37,11.23,16.85a7,7,0,0,1,1.14,3.12,4.31,4.31,0,0,1-2.95,4.42,4.54,4.54,0,0,1-5.46-1.44c-2.49-3.51-4.83-7.12-7.2-10.71-1.26-1.9-2.5-3.81-3.68-5.75-.53-.87-.95-.86-1.65-.2-1.3,1.26-2.73,2.39-4,3.7a3.42,3.42,0,0,0-.92,2c-.12,2.53,0,5.06-.09,7.59a5,5,0,0,1-4.6,5,4.69,4.69,0,0,1-5.47-4.48,38.85,38.85,0,0,1-.11-4Q118.66,67,118.67,57.5Z"/><path class="cls-1" d="M92.59,44.3c5.53.1,10.31,1.45,14.38,4.85a11.29,11.29,0,0,1,3.67,5.2,4.16,4.16,0,0,1-1.89,5.13,4.29,4.29,0,0,1-5.43-.65c-1.16-1.22-2.13-2.62-3.28-3.84a10,10,0,0,0-16.36,2.39A16.59,16.59,0,0,0,84,72.86c3.21,6.08,13.17,7,17.7.19.63-1,1.23-1.93,1.93-2.82a4.31,4.31,0,0,1,5.1-1.43,4.37,4.37,0,0,1,2.68,4.69,9.71,9.71,0,0,1-2.56,5.26,17.57,17.57,0,0,1-9.39,5.41,27.43,27.43,0,0,1-15.11-.34c-6.6-2.1-10.56-6.7-12.07-13.41a24.5,24.5,0,0,1,.1-11.17c2-8.44,8.06-13.69,16.92-14.71C90.46,44.4,91.69,44.36,92.59,44.3Z"/><path class="cls-1" d="M62.55,64.58c0,4.77.08,9.53,0,14.3a8.83,8.83,0,0,1-1,4.06c-1.18,2-3.28,2.39-5.45,2a4.51,4.51,0,0,1-3.58-3.82,11.63,11.63,0,0,1-.23-2.64q0-13.73,0-27.45a13.89,13.89,0,0,1,.11-2.14c.41-2.94,2.34-4.51,5.33-4.4a4.8,4.8,0,0,1,4.85,4.84c.09,5.1,0,10.2,0,15.3Z"/><path class="cls-1" d="M57.42,39.45c-3.15,0-5.22-1.92-5.2-4.8a5.05,5.05,0,0,1,5.31-4.81,4.8,4.8,0,0,1,5,4.88C62.53,37.55,60.45,39.46,57.42,39.45Z"/><path class="cls-2" d="M218.48,33.05q0,9.38,0,18.73c0,1.84,0,1.84,1.89,1.85l2.78,0a2.7,2.7,0,0,1,1,.15c2.35,1.06,1.1,3.15,1.3,4.8.15,1.18-.74,1.58-1.8,1.6-1.35,0-2.7,0-4,0-.8,0-1.14.29-1.12,1.12,0,2.06,0,4.13,0,6.2a4,4,0,0,0,2.42,3.69,3.89,3.89,0,0,1,2,5,1.49,1.49,0,0,1-.9.74,6.84,6.84,0,0,1-1.75.16c-6.92,0-13.83,0-20.74,0-1,0-2.31.27-2.67-1.26-.51-2.18-.15-3.55,1.38-4.29a3.23,3.23,0,0,0,2-3.44c-.09-2.11-.08-4.22,0-6.33.05-1.22-.34-1.59-1.56-1.58-6.15,0-12.31,0-18.46,0-2.23,0-2.27-.28-2.54-2.45-.47-3.84,1.06-6.69,3.42-9.59,9.19-11.28,18.18-22.71,27.2-34.12a5.28,5.28,0,0,1,4.29-2.24c1.35,0,2.7-.06,4,0,1.56,0,1.9.4,1.9,2Q218.49,23.44,218.48,33.05ZM200.14,44.1h0c0-2.78,0-5.57,0-8.35A3.25,3.25,0,0,0,200,35a5,5,0,0,0-.55.47Q192.53,44,185.68,52.65a4.36,4.36,0,0,0-.4.74,4.34,4.34,0,0,0,.91.23c4.22,0,8.44,0,12.65,0,1,0,1.34-.32,1.32-1.31C200.11,49.59,200.14,46.84,200.14,44.1Z"/><path class="cls-1" d="M200.14,44.1c0,2.74,0,5.49,0,8.23,0,1-.33,1.32-1.32,1.31-4.21,0-8.43,0-12.65,0a4.34,4.34,0,0,1-.91-.23,4.36,4.36,0,0,1,.4-.74Q192.54,44,199.4,35.43A5,5,0,0,1,200,35a3.25,3.25,0,0,1,.19.79c0,2.78,0,5.57,0,8.35Z"/></g></g></svg>