<svg version="1.1" id="Layer_1" xmlns="http://www.w3.org/2000/svg" xlink="http://www.w3.org/1999/xlink" x="0px" y="0px" viewBox="-273.4 -77.97847 971.4 409.27847" enable-background="-273.4 -77.97847 971.4 409.27847" space="preserve">
<g>
	<path fill="#A5B981" d="M630.2,150.8c-16.3-21.6-41.7-35.3-72.1-38.5c-4.4-0.6-8.8-0.6-13.1-0.6c-55.7,0-106.8,38.8-121.4,92.5
		c-3.8,13.4-4.7,26.6-3.2,39.1l-15.2,2.9c-1.8,0.3-3.2,0.6-4.7,0.6c-4.1,0-5.8-1.2-6.7-2c-1.8-1.5-2.3-4.1-2-7l5.3-36.2h24.8
		l11.4-82.6h-24.2l5.3-37.9H314.1l-8.2,39.4h-14.6l0.3-1.5h-24.2l5.3-37.9H172.5l-8.2,39.4h-19.3l-9,52.8
		c-3.2-7.9-7.3-15.5-12.3-22.2c-16.3-21.6-41.7-35.3-72.1-38.5c-4.4-0.6-8.8-0.6-13.1-0.6c-55.7,0-106.8,38.8-121.4,92.5
		c-2.9,10.2-4.1,20.4-3.8,30.1h-64.2l19-160.5h-103.3l-38.2,245.2h188.3l8.2-44.7c1.2,2.3,2.6,5,4.1,7.3c15.5,24.2,42,40.9,75,46.7
		c6.4,1.2,13.1,1.8,19.8,1.8l0,0c57.2,0,109.5-42.6,119.1-96.6c2-10.8,2.3-21.6,1.5-31.8l9.9,0.3l-7.9,63
		c-3.2,25.7,12.8,49.9,37.7,56.3c7.9,2,17.2,3.2,27.4,3.2c27.7,0,54.9-7.6,56-7.9l9.3-2.6l7.6-70.9l-19.3,3.5
		c-1.8,0.3-3.2,0.6-4.7,0.6c-4.1,0-5.8-1.2-6.7-2c-1.8-1.5-2.3-4.1-2-7l5.3-36.2h24.8v-0.3l13.7,0.6l-7.9,63
		c-3.2,25.7,12.8,49.9,37.7,56.3c7.9,2,17.2,3.2,27.4,3.2c27.7,0,54.9-7.6,56-7.9l9.3-2.6l5.8-56.6c2.3,8.8,5.8,16.9,10.8,24.8
		c15.5,24.2,42,40.9,75,46.7c6.4,1.2,13.1,1.8,19.8,1.8l0,0c57.2,0,109.5-42.6,119.1-96.6C652.9,202.2,646.8,173,630.2,150.8z
		 M16.1,217.7c2.9-10.2,10.5-16.3,15.8-16.3c0.6,0,1.2,0,2,0.3c3.5,0.9,5.3,4.7,6.1,6.7c1.8,4.7,2,10.8,0.3,16.6
		c-2.9,10.2-10.5,16.3-15.8,16.3c-0.6,0-1.2,0-2-0.3C16.7,239,12.9,228.8,16.1,217.7z M522.5,217.7c2.9-10.2,10.5-16.3,15.8-16.3
		c0.6,0,1.2,0,2,0.3c3.5,0.9,5.3,4.7,6.1,6.7c1.8,4.7,2,10.8,0.3,16.6c-2.9,10.2-10.5,16.3-15.8,16.3c-0.6,0-1.2,0-2-0.3
		c-3.5-0.9-5.3-4.7-6.1-6.7C520.7,229.3,520.7,223.5,522.5,217.7z"/>
</g>
<polygon fill="#E6F8B0" points="-263.8,310.2 -228.5,82.5 -142.4,82.5 -161.4,243.1 -80.8,243.1 -93.1,310.2 "/>
<polygon fill="#6DAF4D" points="-223.6,88.4 -149.1,88.4 -168.1,248.9 -87.8,248.9 -98.1,304.3 -257.1,304.3 "/>
<path fill="#E6F8B0" d="M527.7,321c-6.1,0-12.3-0.6-18.1-1.5c-30.6-5.3-55.2-20.4-69.2-42.6c-12.8-20.4-16.1-44.7-9-70.3
	c13.4-49.9,61-85.8,113-85.8c4.1,0,8.2,0.3,12.3,0.6c28.3,2.9,51.1,15.2,66,35c15.2,20.1,20.7,46.7,15.8,75.3
	C629.3,281.6,580.8,321,527.7,321L527.7,321z M537.6,192.6c-10.2,0-20.4,9.6-24.2,22.8c-2.3,7.9-2,15.8,0.6,22.2
	c2.3,6.1,6.4,10.2,11.7,11.7c1.5,0.3,2.9,0.6,4.4,0.6c10.2,0,20.4-9.6,24.2-22.8c2.3-7.9,2-15.8-0.6-22.2
	c-2.3-6.1-6.4-10.2-11.7-11.7C540.6,192.9,539.1,192.6,537.6,192.6z"/>
<path fill="#6DAF4D" d="M555.7,126.9c-54-5.8-105.1,30.1-119.1,81.1c-14.3,53.1,18.7,96,73.8,105.9c55.2,9.9,112.4-28.9,122-83.2
	S611.5,133,555.7,126.9z M559.8,228.8c-5.5,18.7-21.6,30.1-35.9,26c-14.3-4.1-21.6-22.8-16.1-41.2c5.5-18.7,21.6-30.1,35.9-26
	C558.1,191.7,565.4,210.4,559.8,228.8z"/>
<path fill="#E6F8B0" d="M116.2,156.1c-14.9-19.8-37.9-32.1-66-35c-4.1-0.3-8.2-0.6-12.3-0.6c-52,0-99.5,36.2-113,85.8
	c-7,25.7-3.8,49.9,9,70.3c14,22.2,38.8,37.4,69.2,42.6c5.8,1.2,12,1.5,18.1,1.5l0,0c53.1,0,101.6-39.4,110.3-89.6
	C136.6,203.1,131.1,176.2,116.2,156.1z M126.1,230.5c-9.6,54.3-66.8,92.8-122,83.2S-84,261.2-69.7,207.7c14-51.1,65.1-87,119.1-81.1
	C105.1,133,135.4,176.2,126.1,230.5z"/>
<path fill="#6DAF4D" d="M49.3,126.9C-4.7,121.1-55.7,157-69.7,208C-84,261.2-51.1,304.1,4.1,314c55.2,9.9,112.4-28.9,122-83.2
	S105.1,133,49.3,126.9z M53.4,228.8c-5.5,18.7-21.6,30.1-35.9,26C3.2,250.6-4.1,232,1.5,213.6c5.5-18.7,21.6-30.1,35.9-26
	C51.7,191.7,59,210.4,53.4,228.8z"/>
<path fill="#E6F8B0" d="M37.4,187.6c-14.3-4.1-30.4,7.3-35.9,26c-5.5,18.7,1.8,37.1,16.1,41.2c14.3,4.1,30.4-7.3,35.9-26
	C59,210.4,51.7,191.7,37.4,187.6z M47.9,227.3c-3.8,13.1-14,22.8-24.2,22.8c-1.5,0-2.9-0.3-4.4-0.6C7.9,246.3,2.6,230.8,7,215.3
	c3.8-13.1,14-22.8,24.2-22.8c1.5,0,2.9,0.3,4.4,0.6c5.3,1.5,9.3,5.8,11.7,11.7C49.9,211.5,50.2,219.4,47.9,227.3z"/>
<path fill="#E6F8B0" d="M209,315.4c-9.3,0-17.8-0.9-25.1-2.9c-20.4-5.3-33.9-25.4-31.2-46.7l9-72.7l-20.7-0.9l10.8-63.3h19.3
	l8.2-39.4h82.9l-5.3,37.9h24.2l-8.8,65.1h-24.8l-6.4,43.8c-0.9,5.5,0.9,11.1,4.7,14.6c3.2,2.9,7.3,4.4,12.6,4.4c2,0,4.1-0.3,6.1-0.6
	l7.6-1.5l-5.5,53.4l-3.8,1.2C261.5,307.9,235.6,315.4,209,315.4z"/>
<path fill="#6DAF4D" d="M183.6,95.7h71.5l-5.3,37.9h24.2l-7.3,53.4H242l-7,48.7c-1.2,7.3,1.2,14.6,6.4,19.6c4.7,4.4,12,7.6,23.9,5.3
	l-4.4,41.7c0,0-44.7,12.8-75.9,4.7c-17.8-4.7-29.2-22.2-26.9-40.3l9.9-79.1l-20.4-0.9l8.8-52h19L183.6,95.7z"/>
<path fill="#E6F8B0" d="M350.6,315.4c-9.3,0-17.8-0.9-25.1-2.9c-20.4-5.3-33.9-25.4-31.2-46.7l9-72.7l-20.7-0.9l10.8-63.3h19.3
	l8.2-39.4h82.9l-5.3,37.9h24.2l-8.8,65.1h-24.8l-6.4,43.8c-0.9,5.5,0.9,11.1,4.7,14.6c3.2,2.9,7.3,4.4,12.6,4.4c2,0,4.1-0.3,6.1-0.6
	l7.6-1.5l-5.5,53.4l-3.8,1.2C403.1,307.9,377.1,315.4,350.6,315.4z"/>
<path fill="#6DAF4D" d="M325.2,95.7h71.5l-5.3,37.9h24.2l-7.3,53.4h-24.8l-7,48.7c-1.2,7.3,1.2,14.6,6.4,19.6
	c4.7,4.4,12,7.6,23.9,5.3l-4.4,41.7c0,0-44.7,12.8-75.9,4.7c-17.8-4.7-29.2-22.2-26.9-40.3l9.9-79.1l-20.4-0.9l8.8-52h19L325.2,95.7
	z"/>
<g>
	<path fill="#6DAF4D" d="M659.6,130.4h-7v-2.6h16.9v2.6h-7v20.4h-2.9V130.4z"/>
	<path fill="#6DAF4D" d="M691.5,140.6c-0.3-3.2-0.3-7-0.3-9.9l0,0c-0.9,2.6-1.8,5.5-2.9,8.8l-4.1,11.1h-2.3l-3.8-10.8
		c-1.2-3.2-2-6.1-2.6-8.8l0,0c0,2.9-0.3,6.7-0.6,10.2l-0.6,9.9h-2.9l1.5-22.8h3.8l3.8,11.1c0.9,2.9,1.8,5.3,2.3,7.6l0,0
		c0.6-2.3,1.5-5,2.3-7.6l4.1-11.1h3.8l1.5,22.8h-2.9L691.5,140.6z"/>
</g>
<g>
	<g>
		<path fill="#D1A27A" d="M675.4-55.8c-4.7,5.3-17.2,8.8-32.1,8.8c-2,0-3.5,0-3.8,0h-0.3l-138.1-2.3c-31.8,0.9-42.9,26.9-44.1,40.3
			l-12,115.3c-0.3,2.3-0.6,5-1.2,7.3l-5.5,22.2c-0.9,3.5,2.9,6.1,5.8,4.1l17.5-12.6c23.6-16.9,84.1-27.1,161.4-27.1
			c9.6,0,16.3,0.3,18.4,0.3c2,0.3,4.1,0.6,6.1,0.6l0,0c25.4,0,37.1-23.6,40-35.9l0.3-0.9l10.2-140.7c0-1.5-1.8-2-2.6-1.2L675.4-55.8
			z"/>
		<path fill="#F3CFA5" d="M448.3,113.2c0.6-2.3,1.2-5,1.2-7.3l12-115.6c1.2-12,10.8-34.4,38.5-35l137.8,2.3c0,0,1.8,0,4.1,0
			c6.4,0,27.4-0.9,36.5-10.5l8.5-9.6c0.9-1.2,2.6-0.3,2.6,1.2l-9,123.5v0.3c-2.3,10.8-12.6,31.2-34.1,31.2l0,0
			c-1.8,0-3.8-0.3-5.5-0.6c-1.5,0-8.5-0.3-18.7-0.3c-37.7,0-129.3,2.6-164.9,28.3l-4.4,3.2c-2.9,2-6.7-0.6-5.8-4.1L448.3,113.2z"/>
		<path fill="#DF8A47" d="M453,112.9c0.6-2.3,1.2-5,1.2-7.3l12-115.9c0,0,2.9-29.2,33-30.1L636.3-38c0,0,28.3,2,42.6-9.9
			c0.9-0.9,2.6,0,2.3,1.2l-7.9,106.5c0,0-6.7,30.6-33.6,26.3c0,0-140.1-5.3-187.7,29.2L453,112.9z"/>
	</g>
	<g>
		<g>
			<path fill="#FFF6DB" d="M497.7-28.7h0.9c6.1,0,11.1,0.6,15.5,1.5c0.9,0.6,1.5,1.5,1.5,2.6v0.3c-0.3,1.5-1.2,2.3-2.6,2.3
				c-5.3-0.9-9.9-1.2-14.6-1.2h-0.6c-3.2,0-5,0.6-5,1.5c-0.9,2.9-1.5,7-1.8,12.8c1.2,0,5.3-0.3,12.6-0.6c1.8,0.3,2.6,1.2,2.6,2.6
				l0,0c0,1.8-1.2,2.6-3.8,2.6c-0.6,0-4.4,0.3-11.4,0.6v3.2c0,4.4,0.6,7.6,1.5,9.6c0.6,0,1.2,0,1.8,0c3.5,0,9.3-0.6,17.5-2
				c1.8,0,2.6,0.9,2.6,2.6l0,0c0,1.8-1.5,2.9-4.4,2.9c-6.7,0.9-12,1.5-16.1,1.5H493c-3.2,0-5-0.9-6.1-2.9c-1.2-2.9-2-7.9-2-14.3
				v-1.8c0-12,1.2-19.6,3.8-22.5C490.6-27.8,493.6-28.7,497.7-28.7z"/>
			<path fill="#FFF6DB" d="M547.6-28.7c1.5,0,2.3,0.9,2.6,2.6l0,0c0,0.9-2,4.1-6.1,9.9c-3.5,5-5.3,7.6-5.3,7.9
				c7.9,11.4,12.3,17.5,13.1,19c0.3,0.3,0.3,0.9,0.3,1.5c0,1.2-0.9,2-2.6,2.3l0,0c-1.5,0-2.9-1.8-5-5c-5.5-7.9-8.8-12.3-9-12.8
				c-0.9,0.9-4.7,6.7-12,17.5c-0.6,0.3-1.2,0.6-1.8,0.6c-1.5,0-2.3-0.9-2.6-2.9c0-0.9,1.8-3.8,5-8.5c5.3-7.9,7.9-11.7,7.9-12l0,0
				C524.8-18.8,521-24.3,521-24.6c0,0,0-0.3,0-0.9c0.3-1.8,1.2-2.3,2.3-2.3h0.6c1.2,0,2.9,1.8,5,5.5c0.3,0.3,2.3,3.2,6.4,9h0.3
				c0.6-0.6,3.8-5.5,10.2-14.6C546.4-28.4,547-28.7,547.6-28.7z"/>
			<path fill="#FFF6DB" d="M584.3-28.7c1.5,0,2.3,0.9,2.6,2.9c0,1.5-1.2,2.3-3.5,2.6h-10.2v35.6c0,1.5-0.9,2.3-2.9,2.6
				c-1.5,0-2.3-1.2-2.6-3.5v-34.4h-10.8c-2-0.3-3.2-1.2-3.2-2.9c0-1.2,0.9-2,2.6-2.3h0.3C572.4-28.4,581.4-28.7,584.3-28.7z"/>
			<path fill="#FFF6DB" d="M601.8-28.7h1.5c5.5,0,10.2,2.3,14,6.7c1.5,2,2.3,4.4,2.3,6.7c0,6.4-4.1,11.1-12.6,13.7
				c-0.9,0.3-2,0.6-2.9,0.9l0.3,0.3c8.5,5.5,13.4,8.8,14.9,9.9c0.3,0.6,0.6,1.2,0.6,1.8c0,1.8-1.2,2.3-2.9,2.3
				c-0.9,0-3.5-1.5-7.9-4.7l-11.7-7.6l0,0v0.3c0.3,3.8,0.3,7.3,0.9,10.8c0,1.8-1.2,2.6-2.6,2.6c-2,0-2.9-1.8-2.9-5.5
				C592.2,4,591.9-1.8,591.9-8v-1.5c0-9.3,1.2-15.2,3.8-16.9C596.9-27.8,599.2-28.7,601.8-28.7z M596.6-9.4v3.8
				c5.3,0,10.2-1.5,14.3-4.1c1.8-1.8,2.6-3.5,2.6-5.5l0,0c0-3.8-3.2-6.4-9.6-7.9h-2.6c-2.3,0-3.8,0.9-4.1,2.9
				C596.9-17.9,596.6-14.4,596.6-9.4z"/>
			<path fill="#FFF6DB" d="M639.8-28.7h0.3c7,0,11.7,8.8,14,26c0.6,5.5,0.9,9.6,0.9,12v2.9c0,1.8-0.9,2.9-2.6,2.9
				c-2,0-2.9-1.5-2.9-4.7c0-1.8,0-3.5,0-5.3c-10.2,0-16.9,0-19.8,0c-0.3,0-0.3,0-0.3,0c-0.3,2.3-0.3,4.4-0.3,6.1
				c-0.3,2.3-1.2,3.5-2.9,3.5c-1.5-0.3-2.3-1.2-2.3-2.3v-0.9c0-8.2,1.5-17.5,4.4-27.7C630.5-24.3,634.5-28.7,639.8-28.7z M629.6-0.4
				h0.3c4.4,0,10.5,0,18.7,0h0.3c-1.5-10.5-3.2-17.2-5.5-20.1c-1.2-1.5-2.3-2.3-3.2-2.3h-0.6c-3.8,0-7,6.4-9.3,19.3
				C630.2-3.3,629.9-2.4,629.6-0.4z"/>
		</g>
		<g>
			<path fill="#FFF6DB" d="M494.2,23.3h1.8c6.1,0,12,0.9,18.1,2.9c0.9,0.6,1.5,1.5,1.5,2.9c-0.3,2-1.5,3.2-3.5,3.2
				c-6.1-1.5-11.4-2.3-15.8-2.3h-1.8c-5.8,0-9,1.5-9.9,4.7l-0.3,0.9v2.9c0,3.2,3.8,5.5,11.7,7.6c9.6,2,15.8,4.7,18.4,7.9
				c1.5,2,2,4.1,2,6.1v1.8c0,6.4-3.8,10.8-11.7,13.1c-2.3,0.6-5,0.9-7.9,0.9H495c-5.5,0-10.5-0.6-15.2-2c-1.2-0.6-1.5-1.5-1.8-2.9
				c0.3-2,1.5-3.2,3.8-3.2c5.5,1.2,10.2,1.8,13.7,1.8c6.4,0,10.8-1.5,12.6-4.4c0.3-0.9,0.6-1.8,0.6-2.6v-2.6c0-2.9-5.8-5.5-17.2-7.9
				c-10.2-2.9-15.2-7.6-15.2-14.3v-1.8c0-5.8,3.5-9.9,10.8-12.3C490.1,23.6,492.1,23.3,494.2,23.3z"/>
			<path fill="#FFF6DB" d="M528.3,23.3c2.3,0.6,3.5,1.5,3.5,2.9c-0.3,5.5-0.3,11.7-0.6,19h0.3c2,0,9.9,0,23.3-0.3V26.8
				c0.6-2,1.8-3.2,3.5-3.2h0.6c2,0.3,3.2,1.5,3.2,2.9V72c-0.3,2.3-1.5,3.8-3.5,3.8c-2.6,0-3.8-1.8-3.8-5v-7c0-2.9,0-7,0.3-12h-0.3
				c-1.5,0-9.3,0-23.3,0.3h-0.3c0,2-0.3,3.5-0.3,4.7v2.3c0,0.6,0,4.4-0.3,11.7c0,2.3-1.2,3.8-3.5,4.4h-0.6c-2-0.3-3.2-1.5-3.2-2.9
				V72c0.3-30.9,0.9-46.4,1.5-46.7C525.4,23.9,526.5,23.3,528.3,23.3z"/>
			<path fill="#FFF6DB" d="M591.9,23.3h1.2c7.3,0,13.4,4.4,17.8,12.8c2.3,4.7,3.5,9.3,3.5,14.3v1.8c0,9.9-4.1,17.2-12.3,21.9
				c-2.9,1.2-6.1,2-9,2h-1.5c-9.3,0-15.8-5-19.8-14.6c-0.9-3.2-1.5-6.1-1.5-9V51c0-10.2,3.8-18.4,11.4-24.2
				C585.2,24.4,588.7,23.3,591.9,23.3z M577.6,50.4v2c0,7.6,2.9,13.1,9,16.1c1.8,0.6,3.5,0.9,4.7,0.9h2c6.7,0,11.1-4.1,13.1-12.3
				c0.3-1.2,0.6-3.2,0.6-5.8c0-8.5-2.9-14.9-8.8-19.6c-2-1.2-3.8-1.8-5-1.8h-2c-5,0-9,3.8-12.3,11.4C578.2,44,577.6,47.2,577.6,50.4
				z"/>
			<path fill="#FFF6DB" d="M653.2,23.3c2,0,3.2,1.2,3.5,3.5c0,1.8-1.5,2.9-4.7,3.2h-14v42.9c0,1.8-1.2,2.9-3.8,3.2
				c-2,0-3.2-1.5-3.5-4.4V30h-14.3c-2.9-0.3-4.4-1.5-4.4-3.8c0-1.5,1.2-2.6,3.5-2.9h0.3C637.2,23.3,649.7,23.3,653.2,23.3z"/>
		</g>
	</g>
</g>
</svg>
