<svg version="1.1" id="Layer_1" xmlns="http://www.w3.org/2000/svg" xlink="http://www.w3.org/1999/xlink" x="0px" y="0px" viewBox="69.8 134.6 643.9000000000001 253.20000000000002" enable-background="69.8 134.6 643.9000000000001 253.20000000000002" space="preserve">
<g>
	<g>
		<polygon fill="#00A4E4" points="69.8,240.5 91.5,136.1 132.1,136.1 118.4,202.9 159.8,202.9 152,240.5 		"/>
		<path fill="#00A4E4" d="M176,242c-17,0-28.8-11.6-28.8-28.3c0-4.6,0.6-7.6,4.8-27.1c1.2-5.8,2.8-13.1,4.7-22.4l1.3-6h39.3l-3.6,17
			c-4.4,20.7-6,28.4-6.4,30.9c2.4-0.5,4.7-2.7,5.1-5l9-42.9h40.5l-17.2,82.2h-37.9C183.4,241.5,179.8,242,176,242z"/>
		<path fill="#00A4E4" d="M262.5,242c-22.7,0-39.8-16.3-39.8-37.9c0-27.1,27.2-47.4,51.6-47.4c17.6,0,27.5,9,32.7,16.5l4.4,6.3
			l-30.7,20.2l22.7,22.9l-5.6,5.3C287.8,237.3,275.9,242,262.5,242z M273,192.5c-5.7,0-11.7,6.6-11.7,11.2c0,1.7,0.9,2.5,2.6,2.5
			c2.9,0,6.8-2,8.7-3.9l5.3-5.3l1.7,1.8l-3.4-5.2C276.1,193.2,274.6,192.5,273,192.5z"/>
		<polygon fill="#00A4E4" points="331.6,240.5 327.5,228.4 325.1,240.5 284.6,240.5 306.6,134.6 347,134.6 340.8,164.4 346.6,158.2 
			397,158.2 357.6,196.6 375.6,240.5 		"/>
		<path fill="#00A4E4" d="M380.4,263.9c-7.7,0-17.7-2.9-24.3-7.2l-5.5-3.5l13.4-28.8l7.2,4.6c2.5,1.6,4.2,2,4.6,2.1
			c0.3,0,1-0.2,1.7-0.5L364,158.2h40.8l2.9,24.1l12.7-24.1h43.3l-46.2,79.9C407.9,254.7,394.7,263.9,380.4,263.9z"/>
		<path fill="#00A4E4" d="M430.6,240.5l21.7-104.3h38.6c30.7,0,53,18.9,53,44.8c0,32.3-32,59.5-69.9,59.5H430.6z M481.3,202.5
			c11.8,0,21.9-9.5,21.9-20.7c0-4.6-4.6-7.8-11.2-7.8h-6.9l-6,28.5H481.3z"/>
		<path fill="#00A4E4" d="M561.5,242c-19.9,0-33.3-14.1-33.3-35.1c0-27.7,20.1-50.3,44.7-50.3c6,0,11.5,1.4,16.3,3.9l0.5-2.4h40.5
			L613,240.5h-40.4C569,241.5,565.3,242,561.5,242z M579.9,192.5c-6.5,0-12.6,5.7-12.6,11.7c0,1,0,2,3.4,2c6.1,0,11.3-6.6,11.3-12
			C582,192.9,582,192.5,579.9,192.5z"/>
		<path fill="#00A4E4" d="M630.4,263.9c-7.7,0-17.7-2.9-24.3-7.2l-5.5-3.5l13.4-28.8l7.2,4.6c2.5,1.6,4.2,2,4.6,2.1
			c0.3,0,1-0.2,1.7-0.5L614,158.2h40.8l2.9,24.1l12.7-24.1h43.3l-46.2,79.9C657.9,254.7,644.7,263.9,630.4,263.9z"/>
	</g>
	<path fill="#FFFFFF" d="M672.9,161.2l-16.4,31l-3.7-31h-25.6h-8.9h-25.4l-0.9,4.3c-4.9-3.8-11.2-5.9-18.3-5.9
		c-13,0-24.6,6.8-32.2,17.4c-2.1-22.2-22.4-37.9-49.8-37.9h-36.2l-4.6,22.1h-28l-16.4,31l-3.7-31h-12.5h-22h-19.7l-12.2,12.9
		l7.6-36.6h-34.3l-7.1,34c-5.2-6-13.9-11.9-27.6-11.9c-14.8,0-30.7,7.9-40.1,20.4l3.9-18.8h-34.3l-8.5,40.4c-0.7,4-4.9,7.6-8.9,7.6
		c-1.8,0-2.2-0.4-2.2-2.2c0-1.3,0.9-5.5,6.5-32.3l2.8-13.4h-33.1l-0.8,3.6c-2,9.3-3.5,16.6-4.7,22.4c-2,9.5-3.2,15-3.9,18.7h-36.3
		l13.6-66.8H94.7l-20.5,98.3h76l2.7-13.1c3.8,9,12.5,14.7,23.8,14.7c4.2,0,8.2-0.7,11.9-2.1l-0.1,0.6H223l4.9-23.6
		c4.3,14.8,18,25.1,35.4,25.1c10.1,0,19.2-2.9,27.2-8.5l-1.4,6.9h34.3l3.6-17.4l1.3-1.3l6.2,18.7h27.4l-6.8,14.6l3.3,2.1
		c6.1,3.9,15.5,6.7,22.7,6.7c13.2,0,25.4-8.6,34.5-24.2l30.6-53L435,237.4h39.7c24,0,45.5-11.3,57.4-27.9
		c1.1,17.7,12.9,29.4,30.1,29.4c5.3,0,10.3-1.1,15.1-3.2l-0.4,1.7h34.3l11.2-53.8l9,48.3l-0.8,0.6l-0.1,0.2
		c-0.9,0.5-3.1,1.3-4.2,1.3c-0.8,0-3-0.5-6.1-2.5l-4.3-2.8L605.2,252l3.3,2.1c6.2,3.9,15.5,6.7,22.7,6.7c13.2,0,25.4-8.6,34.5-24.2
		l43.6-75.4H672.9z M278.7,201.2l-3.2,3.2c-2.4,2.4-7.1,4.8-10.8,4.8c-3.4,0-5.6-2.2-5.6-5.5c0-6.1,7.3-14.2,14.7-14.2
		c2.4,0,5,1.1,5.8,2.4l2.5,3.8l18.1-11.9l-6.7,32.3L278.7,201.2z M380.8,232.5l-0.1,0.2c-0.9,0.5-3.1,1.3-4.2,1.3
		c-0.8,0-3-0.5-6.1-2.5l-1.2-0.8l-14.4-34.9l16.9-16.5l9.8,52.6L380.8,232.5z M482.1,205.5h-5.9l7.2-34.5h9.3
		c8.4,0,14.2,4.5,14.2,10.8C506.9,194.7,495.5,205.5,482.1,205.5z M571.4,209.2c-6.4,0-6.4-3.7-6.4-5c0-7.7,7.5-14.7,15.6-14.7
		c4.6,0,5.1,2.7,5.1,4.7C585.7,201,579.3,209.2,571.4,209.2z"/>
	<g>
		<path fill="#00A4E4" d="M152.4,210.4l-4.7,22.5H80.9l18.6-89.3h25.2l-13.6,66.8H152.4z"/>
		<path fill="#00A4E4" d="M234.5,165.7l-14,67.2h-25.1l1.2-5.3c-4.8,4.4-11.3,6.9-18.6,6.9c-13.1,0-21.3-8.7-21.3-20.8
			c0-4.9,1-8.3,9.4-48h23.9c-7.9,37.6-8.3,39.3-8.3,41.2c0,4.4,2.6,6.8,6.8,6.8c6.5,0,12.4-5.3,13.4-11.3l7.7-36.7H234.5z"/>
		<path fill="#00A4E4" d="M232.1,204.1c0-22,22.4-39.9,44.1-39.9c12.7,0,21.3,5.7,26.5,13.3l-18.2,12c-1.9-3-6.2-4.4-9.6-4.4
			c-9.8,0-19.2,9.9-19.2,18.7c0,5.7,4.2,10,10.1,10c5.1,0,10.9-3,14-6.1l14.7,14.8c-8.3,7.8-18.5,12.1-30.2,12.1
			C245.7,234.5,232.1,221.1,232.1,204.1z"/>
		<path fill="#00A4E4" d="M350.6,194.7l15.7,38.2h-27.4l-7.4-22.2l-7.5,7l-3.1,15.2h-25.1l18.8-90.9h25.1l-9.8,46.8l21.8-23.1h28.6
			L350.6,194.7z"/>
		<path fill="#00A4E4" d="M362,250.4l7-15.1c3.3,2.1,6.4,3.2,8.6,3.2c2.7,0,7.2-1.8,7.8-3l2.2-1.7l-12.7-68.1H400l4.9,41.5
			l21.8-41.5h25.7l-39.6,68.6c-8.4,14.6-19.4,22-30.5,22C375.6,256.3,367.1,253.6,362,250.4z"/>
		<path fill="#00A4E4" d="M460.3,143.6h32.5c26.6,0,45.5,15.5,45.5,37.3c0,28.2-28.5,52-62.4,52h-34.2L460.3,143.6z M483.2,210.1
			c16,0,29.4-12.9,29.4-28.2c0-9-7.8-15.3-18.7-15.3h-13l-9.1,43.5H483.2z"/>
		<path fill="#00A4E4" d="M622.8,165.7l-14,67.2h-25.1l1.4-6.8c-6,5.2-13.4,8.3-21.7,8.3c-15.9,0-25.7-11.2-25.7-27.6
			c0-22,15.6-42.8,37.2-42.8c9.4,0,16.6,4,20.9,10.9l2-9.4H622.8z M572.5,213.7c10.4,0,18.8-10.1,18.8-19.5c0-5.7-3.6-9.2-9.6-9.2
			c-10.9,0-20.1,9.2-20.1,19.2C561.6,210.1,565.6,213.7,572.5,213.7z"/>
		<path fill="#00A4E4" d="M612,250.4l7-15.1c3.2,2.1,6.4,3.2,8.6,3.2c2.7,0,7.2-1.8,7.8-3l2.2-1.7l-12.7-68.1H650l4.9,41.5
			l21.8-41.5h25.7l-39.6,68.6c-8.4,14.6-19.4,22-30.5,22C625.6,256.3,617.1,253.6,612,250.4z"/>
	</g>
</g>
<g>
	<path fill="#00A4E4" d="M561.4,264.1c-19.5,0-38.2,8.4-51.9,21.5l4.1-19.7h-96.5h-10.9h-96.5l-4.9,23.3
		c-9.6-15.3-27.1-25.1-47.9-25.1c-38.9,0-74.3,33.3-74.3,70c0,3,0.3,5.9,0.7,8.7h-36.2l15.7-76.9h-46.6l-25,120h94.5l4.9-23.5
		c9.6,15.4,27,25.3,47.9,25.3c39,0,74.4-33.4,74.4-70.1c0-2.9-0.3-5.8-0.7-8.5h18.8l-16,76.9h46.7l16-76.9h19.4h10.9h19.4l-16,76.9
		h46.7l16-76.9h18.4c-3.5,7.9-5.5,16.3-5.5,25c0,30.6,24,53.7,55.9,53.7c39,0,74.4-33.4,74.4-70.1
		C617.5,287.1,593.4,264.1,561.4,264.1z M240.3,344.1c-6.5,0-10.9-4.4-10.9-10.9c0-11.9,13.8-25.4,25.9-25.4
		c6.5,0,10.9,4.4,10.9,10.9C266.2,330.6,252.4,344.1,240.3,344.1z M544.8,344.1c-6.5,0-10.9-4.4-10.9-10.9
		c0-11.9,13.8-25.4,25.9-25.4c6.5,0,10.9,4.4,10.9,10.9C570.7,330.6,556.9,344.1,544.8,344.1z"/>
	<path fill="#FFFFFF" d="M561,267.6c-23,0-44.8,12.2-57.9,29.8l5.8-28h-96.5h-3.9h-96.5l-6.3,30.3c-7.3-19.1-26-32.1-49.3-32.1
		c-37.1,0-70.8,31.7-70.8,66.5c0,4.2,0.5,8.3,1.5,12.2h-44.7l15.7-76.9h-39.6L95.1,382.5h87.5l6.4-30.6c7.2,19.3,26,32.4,49.2,32.4
		c37.2,0,71-31.8,71-66.6c0-4.2-0.5-8.2-1.5-12H335l-16,76.9h39.6l16-76.9h26.5h3.9h26.5l-16,76.9H455l16-76.9h26.8
		c-4.8,8.8-7.6,18.5-7.6,28.5c0,28.6,22.5,50.2,52.4,50.2c37.2,0,71-31.8,71-66.6C613.6,289.1,591,267.6,561,267.6z M239.9,347.6
		c-8.5,0-14.4-5.9-14.4-14.4c0-13.8,15.4-28.9,29.4-28.9c8.5,0,14.4,5.9,14.4,14.4C269.3,332.5,253.9,347.6,239.9,347.6z
		 M544.4,347.6c-8.5,0-14.4-5.9-14.4-14.4c0-13.8,15.4-28.9,29.4-28.9c8.5,0,14.4,5.9,14.4,14.4
		C573.8,332.5,558.4,347.6,544.4,347.6z"/>
	<g>
		<path fill="#00A4E4" d="M183.1,351.4l-5.4,25.9h-76.9l21.4-102.7h29l-15.7,76.9H183.1z"/>
		<path fill="#00A4E4" d="M190.3,334.1c0-33,33.2-61.3,65.6-61.3c27.7,0,47.4,19.7,47.4,44.9c0,33-33.2,61.5-65.8,61.5
			C210,379.1,190.3,359.2,190.3,334.1z M273.9,318.7c0-11.2-8.2-19.6-19.6-19.6c-17.5,0-34.5,17.9-34.5,34.1
			c0,11.2,8.1,19.6,19.6,19.6C256.8,352.8,273.9,334.8,273.9,318.7z"/>
		<path fill="#00A4E4" d="M340.7,300.4h-30.4l5.4-25.9h89.7l-5.4,25.9h-30.4l-16,76.9h-29L340.7,300.4z"/>
		<path fill="#00A4E4" d="M437.2,300.4h-30.4l5.4-25.9H502l-5.4,25.9h-30.4l-16,76.9h-29L437.2,300.4z"/>
		<path fill="#00A4E4" d="M494.8,334.1c0-33,33.2-61.3,65.6-61.3c27.7,0,47.4,19.7,47.4,44.9c0,33-33.2,61.5-65.8,61.5
			C514.5,379.1,494.8,359.2,494.8,334.1z M578.4,318.7c0-11.2-8.2-19.6-19.6-19.6c-17.5,0-34.5,17.9-34.5,34.1
			c0,11.2,8.1,19.6,19.6,19.6C561.3,352.8,578.4,334.8,578.4,318.7z"/>
	</g>
</g>
<path fill="#00AEEF" d="M659.5,291.8c2.5-1.5,3.8-4.1,3.8-7.3c0-5.4-3.8-8.7-9.8-8.7h-9v24.3h5.1v-6.8h3.8c0.2,0,0.5,0,0.7,0
	l4.9,6.8h6.4L659.5,291.8z M653.5,288.2h-3.8v-7.2h3.8c4.7,0,4.7,2.7,4.7,3.5C658.2,285.4,658.2,288.2,653.5,288.2z"/>
<circle fill="none" stroke="#00AEEF" stroke-width="3" stroke-miterlimit="10" cx="653.8" cy="288.2" r="20.5"/>
</svg>
