<svg xmlns="http://www.w3.org/2000/svg" viewBox="0 0 324.13 333.52"><defs><style>.cls-1{fill:#ec8802;}.cls-2{fill:#49b06d;}.cls-3{fill:#48b06d;}.cls-4{fill:#4ab06d;}.cls-5{fill:#c9311b;}.cls-6{fill:#ea5f1d;}.cls-7{fill:#ea601e;}.cls-8{fill:#0b6a36;}.cls-9{fill:#05665d;}.cls-10{fill:#06665e;}.cls-11{fill:#096934;}.cls-12{fill:#086833;}.cls-13{fill:#036731;}.cls-14{fill:#232321;}.cls-15{fill:#86c490;}.cls-16{fill:#dbebdc;}.cls-17{fill:#fefefd;}.cls-18{fill:#fefefe;}.cls-19{fill:#fdfefd;}.cls-20{fill:#fefdfd;}.cls-21{fill:#ec8008;}.cls-22{fill:#ec7e08;}.cls-23{fill:#f8fbf8;}.cls-24{fill:#c82e18;}</style></defs><g id="Layer_2" data-name="Layer 2"><g id="Layer_1-2" data-name="Layer 1"><path class="cls-1" d="M0,251.48V196.17a21.83,21.83,0,0,1,17-21c10-2.12,19.87-4.45,29.89-6.25,11.31-2,21.81.11,30.76,7.76A33.33,33.33,0,0,1,89,197.34a56,56,0,0,1,.6,8.59c0,5.71.17,11.45-.29,17.13-.83,10.31-4.89,19.46-11.09,27.65-8,10.61-18.32,18.07-31.3,21.51-3.89,1-7.86,1.76-11.82,2.55-1,.2-1.42.55-1.41,1.67q.08,11.64,0,23.28a21.8,21.8,0,0,1-17,20.93C7.32,322.54,0,316.59,0,307Q0,279.26,0,251.48Zm5.72-1.19v56a8.59,8.59,0,0,0,9.78,8.83A14.42,14.42,0,0,0,28,301.39q0-13.68,0-27.35c0-2.36,1-3.59,3.35-4.09,5.35-1.16,10.75-2.12,16-3.55,10.58-2.88,19-9.06,25.8-17.58,5.67-7.12,9.65-15.14,10.34-24.24a170.38,170.38,0,0,0,0-23.59,27.63,27.63,0,0,0-9.24-19c-8-7.32-17.59-9.36-28-7.43-10,1.85-19.86,4.11-29.76,6.3A14.3,14.3,0,0,0,5.72,194.62Z"/><path class="cls-1" d="M308.15,165.06c0,2.87.07,5.76,0,8.63A50,50,0,0,1,304,191.9a59.87,59.87,0,0,1-10.21,16,61.85,61.85,0,0,1-15.69,12.76,53.86,53.86,0,0,1-14,5.51c-3.47.88-7,1.52-10.55,2.15-1,.18-1.2.56-1.2,1.48,0,7.8,0,15.6,0,23.4a21.76,21.76,0,0,1-16.95,20.93c-7.63,1.6-14.25-2-16.3-9.68a16.45,16.45,0,0,1-.38-4.09q0-55.42,0-110.86a20.94,20.94,0,0,1,4.8-13.35c3.68-4.63,8.6-7.11,14.42-8.07,3.64-.61,7.22-1.57,10.84-2.32,5.94-1.23,11.84-2.64,17.82-3.58A37.18,37.18,0,0,1,289,125.36a32.87,32.87,0,0,1,17.18,19.9,42,42,0,0,1,2,14.16c0,1.88,0,3.76,0,5.64Zm-83.79,38.63q0,28.14,0,56.27a8.67,8.67,0,0,0,9.89,8.75,14.5,14.5,0,0,0,12.39-14q0-13.62,0-27.24c0-2.31.94-3.53,3.08-4,3.93-.84,7.85-1.73,11.79-2.47a48.06,48.06,0,0,0,15.3-5.65,51.79,51.79,0,0,0,15.53-13.73,51.25,51.25,0,0,0,8.83-17.92,50.06,50.06,0,0,0,1.41-14.06c-.12-5.72.4-11.47-.67-17.16-1.8-9.6-6.84-16.89-15.48-21.52a31.65,31.65,0,0,0-17.91-3.31,73.68,73.68,0,0,0-8.57,1.44c-8.23,1.72-16.45,3.45-24.65,5.27a14.38,14.38,0,0,0-10.95,13.75Z"/><path class="cls-1" d="M109.36,228.06c0-8.76.09-17.52,0-26.28a52.44,52.44,0,0,1,8-28.79c7.92-12.83,18.9-21.88,33.48-26.19,8.37-2.47,16.81-2.74,25.11.24,12.44,4.48,19.63,13.55,22.17,26.37a44.8,44.8,0,0,1,.74,8.58c.06,17.76-.07,35.52.06,53.28a54.61,54.61,0,0,1-11.36,34c-7.81,10.4-17.82,17.8-30.43,21.38-9.31,2.64-18.59,2.66-27.55-1.35-10.43-4.67-16.71-12.87-19.19-23.92a48.21,48.21,0,0,1-1-9.74C109.28,246.46,109.36,237.26,109.36,228.06Zm5.65-1.17c0,9.12,0,18.24,0,27.36a49.7,49.7,0,0,0,.37,6,29.88,29.88,0,0,0,29.82,26.46,40.8,40.8,0,0,0,21.72-5.82c16.92-10.21,26.37-24.91,26.37-45.09q0-25.74,0-51.47a53.62,53.62,0,0,0-.41-7.06c-1.17-8.44-4.89-15.51-11.86-20.6-8-5.82-17-7-26.48-5.1a47.76,47.76,0,0,0-26.08,15.19c-8.83,9.67-13.68,21-13.48,34.24C115.11,209.61,115,218.25,115,226.89Z"/><path class="cls-2" d="M198.21,64.46l2.63,1.94,3.09,2.33c0,.16,0,.38.06.48,4.65,5.28,6,11.59,5.39,18.33-1.35,16.13-13.47,30.86-29,35.42-7,2.05-14,2.16-20.68-1.08-8.11-3.92-12.36-10.65-13.59-19.45-.53-3.86-.28-7.58,1.84-11,2.71-4.35,6.48-7.11,11.71-7.55A30.33,30.33,0,0,1,163,84h0l.49.39,2.39,1.07,1.45,1.28c.39.51.79,1,1.18,1.54,1.13,2,1.17,4.24,1.45,6.45a5.18,5.18,0,0,0,3.56,4.62l2.29.74,2.36-.48,2.19-1c.15,0,.34,0,.45,0a10.33,10.33,0,0,0,4.3-5.45l.43-1.76V89.78l-.37-1.51c-.71-.62-1.32-1.51-2.15-1.81a40.17,40.17,0,0,0-6.08-1.74c-5.47-1.12-11-1.78-16.28-3.85-7.84-3.08-12.88-8.55-14.29-17a33,33,0,0,1,3-19.94c5.49-11.57,14.2-19.59,26.65-23.1,7.89-2.23,15.63-1.67,22.67,2.95,6.38,4.18,9.6,10.36,10.67,17.81.68,4.73,0,9.07-3.14,12.85a15.31,15.31,0,0,1-7.48,5.16c-5,1.55-10.31-.12-12.45-5.33L185.44,51c-.07-.85-.13-1.71-.2-2.57a2,2,0,0,0-1.42-2c0-.19.07-.45,0-.55A5.68,5.68,0,0,0,180,44.09c-5.2-.32-10.33,4.59-10.27,9.82a3.37,3.37,0,0,0,2.36,3.48c.13,0,.35-.18.52-.28.51,1.31,1.73,1.22,2.8,1.42l2.86.71,3.35.5c2.17.47,4.35.88,6.5,1.42s4.06,1.15,6.09,1.71a3.39,3.39,0,0,0,.9,0l2.62,1.29.51.35Zm-26.35,55.89c1.54-.17,3.11-.25,4.64-.52a33.26,33.26,0,0,0,18-9.52C201,104,204.92,96.37,205.4,87.23c.55-10.46-4.31-17.59-14.29-20.74-3.79-1.19-7.78-1.74-11.65-2.69a95.81,95.81,0,0,1-9.89-2.74c-2.59-.93-3.81-3.1-3.82-5.94,0-5.61,2.62-9.75,7.08-12.87a12.88,12.88,0,0,1,6.95-2.33c5.6-.22,9.69,3.72,9.81,9.48.08,4,2.64,6.66,6.36,6.6,4.5-.08,9.17-4.22,9.4-8.71.4-7.67-2-14.29-8.27-19.09S184,22.71,176.71,24.63c-11.18,2.94-19,10.07-23.86,20.4a29.31,29.31,0,0,0-2.75,16.21c.92,7.87,5.37,12.93,12.61,15.75,4.61,1.8,9.48,2.49,14.31,3.38a30.66,30.66,0,0,1,9.35,2.83,5.84,5.84,0,0,1,3.2,5.13,15.48,15.48,0,0,1-9.75,14.84c-8.45,3.21-14.36-2.54-14.15-9,.14-4.19-3.26-6.69-7.41-6.09a9.2,9.2,0,0,0-5,2.48c-3.18,2.91-3.74,6.55-3.17,10.63C151.72,112.62,160.39,120.29,171.86,120.35Z"/><path class="cls-3" d="M226.32,25.64A13.63,13.63,0,0,1,229,18.22c3-4.27,7-6.68,12.34-6.47a8.47,8.47,0,0,1,8.45,8c.25,8.81.18,17.63.24,26.45,0,.8,0,1.59,0,2.57l2.69-.74,2.9-.51,2.61-.7,2.92-.51h.11l.11,0,4.31-.87V44c0-9.2,0-18.4.1-27.59a11.92,11.92,0,0,1,2.62-6.75A14.1,14.1,0,0,1,279,3.39c5.56-.45,10.16,3.3,10.17,9.1.08,26.44,0,52.87,0,79.31a13.42,13.42,0,0,1-3.18,8.38,14.75,14.75,0,0,1-9.83,5.76,9.09,9.09,0,0,1-10.24-6.66,10.57,10.57,0,0,1-.28-2.93c0-5.4,0-10.8,0-16.2V77.24c0-.88,0-1.75,0-2.63V69L250,72.29v1.39c0,8.24,0,16.48,0,24.72A15.27,15.27,0,0,1,245.45,110a14.33,14.33,0,0,1-9,4.27c-5.51.45-8.65-3-9.84-6.68a11.18,11.18,0,0,1-.27-3.33q0-38.7,0-77.39c0-.16,0-.32,0-.48Zm4,38.9v38.52c0,.48,0,1,0,1.44a6.1,6.1,0,0,0,6.83,5.81A10.41,10.41,0,0,0,246,100c-.1-9.44,0-18.88,0-28.32,0-1.81.64-2.72,2.23-3.06q9.33-2,18.67-3.91c2.14-.44,2.66,0,2.66,2.18q0,13.92,0,27.84c0,4,1.46,6.18,4.88,7a7.19,7.19,0,0,0,5.78-1.21,10.27,10.27,0,0,0,5.08-9.11q0-22.62,0-45.24,0-16,0-32c0-2.64-.88-4.79-3.38-6.09-3.25-1.7-7.22,0-9.39,2.26a11.42,11.42,0,0,0-3,8.45c.06,9.12,0,18.24,0,27.36,0,1.64-.57,2.44-2.08,2.76Q257.94,51,248.39,53c-1.74.36-2.38-.22-2.39-2V40.34c0-6,0-12.08,0-18.12,0-4.59-3.65-7.32-8.11-6.21a10.48,10.48,0,0,0-7.56,9.77C230.41,38.7,230.36,51.62,230.36,64.54Z"/><path class="cls-4" d="M35.92,91.42V128a3.65,3.65,0,0,0,.84-.56,32.82,32.82,0,0,0,3.07-4.5c2.5-5.16,6.24-8.72,12.08-9.43,7-.85,12,4.69,10.56,11.63A30.36,30.36,0,0,1,57,136.61c-6.11,8.58-14.12,14.5-24.53,16.81-6.56,1.45-13,1-19-2.26C5.84,147,2,140.28.94,131.78a41.92,41.92,0,0,1-.21-5.14c0-12.24,0-24.47,0-36.71C.66,79.45,4.5,70.51,11.4,62.84A38.48,38.48,0,0,1,32.84,50.28c8.41-1.67,16.23-.37,23,5.31a20.2,20.2,0,0,1,6,8.26c2,5.34.29,10-3.33,14a14.66,14.66,0,0,1-11.06,4.91L42,80.6l-1.67-2.16-1.23-2A5.86,5.86,0,0,0,33.36,74a10.28,10.28,0,0,0-8.83,10.11c-.05,13,0,25.91,0,38.87a6.51,6.51,0,0,0,3.73,6.33l2.21.48,2.41-.22V128q0-18.57,0-37.14a13.3,13.3,0,0,1,.15-1.4c0,.48.07,1,.07,1.44v38.35c2.24-.27,2.6-.65,2.6-2.64q0-16.84,0-33.7A9.67,9.67,0,0,1,35.92,91.42ZM4.76,107.72c0,6.27,0,12.55,0,18.83A38.14,38.14,0,0,0,5,131.09a21,21,0,0,0,6.77,13.4c5.7,5.11,12.47,6.41,19.8,5.08,8.82-1.61,15.72-6.42,21.21-13.36A29.51,29.51,0,0,0,58.34,126c.72-2.58.36-5.06-1.75-6.94s-4.57-1.93-7.09-1a10,10,0,0,0-5.91,5.78,16.31,16.31,0,0,1-7.22,8.35,12.06,12.06,0,0,1-7.84,1.64c-4.94-.76-8-4.46-8-9.69,0-13,0-25.91,0-38.87,0-6.64,3.3-11.33,9.13-14.15s11.9-.66,14,4.37A4.94,4.94,0,0,0,47,78.21c3,.87,5.52,0,7.81-1.88C58.91,73,59.7,68.46,57,64c-4.6-7.72-13.71-11.59-23.07-9.9A34.9,34.9,0,0,0,12.76,66.83a33.69,33.69,0,0,0-8,22.65C4.85,95.56,4.76,101.64,4.76,107.72Z"/><path class="cls-2" d="M114.41,119.2l-.48-2.67c-2.28.47-4.42.9-6.55,1.35-2.85.6-5.69,1.26-8.54,1.81A1.5,1.5,0,0,0,97.46,121c-.79,3.5-1.63,7-2.48,10.47a15.57,15.57,0,0,1-12.65,11.61,9.12,9.12,0,0,1-9.46-4.05,4.19,4.19,0,0,0-.65-.61,2.27,2.27,0,0,0,0-.59c-1.25-3.29-.85-6.54.18-9.79a6,6,0,0,0,.08-1.59,4.83,4.83,0,0,0,.59-1.06q7-26.43,14-52.86c2.4-9,4.67-18.09,7.24-27.06,1.77-6.18,5.91-10.14,12.38-11.28,5.09-.89,9.32,1.86,10.82,6.87l14.16,47.36c2.65,8.87,5.16,17.78,8,26.59s-5.42,19.36-14.88,18.59a8.89,8.89,0,0,1-7.69-5.33,6.17,6.17,0,0,0-.72-1c.69-1.09-.1-1.92-.51-2.81l-.48-2.58C115.06,121,114.73,120.11,114.41,119.2Zm12.17,10.37c5.86,0,11-6.57,9.25-12.31-3.67-12-7.23-24.08-10.83-36.13L113.48,42.71a6.1,6.1,0,0,0-6.89-4.44,10.43,10.43,0,0,0-8.49,7.8q-9.78,36.86-19.57,73.71c-1,4-2.22,7.93-3,11.95A6.2,6.2,0,0,0,82.76,139a10.36,10.36,0,0,0,8.38-8c1-4.12,2-8.23,3-12.35a2.89,2.89,0,0,1,2.31-2.45L115,112.24c1.56-.33,2.13,0,2.53,1.54,1,3.66,1.94,7.33,2.93,11A6.1,6.1,0,0,0,126.58,129.57Z"/><path class="cls-5" d="M237.92,282.7a34.25,34.25,0,0,0,3.87.94c6.66.79,12-1.9,16.47-6.57a21,21,0,0,0,5.92-15.22c-.09-7.51,0-15,0-22.55v-1.37c3.83-.81,7.57-1.57,11.3-2.4A55.6,55.6,0,0,0,304,219.08,54.58,54.58,0,0,0,320,181.69c.17-5,.14-10.08,0-15.11-.18-8.54-2.56-16.36-8.06-23.06a15.81,15.81,0,0,1-1.75-2.3,12.66,12.66,0,0,1,1.22.78,33.8,33.8,0,0,1,12,21.08,53.83,53.83,0,0,1,.64,8.23c.07,5.15.11,10.32-.09,15.47a51.7,51.7,0,0,1-9.78,27.85C306,226.45,295.09,234.68,281,238.34c-3.85,1-7.78,1.76-11.69,2.53-1,.19-1.17.6-1.17,1.5,0,7.72,0,15.44,0,23.15a21.67,21.67,0,0,1-16.77,21.09c-4.88,1.1-9.37.23-13.08-3.41C238.22,283.09,238.13,283,237.92,282.7Z"/><path class="cls-5" d="M91.92,187.85a30.7,30.7,0,0,1,9.29,11,37.59,37.59,0,0,1,4.23,17.51c0,5.84.14,11.68-.13,17.51A50.52,50.52,0,0,1,97,259c-8.17,12.76-19.33,21.67-34.08,25.71-4,1.09-8.1,1.81-12.16,2.63-.93.19-1.2.54-1.19,1.47,0,7.76,0,15.52,0,23.28a21.8,21.8,0,0,1-17.32,21.15,13.49,13.49,0,0,1-12.94-4,34,34,0,0,0,4.61,1c5.73.47,10.55-1.72,14.64-5.56a21.37,21.37,0,0,0,7-16.58c-.11-7.39,0-14.79,0-22.19v-1.45c2.74-.58,5.45-1.23,8.18-1.72A55.83,55.83,0,0,0,82.53,268.3c9.89-9.22,16.3-20.39,18.4-33.85a47.06,47.06,0,0,0,.48-6.92c0-5.68.12-11.37-.19-17a34.41,34.41,0,0,0-9.08-21.9c-.16-.17-.3-.37-.45-.56Z"/><path class="cls-6" d="M230.47,276.52c6.63,2.43,12.46.59,17.65-3.63a21.12,21.12,0,0,0,8.14-17.38c-.08-7.48,0-15,0-22.44v-1.38c3.78-.8,7.49-1.55,11.18-2.37a54.85,54.85,0,0,0,25.73-13.64,58.52,58.52,0,0,0,17.48-28.78,48.48,48.48,0,0,0,1.52-12.22c0-5.63.11-11.28-.21-16.9A35.62,35.62,0,0,0,302.3,135a9.75,9.75,0,0,1,1.12.67A32.76,32.76,0,0,1,315,154.62a55.53,55.53,0,0,1,1.1,10c.16,5.19.1,10.4-.06,15.59a50.93,50.93,0,0,1-8.63,26.43c-7.89,12.21-18.6,20.88-32.67,25-4.36,1.28-8.86,2.08-13.31,3-1.07.22-1.22.66-1.22,1.6,0,7.8,0,15.6,0,23.4a21.76,21.76,0,0,1-17,20.82c-4.68.95-9,.16-12.59-3.22a4.43,4.43,0,0,1-.38-.46Z"/><path class="cls-6" d="M84.26,181.82A31.77,31.77,0,0,1,94.5,195.15a37.88,37.88,0,0,1,3,14.57c.06,5.92.13,11.84-.13,17.75a50.78,50.78,0,0,1-8.64,25.69c-8.17,12.55-19.25,21.33-33.85,25.29C51,279.51,47,280.23,43,281c-1,.21-1.39.6-1.38,1.71.06,7.68,0,15.36,0,23a21.67,21.67,0,0,1-17.28,21.16,13.3,13.3,0,0,1-12.51-3.45,5.2,5.2,0,0,1-.35-.47l.08-.07a16,16,0,0,0,12.7-.4c8.48-4,13.21-10.63,13.33-20.16.1-7.6,0-15.2,0-22.8v-1.42c3.11-.66,6.17-1.39,9.26-1.95,22-4,39.52-22.07,44.87-41.87a50.38,50.38,0,0,0,1.78-13.26c0-5.51.07-11-.19-16.54a34.73,34.73,0,0,0-8.91-22c-.15-.18-.29-.37-.44-.56Z"/><path class="cls-5" d="M137.66,296.77a11,11,0,0,1,1.05.45c7.6,4.22,15.74,5.26,24.24,4,22.05-3.13,41.82-22.14,46.65-44.65a49.24,49.24,0,0,0,1.06-10q.15-28.38,0-56.75a35.55,35.55,0,0,0-9.14-24.44c-.08-.08-.12-.19,0-.51a13.6,13.6,0,0,1,1.46,1,33.78,33.78,0,0,1,11,19.69,47,47,0,0,1,.74,8.21c.06,18.12-.06,36.23.06,54.35a53.11,53.11,0,0,1-8.58,29.57c-8,12.46-18.85,21.26-33.19,25.39-9.08,2.62-18.16,2.65-27-1.12a93.45,93.45,0,0,1-8.63-4.79Z"/><path class="cls-7" d="M192.94,158.11a30.58,30.58,0,0,1,9.56,11A37.67,37.67,0,0,1,206.83,187c0,18.2-.1,36.39,0,54.59a54.36,54.36,0,0,1-11.31,33.89c-8.25,11-18.87,18.65-32.36,21.94-9.11,2.23-18.09,1.83-26.65-2.3a61.94,61.94,0,0,1-6.44-4.11l.21-.2A37.68,37.68,0,0,0,142.12,295a43.13,43.13,0,0,0,24.73-3.22c18.26-8.08,30-21.83,34.79-41.28a42.74,42.74,0,0,0,1.1-10c.11-18.64,0-37.28.06-55.91,0-10-3-18.93-10-26.29Z"/><path class="cls-8" d="M273.51,107.25c8.69,3.3,17.3-4.21,18.3-11.92a24.86,24.86,0,0,0,.17-3q0-38.08,0-76.16a11.76,11.76,0,0,0-2-7.24,8.45,8.45,0,0,1,4.62,6.36,11.39,11.39,0,0,1,.16,2q0,39.28,0,78.56c0,7.72-7.12,14.68-14.77,14.49A8.77,8.77,0,0,1,273.51,107.25Z"/><path class="cls-9" d="M279.33,111.76c5.19,1.75,9.55.21,13.34-3.29a14.21,14.21,0,0,0,4.88-10.81q0-38.32,0-76.67c0-2.76-.29-5.39-2-7.7a8.52,8.52,0,0,1,4.6,6.15,11.23,11.23,0,0,1,.23,2.38q0,39.18,0,78.36c0,7.83-7.16,14.79-14.94,14.55A7.82,7.82,0,0,1,279.33,111.76Z"/><path class="cls-10" d="M124.33,44.12a9.27,9.27,0,0,1,4.5,5.79q5.49,18.44,11,36.88c3.63,12.18,7.05,24.43,11,36.52,2.14,6.59-1.16,13.53-6.15,16.83-3.44,2.28-7.14,3.23-11.13,1.82a13.71,13.71,0,0,1-3.6-2.31c8.89,3.27,18.38-4.88,18.71-13.66a17.35,17.35,0,0,0-1-5.38q-10.85-36.44-21.79-72.84A34.49,34.49,0,0,0,124.33,44.12Z"/><path class="cls-11" d="M124.55,135.06c7.74,3.12,16.61-3.47,18.22-11.46a12.21,12.21,0,0,0-.31-6q-11.15-37.26-22.29-74.5a28.21,28.21,0,0,0-1.49-3.37,9,9,0,0,1,4.43,5.63q7.77,26,15.57,52c2.2,7.37,4.27,14.79,6.65,22.1,2.78,8.5-4.66,18.4-13.64,18.69a9,9,0,0,1-6.88-2.57,1.79,1.79,0,0,1-.24-.56Z"/><path class="cls-11" d="M160.15,123a5.89,5.89,0,0,1,1,.3c7.78,4.18,15.87,4.25,23.87,1.16,14.68-5.67,23.76-16.36,26.77-31.85,1.27-6.51.52-12.91-3.17-18.69-.58-.9-1.27-1.74-1.83-2.75a10,10,0,0,1,1.07.72A20.89,20.89,0,0,1,215,86.57c.87,10.77-2.89,20-9.74,28.09a39.14,39.14,0,0,1-22.69,13.59C174.72,129.79,166.48,128.33,160.15,123Z"/><path class="cls-9" d="M212.37,75.55A19.06,19.06,0,0,1,220,87.44c1.8,8.07.37,15.75-3.36,23-5.4,10.47-13.58,17.88-24.93,21.39-7.57,2.34-15,2.08-22.19-1.74-.56-.31-1.1-.65-1.63-1a9.29,9.29,0,0,1-1.76-1.47,4.44,4.44,0,0,1,.83.25c7.34,3.93,15,4.1,22.63,1.39,15-5.35,24.31-16,27.68-31.59,1.41-6.56.77-13.06-2.86-19-.65-1-1.48-2-2.23-3Z"/><path class="cls-11" d="M16.17,153.54a5.17,5.17,0,0,1,1,.24c7.56,3.5,15.25,3.25,22.84.39,11.7-4.4,19.74-12.68,24.42-24.22a11.68,11.68,0,0,0-.86-11.06A19,19,0,0,1,66,121a10.13,10.13,0,0,1,1.48,10.84c-5.88,14.41-16.18,23.74-31.76,26.44A24.28,24.28,0,0,1,16.17,153.54Z"/><path class="cls-12" d="M265.63,71.71v2.9l-10.08,2.07V78c0,8.71,0,17.43,0,26.14,0,7.77-7.08,14.78-14.67,14.58a8.6,8.6,0,0,1-6.39-2.82,30.22,30.22,0,0,0,4.76.47c6.81-.35,13.26-6.85,13.39-13.69.16-8.91.06-17.82.07-26.73V74.43Z"/><path class="cls-12" d="M72.45,126.48a6,6,0,0,1-.08,1.59c-1,3.25-1.43,6.5-.18,9.79a2.27,2.27,0,0,1,0,.59C65.69,152,55.44,160.74,40.27,162.81a24.9,24.9,0,0,1-19.52-5.44,4.26,4.26,0,0,1,.91.21c7.07,3.81,14.49,4.07,22,1.7,12.88-4.09,21.6-12.77,26.6-25.21a10.79,10.79,0,0,0-1.36-10.84A8.27,8.27,0,0,1,72.45,126.48Z"/><path class="cls-9" d="M265.63,77.24v2.91l-4.51.94v1.5c0,8.91.12,17.83-.08,26.74-.16,7.62-7.54,14.18-15.14,13.74a8.5,8.5,0,0,1-6.12-3c8.87,3.32,17.23-4.51,18.29-11.5a15.29,15.29,0,0,0,.15-2.14q0-13.2,0-26.39c0-.85.16-1.24,1.11-1.4C261.44,78.23,263.53,77.7,265.63,77.24Z"/><path class="cls-12" d="M114.41,119.2c.32.91.65,1.82,1,2.73-3.79.78-7.57,1.55-11.35,2.39a1.46,1.46,0,0,0-.81,1c-.87,3.44-1.69,6.89-2.51,10.34a15.58,15.58,0,0,1-13.32,12,9.06,9.06,0,0,1-8-3.17c4.28,1.71,8.15.89,11.75-1.52A15.68,15.68,0,0,0,97.89,133Q99,128,100.33,122.92a1.47,1.47,0,0,1,.85-.92C105.58,121,110,120.12,114.41,119.2Z"/><path class="cls-13" d="M35.92,91.42a9.67,9.67,0,0,0-.21,1.5q0,16.86,0,33.7c0,2-.36,2.37-2.6,2.64V90.91c0-.48,0-1-.07-1.44A10.23,10.23,0,0,1,42,80.6l5.49,2.16.25.45a8.5,8.5,0,0,0-8,1.79A10.15,10.15,0,0,0,35.92,91.42Z"/><path class="cls-9" d="M115.87,124.51c.41.89,1.2,1.72.51,2.81-2.1.44-4.21.89-6.32,1.32a1.34,1.34,0,0,0-1.23,1.17c-.78,3.58-1.57,7.17-2.57,10.69-1.78,6.27-5.88,10.2-12.31,11.51a9.05,9.05,0,0,1-8.82-3c8.27,3.2,17-3.84,18.52-11.82.64-3.33,1.54-6.6,2.39-9.88a1.51,1.51,0,0,1,.95-.91C109.94,125.75,112.91,125.14,115.87,124.51Z"/><path class="cls-11" d="M197.71,64.16l-2.62-1.29-1.54-1.28a12.7,12.7,0,0,0,11.84-1.8c3.61-2.48,6.15-5.86,6.63-10.25a24.79,24.79,0,0,0-5.47-18.8c-.25-.31-.51-.61-.79-.9a3.05,3.05,0,0,1-.69-.89,7.91,7.91,0,0,1,1.1.64A24.52,24.52,0,0,1,214.76,45c.61,3.8.64,7.53-1.2,11.1-2.82,5.45-9.19,9.51-15.14,8.22-.06,0-.14.07-.21.11v.05Z"/><path class="cls-10" d="M203.93,68.73l-3.09-2.33c8,2.15,18.1-6.06,17-16.54-.61-5.7-2.31-10.9-6.17-15.26a9.87,9.87,0,0,1-1.08-1.34,6.3,6.3,0,0,1,.84.48c5.4,4.27,8.22,9.94,9.1,16.68.43,3.25.44,6.47-1,9.5-2.47,5-6.32,8.26-12,9A19.45,19.45,0,0,1,203.93,68.73Z"/><path class="cls-11" d="M60,59c4.11,3.3,7.72,7,8.2,12.5S66.15,81.05,62,84.23a12.44,12.44,0,0,1-10.1,2.65,9.39,9.39,0,0,1-5-2.73C54.56,86,59.93,83,63.58,76.72,67.54,69.89,64.68,64.22,60,59Z"/><path class="cls-11" d="M52.46,88.38c7,2,13.31-.72,16.8-7.27,3.28-6.15,2.07-11.39-3.81-17.56.28.05.51,0,.64.12,3.53,2.78,6.46,6.15,7.47,10.56,1.33,5.78-1.13,10.4-5.51,14a12.39,12.39,0,0,1-11.17,2.86A7.81,7.81,0,0,1,52.46,88.38Z"/><path class="cls-11" d="M255.58,47.47l-2.9.51q0-12.48,0-24.95a10.63,10.63,0,0,0-1.83-5.72,8.39,8.39,0,0,1,4.44,6,13.62,13.62,0,0,1,.26,2.85C255.58,33.23,255.57,40.35,255.58,47.47Z"/><path class="cls-10" d="M261.11,46.26l-2.92.51c0-6.62,0-13.24,0-19.87a8.84,8.84,0,0,0-1.92-5.19c2.47.65,4.54,4,4.85,7.78l0,.24V46.05A.23.23,0,0,0,261.11,46.26Z"/><path class="cls-14" d="M307.08,9.08c-.5-1.71-1-3.37-1.49-5l-.29,0V9.67l-1.71.33c.13-2.85.25-5.63.38-8.51L306.32,1c.48,1.66,1,3.29,1.51,5.18.37-1.44.68-2.65,1-3.87.53-2.09.53-2.09,2.88-2.33.18,2.73.37,5.47.55,8.24l-1.69.37c-.12-1.88-.23-3.73-.34-5.57l-.15,0q-.62,2.4-1.25,4.78C308.5,9,308.49,8.94,307.08,9.08Z"/><path class="cls-8" d="M165.8,85.41l-2.39-1.07-.49-.39h0l-3.58-2.46a4.79,4.79,0,0,1,1.13.21c4.81,2.48,10.06,3.42,15.29,4.44,3.12.6,6.2,1.41,9.29,2.12.13.5.25,1,.37,1.51l-2.57-.54c-5.44-1.15-11-1.75-16.25-3.77A3.22,3.22,0,0,0,165.8,85.41Z"/><path class="cls-9" d="M181.6,59.74l-3.35-.5A10.12,10.12,0,0,1,185.44,51l.75,3.22A10.09,10.09,0,0,0,181.6,59.74Z"/><path class="cls-14" d="M302.72,3.31l-2,.52c0,1.77-.1,3.49,0,5.19.11,1.31-.21,2-1.79,1.83V4.2l-2.1.33V2.94l5.9-1.2Z"/><path class="cls-5" d="M91.69,188l-.76-.71.13-.18.86.7Z"/><path class="cls-9" d="M212.2,75.72l-.51-.47.1-.15.58.45Z"/><path class="cls-7" d="M130.12,291l-.49-.26.05-.14.65.2Z"/><path class="cls-15" d="M226.32,25.64l0,.74Z"/><path class="cls-6" d="M83.6,181.28l.39.33-.15.25-.38-.43Z"/><path class="cls-7" d="M192.42,157.9l.52.21-.16.17-.34-.39Z"/><path class="cls-6" d="M84,181.61l.27.21L84,182a.57.57,0,0,1-.13-.14Z"/><path class="cls-16" d="M261.11,46.26a.23.23,0,0,1,.05-.21l.17.18-.11,0Z"/><path class="cls-6" d="M83.46,181.43l-.14-.23.28.08Z"/><path class="cls-16" d="M261.16,29.73l0-.24a.59.59,0,0,1,.1.17S261.19,29.7,261.16,29.73Z"/><path class="cls-7" d="M192.44,157.89l-.14-.13.14,0,0,.16Z"/><path class="cls-6" d="M230.3,276.74l-.15-.24.32,0Z"/><path class="cls-11" d="M124.57,135l-.18,0h.16Z"/><path class="cls-6" d="M11.47,323l-.14-.18a1.51,1.51,0,0,0,.22.11Z"/><path class="cls-17" d="M5.72,250.29V194.62a14.3,14.3,0,0,1,10.83-13.71c9.9-2.19,19.79-4.45,29.76-6.3,10.41-1.93,20,.11,28,7.43a27.63,27.63,0,0,1,9.24,19,170.38,170.38,0,0,1,0,23.59c-.69,9.1-4.67,17.12-10.34,24.24-6.77,8.52-15.22,14.7-25.8,17.58-5.27,1.43-10.67,2.39-16,3.55C29,270.45,28,271.68,28,274q0,13.68,0,27.35a14.42,14.42,0,0,1-12.5,13.77,8.59,8.59,0,0,1-9.78-8.83ZM28,224.49v20.14c0,2.74,1,3.52,3.63,3l13.23-2.82c9.08-1.91,16.55-10.75,16.76-20,.11-4.92.12-9.84,0-14.75-.21-8.63-6.93-14.33-15.47-13-5,.78-9.85,2-14.77,3-2.41.52-3.36,1.73-3.37,4.2Z"/><path class="cls-18" d="M224.36,203.69V148.14a14.38,14.38,0,0,1,10.95-13.75c8.2-1.82,16.42-3.55,24.65-5.27a73.68,73.68,0,0,1,8.57-1.44A31.65,31.65,0,0,1,286.44,131c8.64,4.63,13.68,11.92,15.48,21.52,1.07,5.69.55,11.44.67,17.16a50.06,50.06,0,0,1-1.41,14.06,51.25,51.25,0,0,1-8.83,17.92,51.79,51.79,0,0,1-15.53,13.73,48.06,48.06,0,0,1-15.3,5.65c-3.94.74-7.86,1.63-11.79,2.47-2.14.46-3.08,1.68-3.08,4q0,13.62,0,27.24a14.5,14.5,0,0,1-12.39,14,8.67,8.67,0,0,1-9.89-8.75Q224.34,231.82,224.36,203.69ZM246.64,178c0,6.88,0,13.76,0,20.64,0,2.11,1.09,3,3.15,2.54q6.63-1.38,13.25-2.78c9.54-2,17.09-10.84,17.22-20.18.06-4.84.05-9.68,0-14.52-.11-8.95-7.48-14.88-16.27-13.09-4.62.93-9.22,1.95-13.83,2.92-2.57.54-3.53,1.7-3.53,4.31Z"/><path class="cls-17" d="M115,226.89c0-8.64.1-17.28,0-25.92-.2-13.29,4.65-24.57,13.48-34.24a47.76,47.76,0,0,1,26.08-15.19c9.49-1.93,18.49-.72,26.48,5.1,7,5.09,10.69,12.16,11.86,20.6a53.62,53.62,0,0,1,.41,7.06q0,25.72,0,51.47c0,20.18-9.45,34.88-26.37,45.09a40.8,40.8,0,0,1-21.72,5.82,29.88,29.88,0,0,1-29.82-26.46,49.7,49.7,0,0,1-.37-6C115,245.13,115,236,115,226.89Zm55.92-11.53c0-7.15,0-14.31,0-21.47,0-3.18-.11-6.36-.35-9.53A10.83,10.83,0,0,0,167,177.2c-3.86-3.61-8.58-4.37-13.52-3.13a22.24,22.24,0,0,0-16.2,21.2c.17,16.83,0,33.66,0,50.49,0,2.19,0,4.4.2,6.58a11.9,11.9,0,0,0,5.1,9,13.94,13.94,0,0,0,12.09,2,21.84,21.84,0,0,0,16.25-20.77Z"/><path class="cls-19" d="M171.86,120.35c-11.47-.06-20.14-7.73-21.73-19.16-.57-4.08,0-7.72,3.17-10.63a9.2,9.2,0,0,1,5-2.48c4.15-.6,7.55,1.9,7.41,6.09-.21,6.46,5.7,12.21,14.15,9a15.48,15.48,0,0,0,9.75-14.84,5.84,5.84,0,0,0-3.2-5.13A30.66,30.66,0,0,0,177,80.37c-4.83-.89-9.7-1.58-14.31-3.38-7.24-2.82-11.69-7.88-12.61-15.75A29.31,29.31,0,0,1,152.85,45c4.9-10.33,12.68-17.46,23.86-20.4C184,22.71,191,23.49,197.08,28.2s8.67,11.42,8.27,19.09c-.23,4.49-4.9,8.63-9.4,8.71-3.72.06-6.28-2.59-6.36-6.6-.12-5.76-4.21-9.7-9.81-9.48a12.88,12.88,0,0,0-6.95,2.33c-4.46,3.12-7.08,7.26-7.08,12.87,0,2.84,1.23,5,3.82,5.94a95.81,95.81,0,0,0,9.89,2.74c3.87,1,7.86,1.5,11.65,2.69,10,3.15,14.84,10.28,14.29,20.74-.48,9.14-4.45,16.72-10.86,23.08a33.26,33.26,0,0,1-18,9.52C175,120.1,173.4,120.18,171.86,120.35Z"/><path class="cls-12" d="M172.59,57.11c-.87-6,5.41-12.14,11.23-10.7a2,2,0,0,1,1.42,2,10.19,10.19,0,0,0-9.85,10.08C174.32,58.33,173.1,58.42,172.59,57.11Z"/><path class="cls-10" d="M185,93.07c-3.25-.71-6.51-1.41-9.76-2.16-1.17-.26-2.32-.63-3.47-1v0l-.63-.25L171,89.5l-2.54-1.27c-.39-.52-.79-1-1.18-1.54A25.71,25.71,0,0,0,170.69,88c4.91,1.15,9.84,2.2,14.77,3.29Z"/><path class="cls-8" d="M171,89.5l.21.23.63.25v0a2.73,2.73,0,0,0,.37.52,9.63,9.63,0,0,1,3.24,7.08c.05.83.21,1.65.32,2.48l-2.29-.74a14.07,14.07,0,0,1-.88-3.16A11.31,11.31,0,0,0,170.79,90C170.73,89.89,170.91,89.66,171,89.5Z"/><path class="cls-10" d="M178.09,99.56A11.47,11.47,0,0,0,176.22,94a7.9,7.9,0,0,1,4.06,4.61Z"/><path class="cls-20" d="M197.71,64.16l.51.35Z"/><path class="cls-20" d="M162.92,84l.49.39Z"/><path class="cls-18" d="M230.36,64.54c0-12.92,0-25.84,0-38.76A10.48,10.48,0,0,1,237.89,16c4.46-1.11,8.09,1.62,8.11,6.21,0,6,0,12.08,0,18.12V51c0,1.77.65,2.35,2.39,2q9.56-2,19.09-4.07c1.51-.32,2.08-1.12,2.08-2.76,0-9.12,0-18.24,0-27.36a11.42,11.42,0,0,1,3-8.45c2.17-2.26,6.14-4,9.39-2.26,2.5,1.3,3.38,3.45,3.38,6.09q0,16,0,32,0,22.62,0,45.24a10.27,10.27,0,0,1-5.08,9.11,7.19,7.19,0,0,1-5.78,1.21c-3.42-.86-4.87-3-4.88-7q0-13.92,0-27.84c0-2.17-.52-2.62-2.66-2.18q-9.34,1.94-18.67,3.91C246.64,69,246,69.9,246,71.71c0,9.44-.07,18.88,0,28.32a10.41,10.41,0,0,1-8.81,10.28,6.1,6.1,0,0,1-6.83-5.81c0-.48,0-1,0-1.44Z"/><path class="cls-19" d="M4.76,107.72c0-6.08.09-12.16,0-18.24a33.69,33.69,0,0,1,8-22.65A34.9,34.9,0,0,1,34,54.06C43.31,52.37,52.42,56.24,57,64c2.68,4.5,1.89,9.06-2.21,12.37C52.52,78.19,50,79.08,47,78.21a4.94,4.94,0,0,1-3.32-2.75c-2.07-5-8.09-7.21-14-4.37s-9.12,7.51-9.13,14.15c0,13,0,25.92,0,38.87,0,5.23,3,8.93,8,9.69a12.06,12.06,0,0,0,7.84-1.64,16.31,16.31,0,0,0,7.22-8.35A10,10,0,0,1,49.5,118c2.52-1,5-.89,7.09,1s2.47,4.36,1.75,6.94a29.51,29.51,0,0,1-5.55,10.26C47.3,143.15,40.4,148,31.58,149.57c-7.33,1.33-14.1,0-19.8-5.08A21,21,0,0,1,5,131.09a38.14,38.14,0,0,1-.24-4.54C4.74,120.27,4.76,114,4.76,107.72Z"/><path class="cls-13" d="M28.25,129.32a12.55,12.55,0,0,1-.95-5.59c0-12.44,0-24.87,0-37.3,0-5.13,3.82-9.64,8.67-10.19a15.21,15.21,0,0,1,3.06.24l1.23,2a10.1,10.1,0,0,0-10.08,9.9q0,19.25,0,38.49c0,1,.16,2,.25,3Z"/><path class="cls-19" d="M126.58,129.57a6.1,6.1,0,0,1-6.09-4.8c-1-3.66-1.95-7.33-2.93-11-.4-1.51-1-1.87-2.53-1.54L96.4,116.16a2.89,2.89,0,0,0-2.31,2.45c-1,4.12-2,8.23-3,12.35a10.36,10.36,0,0,1-8.38,8,6.2,6.2,0,0,1-7.28-7.28c.83-4,2-8,3-11.95Q88.31,82.92,98.1,46.07a10.43,10.43,0,0,1,8.49-7.8,6.1,6.1,0,0,1,6.89,4.44L125,81.13c3.6,12.05,7.16,24.1,10.83,36.13C137.59,123,132.44,129.53,126.58,129.57ZM99.26,97.23c0,1.53.72,2.25,2,2,3-.62,6.09-1.26,9.12-2a2.39,2.39,0,0,0,1.92-3.16q-2.17-8.28-4.42-16.52a1.73,1.73,0,0,0-3-.95,4.49,4.49,0,0,0-1.18,2.12c-1,4-2,8-2.94,12.08C100.25,93.06,99.73,95.27,99.26,97.23Z"/><path class="cls-21" d="M28,224.49V204.23c0-2.47,1-3.68,3.37-4.2,4.92-1,9.81-2.25,14.77-3,8.54-1.34,15.26,4.36,15.47,13,.13,4.91.12,9.83,0,14.75-.21,9.27-7.68,18.11-16.76,20l-13.23,2.82c-2.65.57-3.63-.21-3.63-3Zm27.88-8.12v-4c0-.72,0-1.44,0-2.15-.1-1.41-.27-1.6-1.7-1.35-2.47.44-4.92,1-7.38,1.49-1.74.36-3.47.74-5.12,1.09v28.43l3.9-1.05c.86-.29,1.73-.56,2.58-.87a1.81,1.81,0,0,0,1.28-2c-.06-5.66,0-11.33,0-17a9.1,9.1,0,0,1,.18-1.26v19.15c3.16-1.62,6.16-6.39,6.29-10.16C56,223.24,55.89,219.8,55.88,216.37Zm-1.49-10.18a8.19,8.19,0,0,0-6.88-3.58,34.83,34.83,0,0,0-5.78.88c-2.69.52-5.37,1.12-8,1.69v36.3l3.88-.84V208.26l7.79-1.65C48.28,206,51.13,205.06,54.39,206.19Z"/><path class="cls-21" d="M246.64,178V157.84c0-2.61,1-3.77,3.53-4.31,4.61-1,9.21-2,13.83-2.92,8.79-1.79,16.16,4.14,16.27,13.09.05,4.84.06,9.68,0,14.52-.13,9.34-7.68,18.15-17.22,20.18q-6.62,1.41-13.25,2.78c-2.06.44-3.15-.43-3.15-2.54C246.63,191.76,246.64,184.88,246.64,178Zm21.63,12.42a13.31,13.31,0,0,0,6.24-10.23c.27-3.41.13-6.85.18-10.28v-4.14c-.06-.75-.14-1.51-.18-2.27,0-1-.44-1.34-1.45-1.13-3.87.8-7.74,1.58-11.62,2.3-1,.18-1.26.56-1.26,1.57.05,8.63,0,17.27,0,25.9,0,.35,0,.7.06,1.21l3.89-.93Zm-16,4.58a24.69,24.69,0,0,1,2.73-.54c1-.09,1.27-.54,1.26-1.54,0-9.92,0-19.83,0-29.75v-1.38c2.46-.52,4.76-1,7.07-1.49,3.1-.61,6.17-1.8,9.71-.59-2.22-2.8-4.88-4-8-3.54-3.91.56-7.75,1.54-11.63,2.27-1,.18-1.16.61-1.16,1.52q0,16.86,0,33.71Z"/><path class="cls-22" d="M170.93,215.36v27.23a21.84,21.84,0,0,1-16.25,20.77,13.94,13.94,0,0,1-12.09-2,11.9,11.9,0,0,1-5.1-9c-.19-2.18-.2-4.39-.2-6.58,0-16.83.12-33.66,0-50.49a22.24,22.24,0,0,1,16.2-21.2c4.94-1.24,9.66-.48,13.52,3.13a10.83,10.83,0,0,1,3.61,7.16c.24,3.17.32,6.35.35,9.53C171,201.05,170.93,208.21,170.93,215.36Zm-16-14.27c0,.15,0,.31,0,.47q0,27.16,0,54.32v1.51l.33.31,3.74-2.14c4.51-3.42,6.35-8,6.31-13.61-.12-14.56,0-29.12-.05-43.68,0-1.36,0-2.72,0-4.08v-5.1c-.06-.7-.19-1.4-.19-2.1,0-1.39-.1-1.5-1.51-1.39-6.79.57-12.67,7-12.67,13.86q0,27.82,0,55.66a15.87,15.87,0,0,0,.24,2.37c0,.24.27.66.39.65a10,10,0,0,0,2.75-.47c.31-.13.45-1,.45-1.55q0-26.64,0-53.26A17.66,17.66,0,0,1,155,201.09Zm8.56-18.63a17.9,17.9,0,0,0-2.68-2,10.36,10.36,0,0,0-10.05.41c-4.78,2.65-7.74,6.57-7.76,12.16-.06,18.67,0,37.35,0,56a11,11,0,0,0,.28,2.81,8.29,8.29,0,0,0,4.53,5.37,32,32,0,0,1-.9-5.29q-.1-27.84,0-55.67a12.33,12.33,0,0,1,.34-2.84C149,186.06,155.53,181.71,163.51,182.46Z"/><path class="cls-23" d="M171.81,90l-.63-.25Z"/><path class="cls-2" d="M99.26,97.23c.47-2,1-4.17,1.51-6.38,1-4,1.91-8.07,2.94-12.08a4.49,4.49,0,0,1,1.18-2.12,1.73,1.73,0,0,1,3,.95q2.23,8.25,4.42,16.52a2.39,2.39,0,0,1-1.92,3.16c-3,.69-6.07,1.33-9.12,2C100,99.48,99.22,98.76,99.26,97.23Zm4.63-2.84c3.12.39,3.93-.48,3.14-3.35l-.27-1c-.29-1-.57-2-.86-3.08l-.24,0Z"/><path class="cls-24" d="M45.57,238.81q0-11,0-21.95v-2.38l10.36-2.13v4l-6.29,1.31a9.1,9.1,0,0,0-.18,1.26c0,5.67,0,11.34,0,17a1.81,1.81,0,0,1-1.28,2C47.3,238.25,46.43,238.52,45.57,238.81Z"/><path class="cls-24" d="M264.16,192.42V168l10.53-2.27v4.14l-6.39,1.25a5.45,5.45,0,0,0-.25,1.1c0,1.63,0,3.27,0,4.91q0,6.41.07,12.81l.16.44Z"/><path class="cls-24" d="M155,201.09c.41-5.29,4.68-10.24,10.34-12,0,1.7,0,3.4,0,5.1a14.06,14.06,0,0,0-6.44,12q0,24,0,48a8.72,8.72,0,0,0,.2,1.33l-3.74,2.14-.33-.31v-1.51q0-27.15,0-54.32C155,201.4,155,201.24,155,201.09Z"/><path class="cls-21" d="M268.3,171.16c0,1.12-.09,2.24-.1,3.35,0,4.72,0,9.44,0,14.16,0,.44-.06.87-.09,1.31q0-6.4-.07-12.81c0-1.64,0-3.28,0-4.91A5.45,5.45,0,0,1,268.3,171.16Z"/></g></g></svg>