<svg version="1.1" xmlns="http://www.w3.org/2000/svg" xmlns:xlink="http://www.w3.org/1999/xlink" x="0px" y="0px"
	 viewBox="0 0 342.8 175.9" enable-background="new 0 0 342.8 175.9" xml:space="preserve">
<g>
		<radialGradient id="star_00000013910119544078844160000001573816833103913113_" cx="250.7504" cy="91.2896" r="84.0172" gradientTransform="matrix(1 0 0 -1 0 179.223)" gradientUnits="userSpaceOnUse">
		<stop  offset="0" style="stop-color:#F5C836"/>
			<stop  offset="0.96" style="stop-color:#F8991D"/>
	</radialGradient>
	<path id="star" fill="url(#star_00000013910119544078844160000001573816833103913113_)" d="M336.5,68.3c-0.5-1.5-1.8-2.6-3.4-2.9
		l-54.3-7.9L254.5,8.3c-0.4-0.9-1.2-1.6-2.1-2c-2.1-0.9-4.5,0-5.5,2l-24.3,49.2l-0.4,0.1l-42.9,6.8c-0.5,0.1-0.4,0.8,0.1,0.8
		l43.8,0.2c0.6,0,1.1,0,1.7-0.1l0.8-0.1c1.4-0.2,2.6-1,3.2-2.3l21.8-44.1l21.8,44.1c0.6,1.2,1.8,2.1,3.2,2.3l48.7,7.1l-35.2,34.4
		c-1,1-1.4,2.4-1.2,3.7l8.3,48.5l0,0l0.2,1l-27.4-7.4c-0.5-0.1-0.7,0.5-0.3,0.7l25.1,13.4l5.4,2.8c2,1.2,4.6,0.5,5.7-1.5
		c0.5-0.9,0.7-1.9,0.5-2.9l-9.3-54.1l39.3-38.3C336.6,71.5,337,69.8,336.5,68.3L336.5,68.3z M295.8,108.9L295.8,108.9L295.8,108.9z"
	/>

	<linearGradient id="five_00000160911176717738180290000015843742392052341145_" gradientUnits="userSpaceOnUse" x1="241.5217" y1="22.4862" x2="241.5217" y2="109.7895" gradientTransform="matrix(1 0 0 -1 0 179.223)">
		<stop  offset="0" style="stop-color:#262669"/>
		<stop  offset="0.33" style="stop-color:#0F62A7"/>
		<stop  offset="0.68" style="stop-color:#5C9AD3"/>
		<stop  offset="1" style="stop-color:#0F62A7"/>
	</linearGradient>
	<path id="five" fill="url(#five_00000160911176717738180290000015843742392052341145_)" d="M261.9,148.8c-3.3,2.5-6.9,4.5-10.8,5.9
		c-3.9,1.4-8,2.1-12.2,2.1c-9.3,0.1-18.3-3.4-25-9.8c-1.9-1.8-3.7-3.6-5.4-5.6c-0.5-0.5-0.7-1.3-0.7-2c0.1-0.8,0.4-1.5,1-2.1
		l10.7-10.2c0.6-0.6,1.2-0.8,1.9-0.8c0.6,0,1.3,0.3,1.8,0.9c0.6,0.7,1.4,1.5,2.4,2.3s2.1,1.7,3.5,2.5s3,1.4,4.7,1.9
		c1.7,0.5,3.7,0.8,5.9,0.8c3.8,0,6.7-1,9-2.9c2.2-1.9,3.5-4.4,3.8-7.4c0.1-1.2,0.1-2.3-0.2-3.5c-0.3-1.2-0.8-2.3-1.5-3.3
		c-0.8-1.1-1.9-2-3.1-2.6c-1.5-0.8-3.2-1.2-4.9-1.3c-2.9-0.2-5.4,0.1-7.2,0.9c-1.8,0.8-3.5,1.8-5.1,3c-0.7,0.5-1.5,0.9-2.4,1.1
		c-0.9,0.2-1.7,0.1-2.4-0.2l-10.1-4.1c-0.7-0.2-1.4-0.8-1.7-1.5c-0.4-0.7-0.4-1.5-0.2-2.3L225,72.1c0.2-0.8,0.7-1.4,1.4-1.9
		c0.7-0.5,1.4-0.8,2.2-0.8h44.1c1.4,0,2.5,1.1,2.5,2.4c0,0.1,0,0.2,0,0.4l-1.7,16.1c-0.1,0.8-0.4,1.5-1,2c-0.6,0.5-1.3,0.8-2.1,0.8
		h-25.1c-0.8,0-1.5,0.2-2.1,0.7c-0.6,0.5-1.1,1-1.3,1.6c-0.2,0.6-0.1,1.1,0.2,1.5c0.4,0.4,1,0.5,1.8,0.3c0.6-0.1,1.1-0.1,1.5-0.1
		h1.3c9.8,0,17,2.7,21.8,8.2c4.8,5.5,6.7,13.1,5.6,23.1c-0.5,4.3-1.8,8.5-3.9,12.2C268.3,142.6,265.4,146,261.9,148.8L261.9,148.8z"
	/>

	<linearGradient id="text_00000116195324823973108710000013955795654922730941_" gradientUnits="userSpaceOnUse" x1="109.4854" y1="32.0891" x2="109.4854" y2="104.6291" gradientTransform="matrix(1 0 0 -1 0 179.223)">
		<stop  offset="0.18" style="stop-color:#A32825"/>
		<stop  offset="0.54" style="stop-color:#D43A3F"/>
		<stop  offset="0.66" style="stop-color:#CC373B"/>
		<stop  offset="0.85" style="stop-color:#B82F30"/>
		<stop  offset="1" style="stop-color:#A32825"/>
	</linearGradient>
	<path id="text" fill="url(#text_00000116195324823973108710000013955795654922730941_)" d="M13.5,75.4h19.8l-0.9,8.8H23l-2,19.2
		h8.1l-0.9,8.1h-8.1l-3.7,34.8H6L13.5,75.4L13.5,75.4z M41.4,75.4h11.2l2.1,70.9H44.3l0-11.7h-6.9l-2.5,11.7H24.4L41.4,75.4z
		 M44.3,126.5l0.1-7c0-7,1-25.3,1-25.3h-0.6c0,0-2.9,18.3-4.3,25.3l-1.4,7C39.1,126.5,44.3,126.5,44.3,126.5z M65.3,75.4h8.5l8,41.7
		l0.3-0.1c0,0,0-23.3,0.6-29.7L84,75.4h10.4L87,146.3h-8.6l-8-41.7l-0.3,0.1c0,0,0.1,23.1-0.6,29.6l-1.3,12H57.8L65.3,75.4z
		 M104.2,84.2h-7.3l0.9-8.8h25l-0.9,8.8h-7.3l-6.5,62.1H97.6L104.2,84.2L104.2,84.2z M129.8,75.4H141l2.1,70.9h-10.5l0-11.7h-6.9
		l-2.5,11.7h-10.5L129.8,75.4L129.8,75.4z M132.7,126.5l0.1-7c0-7,1-25.3,1-25.3h-0.6c0,0-2.9,18.3-4.3,25.3l-1.4,7L132.7,126.5
		L132.7,126.5z M147.8,120.9h10.4c-0.9,8.9-1.2,11.1-1,14.7c0.1,1.9,0.6,2.8,2.3,2.8c1.5,0,2.4-0.8,2.9-2.7c0.3-1.1,1-4.4,1.3-7.5
		c0.6-5.5,0.3-6.2-1.4-8.4l-7.9-9.8c-3-3.8-4.6-8.1-3.6-17.4c0.4-3.3,1-7.9,2.7-11.1c2.7-4.9,6.9-6.9,12.7-6.9
		c5.6,0,10.1,2.3,11.4,6.9c1.1,3.7,0.1,12.6-0.7,20.6h-10.4c0.7-6.5,1.6-13.8,1.4-16.4c-0.1-1.9-1.1-2.4-2.6-2.4s-2.6,0.7-3.1,2.4
		c-0.5,2.2-0.8,4.5-1,6.8c-0.7,6.2-0.2,7.7,1.7,10.2l8,9.9c2.9,3.6,4.1,7,3.2,14.7c-0.3,2.9-1.1,9-3.1,12.9
		c-2.5,4.7-6.1,6.9-12.5,6.9c-5.7,0-9.9-2.3-11.4-6.9C146.1,136.5,146.6,132.9,147.8,120.9z M186.7,121.9l-6.1-46.5H191l1.9,17.7
		c0.4,3.8,0.1,16.2,0.1,16.2h0.6c0,0,2.2-12.4,3.5-16.2l5.6-17.7h10.3l-15.8,46.5l-2.6,24.4h-10.4L186.7,121.9L186.7,121.9z"/>
	<g id="ezmatch">
		<path fill="#262669" d="M97.6,159.1l1.1,0l0.3,3.4h0l1.5-3.5l1.1,0l0.2,3.4h0l1.6-3.5l1.1,0l-2.4,4.8l-1.1,0l-0.3-3.5h0l-1.5,3.5
			l-1.1,0C98.2,163.9,97.6,159.1,97.6,159.1z M104.8,159l1.1,0l-0.9,4.8h-1.1L104.8,159L104.8,159z M105.2,157.2l1,0l-0.2,1l-1,0
			L105.2,157.2z M107.1,157.6l1,0l-0.3,1.4l0.9,0l-0.2,0.8l-0.9,0l-0.4,2.3c-0.1,0.2-0.1,0.4-0.1,0.5c0,0.2,0.1,0.4,0.4,0.4
			c0.2,0,0.4,0,0.6-0.1l-0.2,0.8c-0.3,0.1-0.6,0.1-0.9,0.1c-0.8,0-1-0.4-1-0.9c0-0.2,0-0.4,0.1-0.5l0.5-2.6l-0.8,0l0.2-0.8h0.8
			L107.1,157.6z M109.4,157.1l1.1,0l-0.5,2.5h0c0.4-0.5,1-0.8,1.6-0.8c1,0,1.4,0.5,1.4,1.2c0,0.2,0,0.4,0,0.6l-0.6,3.1l-1,0l0.6-2.9
			c0-0.2,0.1-0.3,0.1-0.4c0-0.1,0-0.7-0.7-0.7c-0.4,0-0.7,0.2-1,0.5c-0.3,0.3-0.4,0.6-0.5,1l-0.5,2.6l-1.1,0L109.4,157.1
			L109.4,157.1z M119.1,163.2c-0.2,1.1,0.9,2,2,1.9c0.6,0,1.1-0.3,1.4-0.8h3.8L126,165c-0.5,1.1-2.1,2.5-5,2.6
			c-3.1,0-5.7-1.7-5.7-5.1c0-2.9,2-5.3,5.6-5.3c3,0,5.6,2,5.7,5.1v1L119.1,163.2L119.1,163.2z M120.9,159.5c-0.9,0-1.7,0.4-1.8,1.7
			h3.5C122.6,160.2,121.9,159.5,120.9,159.5z M126.8,167.4v-2.7l4.5-4.5h-4.1v-3h9.1v2.8l-4.4,4.4h4.6v3L126.8,167.4L126.8,167.4z"
		/>
		<path fill="#262669" d="M139,160.2c0.1-0.3,0.3-0.8,0.3-1.1c0-0.2-0.1-0.5-0.3-0.5c-0.5,0-1.3,1.2-1.6,1.6l-0.5,0.7l-0.6-0.3
			c1.4-2.1,2.5-3.5,3.7-3.5c0.9,0,1.2,0.8,1.2,1.5c0,0.8-0.7,2.4-1,3.2l-1,2.3l0.1,0.1l2.6-4.1c0.7-1,2.1-3,3.6-3
			c1,0,1.4,0.7,1.4,1.5c0,0.9-0.6,2.4-1,3.2l-1.1,2.3l0,0.1l0.2-0.4c1-1.6,3.9-6.7,6.1-6.7c1,0,1.4,0.6,1.4,1.5c0,1-0.6,2.2-0.9,3.2
			l-1.2,3.2c-0.1,0.3-0.2,0.6-0.2,0.9c0,0.1,0.1,0.2,0.3,0.2c0.4,0,1.1-0.7,2.1-2.3l0.6,0.3c-0.8,1-2,3.2-3.6,3.2
			c-0.9,0-1.4-0.6-1.4-1.3c0-0.6,0.3-1.3,0.5-1.8l1.6-4.1c0.1-0.2,0.3-0.8,0.3-1c0-0.3-0.2-0.5-0.5-0.5c-0.4,0-1.3,0.4-4.1,4.7
			l-2.5,3.9h-1.6l2.7-7c0.1-0.3,0.3-0.8,0.3-1.1c0-0.2-0.1-0.4-0.4-0.4c-0.6,0-0.9,0-3.6,4.2l-2.8,4.3h-1.7L139,160.2L139,160.2z"/>
		<path fill="#262669" d="M161.8,157.4h2l-1.7,4.2c-0.2,0.6-1.4,3.5-1.4,4c0,0.1,0.1,0.3,0.3,0.3c0.4,0,1.2-0.7,2.2-2.3l0.6,0.3
			c-1.4,2.2-2.5,3.5-3.7,3.5c-0.8,0-1.3-0.5-1.3-1.2c0-0.5,0.1-0.9,0.3-1.4l0,0c-0.6,1.4-1.8,2.6-3.6,2.6c-1.8,0-2.6-1.4-2.6-2.8
			c0-2.9,3-7.5,6.6-7.5c1,0,1.6,0.3,2,1.2L161.8,157.4L161.8,157.4z M160.9,159.2c0-0.6-0.3-1.1-1.1-1.1c-1.6,0-2.7,1.5-3.4,2.7
			c-0.6,1.1-1.4,3.2-1.4,4.5c0,0.6,0.4,1.2,1.1,1.2C158.3,166.4,160.9,160.9,160.9,159.2z"/>
		<path fill="#262669" d="M168.9,153.9l-1,3.4h2.1l-0.4,1.1h-2.1l-1.9,6.6c-0.1,0.2-0.2,0.6-0.2,0.9c0,0.1,0.1,0.3,0.3,0.3
			c0.7,0,1.7-1.6,2.1-2.1l0.7,0.4c-0.7,1.1-2,2.9-3.5,2.9c-0.9,0-1.3-0.5-1.3-1.3c0-0.7,0.3-1.6,0.5-2.3l1.5-5.3h-1.9l0.3-1.1h1.9
			l1.2-3.4H168.9z"/>
		<path fill="#262669" d="M176.1,164.8c-0.9,1.1-2.7,2.6-4.3,2.6c-1.7,0-3.1-1.4-3.1-3.1c0,0,0,0,0-0.1c0-3,3.4-7.1,6.2-7.1
			c1.2,0,2.2,0.8,2.2,1.9c0,0.6-0.4,1.2-1.2,1.2c-0.6,0-0.9-0.6-0.9-1.1c0-0.2,0.1-0.4,0.1-0.7c0-0.3-0.2-0.6-0.6-0.6c0,0,0,0,0,0
			c-1.1,0-3.7,3.8-3.7,6.9c0,0.7,0.2,1.6,1.2,1.6c1.3,0,2.7-1.2,3.6-2.1L176.1,164.8L176.1,164.8z M179.6,155
			c0.1-0.2,0.2-0.7,0.2-0.9c0-0.4-0.2-0.6-1.5-0.5l0.2-0.7l3.7-0.6l-3.3,11.1l0.1,0c0.9-1.5,3.7-6.3,5.6-6.3c0.9,0,1.4,0.8,1.4,1.5
			c0,0.6-0.3,1.6-0.6,2.1l-1.7,4.5c-0.1,0.1-0.2,0.4-0.2,0.6s0.1,0.3,0.3,0.3c0.7,0,1.8-1.8,2.1-2.3l0.6,0.4c-0.8,1.1-2,3.2-3.7,3.2
			c-0.9,0-1.2-0.7-1.2-1.4c0-0.5,0.2-1.1,0.4-1.6l1.6-4.1c0.1-0.3,0.3-0.9,0.3-1.2c0-0.2-0.1-0.5-0.4-0.5c-0.7,0-2.5,2.4-2.7,2.8
			c-1.5,2.6-2.6,4.1-3.3,5.8H176L179.6,155L179.6,155z"/>
	</g>
</g>
</svg>
