<svg xmlns="http://www.w3.org/2000/svg" xmlns:xlink="http://www.w3.org/1999/xlink" viewBox="0 0 467.48 238.75"><defs><linearGradient id="linear-gradient" x1="392.86" y1="24.79" x2="367.13" y2="127.98" gradientUnits="userSpaceOnUse"><stop offset="0" stop-color="#feffed"/><stop offset="0.07" stop-color="#fdfce4"/><stop offset="0.18" stop-color="#fbf2ca"/><stop offset="0.32" stop-color="#f7e3a1"/><stop offset="0.45" stop-color="#f3d477"/><stop offset="0.45" stop-color="#e5c062"/><stop offset="0.45" stop-color="#c18c2b"/><stop offset="0.45" stop-color="#a46300"/><stop offset="0.99" stop-color="#f5d67c"/></linearGradient><linearGradient id="linear-gradient-2" x1="73.92" y1="22.1" x2="100.48" y2="128.63" xlink:href="#linear-gradient"/><linearGradient id="linear-gradient-3" x1="162.08" y1="7.11" x2="177.26" y2="115.08" xlink:href="#linear-gradient"/><linearGradient id="linear-gradient-4" x1="239.48" y1="2.65" x2="241.43" y2="113.92" xlink:href="#linear-gradient"/><linearGradient id="linear-gradient-5" x1="314.24" y1="7.77" x2="302.84" y2="116.25" xlink:href="#linear-gradient"/><linearGradient id="linear-gradient-6" x1="446.93" y1="42.07" x2="411.81" y2="138.59" xlink:href="#linear-gradient"/><linearGradient id="linear-gradient-7" x1="15.82" y1="41.72" x2="47.25" y2="144.52" xlink:href="#linear-gradient"/><linearGradient id="linear-gradient-8" x1="234.52" y1="160.88" x2="234.52" y2="212.88" gradientUnits="userSpaceOnUse"><stop offset="0" stop-color="#ad7700"/><stop offset="0.02" stop-color="#b37e09"/><stop offset="0.06" stop-color="#c39323"/><stop offset="0.11" stop-color="#dcb34c"/><stop offset="0.15" stop-color="#f6d475"/><stop offset="0.26" stop-color="#f4d275"/><stop offset="0.35" stop-color="#d9af4d"/><stop offset="0.5" stop-color="#a66b00"/><stop offset="0.81" stop-color="#ffdb88"/><stop offset="0.99" stop-color="#b07800"/></linearGradient><linearGradient id="linear-gradient-9" x1="234.5" y1="152.14" x2="234.5" y2="221.14" gradientUnits="userSpaceOnUse"><stop offset="0.45" stop-color="#e0002e"/><stop offset="0.5" stop-color="#c10030"/><stop offset="0.55" stop-color="#a80032"/></linearGradient></defs><title>US_FL_jackpottripleplay</title><g id="Layer_2" data-name="Layer 2"><g id="Layer_1-2" data-name="Layer 1"><path d="M407,48.92c0-21.22-17-24.84-17-24.84l-23.91-5.81c-10.32-2.51-13.67,2.26-13.67,22.35l0,64.63c0,16.41,12.34,21.83,12.34,21.83s.05-.17,26.22,6.85c17.37,4.65,16-12.55,16-12.55Zm-21.29,67.67-12.92-3.86s-4-.83-4-6.15V39.87c0-5,4.37-3.62,4.37-3.62l9.94,2.45c5.28,1.3,4.9,7.06,4.9,7.06s.42,0,.42,65.21C388.45,117.88,385.74,116.59,385.74,116.59Z" style="fill:url(#linear-gradient)"/><path d="M361.73,17.66a18.73,18.73,0,0,1,4.4.61L390,24.08s17,3.62,17,24.84L407,121.38s1.09,13.35-10.52,13.35a21.34,21.34,0,0,1-5.44-.8c-25-6.69-26.16-6.85-26.22-6.85h0s-12.34-5.42-12.34-21.83l0-64.63c0-16.91,2.37-23,9.27-23m24.5,99c.78,0,2.22-.69,2.22-5.72,0-65.21-.42-65.21-.42-65.21s.38-5.76-4.9-7.06l-9.94-2.45a4.45,4.45,0,0,0-1.23-.17c-1.3,0-3.14.57-3.14,3.79v66.71c0,5.32,4,6.15,4,6.15l12.92,3.86a1.19,1.19,0,0,0,.49.1m-24.5-102c-11.32,0-12.27,12.83-12.27,26v64.63c0,18.16,13.56,24.33,14.14,24.58l3.25,1.43.14-.57c3,.77,9.54,2.46,23.25,6.14a24.13,24.13,0,0,0,6.22.9,12.53,12.53,0,0,0,9.64-3.89c4.17-4.53,3.95-11.44,3.88-12.56L410,48.93c0-12.13-5.19-19-9.56-22.69a25.16,25.16,0,0,0-9.75-5.08l-23.88-5.8a21.67,21.67,0,0,0-5.11-.7ZM371.9,39.08H372a2.44,2.44,0,0,1,.38,0l.11,0h0l9.94,2.45c2.81.69,2.64,3.83,2.63,4l-.21,3.2h.32c.12,5.08.3,19.79.3,62.2a13.76,13.76,0,0,1-.17,2.36l-11.6-3.47-.22-.07h0c-.47-.16-1.63-.81-1.63-3.22V39.87a3,3,0,0,1,.08-.79Z" style="fill:#fff"/><path d="M133.56,115.89l-22-97.77c-.71-3.16-2.9-4.32-4.34-4L90.05,18.08c-1.41.33-3.32.79-4,4.16C63.45,135.09,63.41,135.08,63.41,135.08l2.47-.4,13-3.49c1-.26,1.9-2.37,2.08-3.33l2.74-15a4.38,4.38,0,0,1,2.41-2.41l23.32-5.48c.69-.17,2.15,1,2.29,1.67L115,122.77c.1.49,1.29,1,1.78.93l14.8-2.82C132.88,120.63,134.25,119,133.56,115.89ZM88.33,95C87.46,89.69,98,38.2,98,38.2l10.41,52.63Z" style="fill:url(#linear-gradient-2)"/><path d="M107.76,14.08c1.41,0,3.21,1.22,3.85,4l22,97.77c.69,3.11-.68,4.74-2,5l-14.8,2.82h-.13c-.54,0-1.56-.48-1.65-.94l-3.29-16.18a3,3,0,0,0-2.15-1.69.32.32,0,0,0-.14,0L86.08,110.4a4.38,4.38,0,0,0-2.41,2.41l-2.74,15c-.18,1-1.13,3.07-2.08,3.33l-13,3.49-2.47.4s0,0,22.64-112.84c.68-3.37,2.59-3.83,4-4.16l17.22-3.95a2.63,2.63,0,0,1,.49-.05M88.33,95l20-4.18L98,38.2S87.46,89.69,88.33,95m19.43-83.93a5,5,0,0,0-1.16.13l-8.61,2-8.61,2c-1.56.36-5.21,1.19-6.27,6.49C61.75,128.3,60.55,134.11,60.48,134.43l2.93.63v0l.47,3,2.48-.4.15,0,.15,0,13-3.49c3.24-.87,4.24-5.63,4.25-5.68l1.37-7.53,1.32-7.19a2.38,2.38,0,0,1,.43-.41l11.43-2.69,10.51-2.47,1.46,7.17,1.64,8.09c.45,2.18,2.95,3.34,4.59,3.34a3.85,3.85,0,0,0,.69-.06l7.4-1.41,7.4-1.42a5.44,5.44,0,0,0,3.53-2.42,7.78,7.78,0,0,0,.83-6.17l-11-48.88-11-48.89c-1-4.41-4.11-6.38-6.77-6.38ZM91.47,91.29c.76-6.91,3.59-22.67,6.48-37.65l6.9,34.86L91.47,91.29Z" style="fill:#fff"/><path d="M160,91.19V28c0-3,1.71-4.88,4.46-5.15,11.09-1.08-1.58.16,9.51-.95,5.27-.53,5.27,3,5.27,3l.17,13.32c0,1,1.65,1.2,1.65,1.2l14.59-.77a2.08,2.08,0,0,0,2-2.11V21.45c0-19.71-19.89-16.08-19.89-16.08s0-.15-17.32,2c-18.62,2.29-18.62,19.84-18.62,19.84l.06,73.63c0,12.53,5.35,17.31,15.16,16.29,22.4-2.34.06.54,22.4-2.33,11.79-1.51,18.21-9.62,18.21-15.38,0-21.28,0-21.28,0-21.28s-10.06.71-13.56,1c-3.67.21-3.87,1.25-3.9,2.37l-.27,10.3c-.06,2.14.19,6.14-5.3,6.71-8.34.86,0,0-8.34.86C159.69,100,160,96.82,160,91.19Z" style="fill:url(#linear-gradient-3)"/><path d="M181.26,5.1C187,5.1,197.61,7,197.61,21.45V36.52a2.08,2.08,0,0,1-2,2.11l-14.59.77s-1.64-.16-1.65-1.2l-.17-13.32s0-3-4.24-3a9.44,9.44,0,0,0-1,.05l-5,.5.41,0-5,.48C161.7,23.11,160,25,160,28v63.2c0,5.16-.25,8.29,4.7,8.29.46,0,1,0,1.51-.08,8.34-.82,0,0,8.34-.86,5.49-.57,5.24-4.57,5.3-6.71l.27-10.3c0-1.12.23-2.16,3.9-2.37,3.5-.33,13.56-1,13.56-1h0s0,0,0,21.28c0,5.76-6.42,13.87-18.21,15.38-9.15,1.17-10.8,1.38-11.11,1.38s.08-.06-.31-.06c-.63,0-2.88.16-11,1a23.48,23.48,0,0,1-2.46.13c-8.24,0-12.69-5-12.7-16.42l-.06-73.63s0-17.55,18.62-19.84c15.19-1.87,17.06-2,17.29-2h0a21.2,21.2,0,0,1,3.54-.27m0-3v0a26.77,26.77,0,0,0-3.83.27c-1.48.09-7.33.76-17.4,2-10.94,1.35-16.16,7.5-18.61,12.42a25.64,25.64,0,0,0-2.64,10.4l.06,73.64c0,8.85,2.74,19.41,15.7,19.41a26.86,26.86,0,0,0,2.77-.15c7.1-.74,9.55-.94,10.38-1a3.83,3.83,0,0,0,.6,0c.49,0,.52,0,11.49-1.4a26.53,26.53,0,0,0,15.21-6.9c3.57-3.4,5.62-7.58,5.62-11.46,0-10.64,0-16,0-18.63,0-1.34,0-2,0-2.34a3.05,3.05,0,0,0-2.91-3.3h-.31c-.41,0-10,.71-13.57,1-1.85.11-6.55.42-6.68,5.28L177,86.6l-.14,5.15v.39c0,2.4-.17,3.16-2.6,3.41l-3.67.39A4.85,4.85,0,0,0,170,96v0l-4.09.4a10.79,10.79,0,0,1-1.21.07,2.91,2.91,0,0,1-1.38-.2c-.33-.45-.32-2.71-.32-4.36V28c0-1.75.84-2.07,1.75-2.16l3.48-.34,1.18-.12.3,0,4.56-.46a6.29,6.29,0,0,1,.73,0,2.31,2.31,0,0,1,1.25.23l.16,13.17c0,2.19,1.82,3.89,4.35,4.15l.23,0h.23l14.59-.78a5,5,0,0,0,4.81-5.1V21.45c0-12.11-7.24-19.35-19.35-19.35Z" style="fill:#fff"/><path d="M210.3,110.23,209.7,6.72c0-4.18,3-3.56,3-3.56h14.5c2.28,0,2,3,2,3v42.1L249.91,6.75c2.36-4.72,6-3.64,6-3.64l14.64.71-.89,4.55L246.13,53.86,272.27,111c.91,2-2,2.49-2.93,2.46L256.43,113c-1.59-.06-3.73-1.49-4.88-4.1l-17-38.59-5.42,8.77s0,0,0,29.15c0,3.1-3.33,3.82-3.33,3.82l-13.47.06A1.92,1.92,0,0,1,210.3,110.23Z" style="fill:url(#linear-gradient-4)"/><path d="M255,3a3.32,3.32,0,0,1,.91.11l14.64.71-.89,4.55L246.13,53.86,272.27,111c.88,1.92-1.82,2.46-2.85,2.46h-.08L256.43,113c-1.59-.06-3.73-1.49-4.88-4.1l-17-38.59-5.42,8.77s0,0,0,29.15c0,3.1-3.33,3.82-3.33,3.82l-13.47.06h0a1.92,1.92,0,0,1-2-1.89L209.7,6.72c0-3.23,1.76-3.59,2.57-3.59a2.39,2.39,0,0,1,.4,0h14.5c2.28,0,2,3,2,3v42.1L249.91,6.75C251.53,3.51,253.74,3,255,3m0-3c-1.51,0-5.3.53-7.74,5.41L232.17,35.55V6.27a6.54,6.54,0,0,0-1.42-4.58A4.79,4.79,0,0,0,227.17.16h-14.3a5.21,5.21,0,0,0-.6,0,5.33,5.33,0,0,0-3.8,1.54,6.86,6.86,0,0,0-1.77,5.07l.6,103.5a4.89,4.89,0,0,0,5,4.88l13.5-.06h.31l.31-.06c2-.43,5.69-2.39,5.7-6.76,0-15,0-22.15,0-25.48,0-1.21,0-2.12,0-2.82l2-3.19,14.67,33.37c1.5,3.42,4.52,5.79,7.52,5.89l6.45.21,6.46.21h.18c.39,0,3.81-.07,5.36-2.49a4.33,4.33,0,0,0,.22-4.22L249.47,53.94l22.82-44.2.19-.38.08-.42.9-4.54.66-3.4L270.66.83,256.28.12A7.26,7.26,0,0,0,255,0Z" style="fill:#fff"/><path d="M321.11,9.15c-34.09-5-37.75-4.08-37.75-4.08l0,2.3c-.7,99.18,0,102.86,0,102.86s-.39,4,2.35,4.22l14.41,1.33s2.46,0,2.4-2l-1-36.19,21.88,2.91c8.67,1.16,16-2,16-18.09v-30C339.16,25,337.83,11.6,321.11,9.15Zm-.17,48.32c0,5.63-4.52,4.75-4.52,4.75L301.5,61V21.11s0,.08,14.23,2.22c4.44.67,5.21,5.43,5.21,5.43Z" style="fill:url(#linear-gradient-5)"/><path d="M284.67,5c2.86,0,11.52.49,36.44,4.14C337.83,11.6,339.16,25,339.42,32.38v30c0,14.15-5.71,18.31-13,18.31a22.64,22.64,0,0,1-3-.22L301.5,77.54l1,36.19c.06,2-2.4,2-2.4,2l-14.41-1.33c-2.74-.26-2.35-4.22-2.35-4.22s-.7-3.68,0-102.86l0-2.3A7.66,7.66,0,0,1,284.67,5m32.4,57.26c1.25,0,3.87-.51,3.87-4.8V28.76s-.77-4.76-5.21-5.43c-14.25-2.14-14.23-2.22-14.23-2.22V61l14.92,1.18a3.65,3.65,0,0,0,.65.05M284.67,2a8.7,8.7,0,0,0-2,.15l-2.26.57V5.05l0,2.3c-.49,69.22-.33,98.21,0,102.86a8.11,8.11,0,0,0,1.49,5.35,5.24,5.24,0,0,0,3.6,1.88l14.41,1.33h.27a6,6,0,0,0,4.07-1.63,4.74,4.74,0,0,0,1.33-3.5L304.59,81,323,83.43a26.07,26.07,0,0,0,3.43.24c4.94,0,8.82-1.66,11.55-4.93,3-3.61,4.46-9,4.46-16.38V32.27c-.2-5.72-.83-23.15-20.87-26.09C296.76,2.55,287.8,2,284.67,2ZM304.5,58.27V24.65c2.47.39,6.09.94,10.79,1.65a3.47,3.47,0,0,1,2.65,2.77v28.4c0,1.8-.48,1.8-.87,1.8H317l-.2,0-.09,0-12.16-1Z" style="fill:#fff"/><path d="M443,149.81l-11.3-4a4.22,4.22,0,0,1-2.66-4.33l.83-84.63c.06-6.09-.69-5.61-6.65-7.81-9.51-3.51,0,.11-9.51-3.51a2.86,2.86,0,0,1-1.86-3s0,0,0-9.33c0-4.54,3.44-2.47,3.44-2.47l44.58,16c3.23,1.16,4.63,1.37,4.63,4.91v9.2c0,4-4.87,1.41-4.87,1.41l-10.5-4.19c-2.75-1.26-2.34,4.23-2.34,4.23l0,86.47S446.63,151.09,443,149.81Z" style="fill:url(#linear-gradient-6)"/><path d="M413.66,30.31a3.58,3.58,0,0,1,1.61.47l44.58,16c3.23,1.16,4.63,1.37,4.63,4.91v9.2c0,1.74-.93,2.23-2,2.23a7.47,7.47,0,0,1-2.9-.82l-10.5-4.19a1.81,1.81,0,0,0-.76-.18c-1.91,0-1.58,4.41-1.58,4.41l0,86.47s-.07,1.38-1.82,1.38a6,6,0,0,1-1.94-.39l-11.3-4a4.22,4.22,0,0,1-2.66-4.33l.83-84.63c.06-6.09-.69-5.61-6.65-7.81-4.31-1.59-4.72-1.72-4.76-1.72a0,0,0,0,0,0,0s-.38-.14-4.74-1.8a2.86,2.86,0,0,1-1.86-3s0,0,0-9.33c0-2.38.93-2.94,1.83-2.94m0-3a4.55,4.55,0,0,0-3.25,1.32,6.24,6.24,0,0,0-1.58,4.63c0,7.2,0,8.79,0,9.13a5.83,5.83,0,0,0,3.79,6c3.69,1.41,4.77,1.82,5.3,1.95l-.28-.07c.14,0,.86.29,4.52,1.64.66.25,1.26.46,1.8.65a15.6,15.6,0,0,1,2.68,1.09,11,11,0,0,1,.21,3.23L426,141.36a7.15,7.15,0,0,0,4.66,7.29l5.65,2,5.66,2a8.72,8.72,0,0,0,2.93.56,4.6,4.6,0,0,0,4.82-4.23v-.15l0-86.47v-.23c0-.16,0-.34,0-.51L458.37,65a10,10,0,0,0,4.14,1.09c3,0,5-2.1,5-5.23V51.7c0-5.41-3-6.47-6-7.5l-.65-.24L416.5,28a6.46,6.46,0,0,0-2.84-.72Z" style="fill:#fff"/><path d="M3,140.14v-14c0-1-.3-3,4.31-4.76,5.69-2.25,6.46-2.57,6.46-2.57l3.65-1.5c.73-.3,2.58-1.07,2.58,1.83v9c0,2.4.77,3.94,2.07,4a1.89,1.89,0,0,0,1.93,1l10.15-3.58c2.57-.91,4.78-3.19,4.78-9.81V38.14c0-2.39.68-3.22,4.21-4.38C54,30.21,54,30.14,54,30.14s3-2,3,3v82c0,9.09-.59,24-19,31-18.93,7.18.21.6-19,7C13,155.14,3,156.14,3,140.14Z" style="fill:url(#linear-gradient-7)"/><path d="M55.25,29.75c.83,0,1.75.62,1.75,3.39v82c0,9.09-.59,24-19,31-18.93,7.18.21.6-19,7a19.33,19.33,0,0,1-6,1.1c-5,0-10-2.84-10-14.1v-14c0-1-.3-3,4.31-4.76,5.69-2.25,6.46-2.57,6.46-2.57l3.65-1.5a3.51,3.51,0,0,1,1.24-.32c.69,0,1.34.43,1.34,2.15v9c0,2.4.77,3.94,2.07,4a2,2,0,0,0,1.68,1,.62.62,0,0,0,.25,0l10.15-3.58c2.57-.91,4.78-3.19,4.78-9.81V38.14c0-2.39.68-3.22,4.21-4.38C54,30.21,54,30.14,54,30.14a2.63,2.63,0,0,1,1.25-.39m0-3h0a5.5,5.5,0,0,0-2.55.68c-.53.19-2.59.9-10.49,3.48-5.25,1.72-6.28,3.95-6.28,7.23v81.61c0,6-2,6.69-2.78,7l-6.64,2.34-2.13.76-.19-.49-1.09-.08a5.79,5.79,0,0,1-.1-1.12v-9c0-3.8-2.34-5.15-4.34-5.15a6.36,6.36,0,0,0-2.38.54L12.63,116l-6.42,2.54C.57,120.8,0,123.89,0,126v14.12c0,14.88,8.13,17.1,13,17.1A22.26,22.26,0,0,0,20,156l8.11-2.69a9.49,9.49,0,0,0,2.39-1c.66-.3,2.65-1.12,8.62-3.38C60,141,60,122.88,60,115.14v-82c0-1.06-.23-6.39-4.75-6.39Z" style="fill:#fff"/><path d="M98.28,160.88a46,46,0,0,1,5.6-1.59,14.5,14.5,0,0,1,1.81-.26c.18-.06.35-.14.54-.19l.26-.06.41-.16c.65-.22,1.29-.47,1.92-.74.12-.14.25-.28.37-.45l0-.06.44-.66c.08-.12.17-.21.25-.31l-.21.07c.94-5.24,1.78-10.12,2.77-15,.1-.53,1-1.11,1.66-1.29,2.63-.71,5.31-1.22,7.93-1.94a2.72,2.72,0,0,1,3.21,1.06c3,3.59,6.09,7.07,9.1,10.64a3.64,3.64,0,0,0,3.9,1.37c3.57-.74,7.17-1.37,10.77-2,3.77-.67,4.61-1.87,3.86-5.59q-1.65-8.19-3.29-16.38a2.61,2.61,0,0,1,1.47,1.15c2,3.09,4.11,6.08,5.8,9.3,3.41,6.5,9,8.47,15.79,8,5.5-.4,11-1.07,16.47-1.73,11.23-1.36,17.09-8.29,17.47-19.6.34-10-1.1-19.83-3.13-29.59-.93-4.46-1.69-9-2.55-13.62l2.7-.5a3.1,3.1,0,0,0,2.87-3.16c0-5.67.21-11.38-.38-17-1-9.43-2.52-18.79-3.85-28.18-.53-3.72-1.11-7.44-1.67-11.16-.39,5.18-.35,10.31-.4,15.44,0,2.91-1.5,4.57-4.33,4.81q-7.08.61-14.19,1c-3.55.19-5-1.26-5-4.82s0-7,0-10.5c0-2.46-.65-3-3.11-2.89-1.94.11-3.87.34-5.81.53-4.53.46-5.29,1.3-5.29,5.86q0,30.47,0,60.91c0,.47,0,.94,0,1.4,0,1.91.88,2.91,2.89,2.68,2.55-.28,5.12-.46,7.66-.8,2.93-.41,3.64-1.29,3.66-4.33,0-3.58,0-7.16,0-10.73.06-2.79,1.52-4.5,4.18-4.74,4.87-.44,9.76-.8,14.65-1,3-.15,4.67,1.5,4.7,4.52,0,5.6.11,11.21-.05,16.8-.32,11.82-7.4,19.92-19.06,21.82-3.6.59-7.25.94-10.89,1.25a147.82,147.82,0,0,1-15.56,1c-8.06-.16-13.65-4.91-15.37-12.77a53.26,53.26,0,0,1-.84-10c-.23-8.68.72-17.41-2-25.92-1.63-5.17-2.42-10.66-4.56-15.59-4.3-9.9-9.27-19.52-14-29.25-1.54-3.19-3.13-6.37-4.69-9.55a43,43,0,0,0,1.26,8Q125,70.7,135.44,117c.82,3.65-.54,5.61-4.24,6.29-4.52.83-9,1.64-13.54,2.48-4,.77-5.57-.27-6.38-4.31-.9-4.55-1.85-9.09-2.75-13.51-.44-.11-.6-.21-.73-.18-6.82,1.54-13.65,3-20.44,4.71-.67.17-1.4,1.34-1.56,2.15-1,4.87-1.93,9.76-2.7,14.68-.51,3.2-2.23,4.89-5.33,5.64-4.3,1-8.55,2.3-12.81,3.5-4.74,1.34-6.64-.45-5.65-5.34Q67.26,93.9,75.13,54.7a4.88,4.88,0,0,0-.78-3.39c-4.81-6.79-9.75-13.48-14.67-20.2-.33-.45-.77-.84-1.55-1.67v4.7q0,42.36,0,84.72c0,13.37-6.24,22.82-18.59,28-4.08,1.72-8.32,3.05-12.49,4.55-6.17,2.22-12.19,5.15-19.16,4.09a6.71,6.71,0,0,0,1.89,1.37c11.81,5.95,23.58,12,35.47,17.73a9.62,9.62,0,0,0,6.3.85c7.87-2.34,15.68-4.94,23.36-7.87,4.92-1.88,8.41-5.73,11.11-10.46,1.11.77,2.11,1.36,3,2.08C91.8,161.52,94.79,162.28,98.28,160.88Z"/><path d="M433.25,148.91c-5-1.76-5.76-2.75-5.76-8.14q0-42.48,0-85c0-2.05-.61-3-2.6-3.6-4.95-1.5-9.81-3.26-14.8-4.94v2.24q0,34.18,0,68.38c0,1.32,0,2.65-.05,4-.75,12.18-7.22,17.74-19.23,15.8a211.71,211.71,0,0,1-21.54-5.09c-14-3.79-20.77-12.66-20.82-27.17-.09-24.2,0-48.39,0-72.59,0-.55-.06-1.11-.09-1.67A50.61,50.61,0,0,0,344,39.74a21.59,21.59,0,0,0-1.47,6.68c-.19,6.61,0,13.23-.12,19.84-.21,9.2-5,15.69-12.93,17-3.67.63-7.57.28-11.34,0-4.29-.32-8.55-1.06-13.12-1.66v3.12c0,9.57,0,19.14,0,28.71,0,4-1.57,5.47-5.4,5.16q-6.51-.52-13-1.25c-4.77-.54-5.77-1.74-5.78-6.62v-98c-1.85,8.36-3.11,16.8-4.77,25.15A117.22,117.22,0,0,0,274,62.74c.24,14.7.22,29.4.35,44.1a7.41,7.41,0,0,0,.57,2.69c1.64,4.19-.07,6.81-4.54,6.66-4.82-.17-9.63-.53-14.45-.7-3.1-.1-5-1.56-6.17-4.41C244.94,99.69,240,88.35,235.14,77c-.31-.73-.69-1.43-1.17-2.42-1.68,2.68-2.93,5-2.71,7.92.23,3.17.05,6.37.05,9.56,0,5.76,0,11.52,0,17.27,0,3.56-1.49,5.57-4.55,5.67-6,.18-12,0-18.32,0,1.52,8.17,3,16.41,4.61,24.62.35,1.82,1.77,2.66,3.64,2.63,3.65-.08,7.31-.09,11-.25s4.63-1.31,4.64-4.94c0-7.47-.14-14.94.09-22.4.07-2.15,1.22-4.26,1.87-6.38l.79.15c.34.69.7,1.36,1,2.07,4,9.35,8.07,18.7,12,28.08,1,2.44,2.56,3.7,5.27,3.74,3.89,0,7.78.3,11.66.53,2.26.14,3.66-.61,4.21-3,.86-3.69,1.94-7.32,2.93-11h.62c.42,3.66.88,7.33,1.24,11,.23,2.37,1.4,3.69,3.8,3.92,3.4.32,6.81.66,10.21,1,3.74.42,4.39.11,5.95-3.32,3.27-7.21,6.64-14.4,9.72-21.7,1.23-2.92,2.66-4.15,6.1-3.87,6.17.5,11-2,13.76-8,1.14-2.46,2.55-4.81,3.84-7.2l2.79-5.2a3.86,3.86,0,0,1,.64,2.33c0,11.9,0,23.8,0,35.71,0,7.19,2.49,13.23,8.61,17.43a6,6,0,0,0,1.26.51l-.08.13.08,0c5.44,3.21,12.25,4.05,18.34,5.46a65.85,65.85,0,0,1,7.17,1.94c.41,0,.82.08,1.23.1,3.18.2,6.23-.23,8.81-2.32,5.19-4.21,10.36-8.46,15.55-12.68,1.22-1,2.5-1.91,4.09-3.11.05,1.27.12,2,.12,2.78q0,10.16,0,20.31c0,3.56.68,4.49,4,5.66s6.46,2.25,9.64,3.51a4.72,4.72,0,0,0,4.61-.37c6.71-4.07,13.48-8.05,20.21-12.1,3.85-2.32,7.67-4.7,12-7.35C441.66,151.94,437.47,150.39,433.25,148.91Z"/><path d="M386.26,77.88q0,16.2,0,32.41c0,3.09-.36,3.36-3.44,2.62-2.57-.62-5.13-1.25-7.68-1.91-2.77-.71-3.73-1.87-4-4.72-.06-.77,0-1.55,0-2.33V42.18c0-.62,0-1.25,0-1.87,0-1.66.76-2.48,2.5-2.05,3.16.77,6.35,1.46,9.48,2.36,2.35.67,3.13,2.51,3.13,4.86C386.24,56.28,386.26,67.08,386.26,77.88Z"/><path d="M257.38,70.32c-2.51-5.57-4.93-10.86-7.27-16.19a2.85,2.85,0,0,1,0-2.13q11.36-22.59,22.81-45.11c.09-.17.32-.27.88-.72-.22,1.81-.36,3.22-.56,4.62q-2.76,19.37-5.56,38.73a8.68,8.68,0,0,1-.74,2.67q-4.27,8.54-8.66,17A7.09,7.09,0,0,1,257.38,70.32Z"/><path d="M304.7,25.42c3.9.55,7.37.95,10.8,1.54a3.08,3.08,0,0,1,2.67,3.33q0,13.65,0,27.3c0,1.43-.64,2.27-2.11,2.12-3.4-.33-6.8-.71-10.18-1.2a1.87,1.87,0,0,1-1.14-1.38C304.69,46.73,304.7,36.32,304.7,25.42Z"/><path d="M109.4,13.64c-6.5,1.5-12.91,3.05-19.35,4.44a4.64,4.64,0,0,0-4,4.16c-2.93,15-6,29.87-9,44.8Q70.36,100.51,63.68,134a3,3,0,0,1-.27,1.12,8.55,8.55,0,0,1-1.2,1.12c-.23-.49-.72-1-.65-1.47.44-2.68,1-5.35,1.53-8Q73.52,75.2,84,23.68c1.59-7.76,0-6.61,8.33-8.62,4.68-1.13,9.4-2.13,14.1-3.19C107.93,11.53,109.21,11.59,109.4,13.64Z"/><path d="M99,52.33l7.13,35.49L91.42,91.19c2.4-13.22,4.73-26,7-38.85Z"/><path d="M354,21.45a11.39,11.39,0,0,1,12.28-5.18,239.82,239.82,0,0,1,25.52,6.26c3.4,1,6.57,3.57,9.22,6.08,4.76,4.5,6.57,10.54,6.59,16.94q.15,37.92,0,75.85c0,2.93-1,5.84-1.8,8.7,1.44-13.87.3-27.71.16-41.55-.14-13.21.41-26.42.41-39.63a32.94,32.94,0,0,0-1.54-9.84c-2.44-7.65-7.91-12.66-15.45-15-7-2.15-14.09-3.86-21.23-5.39C363.14,17.63,358.21,18,354,21.45Z"/><path d="M22.71,132.08l7.57-2.74c5.45-2,6.84-3.93,6.84-9.92q0-40.71,0-81.41c0-4.88,0-4.9,4.72-6.47C45.6,30.3,49.37,29.06,53.17,28c.68-.19,1.57.36,2.37.56-.54.58-1,1.45-1.62,1.68Q48,32.3,42,34.13a3.86,3.86,0,0,0-3.1,4.24c.09,14.93.08,29.86.08,44.79q0,19.34,0,38.67c0,4.38-1.55,6.55-5.66,8.09-2.48.93-5,1.85-7.47,2.64a14.57,14.57,0,0,1-3,.25Z"/><path d="M142,108.91a51.81,51.81,0,0,1-1-7.26c-.07-25.11-.18-50.23,0-75.35.1-12.4,7.8-20.12,20.7-21.54,5.64-.62,11.27-1.38,16.92-1.75,6.78-.43,12.88,1.06,16.74,7.4a2.52,2.52,0,0,1,.36,1.15c-5.38-6.77-12.69-6.77-20.2-6-5,.52-10.05,1-15,1.78C149.05,9,142,16.83,141.73,28.29c-.21,10.65-.06,21.31,0,32,0,12.73,0,25.47.11,38.2,0,3.47.3,6.93.46,10.39Z"/><path d="M411.82,31.81c0-4.32,1.39-4.26,2.77-3.8,6.93,2.3,13.92,4.45,20.78,6.94,9.28,3.35,18.45,7,27.71,10.42a4.54,4.54,0,0,1,3.33,4.93c-.09,3.65,0,7.31,0,11a3.94,3.94,0,0,1-.07,1.38,10.19,10.19,0,0,1-1,1.63c-.29-.54-.8-1.08-.81-1.62-.08-3-.05-6.07,0-9.11,0-4.92.07-5-4.63-6.76-15.34-5.57-30-10.8-45.4-16.31C413.8,30.25,413,31.09,411.82,31.81Z"/><path d="M448.1,59.35c1,5.11.43,90.56-1,92a19.28,19.28,0,0,1-.38-2.57q-.11-26.22-.16-52.45,0-17,.19-34a14.25,14.25,0,0,1,.71-3.16Z"/><path d="M338.45,72.23c1.83-12.28,1-24.63,1-36.95A41.14,41.14,0,0,0,337.61,22c-2.86-8.31-9.81-12-18.07-13.11-10.85-1.47-21.76-2.58-32.65-3.81a31.89,31.89,0,0,0-3.53,0c-.18-2.18,1.11-2.45,2.65-2.29,7,.69,14.09,1.36,21.12,2.17C312.06,5.52,317,6.12,321.9,7,333,9.09,339.77,16.8,340,28.1c.23,12.76.09,25.52,0,38.27a40.12,40.12,0,0,1-.89,5.92Z"/><path d="M368.82,39.87v64.95c0,5.75,1.31,7.44,6.84,8.82a78.4,78.4,0,0,1,10.08,3,13.59,13.59,0,0,1-3.72.3c-3.42-.67-6.8-1.61-10.2-2.43-2.94-.72-4-3-4.07-5.6-.32-12.28-.57-24.57-.6-36.85,0-9.39.31-18.78.52-28.17,0-1.35.27-2.68.42-4Z"/><path d="M450.93,80.19V61.55L464,66.73Z"/><path d="M209.52,110.15q0-36.39,0-72.77,0-16.44,0-32.89c0-2.72.69-3.51,3.37-3.6q6.28-.22,12.58-.36c2.38,0,2.87.39,3.26,2.62-5.34,0-10.67,0-16,0-2.32,0-3,1.45-3,3.56,0,10,0,19.91,0,29.86.14,15.46.41,30.92.55,46.39.08,9.08,0,18.17,0,27.26Z"/><path d="M6.27,151.69c-3.48-1.93-4.71-5.23-4.9-8.77-.32-6.2-.34-12.43-.2-18.65a4.35,4.35,0,0,1,2.2-3.13c4.17-1.9,8.47-3.51,12.76-5.12a7.17,7.17,0,0,1,2.41,0l.13.72c-.65.31-1.28.65-2,.92-3.46,1.39-6.91,2.82-10.4,4.13a4.59,4.59,0,0,0-3,4.37c.12,4.82,0,9.64,0,14.47A20.44,20.44,0,0,0,6.27,151.69Z"/><path d="M33.88,124.93c-1.71.83-2.89,1.5-4.14,2-2.09.83-4.23,1.51-6.33,2.3-1.31.5-2.12.35-2.12-1.27,0-3.79,0-7.58,0-12Z"/><path d="M229.17,47.11a16.79,16.79,0,0,1,.74-2.24q10.31-20.64,20.63-41.28a4.27,4.27,0,0,1,4.6-2.72c4.49.3,9,.4,13.51.62,1.55.08,3,.33,2.77,2.37-5.23-.24-10.4-.35-15.55-.75-3-.24-4.66,1-6,3.64C243.42,20,236.77,33.2,230.17,46.4c-.16.31-.83,1.57-1,1.87C229,48.21,229.32,47.18,229.17,47.11Z"/><path d="M197.57,78.31c-4.62.28-9.1.46-13.56.85-3.61.32-3.85.74-3.91,4.33-.07,3.26-.07,6.53-.38,9.77s-1.84,4.79-5.18,5.28c-2.77.4-5.56.73-8.34.86a7.34,7.34,0,0,1-3.81-1.09c3.72-.34,7.44-.58,11.13-1.07,3.92-.52,5.52-2.44,5.58-6.43q.09-5.13,0-10.25c0-2,.69-3,2.8-3.15,4.42-.24,8.83-.63,13.24-.93C196.57,76.39,197.84,76.57,197.57,78.31Z"/><path d="M88.3,93.59C87.21,91.33,95.69,44.47,98,40.32Z"/><path d="M246.76,52.63l26.05,58.09-.54.25L246.13,53.86C246.45,53.69,246.45,52.8,246.76,52.63Z"/><path d="M302,60.69l17.67,1.79c-.94.5-2.05,1.61-3.09,1.55-4.4-.25-8.8-.79-13.18-1.39-.7-.09-1.28-1-1.91-1.6Z"/><path d="M302.5,80.75v33l-.87-33Z"/><path d="M111.48,105.53q1.76,8.63,3.5,17.24l-.82.19-3.54-17.19Z"/><path d="M88.29,94.61c6.34-1.46,13.57-3.08,19.9-4.53l.18.75c-6.35,1.4-13.61,3.06-20,4.46C88.36,95.09,88.34,94.81,88.29,94.61Z"/><path d="M409.28,31.09v6.8C406.82,33.81,406.79,32.77,409.28,31.09Z"/><path d="M179.4,28.81V38.2h-.17V28.61Z"/><path d="M341.52,212.88h-214c-19,0-34.5-7.52-34.5-26.5h0c0-19,15.52-25.5,34.5-25.5h214c19,0,34.5,6.53,34.5,25.5h0C376,205.36,360.49,212.88,341.52,212.88Z" style="fill:url(#linear-gradient-8)"/><path d="M341.5,161.14a25.5,25.5,0,0,1,0,51h-214a25.5,25.5,0,0,1,0-51h214m0-9h-214A34.61,34.61,0,0,0,93,186.64h0a34.6,34.6,0,0,0,34.5,34.5h214a34.59,34.59,0,0,0,34.5-34.5h0a34.6,34.6,0,0,0-34.5-34.5Z" style="fill:url(#linear-gradient-9)"/><path d="M152.74,174.55a41.66,41.66,0,0,1,5.07,1c5.87,1.93,5.82,9.47,2.38,12.36-1.08.91-1.06,1-.2,2.19,1,1.47,2.07,2.91,3.09,4.37a8.33,8.33,0,0,1,.86,1.38,1.65,1.65,0,0,1-1.06,2.41,4.69,4.69,0,0,1-5.61-1.62c-1.25-1.68-2.39-3.44-3.57-5.17-.17-.26-.26-.66-.49-.77a2.58,2.58,0,0,0-1.46-.38c-.27.06-.6.68-.63,1.07-.09,1.32-.05,2.64-.09,4a3,3,0,0,1-6,1.17,6.63,6.63,0,0,1-.12-1.85c-.11-2.17-.23-4.33-.33-6.5,0-.47-.05-.93,0-1.4q.18-4.06.37-8.13c.11-2.17.86-3.11,3-3.51C149.38,174.9,150.85,174.78,152.74,174.55Zm-1.67,8c0,.15,0,.31,0,.46.07,2.13.47,2.43,2.54,1.91a5.3,5.3,0,0,0,.88-.28,2.2,2.2,0,0,0,1.29-2.25,2.07,2.07,0,0,0-1.57-2C152,179.6,151.06,180.22,151.07,182.59Z"/><path d="M324.79,198.66a3.34,3.34,0,0,1-3.58-2.42c-.59-2.2-1.95-2.72-4-2.52a29,29,0,0,1-3.73,0,1.7,1.7,0,0,0-1.92,1.3,9.22,9.22,0,0,1-.54,1.29,3.8,3.8,0,0,1-4.36,2.28c-1.71-.28-2.32-1.15-1.81-2.78a39.51,39.51,0,0,1,1.47-3.93c1.94-4.57,3.93-9.12,5.86-13.7.8-1.9,1.84-3.45,4.18-3.42s3.34,1.52,4.12,3.47c2.18,5.49,4.46,10.93,6.69,16.39.06.14.12.28.17.43C328.16,197.39,327.22,198.71,324.79,198.66Zm-8.48-10c1.9.18,2.05.2,1.33-1.79-.11-.29-.2-.58-.33-.86-.37-.84-.75-1.67-1.12-2.5-.38.79-.75,1.58-1.12,2.37-.1.21-.19.43-.27.64C314,188.6,314,188.6,316.31,188.66Z"/><path d="M184.75,187.08c0-2.64,0-5.29,0-7.93s.8-3.58,3.47-4.1a17.55,17.55,0,0,1,9.63.67c5.42,2,5.84,8.1,3.34,11.82a6.52,6.52,0,0,1-3.84,2.49,41.29,41.29,0,0,1-4.57.84c-1.41.2-1.52.23-1.59,1.71,0,1,0,2,0,3-.11,2.08-.92,3.07-2.76,3-2.52-.1-3.43-.32-3.57-2.92-.16-2.86,0-5.74,0-8.61Zm8.07-6.91c-1.21,0-1.56.25-1.61,1.42a20.17,20.17,0,0,0,0,3,1.48,1.48,0,0,0,.68,1.06c1.52.64,3.84-.87,3.95-2.51S194.75,180.18,192.82,180.17Z"/><path d="M269.36,174.58c1.68.27,3.4.41,5,.84a6.88,6.88,0,0,1,5.51,7.13c.06,3.81-1.76,6.48-5.31,7.54a29.87,29.87,0,0,1-4.34.78c-1.45.21-1.51.21-1.59,1.72,0,.85,0,1.71,0,2.56,0,3-1.3,3.42-3.3,3.48-2.22.06-3.09-.92-3.14-3.39-.06-3.34-.07-6.68-.07-10,0-2.17,0-4.35.07-6.52a3.27,3.27,0,0,1,3-3.54,21.42,21.42,0,0,1,2.53-.37,14.78,14.78,0,0,1,1.63,0Zm.62,5.6c-.78,0-1.3.32-1.31,1.21,0,1.08,0,2.18.07,3.26a1.47,1.47,0,0,0,.72,1A3.53,3.53,0,0,0,273,184.1C274,182.08,272.51,180.09,270,180.18Z"/><path d="M229.49,186.7c0-2.8,0-5.6,0-8.4,0-2.51.7-3.14,3.24-3.17,2.79,0,5.59,0,8.39,0,2.41,0,3.5,1.62,2.68,3.91a2,2,0,0,1-1.05,1.11,9.17,9.17,0,0,1-2.5.43c-1.16.07-2.33,0-3.5,0-.91,0-1.17.59-1.16,1.4s.19,1.42,1.13,1.44c1.17,0,2.34,0,3.5.07a2.77,2.77,0,0,1,.37,5.49c-1,.12-2,.05-3,.09-1.7.07-2,.4-2,2.11,0,1.44.19,1.59,1.87,1.66a45.77,45.77,0,0,1,5.11.23c1.93.29,2.7,2.14,1.83,3.9a2,2,0,0,1-1.79,1.31c-3.65,0-7.3.08-10.95,0-1.3,0-1.93-.78-2.13-2.07a8,8,0,0,1-.07-1.39V186.7Z"/><path d="M332.71,174.77a4.88,4.88,0,0,1,4.18,2.3c1,1.69,1.95,3.36,2.94,5,.79,1.33.88,1.34,1.75-.07,1-1.66,2-3.36,3-5a4.76,4.76,0,0,1,5.69-2,1.67,1.67,0,0,1,1.26,2.48,6.65,6.65,0,0,1-.68,1.22c-2,3.22-4,6.45-6.15,9.62a4.87,4.87,0,0,0-.93,2.8c0,1.56,0,3.12-.08,4.67-.12,2-1.28,2.84-3.53,2.79-1.93,0-2.78-.87-2.9-2.86a3.29,3.29,0,0,1,0-.7c.55-3.63-.86-6.63-2.87-9.53-1.5-2.16-2.78-4.49-4.12-6.77C328.81,176.28,329.66,174.81,332.71,174.77Z"/><path d="M129.28,175.13c2.33,0,4.66,0,7,0,2,0,2.64.67,2.71,2.65.08,2.17-.5,3-2.47,3.19-.84.1-1.7,0-2.56.08-1.29.09-1.47.23-1.51,1.53-.05,1.63,0,3.26,0,4.89,0,2.72,0,5.43-.06,8.15,0,1.14-.17,2.25-1.43,2.65-1.43.45-2.92.69-4.22-.36a3,3,0,0,1-.82-2.56c0-3.65-.06-7.3,0-10.94s.22-3.41-3.18-3.38a5.47,5.47,0,0,1-.7,0c-2.09-.23-2.78-1.06-2.7-3.26.08-1.89.72-2.56,2.79-2.61C124.47,175.08,126.88,175.12,129.28,175.13Z"/><path d="M208.52,186.55c0-2.79-.05-5.59,0-8.38s1.71-3.9,4.32-3.24c1.53.39,2,.93,2.13,2.6a16.17,16.17,0,0,1,.05,2.09c-.2,3.71.6,7.4.1,11.13-.23,1.66,0,1.73,1.83,1.72a36.41,36.41,0,0,1,4.18.08,3,3,0,0,1,2.38,4.48,2.14,2.14,0,0,1-2,1.33q-5.34,0-10.7,0a2.07,2.07,0,0,1-2.1-1.82,8.71,8.71,0,0,1-.19-1.84c0-2.71,0-5.43,0-8.14Z"/><path d="M292.52,184.41c0,2.1,0,4.2,0,6.3,0,1.57.17,1.68,1.79,1.73,1.39.05,2.81-.05,4.19.1,2.21.24,3.21,1.89,2.56,4a2.21,2.21,0,0,1-2.15,1.82c-3.58,0-7.16.06-10.73,0-1.4,0-2-.84-2.17-2.28a7.23,7.23,0,0,1,0-.93q0-8.52,0-17c0-1.11,0-2.26,1.22-2.79a4.4,4.4,0,0,1,4.25.13,2.34,2.34,0,0,1,1,2.23v6.77Z"/><path d="M177.06,186.73c0,2.79,0,5.58,0,8.36.06,3.17-2.26,3.94-4.48,3.36-1.39-.36-1.78-.74-2-2.19a22.07,22.07,0,0,1-.31-3.23c.06-5.11.2-10.22.27-15.33,0-2.35,1.41-2.8,3.14-2.9a2.82,2.82,0,0,1,3.27,2.86c.12,3,0,6,0,9.07Z"/><path d="M382.84,212.17v-5.35h-2.1v-1.09h5.63v1.09h-2.09v5.35Z" style="fill:#fff"/><path d="M387.28,212.17v-6.44h2.14l1.28,4.39,1.28-4.39h2.14v6.44h-1.33V207.1l-1.4,5.07H390l-1.4-5.07v5.07Z" style="fill:#fff"/><path d="M288.73,203.49c1.8.29,4.38.74,7,1.11a4.7,4.7,0,0,0,1.83-.1,24.14,24.14,0,0,1,12.68.09,3.33,3.33,0,0,0,1.8,0,20.91,20.91,0,0,1,13,.14,2.33,2.33,0,0,0,1.54-.07c3.53-1.45,7.18-.93,10.82-.71a20.22,20.22,0,0,0,2.06,0c5.41-.2,10.88-1.05,16,1.62a2.51,2.51,0,0,0,1.94-.16c4.44-2.13,9.19-2,13.73-1.08a8.94,8.94,0,0,1,7.29,10.81,107.82,107.82,0,0,1-4.08,15.3c-1.76,5.17-6,7.66-11.27,8-3.77.28-7.63.51-11.16-1.54a2.65,2.65,0,0,0-1.93.23,17.24,17.24,0,0,1-7,1.41c-10.89,0-21.77,0-32.65,0a30.46,30.46,0,0,1-3.87-.6,5.42,5.42,0,0,0-2-.12,24.47,24.47,0,0,1-12.88,0,2.23,2.23,0,0,0-1.36-.1c-3.12,1.49-6.44.73-9.67.87a24.18,24.18,0,0,1-4.89-.12c-6.38-1-9.71-6.2-8.23-12.74.91-4,1.95-8,2.93-12,1.34-5.46,5.06-8.42,10.35-9.5A77,77,0,0,1,288.73,203.49Z" style="fill:#a80032"/><path d="M360.19,232.05h-.66c-.48,0-.95,0-1.42,0-1.76-.08-2.92-.51-3.54-1.32a4.14,4.14,0,0,1-.35-3.48c1-4.27,2.21-8.55,3.39-12.54a5.71,5.71,0,0,1,5-4.18,26.84,26.84,0,0,1,6.2-.06,3.66,3.66,0,0,1,2.69,1.23,4.13,4.13,0,0,1,.49,3.21,13.34,13.34,0,0,1-.39,1.66l-.61,2.28c-.65,2.42-1.3,4.84-2,7.26-1.28,4.57-3,5.91-7.71,6h-1.16Z" style="fill:#fff"/><path d="M352.43,211.61a4,4,0,0,1,.46,3.31,10.81,10.81,0,0,1-.86,2.4,7.16,7.16,0,0,0-.92,3.31,16.29,16.29,0,0,1-.45,5.81c-1.17,4.11-3.08,5.58-7.33,5.61H337c-1.14,0-1.89,0-2.09-.28s0-.95.25-2q1.55-5.87,3.12-11.71c.2-.77.42-1.55.64-2.32.37-1.3.75-2.64,1.08-4a1.61,1.61,0,0,1,1.79-1.48h.08c1,0,1.92,0,2.88,0,1.43,0,2.9,0,4.34.05C350.76,210.45,351.84,210.86,352.43,211.61Z" style="fill:#fff"/><path d="M322.17,213.52c0,.59,0,1.29,0,2.1,0,.2,0,.41,0,.61v.16a.2.2,0,0,0-.06.15v4.67a2.09,2.09,0,0,0,.09.51c0,.07,0,.14,0,.2a.26.26,0,0,0,.16.19.24.24,0,0,0,.24,0l.21-.14a1.38,1.38,0,0,0,.49-.47c.36-.66.71-1.32,1.07-2,1.22-2.25,2.48-4.57,3.61-6.91.9-1.85,2-2.51,3.74-2.29a11.21,11.21,0,0,0,1.83,0c.4,0,.82,0,1.22,0,.81,0,1.31.09,1.46.3s.07.74-.12,1.51c-.82,3.18-1.68,6.39-2.52,9.5-.34,1.26-.67,2.52-1,3.78l-.42,1.53c-.31,1.12-.63,2.28-.89,3.43a1.88,1.88,0,0,1-2.18,1.71H329c-1.63,0-2.62,0-2.89-.33s0-1.38.46-3.06l.22-.77c.16-.57.32-1.14.46-1.71a2.24,2.24,0,0,0,0-.63,2,2,0,0,1,0-.25.26.26,0,0,0-.17-.23.23.23,0,0,0-.27.07l-.19.2a2.66,2.66,0,0,0-.42.52l-.38.7c-.68,1.25-1.39,2.54-2,3.85a2.69,2.69,0,0,1-2.73,1.64h-.16c-2,0-3.13,0-3.6-.44s-.48-1.53-.49-3.7a11.25,11.25,0,0,0-.16-1.64c0-.24-.07-.49-.1-.74a.25.25,0,0,0-.21-.22.26.26,0,0,0-.27.17l-.22.63q-.28.76-.54,1.53a8.15,8.15,0,0,0-.22.85c0,.17-.08.35-.13.52-.86,3.21-.86,3.21-4.17,3-.76,0-1.26-.12-1.42-.34s-.08-.75.11-1.52c.37-1.47.78-3,1.17-4.4.18-.63.35-1.26.52-1.89.3-1.12.61-2.25.92-3.38.76-2.79,1.55-5.68,2.26-8.55a1.85,1.85,0,0,1,2.1-1.68h2.32c1.71,0,2.65,0,3,.37S322.18,211.92,322.17,213.52Z" style="fill:#fff"/><path d="M298.25,232a.24.24,0,0,0-.17-.07l-1,0a13.31,13.31,0,0,1-2.19,0,3.52,3.52,0,0,1-2.58-1.34,3.12,3.12,0,0,1-.36-2.57c1.12-4.8,2.34-9.4,3.64-13.68.68-2.25,2.55-3.64,5.24-3.92a29.17,29.17,0,0,1,5.76,0A3.31,3.31,0,0,1,309.8,215c-1,4.2-2.11,8.28-3.22,12.12-.94,3.26-2.92,4.78-6.42,4.93-.47,0-.94,0-1.41,0Z" style="fill:#fff"/><path d="M292.34,210.6c.16.21.1.71,0,1.4-.58,2.7-.58,2.7-3.44,2.71h-1.33c-1.17,0-2.37,0-3.55,0a2,2,0,0,0-2.25,1.68c-.56,2.15-1.15,4.3-1.73,6.45l-.81,3a1.56,1.56,0,0,0,.12,1.41,1.6,1.6,0,0,0,1.39.45c1.76,0,3.55,0,5.34,0,.85,0,1.41.08,1.6.32s.12.75-.06,1.59c-.5,2.45-.5,2.45-2.91,2.46h-3.11a.27.27,0,0,0-.15-.05l-1.46,0a30.67,30.67,0,0,1-3.18,0,3.2,3.2,0,0,1-3.13-4.37c1.21-4.89,2.19-8.63,3.18-12.13.95-3.35,3-5,6.54-5.13,2.59-.1,5.21-.07,7.67,0C291.82,210.35,292.2,210.43,292.34,210.6Z" style="fill:#fff"/><path d="M281.4,232.25c-1.56,0-3.12.11-4.66,0-2.71-.24-4-2-3.35-4.68,1-4.06,2-8.11,3.18-12.14,1-3.49,3.14-5.16,6.77-5.31,2.56-.1,5.13-.07,7.69,0,1.69,0,1.86.33,1.51,2-.63,2.9-.63,2.9-3.69,2.91-1.63,0-3.26,0-4.89,0a1.75,1.75,0,0,0-2,1.49c-.82,3.15-1.69,6.29-2.54,9.43-.3,1.1.09,1.58,1.26,1.55,1.79,0,3.58,0,5.36,0,2,0,2.17.31,1.78,2.21-.53,2.56-.63,2.65-3.16,2.66H281.4ZM280,222.83c.58-2.15,1.17-4.3,1.73-6.45A2,2,0,0,1,284,214.7c1.18,0,2.38,0,3.55,0h1.33c2.86,0,2.86,0,3.44-2.71.15-.69.21-1.19,0-1.4s-.52-.25-1.32-.27c-2.46-.05-5.08-.08-7.67,0-3.51.15-5.59,1.78-6.54,5.13-1,3.5-2,7.24-3.18,12.13a3.2,3.2,0,0,0,3.13,4.37,30.67,30.67,0,0,0,3.18,0l1.46,0a.27.27,0,0,1,.15.05h3.11c2.41,0,2.41,0,2.91-2.46.18-.84.24-1.37.06-1.59s-.75-.3-1.6-.32c-1.79-.05-3.58-.05-5.34,0a1.6,1.6,0,0,1-1.39-.45,1.56,1.56,0,0,1-.12-1.41Z" style="fill:#fff"/><path d="M182.94,226.88c.41-4.88.81-9.75,1.25-14.63a4.67,4.67,0,0,1,4.51-4c2.62-.21,5.27,0,7.9.06.69,0,1.37.08,2.06.05,2.94-.09,5.89-.24,8.83-.32,2.32-.06,4.63,0,6.94-.1a2.7,2.7,0,0,0,1.63-1.09,7.65,7.65,0,0,1,6.7-3.12c2.16.09,4.3.46,6.45.67a5.36,5.36,0,0,0,1.79-.08,16.77,16.77,0,0,1,10.32.23,2.62,2.62,0,0,0,1.77,0c2.54-1.11,5.2-.91,7.82-.76a7.25,7.25,0,0,1,5.54,3.06A7.5,7.5,0,0,0,259,209c4.6,2.24,5.73,4.71,5.23,9a85.47,85.47,0,0,1-3.31,15.2c-1.11,3.65-3.41,5.36-7.25,5.34-5.11,0-10.23-.16-15.34-.2-1.63,0-3.26.15-4.89.21a11.86,11.86,0,0,1-6.5-1.49,2,2,0,0,0-2.35.08c-3.76,2.24-7.74,1.84-11.67.58a3.32,3.32,0,0,0-2.59,0,10.33,10.33,0,0,1-3.58.79c-5.52.08-11,.07-16.57,0-4.35,0-7.05-2.83-7.08-7.23,0-1.47,0-3,0-4.43Z" style="fill:#a80032"/><path d="M257.77,216.3a3.27,3.27,0,0,1,.28,2.63c-.65,2.94-1.47,5.91-2.27,8.77-.31,1.12-.62,2.25-.92,3.38s-1,1-1.76,1l-.51,0a1.58,1.58,0,0,0-.38,0h-1.43a1.11,1.11,0,0,1-.9-.29,1.26,1.26,0,0,1,0-1c.48-1.77.94-3.54,1.4-5.3l.74-2.81c0-.09.07-.19.11-.29a1.54,1.54,0,0,0,.16-.67,1.76,1.76,0,0,1,.14-.61,1.49,1.49,0,0,0,.07-1.15,1.26,1.26,0,0,0-.82-.58,3,3,0,0,0-2.31.14,2.06,2.06,0,0,0-1,1.28c-.41,1.39-.79,2.82-1.15,4.2-.44,1.64-.89,3.34-1.39,5-.31,1-.82,1.89-1.19,2a11.06,11.06,0,0,1-3.67-.05l-.28,0a3,3,0,0,1-.12-1.3c.57-2.31,1.2-4.64,1.81-6.9l.62-2.33c.23-.83.44-1.65.66-2.48.56-2.14,1.14-4.35,1.78-6.51.26-.91.76-1.73,1.08-1.79a12.17,12.17,0,0,1,3.94.11,4.62,4.62,0,0,1,.13,1.59l0,.13c-.14,1-.21,1.5.07,1.83s.78.36,1.91.42h.1a17.85,17.85,0,0,1,2.42.23A4,4,0,0,1,257.77,216.3Z" style="fill:#fff"/><path d="M240.47,215c.21.27.23.75.05,1.48l-.07.26c-.54,2.22-.54,2.22-2.75,2.5a2,2,0,0,0-2,1.65c-.23,1-.51,2-.77,2.91-.17.6-.34,1.2-.5,1.81a1.79,1.79,0,0,0,.15,1.62,1.65,1.65,0,0,0,1.4.5,1.17,1.17,0,0,1,1,.29c.2.25.23.69.07,1.43-.54,2.6-.69,2.7-4,2.65h-.13a7.56,7.56,0,0,1-1.2-.09,3.67,3.67,0,0,1-2.58-1.4,3.51,3.51,0,0,1-.39-2.76c.34-1.59.78-3.19,1.19-4.73l.48-1.8a2,2,0,0,0,0-1.62,1.44,1.44,0,0,0-1.14-.49.92.92,0,0,1-.67-.25,1.63,1.63,0,0,1-.12-1.14c.27-2.11.65-2.57,2.71-3.29a3.13,3.13,0,0,0,1.33-1.48l.14-.23a5.65,5.65,0,0,0,.46-1.06c.18-.5.39-1.06.63-1.13a10.64,10.64,0,0,1,3.49-.14l.53,0a1.6,1.6,0,0,1,.41.84,2.53,2.53,0,0,1-.24,1.23c-.29.7-.32,1.2-.08,1.55s.73.51,1.47.52C239.92,214.61,240.29,214.71,240.47,215Z" style="fill:#fff"/><path d="M224.3,210.08c1,.11,2.38-.49,2.33,1.35,0,1.45-.75,2.07-2.4,2.13h-.69c-.31,0-.62,0-.93,0-.74-.06-1.74.13-1.73-1s.13-2.25,1.57-2.44A8.18,8.18,0,0,1,224.3,210.08Z" style="fill:#fff"/><path d="M225.14,215c.22.28.09,1-.21,2.1-.38,1.41-.76,2.82-1.13,4.23-.75,2.78-1.49,5.56-2.25,8.34-.67,2.45-.68,2.45-3.19,2.38h-1.42a1,1,0,0,1-.82-.27,1.11,1.11,0,0,1,0-.94l.74-2.77c1.08-4,2.19-8.18,3.37-12.25.13-.45.95-.88,1.49-1.16a.91.91,0,0,1,.42-.07l.42,0,.43,0C224.23,214.62,224.92,214.67,225.14,215Z" style="fill:#fff"/><path d="M215.78,214.75a1.47,1.47,0,0,1,.22,1.15,26.53,26.53,0,0,1-1.37,2.78c-.17.31-.34.63-.5.95l-1.68,3.2c-1.3,2.47-2.65,5-3.91,7.57a2.58,2.58,0,0,1-2.87,1.68,20.9,20.9,0,0,0-3.54,0,1.71,1.71,0,0,1-1.39-.33,1.79,1.79,0,0,1-.28-1.47,3.79,3.79,0,0,0,0-.75c-.06-.63-.13-1.26-.19-1.89l-.08-.73a.25.25,0,0,0-.46-.1c-.15.24-.31.48-.47.71a7.48,7.48,0,0,0-1,1.69c-.78,2.21-2.13,3.07-4.68,2.91l-.5,0c-3.52-.19-3.52-.19-3.47-3.9,0-1.13,0-2.25,0-3.37v-1.34a.29.29,0,0,0,.09-.2c0-.67,0-1.34,0-2,0-1.56,0-3.17,0-4.76a2,2,0,0,1,.41-1.51,1.77,1.77,0,0,1,1.35-.4c.21,0,.42,0,.63,0h.54c1.13,0,1.68.07,1.92.32s.29.83.27,2-.06,2.32-.11,3.49c0,.93-.06,1.87-.08,2.81a4.26,4.26,0,0,0,.08.8l.06.34a.24.24,0,0,0,.16.2.25.25,0,0,0,.26-.06l.29-.26a2.8,2.8,0,0,0,.65-.72c.66-1.28,1.31-2.56,2-3.85.51-1,1-2,1.53-3a4.12,4.12,0,0,1,5.32-1.9,2.23,2.23,0,0,1,.73,1.65c0,1.57,0,3.16-.07,4.7,0,.84,0,1.68-.06,2.52a1.3,1.3,0,0,0,.19.63,2.26,2.26,0,0,1,.11.22.24.24,0,0,0,.19.15.25.25,0,0,0,.24-.09l.13-.15a2.68,2.68,0,0,0,.31-.42q1.88-3.61,3.73-7.26A4.14,4.14,0,0,1,215.78,214.75Z" style="fill:#fff"/><path d="M344.2,223.79c.76,0,1.57-.12,1.4,1.18-.24,1.92-.77,2.51-2.56,2.44-.8,0-1.58,0-1.48-1.21C341.72,224.4,342.4,223.74,344.2,223.79Z" style="fill:#a80032"/><path d="M345.9,215c1.26-.1,1.59.41,1.32,1.39-.14.52-.15,1.24-.5,1.51a3.36,3.36,0,0,1-2.12.86c-1.09-.13-.77-1.11-.55-1.85C344.36,215.89,344.47,214.62,345.9,215Z" style="fill:#a80032"/><path d="M299.59,227.42c-1.89,0-2.15-.25-1.74-1.85.76-2.93,1.54-5.85,2.36-8.76.16-.57.44-1.4.85-1.54a6.18,6.18,0,0,1,2.71-.11,3.89,3.89,0,0,1,.09,1.9c-.72,2.93-1.56,5.84-2.31,8.76C301.25,227,300.67,227.62,299.59,227.42Z" style="fill:#a80032"/><path d="M361.45,227.4c-1,0-2,0-1.53-1.5q1.33-4.68,2.57-9.39a1.79,1.79,0,0,1,1.94-1.56c1.94,0,2.14.14,1.64,2.06-.76,2.92-1.53,5.83-2.34,8.74C363.29,227.33,363.08,227.43,361.45,227.4Z" style="fill:#a80032"/></g></g></svg>