<?xml version="1.0" encoding="utf-8"?>
<!-- Generator: Adobe Illustrator 19.0.0, SVG Export Plug-In . SVG Version: 6.00 Build 0)  -->
<svg version="1.1" id="pick_5" xmlns="http://www.w3.org/2000/svg" xmlns:xlink="http://www.w3.org/1999/xlink" x="0px" y="0px"
	 width="792px" height="612px" viewBox="-83 -26 792 612" enable-background="new -83 -26 792 612" xml:space="preserve">
<g>
	<g>
		<g>
			<path fill="#FED100" d="M100.4,385.3c-10.1-3.4-19.9-7-29.1-10.8c15.6,9.9,35.5,18.7,56.6,25c9.7,3,19.2,5.3,28.4,6.8
				c3.5,0.6,6.7,1,9.8,1.3c0,0,2.3,0.2,2.3,0.2l0.9,0.1c6.2,0.6,12.3,0.8,18,0.7c7.9-0.2,14.6-1.2,20.1-2.9c0,0,1.9-0.6,1.9-0.6
				l0.3-0.1l1-0.3c1.7-0.6,3.3-1.3,4.6-2.1C191.7,407.1,148,401.1,100.4,385.3z"/>
		</g>
		<g>
			<path fill="#818A8F" d="M192.6,166.8l60.5,6.3l0,0l23.2,86.2l0,0l1.3,0l0,0c0.7-6.9,1.5-14.2,3-20.8l0,0l14.2-61.1l0,0l49.1,5.1
				l0,0L366.2,328l0,0l-43.1,2.5l0,0l-8.3-81.6l0,0l-0.9,0l0,0c-0.8,5-1.5,10.2-2.8,15l0,0l-17.8,68.3l0,0l-30,1.7l0,0l-21.9-66.9
				l0,0c-1.9-6.9-3.6-13.5-4.3-20.5l0,0l-1.9-0.1l0,0c-0.2,6.5-0.3,13.3-0.7,19.8l0,0l-3.9,69.5l0,0l-57.8,3.4l0,0L192.6,166.8z"/>
			<path fill="#818A8F" d="M370.1,185.2l73.2,7.6l0,0l0,36.3l0,0l-31.5-1.8l0,0l0.1,13.1l0,0l28.8,1.2l0,0l0,34.1l0,0l-28.7,0l0,0
				l0.1,13.2l0,0l32.2-0.5l0,0l0,35l0,0l-72.3,4.2l0,0L370.1,185.2z"/>
			<path fill="#818A8F" d="M542.9,250.9c-0.5,18.7-0.8,34.2-10.1,48.9l0,0c-8.5,13.6-21.7,21.5-34.6,22.3l0,0
				c-13.1,0.8-25.3-4.2-34.4-14.6l0,0c-9.3-10.7-15.3-26.9-15.2-47.6l0,0c0-42.6,23-66.2,51.1-63.2l0,0
				c14.7,1.6,33.8,13.8,39.6,34.3l0,0L512,244.3l0,0c-2.2-6.2-6.5-9.6-11.5-9.9l0,0c-11.3-0.6-17.7,12.9-17.8,28l0,0
				c-0.1,13.6,5.9,26.3,16.1,26.1l0,0c4.8-0.1,10.9-3.3,12.4-10.6l0,0l-13.8,0l0,0l0.3-28.7l0,0L542.9,250.9z"/>
			<path fill="#818A8F" d="M574.7,276.8l5.3-33.1l0,0l0.9,0.1l0,0c0.3,4.6,0.7,9.4,1.3,14l0,0l2.4,19l0,0L574.7,276.8z M569.6,302.6
				l18.5-0.7l0,0l1.8,13l0,0l24.1-1.4l0,0l-19.4-104.9l0,0l-27.5-2.9l0,0l-27.7,112.1l0,0l27.9-1.6l0,0L569.6,302.6z"/>
		</g>
		<g>
			<path fill="#818A8F" d="M299,342.3l29.4-1.7l0,0l2,71.3l0,0l-28.9,3.9l0,0L299,342.3z"/>
			<path fill="#818A8F" d="M341.5,339.9l26.9-1.5l0,0l0.9,46.6l0,0l21.2-2.3l0,0l0.3,21.2l0,0l-47.5,6.4l0,0L341.5,339.9z"/>
			<path fill="#818A8F" d="M396.5,336.8l23.8-1.3l0,0l0.3,43.9l0,0l18.8-2l0,0l0,20l0,0l-42.1,5.6l0,0L396.5,336.8z"/>
			<path fill="#818A8F" d="M445.4,334l21.2-1.2l0,0l-0.2,60.8l0,0l-20.9,2.8l0,0L445.4,334z"/>
			<path fill="#818A8F" d="M503.4,349.1c5.9-0.5,9.4,4.3,9.3,10.4l0,0c-0.1,6.5-4,11.4-9.6,12l0,0c-5.7,0.6-9.6-3.5-9.5-10.2l0,0
				C493.7,355.1,497.5,349.6,503.4,349.1z M503.7,329.8c-16,0.9-29.7,14.1-29.8,33.1l0,0c-0.1,19.3,13.2,28.9,29,26.8l0,0
				c15.2-2,27.3-14.3,27.6-32.2l0,0C530.9,339.8,519,329,503.7,329.8z"/>
			<path fill="#818A8F" d="M536.9,328.9l16-0.9l0,0l13.6,28.8l0,0l0.5,0l0,0c-0.5-4.4-1.1-8.9-0.9-13.5l0,0l0.4-16.1l0,0l14.7-0.8
				l0,0l-1.6,52.1l0,0l-14.5,1.9l0,0L551.8,354l0,0l-0.5,0l0,0c0.4,3.7,0.8,7.2,0.7,10.8l0,0l-0.4,17.5l0,0l-15.8,2.1l0,0
				L536.9,328.9z"/>
			<path fill="#818A8F" d="M589,359l0.7,0.7l0,0c2.5,2.3,5.5,4,8.8,3.7l0,0c1.4-0.2,3.6-1.1,3.7-3.4l0,0c0.1-2.3-1.8-2.3-3-2.5l0,0
				l-2.8-0.4l0,0c-5.6-0.7-10.2-4.5-10-12.6l0,0c0.4-12.4,9.3-19.8,17.8-20.2l0,0c4.4-0.2,8.3,0.9,11.8,3.7l0,0l-4.2,13.1l0,0
				c-2.3-1.9-4.9-3.4-7.9-3.2l0,0c-1.2,0.1-3,0.8-3.1,2.9l0,0c-0.1,1.9,1.7,2,2.7,2.3l0,0l3.1,0.7l0,0c5.7,1.2,9.7,4.9,9.4,13.3l0,0
				c-0.5,11.7-8.8,18.6-17,19.7l0,0c-4.9,0.7-10.6-0.3-15-2.6l0,0L589,359z"/>
			<path fill="#818A8F" d="M174.4,349.4l38.6-2.2l0,0l15.7,41l0,0l0.9-0.1l0,0c0.5-3.5,0.9-7.2,1.9-10.7l0,0l9.2-31.8l0,0l33.7-1.9
				l0,0l17,73.5l0,0l-30.4,4.1l0,0l-6.3-41.2l0,0l-0.6,0.1l0,0c-0.5,2.6-1,5.3-1.8,7.9l0,0l-11.7,36l0,0l-20.1,2.7l0,0l-14.6-32l0,0
				c-1.3-3.3-2.4-6.4-2.8-9.8l0,0l-1.2,0.1l0,0c-0.1,3.2-0.2,6.6-0.4,9.9l0,0l-2.3,34.8l0,0l-36.6,4.9l0,0L174.4,349.4z"/>
		</g>
		<g>
			<path fill="#FFFFFF" d="M201,159.5l60.5,6.3l0,0l23.2,86.2l0,0l1.3,0l0,0c0.7-6.9,1.5-14.2,3-20.8l0,0l14.2-61.1l0,0l49.1,5.1
				l0,0l22.3,145.4l0,0l-43.1,2.5l0,0l-8.3-81.6l0,0l-0.9,0l0,0c-0.8,5-1.5,10.2-2.8,15l0,0l-17.8,68.3l0,0l-30,1.8l0,0l-21.9-66.9
				l0,0c-1.9-6.9-3.6-13.5-4.3-20.5l0,0l-1.9,0l0,0c-0.2,6.5-0.3,13.3-0.7,19.8l0,0l-3.9,69.5l0,0l-57.8,3.4l0,0L201,159.5z"/>
			<path fill="#FFFFFF" d="M378.5,177.9l73.2,7.6l0,0l0,36.3l0,0l-31.5-1.8l0,0l0.1,13.1l0,0l28.8,1.2l0,0l0,34.1l0,0l-28.7,0l0,0
				l0.1,13.2l0,0l32.2-0.5l0,0l0,35l0,0l-72.3,4.2l0,0L378.5,177.9z"/>
			<path fill="#FFFFFF" d="M551.3,243.6c-0.5,18.7-0.8,34.2-10.1,48.9l0,0c-8.5,13.6-21.7,21.5-34.5,22.3l0,0
				c-13.1,0.8-25.3-4.2-34.4-14.6l0,0c-9.3-10.7-15.2-26.9-15.2-47.6l0,0c0-42.6,23-66.2,51.1-63.2l0,0
				c14.7,1.6,33.8,13.8,39.6,34.4l0,0L520.4,237l0,0c-2.2-6.2-6.5-9.6-11.5-9.9l0,0c-11.3-0.6-17.7,12.9-17.8,28l0,0
				c-0.1,13.6,5.9,26.3,16.1,26.1l0,0c4.8-0.1,10.9-3.3,12.4-10.6l0,0l-13.8,0l0,0l0.3-28.7l0,0L551.3,243.6z"/>
			<path fill="#FFFFFF" d="M583,269.5l5.3-33.1l0,0l0.9,0l0,0c0.3,4.6,0.7,9.4,1.3,14l0,0l2.4,19l0,0L583,269.5z M578,295.3
				l18.5-0.7l0,0l1.8,13l0,0l24.1-1.4l0,0L603,201.2l0,0l-27.5-2.9l0,0l-27.7,112.1l0,0l27.9-1.6l0,0L578,295.3z"/>
		</g>
		<g>
			<path fill="#D52B1E" d="M203.9,156.7l60.5,6.3l0,0l23.2,86.2l0,0l1.3,0l0,0c0.7-6.9,1.5-14.2,3-20.8l0,0l14.2-61.1l0,0l49.1,5.1
				l0,0l22.3,145.4l0,0l-43.1,2.5l0,0l-8.3-81.6l0,0l-0.9,0l0,0c-0.8,5-1.5,10.2-2.8,15l0,0l-17.8,68.3l0,0l-30,1.8l0,0l-21.9-66.9
				l0,0c-1.9-7-3.6-13.5-4.3-20.5l0,0l-1.9-0.1l0,0c-0.2,6.5-0.3,13.3-0.7,19.8l0,0l-3.9,69.5l0,0l-57.8,3.4l0,0L203.9,156.7z"/>
			<path fill="#D52B1E" d="M381.4,175.1l73.2,7.6l0,0l0,36.3l0,0l-31.5-1.8l0,0l0.1,13.1l0,0l28.8,1.2l0,0l0,34.1l0,0l-28.7,0l0,0
				l0.1,13.2l0,0l32.2-0.5l0,0l0,35l0,0l-72.3,4.2l0,0L381.4,175.1z"/>
			<path fill="#D52B1E" d="M554.2,240.7c-0.5,18.7-0.8,34.2-10.1,48.9l0,0c-8.5,13.6-21.7,21.5-34.6,22.3l0,0
				c-13.1,0.8-25.3-4.2-34.4-14.6l0,0c-9.3-10.7-15.3-26.9-15.2-47.6l0,0c0-42.6,23-66.2,51.1-63.2l0,0
				c14.7,1.6,33.8,13.8,39.5,34.3l0,0l-27.3,13.3l0,0c-2.2-6.2-6.5-9.6-11.5-9.9l0,0c-11.3-0.6-17.7,12.9-17.8,28l0,0
				c-0.1,13.6,5.9,26.3,16.1,26.1l0,0c4.8-0.1,10.9-3.3,12.4-10.6l0,0l-13.8,0l0,0l0.3-28.7l0,0L554.2,240.7z"/>
			<path fill="#D52B1E" d="M585.9,266.6l5.3-33.1l0,0l0.9,0l0,0c0.3,4.6,0.7,9.4,1.3,14l0,0l2.4,19l0,0L585.9,266.6z M580.8,292.4
				l18.5-0.7l0,0l1.8,13l0,0l24.1-1.4l0,0l-19.4-104.9l0,0l-27.5-2.9l0,0l-27.7,112.1l0,0l27.9-1.6l0,0L580.8,292.4z"/>
		</g>
		<path fill="#FED100" d="M-23.8,189.2c1.1-16.4,6.7-30.8,17.3-41.4c22.7-22.9,62.8-23.1,103.9-4.4c7,3.1,14,6.9,20.9,11.1
			c0.4,0.2,0.8,0.4,1.1,0.7c-0.5-0.2-1.1-0.4-1.6-0.6c-2.1,0.6-4.1,1.3-6.1,2.1c-5.4-3.1-10.7-5.9-16.1-8.3
			c-6.1-2.8-12.2-5.2-18.3-7.1c-32.4-10.4-62.1-7.7-80,10.4c-8.3,8.3-13.2,19.1-15.2,31.5c-0.4,2.7-0.7,5.5-0.8,8.4
			c-1,20.2,5.2,43.7,17.7,67.2c2.9,5.5,6.2,10.9,9.7,16.4c8.3,12.6,18.3,24.9,30,36.6l0,0c21.8,21.6,47,38.2,71.5,47.7
			c-14.2-8.9-28.1-19.9-41-32.7c-11.2-11.1-20.8-22.9-29-34.9c-1.6-2.4-3.2-4.8-4.7-7.3c-22.3-36-30.6-73.4-22.1-101.3
			c0.5-1.7,1.1-3.3,1.7-5c1.7,0.4,3.4,0.9,5.2,1.4c13.3,4.1,27.3,12.6,39.6,24.8c2.1,2.1,4.1,4.2,6,6.4c-0.5,2.3-0.8,4.7-1.1,7.1
			c-2.6-3.4-5.5-6.6-8.7-9.7c-11.8-11.8-25.2-19.8-37.6-23.7c-8.8,27.7,0.6,66,24.9,102.5c1.4,2.1,2.9,4.3,4.4,6.4
			c7.3,10.1,15.6,20,25.1,29.4c19,18.9,40.7,33.9,62.2,43.8c6.2,2.8,12.5,5.3,18.6,7.2c-6.7,0-13.6-0.8-20.6-2.1
			c-32.7-6.3-68.2-26.4-98.3-56.4c-16.9-16.8-30.4-35-40.2-53.4c-4.4-8.2-8.1-16.4-11-24.6c-4.2-11.7-6.7-23.2-7.6-34.1
			C-24,198.4-24.1,193.7-23.8,189.2z"/>
		<path fill="#FED100" d="M-10.7,188.5c0.6-13.4,4.8-25.1,13.2-33.7c19.9-20.4,57.6-18.2,96.1,2.1c0.8,0.4,1.5,0.8,2.3,1.2
			c-1.7,1-29.5,12.2-34.8,41.6c-24.8-23.1-54.4-31.5-67-18.6c-2.5,2.6-4,5.8-4.9,9.5c-0.2,7.8,1.1,16.4,3.5,25.3
			c1.9,6.9,4.5,14.1,7.9,21.3c-7.9-10.7-13.1-21.6-15.3-31.4c-0.8-3.9-1.2-7.6-1.1-11c0-0.7-0.1-1.5-0.1-2.2
			C-10.8,191.1-10.7,189.8-10.7,188.5z"/>
		<path fill="#D52B1E" d="M-0.8,198.3l7.8-15L4.2,200c-5.4,32.9,10.8,75.4,43.4,113.5c0,0-53.2-66.7-53.2-93.7
			C-5.6,211.8-4,204.5-0.8,198.3z"/>
		<g>
			<path fill="#FED100" d="M140.2,317c-8.2,0.4-16.2-0.1-23.8-1.1c14.1,8.6,30.9,12.3,47.7,10.1c7.8-0.7,15.2-2.8,22.1-6.1
				c2.6-1.3,5-2.6,7.3-4.1c0,0,1.7-1.2,1.7-1.2l0.7-0.5c4.6-3,8.9-6.7,12.8-10.9c5.4-5.8,9.8-12.3,13.1-19.4c0,0,1.1-2.5,1.1-2.5
				l0.2-0.4c0,0,0.6-1.3,0.6-1.3c1-2.4,1.8-4.9,2.5-7.3C211.2,297.1,178.7,315.3,140.2,317z"/>
		</g>
		<g>
			<path fill="#D52B1E" d="M59.2,187.9c1.6-6.4,3.6-12.6,5.8-18.4c-7.1,9.7-12.5,22.2-15.2,35.7c-1.4,6.2-2.1,12.3-2.1,18.2
				c0,2.3,0.1,4.3,0.3,6.3l0.2,1.5l0.1,0.6c0.4,4,1.1,8,2.2,11.7c1.5,5.1,3.5,9.6,6,13.2c0,0,0.9,1.3,0.9,1.3l0.1,0.2l0.5,0.6
				c0.9,1.1,1.8,2.2,2.8,3.1C52.5,246.3,51.4,218.1,59.2,187.9z"/>
		</g>
		<g>
			<path fill="#FFFFFF" d="M304.5,337l29.4-1.7l0,0l2,71.3l0,0l-28.9,3.9l0,0L304.5,337z"/>
			<path fill="#FFFFFF" d="M347,334.5l26.9-1.5l0,0l0.9,46.6l0,0l21.1-2.3l0,0l0.3,21.2l0,0l-47.5,6.4l0,0L347,334.5z"/>
			<path fill="#FFFFFF" d="M402,331.4l23.8-1.3l0,0l0.3,43.9l0,0l18.8-2.1l0,0l0,20l0,0l-42.1,5.6l0,0L402,331.4z"/>
			<path fill="#FFFFFF" d="M450.9,328.7l21.2-1.2l0,0l-0.3,60.8l0,0l-20.9,2.8l0,0L450.9,328.7z"/>
			<path fill="#FFFFFF" d="M508.9,343.7c5.9-0.5,9.4,4.3,9.3,10.4l0,0c-0.1,6.5-4,11.4-9.6,12l0,0c-5.7,0.6-9.6-3.5-9.5-10.2l0,0
				C499.2,349.7,503,344.2,508.9,343.7z M509.2,324.5c-16,0.9-29.7,14.1-29.8,33.1l0,0c-0.1,19.2,13.2,28.9,29,26.7l0,0
				c15.2-2.1,27.3-14.3,27.6-32.2l0,0C536.4,334.5,524.5,323.6,509.2,324.5z"/>
			<path fill="#FFFFFF" d="M542.5,323.5l16-0.9l0,0l13.6,28.8l0,0l0.5,0l0,0c-0.5-4.4-1.1-8.9-1-13.5l0,0l0.5-16.1l0,0l14.7-0.8l0,0
				l-1.6,52.1l0,0l-14.5,1.9l0,0l-13.3-26.5l0,0l-0.5,0l0,0c0.4,3.7,0.8,7.2,0.8,10.8l0,0l-0.4,17.5l0,0l-15.8,2.1l0,0L542.5,323.5z
				"/>
			<path fill="#FFFFFF" d="M594.5,353.7l0.7,0.7l0,0c2.5,2.3,5.5,4,8.8,3.7l0,0c1.4-0.2,3.6-1.1,3.7-3.4l0,0c0.1-2.3-1.8-2.3-3-2.5
				l0,0l-2.8-0.4l0,0c-5.6-0.7-10.2-4.5-10-12.6l0,0c0.4-12.3,9.3-19.8,17.8-20.2l0,0c4.4-0.2,8.3,0.9,11.8,3.7l0,0l-4.1,13l0,0
				c-2.3-1.9-4.9-3.4-7.9-3.2l0,0c-1.2,0.1-3,0.8-3.1,2.9l0,0c-0.1,1.9,1.7,2,2.7,2.3l0,0l3.1,0.7l0,0c5.7,1.2,9.7,4.9,9.4,13.3l0,0
				c-0.5,11.7-8.8,18.6-17,19.7l0,0c-4.9,0.7-10.6-0.3-15-2.6l0,0L594.5,353.7z"/>
			<path fill="#FFFFFF" d="M179.9,344l38.5-2.2l0,0l15.7,41l0,0l0.9-0.1l0,0c0.5-3.5,0.9-7.2,1.9-10.7l0,0l9.2-31.8l0,0l33.7-1.9
				l0,0l17,73.4l0,0l-30.4,4.1l0,0l-6.3-41.2l0,0l-0.6,0.1l0,0c-0.5,2.6-1,5.3-1.8,7.9l0,0l-11.7,36l0,0l-20.1,2.7l0,0l-14.6-32l0,0
				c-1.3-3.3-2.4-6.4-2.8-9.8l0,0l-1.2,0.1l0,0c-0.1,3.2-0.2,6.6-0.4,9.9l0,0l-2.3,34.8l0,0l-36.6,4.9l0,0L179.9,344z"/>
		</g>
		<g>
			<path fill="#001B96" d="M306.9,334.3l29.4-1.7l0,0l2,71.3l0,0l-28.9,3.9l0,0L306.9,334.3z"/>
			<path fill="#001B96" d="M349.4,331.9l26.9-1.5l0,0l0.9,46.6l0,0l21.1-2.3l0,0l0.3,21.2l0,0l-47.5,6.4l0,0L349.4,331.9z"/>
			<path fill="#001B96" d="M404.4,328.8l23.8-1.3l0,0l0.3,43.9l0,0l18.8-2.1l0,0l0,20l0,0l-42.1,5.6l0,0L404.4,328.8z"/>
			<path fill="#001B96" d="M453.3,326.1l21.2-1.2l0,0l-0.3,60.8l0,0l-20.9,2.8l0,0L453.3,326.1z"/>
			<path fill="#001B96" d="M544.9,320.9l16-0.9l0,0l13.5,28.8l0,0l0.5,0l0,0c-0.5-4.4-1.1-8.9-0.9-13.4l0,0l0.4-16.1l0,0l14.7-0.8
				l0,0l-1.6,52.1l0,0l-14.5,2l0,0L559.7,346l0,0l-0.5,0l0,0c0.4,3.7,0.8,7.2,0.8,10.8l0,0l-0.4,17.5l0,0l-15.8,2.1l0,0L544.9,320.9
				z"/>
			<path fill="#001B96" d="M596.9,351.1l0.7,0.7l0,0c2.5,2.3,5.5,4,8.8,3.7l0,0c1.4-0.1,3.6-1.1,3.7-3.4l0,0c0.1-2.3-1.7-2.3-3-2.5
				l0,0l-2.8-0.4l0,0c-5.6-0.7-10.2-4.5-10-12.6l0,0c0.4-12.4,9.3-19.8,17.8-20.2l0,0c4.4-0.2,8.3,0.9,11.8,3.7l0,0l-4.1,13l0,0
				c-2.3-1.9-4.9-3.4-7.9-3.1l0,0c-1.2,0.1-3,0.8-3.1,2.9l0,0c-0.1,1.9,1.7,2,2.7,2.3l0,0l3.1,0.7l0,0c5.7,1.2,9.7,4.9,9.4,13.3l0,0
				c-0.5,11.7-8.8,18.6-17,19.7l0,0c-4.9,0.7-10.6-0.3-15.1-2.6l0,0L596.9,351.1z"/>
			<path fill="#001B96" d="M182.3,341.4l38.6-2.2l0,0l15.7,41l0,0l0.9-0.1l0,0c0.5-3.5,0.9-7.2,1.9-10.7l0,0l9.2-31.8l0,0l33.7-1.9
				l0,0l17,73.5l0,0l-30.4,4.1l0,0l-6.3-41.2l0,0l-0.6,0.1l0,0c-0.5,2.6-1,5.3-1.8,7.9l0,0l-11.7,36l0,0l-20.1,2.7l0,0l-14.6-32.1
				l0,0c-1.3-3.3-2.4-6.4-2.8-9.8l0,0l-1.2,0.1l0,0c-0.1,3.2-0.2,6.6-0.4,9.8l0,0l-2.3,34.8l0,0l-36.6,4.9l0,0L182.3,341.4z"/>
			<path fill="#001B96" d="M511.6,321.8c-16,0.9-29.7,14.1-29.8,33.1l0,0c-0.1,19.3,13.2,28.9,29.1,26.8l0,0
				c15.2-2.1,27.3-14.3,27.6-32.2l0,0C538.8,331.9,526.9,321,511.6,321.8z"/>
		</g>
		<polygon fill="#FFFFFF" points="509.3,345.6 513.9,329.9 513.9,329.9 519,344.9 519,344.9 532.1,343.8 532.1,343.8 522,353.5 
			522,353.5 526.5,367 526.5,367 514.9,360.2 514.9,360.2 501.2,373.2 501.2,373.2 506.4,355.5 506.4,355.5 491.3,346.9 
			491.3,346.9 		"/>
		<g>
			
				<radialGradient id="SVGID_1_" cx="146.9479" cy="124.9801" r="131.5638" gradientTransform="matrix(1.2943 0 0 1.2943 -83.8344 37.4293)" gradientUnits="userSpaceOnUse">
				<stop  offset="5.056200e-002" style="stop-color:#FFFFFF"/>
				<stop  offset="0.1712" style="stop-color:#FFF6CE"/>
				<stop  offset="0.3411" style="stop-color:#FFEB90"/>
				<stop  offset="0.5041" style="stop-color:#FEE25D"/>
				<stop  offset="0.6558" style="stop-color:#FEDA35"/>
				<stop  offset="0.7935" style="stop-color:#FED518"/>
				<stop  offset="0.9128" style="stop-color:#FED206"/>
				<stop  offset="1" style="stop-color:#FED100"/>
			</radialGradient>
			<path fill="url(#SVGID_1_)" d="M217.3,232.8c0,40.7-33,73.8-73.8,73.8c-40.7,0-73.8-33-73.8-73.8c0-40.8,33-73.8,73.8-73.8
				C184.3,159,217.3,192,217.3,232.8z"/>
		</g>
		<g>
			<path fill="#001B96" d="M186,189.7l10.9,8.5l0,0l-11.6,0.1l0,0l-1.1,14.5l0,0l-6.8-14.4l0,0h-14.5l0,0l10.4-9l0,0l-7-15l0,0
				l12.6,9.8l0,0l8.1-7l0,0L186,189.7z"/>
			<path fill="#001B96" d="M204.2,228.6l1.9,14.9l0,0l-8.3-11.7l0,0l-11.6,5.8l0,0l6.3-13.2l0,0l-8.8-12.6l0,0l12.4,5.3l0,0l5.3-11
				l0,0l1.7,13.8l0,0l10,4.3l0,0L204.2,228.6z"/>
			<path fill="#001B96" d="M187,270.4L174.3,284l0,0l5.1-20l0,0l-13-10.9l0,0l15.8-0.2l0,0l4.3-16.4l0,0l4.3,16.4l0,0l12.7-0.1l0,0
				l-9.8,10.4l0,0l4.4,16.5l0,0L187,270.4z"/>
			<path fill="#001B96" d="M133,276.2l-22.2-8.4l0,0l25.4-6.7l0,0l4.5-22l0,0l8.6,18.5l0,0l18.3-4.7l0,0l-13.2,16l0,0l8.5,18.5l0,0
				l-17.8-6.7l0,0l-17.3,21.1l0,0L133,276.2z"/>
			<path fill="#001B96" d="M104.5,216.4l1.3-21.6l0,0l14.4,18.3l0,0l21.1-4.6l0,0l-12.8,15.2l0,0l12.8,16.6l0,0l-21.9-6.1l0,0
				l-17.3,20.4l0,0l1.5-24.4l0,0l-28.3-7.7l0,0L104.5,216.4z"/>
			<path fill="#001B96" d="M144.2,176.5l14.7-4l0,0l-6.3,12.9l0,0l12.6,13.2l0,0l-16.8-4.5l0,0l-7.7,15.4l0,0l-3.9-18.8l0,0
				l-22.1-6.1l0,0l19.4-5.4l0,0l-3.7-17.4l0,0L144.2,176.5z"/>
		</g>
		<g>
			<path fill="#818A8F" d="M379.1,415.5l8.4-1.2l6.6,19l7.2-20.9l8.5-1.2l4.7,35.9l-8.5,1.5l-2.2-20.9l-0.1,0l-8,22.7l-3.4,0.6
				l-7.4-20.4l-0.1,0l-2.8,22.3l-8.5,1.5L379.1,415.5z"/>
			<path fill="#818A8F" d="M427,416.8l-0.1,6l9.6-1.5l-0.1,7.8l-9.6,1.6l-0.1,6.2l10.1-1.7l-0.1,7.9l-18.7,3.3l0.3-36.4l18.8-2.6
				l-0.1,7.8L427,416.8z"/>
			<path fill="#818A8F" d="M475.2,417.2c-0.2,5-0.6,9.3-3.6,14.1c-3.3,5.3-8.2,8.2-13.7,9.2c-10.3,1.9-17.4-4.5-17.2-15.7
				c0.2-11.5,7.5-20.1,18.2-21.5c6.8-0.9,12,1.5,14.7,7.5l-8.2,4.8c-1.1-3.1-3.6-4.9-7-4.4c-5.6,0.8-8.7,7-8.7,12.3
				c-0.1,5.5,2.9,10.5,8.5,9.5c3.7-0.6,6.6-3.1,7-7.2l-7,1.1l0.1-7.1L475.2,417.2z"/>
			<path fill="#818A8F" d="M485.5,428.6l-2.4,6.3l-9.1,1.6l13.3-35.9l9.4-1.3l11.6,31.1l-9.1,1.6l-2-5.4L485.5,428.6z M491.8,410.2
				L491.8,410.2l-3.8,11.2l7.1-1.2L491.8,410.2z"/>
			<path fill="#818A8F" d="M510.1,397.4l13.1-1.8c7.1-1,11.9,1.5,11.7,8.8c-0.2,7.5-4.5,11.5-12,12.7l-4.8,0.8l-0.3,10.8l-8.5,1.5
				L510.1,397.4z M518.2,411.1l1.4-0.2c3.1-0.5,6.2-1,6.3-4.9c0.1-4-2.7-3.7-6-3.2l-1.4,0.2L518.2,411.1z"/>
			<path fill="#818A8F" d="M545.9,416.8l10.2-1.7l-0.2,6.8l-18.8,3.3l1-31.7l8.6-1.2L545.9,416.8z"/>
			<path fill="#818A8F" d="M567.2,419.8l-8.5,1.5l1.1-30.8l8.6-1.2L567.2,419.8z"/>
			<path fill="#818A8F" d="M582.2,393.9l-0.2,5l9.6-1.5l-0.3,6.5l-9.6,1.6l-0.2,5.2l10.2-1.7l-0.3,6.5l-18.7,3.3l1.2-30.3l18.8-2.6
				l-0.3,6.5L582.2,393.9z"/>
			<path fill="#818A8F" d="M624,409.7l-10.6,1.9l-7.5-9.8l-0.1,0l-0.5,11.2l-8.5,1.5l1.3-29.3l12.8-1.8c6.5-0.9,11.3,1.1,11,7.1
				c-0.2,3.9-2.9,7.7-7.6,9.2L624,409.7z M606,397l0.8-0.1c2.8-0.4,6-1.4,6.1-4.5c0.2-3.1-3-3.1-5.8-2.7l-0.8,0.1L606,397z"/>
		</g>
		<g>
			<path fill="#D52B1E" d="M315.5,436.4l0.5,9.5l0.1,0c0.2-1,0.5-2,0.9-3l2.6-7.1l4.3-0.6l0.7,9.4l0.1,0c0.2-0.9,0.5-1.9,0.8-2.8
				l2.5-7.2l5.8-0.9l-7.8,17.4l-4.9,0.8l-0.5-8.9l-0.2,0c-0.2,0.8-0.4,1.6-0.7,2.4l-2.4,7.1l-4.7,0.8l-3.1-16.1L315.5,436.4z"/>
			<path fill="#D52B1E" d="M335.2,433.5l5.6-0.8l-2.4,16.4l-5.6,0.9L335.2,433.5z"/>
			<path fill="#D52B1E" d="M342.3,432.4l11.8-1.7l-0.8,5.2l-3.1,0.3l-1.6,11l-5.6,0.9l1.6-11.1l-3.1,0.6L342.3,432.4z"/>
			<path fill="#D52B1E" d="M355.6,430.5l5.4-0.8l-0.8,5.4l3.4-0.5l0.8-5.4l5.4-0.8l-2.4,15.8l-5.4,0.9l0.8-5.5l-3.4,0.5l-0.8,5.6
				l-5.4,0.9L355.6,430.5z"/>
		</g>
		<g>
			<path fill="#001B96" d="M209.1,105.6l23.6,2.6l0,8.1l-14.3-1.6l0,8.4l12.6,1.4l0,8.1l-12.6-1.4l0,11.4l-9.3-1L209.1,105.6z"/>
			<path fill="#001B96" d="M241.1,109.1l9.3,1l-0.1,27.9l14.8,1.6l0,8.1l-24-2.6L241.1,109.1z"/>
			<path fill="#001B96" d="M270.8,130.3c0-10.8,8.7-17.5,18.7-16.4c10,1.1,18.6,9.6,18.6,20.4c0,10.8-8.7,17.5-18.7,16.4
				C279.3,149.7,270.7,141.2,270.8,130.3z M298.6,133.3c0-5.7-3.3-10.4-9.1-11c-5.8-0.6-9.2,3.4-9.2,9.1c0,5.7,3.3,10.5,9.1,11.1
				C295.2,143.1,298.5,139,298.6,133.3z"/>
			<path fill="#001B96" d="M343.8,156.3l-10.1-1.1l-4.8-8.8l-3.5-0.4l0,8.3l-9.3-1l0.1-36l13.2,1.4c9.3,1,14.6,7.7,14.5,15.7
				c0,5.2-2.2,9.1-6.3,11L343.8,156.3z M328.9,138.7c4.2,0.5,5.7-1.8,5.7-5.3c0-3.5-1.5-6.1-5.7-6.6l-3.4-0.4l0,11.9L328.9,138.7z"
				/>
			<path fill="#001B96" d="M352.4,121.2l9.3,1l-0.1,36l-9.3-1L352.4,121.2z"/>
			<path fill="#001B96" d="M371.8,123.4l13.4,1.5c10,1.1,17.5,8.7,17.5,19.9c0,11.2-7.6,17.2-17.6,16.1l-13.4-1.5L371.8,123.4z
				 M384.1,152.5c5.6,0.6,9.1-2.9,9.1-8.8c0-6-3.4-10.2-9-10.8l-3.1-0.3l-0.1,19.7L384.1,152.5z"/>
			<path fill="#001B96" d="M414.3,164l-9.1-1l17-34.8c0.2-0.4,0.5-0.3,0.6,0.1l16.7,38.4l-9.6-1l-1.3-3.2l-13.1-1.4L414.3,164z
				 M422.1,146.2l-3.5,8l7,0.8L422.1,146.2z"/>
		</g>
	</g>
	<g>
		<g>
			<path fill="#D52B1E" d="M643.9,362h-2.1l-1.7-4.5h-2.8v4.5h-2v-10.9h4.7c1.3,0,2.3,0.3,2.9,0.9c0.6,0.6,0.9,1.4,0.9,2.3
				c0,1.4-0.7,2.4-1.9,2.9L643.9,362z M637.4,355.9h2.4c0.7,0,1.2-0.1,1.6-0.5c0.4-0.3,0.5-0.7,0.5-1.2c0-0.5-0.2-0.9-0.5-1.2
				c-0.3-0.3-0.8-0.4-1.4-0.4h-2.6V355.9z"/>
		</g>
		<path fill="#D52B1E" d="M639.4,367.2c-5.8,0-10.6-4.7-10.6-10.5c0-5.8,4.7-10.5,10.6-10.5c5.8,0,10.5,4.7,10.5,10.5
			C650,362.5,645.2,367.2,639.4,367.2L639.4,367.2z M639.4,347.4c-5.1,0-9.3,4.2-9.3,9.3c0,5.1,4.2,9.4,9.3,9.4
			c5.1,0,9.3-4.2,9.3-9.4C648.8,351.5,644.6,347.4,639.4,347.4L639.4,347.4z"/>
	</g>
	<g>
		<g>
			<path fill="#D52B1E" d="M643.4,394.6h-2.1l-1.7-4.5h-2.8v4.5h-2v-10.9h4.7c1.3,0,2.3,0.3,2.9,0.9c0.6,0.6,0.9,1.4,0.9,2.3
				c0,1.4-0.7,2.4-1.9,2.9L643.4,394.6z M636.9,388.6h2.4c0.7,0,1.2-0.1,1.6-0.5c0.4-0.3,0.5-0.7,0.5-1.2c0-0.5-0.2-0.9-0.5-1.2
				c-0.3-0.3-0.8-0.4-1.4-0.4h-2.6V388.6z"/>
		</g>
		<path fill="#D52B1E" d="M639,399.9c-5.8,0-10.6-4.7-10.6-10.5c0-5.8,4.7-10.5,10.6-10.5c5.8,0,10.5,4.7,10.5,10.5
			C649.5,395.1,644.8,399.9,639,399.9L639,399.9z M639,380c-5.1,0-9.3,4.2-9.3,9.3c0,5.1,4.2,9.4,9.3,9.4c5.1,0,9.3-4.2,9.3-9.4
			C648.3,384.2,644.1,380,639,380L639,380z"/>
	</g>
</g>
</svg>
