<svg xmlns="http://www.w3.org/2000/svg" xmlns:xlink="http://www.w3.org/1999/xlink" viewBox="0 0 104.36 58.21"><defs><clipPath id="clip-path" transform="translate(0 0.01)"><path d="M78,.82a19.78,19.78,0,0,1-1.63,5.41,20,20,0,0,1-1.61,2.89c-.72,1.07-1.92,1.37-2.47.72-.32-.38-.64-.78-1-1.21a17.82,17.82,0,0,1-2.4-4.57c-.14-.4-.32-.71-.41-.69s-.08.39,0,.8a18.25,18.25,0,0,1,.4,5.16c0,.62-.11,1.23-.2,1.82a1.9,1.9,0,0,1-2.63,1.16,20.18,20.18,0,0,1-3.52-1.64,19.94,19.94,0,0,1-4.43-3.51c-.31-.34-.62-.57-.71-.51s.1.42.38.8a19.69,19.69,0,0,1,2.67,5,19.79,19.79,0,0,1,.9,3.18c.25,1.27-.38,2.33-1.23,2.26-.5,0-1-.1-1.53-.19a17.58,17.58,0,0,1-4.93-1.53c-.39-.18-.73-.28-.78-.19s.22.32.58.55a17.8,17.8,0,0,1,3.93,3.36c.41.47.8.94,1.15,1.43.59.82,2.71,4.68,1.55,5.23s.67.95-.65,1.29c-.69.18-3.38-.36-6.08-.89A36.93,36.93,0,0,0,47.56,26c-.86.05-.87.21,0,.39A38.64,38.64,0,0,1,53.64,28a21,21,0,0,1,2.89,1.61c1.07.73,1.37,1.92.72,2.47-.38.33-.78.64-1.21.95a18.18,18.18,0,0,1-4.57,2.41c-.4.14-.71.31-.69.4s.39.08.8,0a18.25,18.25,0,0,1,5.16-.4c.62,0,1.23.11,1.82.2a1.9,1.9,0,0,1,1.16,2.63,20.42,20.42,0,0,1-5.15,8c-.34.31-.57.62-.5.71s.41-.09.79-.37a19.81,19.81,0,0,1,5-2.68A21.31,21.31,0,0,1,63,43c1.27-.25,2.33.38,2.26,1.23,0,.5-.1,1-.19,1.53a17.92,17.92,0,0,1-1.53,4.93c-.18.39-.28.73-.19.78s.32-.22.55-.58a18,18,0,0,1,3.36-3.93,17.13,17.13,0,0,1,1.43-1.15,1.9,1.9,0,0,1,2.68,1,20.39,20.39,0,0,1,1.32,3.65,47.72,47.72,0,0,1,.61,6.86c0,.86.18.87.36,0a46.11,46.11,0,0,1,1.75-6.65A20.87,20.87,0,0,1,77,47.83c.73-1.08,1.92-1.38,2.47-.73.33.38.64.79,1,1.21a18.36,18.36,0,0,1,2.41,4.57c.14.4.31.71.4.69s.08-.39,0-.8a18.18,18.18,0,0,1-.4-5.15c0-.63.11-1.24.2-1.83a1.9,1.9,0,0,1,2.63-1.16,19.91,19.91,0,0,1,3.52,1.65,19.63,19.63,0,0,1,4.43,3.5c.32.34.63.58.71.51s-.09-.42-.37-.79a20.06,20.06,0,0,1-2.68-5,21.31,21.31,0,0,1-.9-3.19c-.25-1.27.39-2.32,1.23-2.26.5,0,1,.1,1.53.19a17.92,17.92,0,0,1,4.93,1.53c.39.18.73.28.78.2s-.22-.33-.58-.55a18.6,18.6,0,0,1-3.93-3.36c-.41-.47-.8-1-1.15-1.44a1.9,1.9,0,0,1,1-2.68,20.39,20.39,0,0,1,3.65-1.32,19.73,19.73,0,0,1,5.61-.65c.47,0,.85,0,.86-.15s-.36-.23-.82-.29a19.78,19.78,0,0,1-5.41-1.63,21,21,0,0,1-2.89-1.61c-1.07-.73-1.37-1.92-.72-2.47.38-.32.78-.64,1.21-1a17.82,17.82,0,0,1,4.57-2.4c.4-.15.72-.32.69-.41s-.39-.08-.8,0a18.18,18.18,0,0,1-5.15.4c-.63,0-1.24-.11-1.83-.2A1.9,1.9,0,0,1,92,18.68a20.93,20.93,0,0,1,1.64-3.52c1-1.75,5.57-6.23,5.5-6.31s-5.35,3.52-7.24,4.22a20.19,20.19,0,0,1-3.19.9c-1.27.25-2.33-.38-2.26-1.23,0-.5.1-1,.19-1.53a17.92,17.92,0,0,1,1.53-4.93c.19-.39.28-.73.2-.77s-.33.21-.56.57A18.25,18.25,0,0,1,84.5,10c-.47.41-1,.8-1.43,1.15a1.9,1.9,0,0,1-2.69-1,20.39,20.39,0,0,1-1.32-3.65A19.73,19.73,0,0,1,78.41.86c0-.47,0-.85-.15-.86h0c-.11,0-.23.37-.29.82" style="fill:none"/></clipPath><clipPath id="clip-path-2" transform="translate(0 0.01)"><path d="M59.47,28.47a16.4,16.4,0,1,0,16.4-16.41,16.4,16.4,0,0,0-16.4,16.41" style="fill:none"/></clipPath><clipPath id="clip-path-3" transform="translate(0 0.01)"><rect x="12.7" y="39.82" width="39.93" height="8.95" style="fill:none"/></clipPath></defs><g id="Layer_2" data-name="Layer 2"><g id="Layer_1-2" data-name="Layer 1"><g style="clip-path:url(#clip-path)"><rect x="46.69" width="57.67" height="58.21" style="fill:#e23858"/><path d="M99,29a23.4,23.4,0,1,1-23.4-23.4A23.4,23.4,0,0,1,99,29" transform="translate(0 0.01)" style="fill:#e23858"/><path d="M99,29A23.36,23.36,0,1,1,75.63,5.63,23.37,23.37,0,0,1,99,29" transform="translate(0 0.01)" style="fill:#e23959"/><path d="M99,29A23.33,23.33,0,1,1,75.63,5.66,23.32,23.32,0,0,1,99,29" transform="translate(0 0.01)" style="fill:#e23a59"/><path d="M98.92,29A23.29,23.29,0,1,1,75.63,5.7,23.29,23.29,0,0,1,98.92,29" transform="translate(0 0.01)" style="fill:#e23c5a"/><path d="M98.89,29A23.26,23.26,0,1,1,75.63,5.73,23.26,23.26,0,0,1,98.89,29" transform="translate(0 0.01)" style="fill:#e23d5b"/><path d="M98.86,29A23.23,23.23,0,1,1,75.63,5.77,23.23,23.23,0,0,1,98.86,29" transform="translate(0 0.01)" style="fill:#e23e5b"/><path d="M98.82,29A23.19,23.19,0,1,1,75.63,5.8,23.19,23.19,0,0,1,98.82,29" transform="translate(0 0.01)" style="fill:#e23f5c"/><path d="M98.79,29A23.16,23.16,0,1,1,75.63,5.84,23.16,23.16,0,0,1,98.79,29" transform="translate(0 0.01)" style="fill:#e3415d"/><path d="M98.75,29A23.12,23.12,0,1,1,75.63,5.87,23.12,23.12,0,0,1,98.75,29" transform="translate(0 0.01)" style="fill:#e3425d"/><path d="M98.72,29A23.09,23.09,0,1,1,75.63,5.9,23.09,23.09,0,0,1,98.72,29" transform="translate(0 0.01)" style="fill:#e3445e"/><path d="M98.68,29a23.05,23.05,0,1,1-23.05-23A23.05,23.05,0,0,1,98.68,29" transform="translate(0 0.01)" style="fill:#e3455f"/><path d="M98.65,29a23,23,0,1,1-23-23,23,23,0,0,1,23,23" transform="translate(0 0.01)" style="fill:#e3465f"/><path d="M98.61,29a23,23,0,1,1-23-23,23,23,0,0,1,23,23" transform="translate(0 0.01)" style="fill:#e34760"/><path d="M98.58,29A23,23,0,1,1,75.63,6a22.94,22.94,0,0,1,23,23" transform="translate(0 0.01)" style="fill:#e44961"/><path d="M98.54,29A22.91,22.91,0,1,1,75.63,6.08,22.91,22.91,0,0,1,98.54,29" transform="translate(0 0.01)" style="fill:#e44a61"/><path d="M98.51,29A22.88,22.88,0,1,1,75.63,6.11,22.88,22.88,0,0,1,98.51,29" transform="translate(0 0.01)" style="fill:#e44b62"/><path d="M98.47,29A22.84,22.84,0,1,1,75.63,6.15,22.84,22.84,0,0,1,98.47,29" transform="translate(0 0.01)" style="fill:#e44c63"/><path d="M98.44,29A22.81,22.81,0,1,1,75.63,6.18,22.81,22.81,0,0,1,98.44,29" transform="translate(0 0.01)" style="fill:#e44e64"/><path d="M98.41,29A22.78,22.78,0,1,1,75.63,6.22,22.78,22.78,0,0,1,98.41,29" transform="translate(0 0.01)" style="fill:#e44f64"/><path d="M98.37,29A22.74,22.74,0,1,1,75.63,6.25,22.74,22.74,0,0,1,98.37,29" transform="translate(0 0.01)" style="fill:#e45065"/><path d="M98.34,29A22.71,22.71,0,1,1,75.63,6.29,22.71,22.71,0,0,1,98.34,29" transform="translate(0 0.01)" style="fill:#e55266"/><path d="M98.3,29A22.67,22.67,0,1,1,75.63,6.32,22.67,22.67,0,0,1,98.3,29" transform="translate(0 0.01)" style="fill:#e55367"/><path d="M98.27,29A22.64,22.64,0,1,1,75.63,6.35,22.64,22.64,0,0,1,98.27,29" transform="translate(0 0.01)" style="fill:#e55467"/><path d="M98.23,29a22.6,22.6,0,1,1-22.6-22.6A22.6,22.6,0,0,1,98.23,29" transform="translate(0 0.01)" style="fill:#e55568"/><path d="M98.2,29A22.57,22.57,0,1,1,75.63,6.42,22.57,22.57,0,0,1,98.2,29" transform="translate(0 0.01)" style="fill:#e55769"/><path d="M98.16,29A22.53,22.53,0,1,1,75.63,6.46,22.52,22.52,0,0,1,98.16,29" transform="translate(0 0.01)" style="fill:#e5586a"/><path d="M98.13,29a22.5,22.5,0,1,1-22.5-22.5A22.5,22.5,0,0,1,98.13,29" transform="translate(0 0.01)" style="fill:#e5596a"/><path d="M98.09,29A22.46,22.46,0,1,1,75.63,6.53,22.46,22.46,0,0,1,98.09,29" transform="translate(0 0.01)" style="fill:#e65a6b"/><path d="M98.06,29A22.43,22.43,0,1,1,75.63,6.56,22.43,22.43,0,0,1,98.06,29" transform="translate(0 0.01)" style="fill:#e65b6c"/><path d="M98,29A22.4,22.4,0,1,1,75.63,6.6,22.4,22.4,0,0,1,98,29" transform="translate(0 0.01)" style="fill:#e65d6d"/><path d="M98,29A22.36,22.36,0,1,1,75.63,6.63,22.36,22.36,0,0,1,98,29" transform="translate(0 0.01)" style="fill:#e65e6e"/><path d="M98,29A22.33,22.33,0,1,1,75.63,6.67,22.33,22.33,0,0,1,98,29" transform="translate(0 0.01)" style="fill:#e65f6e"/><path d="M97.92,29A22.29,22.29,0,1,1,75.63,6.7,22.29,22.29,0,0,1,97.92,29" transform="translate(0 0.01)" style="fill:#e7606f"/><path d="M97.89,29A22.26,22.26,0,1,1,75.63,6.74,22.26,22.26,0,0,1,97.89,29" transform="translate(0 0.01)" style="fill:#e76170"/><path d="M97.85,29A22.22,22.22,0,1,1,75.63,6.77,22.22,22.22,0,0,1,97.85,29" transform="translate(0 0.01)" style="fill:#e76371"/><path d="M97.82,29A22.19,22.19,0,1,1,75.63,6.8,22.2,22.2,0,0,1,97.82,29" transform="translate(0 0.01)" style="fill:#e76472"/><path d="M97.78,29A22.15,22.15,0,1,1,75.63,6.84,22.14,22.14,0,0,1,97.78,29" transform="translate(0 0.01)" style="fill:#e76572"/><path d="M97.75,29A22.12,22.12,0,1,1,75.63,6.87,22.12,22.12,0,0,1,97.75,29" transform="translate(0 0.01)" style="fill:#e76673"/><path d="M97.71,29A22.08,22.08,0,1,1,75.63,6.91,22.07,22.07,0,0,1,97.71,29" transform="translate(0 0.01)" style="fill:#e76774"/><path d="M97.68,29a22.05,22.05,0,1,1-22.05-22A22,22,0,0,1,97.68,29" transform="translate(0 0.01)" style="fill:#e86875"/><path d="M97.64,29a22,22,0,1,1-22-22,22,22,0,0,1,22,22" transform="translate(0 0.01)" style="fill:#e86975"/><path d="M97.61,29a22,22,0,1,1-22-22,22,22,0,0,1,22,22" transform="translate(0 0.01)" style="fill:#e86a76"/><path d="M97.58,29a21.95,21.95,0,1,1-22-21.94A22,22,0,0,1,97.58,29" transform="translate(0 0.01)" style="fill:#e86b77"/><path d="M97.54,29A21.91,21.91,0,1,1,75.63,7.08,21.91,21.91,0,0,1,97.54,29" transform="translate(0 0.01)" style="fill:#e86c78"/><path d="M97.51,29A21.88,21.88,0,1,1,75.63,7.12,21.89,21.89,0,0,1,97.51,29" transform="translate(0 0.01)" style="fill:#e86d79"/><path d="M97.47,29A21.84,21.84,0,1,1,75.63,7.15,21.84,21.84,0,0,1,97.47,29" transform="translate(0 0.01)" style="fill:#e96e79"/><path d="M97.44,29A21.81,21.81,0,1,1,75.63,7.18,21.82,21.82,0,0,1,97.44,29" transform="translate(0 0.01)" style="fill:#e9707a"/><path d="M97.4,29A21.77,21.77,0,1,1,75.63,7.22,21.77,21.77,0,0,1,97.4,29" transform="translate(0 0.01)" style="fill:#e9717b"/><path d="M97.37,29A21.74,21.74,0,1,1,75.63,7.25,21.74,21.74,0,0,1,97.37,29" transform="translate(0 0.01)" style="fill:#e9727c"/><path d="M97.33,29a21.7,21.7,0,1,1-21.7-21.7A21.69,21.69,0,0,1,97.33,29" transform="translate(0 0.01)" style="fill:#e9737d"/><path d="M97.3,29A21.67,21.67,0,1,1,75.63,7.32,21.67,21.67,0,0,1,97.3,29" transform="translate(0 0.01)" style="fill:#e9747d"/><path d="M97.26,29A21.63,21.63,0,1,1,75.63,7.36,21.62,21.62,0,0,1,97.26,29" transform="translate(0 0.01)" style="fill:#ea757e"/><path d="M97.23,29a21.6,21.6,0,1,1-21.6-21.6A21.6,21.6,0,0,1,97.23,29" transform="translate(0 0.01)" style="fill:#ea767f"/><path d="M97.19,29A21.56,21.56,0,1,1,75.63,7.43,21.57,21.57,0,0,1,97.19,29" transform="translate(0 0.01)" style="fill:#ea7780"/><path d="M97.16,29A21.53,21.53,0,1,1,75.63,7.46,21.53,21.53,0,0,1,97.16,29" transform="translate(0 0.01)" style="fill:#ea7881"/><path d="M97.13,29A21.5,21.5,0,1,1,75.63,7.5,21.51,21.51,0,0,1,97.13,29" transform="translate(0 0.01)" style="fill:#ea7981"/><path d="M97.09,29A21.46,21.46,0,1,1,75.63,7.53,21.46,21.46,0,0,1,97.09,29" transform="translate(0 0.01)" style="fill:#ea7a82"/><path d="M97.06,29A21.43,21.43,0,1,1,75.63,7.57,21.44,21.44,0,0,1,97.06,29" transform="translate(0 0.01)" style="fill:#eb7c83"/><path d="M97,29A21.39,21.39,0,1,1,75.63,7.6,21.39,21.39,0,0,1,97,29" transform="translate(0 0.01)" style="fill:#eb7d84"/><path d="M97,29A21.36,21.36,0,1,1,75.63,7.64,21.36,21.36,0,0,1,97,29" transform="translate(0 0.01)" style="fill:#eb7e85"/><path d="M97,29A21.32,21.32,0,1,1,75.63,7.67,21.31,21.31,0,0,1,97,29" transform="translate(0 0.01)" style="fill:#eb7f85"/><path d="M96.92,29A21.29,21.29,0,1,1,75.63,7.7,21.29,21.29,0,0,1,96.92,29" transform="translate(0 0.01)" style="fill:#eb8086"/><path d="M96.88,29A21.25,21.25,0,1,1,75.63,7.74,21.24,21.24,0,0,1,96.88,29" transform="translate(0 0.01)" style="fill:#eb8187"/><path d="M96.85,29A21.22,21.22,0,1,1,75.63,7.77,21.22,21.22,0,0,1,96.85,29" transform="translate(0 0.01)" style="fill:#eb8288"/><path d="M96.81,29A21.18,21.18,0,1,1,75.63,7.81,21.19,21.19,0,0,1,96.81,29" transform="translate(0 0.01)" style="fill:#ec8389"/><path d="M96.78,29A21.15,21.15,0,1,1,75.63,7.84,21.15,21.15,0,0,1,96.78,29" transform="translate(0 0.01)" style="fill:#ec8489"/><path d="M96.75,29A21.12,21.12,0,1,1,75.63,7.88,21.13,21.13,0,0,1,96.75,29" transform="translate(0 0.01)" style="fill:#ec858a"/><path d="M96.71,29A21.08,21.08,0,1,1,75.63,7.91,21.08,21.08,0,0,1,96.71,29" transform="translate(0 0.01)" style="fill:#ec868b"/><path d="M96.68,29A21.05,21.05,0,1,1,75.63,8,21.06,21.06,0,0,1,96.68,29" transform="translate(0 0.01)" style="fill:#ec878c"/><path d="M96.64,29a21,21,0,1,1-21-21,21,21,0,0,1,21,21" transform="translate(0 0.01)" style="fill:#ec888d"/><path d="M96.61,29a21,21,0,1,1-21-21,21,21,0,0,1,21,21" transform="translate(0 0.01)" style="fill:#ed898e"/><path d="M96.57,29A20.94,20.94,0,1,1,75.63,8.05,20.93,20.93,0,0,1,96.57,29" transform="translate(0 0.01)" style="fill:#ed8a8e"/><path d="M96.54,29A20.91,20.91,0,1,1,75.63,8.08,20.91,20.91,0,0,1,96.54,29" transform="translate(0 0.01)" style="fill:#ed8b8f"/><path d="M96.5,29A20.87,20.87,0,1,1,75.63,8.12,20.87,20.87,0,0,1,96.5,29" transform="translate(0 0.01)" style="fill:#ed8c90"/><path d="M96.47,29A20.84,20.84,0,1,1,75.63,8.15,20.84,20.84,0,0,1,96.47,29" transform="translate(0 0.01)" style="fill:#ed8d91"/><path d="M96.43,29a20.8,20.8,0,1,1-20.8-20.8A20.8,20.8,0,0,1,96.43,29" transform="translate(0 0.01)" style="fill:#ed8d91"/><path d="M96.4,29A20.77,20.77,0,1,1,75.63,8.22,20.77,20.77,0,0,1,96.4,29" transform="translate(0 0.01)" style="fill:#ee8e92"/><path d="M96.36,29A20.73,20.73,0,1,1,75.63,8.26,20.74,20.74,0,0,1,96.36,29" transform="translate(0 0.01)" style="fill:#ee9093"/><path d="M96.33,29a20.7,20.7,0,1,1-20.7-20.7A20.7,20.7,0,0,1,96.33,29" transform="translate(0 0.01)" style="fill:#ee9094"/><path d="M96.3,29A20.67,20.67,0,1,1,75.63,8.33,20.68,20.68,0,0,1,96.3,29" transform="translate(0 0.01)" style="fill:#ee9195"/><path d="M96.26,29A20.63,20.63,0,1,1,75.63,8.36,20.63,20.63,0,0,1,96.26,29" transform="translate(0 0.01)" style="fill:#ee9296"/><path d="M96.23,29A20.6,20.6,0,1,1,75.63,8.4,20.6,20.6,0,0,1,96.23,29" transform="translate(0 0.01)" style="fill:#ee9497"/><path d="M96.19,29A20.56,20.56,0,1,1,75.63,8.43,20.55,20.55,0,0,1,96.19,29" transform="translate(0 0.01)" style="fill:#ee9497"/><path d="M96.16,29A20.53,20.53,0,1,1,75.63,8.47,20.53,20.53,0,0,1,96.16,29" transform="translate(0 0.01)" style="fill:#ee9598"/><path d="M96.12,29A20.49,20.49,0,1,1,75.63,8.5,20.49,20.49,0,0,1,96.12,29" transform="translate(0 0.01)" style="fill:#ef9699"/><path d="M96.09,29A20.46,20.46,0,1,1,75.63,8.53,20.46,20.46,0,0,1,96.09,29" transform="translate(0 0.01)" style="fill:#ef979a"/><path d="M96.05,29A20.42,20.42,0,1,1,75.63,8.57,20.42,20.42,0,0,1,96.05,29" transform="translate(0 0.01)" style="fill:#ef989b"/><path d="M96,29A20.39,20.39,0,1,1,75.63,8.6,20.39,20.39,0,0,1,96,29" transform="translate(0 0.01)" style="fill:#ef999c"/><path d="M96,29A20.35,20.35,0,1,1,75.63,8.64,20.35,20.35,0,0,1,96,29" transform="translate(0 0.01)" style="fill:#ef9a9c"/><path d="M96,29A20.32,20.32,0,1,1,75.63,8.67,20.32,20.32,0,0,1,96,29" transform="translate(0 0.01)" style="fill:#ef9b9d"/><path d="M95.91,29A20.28,20.28,0,1,1,75.63,8.71,20.29,20.29,0,0,1,95.91,29" transform="translate(0 0.01)" style="fill:#f09c9e"/><path d="M95.88,29A20.25,20.25,0,1,1,75.63,8.74,20.25,20.25,0,0,1,95.88,29" transform="translate(0 0.01)" style="fill:#f09d9f"/><path d="M95.84,29A20.21,20.21,0,1,1,75.63,8.78,20.21,20.21,0,0,1,95.84,29" transform="translate(0 0.01)" style="fill:#f09ea0"/><path d="M95.81,29A20.18,20.18,0,1,1,75.63,8.81,20.17,20.17,0,0,1,95.81,29" transform="translate(0 0.01)" style="fill:#f09fa0"/><path d="M95.78,29A20.15,20.15,0,1,1,75.63,8.85,20.15,20.15,0,0,1,95.78,29" transform="translate(0 0.01)" style="fill:#f0a0a1"/><path d="M95.74,29A20.11,20.11,0,1,1,75.63,8.88,20.11,20.11,0,0,1,95.74,29" transform="translate(0 0.01)" style="fill:#f0a1a2"/><path d="M95.71,29A20.08,20.08,0,1,1,75.63,8.92,20.08,20.08,0,0,1,95.71,29" transform="translate(0 0.01)" style="fill:#f0a2a3"/><path d="M95.67,29a20,20,0,1,1-20-20,20,20,0,0,1,20,20" transform="translate(0 0.01)" style="fill:#f1a3a4"/><path d="M95.64,29a20,20,0,1,1-20-20,20,20,0,0,1,20,20" transform="translate(0 0.01)" style="fill:#f1a4a5"/><path d="M95.6,29a20,20,0,1,1-20-20,20,20,0,0,1,20,20" transform="translate(0 0.01)" style="fill:#f1a4a5"/><path d="M95.57,29A19.94,19.94,0,1,1,75.63,9.05,19.94,19.94,0,0,1,95.57,29" transform="translate(0 0.01)" style="fill:#f1a5a6"/><path d="M95.53,29a19.9,19.9,0,1,1-19.9-19.9A19.9,19.9,0,0,1,95.53,29" transform="translate(0 0.01)" style="fill:#f1a6a7"/><path d="M95.5,29A19.87,19.87,0,1,1,75.63,9.12,19.87,19.87,0,0,1,95.5,29" transform="translate(0 0.01)" style="fill:#f1a7a8"/><path d="M95.46,29A19.83,19.83,0,1,1,75.63,9.16,19.83,19.83,0,0,1,95.46,29" transform="translate(0 0.01)" style="fill:#f1a8a9"/><path d="M95.43,29a19.8,19.8,0,1,1-19.8-19.8A19.79,19.79,0,0,1,95.43,29" transform="translate(0 0.01)" style="fill:#f1a9aa"/><path d="M95.4,29A19.77,19.77,0,1,1,75.63,9.23,19.77,19.77,0,0,1,95.4,29" transform="translate(0 0.01)" style="fill:#f2aaaa"/><path d="M95.36,29A19.73,19.73,0,1,1,75.63,9.26,19.73,19.73,0,0,1,95.36,29" transform="translate(0 0.01)" style="fill:#f2abab"/><path d="M95.33,29A19.7,19.7,0,1,1,75.63,9.3,19.7,19.7,0,0,1,95.33,29" transform="translate(0 0.01)" style="fill:#f2acac"/><path d="M95.29,29A19.66,19.66,0,1,1,75.63,9.33,19.66,19.66,0,0,1,95.29,29" transform="translate(0 0.01)" style="fill:#f2adad"/><path d="M95.26,29A19.63,19.63,0,1,1,75.63,9.37,19.63,19.63,0,0,1,95.26,29" transform="translate(0 0.01)" style="fill:#f2aeae"/><path d="M95.22,29A19.59,19.59,0,1,1,75.63,9.4,19.59,19.59,0,0,1,95.22,29" transform="translate(0 0.01)" style="fill:#f2aeaf"/><path d="M95.19,29A19.56,19.56,0,1,1,75.63,9.43,19.56,19.56,0,0,1,95.19,29" transform="translate(0 0.01)" style="fill:#f2afaf"/><path d="M95.15,29A19.52,19.52,0,1,1,75.63,9.47,19.52,19.52,0,0,1,95.15,29" transform="translate(0 0.01)" style="fill:#f3b0b0"/><path d="M95.12,29A19.49,19.49,0,1,1,75.63,9.5,19.5,19.5,0,0,1,95.12,29" transform="translate(0 0.01)" style="fill:#f3b1b1"/><path d="M95.08,29A19.45,19.45,0,1,1,75.63,9.54,19.45,19.45,0,0,1,95.08,29" transform="translate(0 0.01)" style="fill:#f3b2b2"/><path d="M95.05,29A19.42,19.42,0,1,1,75.63,9.57,19.41,19.41,0,0,1,95.05,29" transform="translate(0 0.01)" style="fill:#f3b3b3"/><path d="M95,29A19.38,19.38,0,1,1,75.63,9.61,19.38,19.38,0,0,1,95,29" transform="translate(0 0.01)" style="fill:#f3b4b4"/><path d="M95,29A19.35,19.35,0,1,1,75.63,9.64,19.35,19.35,0,0,1,95,29" transform="translate(0 0.01)" style="fill:#f3b5b4"/><path d="M95,29A19.32,19.32,0,1,1,75.63,9.68,19.32,19.32,0,0,1,95,29" transform="translate(0 0.01)" style="fill:#f4b5b5"/><path d="M94.91,29A19.28,19.28,0,1,1,75.63,9.71,19.28,19.28,0,0,1,94.91,29" transform="translate(0 0.01)" style="fill:#f4b6b6"/><path d="M94.88,29A19.25,19.25,0,1,1,75.63,9.75,19.25,19.25,0,0,1,94.88,29" transform="translate(0 0.01)" style="fill:#f4b7b7"/><path d="M94.84,29A19.21,19.21,0,1,1,75.63,9.78,19.21,19.21,0,0,1,94.84,29" transform="translate(0 0.01)" style="fill:#f4b8b8"/><path d="M94.81,29A19.18,19.18,0,1,1,75.63,9.82,19.18,19.18,0,0,1,94.81,29" transform="translate(0 0.01)" style="fill:#f4b9b9"/><path d="M94.77,29A19.14,19.14,0,1,1,75.63,9.85,19.14,19.14,0,0,1,94.77,29" transform="translate(0 0.01)" style="fill:#f4bab9"/><path d="M94.74,29A19.11,19.11,0,1,1,75.63,9.88,19.12,19.12,0,0,1,94.74,29" transform="translate(0 0.01)" style="fill:#f4bbba"/><path d="M94.7,29A19.07,19.07,0,1,1,75.63,9.92,19.07,19.07,0,0,1,94.7,29" transform="translate(0 0.01)" style="fill:#f4bcbb"/><path d="M94.67,29a19,19,0,1,1-19-19,19,19,0,0,1,19,19" transform="translate(0 0.01)" style="fill:#f5bcbc"/><path d="M94.63,29a19,19,0,1,1-19-19,19,19,0,0,1,19,19" transform="translate(0 0.01)" style="fill:#f5bdbc"/><path d="M94.6,29a19,19,0,1,1-19-19,19,19,0,0,1,19,19" transform="translate(0 0.01)" style="fill:#f5bebd"/><path d="M94.56,29A18.93,18.93,0,1,1,75.63,10.06,18.93,18.93,0,0,1,94.56,29" transform="translate(0 0.01)" style="fill:#f5bfbe"/><path d="M94.53,29a18.9,18.9,0,1,1-18.9-18.9A18.9,18.9,0,0,1,94.53,29" transform="translate(0 0.01)" style="fill:#f5c0bf"/><path d="M94.5,29A18.87,18.87,0,1,1,75.63,10.13,18.87,18.87,0,0,1,94.5,29" transform="translate(0 0.01)" style="fill:#f5c1c0"/><path d="M94.46,29A18.83,18.83,0,1,1,75.63,10.16,18.83,18.83,0,0,1,94.46,29" transform="translate(0 0.01)" style="fill:#f5c1c0"/><path d="M94.43,29A18.8,18.8,0,1,1,75.63,10.2,18.8,18.8,0,0,1,94.43,29" transform="translate(0 0.01)" style="fill:#f5c2c1"/><path d="M94.39,29A18.76,18.76,0,1,1,75.63,10.23,18.76,18.76,0,0,1,94.39,29" transform="translate(0 0.01)" style="fill:#f6c3c2"/><path d="M94.36,29A18.73,18.73,0,1,1,75.63,10.26,18.74,18.74,0,0,1,94.36,29" transform="translate(0 0.01)" style="fill:#f6c4c3"/><path d="M94.32,29A18.69,18.69,0,1,1,75.63,10.3,18.69,18.69,0,0,1,94.32,29" transform="translate(0 0.01)" style="fill:#f6c5c4"/><path d="M94.29,29A18.66,18.66,0,1,1,75.63,10.33,18.66,18.66,0,0,1,94.29,29" transform="translate(0 0.01)" style="fill:#f6c6c4"/><path d="M94.25,29A18.62,18.62,0,1,1,75.63,10.37,18.61,18.61,0,0,1,94.25,29" transform="translate(0 0.01)" style="fill:#f6c6c5"/><path d="M94.22,29A18.59,18.59,0,1,1,75.63,10.4,18.59,18.59,0,0,1,94.22,29" transform="translate(0 0.01)" style="fill:#f6c7c6"/><path d="M94.18,29A18.55,18.55,0,1,1,75.63,10.44,18.55,18.55,0,0,1,94.18,29" transform="translate(0 0.01)" style="fill:#f7c8c7"/><path d="M94.15,29A18.52,18.52,0,1,1,75.63,10.47,18.52,18.52,0,0,1,94.15,29" transform="translate(0 0.01)" style="fill:#f7c9c7"/><path d="M94.11,29A18.48,18.48,0,1,1,75.63,10.51,18.48,18.48,0,0,1,94.11,29" transform="translate(0 0.01)" style="fill:#f7c9c8"/><path d="M94.08,29A18.45,18.45,0,1,1,75.63,10.54,18.45,18.45,0,0,1,94.08,29" transform="translate(0 0.01)" style="fill:#f7cac9"/><path d="M94.05,29A18.42,18.42,0,1,1,75.63,10.58,18.42,18.42,0,0,1,94.05,29" transform="translate(0 0.01)" style="fill:#f7cbca"/><path d="M94,29A18.38,18.38,0,1,1,75.63,10.61,18.38,18.38,0,0,1,94,29" transform="translate(0 0.01)" style="fill:#f7ccca"/><path d="M94,29A18.35,18.35,0,1,1,75.63,10.65,18.36,18.36,0,0,1,94,29" transform="translate(0 0.01)" style="fill:#f7cdcb"/><path d="M93.94,29A18.31,18.31,0,1,1,75.63,10.68,18.31,18.31,0,0,1,93.94,29" transform="translate(0 0.01)" style="fill:#f7cdcc"/><path d="M93.91,29A18.28,18.28,0,1,1,75.63,10.71,18.28,18.28,0,0,1,93.91,29" transform="translate(0 0.01)" style="fill:#f7cecd"/><path d="M93.87,29A18.24,18.24,0,1,1,75.63,10.75,18.23,18.23,0,0,1,93.87,29" transform="translate(0 0.01)" style="fill:#f8cfcd"/><path d="M93.84,29A18.21,18.21,0,1,1,75.63,10.78,18.21,18.21,0,0,1,93.84,29" transform="translate(0 0.01)" style="fill:#f8d0ce"/><path d="M93.8,29A18.17,18.17,0,1,1,75.63,10.82,18.16,18.16,0,0,1,93.8,29" transform="translate(0 0.01)" style="fill:#f8d1cf"/><path d="M93.77,29A18.14,18.14,0,1,1,75.63,10.85,18.14,18.14,0,0,1,93.77,29" transform="translate(0 0.01)" style="fill:#f8d1d0"/><path d="M93.73,29a18.1,18.1,0,1,1-18.1-18.1A18.1,18.1,0,0,1,93.73,29" transform="translate(0 0.01)" style="fill:#f8d2d1"/><path d="M93.7,29A18.07,18.07,0,1,1,75.63,10.92,18.07,18.07,0,0,1,93.7,29" transform="translate(0 0.01)" style="fill:#f8d3d1"/><path d="M93.67,29a18,18,0,1,1-18-18,18,18,0,0,1,18,18" transform="translate(0 0.01)" style="fill:#f8d3d2"/><path d="M93.63,29a18,18,0,1,1-18-18,18,18,0,0,1,18,18" transform="translate(0 0.01)" style="fill:#f8d4d3"/><path d="M93.6,29a18,18,0,1,1-18-18,18,18,0,0,1,18,18" transform="translate(0 0.01)" style="fill:#f9d5d4"/><path d="M93.56,29A17.93,17.93,0,1,1,75.63,11.06,17.93,17.93,0,0,1,93.56,29" transform="translate(0 0.01)" style="fill:#f9d6d4"/><path d="M93.53,29A17.9,17.9,0,1,1,75.63,11.1,17.9,17.9,0,0,1,93.53,29" transform="translate(0 0.01)" style="fill:#f9d6d5"/><path d="M93.49,29A17.86,17.86,0,1,1,75.63,11.13,17.85,17.85,0,0,1,93.49,29" transform="translate(0 0.01)" style="fill:#f9d7d6"/><path d="M93.46,29A17.83,17.83,0,1,1,75.63,11.16,17.83,17.83,0,0,1,93.46,29" transform="translate(0 0.01)" style="fill:#f9d8d7"/><path d="M93.42,29A17.79,17.79,0,1,1,75.63,11.2,17.78,17.78,0,0,1,93.42,29" transform="translate(0 0.01)" style="fill:#f9d9d7"/><path d="M93.39,29A17.76,17.76,0,1,1,75.63,11.23,17.76,17.76,0,0,1,93.39,29" transform="translate(0 0.01)" style="fill:#f9d9d8"/><path d="M93.35,29A17.72,17.72,0,1,1,75.63,11.27,17.72,17.72,0,0,1,93.35,29" transform="translate(0 0.01)" style="fill:#f9dad9"/><path d="M93.32,29A17.69,17.69,0,1,1,75.63,11.3,17.69,17.69,0,0,1,93.32,29" transform="translate(0 0.01)" style="fill:#f9dbd9"/><path d="M93.28,29A17.65,17.65,0,1,1,75.63,11.34,17.66,17.66,0,0,1,93.28,29" transform="translate(0 0.01)" style="fill:#fadcda"/><path d="M93.25,29A17.62,17.62,0,1,1,75.63,11.37,17.62,17.62,0,0,1,93.25,29" transform="translate(0 0.01)" style="fill:#fadcdb"/><path d="M93.21,29A17.58,17.58,0,1,1,75.63,11.41,17.59,17.59,0,0,1,93.21,29" transform="translate(0 0.01)" style="fill:#fadddc"/><path d="M93.18,29A17.55,17.55,0,1,1,75.63,11.44,17.55,17.55,0,0,1,93.18,29" transform="translate(0 0.01)" style="fill:#fadedd"/><path d="M93.15,29A17.52,17.52,0,1,1,75.63,11.48,17.53,17.53,0,0,1,93.15,29" transform="translate(0 0.01)" style="fill:#fadedd"/><path d="M93.11,29A17.48,17.48,0,1,1,75.63,11.51,17.47,17.47,0,0,1,93.11,29" transform="translate(0 0.01)" style="fill:#fadfde"/><path d="M93.08,29A17.45,17.45,0,1,1,75.63,11.55,17.45,17.45,0,0,1,93.08,29" transform="translate(0 0.01)" style="fill:#fae0df"/><path d="M93,29A17.41,17.41,0,1,1,75.63,11.58,17.4,17.4,0,0,1,93,29" transform="translate(0 0.01)" style="fill:#fae0df"/><path d="M93,29A17.38,17.38,0,1,1,75.63,11.61,17.38,17.38,0,0,1,93,29" transform="translate(0 0.01)" style="fill:#fbe1e0"/><path d="M93,29A17.34,17.34,0,1,1,75.63,11.65,17.34,17.34,0,0,1,93,29" transform="translate(0 0.01)" style="fill:#fbe2e1"/><path d="M92.94,29A17.31,17.31,0,1,1,75.63,11.68,17.31,17.31,0,0,1,92.94,29" transform="translate(0 0.01)" style="fill:#fbe3e1"/><path d="M92.9,29A17.27,17.27,0,1,1,75.63,11.72,17.27,17.27,0,0,1,92.9,29" transform="translate(0 0.01)" style="fill:#fbe3e2"/><path d="M92.87,29A17.24,17.24,0,1,1,75.63,11.75,17.24,17.24,0,0,1,92.87,29" transform="translate(0 0.01)" style="fill:#fbe4e3"/><path d="M92.83,29a17.2,17.2,0,1,1-17.2-17.2A17.21,17.21,0,0,1,92.83,29" transform="translate(0 0.01)" style="fill:#fbe5e4"/><path d="M92.8,29A17.17,17.17,0,1,1,75.63,11.82,17.17,17.17,0,0,1,92.8,29" transform="translate(0 0.01)" style="fill:#fbe5e4"/><path d="M92.76,29A17.13,17.13,0,1,1,75.63,11.86,17.14,17.14,0,0,1,92.76,29" transform="translate(0 0.01)" style="fill:#fbe6e5"/><path d="M92.73,29a17.1,17.1,0,1,1-17.1-17.1A17.1,17.1,0,0,1,92.73,29" transform="translate(0 0.01)" style="fill:#fbe7e6"/><path d="M92.7,29A17.07,17.07,0,1,1,75.63,11.93,17.07,17.07,0,0,1,92.7,29" transform="translate(0 0.01)" style="fill:#fce7e7"/><path d="M92.66,29a17,17,0,1,1-17-17,17,17,0,0,1,17,17" transform="translate(0 0.01)" style="fill:#fce8e7"/><path d="M92.63,29a17,17,0,1,1-17-17,17,17,0,0,1,17,17" transform="translate(0 0.01)" style="fill:#fce9e8"/><path d="M92.59,29a17,17,0,1,1-17-17,17,17,0,0,1,17,17" transform="translate(0 0.01)" style="fill:#fce9e9"/><path d="M92.56,29A16.93,16.93,0,1,1,75.63,12.06,16.93,16.93,0,0,1,92.56,29" transform="translate(0 0.01)" style="fill:#fceae9"/><path d="M92.52,29A16.89,16.89,0,1,1,75.63,12.1,16.89,16.89,0,0,1,92.52,29" transform="translate(0 0.01)" style="fill:#fcebea"/><path d="M92.49,29A16.86,16.86,0,1,1,75.63,12.13,16.86,16.86,0,0,1,92.49,29" transform="translate(0 0.01)" style="fill:#fcebeb"/><path d="M92.45,29A16.82,16.82,0,1,1,75.63,12.17,16.82,16.82,0,0,1,92.45,29" transform="translate(0 0.01)" style="fill:#fceceb"/><path d="M92.42,29A16.79,16.79,0,1,1,75.63,12.2,16.79,16.79,0,0,1,92.42,29" transform="translate(0 0.01)" style="fill:#fcecec"/><path d="M92.39,29A16.76,16.76,0,1,1,75.63,12.24,16.77,16.77,0,0,1,92.39,29" transform="translate(0 0.01)" style="fill:#fceded"/><path d="M92.35,29A16.72,16.72,0,1,1,75.63,12.27,16.72,16.72,0,0,1,92.35,29" transform="translate(0 0.01)" style="fill:#fdeeed"/><path d="M92.32,29A16.69,16.69,0,1,1,75.63,12.31,16.69,16.69,0,0,1,92.32,29" transform="translate(0 0.01)" style="fill:#fdeeee"/><path d="M92.28,29A16.65,16.65,0,1,1,75.63,12.34,16.64,16.64,0,0,1,92.28,29" transform="translate(0 0.01)" style="fill:#fdefef"/><path d="M92.25,29A16.62,16.62,0,1,1,75.63,12.38,16.62,16.62,0,0,1,92.25,29" transform="translate(0 0.01)" style="fill:#fdf0ef"/><path d="M92.21,29A16.58,16.58,0,1,1,75.63,12.41,16.58,16.58,0,0,1,92.21,29" transform="translate(0 0.01)" style="fill:#fdf0f0"/><path d="M92.18,29A16.55,16.55,0,1,1,75.63,12.45,16.55,16.55,0,0,1,92.18,29" transform="translate(0 0.01)" style="fill:#fdf1f0"/><path d="M92.14,29A16.51,16.51,0,1,1,75.63,12.48,16.51,16.51,0,0,1,92.14,29" transform="translate(0 0.01)" style="fill:#fdf2f1"/><path d="M92.11,29A16.48,16.48,0,1,1,75.63,12.51,16.48,16.48,0,0,1,92.11,29" transform="translate(0 0.01)" style="fill:#fdf2f2"/><path d="M92.07,29A16.44,16.44,0,1,1,75.63,12.55,16.44,16.44,0,0,1,92.07,29" transform="translate(0 0.01)" style="fill:#fdf3f2"/><path d="M92,29A16.41,16.41,0,1,1,75.63,12.58,16.41,16.41,0,0,1,92,29" transform="translate(0 0.01)" style="fill:#fdf3f3"/><path d="M92,29A16.37,16.37,0,1,1,75.63,12.62,16.38,16.38,0,0,1,92,29" transform="translate(0 0.01)" style="fill:#fef4f4"/><path d="M92,29A16.34,16.34,0,1,1,75.63,12.65,16.35,16.35,0,0,1,92,29" transform="translate(0 0.01)" style="fill:#fef4f4"/><path d="M91.93,29a16.3,16.3,0,1,1-16.3-16.3A16.31,16.31,0,0,1,91.93,29" transform="translate(0 0.01)" style="fill:#fef5f5"/><path d="M91.9,29A16.27,16.27,0,1,1,75.63,12.72,16.26,16.26,0,0,1,91.9,29" transform="translate(0 0.01)" style="fill:#fef6f5"/><path d="M91.87,29A16.24,16.24,0,1,1,75.63,12.76,16.24,16.24,0,0,1,91.87,29" transform="translate(0 0.01)" style="fill:#fef6f6"/><path d="M91.83,29a16.2,16.2,0,1,1-16.2-16.2A16.2,16.2,0,0,1,91.83,29" transform="translate(0 0.01)" style="fill:#fef7f7"/><path d="M91.8,29A16.17,16.17,0,1,1,75.63,12.83,16.17,16.17,0,0,1,91.8,29" transform="translate(0 0.01)" style="fill:#fef8f7"/><path d="M91.76,29A16.13,16.13,0,1,1,75.63,12.86,16.13,16.13,0,0,1,91.76,29" transform="translate(0 0.01)" style="fill:#fef8f8"/><path d="M91.73,29a16.1,16.1,0,1,1-16.1-16.1A16.1,16.1,0,0,1,91.73,29" transform="translate(0 0.01)" style="fill:#fef9f8"/><path d="M91.69,29A16.06,16.06,0,1,1,75.63,12.93,16.06,16.06,0,0,1,91.69,29" transform="translate(0 0.01)" style="fill:#fef9f9"/><path d="M91.66,29a16,16,0,1,1-16-16,16,16,0,0,1,16,16" transform="translate(0 0.01)" style="fill:#fefafa"/><path d="M91.62,29a16,16,0,1,1-16-16,16,16,0,0,1,16,16" transform="translate(0 0.01)" style="fill:#fefafa"/><path d="M91.59,29a16,16,0,1,1-16-16,16,16,0,0,1,16,16" transform="translate(0 0.01)" style="fill:#fefbfb"/><path d="M91.55,29A15.92,15.92,0,1,1,75.63,13.07,15.92,15.92,0,0,1,91.55,29" transform="translate(0 0.01)" style="fill:#fffbfb"/><path d="M91.52,29A15.89,15.89,0,1,1,75.63,13.1,15.88,15.88,0,0,1,91.52,29" transform="translate(0 0.01)" style="fill:#fffcfc"/><path d="M91.48,29A15.85,15.85,0,1,1,75.63,13.14,15.85,15.85,0,0,1,91.48,29" transform="translate(0 0.01)" style="fill:#fffcfc"/><path d="M91.45,29A15.82,15.82,0,1,1,75.63,13.17,15.82,15.82,0,0,1,91.45,29" transform="translate(0 0.01)" style="fill:#fffdfd"/><path d="M91.42,29A15.79,15.79,0,1,1,75.63,13.21,15.79,15.79,0,0,1,91.42,29" transform="translate(0 0.01)" style="fill:#fffdfd"/><path d="M91.38,29A15.75,15.75,0,1,1,75.63,13.24,15.75,15.75,0,0,1,91.38,29" transform="translate(0 0.01)" style="fill:#fffefd"/><path d="M91.35,29A15.72,15.72,0,1,1,75.63,13.28,15.72,15.72,0,0,1,91.35,29" transform="translate(0 0.01)" style="fill:#fffefe"/><path d="M91.31,29A15.68,15.68,0,1,1,75.63,13.31,15.68,15.68,0,0,1,91.31,29" transform="translate(0 0.01)" style="fill:#fffefe"/><path d="M91.28,29A15.65,15.65,0,1,1,75.63,13.35,15.65,15.65,0,0,1,91.28,29" transform="translate(0 0.01)" style="fill:#fff"/><path d="M91.24,29A15.61,15.61,0,1,1,75.63,13.38,15.61,15.61,0,0,1,91.24,29" transform="translate(0 0.01)" style="fill:#fff"/></g><path d="M93.57,28.47a17.7,17.7,0,1,0-17.7,17.7,17.7,17.7,0,0,0,17.7-17.7" transform="translate(0 0.01)" style="fill:#fff"/><g style="clip-path:url(#clip-path-2)"><rect x="59.47" y="12.07" width="32.81" height="32.81" style="fill:silver"/><path d="M92.27,28.47a16.4,16.4,0,1,1-16.4-16.41,16.4,16.4,0,0,1,16.4,16.41" transform="translate(0 0.01)" style="fill:silver"/><path d="M92.21,28.47A16.34,16.34,0,1,1,75.87,12.12,16.34,16.34,0,0,1,92.21,28.47" transform="translate(0 0.01)" style="fill:#c2c2c2"/><path d="M92.15,28.47A16.28,16.28,0,1,1,75.87,12.18,16.28,16.28,0,0,1,92.15,28.47" transform="translate(0 0.01)" style="fill:#c5c4c4"/><path d="M92.09,28.47A16.23,16.23,0,1,1,75.87,12.24,16.22,16.22,0,0,1,92.09,28.47" transform="translate(0 0.01)" style="fill:#c7c6c6"/><path d="M92,28.47A16.17,16.17,0,1,1,75.87,12.3,16.16,16.16,0,0,1,92,28.47" transform="translate(0 0.01)" style="fill:#c8c8c8"/><path d="M92,28.47a16.11,16.11,0,1,1-16.1-16.11A16.1,16.1,0,0,1,92,28.47" transform="translate(0 0.01)" style="fill:#cacaca"/><path d="M91.92,28.47a16,16,0,1,1-16-16,16,16,0,0,1,16,16" transform="translate(0 0.01)" style="fill:#ccc"/><path d="M91.86,28.47a16,16,0,1,1-16-16,16,16,0,0,1,16,16" transform="translate(0 0.01)" style="fill:#cecece"/><path d="M91.8,28.47A15.93,15.93,0,1,1,75.87,12.54,15.93,15.93,0,0,1,91.8,28.47" transform="translate(0 0.01)" style="fill:#d0d0d0"/><path d="M91.74,28.47A15.87,15.87,0,1,1,75.87,12.6,15.87,15.87,0,0,1,91.74,28.47" transform="translate(0 0.01)" style="fill:#d2d2d1"/><path d="M91.68,28.47A15.81,15.81,0,1,1,75.87,12.66,15.8,15.8,0,0,1,91.68,28.47" transform="translate(0 0.01)" style="fill:#d3d3d3"/><path d="M91.62,28.47A15.75,15.75,0,1,1,75.87,12.72,15.75,15.75,0,0,1,91.62,28.47" transform="translate(0 0.01)" style="fill:#d5d5d5"/><path d="M91.56,28.47A15.69,15.69,0,1,1,75.87,12.78,15.69,15.69,0,0,1,91.56,28.47" transform="translate(0 0.01)" style="fill:#d7d7d6"/><path d="M91.5,28.47A15.63,15.63,0,1,1,75.87,12.84,15.63,15.63,0,0,1,91.5,28.47" transform="translate(0 0.01)" style="fill:#d8d8d8"/><path d="M91.44,28.47A15.57,15.57,0,1,1,75.87,12.9,15.57,15.57,0,0,1,91.44,28.47" transform="translate(0 0.01)" style="fill:#dadad9"/><path d="M91.38,28.47A15.51,15.51,0,1,1,75.87,13,15.51,15.51,0,0,1,91.38,28.47" transform="translate(0 0.01)" style="fill:#dbdbdb"/><path d="M91.32,28.47A15.45,15.45,0,1,1,75.87,13,15.45,15.45,0,0,1,91.32,28.47" transform="translate(0 0.01)" style="fill:#dddcdc"/><path d="M91.26,28.47A15.39,15.39,0,1,1,75.87,13.08,15.39,15.39,0,0,1,91.26,28.47" transform="translate(0 0.01)" style="fill:#dedede"/><path d="M91.2,28.47A15.33,15.33,0,1,1,75.87,13.13,15.33,15.33,0,0,1,91.2,28.47" transform="translate(0 0.01)" style="fill:#dfdfdf"/><path d="M91.14,28.47A15.27,15.27,0,1,1,75.87,13.19,15.27,15.27,0,0,1,91.14,28.47" transform="translate(0 0.01)" style="fill:#e0e0e0"/><path d="M91.08,28.47A15.21,15.21,0,1,1,75.87,13.25,15.21,15.21,0,0,1,91.08,28.47" transform="translate(0 0.01)" style="fill:#e2e2e2"/><path d="M91,28.47A15.15,15.15,0,1,1,75.87,13.31,15.15,15.15,0,0,1,91,28.47" transform="translate(0 0.01)" style="fill:#e3e3e3"/><path d="M91,28.47a15.09,15.09,0,1,1-15.09-15.1A15.09,15.09,0,0,1,91,28.47" transform="translate(0 0.01)" style="fill:#e4e4e4"/><path d="M90.9,28.47a15,15,0,1,1-15-15,15,15,0,0,1,15,15" transform="translate(0 0.01)" style="fill:#e5e5e5"/><path d="M90.84,28.47a15,15,0,1,1-15-15,15,15,0,0,1,15,15" transform="translate(0 0.01)" style="fill:#e6e6e6"/><path d="M90.78,28.47A14.92,14.92,0,1,1,75.87,13.55,14.91,14.91,0,0,1,90.78,28.47" transform="translate(0 0.01)" style="fill:#e7e7e7"/><path d="M90.72,28.47A14.86,14.86,0,1,1,75.87,13.61,14.85,14.85,0,0,1,90.72,28.47" transform="translate(0 0.01)" style="fill:#e9e9e8"/><path d="M90.66,28.47a14.8,14.8,0,1,1-14.79-14.8,14.79,14.79,0,0,1,14.79,14.8" transform="translate(0 0.01)" style="fill:#eaeaea"/><path d="M90.6,28.47A14.74,14.74,0,1,1,75.87,13.73,14.73,14.73,0,0,1,90.6,28.47" transform="translate(0 0.01)" style="fill:#ebebea"/><path d="M90.55,28.47A14.68,14.68,0,1,1,75.87,13.79,14.67,14.67,0,0,1,90.55,28.47" transform="translate(0 0.01)" style="fill:#ececeb"/><path d="M90.49,28.47A14.62,14.62,0,1,1,75.87,13.85,14.62,14.62,0,0,1,90.49,28.47" transform="translate(0 0.01)" style="fill:#ececec"/><path d="M90.43,28.47A14.56,14.56,0,1,1,75.87,13.91,14.55,14.55,0,0,1,90.43,28.47" transform="translate(0 0.01)" style="fill:#ededed"/><path d="M90.37,28.47A14.5,14.5,0,1,1,75.87,14a14.5,14.5,0,0,1,14.5,14.5" transform="translate(0 0.01)" style="fill:#eee"/><path d="M90.31,28.47A14.44,14.44,0,1,1,75.87,14,14.44,14.44,0,0,1,90.31,28.47" transform="translate(0 0.01)" style="fill:#efefef"/><path d="M90.25,28.47A14.38,14.38,0,1,1,75.87,14.09,14.37,14.37,0,0,1,90.25,28.47" transform="translate(0 0.01)" style="fill:#f0f0f0"/><path d="M90.19,28.47A14.32,14.32,0,1,1,75.87,14.15,14.32,14.32,0,0,1,90.19,28.47" transform="translate(0 0.01)" style="fill:#f1f1f1"/><path d="M90.13,28.47A14.26,14.26,0,1,1,75.87,14.21,14.27,14.27,0,0,1,90.13,28.47" transform="translate(0 0.01)" style="fill:#f2f2f2"/><path d="M90.07,28.47a14.2,14.2,0,1,1-14.2-14.2,14.2,14.2,0,0,1,14.2,14.2" transform="translate(0 0.01)" style="fill:#f2f2f2"/><path d="M90,28.47A14.14,14.14,0,1,1,75.87,14.33,14.14,14.14,0,0,1,90,28.47" transform="translate(0 0.01)" style="fill:#f3f3f3"/><path d="M90,28.47A14.08,14.08,0,1,1,75.87,14.38,14.08,14.08,0,0,1,90,28.47" transform="translate(0 0.01)" style="fill:#f4f4f4"/><path d="M89.89,28.47a14,14,0,1,1-14-14,14,14,0,0,1,14,14" transform="translate(0 0.01)" style="fill:#f4f4f4"/><path d="M89.83,28.47a14,14,0,1,1-14-14,14,14,0,0,1,14,14" transform="translate(0 0.01)" style="fill:#f5f5f5"/><path d="M89.77,28.47a13.9,13.9,0,1,1-13.9-13.91,13.9,13.9,0,0,1,13.9,13.91" transform="translate(0 0.01)" style="fill:#f6f6f6"/><path d="M89.71,28.47A13.84,13.84,0,1,1,75.87,14.62,13.84,13.84,0,0,1,89.71,28.47" transform="translate(0 0.01)" style="fill:#f6f6f6"/><path d="M89.65,28.47A13.78,13.78,0,1,1,75.87,14.68,13.78,13.78,0,0,1,89.65,28.47" transform="translate(0 0.01)" style="fill:#f7f7f7"/><path d="M89.59,28.47A13.73,13.73,0,1,1,75.87,14.74,13.72,13.72,0,0,1,89.59,28.47" transform="translate(0 0.01)" style="fill:#f7f7f7"/><path d="M89.53,28.47A13.67,13.67,0,1,1,75.87,14.8,13.66,13.66,0,0,1,89.53,28.47" transform="translate(0 0.01)" style="fill:#f8f8f8"/><path d="M89.47,28.47a13.61,13.61,0,1,1-13.6-13.61,13.6,13.6,0,0,1,13.6,13.61" transform="translate(0 0.01)" style="fill:#f9f8f8"/><path d="M89.41,28.47A13.55,13.55,0,1,1,75.87,14.92,13.54,13.54,0,0,1,89.41,28.47" transform="translate(0 0.01)" style="fill:#f9f9f9"/><path d="M89.35,28.47A13.49,13.49,0,1,1,75.87,15,13.48,13.48,0,0,1,89.35,28.47" transform="translate(0 0.01)" style="fill:#f9f9f9"/><path d="M89.3,28.47A13.43,13.43,0,1,1,75.87,15,13.43,13.43,0,0,1,89.3,28.47" transform="translate(0 0.01)" style="fill:#fafafa"/><path d="M89.24,28.47A13.37,13.37,0,1,1,75.87,15.1,13.37,13.37,0,0,1,89.24,28.47" transform="translate(0 0.01)" style="fill:#fafafa"/><path d="M89.18,28.47A13.31,13.31,0,1,1,75.87,15.16,13.3,13.3,0,0,1,89.18,28.47" transform="translate(0 0.01)" style="fill:#fbfbfb"/><path d="M89.12,28.47A13.25,13.25,0,1,1,75.87,15.22,13.25,13.25,0,0,1,89.12,28.47" transform="translate(0 0.01)" style="fill:#fbfbfb"/><path d="M89.06,28.47A13.19,13.19,0,1,1,75.87,15.28,13.19,13.19,0,0,1,89.06,28.47" transform="translate(0 0.01)" style="fill:#fbfbfb"/><path d="M89,28.47A13.13,13.13,0,1,1,75.87,15.34,13.12,13.12,0,0,1,89,28.47" transform="translate(0 0.01)" style="fill:#fcfcfc"/><path d="M88.94,28.47A13.07,13.07,0,1,1,75.87,15.4,13.07,13.07,0,0,1,88.94,28.47" transform="translate(0 0.01)" style="fill:#fcfcfc"/><path d="M88.88,28.47a13,13,0,1,1-13-13,13,13,0,0,1,13,13" transform="translate(0 0.01)" style="fill:#fcfcfc"/><path d="M88.82,28.47A12.95,12.95,0,1,1,75.87,15.52a13,13,0,0,1,12.95,13" transform="translate(0 0.01)" style="fill:#fdfdfd"/><path d="M88.76,28.47A12.89,12.89,0,1,1,75.87,15.58,12.89,12.89,0,0,1,88.76,28.47" transform="translate(0 0.01)" style="fill:#fdfdfd"/><path d="M88.7,28.47A12.83,12.83,0,1,1,75.87,15.64,12.83,12.83,0,0,1,88.7,28.47" transform="translate(0 0.01)" style="fill:#fdfdfd"/><path d="M88.64,28.47A12.77,12.77,0,1,1,75.87,15.7,12.77,12.77,0,0,1,88.64,28.47" transform="translate(0 0.01)" style="fill:#fdfdfd"/><path d="M88.58,28.47A12.71,12.71,0,1,1,75.87,15.75,12.71,12.71,0,0,1,88.58,28.47" transform="translate(0 0.01)" style="fill:#fdfdfd"/><path d="M88.52,28.47A12.65,12.65,0,1,1,75.87,15.81,12.65,12.65,0,0,1,88.52,28.47" transform="translate(0 0.01)" style="fill:#fefefe"/><path d="M88.46,28.47a12.59,12.59,0,1,1-12.59-12.6,12.59,12.59,0,0,1,12.59,12.6" transform="translate(0 0.01)" style="fill:#fefefe"/><path d="M88.4,28.47A12.53,12.53,0,1,1,75.87,15.93,12.53,12.53,0,0,1,88.4,28.47" transform="translate(0 0.01)" style="fill:#fefefe"/><path d="M88.34,28.47A12.47,12.47,0,1,1,75.87,16,12.47,12.47,0,0,1,88.34,28.47" transform="translate(0 0.01)" style="fill:#fefefe"/><path d="M88.28,28.47A12.41,12.41,0,1,1,75.87,16.05,12.41,12.41,0,0,1,88.28,28.47" transform="translate(0 0.01)" style="fill:#fefefe"/><path d="M88.22,28.47A12.36,12.36,0,1,1,75.87,16.11,12.35,12.35,0,0,1,88.22,28.47" transform="translate(0 0.01)" style="fill:#fefefe"/><path d="M88.16,28.47a12.3,12.3,0,1,1-12.29-12.3,12.29,12.29,0,0,1,12.29,12.3" transform="translate(0 0.01)" style="fill:#fefefe"/><path d="M88.1,28.47A12.24,12.24,0,1,1,75.87,16.23,12.23,12.23,0,0,1,88.1,28.47" transform="translate(0 0.01)" style="fill:#fff"/><path d="M88.05,28.47A12.18,12.18,0,1,1,75.87,16.29,12.18,12.18,0,0,1,88.05,28.47" transform="translate(0 0.01)" style="fill:#fff"/><path d="M88,28.47A12.12,12.12,0,1,1,75.87,16.35,12.12,12.12,0,0,1,88,28.47" transform="translate(0 0.01)" style="fill:#fff"/><path d="M87.93,28.47A12.06,12.06,0,1,1,75.87,16.41,12.05,12.05,0,0,1,87.93,28.47" transform="translate(0 0.01)" style="fill:#fff"/><path d="M87.87,28.47a12,12,0,1,1-12-12,12,12,0,0,1,12,12" transform="translate(0 0.01)" style="fill:#fff"/><path d="M87.81,28.47A11.94,11.94,0,1,1,75.87,16.53,11.94,11.94,0,0,1,87.81,28.47" transform="translate(0 0.01)" style="fill:#fff"/><path d="M87.75,28.47A11.88,11.88,0,1,1,75.87,16.59,11.87,11.87,0,0,1,87.75,28.47" transform="translate(0 0.01)" style="fill:#fff"/><path d="M87.69,28.47A11.82,11.82,0,1,1,75.87,16.65,11.82,11.82,0,0,1,87.69,28.47" transform="translate(0 0.01)" style="fill:#fff"/><path d="M87.63,28.47A11.76,11.76,0,1,1,75.87,16.71,11.77,11.77,0,0,1,87.63,28.47" transform="translate(0 0.01)" style="fill:#fff"/><path d="M87.57,28.47a11.7,11.7,0,1,1-11.7-11.7,11.7,11.7,0,0,1,11.7,11.7" transform="translate(0 0.01)" style="fill:#fff"/><path d="M87.51,28.47A11.64,11.64,0,1,1,75.87,16.83,11.64,11.64,0,0,1,87.51,28.47" transform="translate(0 0.01)" style="fill:#fff"/><path d="M87.45,28.47A11.58,11.58,0,1,1,75.87,16.89,11.59,11.59,0,0,1,87.45,28.47" transform="translate(0 0.01)" style="fill:#fff"/><path d="M87.39,28.47A11.52,11.52,0,1,1,75.87,17,11.52,11.52,0,0,1,87.39,28.47" transform="translate(0 0.01)" style="fill:#fff"/><path d="M87.33,28.47A11.46,11.46,0,1,1,75.87,17,11.46,11.46,0,0,1,87.33,28.47" transform="translate(0 0.01)" style="fill:#fff"/></g><path d="M66.72,35.23c.16-2.29.48-5,.48-5,8.19-1,12.35-2.8,12.7-5.56.18-1.44-.78-2.59-2.53-2.82-2.5-.32-3.76,1.4-3.78,3.89,0,0-2.39-.38-5.71-.76.12-5.07,4-7.94,10.35-7.13,5.87.75,8.3,3.69,7.84,7.32-.54,4.22-5,6.46-11.12,6.92,5.87.73,9.74.91,9.74.91-.37,2.71-.54,4.65-.54,4.65-12.2-1.8-17.43-2.42-17.43-2.42" transform="translate(0 0.01)" style="fill:#1d1d1b"/><path d="M60.14,29.28c1.09-1.38,2.82-3.55,5.16-6.37l2.44-3-3.83-.09s-2-.05-5.51-.27l-1-.06-.6.79s-1.09,1.44-3.1,4c0-.66,0-1.35,0-2.07l0-1.9-1.9,0s-2.18,0-4.77,0l-1.9,0v1.87a11.4,11.4,0,0,0-7.56-2.52,11.32,11.32,0,0,0-8.37,3.17V20H27.35l-4.74,0C21.48,16.57,18,13.45,9.29,13.45a57.71,57.71,0,0,0-7.67.6L0,14.28v1.63C.11,28.12,0,38.7,0,38.8l0,1.93,1.93,0c2.39-.06,6,0,6,0l1.9,0-.08-7.9h.77c4.53,0,8-1.12,10.09-3.2,0,5.46,0,9.19,0,9.24v1.9l1.9,0c2.57,0,4.91,0,4.92,0l1.9,0,0-1.89c0-.26,0-.52,0-.78a11.6,11.6,0,0,0,8.4,3.09,12,12,0,0,0,7.42-2.24v1.58l1.91,0s2.1,0,4.81,0l1.93,0-.05-1.93s0-.77,0-2.23l.19-.22.17-.21c.83,1.34,1.78,2.9,2.75,4.52l.61,1,1.17-.11s1.68-.17,5.31-.24l3.35-.06-1.82-2.81s-2.32-3.6-5.31-8.83" transform="translate(0 0.01)" style="fill:#fff"/><path d="M1.88,15.9a55.2,55.2,0,0,1,7.41-.59c7.84,0,12,2.63,12,7.91,0,5.66-4.67,7.7-10.71,7.7-.86,0-1.75-.06-2.66-.15l.09,8s-3.66,0-6.08,0c0,0,.09-10.56,0-22.92m5.9,10.56a19.35,19.35,0,0,0,2.51.18c3.36,0,5.13-1.09,5.13-3.6,0-2-1.38-3.36-5.28-3.36a19.69,19.69,0,0,0-2.39.17c0,2,0,3.43,0,6.61" transform="translate(0 0.01)" style="fill:#e54360"/><path d="M1.88,15.9a55.2,55.2,0,0,1,7.41-.59c7.84,0,12,2.63,12,7.91,0,5.66-4.67,7.7-10.71,7.7-.86,0-1.75-.06-2.66-.15l.09,8s-3.66,0-6.08,0c0,0,.09-10.56,0-22.92m5.9,10.56a19.35,19.35,0,0,0,2.51.18c3.36,0,5.13-1.09,5.13-3.6,0-2-1.38-3.36-5.28-3.36a19.69,19.69,0,0,0-2.39.17c0,2,0,3.43,0,6.61" transform="translate(0 0.01)" style="fill:#e54360"/><path d="M22.42,21.89l4.94,0s.05,8.11.13,16.93c0,0-2.37,0-5,0,0,0,0-7.46-.1-16.94" transform="translate(0 0.01)" style="fill:#e54360"/><path d="M28.29,30.37c0-5.43,3.53-8.84,9.31-8.84,5.36,0,8.28,2.94,8.84,6.77-4,.24-5.41.29-5.41.29a3.37,3.37,0,0,0-3.55-3.17c-2.59,0-3.9,2.1-3.9,4.88s1.44,4.94,4,4.94c2,0,3.41-1.17,3.75-3.6,3.56.12,5.44.27,5.44.27-.34,4.58-3.71,7.33-9.07,7.33-5.55,0-9.45-3.07-9.45-8.87" transform="translate(0 0.01)" style="fill:#e54360"/><path d="M54.31,32.64c-1.07,1.24-1.92,2.29-2.46,2.92,0,1.93,0,2.95,0,2.95-2.75,0-4.87,0-4.87,0V22.21c2.63.05,4.82,0,4.82,0,0,2.9,0,5.31,0,7.48,4.19-5.28,6.45-8.26,6.45-8.26,3.63.22,5.58.27,5.58.27-3,3.66-5,6.21-6,7.38,3.36,5.95,6,10,6,10-3.78.07-5.46.24-5.46.24-1.83-3-3.24-5.33-4.12-6.72" transform="translate(0 0.01)" style="fill:#e54360"/><path d="M97.35,16h-.76v2h-.33V16h-.77v-.33h1.86Zm2.88,2H99.9V16h0l-.78,2h-.22l-.76-2h0v2h-.33v-2.3h.55L99,17.34l.68-1.66h.55Z" transform="translate(0 0.01)" style="fill:#1d1d1b"/><rect x="41.67" y="44.73" width="2.42" height="2.38" transform="translate(-6.77 84.43) rotate(-84.76)" style="fill:#fff"/><g style="clip-path:url(#clip-path-3)"><path d="M46.6,47.8a2.32,2.32,0,0,1-1.12-.27,3.13,3.13,0,0,1-2.16-5,2.89,2.89,0,0,1,1.6-1.66,3.3,3.3,0,0,1,1.45-.3l.61,0,.36.05a2,2,0,0,0,.39,0,.38.38,0,0,0,.35-.19.47.47,0,0,1,.38-.19h.12a.47.47,0,0,1,.35.4,1.68,1.68,0,0,1-.14,1H49a5.43,5.43,0,0,0,2.52-.53.43.43,0,0,1,.19,0,.5.5,0,0,1,.26.08.48.48,0,0,1,.22.41,1.37,1.37,0,0,1-.19.61,6,6,0,0,1-1.13,1.38l.19.13.16.1a.49.49,0,0,1,.21.5.48.48,0,0,1-.39.37,1,1,0,0,0-.68.46,2.1,2.1,0,0,1-.54.53.48.48,0,0,1,0,.24A3.86,3.86,0,0,1,46.6,47.8" transform="translate(0 0.01)" style="fill:#fff;fill-rule:evenodd"/><path d="M48.46,39.82a1,1,0,0,0-.76.38,1.86,1.86,0,0,1-.28,0l-.39,0a5.4,5.4,0,0,0-.66,0,3.82,3.82,0,0,0-1.65.35,3.37,3.37,0,0,0-1.83,1.86A3.6,3.6,0,0,0,45.34,48a2.78,2.78,0,0,0,1.26.29,4.36,4.36,0,0,0,2.22-.69,3.64,3.64,0,0,0,1.37-1.43.84.84,0,0,0,.05-.17,2.77,2.77,0,0,0,.45-.48c.19-.24.22-.26.39-.29a.94.94,0,0,0,.77-.75,1,1,0,0,0-.28-.89,5.77,5.77,0,0,0,.8-1.08h0a1.75,1.75,0,0,0,.24-.84,1,1,0,0,0-.42-.81,1,1,0,0,0-.53-.16.92.92,0,0,0-.39.09,5,5,0,0,1-1.86.47,2.52,2.52,0,0,0,0-.61,1,1,0,0,0-.95-.82m-1.68,7h0m1.68-6c.08.6-.09.86-.58,1.4.41,0,.76,0,1.09,0a6,6,0,0,0,2.7-.57.79.79,0,0,1-.13.39,5.36,5.36,0,0,1-1.12,1.34,5.89,5.89,0,0,1-.66.47h.15a1.73,1.73,0,0,1,1,.43c-.88.15-.9.79-1.47,1.11a1.73,1.73,0,0,1-1,.28h-.08a.68.68,0,0,0,.49.22,1.64,1.64,0,0,0,.44-.09,3.46,3.46,0,0,1-2.71,1.53,1.84,1.84,0,0,1-1-.27,2.65,2.65,0,0,1-1.88-4.32l0,0a2.41,2.41,0,0,1,1.36-1.42A3,3,0,0,1,46.37,41l.56,0c.29,0,.55.1.8.1a.83.83,0,0,0,.73-.38" transform="translate(0 0.01)" style="fill:#fff"/></g><path d="M38.09,45.12a1.49,1.49,0,1,0,1.77-1.48,1.65,1.65,0,0,0-1.77,1.48" transform="translate(0 0.01)" style="fill:#fff"/><path d="M38.11,43.59c-.14-.75.08-1.42.5-1.5s.88.46,1,1.2-.07,1.41-.49,1.49-.88-.45-1-1.19" transform="translate(0 0.01)" style="fill:#fff"/><path d="M41.24,43.64c.25-.71.12-1.41-.28-1.54s-.93.32-1.18,1-.12,1.41.28,1.55.94-.33,1.18-1" transform="translate(0 0.01)" style="fill:#fff"/><g style="clip-path:url(#clip-path-3)"><path d="M16.52,46.1a.92.92,0,1,0-1,1.52.92.92,0,1,0,1-1.52" transform="translate(0 0.01)" style="fill:#fff"/><path d="M14.66,47.19c-.57.21-.91.7-.76,1.1s.72.56,1.29.36.9-.71.76-1.11a1,1,0,0,0-1.29-.35" transform="translate(0 0.01)" style="fill:#fff"/><path d="M17.28,47.19c.56.21.9.7.76,1.1a1,1,0,0,1-1.29.36c-.57-.21-.91-.71-.76-1.11s.72-.56,1.29-.35" transform="translate(0 0.01)" style="fill:#fff"/><path d="M13.46,48.35a.42.42,0,0,1-.3-.13.41.41,0,0,1-.08-.32l1-5.15a.39.39,0,0,1,.38-.31h2.91a.38.38,0,0,1,.38.46L17.51,44a.37.37,0,0,1-.37.3H15.8l-.05.28h1.1a.37.37,0,0,1,.29.14.39.39,0,0,1,.08.31L17,46.06a.38.38,0,0,1-.37.31H15.41l-.33,1.68a.37.37,0,0,1-.37.3Z" transform="translate(0 0.01)" style="fill:#fff"/><path d="M17.35,43.59Zm0-1.53H14.43a.75.75,0,0,0-.74.62l-1,5.15a.8.8,0,0,0,.16.63.77.77,0,0,0,.59.27h1.25a.75.75,0,0,0,.75-.61l.26-1.37h.93a.76.76,0,0,0,.75-.62l.19-1a.88.88,0,0,0,0-.17.69.69,0,0,0-.1-.37.79.79,0,0,0,.38-.52L18.1,43a.76.76,0,0,0-.16-.63.74.74,0,0,0-.59-.28m-.5,2.87h0m.5-2.11-.21,1.07H15.49l-.21,1h1.57L16.65,46H15.09l-.38,2H13.46l1-5.15h2.92" transform="translate(0 0.01)" style="fill:#fff"/></g><path d="M17.2,48.35a.39.39,0,0,1-.29-.13.35.35,0,0,1-.08-.32l1-5.15a.39.39,0,0,1,.38-.31h1.25a.37.37,0,0,1,.29.14.34.34,0,0,1,.08.32l-1,5.14a.39.39,0,0,1-.38.31Z" transform="translate(0 0.01)" style="fill:#fff"/><path d="M19.43,43.59Zm0-1.53H18.18a.76.76,0,0,0-.75.62l-1,5.15a.8.8,0,0,0,.16.63.78.78,0,0,0,.59.27h1.25a.76.76,0,0,0,.75-.61l1-5.15a.78.78,0,0,0-.16-.63.76.76,0,0,0-.59-.28m0,.76-1,5.15H17.2l1-5.15h1.25" transform="translate(0 0.01)" style="fill:#fff"/><path d="M21.65,44.69a.4.4,0,0,0,.33-.41c0-.08-.07-.13-.22-.13h0Zm.23,3.66a.38.38,0,0,1-.37-.28,10.18,10.18,0,0,1-.13-1.28,1.09,1.09,0,0,0-.07-.38L21,48a.38.38,0,0,1-.37.31H19.4A.38.38,0,0,1,19,47.9l1-5a.39.39,0,0,1,.28-.3,6.85,6.85,0,0,1,1.47-.14,2.75,2.75,0,0,1,1.55.36A1.51,1.51,0,0,1,24,44.1a1.81,1.81,0,0,1-.87,1.59,2,2,0,0,1,.2.77c0,.16,0,.34,0,.52a7.12,7.12,0,0,0,.1.85.38.38,0,0,1-.35.52Z" transform="translate(0 0.01)" style="fill:#fff"/><path d="M21.74,42a7.53,7.53,0,0,0-1.55.15.77.77,0,0,0-.58.6l-1,5a.8.8,0,0,0,.16.63.78.78,0,0,0,.59.27h1.23a.77.77,0,0,0,.63-.32.74.74,0,0,0,.62.32h1.27a.76.76,0,0,0,.63-.33.77.77,0,0,0,.09-.69,7.69,7.69,0,0,1-.08-.77c0-.17,0-.36-.05-.52a3.11,3.11,0,0,0-.11-.6,2.21,2.21,0,0,0,.79-1.72,1.87,1.87,0,0,0-.92-1.65A3.25,3.25,0,0,0,21.74,42m-.55,3.06h.33a.81.81,0,0,0,.84-.81c0-.31-.24-.51-.6-.51l-.34,0-.23,1.3m.55-2.3a2.52,2.52,0,0,1,1.35.3,1.12,1.12,0,0,1,.56,1,1.52,1.52,0,0,1-1.1,1.47v0c.27.14.39.44.43.91A12.85,12.85,0,0,0,23.15,48H21.88a9.5,9.5,0,0,1-.12-1.2c0-.59-.2-.75-.56-.75H21L20.63,48H19.4l1-5a6.81,6.81,0,0,1,1.38-.13" transform="translate(0 0.01)" style="fill:#fff"/><path d="M23.76,48.35a.39.39,0,0,1-.29-.13.38.38,0,0,1-.09-.32l1-5.15a.39.39,0,0,1,.38-.31h2.94a.4.4,0,0,1,.29.14.41.41,0,0,1,.08.32L27.84,44a.38.38,0,0,1-.38.3H26.1l0,.15h1.14a.39.39,0,0,1,.3.14.4.4,0,0,1,.08.32l-.21,1a.38.38,0,0,1-.37.31H25.73l-.06.28H27a.39.39,0,0,1,.29.13.41.41,0,0,1,.08.32l-.21,1.08a.38.38,0,0,1-.37.3Z" transform="translate(0 0.01)" style="fill:#fff"/><path d="M27.68,43.59Zm0-1.53H24.74a.76.76,0,0,0-.75.62l-1,5.15a.8.8,0,0,0,.16.63.78.78,0,0,0,.59.27h3a.76.76,0,0,0,.75-.61l.2-1.06a.88.88,0,0,0,0-.16.74.74,0,0,0-.21-.52.69.69,0,0,0,.19-.38L28,45a.74.74,0,0,0-.05-.44.76.76,0,0,0,.3-.47l.21-1a1.1,1.1,0,0,0,0-.18.76.76,0,0,0-.76-.76M27,46.9h0m.67-4.08-.22,1.07H25.79l-.18.91h1.6L27,45.86H25.42l-.21,1H27L26.8,48h-3l1-5.15h2.94m0,0h0" transform="translate(0 0.01)" style="fill:#fff"/><path d="M29.84,44.43c.13,0,.26-.09.26-.22s0-.09-.18-.09h0Zm-.44,2.21c.17,0,.43-.09.43-.32s0-.19-.32-.2Zm-.54,1.74a6.9,6.9,0,0,1-1.37-.1.37.37,0,0,1-.29-.44l.94-5a.39.39,0,0,1,.3-.3,7.36,7.36,0,0,1,1.41-.13,2.73,2.73,0,0,1,1.49.33A1.43,1.43,0,0,1,32.12,44a1.57,1.57,0,0,1-.64,1.28,1.56,1.56,0,0,1,.41,1.08,1.8,1.8,0,0,1-.85,1.5,3.8,3.8,0,0,1-2.18.5" transform="translate(0 0.01)" style="fill:#fff"/><path d="M29.85,42a7.4,7.4,0,0,0-1.49.14.76.76,0,0,0-.59.6l-.95,5a.77.77,0,0,0,.6.89,7.57,7.57,0,0,0,1.44.11,4.15,4.15,0,0,0,2.39-.57,2.18,2.18,0,0,0,1-1.82,2,2,0,0,0-.28-1A1.89,1.89,0,0,0,32.5,44a1.81,1.81,0,0,0-1-1.61A3.17,3.17,0,0,0,29.85,42m-.58,5c.51,0,.94-.24.94-.71s-.33-.59-.79-.59h-.23L29,47h.32m.11-2.2h.25c.54,0,.85-.24.85-.62s-.21-.47-.56-.47a1.52,1.52,0,0,0-.34,0l-.2,1.06m.47-2a2.41,2.41,0,0,1,1.3.28,1.05,1.05,0,0,1,.59,1,1.29,1.29,0,0,1-1,1.23v0a1.09,1.09,0,0,1,.75,1.11,1.45,1.45,0,0,1-.67,1.19,3.49,3.49,0,0,1-2,.43,6.37,6.37,0,0,1-1.29-.09l.95-5a6.44,6.44,0,0,1,1.33-.13" transform="translate(0 0.01)" style="fill:#fff"/><path d="M34.55,48.35a.38.38,0,0,1-.38-.37l0-.79h-.59l-.37.93a.36.36,0,0,1-.35.23H31.53a.37.37,0,0,1-.32-.17.36.36,0,0,1,0-.36l2.33-5.15a.37.37,0,0,1,.34-.23h1.59a.38.38,0,0,1,.38.36l.39,5.14a.38.38,0,0,1-.1.29.36.36,0,0,1-.28.12Z" transform="translate(0 0.01)" style="fill:#fff"/><path d="M35.45,42.06H33.86a.77.77,0,0,0-.69.45l-2.33,5.15a.76.76,0,0,0,.05.73.78.78,0,0,0,.64.34h1.31a.76.76,0,0,0,.71-.47l.23-.59V48a.76.76,0,0,0,.76.74h1.29a.73.73,0,0,0,.56-.24.71.71,0,0,0,.2-.57l-.39-5.15a.76.76,0,0,0-.76-.71m-1.81,3.82h.86l0-1c0-.29,0-.77,0-1.11h0c-.13.34-.29.83-.41,1.11l-.39,1m1.81-3.06L35.84,48H34.55l0-1.16H33.31L32.84,48H31.53l2.33-5.15h1.59" transform="translate(0 0.01)" style="fill:#fff"/><path d="M36.35,48.35a.39.39,0,0,1-.29-.13A.41.41,0,0,1,36,47.9l1-5.15a.38.38,0,0,1,.37-.31h1.25a.39.39,0,0,1,.3.14.4.4,0,0,1,.08.32l-.69,3.6h1.25a.38.38,0,0,1,.38.45L39.69,48a.38.38,0,0,1-.37.31Z" transform="translate(0 0.01)" style="fill:#fff"/><path d="M38.58,42.06H37.33a.77.77,0,0,0-.75.62l-1,5.15a.73.73,0,0,0,.16.63.76.76,0,0,0,.58.27h3a.77.77,0,0,0,.75-.62l.2-1.06a1,1,0,0,0,0-.17.76.76,0,0,0-.77-.76h-.79l.6-3.15a.71.71,0,0,0-.16-.63.74.74,0,0,0-.59-.28m.94,4.82h0m-.94-4.06-.77,4.06h1.71L39.32,48h-3l1-5.15h1.25" transform="translate(0 0.01)" style="fill:#fff"/><path d="M39.9,48.35a.42.42,0,0,1-.3-.13.41.41,0,0,1-.08-.32l1-5.15a.39.39,0,0,1,.38-.31h1.25a.37.37,0,0,1,.29.14.4.4,0,0,1,.08.32l-.68,3.6h1.25a.37.37,0,0,1,.29.14.39.39,0,0,1,.08.31L43.24,48a.39.39,0,0,1-.38.31Z" transform="translate(0 0.01)" style="fill:#fff"/><path d="M42.13,42.06H40.88a.76.76,0,0,0-.75.62l-1,5.15a.8.8,0,0,0,.16.63.78.78,0,0,0,.59.27h3a.76.76,0,0,0,.75-.62l.2-1.06a1,1,0,0,0,0-.17.76.76,0,0,0-.76-.76h-.79l.6-3.15a.78.78,0,0,0-.16-.63.76.76,0,0,0-.59-.28m.94,4.82h0m-.94-4.06-.77,4.06h1.71L42.86,48h-3l1-5.15h1.25" transform="translate(0 0.01)" style="fill:#fff"/><polygon points="13.4 48.05 14.4 42.82 17.41 42.82 17.17 43.98 15.52 43.98 15.34 44.93 16.9 44.93 16.68 46.07 15.13 46.07 14.74 48.05 13.4 48.05" style="fill:#fbba07"/><path d="M17.46,42.77h-3.1v.07l-1,5.15,0,.1h1.43V48l.37-1.92h1.56V46l.2-1.05,0-.1H15.39l.17-.87h1.65v-.07l.22-1.07Zm-.11.08-.21,1.07H15.49l-.21,1h1.57L16.65,46H15.09l-.38,2H13.46l1-5.15h2.92" transform="translate(0 0.01)" style="fill:#fbba07"/><polygon points="17.15 48.05 18.14 42.82 19.48 42.82 18.49 48.05 17.15 48.05" style="fill:#fbba07"/><path d="M19.53,42.77H18.11l0,.07-1,5.15,0,.1h1.43l0-.07,1-5.15Zm-.1.08-1,5.15H17.2l1-5.15h1.25" transform="translate(0 0.01)" style="fill:#fbba07"/><path d="M21.52,45.07a.76.76,0,0,0,.8-.76c0-.28-.22-.47-.56-.47l-.3,0-.22,1.21Zm.33,3v0a8.21,8.21,0,0,1-.12-1.21c0-.6-.21-.71-.52-.71H21l-.37,2H19.35l1-5.13h0a6.77,6.77,0,0,1,1.39-.13,2.37,2.37,0,0,1,1.37.31,1.15,1.15,0,0,1,.59,1,1.51,1.51,0,0,1-1.08,1.48c.24.15.36.43.4.92,0,.15,0,.33.05.5a5,5,0,0,0,.12,1l0,.06Z" transform="translate(0 0.01)" style="fill:#fbba07"/><path d="M21.5,43.9h.26c.31,0,.52.17.52.42a.73.73,0,0,1-.76.72h-.23Zm.24-1.16a6.88,6.88,0,0,0-1.4.13h-.05v.06l-1,5.05v.1h1.4V48l.36-1.89h.13c.29,0,.44.11.47.67A9.75,9.75,0,0,0,21.8,48l0,.06h1.46L23.23,48a5.76,5.76,0,0,1-.12-.94c0-.17,0-.35,0-.51a1.3,1.3,0,0,0-.36-.9,1.55,1.55,0,0,0,1-1.49,1.2,1.2,0,0,0-.61-1.08,2.44,2.44,0,0,0-1.39-.31m-.55,2.38h.33a.81.81,0,0,0,.84-.81c0-.31-.24-.51-.6-.51l-.34,0-.23,1.3m.55-2.3a2.52,2.52,0,0,1,1.35.3,1.12,1.12,0,0,1,.56,1,1.51,1.51,0,0,1-1.1,1.47v0c.27.14.39.44.43.91A12.85,12.85,0,0,0,23.15,48H21.88a9.27,9.27,0,0,1-.12-1.2c0-.59-.2-.75-.56-.75H21l-.37,2H19.4l1-5a6.81,6.81,0,0,1,1.38-.13" transform="translate(0 0.01)" style="fill:#fbba07"/><polygon points="23.71 48.05 24.7 42.82 27.73 42.82 27.5 43.98 25.83 43.98 25.66 44.8 27.27 44.8 27.04 45.94 25.45 45.94 25.26 46.89 27.06 46.89 26.84 48.05 23.71 48.05" style="fill:#fbba07"/><path d="M27.78,42.77H24.67l0,.07-1,5.15v.1h3.21V48l.21-1.08,0-.1H25.32l.17-.87h1.59V45.9l.21-1,0-.1H25.71l.15-.74h1.67l0-.07.21-1.07Zm-.1.08-.22,1.07H25.79l-.18.91h1.6L27,45.89H25.42l-.21,1H27L26.8,48h-3l1-5.15h2.94" transform="translate(0 0.01)" style="fill:#fbba07"/><path d="M29.63,44.81c.51,0,.81-.21.81-.56s-.2-.43-.52-.43a1.15,1.15,0,0,0-.3,0l-.19,1ZM29,47h.27c.45,0,.89-.21.89-.67s-.24-.54-.74-.54h-.19Zm-.14,1.07a7.06,7.06,0,0,1-1.3-.09h0l1-5.07h0a7.58,7.58,0,0,1,1.34-.12,2.56,2.56,0,0,1,1.33.28,1.11,1.11,0,0,1,.6,1,1.31,1.31,0,0,1-.94,1.23,1.16,1.16,0,0,1,.71,1.12,1.45,1.45,0,0,1-.7,1.22,3.53,3.53,0,0,1-2,.45" transform="translate(0 0.01)" style="fill:#fbba07"/><path d="M29.26,45.85h.16c.63,0,.7.29.7.5s-.22.63-.85.63h-.22Zm.39-2h.27c.3,0,.47.14.47.39s-.28.52-.76.52h-.15Zm.2-1.13a6.77,6.77,0,0,0-1.35.12h-.06v.06l-.94,5,0,.08.08,0a7.26,7.26,0,0,0,1.31.09,3.58,3.58,0,0,0,2-.45,1.53,1.53,0,0,0,.72-1.26A1.2,1.2,0,0,0,31,45.29a1.33,1.33,0,0,0,.88-1.24,1.14,1.14,0,0,0-.64-1,2.48,2.48,0,0,0-1.34-.28m-.58,4.32c.51,0,.94-.24.94-.71s-.33-.58-.79-.58h-.23L29,47.05h.32m.11-2.2h.25c.54,0,.85-.24.85-.61s-.21-.48-.56-.48a1.52,1.52,0,0,0-.34,0l-.2,1.06m.47-2a2.41,2.41,0,0,1,1.3.28,1.05,1.05,0,0,1,.59.95,1.29,1.29,0,0,1-1,1.23v0a1.09,1.09,0,0,1,.75,1.11,1.45,1.45,0,0,1-.67,1.19,3.49,3.49,0,0,1-2,.43,6.37,6.37,0,0,1-1.29-.09l.95-5a6.44,6.44,0,0,1,1.33-.13" transform="translate(0 0.01)" style="fill:#fbba07"/><path d="M34.45,45.87l0-.94c0-.18,0-.45,0-.71V44l-.1.31c-.08.23-.17.46-.24.63l-.36.92Zm.06,2.18,0-1.16H33.33l-.46,1.16h-1.4l2.37-5.24h1.65l.4,5.24Z" transform="translate(0 0.01)" style="fill:#fbba07"/><path d="M33.77,45.82l.34-.86c.07-.16.16-.4.24-.63a.31.31,0,0,1,0-.08c0,.25,0,.51,0,.69l0,.88Zm1.76-3H33.81l0,0L31.46,48l-.06.12h1.5l0-.05.44-1.11h1.08l0,1.08v.08h1.47V48l-.39-5.15Zm-1.89,3.14h.86l0-1c0-.29,0-.77,0-1.11h0c-.13.34-.29.83-.41,1.11l-.39,1m1.81-3.06L35.84,48H34.55l0-1.16H33.31L32.84,48H31.53l2.33-5.15h1.59" transform="translate(0 0.01)" style="fill:#fbba07"/><polygon points="36.3 48.05 37.3 42.82 38.64 42.82 37.86 46.88 39.58 46.88 39.35 48.05 36.3 48.05" style="fill:#fbba07"/><path d="M38.69,42.77H37.26v.07l-1,5.15,0,.1h3.14V48l.21-1.09,0-.11H37.92l.75-4Zm-.11.08-.77,4.06h1.71L39.32,48h-3l1-5.15h1.25" transform="translate(0 0.01)" style="fill:#fbba07"/><polygon points="39.84 48.05 40.84 42.82 42.18 42.82 41.41 46.88 43.12 46.88 42.9 48.05 39.84 48.05" style="fill:#fbba07"/><path d="M42.23,42.77H40.8v.07l-1,5.15,0,.1h3.14L43,48l.2-1.09,0-.11H41.46l.75-4Zm-.1.08-.77,4.06h1.71L42.86,48h-3l1-5.15h1.25" transform="translate(0 0.01)" style="fill:#fbba07"/><path d="M46.79,46.75h0m2.51-1a.78.78,0,0,1-.92-.12,1.73,1.73,0,0,0,1-.28c.57-.32.59-1,1.46-1.1a1.59,1.59,0,0,0-1.14-.43,6.8,6.8,0,0,0,.65-.47,5.45,5.45,0,0,0,1.11-1.32.79.79,0,0,0,.13-.4,6.65,6.65,0,0,1-3.76.53c.48-.54.65-.8.57-1.39-.42.57-.93.34-1.51.28a3.16,3.16,0,0,0-1.81.23,2.39,2.39,0,0,0-1.35,1.4.08.08,0,0,1,0,0A2.63,2.63,0,0,0,45.64,47c1.35.83,3.35-.52,3.66-1.26" transform="translate(0 0.01)" style="fill:#fbba07;fill-rule:evenodd"/><g style="clip-path:url(#clip-path-3)"><path d="M46.61,47.48a2,2,0,0,1-1-.27,2.8,2.8,0,0,1-2-4.54h0a2.54,2.54,0,0,1,1.44-1.51A3.35,3.35,0,0,1,47,40.91l.34,0c.43.08.75.13,1-.25l.26-.35,0,.42A1.41,1.41,0,0,1,48.23,42a6.35,6.35,0,0,0,3.34-.53l.24-.11v.27a.84.84,0,0,1-.15.46,5.25,5.25,0,0,1-1.15,1.38,1.83,1.83,0,0,1-.27.21,2.38,2.38,0,0,1,.59.31l.53.34-.44.08a1.22,1.22,0,0,0-.86.57,1.77,1.77,0,0,1-.54.51h0l.09,0-.15.34a3.4,3.4,0,0,1-1.94,1.47,3.06,3.06,0,0,1-.9.16m-.23-6.26a2.73,2.73,0,0,0-1.17.24A2.23,2.23,0,0,0,44,42.76l-.05.1a2.46,2.46,0,0,0,1.75,4l.08,0a2.06,2.06,0,0,0,1.67.1,3.58,3.58,0,0,0,1.51-1,.84.84,0,0,1-.65-.25l-.34-.31h.46a1.56,1.56,0,0,0,1-.26,1.5,1.5,0,0,0,.44-.43,1.75,1.75,0,0,1,.69-.58,1,1,0,0,0-.72-.19l-.64.06.53-.38.24-.16a3.44,3.44,0,0,0,.4-.3A5.48,5.48,0,0,0,51.36,42h0a7.06,7.06,0,0,1-3.49.39l-.35,0,.23-.26c.35-.39.51-.6.54-.88a1.37,1.37,0,0,1-1,.1l-.32,0-.54,0m.49,5.68-.08-.15-.07-.16h0l0,.08,0-.08.14.31,0,0Z" transform="translate(0 0.01)" style="fill:#fbba07"/></g><path d="M46.34,46.32h0m2-.65c-.31.08-.49.09-.71-.13a1.32,1.32,0,0,0,.83-.17c.44-.22.49-.71,1.17-.79-.32-.23-.48-.39-.87-.37a4.25,4.25,0,0,0,.52-.34,4.14,4.14,0,0,0,.91-1,.54.54,0,0,0,.11-.3,5.08,5.08,0,0,1-2.91.25c.4-.39.54-.59.5-1-.35.42-.73.22-1.18.15a2.46,2.46,0,0,0-1.39.1,1.86,1.86,0,0,0-1.1,1v0a2,2,0,0,0,1.26,3.38c1,.7,2.6-.26,2.87-.82" transform="translate(0 0.01)" style="fill:#f28e00;fill-rule:evenodd"/><path d="M46.27,46.76a1.49,1.49,0,0,1-.84-.25,2,2,0,0,1-1.67-1.32,2,2,0,0,1,.4-2.09v0a1.88,1.88,0,0,1,1.11-1,2.52,2.52,0,0,1,1.41-.1l.25.05c.34.07.63.14.9-.2l0,0v0c0,.46-.1.66-.47,1a5,5,0,0,0,2.86-.25h0v0a.72.72,0,0,1-.12.31,4.38,4.38,0,0,1-.91,1,2.67,2.67,0,0,1-.34.22l-.12.08a1,1,0,0,1,.68.29l.12.08,0,0h0a1.08,1.08,0,0,0-.76.44,1.36,1.36,0,0,1-.4.35,1.5,1.5,0,0,1-.78.18.6.6,0,0,0,.64.08h0l0,0a2.6,2.6,0,0,1-1.48,1,2.45,2.45,0,0,1-.57.08m-.16-4.83a2.15,2.15,0,0,0-.81.15,1.82,1.82,0,0,0-1.09,1v0a2,2,0,0,0,1.24,3.34h0a1.65,1.65,0,0,0,1.38.17,2.62,2.62,0,0,0,1.43-.93.59.59,0,0,1-.67-.15l0,0h.06a1.33,1.33,0,0,0,.81-.17,1.17,1.17,0,0,0,.39-.34,1.13,1.13,0,0,1,.73-.44l-.08-.06a1,1,0,0,0-.68-.28h-.13l.07,0,.19-.12a1.87,1.87,0,0,0,.33-.22,4.25,4.25,0,0,0,.9-1,.56.56,0,0,0,.11-.26,5.13,5.13,0,0,1-2.89.24h0l0,0c.37-.37.52-.56.49-1-.28.31-.58.24-.91.17L46.68,42a3.88,3.88,0,0,0-.57,0m.23,4.41v0h0v0Z" transform="translate(0 0.01)" style="fill:#f28e00"/><path d="M47.65,44.48a2,2,0,1,1-2-2,2,2,0,0,1,2,2" transform="translate(0 0.01)" style="fill:#e24a11;fill-rule:evenodd"/><path d="M1.86,47a.27.27,0,0,1-.19-.08.29.29,0,0,1,0-.2l.48-3.08a.25.25,0,0,1,.24-.2H3.76a1.36,1.36,0,0,1,1.08.41,1.19,1.19,0,0,1,.23,1A1.39,1.39,0,0,1,3.65,46H3.29l-.11.72a.24.24,0,0,1-.24.2Zm1.63-2.21,0,0h0Z" transform="translate(0 0.01)" style="fill:#e54360"/><path d="M3.76,43.63c.72,0,1.19.37,1.07,1.13a1.15,1.15,0,0,1-1.18,1H3.08l-.14.93H1.86l.48-3.08H3.76M3.2,45h.11c.2,0,.42,0,.45-.28s-.18-.26-.37-.26h-.1L3.2,45m.56-1.87H2.34a.49.49,0,0,0-.48.42l-.48,3.07a.49.49,0,0,0,.11.4.5.5,0,0,0,.37.17H2.94a.5.5,0,0,0,.48-.42l.07-.51h.16a1.62,1.62,0,0,0,1.66-1.43A1.4,1.4,0,0,0,5,43.65a1.6,1.6,0,0,0-1.27-.51" transform="translate(0 0.01)" style="fill:#fff"/><path d="M5,47a.27.27,0,0,1-.19-.08.29.29,0,0,1,0-.2l.48-3.08a.26.26,0,0,1,.24-.2H6.58a.26.26,0,0,1,.19.08.21.21,0,0,1,.05.2l-.28,1.81h.65a.27.27,0,0,1,.19.08.29.29,0,0,1,0,.2l-.15,1A.24.24,0,0,1,7,47Z" transform="translate(0 0.01)" style="fill:#e54360"/><path d="M6.58,43.63l-.33,2.09h.94l-.15,1H5l.49-3.08H6.58m0-.49H5.47a.5.5,0,0,0-.49.42L4.5,46.63a.52.52,0,0,0,.11.4A.52.52,0,0,0,5,47.2H7a.49.49,0,0,0,.48-.42l.15-1a.46.46,0,0,0-.11-.39.47.47,0,0,0-.37-.18H6.82l.24-1.52A.43.43,0,0,0,7,43.32a.47.47,0,0,0-.37-.18" transform="translate(0 0.01)" style="fill:#fff"/><path d="M8.75,47a1.51,1.51,0,0,1-1.22-.45,1.37,1.37,0,0,1-.25-1.14l.29-1.82a.24.24,0,0,1,.24-.2H8.93a.27.27,0,0,1,.19.08.29.29,0,0,1,.05.2L8.9,45.38a.88.88,0,0,0,0,.17h0c.09,0,.11,0,.14-.24l.28-1.72a.23.23,0,0,1,.24-.2h1.11a.26.26,0,0,1,.19.08.21.21,0,0,1,.05.2l-.29,1.82A1.71,1.71,0,0,1,8.75,47" transform="translate(0 0.01)" style="fill:#e54360"/><path d="M10.66,43.63l-.29,1.82a1.47,1.47,0,0,1-1.62,1.31c-.87,0-1.37-.41-1.23-1.31l.29-1.82H8.93l-.27,1.72c0,.24-.06.45.24.45s.34-.21.37-.45l.28-1.72h1.11m0-.49H9.55a.53.53,0,0,0-.31.11.49.49,0,0,0-.31-.11H7.81a.5.5,0,0,0-.48.41L7,45.38a1.63,1.63,0,0,0,.3,1.33,1.78,1.78,0,0,0,1.41.53,1.94,1.94,0,0,0,2.1-1.71l.29-1.82a.43.43,0,0,0-.11-.39.47.47,0,0,0-.37-.18" transform="translate(0 0.01)" style="fill:#fff"/><path d="M11.69,47a2.83,2.83,0,0,1-1.26-.31.24.24,0,0,1-.09-.33l.48-.87a.13.13,0,0,1,.06-.07.89.89,0,0,1-.18-.74,1.72,1.72,0,0,1,1.75-1.34,1.84,1.84,0,0,1,1.07.31.25.25,0,0,1,.07.32l-.42.78,0,0a.93.93,0,0,1,.3.9A1.68,1.68,0,0,1,11.69,47" transform="translate(0 0.01)" style="fill:#e54360"/><path d="M12.45,43.58a1.64,1.64,0,0,1,.93.27l-.42.79a1,1,0,0,0-.62-.23c-.09,0-.24,0-.27.16s.12.13.21.15l.24.06c.46.11.76.36.68.88a1.43,1.43,0,0,1-1.51,1.1,2.56,2.56,0,0,1-1.14-.28l.48-.87.05,0a1,1,0,0,0,.66.28c.11,0,.29,0,.31-.18s-.12-.15-.22-.17l-.22,0c-.43-.08-.75-.34-.67-.82a1.47,1.47,0,0,1,1.51-1.14m0-.48a1.93,1.93,0,0,0-2,1.55,1.11,1.11,0,0,0,.12.77l-.45.82a.48.48,0,0,0,.19.66,2.9,2.9,0,0,0,1.37.35,1.91,1.91,0,0,0,2-1.51,1.21,1.21,0,0,0-.24-1l.37-.68a.48.48,0,0,0-.16-.63,2,2,0,0,0-1.2-.35" transform="translate(0 0.01)" style="fill:#fff"/><path d="M54.35,43.29a1.16,1.16,0,0,1-1.18,1.17,1.17,1.17,0,1,1,0-2.33,1.16,1.16,0,0,1,1.18,1.16m-2.07,0a.89.89,0,1,0,.89-.92.89.89,0,0,0-.89.92m.71.6h-.27V42.74a2.48,2.48,0,0,1,.45,0,.73.73,0,0,1,.4.09.33.33,0,0,1,.11.25.29.29,0,0,1-.24.27h0a.34.34,0,0,1,.21.28,1,1,0,0,0,.08.29h-.28a.94.94,0,0,1-.1-.28c0-.13-.09-.18-.23-.18H53Zm0-.65h.12c.15,0,.27-.05.27-.17s-.08-.18-.25-.18l-.14,0Z" transform="translate(0 0.01)" style="fill:#fff"/></g></g></svg>