<svg xmlns="http://www.w3.org/2000/svg" xmlns:xlink="http://www.w3.org/1999/xlink" viewBox="0 0 2535.02 1526"><defs><style>.cls-1{fill:#fff;}.cls-2{fill:url(#radial-gradient);}.cls-3{fill:url(#radial-gradient-2);}.cls-4{fill:url(#linear-gradient);}.cls-5{fill:url(#radial-gradient-3);}.cls-6{fill:url(#linear-gradient-2);}.cls-7{fill:url(#linear-gradient-3);}.cls-8{fill:#0077a3;}.cls-9{fill:url(#linear-gradient-4);}.cls-10{fill:url(#linear-gradient-5);}.cls-11{fill:url(#linear-gradient-6);}.cls-12{fill:url(#linear-gradient-7);}.cls-13{fill:url(#linear-gradient-8);}.cls-14{fill:url(#linear-gradient-9);}.cls-15{fill:#00bcf2;}.cls-16{fill:url(#linear-gradient-10);}.cls-17{fill:url(#linear-gradient-11);}.cls-18{fill:#59d0f6;}.cls-19{fill:url(#linear-gradient-12);}.cls-20{fill:#0cf;}.cls-21{fill:#01bcf1;}.cls-22{fill:#03bcf1;}.cls-23{fill:#fa9d0f;}</style><radialGradient id="radial-gradient" cx="1325.06" cy="619.42" r="593.92" gradientUnits="userSpaceOnUse"><stop offset="0.65" stop-color="#fef100"/><stop offset="1" stop-color="#ffd600"/></radialGradient><radialGradient id="radial-gradient-2" cx="1325.06" cy="619.42" r="593.92" gradientUnits="userSpaceOnUse"><stop offset="0.66" stop-color="#ab8b00"/><stop offset="0.75" stop-color="#dcad09" stop-opacity="0"/></radialGradient><linearGradient id="linear-gradient" x1="1188.76" y1="993.9" x2="1461.36" y2="244.94" gradientUnits="userSpaceOnUse"><stop offset="0" stop-color="#dd5d1b"/><stop offset="0.04" stop-color="#e1691c"/><stop offset="0.13" stop-color="#ea7f1f"/><stop offset="0.24" stop-color="#f19121"/><stop offset="0.38" stop-color="#f69d23"/><stop offset="0.56" stop-color="#f8a424"/><stop offset="1" stop-color="#f9a624"/></linearGradient><radialGradient id="radial-gradient-3" cx="1325.06" cy="619.42" r="398.41" gradientUnits="userSpaceOnUse"><stop offset="0" stop-color="#ffca09"/><stop offset="1" stop-color="#ffca09" stop-opacity="0"/></radialGradient><linearGradient id="linear-gradient-2" x1="1182.62" y1="499.1" x2="1425.44" y2="256.29" gradientUnits="userSpaceOnUse"><stop offset="0" stop-color="#ffd033" stop-opacity="0"/><stop offset="1" stop-color="#ffd033"/></linearGradient><linearGradient id="linear-gradient-3" x1="987.26" y1="622.2" x2="1692.49" y2="622.2" gradientUnits="userSpaceOnUse"><stop offset="0" stop-color="#c15911"/><stop offset="0.02" stop-color="#c15d10"/><stop offset="0.11" stop-color="#c3680d"/><stop offset="0.2" stop-color="#c36c0c"/><stop offset="0.26" stop-color="#c25f0f"/><stop offset="0.32" stop-color="#c15911"/><stop offset="0.37" stop-color="#c25f0f"/><stop offset="0.5" stop-color="#c3690d"/><stop offset="0.67" stop-color="#c36c0c"/><stop offset="0.71" stop-color="#be5e0f"/><stop offset="0.76" stop-color="#ba5211"/><stop offset="0.83" stop-color="#b84b13"/><stop offset="1" stop-color="#b74913"/></linearGradient><linearGradient id="linear-gradient-4" x1="1203.65" y1="217.95" x2="1199.57" y2="194.85" gradientUnits="userSpaceOnUse"><stop offset="0" stop-color="#00c9f1"/><stop offset="1" stop-color="#0076a0"/></linearGradient><linearGradient id="linear-gradient-5" x1="1131.39" y1="523.07" x2="1163.44" y2="516.25" gradientUnits="userSpaceOnUse"><stop offset="0" stop-color="#0076a0"/><stop offset="1" stop-color="#00c9f1"/></linearGradient><linearGradient id="linear-gradient-6" x1="1497.56" y1="772.97" x2="1491.65" y2="739.46" xlink:href="#linear-gradient-5"/><linearGradient id="linear-gradient-7" x1="1748.81" y1="592.93" x2="1770.1" y2="588.41" xlink:href="#linear-gradient-4"/><linearGradient id="linear-gradient-8" x1="1355.42" y1="358.62" x2="1373.82" y2="354.71" xlink:href="#linear-gradient-4"/><linearGradient id="linear-gradient-9" x1="1569.81" y1="511.48" x2="1566.5" y2="492.72" xlink:href="#linear-gradient-4"/><linearGradient id="linear-gradient-10" x1="1268.54" y1="536.33" x2="1212.71" y2="219.72" gradientUnits="userSpaceOnUse"><stop offset="0.28" stop-color="#7fd9f8"/><stop offset="0.33" stop-color="#73d7f8"/><stop offset="0.55" stop-color="#42d0f7"/><stop offset="0.74" stop-color="#1ecaf6"/><stop offset="0.9" stop-color="#08c7f5"/><stop offset="1" stop-color="#00c6f5"/></linearGradient><linearGradient id="linear-gradient-11" x1="1563.16" y1="548.45" x2="1558.9" y2="524.29" gradientUnits="userSpaceOnUse"><stop offset="0" stop-color="#0accf6"/><stop offset="1" stop-color="#7fd9f8"/></linearGradient><linearGradient id="linear-gradient-12" x1="1211.64" y1="244.16" x2="1207.69" y2="221.74" gradientUnits="userSpaceOnUse"><stop offset="0" stop-color="#23cef6"/><stop offset="0.2" stop-color="#48d4f7"/><stop offset="0.44" stop-color="#6edbf8"/><stop offset="0.66" stop-color="#89dff9"/><stop offset="0.85" stop-color="#99e2fa"/><stop offset="1" stop-color="#9fe3fa"/></linearGradient></defs><g id="Layer_2" data-name="Layer 2"><g id="Layer_1-2" data-name="Layer 1"><path class="cls-1" d="M1938.48,499.84a25.06,25.06,0,0,0-24.91-9.39c-79-15-123.63-35-132.58-59.41-8.7-23.69,10.73-64.55,59.37-124.78a25,25,0,0,0,8.87-12.33l.67-2a25.05,25.05,0,0,0-38.34-28.19c-78.32,18.41-127.18,18.3-145.28-.34-17.59-18.11-16.46-63.34,3.49-138.15a25,25,0,0,0,3.08-14.85l-.21-2.11a25.06,25.06,0,0,0-46.49-10.19c-64.06,48.68-108.73,68.46-132.86,58.78-23.43-9.39-40.8-51.17-53-127.62a25,25,0,0,0-3.21-14.81L1436,12.58a25.05,25.05,0,0,0-46.61,9.6c-38.73,70.53-71.5,106.77-97.47,107.74-25.25.84-58.08-30.15-100.32-95a25.06,25.06,0,0,0-9-12.25l-1.72-1.25a25.06,25.06,0,0,0-38.67,27.75c-6.69,80.17-21.89,126.6-45.21,138.06-22.67,11.13-65.33-3.93-130.31-46a25.12,25.12,0,0,0-13.18-7.53l-2.08-.44a25.05,25.05,0,0,0-24,41.07c26.5,76,31.5,124.57,14.85,144.52-16.17,19.38-61.28,23-137.75,11a25,25,0,0,0-15.09-1.52l-2.09.43A25.06,25.06,0,0,0,782.08,376c55.1,58.62,79.44,101,72.34,126-6.89,24.29-46.62,45.92-121.39,66a25.11,25.11,0,0,0-14.38,4.74L716.93,574a25,25,0,0,0,14.41,45.36c74.18,31.14,113.65,60,117.34,85.67,3.58,25-23.92,60.91-84,109.71A25.1,25.1,0,0,0,753.42,825l-1.07,1.84A25.06,25.06,0,0,0,784,862.38c80.41-1.74,128.2,8.53,142,30.53,13.44,21.37,2.93,65.37-32.13,134.4a25.69,25.69,0,1,0,37,35.63c72.77-34.29,120.59-44.36,142.17-29.88,21,14.06,29.27,58.54,25.31,135.86a25,25,0,0,0,.07,15.15l.65,2a25,25,0,0,0,47.59.3c52.54-60.94,92.13-89.59,117.74-85.12,24.87,4.31,50.54,41.57,78.38,113.82a25.08,25.08,0,0,0,6.22,13.82l1.42,1.59a25.06,25.06,0,0,0,43.6-19.09c23.22-77,47.74-119.29,72.94-125.65,24.48-6.15,63.08,17.43,117.9,72.1a25,25,0,0,0,11.31,10.1l1.94.87a25.05,25.05,0,0,0,32.06-35.17c-10.12-79.82-4.91-128.4,15.52-144.46,19.86-15.59,64.71-9.74,137,17.92a25,25,0,0,0,14.42,4.62h2.2a25.06,25.06,0,0,0,14.93-45.18c-41.71-68.79-56.71-115.3-44.57-138.27,11.79-22.32,55.16-35.22,132.46-39.38a25.13,25.13,0,0,0,15.07-1.64l1.94-.86a25.05,25.05,0,0,0-4.67-47.37c-66.09-45.88-98.71-82.26-97-108.19,1.69-25.19,36.05-54.61,105-89.85a25,25,0,0,0,13.12-7.65l1.43-1.58A25.06,25.06,0,0,0,1938.48,499.84Zm-21.37,16.74-1.21-.23c-157.72,79.45-167.74,139.47-9.76,247.32,1,0,1.95-.11,3-.15l-1.95.86-1-.71c-176.4,8.44-210,59.19-109.51,222,.93.36,1.82.68,2.76,1.05h-2.13c-.22-.36-.41-.7-.63-1.05-164.59-64-215.89-31.34-190.33,158.24l2.09,2.09-1.94-.87c-.06-.42-.1-.81-.15-1.22C1482,1018.43,1421.82,1027.45,1368.06,1211c.35.94.71,1.81,1.06,2.76l-1.42-1.58c.12-.41.24-.78.36-1.18-62.53-165.17-121.17-181.41-245-35.56-.06,1-.09,1.94-.15,3l-.66-2,.81-.93c10.05-176.32-36.91-215-209.31-132.12-.46.89-.88,1.74-1.34,2.64l.22-2.11c.38-.19.74-.35,1.12-.53,80.9-157,53.73-211.43-137.48-205.83-.78.63-1.51,1.24-2.3,1.87l1.07-1.84,1.23,0C914.08,727,911.4,666.22,734.45,593.57c-1,.26-1.88.52-2.86.77l1.72-1.24,1.14.47c170.79-44.92,193.08-101.54,61-239.89-1-.16-1.93-.29-2.93-.46l2.09-.44c.29.31.55.6.84.9,174.3,28.43,217.69-14.23,153.27-194.35-.84-.55-1.64-1.05-2.48-1.61l2.07.45c.15.39.27.76.41,1.16,147.67,96.86,204.66,75.54,219.07-115.21-.54-.85-1.07-1.63-1.61-2.48l1.71,1.25c0,.42-.07.81-.1,1.23,95.51,148.55,156.24,152.25,247-16.15-.15-1-.31-1.92-.46-2.92l1,1.85c-.19.37-.39.7-.59,1.07,26.83,174.56,80.81,202.64,232.21,85.72.26-1,.49-1.89.76-2.86l.22,2.11-1,.75c-46.49,170.37-8.6,218,177.26,172.74.64-.77,1.22-1.52,1.86-2.3l-.66,2-1.2.28c-111.77,136.74-96.51,195.64,91.68,229.92.9-.45,1.73-.9,2.64-1.35Z"/><path class="cls-2" d="M912.46,1046c82.77-159.4,56.07-214.35-137.37-208.44L774,839.39c140.45-111.95,138.41-173-40.71-246.29l-1.72,1.24c173.84-45.15,196.82-101.76,63-241.56l-2.08.44c177.18,29.46,221.19-12.91,155.79-195.05l-2.07-.45c149.87,99,207.31,78.17,221.65-114.83l-1.71-1.25C1262.8,193,1323.75,197.38,1415.34,26.9l-1-1.85c26.72,177.61,80.63,206.38,233.65,87.89l-.22-2.11c-47.82,173.12-10.28,221.32,177.7,175.32l.66-2c-114.1,138.71-99.41,198,91,232.45l1.43-1.58c-160.66,80.3-171.36,140.46-11.39,249.38l1.95-.86c-179.43,8-213.68,58.61-111.84,223.18h2.13c-167.18-65.65-219-33.36-192.94,158.41l1.94.87c-126-128-186.53-119.57-240.69,66.23l1.42,1.58c-63.07-168.17-121.77-185.1-246.82-37.39l.66,2c10.78-179.28-36-218.63-210.28-134.54"/><path class="cls-3" d="M912.46,1046c82.77-159.4,56.07-214.35-137.37-208.44L774,839.39c140.45-111.95,138.41-173-40.71-246.29l-1.72,1.24c173.84-45.15,196.82-101.76,63-241.56l-2.08.44c177.18,29.46,221.19-12.91,155.79-195.05l-2.07-.45c149.87,99,207.31,78.17,221.65-114.83l-1.71-1.25C1262.8,193,1323.75,197.38,1415.34,26.9l-1-1.85c26.72,177.61,80.63,206.38,233.65,87.89l-.22-2.11c-47.82,173.12-10.28,221.32,177.7,175.32l.66-2c-114.1,138.71-99.41,198,91,232.45l1.43-1.58c-160.66,80.3-171.36,140.46-11.39,249.38l1.95-.86c-179.43,8-213.68,58.61-111.84,223.18h2.13c-167.18-65.65-219-33.36-192.94,158.41l1.94.87c-126-128-186.53-119.57-240.69,66.23l1.42,1.58c-63.07-168.17-121.77-185.1-246.82-37.39l.66,2c10.78-179.28-36-218.63-210.28-134.54"/><circle class="cls-4" cx="1325.06" cy="619.42" r="398.41"/><circle class="cls-5" cx="1325.06" cy="619.42" r="398.41"/><ellipse class="cls-6" cx="1304.03" cy="377.69" rx="215.76" ry="111.27"/><path class="cls-7" d="M1175.48,867.73,1058.92,322.82a400.86,400.86,0,0,0-71.66,85c83.85,108.64,154.8,277.3,157,513.71,0,0,228.43-121.65,503.7-69.21a398.74,398.74,0,0,0,44.58-79.3Z"/><polygon class="cls-8" points="1046.2 263.24 1067.91 219.81 1332.98 171.41 1409.88 521.97 1742.34 461.81 1797.07 712.85 1775.81 758.08 1175.57 868 1046.2 263.24"/><polygon class="cls-9" points="1322.19 196.54 1332.47 171.41 1066.95 219.9 1101.04 236.05 1322.19 196.54"/><polygon class="cls-10" points="1101.04 236.05 1066.95 219.9 1197.23 825.93 1221.64 790.06 1101.04 236.05"/><polygon class="cls-11" points="1770.61 690.27 1221.64 790.06 1197.23 825.93 1797.07 715.28 1770.61 690.27"/><polygon class="cls-12" points="1741.83 461.81 1725.6 483.74 1770.61 690.27 1797.07 715.28 1741.83 461.81"/><polygon class="cls-13" points="1332.47 171.41 1322.19 196.54 1394.48 542.4 1409.37 521.97 1332.47 171.41"/><polygon class="cls-14" points="1409.37 521.97 1394.48 542.4 1395.4 542.24 1725.6 483.74 1741.83 461.81 1409.37 521.97"/><polygon class="cls-15" points="1221.64 790.06 1770.61 690.27 1725.6 483.74 1394.48 542.4 1322.19 196.54 1101.04 236.05 1221.64 790.06"/><path class="cls-16" d="M1365.78,460.21,1309.84,202.6l-204.23,37.31,69.56,312.88C1205.94,517,1272.91,455.38,1365.78,460.21Z"/><path class="cls-17" d="M1723.83,497.23l-.36-2-329,58.94C1404.67,579.9,1707.63,534.74,1723.83,497.23Z"/><path class="cls-18" d="M1227.59,783l531.93-95.67C1753.19,658.12,1219,737.27,1227.59,783Z"/><path class="cls-19" d="M1309.84,203.73l-204.23,37.32C1108.05,269.37,1322.19,232.7,1309.84,203.73Z"/><path class="cls-1" d="M2531.41,1115.88c-5-26.14-15.5-48.29-31.34-65.85-16.15-17.9-37.44-30.66-63.3-37.92a179.46,179.46,0,0,0-49.06-6.42h0c-5,0-10.13.17-15.35.52-28.6,1.89-54.64,9.51-77.39,22.65-1.86,1.08-3.69,2.21-5.51,3.36a24,24,0,0,0-23.68-20.09h-43.85l12.1-52a24,24,0,0,0-29-28.76l-88.39,21.46a24,24,0,0,0-17.73,18l-9.57,41.68h-28.77a23.89,23.89,0,0,1-19-.43h-44c.4-1.66.8-3.32,1.21-5,3.72-15.25,7.56-31,10.41-47.6a24,24,0,0,0-22.84-28.61h-.72l-1,0a24.26,24.26,0,0,0-5.16.79l-56.05,13.65-31.13,7.59a24,24,0,0,0-17.69,17.88l-7.13,30.61-2.65,11.4h-28.61a24,24,0,0,0-19.15,9.53c-1-1.84-2-3.74-3.24-5.69a279.15,279.15,0,0,0-46.55-56c-43.62-40.27-97.4-63.05-159.86-67.72-8-.6-16.14-.9-24.26-.9v0c-30.36,0-61.22,4-94.33,12.35q-11.57,2.9-23.1,6.33a24.06,24.06,0,0,0-12.34-3.42H1412A24,24,0,0,0,1388.59,926l-3.32,14.91c-33.12,15-67.89,33.79-106,57.05a24,24,0,0,0-11.35,23.09,24,24,0,0,0-18.31-8.49h-65.71a24,24,0,0,0-23.43,18.8l-8.69,39.16c-13.38-30.28-39.22-51.18-75.54-60.27a165.17,165.17,0,0,0-40.19-4.88h0a187.12,187.12,0,0,0-27.71,2.12c-31.36,4.74-59,16.42-82.08,34.73-17.85,14.14-33.13,32.37-45.59,54.32C871,1068,852.05,1044.77,825,1028.78c-35.07-20.72-72.89-23.11-98.29-23.11v0c-2,0-4.12,0-6.22.05-19.6.32-39.15,2.74-57.49,5.2-10.57,1.42-20.64,3.63-30.39,5.77-4.16.92-8.08,1.78-12,2.57a23.94,23.94,0,0,0-9.48,4.21A24,24,0,0,0,591.26,1013H503.58a24,24,0,0,0-23.39,18.65q-4.47,19.55-8.88,38.94c-7.07,31-14.37,63.09-21.66,94.46-5.92,25.49-12.82,35.87-18.78,42.65-5.22,5.94-9.35,7.25-12.74,7.48a42.54,42.54,0,0,1,.66-11.42c6.37-29.47,13.16-59.42,19.72-88.39q2.76-12.16,5.51-24.33c2.49-11,5-21.86,7.59-33.32q1.78-7.76,3.59-15.66a24,24,0,0,0-23.4-29.35h-88a24,24,0,0,0-19.5,10l8.9-41.21,6-27.73a24,24,0,0,0-12.32-26.32c-.93-.49-1.77-1-2.66-1.44a68.39,68.39,0,0,0-7.37-3.66c-32.44-13.3-64.85-20-96.33-20a221.23,221.23,0,0,0-63.79,9.42c-29.17,8.77-52.82,22.83-70.28,41.76-19,20.62-30.43,46.64-33.93,77.34-5.76,50.38,12.61,90.39,53.14,115.69,16.32,10.2,33.76,21.37,53.32,34.17,6.41,4.19,10.88,8.88,13.67,14.33,2.33,4.55,1.43,8.93-2.4,11.72a35.25,35.25,0,0,1-9.55,5.28,82.15,82.15,0,0,1-25.18,4,102,102,0,0,1-35.16-6.77c-6.84-2.53-13.78-5.72-21.13-9.1-3.55-1.64-7.23-3.33-11-5a24,24,0,0,0-30.52,10.05l-1.59,2.77c-1.12,1.94-2.28,4-3.41,6l-22.27,39.7-7.38,13.17A24,24,0,0,0,0,1278.52v3.94a24,24,0,0,0,17.39,23.07c1.1.32,2.08.55,2.81.72,27.36,13.21,53.66,21.1,80.34,24.14a321,321,0,0,0,36.43,2.17c35.37,0,66.39-6.72,94.82-20.55,22.32-10.85,40.49-24.58,54.19-40.92.17.57.33,1.13.52,1.69,10.89,33.38,35.83,54.2,70.2,58.61a153.22,153.22,0,0,0,19.45,1.26A134.45,134.45,0,0,0,452,1309.74a89.3,89.3,0,0,0,4.48,10.07,24,24,0,0,0,21.27,12.9,24.29,24.29,0,0,0,5.2-.57l22.88-5.07,33-7.3L514,1430.46a24,24,0,0,0,23.42,29.24h87a24,24,0,0,0,23.45-18.88l24.34-111.52a186.18,186.18,0,0,0,35.09,3.11c1.23,0,2.47,0,3.7,0,31.72-.48,60.65-7.92,86-22.1,24.65-13.81,46.11-34.13,63.78-60.41q1.37-2,2.65-4.07a128.09,128.09,0,0,0,31.18,49.5c23.33,22.92,54.83,36.1,88.72,37.12,2.69.08,5.42.12,8.09.12a263.17,263.17,0,0,0,107.36-23l2.67-1.21a24,24,0,0,0,23.39,18.59h86.06a24,24,0,0,0,23.35-18.44q.67-2.85,1.34-5.62c1-4.09,1.92-8,2.84-12,2.56-11.14,5.13-22.45,7.61-33.4,5.83-25.65,11.85-52.17,18.14-78.08,3.43-14.11,8.78-26.53,15.9-36.92,6.53-9.51,11.43-9.51,13.52-9.51a17.38,17.38,0,0,1,2,.12c5,.58,10.51,2.06,16.91,3.77,3.42.92,7,1.86,10.79,2.77a23.87,23.87,0,0,0,19.51-3.83l-35.62,161.94a24,24,0,0,0,23.44,29.16H1543.6a24,24,0,0,0,23.31-18.29l1.68-6.76c.72-2.87,1.45-5.8,2.17-8.76a123.93,123.93,0,0,0,20.9,16.85c21.12,13.52,47,21,77.06,22.39,3.4.15,6.81.23,10.13.23,49.42,0,91.22-16.74,124.26-49.74q7.38-7.38,13.79-15.13a77.14,77.14,0,0,0,16.16,35c15.07,18.34,38,28.88,64.51,29.67,2.74.08,5.49.13,8.19.13a227.56,227.56,0,0,0,67.46-9.67c20.68-6.33,37.4-13.64,52.6-23a24,24,0,0,0,10.23-27.86q-1.42-4.35-2.79-8.59c-2.11-6.52-4.1-12.67-6.19-18.95s-4.13-12.31-6.32-18.75c-1-2.79-1.91-5.61-2.88-8.48a24,24,0,0,0-31.87-14.49c-2.07.85-3.94,1.68-5.6,2.42a54.31,54.31,0,0,1-6.08,2.46c-2.18.61-4.32,1.23-6.39,1.84-4.43,1.29-8.7,2.53-12.66,3.38,2.54-11.8,5.18-23.71,7.75-35.28q2.61-11.81,5.21-23.59c2.34-10.71,4.61-21.19,7-32.18h41.56a23.94,23.94,0,0,0,15.1-5.36,24,24,0,0,0,15.29,5.51h18.77c-2.4,10.43-4.88,21.21-7.23,31.88-1.59,7.22-3.28,14.61-4.91,21.74-4.46,19.47-9.06,39.61-12.49,60-4.29,25.42,1.42,49.27,16.08,67.15,15.05,18.38,38.18,29,65.11,29.79,2.54.08,5.11.12,7.64.12,38.78,0,76.45-9.4,112-27.93a74.93,74.93,0,0,0,6.5-3.92c.6-.4,1.23-.82,1.9-1.23s1.35-.92,2-1.41c14.48,12.48,32.11,21.82,52.6,27.8,11.15,3.25,22,4.67,32.57,6,4.41.58,8.58,1.12,12.64,1.78a23.84,23.84,0,0,0,3.86.32l.86,0c33.95-1.22,62.64-8.78,87.7-23.12,34.22-19.58,60.55-47.86,76.14-81.79C2534.62,1194.75,2539,1155.63,2531.41,1115.88Z"/><path class="cls-20" d="M1112,1277.62v0Z"/><path class="cls-21" d="M24,1278.52q14.82-26.43,29.65-52.87c1.58-2.81,3.2-5.6,4.9-8.58,11.47,5.06,22.26,10.49,33.52,14.65,24.9,9.2,50.37,11.38,76,3.15a59.68,59.68,0,0,0,16.33-8.72c13.55-9.86,17.28-27.16,9.64-42.07-5.07-9.89-12.73-17.48-21.88-23.47q-26.72-17.47-53.76-34.44c-34.6-21.61-46.45-53.75-42-92.61,6.05-52.91,38.81-84.27,87.29-98.85s97.16-9.4,144.1,9.84c2.4,1,4.63,2.39,8,4.15-5,23-10,46.18-15.15,70.11-6.47-3.21-12.18-6.29-18.08-8.94-26.51-11.92-54-18-83.12-12.83-12.73,2.25-24.13,7.2-29.25,20.26-5.4,13.77-2.87,26.67,7.32,37.26a119,119,0,0,0,20.39,16.78c17.79,11.67,36.32,22.22,54,34,24.78,16.56,37.54,40.58,39.77,70,4.28,56.43-25.48,93.26-70.35,115.08-37.52,18.24-77.34,20.73-118,16.11-26-3-50.38-11-73.79-22.47a32.77,32.77,0,0,0-5.46-1.61Z"/><path class="cls-21" d="M1559.61,1233.36c-1.45-8.67-3.33-17.3-4.29-26-6.81-61.95,13.11-112.77,63.76-150.28,22.41-16.59,48.06-24.64,75.82-26.69,21.77-1.61,43.21-.23,64,6.56,27.38,8.94,48.08,26.1,61.15,52,.68,1.36,1.57,2.63,3.31,5.52,4.44-20,8.51-38.45,12.79-57.77h47.67c4.78-20.56,9.41-40.47,14.09-60.57l87.69-21.37c-4.75,27.93-12.58,53.73-18.13,81.22h74.09c-8.61,21.46-16.58,41.35-24.75,61.7h-60.92c-3.76,17.36-7.39,34.21-11.08,51-4.68,21.4-9.52,42.76-14.1,64.18-3.53,16.54,4,26.18,20.62,24.7,9.94-.89,19.71-4.26,29.43-7,4.63-1.28,9-3.59,14.41-5.82,3.17,9.37,6.21,18.21,9.15,27.09s5.85,17.94,8.93,27.41c-15.08,9.3-30.79,15.52-47,20.49-22.13,6.76-44.8,9.19-67.92,8.5-39.28-1.16-64.3-29.84-57.82-68.55,4.53-27,11.21-53.72,17.14-80.51,4-17.87,8.34-35.65,12.44-53.49a64.6,64.6,0,0,0,.78-7.41h-45.68c.69,2.5,1.29,4.63,1.87,6.77,16.61,61.24,4.46,115.39-40.86,160.67-32,32-71.59,44.52-116.36,42.52-50.29-2.25-87.69-23.62-107.63-71.44-.57-1.38-1.79-2.48-2.71-3.71Zm191.14-77.11c.36-17-1.31-26.77-5.84-35.43-16-30.48-60.43-34.69-83-7.25-21,25.5-27.41,55.55-21.77,87.52,6.26,35.48,39.55,51,71.83,34.61,15-7.61,24.64-20.12,30.8-35.48A107.32,107.32,0,0,0,1750.75,1156.25Z"/><path class="cls-21" d="M654.08,1299.37c-10,46-19.85,91-29.75,136.33h-87c29.3-130.85,58.47-261.15,88-392.92,13.42-2.71,27-6.22,40.82-8.07,18.13-2.43,36.43-4.7,54.68-5,32-.52,63.51,2.94,91.92,19.72,26.66,15.75,43.18,39.18,48.88,69.25,7.9,41.65,3.21,81.93-20.9,117.79-30.88,45.94-73.93,71-130.2,71.9C691.69,1308.67,673.32,1306.62,654.08,1299.37ZM699.9,1098l-29.87,138c25.45,12.23,55.78,8.16,75.67-10.23,22.63-20.93,32.58-47.27,29.83-77.71C772,1108.62,738.13,1088,699.9,1098Z"/><path class="cls-21" d="M343.82,1036.67h88c-3.83,16.77-7.55,32.9-11.19,49-8.5,37.63-17.13,75.23-25.28,112.94a68.36,68.36,0,0,0-1,20.45c1.26,13.56,9.44,20.23,23,20.07,13-.15,23.18-6.19,31.51-15.67,13.38-15.23,19.65-33.81,24.13-53.06,10.27-44.23,20.28-88.52,30.55-133.48h87.68c-3,13.19-5.77,25.88-8.68,38.55-11.2,48.74-22.64,97.43-33.55,146.25-4.5,20.16-6.95,40.63-3.66,61.36.5,3.17.44,6.42.68,10.44l-68.33,15.15c-6.92-13.27-8.23-27.32-11.14-41.81-6.7,5.79-12.8,11.45-19.31,16.6-25.73,20.38-55.27,28.22-87.52,24.08-25.28-3.24-42.43-17.72-50.44-42.25-6.57-20.12-6.55-40.83-2.5-61.16,7.72-38.77,16.63-77.31,25.16-115.92C335.71,1071.35,339.71,1054.51,343.82,1036.67Z"/><path class="cls-21" d="M2354.18,1309.94c-14.14-2.31-28.7-3.2-42.35-7.18-42.83-12.5-69.41-41.48-78-85-8.4-42.68-2.08-83.68,22.83-120.25,28-41.17,67-64,117.24-67.37,19.19-1.27,38-.07,56.35,5.07,43.39,12.18,69.33,41.79,77.55,85.13,13.56,71.45-16.59,135.05-77,169.62C2407.28,1303.44,2381.53,1309,2354.18,1309.94Zm73.49-154.61c0-4.58.34-9.19-.07-13.73-1-11.31-4.5-21.76-12.21-30.38-20.41-22.81-59.21-20.78-78.42,4.28-18.51,24.15-23.94,52.11-20.84,81.56,2.6,24.57,17.88,41.09,38.3,43.82,23.06,3.09,41.81-4.66,55.68-23.54C2423.69,1198.88,2427.54,1177.59,2427.67,1155.33Z"/><path class="cls-21" d="M1123.81,1192.58l-160,3c-2.75,19.87,7.15,35.56,26.17,42.78,16.56,6.29,33.56,5.81,50.29,1.79,16.16-3.89,32-9.29,49.34-14.45l19,52.52c-6.85,3.27-13.22,6.5-19.74,9.39a237.64,237.64,0,0,1-105,20.87c-57.5-1.73-101.5-44.86-103.93-102.23-1.23-29.2,1.82-57.62,14.41-84.18,23.69-50,61.67-82.36,117.45-90.79,19.44-2.93,39.2-2.53,58.49,2.31,41,10.26,64.1,37.82,67.43,80C1139.25,1132.15,1132.11,1173.45,1123.81,1192.58Zm-150-57.19h80.52c.86-2.54,1.61-4.35,2.1-6.23,5.62-21.87-5.68-37.05-28.12-37.83C1002.74,1090.44,981.18,1107.63,973.84,1135.39Z"/><path class="cls-21" d="M2122.26,976.14l88.39-21.47c-6.55,28.14-12.65,54.36-19,81.46h74.07c-8.43,21.16-16.32,41-24.44,61.35h-60.91c-3.09,14.08-6.09,27.69-9.07,41.3q-8.08,36.88-16.12,73.77a32.28,32.28,0,0,0-1,8.72c.64,9.86,6.31,16.26,16.16,16.24a104,104,0,0,0,25.05-3.56c7.84-2,15.29-5.57,24.14-8.92,6,17.89,12,35.67,18.14,54-2.47,1.56-4.51,3-6.73,4.2-33.77,17.61-69.53,26.29-107.78,25.1-40-1.24-64.91-29.6-58.28-69,4.56-27,11.28-53.71,17.18-80.52,4-18.19,8.3-36.32,12.39-54.49a50.76,50.76,0,0,0,.53-6.55h-47.9c4.55-20.94,8.87-40.79,13.35-61.42h47.88C2113.07,1016.11,2117.59,996.45,2122.26,976.14Z"/><path class="cls-21" d="M1559.45,1233.19c-3.5,15.94-6.94,31.89-10.52,47.81-1.63,7.3-3.53,14.54-5.33,21.88H1330.51c23.24-105.65,46.32-210.56,69.43-315.64,30.39-9.65,60.45-17.94,92.93-22-19.72,89.49-39.17,177.72-59,267.56l125.72.61Z"/><path class="cls-21" d="M1210.79,1302.88h-86.06c19.81-89.24,39.45-177.69,59.12-266.31h65.71v44.72l1.94.54c1.62-2.23,3.29-4.43,4.86-6.7,5.4-7.8,10.34-16,16.23-23.39,13-16.32,30-23.08,50.93-21.71,13.46.88,25.8,4,36.81,11.81a72.68,72.68,0,0,1,5.76,5.21c-12.74,23.6-25.39,47-37.35,69.22-11-2.63-20.62-5.88-30.47-7-16.69-2-29,6.34-38.09,19.66-9.37,13.66-15.56,28.91-19.43,44.83-9,37.15-17.25,74.49-25.82,111.76C1213.61,1291.19,1212.22,1296.89,1210.79,1302.88Z"/><path class="cls-21" d="M1798.52,1038.76c-66.47-35.71-129.43-31.89-191.1,7.12.44-8.84,1.25-17.6,1.22-26.35a66.18,66.18,0,0,0-8.05-32c-9.82-17.94-26.43-25.66-45.3-29.52-18.47-3.78-37.16-3.34-55.77-1.09-68.59,8.31-132.41,32.49-195.53,59a72.66,72.66,0,0,1-7.28,2.85c-1.16.34-2.56-.1-5-.26,64.4-39.26,130.23-72.65,202.86-90.87,36.44-9.14,73.44-13.6,111-10.8,55.24,4.13,104.25,23.46,145.37,61.42a253.46,253.46,0,0,1,42.54,51.17C1795.1,1032,1796.42,1034.87,1798.52,1038.76Z"/><path class="cls-22" d="M2218.19,1322.06h38.72c-.59,4-.94,7.67-1.73,11.3-6.35,29-12.89,58-19.13,87.07-2.59,12-2.18,24.27,8.5,32.22,11.31,8.4,24.25,6.63,36.41.94a30.75,30.75,0,0,0,16.91-20.66c4.23-16.09,8-32.3,11.68-48.52,4.7-20.68,9.16-41.4,13.78-62.39h39.26c-3.43,16.14-6.67,31.69-10.07,47.21-4.47,20.42-8.7,40.9-13.72,61.19-4.91,19.83-13,38.34-32.15,48.4-27.81,14.62-56.94,17-86,3.79-15.86-7.19-23.54-21.16-25.31-38.29-1.61-15.61,2.44-30.51,5.84-45.51C2207,1373.39,2212.49,1347.9,2218.19,1322.06Z"/><path class="cls-22" d="M2020.87,1432.82q-6.13,27.53-12.3,55.2H1969c12.09-55.44,24.06-110.37,36.15-165.8,2.75-.24,5.27-.63,7.8-.64,13.76-.06,27.54-.48,41.27.15,7.73.35,15.76,1.42,23,4,23,8.3,29.73,26.17,28.42,46.26-2.47,38-32.71,53.57-57.2,57.81C2039.49,1431.39,2030.35,1431.83,2020.87,1432.82Zm6.6-30.17c5.88-.4,10.76-.2,15.4-1.15,15.76-3.21,23-12,23.49-27.82.38-11.56-6.3-19.24-17.89-20.29-3.17-.29-6.39,0-10,0C2034.77,1369.83,2031.27,1385.58,2027.47,1402.65Z"/><path class="cls-22" d="M2352.76,1449.9c9.16,3.11,17.34,6.25,25.74,8.62s17,1.32,25.05-1.83c13.06-5.09,15.81-17.06,6.26-27.34a51,51,0,0,0-9.22-7.25c-6.26-4.17-12.48-8.45-19.07-12-27.85-15.2-24.71-52.83-8.93-69.86,9.72-10.48,21.55-17.07,35.59-19.13,20.38-3,40.33-1.83,60.08,8.17-2.1,10.26-4.16,20.29-6.31,30.83-7.77-2.76-14.28-6-21.15-7.28a119.4,119.4,0,0,0-24.29-1.43c-6.74.16-11.79,4-13.83,10.65-2,6.36.29,12,5.28,15.77,7.8,5.9,16.1,11.16,24.33,16.46,7.44,4.8,14.8,9.42,19.43,17.5,11,19.21,8.38,50.33-17.54,66.09-24.83,15.11-51.26,16.06-78.45,7.75-5.86-1.79-11.48-4.37-18.48-7.08C2342.87,1468.12,2347.93,1458.8,2352.76,1449.9Z"/><path class="cls-22" d="M2087.65,1488l36.5-165.9h39.72c-9.78,44.48-19.48,88.58-29.39,133.63h54.79c.74,11.84-4.29,21.59-5.83,32.27Z"/><path class="cls-21" d="M1408,949.17c1.65-7.43,2.76-12.45,4-17.95h41.27c.15.3.31.6.47.89Z"/><path class="cls-21" d="M1372.2,1426.64c0-11.26-.18-22.53,0-33.8,0-3.29-.7-4.5-4.16-4.33q-19.24.26-38.48,0c-2.43,0-4.34-.17-4.34,3.29.52,21.15-.69,42.3.7,63.44.69,10.06,5.37,14.39,15.6,14.39,4,0,7.8-.69,11.78-.87,1.22,0,3.47-1.73,3.47,1,0,2.08,1.56,4.86-1.56,6.24-10.75,5-21.84,7.46-33.8,5.2-8.49-1.56-13-7.1-14.56-15.08a55.25,55.25,0,0,1-1-10.74c-.17-20.8-.17-41.6,0-62.58,0-3.46-.87-5-4.51-4.5a55.18,55.18,0,0,1-9.18,0c-1.56,0-4,1-4.51-1-.69-2.6-.17-5.38,0-8.15,0-.35,1-.69,1.73-.69a18.06,18.06,0,0,1,3.12,0c4.51-.35,10.58,2.08,13.18-1,2.77-3,.69-8.84.86-13.35.18-4.68.18-9.18,0-13.86,0-2.6.7-3.82,3.47-3.64,4.85.34,11.09-1.91,14.39.86,3.12,2.78.69,9,1,13.69.17,4.51.17,8.84,0,13.35-.18,3.29,1,4,4.16,4q19.5-.27,39,0c3.29,0,4.5-.7,4.33-4.16-.17-7.8,0-15.78-.17-23.57,0-3.12.69-4.34,4-4.16a91,91,0,0,0,11.79,0c2.77-.18,3.47.86,3.47,3.46-.18,8,.17,16.12-.18,24.09-.17,3.47,1,4.34,4.34,4.16,7.1-.17,14.38.18,21.49-.17,4.33-.17,3.47,2.6,3.47,5s.86,5.37-3.47,5.2c-7.28-.18-14.73,0-22-.18-2.95,0-3.82.87-3.64,3.82.17,19.76,0,39.69.17,59.45.17,13.87,5.2,18.37,18.89,17.85,3-.17,5.72-.69,8.67-.86,1.39,0,3.47-1.22,3.64,1.21.17,2.08,1.39,4.85-1.73,6.24-10.58,4.68-21.67,7.45-33.28,5.2-10.06-1.91-15.43-9-15.6-20.45-.7-11.1-.35-22.54-.52-34Z"/><path class="cls-21" d="M1655.42,1454.72c8.14-18.72,15.6-36.4,22.53-54.42,3.47-9,2.25-11.1-6.76-14.22-1-.34-1.91-.52-3-.86-2.77-.7-1.73-3-1.73-4.68-.17-2.43,1.56-2.26,3.12-2.26h31.2c1.56,0,3.64-.52,3.64,2.26,0,2.08.35,4-2.43,4.85-8.14,2.6-12.48,8.67-15.77,16.29-13.35,30.68-25,61.88-39.52,92-4.16,8.67-9,16.82-15.77,23.75-6.76,7.1-14.74,10.22-24.61,7.62a14.46,14.46,0,0,1-9.54-7.27c-2.25-4.16-1.21-9.88,2.26-13.35,3.29-3.29,8.14-3.81,12.82-1.39,3.81,2.08,6.24,5.38,8.32,8.84,1.21,2.08,2.43,2.78,4.33.87,9.19-9.36,14.91-20.63,19.94-32.41.69-1.56-.52-3-1-4.34q-16.12-38.73-32.07-77.48c-2.77-6.76-7.28-11.09-14.21-12.82-3.29-.87-3.29-2.78-3.29-5.2.17-3.12,2.42-2.43,4.16-2.43h39c2.08,0,4.16-.17,4,3-.17,2.6,0,4.68-3.64,4.68a14.18,14.18,0,0,0-4.51,1c-2.94.86-4.33,2.42-2.94,5.72C1638.43,1413,1646.75,1433.23,1655.42,1454.72Z"/><path class="cls-21" d="M1175.81,1392.84v65c0,10.4,1.91,13,12.14,14.91,3.12.52,3.12,2.08,3.29,4.51.17,2.94-1.56,2.77-3.64,2.77h-43c-2.08,0-3.64,0-3.64-2.77,0-2.43.35-4,3.47-4.34,10.75-1.21,12.13-2.6,12.13-13.34V1349.51c0-14-2.6-17.33-16.46-19.76-2.95-.52-4.51-1-4.34-4.5.18-3.82,2.78-2.78,4.68-3,10.06-.69,20.11-1,30.16-1.91,4-.34,5.38.87,5.38,5C1175.64,1347.78,1175.81,1370.31,1175.81,1392.84Z"/><path class="cls-23" d="M964.35,1427.51c.35,10.75,1.91,21.32,8,30.68,10.58,16,31,18,44.55,4.51a58.51,58.51,0,0,0,5.89-7.11c1.56-2.43,2.6-3.81,5.9-1.73,3.12,2.08,2.77,3.46,1,6.06-15.78,24.79-49.06,30.34-70.2,11.79-10.58-9.36-14.39-21.84-16.12-35.53-3.12-25,9.7-49.4,31.54-57.55,14.74-5.72,29.47-5.37,42.82,4.85,7.45,5.72,10.4,16.82,7.28,25-2.08,5.38-6.24,7.63-12.31,6.59-6.59-1-10.23-5-10.23-10.75a44,44,0,0,1,1.91-11.61c1.21-4.51-.69-7.11-5-8.49-10.92-3.47-21.32.52-27.56,11.09C965.74,1405.15,964.7,1416.24,964.35,1427.51Z"/><path class="cls-21" d="M1546.57,1393.19a58.38,58.38,0,0,1,12.3-11.61,35.12,35.12,0,0,1,13.7-5.55c6.41-1,12,.52,15.77,6.07,3.47,5,3.29,13.34-.17,18.37-3.13,4.51-7.63,4.68-12.31,3.47-4.51-1.22-7.28-4.16-7.45-9.19a19.44,19.44,0,0,1,.34-4.51c.69-2.6-.34-2.94-2.42-2.77-9.71,1-19.42,11.61-19.42,21.49v46.63c0,13.69,1.74,16,15.6,17,3.47.34,4.34,1.56,4.16,4.68-.17,2.08-.86,2.6-2.77,2.6h-48.71c-2.25,0-3.12-.87-2.94-2.95.17-1.91-.35-4,2.42-4.16a32.27,32.27,0,0,0,4.16-.35c5.9-.86,8.5-3.64,8.67-9.53.17-21,.17-41.95,0-63.09,0-7.63-4.33-12.14-12-13.52-2.43-.35-4.33-.52-4.33-4.16,0-3.82,2.42-3.47,4.68-3.64,8.84-.52,17.68-.87,26.52-1.74,3.81-.34,4.85,1.22,4.68,4.68C1546.39,1385.22,1546.57,1388.51,1546.57,1393.19Z"/><path class="cls-23" d="M1132.65,1473.79c0-2.77-2.08-2.08-3.64-2.25-11.26-.7-14-3.47-13.86-14.91.17-16.81.69-33.45.69-50.27-.17-12.13-3.64-23.22-16.12-27.73-17.16-6.24-34-5-49.22,5.72-4.16,3-7.46,6.59-8.67,11.79-1.21,5-.17,9.7,4.16,12.82,4.16,3.12,8.84,2.26,13,0,4.51-2.42,5.55-6.76,4.68-11.44-.35-2.42-.87-4.68-1.39-6.93a3.45,3.45,0,0,1,1.74-4.33c10.57-6.24,28.25-5.55,31.71,13,.7,3.81.52,7.8.87,11.78.17,3.12-1,4.68-3.81,5.72-7.46,2.6-14.73,5.38-22.19,8s-14.9,4.68-21.66,9c-10.06,6.41-14.39,17.85-11.62,30.51,2.26,10,10.4,17.16,22,18.37a39.59,39.59,0,0,0,29.81-8.32l7.28-6.24c5.89,12.13,11.44,15.6,23.57,14.21,3.47-.34,6.93-1.9,10.4-2.77C1133.35,1478.3,1132.65,1476,1132.65,1473.79ZM1095.74,1458a4.22,4.22,0,0,1-1,2.77c-5.89,6.76-13,11.09-22.18,10.57-12-.69-17.85-10.22-14.39-22.88,1.56-5.72,5.2-9.88,9.88-13.17,8.32-5.72,18-8.49,27.73-11.44C1095.74,1435.48,1095.74,1446.75,1095.74,1458Z"/><path class="cls-21" d="M1290.38,1415.2c-4-19.06-14.73-32.76-34-37.78-20.28-5.38-38.82-1.74-52.86,15.08-12.83,15.42-15.08,33.8-10.4,52.69,4.5,18.72,16.29,31.72,35.18,36.23,18.55,4.5,35.71.69,49.23-13.87,10.22-11.09,13.69-24.79,14-39.69A78.64,78.64,0,0,0,1290.38,1415.2Zm-25.82,43.34c-5.55,12.3-14.21,17.68-26.52,16.29-9.71-1-15.43-7.28-19.41-15.6-5.55-12-6.59-24.61-5.72-37.44.52-8.32,1.73-16.64,5.89-24.09,5.2-9.36,12.65-14.91,23.92-14.39,10.92.35,17.68,6.59,21.84,16,4.33,9.53,5.37,19.58,5.37,30C1269.93,1439.3,1268.72,1449.18,1264.56,1458.54Z"/><path class="cls-21" d="M1506.87,1453.51c-4-2.6-4.68.35-5.89,2.6-6.93,11.61-17.16,16.81-30.51,15.25-14.21-1.56-22.53-10-27-23-1.9-5.89-2.42-12-3.12-18-.34-3.46.87-4.33,4.16-4.33,9.88.17,19.76,0,29.64,0,10.06,0,20.11-.17,30.16,0,3.12,0,4.34-.69,4.16-4-.34-4.16-.34-8.49-.86-12.82-2.08-13-7.8-23.58-20.11-29.64-19.07-9.36-43-3.82-55.81,13-10.92,14.21-13.52,30.5-10.92,48,3.12,21.49,16.29,36.75,35.88,41.08,21,4.68,40.38-3.29,52-21.15C1510.51,1457.15,1510.34,1455.59,1506.87,1453.51Zm-66.56-38.83c1-9.36,3.12-18.2,10.23-25,12-11.61,29.64-7.28,34.67,8.5,1.73,5.2,1.9,10.74,2.42,16.12.18,2.77-1,3.12-3.29,3.12h-40.91C1441.53,1417.28,1440,1417.28,1440.31,1414.68Z"/><path class="cls-21" d="M1709.86,1391.22a10.17,10.17,0,0,1,4.84,1.27,9.08,9.08,0,0,1,3.68,3.64,9.88,9.88,0,0,1,0,9.83,9.17,9.17,0,0,1-3.64,3.64,9.87,9.87,0,0,1-9.79,0,9.2,9.2,0,0,1-3.65-3.64,9.88,9.88,0,0,1,0-9.83,9,9,0,0,1,3.69-3.64A10.14,10.14,0,0,1,1709.86,1391.22Zm0,1.63a8.46,8.46,0,0,0-4,1.06,7.68,7.68,0,0,0-3.07,3,8.3,8.3,0,0,0-1.11,4.12,8.17,8.17,0,0,0,1.09,4.07,7.67,7.67,0,0,0,3,3,8.2,8.2,0,0,0,8.17,0,7.64,7.64,0,0,0,3-3,8.17,8.17,0,0,0,1.09-4.07A8.3,8.3,0,0,0,1717,1397a7.55,7.55,0,0,0-3.07-3A8.46,8.46,0,0,0,1709.86,1392.85Zm-4.31,13.66v-10.59h3.64a8.7,8.7,0,0,1,2.69.29,2.65,2.65,0,0,1,1.33,1,2.75,2.75,0,0,1,.5,1.56,2.85,2.85,0,0,1-.83,2,3.28,3.28,0,0,1-2.2,1,3.15,3.15,0,0,1,.91.56,12.84,12.84,0,0,1,1.56,2.1l1.29,2.08h-2.09l-.93-1.67a8.52,8.52,0,0,0-1.79-2.47,2.22,2.22,0,0,0-1.37-.36h-1v4.5Zm1.7-6h2.08a3.31,3.31,0,0,0,2-.45,1.42,1.42,0,0,0,.54-1.17,1.46,1.46,0,0,0-.26-.84,1.65,1.65,0,0,0-.73-.56,5.43,5.43,0,0,0-1.71-.18h-2Z"/><path class="cls-21" d="M2500.76,1323.06a23.88,23.88,0,0,1,11.44,3,21.41,21.41,0,0,1,8.69,8.6,23.39,23.39,0,0,1,.05,23.22,21.74,21.74,0,0,1-8.6,8.62,23.42,23.42,0,0,1-23.15,0,21.7,21.7,0,0,1-8.61-8.62,23.4,23.4,0,0,1-3.09-11.55,23.65,23.65,0,0,1,3.13-11.67,21.52,21.52,0,0,1,8.71-8.6A23.87,23.87,0,0,1,2500.76,1323.06Zm0,3.85a19.89,19.89,0,0,0-9.54,2.51,18,18,0,0,0-7.25,7.18,19.35,19.35,0,0,0,0,19.36,18.34,18.34,0,0,0,7.2,7.18,19.38,19.38,0,0,0,19.29,0,18.17,18.17,0,0,0,7.18-7.18,19.42,19.42,0,0,0-.05-19.36,17.9,17.9,0,0,0-7.25-7.18A19.91,19.91,0,0,0,2500.76,1326.91Zm-10.2,32.27v-25h8.6a20.7,20.7,0,0,1,6.38.7,6.13,6.13,0,0,1,3.14,2.42,6.41,6.41,0,0,1,1.17,3.66,6.69,6.69,0,0,1-1.95,4.78,7.72,7.72,0,0,1-5.2,2.28,6.64,6.64,0,0,1,2.13,1.33,28.29,28.29,0,0,1,3.7,5l3,4.9h-4.93l-2.22-4c-1.75-3.1-3.15-5-4.22-5.82a5.17,5.17,0,0,0-3.24-.86h-2.37v10.63Zm4-14.09h4.9c2.34,0,3.94-.35,4.79-1a3.43,3.43,0,0,0,1.28-2.78,3.28,3.28,0,0,0-.62-2,3.67,3.67,0,0,0-1.71-1.32,12.84,12.84,0,0,0-4-.43h-4.59Z"/></g></g></svg>