<svg version="1.1" id="Layer_2" xmlns="http://www.w3.org/2000/svg" xlink="http://www.w3.org/1999/xlink" x="0px" y="0px" viewBox="-0.1 -0.2 640 188.29999999999998" style="enable-background:new 0 0 640 188;" space="preserve" enable-background="-0.1 -0.2 640 188.29999999999998" >
<style type="text/css">
	.st0{fill:#EE3124;}
	.st1{fill:#0076BE;}
	.st2{fill:#009ADA;}
	.st3{fill:#7DCEF1;}
	.st4{fill:#FFFFFF;}
</style>
<g>
	<g>
		<g>
			<g>
				<path class="st0" d="M617.4,30.6l2.2-15.1C574.5,8.9,529,9.1,484.1,16c3.7,4.2,6.4,9,7.8,14.3C533.5,24.4,575.6,24.5,617.4,30.6
					z"/>
				<path class="st0" d="M492.7,43.6c-0.9,6.2-3.6,11.6-7.9,16.2c44.3-5.2,88.7-3.1,132.2,6.1l3.2-14.9
					C578.3,42.1,535.4,39.6,492.7,43.6z"/>
				<path class="st0" d="M159.1,102.7c3.6-0.6,7.3-1.2,10.9-1.9c12.2-2.1,24.4-4.1,36.6-6c-0.4-9.2-0.8-18.5-1.2-27.7
					c-7,0.8-14.1,1.7-21.1,2.6c-0.9-22-1.8-44-2.7-66.1c-8.8,0.3-17.6,0.7-26.4,1.1c0.7,18,1.4,35.9,2.1,53.7
					C158,73.2,158.5,87.9,159.1,102.7z"/>
				<path class="st0" d="M251.1,90.4c23.9-3.7,38.8-22.5,37.5-47.9C287.3,16.9,271-0.2,247.4-0.2c-24.7,0-39.3,19-38.1,48.6
					C210.6,77.7,227,94.1,251.1,90.4z M248,27.8c7-0.3,11.8,6.3,12.3,16.7c0.5,10.3-3.8,17.4-10.6,18.2c-7,0.7-11.7-5.5-12.2-16.3
					C237,35.5,241.2,28.1,248,27.8z"/>
				<path class="st0" d="M305.4,24.8c0.9,18.7,1.9,37.3,2.8,55.8c8.8-1.1,17.6-2.1,26.4-3.1c-0.9-17.7-1.9-35.5-2.8-53.4
					c3.6-0.1,7.2-0.1,10.8-0.2c1.3,0,2.5,0,3.8-0.1c-0.4-7.2-0.8-14.3-1.1-21.5c-1.2,0-2.5,0-3.7-0.1c-17.4-0.4-34.7-0.6-52.1-0.6
					c0.4,7.9,0.8,15.7,1.1,23.6C295.5,25.1,300.4,24.9,305.4,24.8z"/>
				<path class="st0" d="M352.9,23.8c3.7,0,7.4-0.1,11.1-0.1c0.9,16.9,1.9,33.8,2.8,50.6c8.8-0.9,17.6-1.7,26.4-2.5
					c-0.9-16-1.9-32-2.8-48.2c4.9,0,9.7,0,14.6,0c-0.4-6.4-0.8-12.9-1.1-19.4c-17.4-0.8-34.7-1.3-52.1-1.7c-1.3,0-2.5-0.1-3.8-0.1
					c0.4,7.2,0.8,14.3,1.1,21.5C350.4,23.8,351.7,23.8,352.9,23.8z"/>
				<path class="st0" d="M450.3,68.7c13.3-1.1,23.8-5.4,30.3-12c3.5-3.6,5.8-7.8,6.8-12.5c0.5-2.3,0.6-4.6,0.4-7.1
					c-0.1-2.1-0.5-4.1-1.1-6c-1.5-5.3-4.6-10.1-8.9-14c-7.3-6.7-18.1-11.1-31.2-12c-24.7-1.8-39.3,10.9-38.1,32.4
					C409.8,58.5,426.3,70.7,450.3,68.7z M459.6,37c0.5,7.2-3.7,12-10.6,12.2c-7,0.2-11.7-4.3-12.2-12c-0.5-7.8,3.7-12.7,10.5-12.6
					C454.2,24.8,459.1,29.8,459.6,37z"/>
				<path class="st0" d="M203.7,111.8c-11.4,2.1-22.8,4.3-34.2,6.6c-5.4,20.3-10.7,40.2-16.1,59.6c8.9-1.1,17.8-2.1,26.7-3.1
					c0.5-3,1.1-6,1.6-9.1c5.4-0.7,10.8-1.3,16.2-1.9c0.9,2.9,1.8,5.9,2.7,8.9c8.3-0.8,16.5-1.6,24.8-2.3c0.7-0.1,1.4-0.1,2.2-0.2
					c-0.9-2.2-1.7-4.4-2.6-6.6C217.9,145.8,210.8,128.5,203.7,111.8z M186.2,138.2c0.2-1.8,0.5-3.7,0.7-5.5c0.2-2,0.4-4,0.6-6
					c0.4,1.9,0.8,3.7,1.2,5.6c0.4,1.8,0.8,3.6,1.2,5.3c1.2,3.9,2.4,7.9,3.7,11.9c-3.1,0.4-6.2,0.9-9.3,1.3
					C184.9,146.6,185.5,142.4,186.2,138.2z"/>
				<path class="st0" d="M279.6,99.1c-2.1,11.2-4.2,22.3-6.3,33.3c-3.5-10.4-7-20.6-10.6-30.7c-11.6,1.8-23.2,3.7-34.8,5.8
					c1.1,18.2,2.3,36.5,3.4,54.9c0.2,2.6,0.3,5.1,0.5,7.6c0.7-0.1,1.4-0.1,2.2-0.2c7.5-0.6,14.9-1.2,22.4-1.8
					c-0.5-8.3-1-16.6-1.5-24.9c-0.2-3.9-0.4-6.8-0.6-8.8c-0.1-0.4-0.4-2.3-0.9-5.7c-0.2-1-0.4-2.4-0.6-4.2c0.4,1.4,0.9,2.7,1.3,4.1
					c0.6,1.8,1.1,3.7,1.7,5.6c0.9,2.9,1.8,5.7,2.8,8.6c2.9,8.1,5.9,16.3,8.8,24.5c5.4-0.4,10.8-0.7,16.2-1
					c1.7-8.8,3.4-17.6,5.1-26.5c0.5-2.8,1.1-5.6,1.6-8.4c0.2-1.5,0.5-3.5,0.9-6.2c0.2-1.8,0.5-3.7,0.7-5.5c0,6.8-0.1,9.2,0,12.1
					c0,2.7,0.1,5.6,0.3,8.9c0.5,8.3,1,16.7,1.4,25.1c8.3-0.5,16.6-0.9,24.9-1.2c-1.3-23.5-2.6-47-3.9-70.3
					C303,95.7,291.3,97.3,279.6,99.1z"/>
				<path class="st0" d="M353.3,142.9c-0.1-2.5-0.3-5.1-0.4-7.6c7.1-0.4,14.2-0.8,21.3-1.2c-0.3-6.2-0.6-12.4-1-18.6
					c-7.1,0.5-14.2,1-21.3,1.6c-0.1-2.3-0.3-4.7-0.4-7c7.8-0.7,15.5-1.4,23.3-2c-0.4-7-0.7-13.9-1.1-20.9
					c-16.4,1.7-32.7,3.6-49.1,5.7c1.3,23.6,2.6,47.3,3.9,71.2c16.6-0.6,33.1-1.1,49.7-1.3c-0.4-7-0.7-14-1.1-20.9
					C369.3,142.1,361.3,142.5,353.3,142.9z"/>
				<path class="st0" d="M439.1,129.9c3.5-2.4,4.6-3.5,6.5-6.3c3.3-4.5,5-10.7,4.7-16.6c-0.4-8.4-5-16.7-11.6-20.5
					c-6.1-3.5-11.5-4.3-23-3.3c-11,0.9-21.9,1.9-32.9,3c1.3,25.3,2.6,50.8,3.9,76.4c8.6-0.1,17.3-0.1,25.9-0.1
					c-0.4-8.3-0.8-16.5-1.2-24.7c1.4,0,2.9-0.1,4.3-0.1c3.9,8.2,7.8,16.5,11.7,24.9c9.2,0.1,18.3,0.2,27.5,0.4c0.7,0,1.3,0,2,0
					c-0.7-1.4-1.5-2.8-2.2-4.1C449.6,149.1,444.4,139.4,439.1,129.9z M412.6,104c3.6-0.2,4.7-0.2,6.2,0.6c2,1,3.3,3.2,3.5,5.9
					c0.1,2.9-1.2,5.7-3.3,6.6c-1,0.6-3.7,1-6.5,1.1c-0.7,0-1.3,0.1-2,0.1c-0.2-4.7-0.5-9.4-0.7-14.1
					C410.7,104.1,411.7,104.1,412.6,104z"/>
				<path class="st0" d="M457.5,80.2c1.2,25.6,2.4,51.3,3.7,77c0.1,2,0.2,4,0.3,6c0.7,0,1.3,0,2,0.1c8.2,0.2,16.4,0.5,24.6,0.8
					c-1.3-28.6-2.6-57-3.9-85.4C475.2,79.1,466.4,79.6,457.5,80.2z"/>
				<path class="st0" d="M550.7,129.7c-4.3,7.1-9,10.1-14.9,9.9c-8-0.3-13.7-7.6-14.2-18c-0.5-10.5,4.7-17.4,13.1-17.4
					c5.5,0,10.3,2.4,15.3,8c-0.5-10.5-0.9-21-1.4-31.5c-7.3-4.5-13.8-6.2-21.1-6c-21.3,0.9-35,19.9-33.7,46.5
					c1.2,26.6,16.2,45.7,36.9,47.1c6.3,0.4,14.1-1.3,18.9-4c0.2-0.1,0.4-0.2,0.6-0.4l0,0c0.4-0.4,1.1-0.7,1.9-1.4
					c-0.1-3.4-0.3-6.8-0.4-10.3C551.3,144.8,551,137.2,550.7,129.7z"/>
				<path class="st0" d="M605.8,76c-11.4-0.1-22.8-0.1-34.2,0c-4.5,25.9-9,51.5-13.5,76.8c-0.9,5-1.8,9.9-2.6,14.9
					c0.2,0,0.4,0,0.6,0c8.7,0.6,17.5,1.3,26.2,2c0.5-4.7,1.1-9.4,1.6-14.1c5.4,0.4,10.8,0.8,16.2,1.2c0.9,4.9,1.8,9.8,2.7,14.7
					c9,0.8,17.9,1.7,26.9,2.7C621.7,140.7,613.7,108,605.8,76z M590.7,104c0.4,2.9,0.8,5.9,1.2,8.8c1.2,6.6,2.4,13.3,3.7,19.9
					c-3.1-0.2-6.2-0.3-9.3-0.5c0.6-6.5,1.3-13,1.9-19.6c0.2-2.9,0.5-5.7,0.7-8.6c0.2-3.1,0.4-6.2,0.6-9.3
					C589.9,97.8,590.3,100.9,590.7,104z"/>
			</g>
			<g>
				<path class="st1" d="M504.2,38.2c0,0.4,0.1,0.9,0.1,1.3c-1.6,0.1-3.2,0.3-4.8,0.5c0-0.4-0.1-0.9-0.1-1.3c0.4,0,0.8-0.1,1.3-0.1
					c-0.2-0.4-0.4-0.9-0.6-1.3c-0.9,0.1-1.7,0.2-2.6,0.3c-0.1,0.5-0.3,0.9-0.4,1.4c0.4,0,0.9-0.1,1.3-0.1c0,0.4,0.1,0.9,0.1,1.3
					c-1.4,0.2-2.9,0.3-4.3,0.5c0-0.4-0.1-0.9-0.1-1.3c0.4,0,0.8-0.1,1.2-0.1c0.5-1.8,1-3.5,1.4-5.3c-0.4,0.1-0.9,0.1-1.3,0.2
					c0-0.4-0.1-0.9-0.1-1.3c2.2-0.3,4.3-0.6,6.5-0.9c0,0.4,0.1,0.9,0.1,1.3c-0.4,0.1-0.9,0.1-1.3,0.2c0.8,1.6,1.7,3.3,2.5,5
					C503.4,38.3,503.8,38.2,504.2,38.2z M499.6,36.2c-0.3-0.7-0.7-1.5-1-2.2c-0.2,0.8-0.5,1.6-0.7,2.4
					C498.4,36.3,499,36.2,499.6,36.2z"/>
				<path class="st1" d="M504.7,39.5c0-0.4-0.1-0.9-0.1-1.3c0.5,0,0.9-0.1,1.4-0.1c-0.1-1.8-0.2-3.5-0.4-5.3
					c-0.5,0.1-0.9,0.1-1.4,0.2c0-0.4-0.1-0.9-0.1-1.3c1.8-0.2,3.7-0.4,5.5-0.6c0,0.5,0.1,0.9,0.1,1.4c-0.5,0-1,0.1-1.5,0.1
					c0.1,1.8,0.2,3.5,0.3,5.3c1-0.1,1.9-0.2,2.9-0.2c0-0.8-0.1-1.7-0.1-2.5c0.6-0.1,1.3-0.1,1.9-0.2c0.1,1.3,0.1,2.6,0.2,3.9
					C510.6,39,507.6,39.2,504.7,39.5z"/>
				<path class="st1" d="M514,38.8c0-0.5,0-0.9-0.1-1.4c0.5,0,0.9-0.1,1.4-0.1c-0.1-1.8-0.2-3.6-0.2-5.5c-0.5,0-1,0.1-1.4,0.1
					c0-0.5,0-0.9-0.1-1.4c1.8-0.2,3.7-0.3,5.5-0.4c0,0.5,0,0.9,0,1.4c-0.5,0-1,0.1-1.5,0.1c0.1,1.8,0.1,3.7,0.2,5.5
					c1-0.1,1.9-0.1,2.9-0.1c0-0.9-0.1-1.7-0.1-2.6c0.6,0,1.3-0.1,1.9-0.1c0,1.3,0.1,2.7,0.1,4C519.9,38.5,517,38.6,514,38.8z"/>
				<path class="st1" d="M527.3,38.2c0-1,0-1.9,0-2.9c0.6,0,1.1,0,1.7-0.1c0,0.5,0.2,0.9,0.5,1.2c0.3,0.2,0.6,0.4,1,0.4
					c0.3,0,0.6-0.1,0.8-0.3c0.2-0.2,0.3-0.4,0.3-0.7c0-0.3-0.1-0.5-0.3-0.7c-0.2-0.2-0.6-0.4-1.1-0.6c-1.1-0.4-1.9-0.8-2.3-1.2
					c-0.4-0.4-0.6-0.8-0.6-1.5c0-0.7,0.3-1.3,0.8-1.8c0.5-0.4,1.2-0.7,1.9-0.7c0.8,0,1.4,0.2,1.9,0.7c0-0.2,0-0.5,0-0.7
					c0.6,0,1.1,0,1.7-0.1c0,0.9,0,1.8,0,2.7c-0.6,0-1.1,0-1.7,0c-0.1-0.4-0.2-0.7-0.5-0.9c-0.3-0.2-0.6-0.3-0.9-0.3
					c-0.3,0-0.5,0.1-0.7,0.2c-0.2,0.1-0.3,0.3-0.3,0.5c0,0.2,0.1,0.3,0.2,0.5c0.2,0.2,0.6,0.4,1.4,0.6c0.7,0.3,1.3,0.5,1.7,0.7
					c0.4,0.2,0.7,0.5,0.9,0.9c0.2,0.4,0.3,0.8,0.3,1.3c0,0.9-0.3,1.5-0.8,2c-0.6,0.4-1.2,0.7-2,0.7c-0.9,0-1.5-0.3-2-0.8
					c0,0.2,0,0.5,0,0.7C528.4,38.2,527.8,38.2,527.3,38.2z"/>
				<path class="st1" d="M536.4,38.1c0-0.5,0-1,0-1.5c0.5,0,1,0,1.5,0c0-2,0-3.9,0.1-5.9c-0.5,0-1,0-1.5,0c0,0.7,0,1.4,0,2.1
					c-0.6,0-1.1,0-1.7,0c0-1.2,0-2.4,0-3.5c3-0.1,6-0.2,9.1-0.2c0,1.2-0.1,2.4-0.1,3.6c-0.6,0-1.1,0-1.7,0c0-0.7,0-1.4,0-2.1
					c-0.5,0-1,0-1.5,0c0,2-0.1,4-0.1,5.9c0.5,0,1,0,1.5,0c0,0.5,0,1,0,1.5C540,38.2,538.2,38.1,536.4,38.1z"/>
				<path class="st1" d="M553.7,37c0,0.5,0,1-0.1,1.6c-1.6-0.1-3.2-0.1-4.8-0.2c0-0.5,0-1,0.1-1.6c0.4,0,0.8,0,1.3,0
					c-0.1-0.5-0.3-1.1-0.4-1.6c-0.9,0-1.7,0-2.6-0.1c-0.2,0.5-0.4,1-0.6,1.6c0.4,0,0.9,0,1.3,0c0,0.5,0,1-0.1,1.5
					c-1.4,0-2.9-0.1-4.3-0.1c0-0.5,0-1,0-1.5c0.4,0,0.8,0,1.2,0c0.7-2,1.4-4,2.1-6c-0.4,0-0.9,0-1.3,0c0-0.5,0-1,0-1.5
					c2.2,0,4.4,0,6.5,0c0,0.5,0,1-0.1,1.6c-0.4,0-0.9,0-1.3,0c0.6,2.1,1.2,4.1,1.8,6.2C552.9,37,553.3,37,553.7,37z M549.4,33.9
					c-0.2-0.9-0.5-1.9-0.7-2.8c-0.3,0.9-0.7,1.8-1,2.7C548.2,33.9,548.8,33.9,549.4,33.9z"/>
				<path class="st1" d="M564.2,37.6c0,0.5-0.1,1.1-0.1,1.6c-1-0.1-2-0.2-3-0.2c-0.6-1.4-1.3-2.9-2-4.3c-0.4,0-0.8,0-1.1-0.1
					c0,0.8-0.1,1.7-0.1,2.5c0.4,0,0.8,0,1.2,0.1c0,0.5-0.1,1.1-0.1,1.6c-1.7-0.1-3.4-0.2-5.1-0.3c0-0.5,0-1,0.1-1.6
					c0.4,0,0.9,0,1.3,0.1c0.1-2.1,0.2-4.1,0.3-6.2c-0.5,0-0.9,0-1.4,0c0-0.5,0.1-1.1,0.1-1.6c2,0,4,0.1,6,0.2c1.1,0,1.9,0.4,2.4,0.9
					c0.5,0.6,0.7,1.2,0.6,1.9c-0.1,1.1-0.7,1.8-1.9,2.3c0.5,1,0.9,2,1.4,3C563.4,37.6,563.8,37.6,564.2,37.6z M558.1,33.2
					c0.3,0,0.6,0,0.9,0c1.1,0.1,1.7-0.3,1.7-1c0-0.4-0.1-0.7-0.3-0.8c-0.2-0.2-0.6-0.3-1-0.3c-0.4,0-0.7,0-1.1,0
					C558.2,31.7,558.2,32.4,558.1,33.2z"/>
				<path class="st1" d="M568.1,39.6c0-0.5,0.1-1.1,0.1-1.6c0.4,0,0.8,0.1,1.2,0.1c0.2-2.2,0.4-4.3,0.5-6.5c-0.4,0-0.8-0.1-1.2-0.1
					c0-0.5,0.1-1.1,0.1-1.6c1.5,0.1,3,0.2,4.5,0.3c1,0.1,1.7,0.2,2.2,0.3c0.5,0.2,0.9,0.5,1.2,1c0.3,0.5,0.4,1,0.4,1.6
					c-0.1,1-0.6,1.6-1.6,1.9c1.1,0.6,1.6,1.4,1.5,2.6c-0.1,0.7-0.3,1.2-0.7,1.6c-0.4,0.4-0.9,0.7-1.5,0.8c-0.6,0.1-1.4,0.1-2.4,0
					C571.1,39.9,569.6,39.7,568.1,39.6z M572,38.3c0.2,0,0.5,0,0.7,0.1c0.6,0.1,1.1,0,1.4-0.1c0.3-0.2,0.4-0.5,0.5-1
					c0-0.5-0.1-0.9-0.3-1.1c-0.3-0.2-0.7-0.4-1.3-0.4c-0.2,0-0.5,0-0.7-0.1C572.1,36.5,572.1,37.4,572,38.3z M572.4,34
					c0.2,0,0.5,0,0.7,0.1c0.5,0,0.9,0,1.1-0.2c0.3-0.1,0.4-0.4,0.4-0.9c0-0.4,0-0.7-0.3-0.9c-0.2-0.2-0.6-0.3-1.2-0.3
					c-0.2,0-0.4,0-0.6,0C572.5,32.5,572.4,33.3,572.4,34z"/>
				<path class="st1" d="M584.9,31c1.7,0.2,3,0.8,3.8,2c0.8,1.1,1.2,2.5,1,3.9c-0.2,1.5-0.8,2.7-1.9,3.5c-1.1,0.9-2.5,1.2-4.1,1
					c-1.7-0.2-3-0.9-3.8-2.1c-0.8-1.1-1.2-2.4-1-3.8c0.2-1.4,0.8-2.6,1.8-3.5C581.8,31.2,583.2,30.9,584.9,31z M584.7,32.9
					c-0.8-0.1-1.4,0.1-2,0.7c-0.6,0.5-1,1.3-1.1,2.5c-0.1,1,0.1,1.8,0.5,2.5c0.4,0.7,1,1,1.8,1.1c0.7,0.1,1.4-0.1,2-0.6
					c0.6-0.5,1-1.3,1.1-2.4c0.1-1,0-1.8-0.5-2.5C586.1,33.4,585.5,33,584.7,32.9z"/>
				<path class="st1" d="M590.1,42.3c0.1-0.6,0.2-1.2,0.2-1.7c0.4,0.1,0.9,0.1,1.3,0.2c0.3-2.3,0.6-4.6,0.9-6.8
					c-0.4-0.1-0.9-0.1-1.3-0.2c0.1-0.6,0.2-1.2,0.2-1.7c1.4,0.2,2.8,0.4,4.2,0.5c0.9,2.3,1.8,4.7,2.6,7.1c0.2-1.6,0.5-3.2,0.7-4.8
					c-0.4-0.1-0.9-0.1-1.3-0.2c0.1-0.6,0.2-1.2,0.3-1.8c1.5,0.2,2.9,0.4,4.4,0.7c-0.1,0.6-0.2,1.2-0.3,1.8c-0.5-0.1-0.9-0.1-1.4-0.2
					c-0.5,2.9-0.9,5.9-1.4,8.8c-0.7-0.1-1.4-0.3-2.1-0.4c-1-2.8-2-5.6-3.1-8.4c-0.3,2-0.5,3.9-0.8,5.9c0.4,0.1,0.8,0.1,1.2,0.2
					c-0.1,0.6-0.2,1.2-0.2,1.8C593,42.7,591.5,42.5,590.1,42.3z"/>
				<path class="st1" d="M602.6,35.3c0.1-0.6,0.2-1.2,0.3-1.8c1.6,0.2,3.1,0.5,4.7,0.8c-0.1,0.6-0.2,1.2-0.3,1.8
					c-0.3-0.1-0.6-0.1-1-0.2c-0.3,1.6-0.5,3.2-0.8,4.8c-0.1,0.6-0.2,1.1-0.2,1.4c0,0.3,0.1,0.6,0.3,0.8c0.2,0.2,0.4,0.4,0.7,0.4
					c0.3,0.1,0.6,0,0.9-0.1c0.2-0.1,0.4-0.3,0.5-0.6c0.1-0.2,0.2-0.8,0.4-1.6c0.3-1.6,0.5-3.1,0.8-4.7c-0.3-0.1-0.6-0.1-0.9-0.2
					c0.1-0.6,0.2-1.2,0.3-1.8c1.3,0.2,2.6,0.5,3.9,0.7c-0.1,0.6-0.2,1.2-0.3,1.8c-0.4-0.1-0.8-0.1-1.2-0.2c-0.3,1.8-0.6,3.6-1,5.4
					c-0.1,0.7-0.3,1.3-0.4,1.6c-0.1,0.3-0.3,0.6-0.6,0.9c-0.3,0.3-0.7,0.5-1.2,0.6c-0.5,0.1-1.1,0.1-1.7,0c-0.7-0.1-1.3-0.4-1.7-0.7
					c-0.5-0.3-0.8-0.7-1-1.1c-0.2-0.4-0.3-0.8-0.3-1.2c0-0.4,0.1-1,0.2-1.9c0.3-1.6,0.5-3.2,0.8-4.8C603.4,35.5,603,35.4,602.6,35.3
					z"/>
				<path class="st1" d="M611.1,46.1c0.2-1.2,0.4-2.5,0.7-3.7c0.5,0.1,1.1,0.2,1.6,0.3c-0.1,0.7,0,1.2,0.2,1.6
					c0.2,0.4,0.5,0.6,0.9,0.7c0.3,0.1,0.6,0,0.8-0.2c0.2-0.2,0.4-0.4,0.5-0.8c0.1-0.3,0-0.6-0.1-0.9c-0.2-0.3-0.5-0.6-0.9-1
					c-1-0.8-1.7-1.5-2-2.1c-0.3-0.5-0.4-1.2-0.3-2c0.2-0.9,0.6-1.6,1.2-2c0.6-0.4,1.3-0.6,2-0.4c0.8,0.2,1.3,0.6,1.6,1.4
					c0.1-0.3,0.1-0.6,0.2-0.9c0.6,0.1,1.1,0.2,1.6,0.3c-0.2,1.1-0.4,2.2-0.7,3.3c-0.5-0.1-1.1-0.2-1.6-0.3c0-0.5,0-1-0.2-1.3
					c-0.2-0.3-0.5-0.5-0.8-0.6c-0.3-0.1-0.5,0-0.7,0.1c-0.2,0.1-0.4,0.3-0.4,0.6c0,0.2,0,0.5,0.1,0.7c0.1,0.2,0.5,0.6,1.2,1.1
					c0.6,0.5,1.1,0.9,1.5,1.3c0.3,0.4,0.6,0.8,0.7,1.3c0.1,0.5,0.1,1.1,0,1.7c-0.2,1.1-0.6,1.8-1.3,2.3c-0.7,0.4-1.3,0.5-2.1,0.4
					c-0.8-0.2-1.4-0.7-1.7-1.5c-0.1,0.3-0.1,0.6-0.2,0.9C612.2,46.4,611.7,46.2,611.1,46.1z"/>
			</g>
			<path class="st1" d="M168.2,112.1c0.5-0.1,1-0.2,1.4-0.3c0.2-1.9,0.4-3.9,0.4-5.8c-3.4,0.6-6.7,1.1-10,1.7
				c-0.3,0.1-0.6,0.1-0.9,0.1c-1.2,0-2.3-0.4-3.2-1.1c-1.2-0.9-1.8-2.3-1.9-3.8c-0.1-1.7-0.1-3.4-0.2-5.1
				c-5.6,15.7-19.2,28.7-37,35.6l10.9,33.5L89.2,139c-0.9,0-1.8,0.1-2.7,0.1c-1.8,0-3.6-0.1-5.4-0.2l-38.6,28.1l11.2-34.5
				c-20.6-8.9-35.1-26.1-37-46.1l-0.6-0.4h0.5c-0.1-1.3-0.2-2.7-0.2-4c0-31.6,31.4-57.2,70-57.2c30.3,0,56,15.7,65.8,37.6
				c-0.2-3.9-0.3-7.8-0.5-11.8c-15.6-19.8-39.7-32.5-66.8-32.5c-47,0-85,38.1-85,85s38.1,85,85,85c28,0,52.8-13.6,68.3-34.5
				c3.3-12.2,6.6-24.5,9.9-36.9C163.9,114.4,165.8,112.6,168.2,112.1z"/>
			<g>
				<path class="st2" d="M81.1,138.8c1.8,0.1,3.6,0.2,5.4,0.2c0.9,0,1.8,0,2.7-0.1l-4.1-3L81.1,138.8z"/>
				<path class="st2" d="M153.3,86.4l-41.9,30.5l5.4,16.6c17.8-7,31.4-19.9,37-35.6C153.7,94,153.5,90.2,153.3,86.4z"/>
				<path class="st2" d="M53.7,132.4l5-15.5l-42-30.5C18.6,106.3,33.1,123.4,53.7,132.4z"/>
				<path class="st2" d="M152.4,62.3c-9.8-21.9-35.6-37.6-65.8-37.6c-38.7,0-70,25.6-70,57.2c0,1.4,0.1,2.7,0.2,4h52.1l16.3-50.1
					l16.3,50.1h52C153,78.1,152.7,70.2,152.4,62.3z M124.6,51C112.4,41.3,97.1,39,97,39l1.4-10.2c0.7,0.1,18.2,2.6,32.6,14.2
					L124.6,51z"/>
			</g>
			<path class="st3" d="M97,39c0.2,0,15.4,2.3,27.7,12l6.4-8c-14.5-11.5-31.9-14.1-32.6-14.2L97,39z"/>
		</g>
		<polygon class="st4" points="85.1,35.8 101.3,85.9 154,85.9 111.4,116.8 127.7,166.9 85.1,136 42.5,166.9 58.7,116.8 16.1,85.9 
			68.8,85.9 		"/>
		<g>
			<path class="st0" d="M639.9,170.4c0,2.4-1.9,4.3-4.4,4.3c-2.5,0-4.4-1.9-4.4-4.3c0-2.4,2-4.3,4.4-4.3
				C638,166.1,639.9,168,639.9,170.4z M632.2,170.4c0,1.9,1.4,3.4,3.3,3.4c1.9,0,3.3-1.5,3.3-3.4c0-1.9-1.4-3.4-3.3-3.4
				C633.6,167,632.2,168.5,632.2,170.4z M634.9,172.7h-1v-4.3c0.4-0.1,0.9-0.1,1.6-0.1c0.8,0,1.2,0.1,1.5,0.3
				c0.2,0.2,0.4,0.5,0.4,0.9c0,0.5-0.4,0.8-0.9,1v0.1c0.4,0.2,0.7,0.5,0.8,1c0.1,0.7,0.2,0.9,0.3,1.1h-1.1c-0.1-0.2-0.2-0.5-0.3-1
				c-0.1-0.5-0.3-0.7-0.9-0.7h-0.5V172.7z M634.9,170.2h0.5c0.5,0,1-0.2,1-0.6c0-0.4-0.3-0.7-0.9-0.7c-0.3,0-0.4,0-0.5,0.1V170.2z"/>
		</g>
		<g>
			<path class="st1" d="M621.5,47.1c-0.2,0.9-1.1,1.5-2,1.3c-0.9-0.2-1.5-1.1-1.3-2c0.2-0.9,1.1-1.5,2-1.3
				C621.1,45.3,621.7,46.2,621.5,47.1z M618.6,46.5c-0.2,0.7,0.3,1.4,1,1.6c0.7,0.2,1.4-0.3,1.5-1c0.2-0.7-0.3-1.4-1-1.6
				C619.4,45.3,618.7,45.8,618.6,46.5z M619.4,47.6l-0.4-0.1l0.3-1.6c0.2,0,0.4,0,0.6,0.1c0.3,0.1,0.4,0.1,0.5,0.2
				c0.1,0.1,0.1,0.2,0.1,0.4c0,0.2-0.2,0.3-0.4,0.3l0,0c0.1,0.1,0.2,0.2,0.2,0.5c0,0.3,0,0.4,0,0.4l-0.4-0.1c0-0.1,0-0.2,0-0.4
				c0-0.2-0.1-0.3-0.3-0.3l-0.2,0L619.4,47.6z M619.6,46.7l0.2,0c0.2,0,0.4,0,0.4-0.2c0-0.2-0.1-0.3-0.3-0.3c-0.1,0-0.2,0-0.2,0
				L619.6,46.7z"/>
		</g>
	</g>
</g>
</svg>
