<svg version="1.1" xmlns="http://www.w3.org/2000/svg" xmlns:xlink="http://www.w3.org/1999/xlink" x="0px" y="0px"
	 viewBox="0 0 1704.9 1396" enable-background="new 0 0 1704.9 1396" xml:space="preserve">
<path fill="#007934" d="M258.6,1153.7l-15.4-16.3l34.9-32.8l-11.3-12l13.9-13l37.9,40.4l-13.9,13l-11.3-12L258.6,1153.7z
	 M324.4,1181l-13.7-12.2l-16.9,19l-16.8-14.9l44.5-50l16.7,14.9l-15.1,16.9l13.7,12.2l15.1-16.9l16.9,15l-44.5,49.9l-16.8-14.9
	L324.4,1181z M376.8,1171l37,27.4l-11.1,15l-20-14.8l-3.4,4.6l18.6,13.9l-10.4,14l-18.6-13.9l-3.8,5l21.3,15.8l-11.1,15l-38.3-28.3
	L376.8,1171z M435.4,1292.4c-4.4-2.4-8.3-5.6-11.5-9.5c-3-3.5-5.3-7.5-6.7-11.9c-1.4-4.4-1.8-9-1.3-13.5c1.4-10,6.6-19,14.5-25.2
	c3.7-2.8,7.8-4.7,12.3-5.8c4.5-1.1,9.1-1.2,13.6-0.5c4.8,0.8,9.4,2.4,13.5,4.9c4.4,2.5,8.3,5.7,11.6,9.6c3,3.4,5.2,7.4,6.5,11.8
	l-19.2,7.1c-0.4-2.1-1.2-4-2.3-5.8c-1.4-2-3.2-3.6-5.3-4.7c-3.3-1.8-7.1-2.3-10.7-1.3c-1.9,0.5-3.7,1.4-5.3,2.7
	c-1.7,1.3-3.2,3-4.2,4.9c-2.2,3.5-3.1,7.6-2.5,11.7c1,4.3,4,7.8,8,9.6c0.9,0.5,1.8,0.9,2.7,1.3c0.8,0.3,1.6,0.5,2.4,0.6l2.7-4.4
	l-9.4-5.3l8.8-15.3l26.6,15.3l-18.4,31.5c-2,0-4-0.1-6-0.5c-2.2-0.4-4.5-0.9-6.7-1.5c-2.4-0.7-4.7-1.5-7-2.4
	C439.9,1294.6,437.6,1293.6,435.4,1292.4L435.4,1292.4z M517.1,1257.5l21.8,9.9l-3.9,71.7l-22.3-10.1l0.9-10.4l-19.4-8.8l-7.1,7.6
	l-21.6-9.8L517.1,1257.5z M518.1,1283.6l-11.8,12.8l9.9,4.5L518.1,1283.6z M573.8,1312.8l-10.7,36.2l-20.1-6.4l20.8-63.6l28,9.2
	l0.3,38l0.5,0.1l21.3-30.9l28.9,9.5l-20.8,63.6l-20.8-6.8l12.3-35.5l-0.5-0.3l-23.6,32l-15.1-5v-39.7L573.8,1312.8z M651.7,1306.3
	l44.9,10l-4,18.2l-24.3-5.3l-1.3,5.5l22.8,5.1l-3.8,17l-22.8-5.1l-1.4,6.1l25.8,5.8l-4,18.2l-46.5-10.3L651.7,1306.3z M721.7,1354.5
	c0.4-5,1.9-9.8,4.3-14.1c2.2-4,5.2-7.4,8.8-10.2c3.7-2.7,7.9-4.7,12.4-5.8c9.8-2.3,20.1-1.3,29.3,2.9c4.2,2,7.9,4.7,11.1,8.1
	c3,3.4,5.3,7.4,6.7,11.7c1.5,4.7,2,9.8,1.4,14.7c-0.4,5-1.9,9.9-4.3,14.3c-2.2,4-5.2,7.6-8.9,10.4s-8,4.9-12.5,6
	c-9.8,2.4-20.2,1.4-29.3-3c-4.2-2-7.9-4.9-11-8.4c-3-3.5-5.3-7.6-6.6-12C721.6,1364.4,721.2,1359.4,721.7,1354.5z M745.4,1356.8
	c-0.2,2-0.1,4.1,0.4,6.1c0.4,1.8,1.2,3.5,2.3,5c2.1,2.9,5.4,4.8,9,5.1c3.6,0.4,7.1-0.8,9.8-3.2c1.4-1.2,2.5-2.7,3.3-4.4
	c0.9-1.9,1.4-3.9,1.6-5.9c0.2-2,0.1-4-0.4-6c-0.9-3.4-3.1-6.3-6.2-8c-1.6-0.9-3.3-1.4-5.1-1.6s-3.6,0-5.3,0.5s-3.2,1.3-4.5,2.5
	s-2.4,2.6-3.2,4.2C746.3,1352.9,745.7,1354.8,745.4,1356.8L745.4,1356.8z M827.4,1354.8l20.4,0.3l-0.3,18.4l-20.3-0.3l-0.3,22.7
	l-22.1-0.3l1-66.9l45.3,0.7l-0.3,18.8l-23.1-0.3L827.4,1354.8z M898.4,1326.9l23.8-2.2l32.2,64.2l-24.4,2.3l-4.4-9.5l-21.2,2
	l-2.4,10.1l-23.7,2.2L898.4,1326.9z M912.3,1349l-3.8,17l10.8-1L912.3,1349z M971.9,1317.6l22.2-4.5l9.5,46.6l21.8-4.4l3.9,19l-44,9
	L971.9,1317.6z M1021.2,1307l22-5.8l17.1,64.7l-22.1,5.9L1021.2,1307z M1082.8,1316.1l19.4-6.3l5.7,17.5l-19.3,6.3l7,21.6l-21,6.9
	l-20.8-63.6l42.9-14l5.8,17.9l-22,7.2L1082.8,1316.1z M1104.1,1281.8l42.6-17.4l7.1,17.3l-23,9.4l2.2,5.3l21.6-8.8l6.6,16.2
	l-21.6,8.8l2.3,5.8l24.5-10l7.1,17.3l-44,18L1104.1,1281.8z M1214.4,1305.5l-20.1,10l-21.3-42.9l-14.7,7.3l-8.5-17l49.6-24.7l8.5,17
	l-14.8,7.3L1214.4,1305.5z M1203.9,1235.5l19.7-11.3l33.4,57.9l-19.7,11.3L1203.9,1235.5z M1265.6,1232.5l22.5,30.4l-17.3,12
	l-38.2-54.8l24.2-16.8l30.5,22.6l0.4-0.3l-11.9-35.5l24.8-17.4l38.2,54.9l-18,12.5l-20.9-31.2l-0.5,0.2l11.3,38l-13,9.1l-31.7-24
	L1265.6,1232.5z M1307.3,1166.2l34.9-29.9l12.2,14.2l-18.9,16.2l3.8,4.4l17.7-15.2l11.4,13.3l-17.7,15.2l4,4.7l20.1-17.2l12.2,14.2
	l-36.1,31L1307.3,1166.2z M1427.9,1116.7c0.7,15-10.8,27.7-25.8,28.4s-27.7-10.8-28.4-25.8c-0.7-15,10.8-27.7,25.8-28.4h0.8
	c14.6-0.6,26.9,10.8,27.5,25.4C1427.9,1116.4,1427.9,1116.6,1427.9,1116.7L1427.9,1116.7z M1380.4,1117.7
	c-0.1,11.3,8.9,20.5,20.2,20.6h0.8c11.2-0.3,20-9.5,19.7-20.7v-0.6c0.2-11.2-8.8-20.5-20-20.7s-20.5,8.8-20.7,20V1117.7
	L1380.4,1117.7z M1396.9,1131.2h-6.1l-0.6-26.3c3.3-0.7,6.7-1,10.1-1c3.2-0.3,6.4,0.3,9.2,1.7c1.7,1.4,2.7,3.5,2.7,5.7
	c-0.2,3-2.4,5.5-5.3,6.2v0.3c2.7,1,4.6,3.4,5,6.3c0.3,2.3,1,4.5,2.1,6.6l-6.6,0.1c-1.1-2-1.8-4.2-2.2-6.4c-0.5-2.9-2.2-4.1-5.5-4.1
	h-2.9L1396.9,1131.2z M1396.9,1116.2h2.9c3.4,0,6.1-1.3,6-4s-1.9-4.1-5.6-4.1c-1.1,0-2.3,0.1-3.4,0.4L1396.9,1116.2z"/>
	<path fill="#1D5632" d="M166,637.2c0,0-65.2,17.5-166,122.5l111.9,105l23.1,224c0,0,296.8-243.3,411.9-255.7
	C547.1,832.7,383.1,576.2,166,637.2z M1543.6,662.6c0,0,64.5,19.9,161.3,128.6l-115.8,100.5l-31.3,223c0,0-287.5-254.3-402.2-271
	C1155.6,843.7,1328.8,593.5,1543.6,662.6L1543.6,662.6z"/>
	<path fill="#2B5134" d="M213.6,911.4c0,0,267.7-60.4,319.7-49.4l-87.7-152.4C445.6,709.6,232.5,820.2,213.6,911.4L213.6,911.4z
	 M1491.3,953c0,0-265.3-70.2-317.8-61.1l93.2-149.2C1266.7,742.7,1475.9,861.4,1491.3,953z"/>
	<path fill="#7D868C" d="M1316.7,132.3l-53.5,35.4l-78.3,22.1l43.4-32.3L1316.7,132.3 M473.9,148l43.4,33.4l-84.9-27.9l-54.5-37.2
	L473.9,148"/>
	<path fill="#A4A9AD" d="M1162.6,819c1.5-2.9,3-5.8,4.4-8.8c1-1.9,2-3.9,3-6c1.4-3.1,2.9-6.4,4.2-9.6c0.7-1.9,1.4-3.7,2.3-5.6
	c1.6-4.1,3-8.2,4.6-12.4c0.4-1.2,0.9-2.2,1.2-3.4c1.8-5.3,3.4-10.9,5-16.4c0.3-1,0.6-2.3,0.9-3.3c1-3.9,2-7.5,2.9-11.4
	c0.1-0.7,0.2-1.4,0.4-2.1c0.5-1.8,0.8-3.9,1.3-5.7c0.8-3.8,1.5-7.6,2.3-11.4c0.4-2.3,0.7-4.4,1.1-6.7c0.6-3.5,1.2-7.2,1.7-10.9
	c0.3-2.4,0.6-4.7,0.9-6.9c0.5-3.8,1-7.4,1.3-11.1c0.2-2.3,0.4-4.6,0.7-7c0.3-3.8,0.5-7.7,0.7-11.6c0.2-2.2,0.3-4.4,0.3-6.6
	c0.3-4.4,0.5-8.9,0.6-13.3c0-1.7,0-3.4,0.2-5.1v-21c0-5.3-0.2-10.9-0.5-16.3c0-2.1-0.3-4.3-0.4-6.3c-0.2-4.4-0.4-8.5-0.8-12.8
	c0-2.3-0.3-4.7-0.4-7.1c-0.4-4-0.7-8-1.1-12c-0.2-2.7-0.4-4.9-0.7-7.4c-0.3-4-0.8-8-1.3-12c0-1.4-0.3-2.7-0.4-4.1s-0.3-2.1-0.4-3.1
	c-0.6-4.2-1.2-8.3-1.8-12.7c-0.2-2.2-0.5-4.5-0.9-6.8c-0.7-4.7-1.4-9.3-2.2-14c-0.2-1.7-0.6-3.5-0.8-5.3c-2.1-12.4-4.4-24.9-7-37.3
	c0-0.6-0.1-1.2-0.3-1.7c-0.4-1.9-0.8-3.8-1.1-5.7c-1-4.4-1.9-9-3-13.3c-0.5-2.3-1-4.7-1.6-7c-0.9-4-1.8-8-2.9-12.1
	c-0.5-2.5-1.1-5-1.7-7.4c-1-3.9-1.9-7.9-3-11.8c-0.6-2.4-1.2-4.8-1.9-7.3c-0.9-3.9-2-7.9-3.1-11.7c-0.6-2.5-1.3-4.8-1.9-7.1
	c-1.1-4-2.3-8.2-3.5-12.3c-0.5-2.1-1.1-4.1-1.7-6.1c-1.5-5.1-3-10.2-4.4-15.2l-0.9-3c-1.8-6-3.6-11.9-5.3-17.7
	c-0.6-1.9-1.2-3.8-1.7-5.6c-1.3-4-2.5-8-3.8-11.9c-0.7-2.3-1.5-4.7-2.4-7.1c-1-3.3-2.1-6.7-3.3-10c-0.8-2.5-1.7-5-2.7-7.4
	c-1.1-3.2-2.2-6.3-3.2-9.4c-0.9-2.4-1.7-4.8-2.7-7.3c-1.1-3-2.2-6-3.2-8.9c-1-2.9-1.7-4.9-2.7-7.4s-2.1-5.7-3-8.5
	c-0.6-1.7-1.4-3.5-2-5.3l-0.6-1.8c-1.1-3.1-2.4-6.2-3.6-9.2c-0.7-1.9-1.4-4-2.2-5.9c-1.8-4.7-3.5-9.4-5.3-13.8v-0.3
	c-0.7-1.8-1.4-3.6-2.1-5.3c-1.1-2.9-2.3-5.8-3.4-8.6c-0.9-2.1-1.7-4.2-2.5-6.2s-2-4.8-3-7.2s-1.7-4.1-2.5-6.1s-1.8-4.5-2.7-6.6
	s-1.7-4-2.4-6c-0.8-2.1-1.7-4.1-2.7-6.1c-0.9-2-1.6-3.8-2.3-5.7s-1.6-3.7-2.5-5.5s-1.5-3.7-2.4-5.5s-1.4-3.4-2.1-5.1
	s-1.6-3.6-2.4-5.3c-0.3-1-0.8-1.9-1.2-2.9c-1.9-4.3-3.8-8.3-5.5-12.2c-0.3-0.8-0.6-1.5-1-2.2c-0.8-1.8-1.6-3.5-2.4-5.1
	c-0.3-1-0.7-1.9-1.2-2.8l-2.1-4.5c-0.3-0.8-0.7-1.5-1-2.3c-0.6-1.5-1.3-2.8-1.9-4.2c-0.3-0.5-0.5-1.1-0.7-1.7
	c-0.6-1.3-1.2-2.7-1.7-3.7l-0.7-1.3c-0.5-1.2-1-2.2-1.4-3.1c-0.2-0.3-0.4-0.6-0.5-0.9c-1-2.1-1.9-3.8-2.3-4.9l-22.6,41.9
	c0.5,1.3,1.5,3.2,2.7,5.8c0,0.1,0,0.3,0.1,0.4c0.6,1.1,1.2,2.7,2,4c0.1,0.2,0.1,0.3,0.2,0.5c0.7,1.4,1.4,2.8,2.2,4.6
	c0.1,0.4,0.3,0.7,0.5,1c0.7,1.6,1.5,3.4,2.4,5.3l0.6,1.1c0.9,2,1.9,4.2,2.9,6.3c0,0.3,0.3,0.5,0.3,0.8c2.3,5,4.8,10.7,7.5,16.7
	l0.4,0.8c1.1,2.7,2.5,5.6,3.6,8.4c0.5,0.9,0.9,1.8,1.2,2.7c0.9,2.4,2,4.8,3.1,7.3c0.4,1.1,0.8,2.2,1.3,3.3c1,2.4,2.1,4.8,3.1,7.3
	c0.6,1.2,1,2.5,1.6,3.8c1.1,2.4,2.1,5,3.1,7.5c0.6,1.3,1.1,2.7,1.7,4c1,2.7,2.2,5.3,3.3,8.2c0.5,1.3,1,2.7,1.5,3.9
	c1.4,3.5,2.8,7,4.2,10.7c0.2,0.6,0.4,1.2,0.7,1.8c1.6,4.4,3.4,8.8,5,13.3c0.3,0.7,0.6,1.3,0.8,1.8c1.4,3.8,2.9,7.7,4.3,11.6
	c0.6,1.5,1.1,2.7,1.6,4.2c1.2,3.3,2.4,6.5,3.6,9.7c0.5,1.7,1.1,3.3,1.7,5c1.1,3.1,2.2,6.1,3.3,9.3c0.7,1.8,1.3,3.7,1.9,5.5
	c1,3.1,2.2,6.1,3.3,9.3c0.6,1.9,1.3,3.8,1.8,5.7c1.2,3.2,2.3,6.5,3.4,9.8c0.6,1.8,1.2,3.6,1.7,5.5c1.3,3.7,2.5,7.5,3.7,11.4
	c0.5,1.3,0.9,2.7,1.3,4c1.6,5.3,3.3,10.7,4.9,16l0.6,2c1.3,4.7,2.8,9.3,4.2,14c0.4,1.8,0.9,3.6,1.4,5.3c1.1,3.7,2.1,7.3,3.1,10.9
	c0.6,2.1,1,4.2,1.6,6.3c1,3.5,1.9,6.9,2.7,10.3c0.6,2.2,1.2,4.4,1.7,6.6c0.8,3.4,1.7,6.8,2.5,10.3c0.5,2.2,1,4.3,1.5,6.6
	c0.9,3.6,1.7,7.1,2.7,10.7c0.5,2.1,0.9,4.2,1.4,6.4c0.9,4,1.8,7.8,2.7,11.7c0.4,1.8,0.7,3.6,1.1,5.3c2.3,11.3,4.4,22.7,6.4,34.2
	c0.2,1.8,0.5,3.7,0.8,5.3c0.6,3.9,1.3,7.8,1.8,11.7c0.3,2.2,0.7,4.4,0.9,6.6c0.5,3.5,1,7,1.3,10.5c0.3,2.4,0.6,4.7,1,7
	c0.3,3.5,0.7,6.8,1,10.1c0.2,2.3,0.5,4.6,0.7,7.1c0.3,3.4,0.6,6.8,0.8,10.1c0.2,2.3,0.4,4.6,0.6,6.8l0.6,10.8c0.2,2,0.3,4,0.3,6
	c0.2,4.7,0.4,9.4,0.4,14.1c0,0.9,0,1.8,0.2,2.7v16.5c0,1.6-0.2,3.1-0.2,4.5c-0.2,4.1-0.4,8-0.4,11.8c0,1.9-0.2,3.9-0.3,5.9
	c-0.2,3.5-0.5,6.8-0.8,10.3c-0.2,2.1-0.3,4.1-0.5,6.1c-0.4,3.4-0.7,6.6-1,9.9c-0.3,2.1-0.6,4.1-0.9,6.1c-0.4,3.3-0.8,6.6-1.5,9.8
	c-0.3,1.9-0.6,3.9-1,5.8c-0.6,3.4-1.2,6.8-1.9,10.2c-0.4,1.7-0.7,3.4-1.1,5.1c-0.9,3.9-1.9,8-2.9,11.9c-0.3,1-0.5,2-0.8,3
	c-1.4,5-2.9,9.8-4.5,14.6c-0.3,0.9-0.7,1.8-1,2.7c-1.3,3.7-2.7,7.5-4.1,11.1c-0.7,1.6-1.4,3.2-2,4.7c-1.2,3.1-2.5,6.1-3.8,9
	c-0.8,1.7-1.6,3.4-2.5,5.2c-1.4,2.7-2.7,5.3-4.1,8c-1,1.8-1.9,3.5-2.9,5.2c-1.4,2.7-2.9,5.3-4.4,7.6l-3.2,4.5
	c-1.7,2.7-3.5,5.1-5.3,7.5c-1.1,1.6-2.2,3.1-3.2,4.6l-6.5,8l-2.7,3.3c-3.2,3.7-6.6,7.3-10.1,10.8c-0.6,0.6-1.2,1.2-1.8,1.7
	c-2.9,3-6.1,5.8-9.2,8.5c-1.2,1.1-2.6,2.2-3.9,3.2l-8,6.5c-1.5,1.1-3,2.2-4.7,3.3c-2.7,1.9-5.3,3.8-8.2,5.6
	c-1.7,1.1-3.4,2.2-5.2,3.2c-2.8,1.8-5.8,3.5-8.8,5.1c-1.8,1-3.6,2.1-5.3,3c-3.3,1.6-6.6,3.3-9.8,4.7c-1.8,0.9-3.6,1.9-5.3,2.7
	c-4.9,2.1-9.9,4.3-15.1,6.2c-0.3,0.1-0.6,0.2-1,0.3c-5.1,1.9-10.2,3.6-15.5,5.3c-1.3,0.3-2.6,0.7-3.8,1.1
	c-5.6,1.6-11.4,3.2-17.4,4.7c-6.1,1.3-12.3,2.7-18.6,3.9l-4.1,0.7c-13.5,2.4-27.1,4.1-40.7,5.1c-1.2,0-2.5,0.2-3.7,0.3
	c-6.8,0.5-14,0.8-21.3,1.1H874c-7.6,0.2-15.4,0.3-23.4,0.3s-16-0.5-23.6-0.9c-2.3-0.2-4.7-0.3-7-0.4c-8-0.5-15.6-1.1-23.2-1.8h-0.5
	c-7.8-0.7-15.1-1.7-22.6-2.7c-2.1-0.3-4-0.6-6-0.9c-5.9-0.9-11.5-1.8-17.1-3l-4.1-0.6c-6.9-1.3-13.3-2.8-20-4.4
	c-1.1-0.3-2.1-0.6-3.1-0.9c-5.6-1.4-11-2.8-16.3-4.3c-1.3-0.5-2.7-0.9-3.9-1.3c-6.3-1.9-12.3-3.9-18.2-6.1c-0.1-0.1-0.3-0.1-0.5-0.2
	c-5.6-2.1-11-4.3-16.1-6.6c-1.5-0.7-2.9-1.3-4.3-2c-4.2-1.9-8.3-3.8-12.3-5.8c-1.2-0.7-2.4-1.2-3.6-1.9l-8.5-4.7
	c-2.9-1.6-5.5-3.3-8.2-4.8s-4.9-3.2-7.3-4.8s-5.3-3.5-8-5.3s-4.4-3.3-6.6-5s-4.9-3.9-7.2-5.9s-4.2-3.6-6.1-5.3s-4.5-4.1-6.7-6.2
	c-1.9-1.8-3.6-3.7-5.3-5.7c-1.6-1.9-4.2-4.4-6.1-6.7s-3.3-3.8-5-5.8s-3.9-4.8-5.6-7.2s-3-3.9-4.4-6c-1.7-2.5-3.4-5-5.1-7.6
	c-1.3-2.1-2.7-4.2-3.9-6.3c-1.6-2.7-3.1-5.3-4.5-7.8s-2.7-4.8-3.8-7.1c-0.9-1.5-1.5-3-2.3-4.6c-1.5-3-2.9-6.1-4.3-9.2
	c-0.7-1.4-1.3-2.9-1.9-4.4c-1.5-3.7-2.9-7.4-4.3-11.2c-0.3-0.9-0.7-1.7-1-2.7c-1.6-4.6-3.1-9.4-4.5-14.2c-0.4-1.1-0.7-2.3-0.9-3.4
	c-1.1-3.6-2-7.3-3-10.9c-0.4-1.5-0.7-3-1-4.5c-1-4.1-1.9-8.2-2.7-12.4c-0.1-0.7-0.3-1.4-0.5-2.1c-0.9-4.9-1.6-9.9-2.3-14.8
	c-0.2-1.5-0.4-3.1-0.6-4.8c-0.4-3.5-0.9-7.1-1.2-10.7c-0.1-1.9-0.3-3.8-0.5-5.7c-0.3-3.5-0.7-7.1-0.8-10.7c-0.1-1.7-0.2-3.6-0.3-5.3
	c-0.3-4-0.3-8-0.4-12.1c0-1.3,0-2.6-0.2-3.9v-18.1c0-2.7,0.2-5.3,0.3-8c0.1-3.3,0.2-6.7,0.4-10.1c0.2-2.7,0.4-5.8,0.6-8.5
	c0.3-3.2,0.4-6.4,0.8-9.7s0.6-6,0.9-9s0.6-6.1,1.1-9.2c0.2-2.1,0.5-4.3,0.7-6.4c1-8,2.2-16,3.4-24c0.2-0.7,0.3-1.3,0.4-2
	c1.4-8.6,3-17.1,4.6-25.7c0.4-1.8,0.8-3.7,1-5.6c1.8-8.4,3.7-16.8,5.6-25.1c0.3-1.2,0.6-2.5,0.9-3.9c1.8-7.7,3.7-15.4,5.8-23
	c0.3-1.4,0.7-2.8,1.1-4.2c2.4-8.9,4.8-17.7,7.4-26.4c0.6-1.6,1-3.3,1.5-5c2.7-8.6,5.3-17.1,8-25.6c0.4-1.4,0.8-2.7,1.3-4.2
	c2.7-8.3,5.3-16.4,8.2-24.4c0.2-0.6,0.4-1.2,0.6-1.8c2.9-8.4,6-16.5,8.9-24.6c0.7-1.6,1.2-3.2,1.8-4.7c2.8-7.7,5.8-15.3,8.7-22.7
	c0.6-1.5,1.2-3.1,1.7-4.6c3.1-7.5,6.1-14.9,9-22c1.8-4.4,3.7-8.8,5.5-13.1l0.9-2.1c1.5-3.5,3-6.9,4.6-10.5c0.7-1.6,1.4-3.4,2.1-5
	c1.1-2.3,2.3-4.7,3.2-7.1c0.9-1.8,1.7-3.6,2.7-5.3s1.9-4.4,2.9-6.5c0.7-1.3,1.3-2.7,1.8-4.1c1.4-2.9,2.7-5.6,3.8-8.2
	c0.3-0.8,0.7-1.5,1.1-2.2c1.6-3.4,3.1-6.8,4.7-10c0.5-1,0.9-2.1,1.4-3.1c0.9-1.9,1.9-3.9,3-5.9c0.7-1.5,1.3-2.9,2-4.4
	s1.5-3.1,2.3-4.7l1.6-3.5c2.7-5.3,5.3-10.4,7.6-15c0.3-0.7,0.6-1.3,0.9-1.9c0.9-1.8,1.9-3.5,2.7-5.1c0.2-0.5,0.4-0.9,0.6-1.3
	c5.6-10.8,9.6-18.2,11.3-21.3l-24.3-42.6c-0.6,0.9-1.3,2.5-2.2,4c-0.3,0.3-0.5,0.7-0.6,1.1c-0.5,0.9-0.9,1.8-1.5,2.7
	c-0.1,0.4-0.3,0.8-0.6,1.1c-1.7,3.2-3.8,7.3-6.3,12c-0.4,0.7-0.7,1.4-1,1.9c-0.7,1.4-1.5,2.9-2.2,4.3c-0.4,0.9-1,1.8-1.3,2.7
	c-0.7,1.4-1.5,2.8-2.2,4.3l-0.3,0.6c-0.7,1.5-1.5,3-2.2,4.4s-1.5,3.1-2.3,4.8c-1.1,2.1-2.1,4.2-3.2,6.4c-0.8,1.5-1.5,3-2.3,4.6
	s-1.5,3.1-2.2,4.7s-1.8,3.6-2.7,5.6c-0.3,0.4-0.5,0.8-0.6,1.3c-0.5,1.1-1.1,2.3-1.7,3.4c-0.9,1.8-1.7,3.6-2.7,5.5
	c-1.6,3.3-3.3,6.9-4.9,10.4c-0.5,1.3-1.2,2.5-1.8,3.8c-1.2,2.7-2.7,5.5-3.8,8.4c-0.7,1.4-1.4,2.9-2.1,4.5c-0.8,1.6-1.1,2.5-1.6,3.7
	s-1.2,2.9-1.9,4.3c-0.8,1.9-1.7,3.6-2.7,5.5c-1.3,2.9-2.5,5.9-3.8,8.9c-0.6,1.6-1.4,3.2-2.2,4.9c-1.7,4-3.5,8.2-5.3,12.3
	c-0.2,0.6-0.5,1.3-0.7,2c-2,4.6-3.9,9.2-5.9,14c-0.1,0.3-0.2,0.6-0.4,0.9c-0.1,0.2-0.2,0.5-0.3,0.7c-0.5,1.1-0.8,2.2-1.3,3.2
	c-1.6,3.8-3.1,7.6-4.7,11.4c-0.8,1.9-1.5,3.9-2.4,6c-1.1,3.1-2.7,6.4-3.9,9.6c-0.9,2.3-1.8,4.6-2.7,6.8l-3.6,9.6
	c-1,2.4-1.8,4.8-2.7,7.3c-0.3,1-0.8,2-1.2,3l-0.9,2.7c-3.5,9.2-6.9,18.6-10.3,28.4c-0.1,0.5-0.2,1-0.5,1.5
	c-3.3,9.5-6.6,19.3-9.8,29.1c-0.3,0.7-0.5,1.5-0.8,2.2c-0.1,0.3-0.2,0.7-0.3,1c-3,9.7-6.1,19.6-9,29.6c-0.6,1.7-1.2,3.5-1.6,5.3
	c-3,9.9-5.6,19.7-8.3,29.8l-0.5,1.7c-0.3,1.1-0.6,2.1-0.8,3.2c-2.2,8.7-4.5,17.4-6.5,26.1c-0.2,1-0.6,2-0.7,3c0,0.4-0.1,0.8-0.2,1.2
	c-2.2,9.4-4.2,18.8-6.1,28.2c-0.2,1.1-0.5,2.2-0.7,3.2s-0.3,2.3-0.6,3.3c-1.8,9.6-3.5,19.3-5.1,28.8v0.7c-0.1,0.7-0.2,1.3-0.3,2
	c-1,5.7-1.9,11.3-2.5,16.9c-0.5,3.5-0.9,6.9-1.3,10.3c-0.3,1.1-0.4,2.3-0.5,3.4c-0.2,1-0.3,2.1-0.3,3.1c-0.5,3.9-0.9,7.8-1.2,11.7
	c-0.2,2.2-0.7,4.3-0.8,6.6v2.4c-0.4,3.8-0.6,7.6-0.9,11.6c-0.2,2.3-0.4,4.7-0.6,7.1v2.1c-0.2,3.9-0.3,7.7-0.5,11.7
	c0,2.3-0.2,4.7-0.2,7.2v26.4c0.2,3.5,0.2,6.9,0.4,10.4c0,1,0,2.2,0.1,3.1c0.2,2.1,0.2,4.1,0.3,6.1s0.2,4.4,0.4,6.6
	c0.1,1.7,0.2,3.5,0.5,5.2c0,2.1,0.2,4.3,0.6,6.4c0,1.4,0.2,2.8,0.3,4.1c0.3,2.7,0.7,5.3,1.1,8c0.1,1.8,0.3,3.6,0.7,5.3
	c0,0.7,0.1,1.4,0.3,2.1c0.6,4.6,1.3,9.2,2.1,13.7l0.3,0.9c0.2,0.8,0.3,1.6,0.5,2.4c0.6,3.4,1.3,6.8,2.1,10.2
	c0.3,1.3,0.6,2.7,0.9,3.9s0.9,3.1,1.2,4.7s0.6,3.1,1,4.7c0.7,2.7,1.5,5.3,2.3,8c0.3,1.3,0.7,2.5,1,3.7c0,0.5,0.2,0.9,0.4,1.3
	c1.5,4.8,2.9,9.4,4.6,14c0.1,0.2,0.2,0.4,0.2,0.6c0.4,0.9,0.8,1.8,1.1,2.7c1.3,3.3,2.7,7,3.9,10.4l1.1,2.5c0.7,1.7,1.4,3.3,2.1,4.9
	c0.8,2,1.7,4,2.7,5.9c0.7,1.5,1.5,2.9,2.2,4.4s1.7,3.5,2.5,5.1c0.6,1.1,1.2,2.3,1.8,3.4s1.8,3.1,2.7,4.7c1.7,2.9,3.3,5.8,5,8.7
	c1.5,2.5,3,4.9,4.6,7.3c1.1,1.6,2,3.2,3.1,4.7c1.4,2.1,2.9,4.2,4.3,6.3c0.1,0.2,0.3,0.4,0.5,0.6c0.1,0.1,0.1,0.1,0.1,0.2
	c3.6,5.1,7.5,10,11.6,14.7c0.2,0.2,0.3,0.4,0.4,0.5c4.1,4.7,8.2,9.2,12.5,13.6l0.4,0.3l0.7,0.7c4.2,4.1,8.6,8.3,13.1,12.2
	c0.5,0.5,1.1,1,1.7,1.4c4.5,3.8,9.1,7.6,13.9,11.2c0.2,0.3,0.5,0.5,0.8,0.7c0.4,0.3,0.9,0.6,1.4,0.8c4.7,3.6,9.6,6.9,14.7,10.1
	c0.9,0.6,1.8,1.2,2.7,1.7c5.1,3.2,10.4,6.3,15.8,9.2c0.5,0.3,1,0.6,1.5,0.8c0.6,0.4,1.2,0.7,1.9,0.9c3.8,2.1,7.8,3.9,11.8,5.9
	c0.2,0.1,0.3,0.2,0.5,0.3l2.1,0.9c3.4,1.5,6.9,3.1,10.5,4.7c0.7,0.3,1.5,0.7,2.4,1.1c0.7,0.3,1.4,0.6,2.1,0.9
	c4.2,1.7,8.6,3.4,12.9,5.1c0.2,0,0.5,0.1,0.7,0.2c0.7,0.3,1.4,0.6,2.2,0.8c3.9,1.4,7.8,2.7,11.7,4c0.9,0.2,1.8,0.5,2.7,0.9
	c0.8,0.3,1.6,0.5,2.4,0.6c3.5,1.2,7.1,2.2,10.7,3.2c0.9,0.2,1.8,0.6,2.7,0.8c0.2,0,0.5,0.1,0.7,0.2c4.5,1.3,9.4,2.5,14.1,3.6
	c0.5,0.2,1.1,0.4,1.6,0.5c1,0.2,2.3,0.6,3.3,0.7c3.4,0.8,7.1,1.5,10.7,2.3c1.1,0.2,2.1,0.5,3.1,0.7l2,0.3c5,1,9.9,1.9,15.1,2.7
	l0.7,0.1c0.3,0.1,0.6,0.2,0.9,0.2c5.5,0.9,11.1,1.7,16.6,2.5c0.9,0.1,1.8,0.2,2.7,0.4c0.9,0,1.8,0.1,2.7,0.3
	c5.8,0.7,11.5,1.4,17.4,2h1.1c6.3,0.7,12.8,1.2,19.4,1.6l2.2,0.2c0.9,0.1,1.8,0.2,2.7,0.2l18.2,0.9h3c1-0.1,2.1-0.1,3.1,0h4.2
	c1.5,0,2.9,0,4.3,0.1s2.9,0,4.3,0h21.4c3.3,0,6.7-0.1,10-0.3h2.1c1.3,0,2.5,0,3.8-0.2c3.2-0.1,6.2-0.2,9.4-0.4c1,0,1.9-0.1,2.9-0.2
	c1-0.1,2-0.2,3-0.2c3-0.3,6-0.5,8.9-0.7l3.8-0.2c0.6-0.1,1.2-0.2,1.8-0.3c4.7-0.3,9.3-0.9,13.9-1.5h1.5c4.8-0.6,9.7-1.4,14.4-2.1
	c0.6,0,1.2,0,1.7-0.2l3.3-0.6c3.2-0.5,6.3-1,9.4-1.6c1-0.3,2.1-0.5,3.2-0.6c1.1-0.2,1.4-0.3,2.2-0.4c3.3-0.7,6.8-1.5,10.1-2.2
	c0.9-0.2,1.9-0.4,2.9-0.6c0.2-0.1,0.3-0.1,0.5-0.1c4.4-1,8.7-2.2,12.8-3.4c0.6-0.2,1.3-0.3,1.9-0.4c1-0.4,2-0.7,3-0.9
	c2.8-0.8,5.7-1.7,8.6-2.7l3.1-0.9c0.5-0.2,1-0.4,1.6-0.5c4-1.3,7.8-2.7,11.7-4.1l0.8-0.3c0.9-0.4,1.9-0.7,2.7-1.1
	c2.8-1.1,5.6-2.2,8.4-3.4c0.8-0.3,1.5-0.6,2.3-0.9c0.6-0.2,1.2-0.5,1.8-0.8c4.4-1.9,8.8-4,13.1-6.1c1-0.6,2-1,3-1.5
	c4.3-2.2,8.6-4.5,12.8-6.9c0.5-0.4,1-0.7,1.6-0.9c3.8-2.3,7.8-4.8,11.6-7.3c0.7-0.5,1.4-1,2.2-1.4c3.9-2.6,7.6-5.3,11.3-8
	c0.7-0.5,1.6-1.2,2.3-1.7c3.6-2.9,7.2-5.8,10.7-8.8c0.6-0.5,1.2-1.1,1.8-1.6c3.5-3.1,7-6.3,10.3-9.6c0.2-0.2,0.3-0.4,0.6-0.5
	c3.3-3.4,6.4-6.8,9.5-10.3c0.3-0.3,0.6-0.6,0.9-1c3.1-3.5,6-7.1,8.8-10.7c0.5-0.5,1-1.1,1.4-1.7c2.7-3.6,5.3-7.2,8-10.9
	c0.4-0.5,0.7-1,1.1-1.6c0.8-1.3,1.7-2.5,2.7-3.7c1-1,1.4-2.5,2.2-3.7c1.6-2.7,3.3-5.5,4.9-8.3C1160.4,823.2,1161.4,821,1162.6,819
	L1162.6,819z"/>
	<path fill="#A4A9AD" d="M417.6,6.2L640,69.8c-27.8,52-53,105.3-75.4,159.8C529,315.8,491.4,426,476.5,534.4
	c-14.8,107.9-7.2,214.1,47.3,293.8s154.9,132.7,326.8,135.5c158.3,1.9,251.2-48.7,301.5-126.6s57.9-184.3,44.8-292.7
	c-13.3-108.9-47.4-220.3-79.8-307.4c-32.4-87.6-63.1-150.6-68.6-162.1l221.1-51.2c0.3,0.6,1.6,4.2,3.9,9.9s5.5,13.9,9.6,23.8
	s8.9,21.3,14.6,34s11.9,26.6,18.8,40.9l-88.4,25.2c37.7,45.4,72.2,93.3,103.3,143.4c49.4,79.4,103,184.4,128.6,297.3
	c25.3,112.2,22.9,232-38.9,342.2c-61.4,109.7-181.7,210.1-391.8,284.6l-0.5,26.9l-380.9-5.5l0.2-28c-44.3-10.4-87.4-25.3-128.7-44.4
	c-65.4-30.4-143.1-79.2-200.8-155.1c-57.9-76.4-96-180.3-81.5-321.1C251.5,555.9,319.2,375.9,474,148l-95.9-31.7
	c0-0.5,0.9-2.7,2.7-7s4.2-10.7,7.5-19.6s7.3-19.9,12.3-33.8C405.4,42.3,410.9,25.7,417.6,6.2z"/>
	<radialGradient id="SVGID_1_" cx="4026.0935" cy="276.8345" r="191.54" gradientTransform="matrix(3.23 0 0 3.23 -12120.1299 -293.7202)" gradientUnits="userSpaceOnUse">
	<stop  offset="0" style="stop-color:#FFFFFF"/>
		<stop  offset="0.3656" style="stop-color:#FDFDFD"/>
		<stop  offset="0.5274" style="stop-color:#F6F6F7"/>
		<stop  offset="0.6489" style="stop-color:#E9EBEC"/>
		<stop  offset="0.7504" style="stop-color:#D7DADC"/>
		<stop  offset="0.8394" style="stop-color:#C0C4C7"/>
		<stop  offset="0.9195" style="stop-color:#A3A9AE"/>
		<stop  offset="0.9915" style="stop-color:#818A90"/>
		<stop  offset="1" style="stop-color:#7D868C"/>
</radialGradient>
	<path fill="url(#SVGID_1_)" d="M417.4,10l222.4,63.6c-27.8,52-52.9,105.3-75.3,159.8c-35.6,86.2-73.2,196.2-88.1,304.6
	c-14.8,107.9-7.2,214.2,47.3,293.9s154.9,132.7,326.8,135.5c158.3,1.9,251.2-48.7,301.4-126.6s57.9-184.3,44.8-292.6
	c-13.3-109-47.4-220.3-79.8-307.4s-63.1-150.7-68.5-162.1l221.1-51.3c0.2,0.6,1.6,4.1,3.9,9.9s5.5,14,9.7,23.8s8.9,21.3,14.6,34.1
	s11.9,26.6,18.8,41l-88.5,25.2c37.7,45.3,72.2,93.2,103.3,143.3c49.4,79.6,103.1,184.6,128.6,297.5
	c25.3,112.1,22.8,231.9-38.9,342.3c-61.4,109.6-181.7,209.9-391.8,284.5l-0.5,27l-380.8-5.5l0.2-28.1
	c-44.3-10.3-87.4-25.2-128.6-44.4c-65.5-30.4-143.1-79.2-200.8-155.2S222.6,842.6,237,701.7c14.4-141.9,82.1-321.8,236.9-549.9
	L378,120.2c0-0.4,1-2.7,2.7-7s4.2-10.7,7.4-19.6s7.4-20,12.3-33.8C405.1,46,410.9,29.3,417.4,10z"/>
	<path fill="#A4A9AD" d="M1169.8,415.8l223,4.1c-2.2-4.6-4.4-9.2-6.7-13.7l-219.8-4.1C1167.5,406.7,1168.6,411.2,1169.8,415.8z"/>
	<path fill="#A4A9AD" d="M1164.5,395.2l218.1,4c-2.4-4.7-4.7-9.3-7.1-13.8l-214.7-4C1162,386,1163.2,390.6,1164.5,395.2z"/>
	<path fill="#A4A9AD" d="M1140.2,313.2l196.5,3.6c-2.4-4-4.8-8-7.3-11.8l-1.1-1.8l-192.6-3.6C1137.3,304.1,1138.7,308.6,1140.2,313.2
	z"/>
	<path fill="#A4A9AD" d="M1194.9,548.5c0.4,3.4,0.8,6.9,1.2,10.3l252,4.7c-1.3-4.5-2.6-9.1-4-13.6l-249.6-4.6
	C1194.6,546.4,1194.8,547.4,1194.9,548.5z"/>
	<path fill="#A4A9AD" d="M1153,354.3l207.8,3.8c-2.6-4.7-5.2-9.2-7.8-13.8l-204.1-3.8C1150.2,345.1,1151.6,349.7,1153,354.3z"/>
	<path fill="#A4A9AD" d="M1193.6,538.5l248.4,4.6c-1.4-4.6-2.9-9.1-4.4-13.7l-245.8-4.5C1192.4,529.4,1193,533.9,1193.6,538.5z"/>
	<path fill="#A4A9AD" d="M1190.7,518.1l244.6,4.5c-1.6-4.6-3.2-9.2-4.9-13.8l-241.9-4.5C1189.2,508.9,1190,513.5,1190.7,518.1z"/>
	<path fill="#A4A9AD" d="M1349.1,337.6c-2.7-4.7-5.4-9.3-8.1-13.8l-198.5-3.7c1.4,4.5,2.9,9.1,4.3,13.7L1349.1,337.6z"/>
	<path fill="#A4A9AD" d="M1187.3,497.5l240.6,4.5c-1.7-4.6-3.4-9.2-5.2-13.7l-237.8-4.4C1185.6,488.4,1186.4,493,1187.3,497.5z"/>
	<path fill="#A4A9AD" d="M1183.5,477.1l236.4,4.4c-1.8-4.6-3.7-9.2-5.6-13.7l-233.6-4.3C1181.6,468,1182.6,472.5,1183.5,477.1z"/>
	<path fill="#A4A9AD" d="M1179.2,456.6l232.2,4.3c-1.9-4.6-3.9-9.1-6-13.6l-229.2-4.3C1177.3,447.5,1178.3,452.1,1179.2,456.6z"/>
	<path fill="#A4A9AD" d="M1174.7,436.2l227.7,4.2c-2.1-4.6-4.2-9.2-6.3-13.7l-224.6-4.1C1172.5,427.1,1173.6,431.6,1174.7,436.2z"/>
	<path fill="#A4A9AD" d="M1158.9,374.9l213.1,3.9c-2.5-4.7-5-9.3-7.5-13.8l-209.5-3.9C1156.3,365.7,1157.6,370.2,1158.9,374.9z"/>
	<path fill="#A4A9AD" d="M1060.1,108l243.4,4.5c-2.1-4.7-4.1-9.2-6.1-13.6l-243.6-4.5C1055.7,98.3,1057.8,102.8,1060.1,108z"/>
	<path fill="#A4A9AD" d="M1069.4,128.6l243.7,4.5c-2.2-4.7-4.4-9.3-6.4-13.8l-243.4-4.5C1065.2,119.1,1067.2,123.7,1069.4,128.6z"/>
	<path fill="#A4A9AD" d="M1078.2,149l180.8,3.4l44.5-12.7l-231.2-4.3C1074.2,139.7,1076.2,144.3,1078.2,149z"/>
	<path fill="#A4A9AD" d="M1046.6,79c0.8,1.7,2.2,4.6,4,8.5l243.8,4.5c-2.1-4.8-4.1-9.3-5.9-13.7l-221.1-4.1L1046.6,79z"/>
	<path fill="#A4A9AD" d="M1175.7,49l101.2,1.9c-2.1-5.2-3.9-9.7-5.3-13.3l-0.2-0.4l-41.4-0.8L1175.7,49z"/>
	<path fill="#A4A9AD" d="M1094.9,67.8l190.6,3.5c-1.5-3.5-2.9-6.8-4.2-9.9c-0.6-1.3-1.1-2.6-1.6-3.8l-130.5-2.4L1094.9,67.8z"/>
	<path fill="#A4A9AD" d="M1095.4,190.2l156.1,2.8c-3.6-4.6-7.2-9.1-10.8-13.6l-150.8-2.8C1091.7,181,1093.5,185.5,1095.4,190.2z"/>
	<path fill="#A4A9AD" d="M1287.4,241.4l-173.4-3.2c0.4,1,0.7,2,1.1,2.9c1.3,3.5,2.6,7.1,3.9,10.7l177.9,3.3
	C1293.8,250.5,1290.6,245.9,1287.4,241.4z"/>
	<path fill="#A4A9AD" d="M1126.4,272.2l184.4,3.4c-3-4.6-6.1-9.2-9.2-13.8l-180-3.3C1123.1,263.1,1124.8,267.6,1126.4,272.2z"/>
	<path fill="#A4A9AD" d="M1111.4,231.1l171,3.2c-3.3-4.6-6.7-9.2-10-13.8l-166.2-3.1C1107.9,221.9,1109.6,226.5,1111.4,231.1z"/>
	<path fill="#A4A9AD" d="M1103.5,210.7l163.8,3c-3.4-4.6-6.9-9.2-10.4-13.7l-158.7-2.9C1099.9,201.5,1101.7,206.1,1103.5,210.7z"/>
	<path fill="#A4A9AD" d="M1081.2,156c1.9,4.4,3.8,9,5.8,13.7l148,2.7c-2.9-3.6-5.9-7.2-8.8-10.7l10.1-2.9L1081.2,156z"/>
	<path fill="#A4A9AD" d="M1133.5,292.9l190.6,3.5c-2.9-4.7-5.9-9.3-8.9-14l-186.5-3.4C1130.3,283.6,1131.9,288.2,1133.5,292.9z"/>
	<path fill="#A4A9AD" d="M1196.8,701.6l275.8,5.1c-0.2-4.5-0.5-9-0.8-13.5l-273.5-5C1197.8,692.6,1197.4,697.1,1196.8,701.6z"/>
	<path fill="#A4A9AD" d="M1427.1,929.9c2.3-4.4,4.4-8.9,6.5-13.4l-350.3-6.5c-6.7,4.6-13.8,9-21.1,13.1L1427.1,929.9z"/>
	<path fill="#A4A9AD" d="M1133.8,863.5l318.3,5.9c1.5-4.5,2.8-9,4.1-13.4l-312.2-5.8C1140.8,854.7,1137.4,859.2,1133.8,863.5z"/>
	<path fill="#A4A9AD" d="M1092.3,903.5l344.3,6.4c2-4.5,3.9-9,5.7-13.6l-333.9-6.1C1103.3,894.8,1098,899.2,1092.3,903.5z"/>
	<path fill="#A4A9AD" d="M624.4,99.9c2.3-4.5,4.6-8.9,6.9-13.4l-240.7-4.4c-1.6,4.3-3,8.3-4.3,11.8c-0.2,0.5-0.4,1.1-0.6,1.6
	L624.4,99.9z"/>
	<path fill="#A4A9AD" d="M1403.7,970.3c2.9-4.5,5.7-8.9,8.4-13.4l-412.5-7.6c-18.6,5.5-37.5,9.7-56.7,12.5L1403.7,970.3z"/>
	<path fill="#A4A9AD" d="M1115.6,883.5l329.4,6.1c1.7-4.5,3.3-8.9,4.8-13.4l-321.7-5.9C1124.2,874.7,1120,879.2,1115.6,883.5z"/>
	<path fill="#A4A9AD" d="M1416.2,950c1-1.7,2-3.5,3-5.2c1.5-2.7,3-5.4,4.4-8l-374.1-6.9c-9.9,4.9-20,9.2-30.3,12.9L1416.2,950z"/>
	<path fill="#A4A9AD" d="M614.2,120.2c2.2-4.5,4.5-9,6.8-13.5l-237.7-4.4c-1.8,4.7-3.2,8.4-4.3,11.2c-0.3,0.8-0.6,1.6-0.9,2.3
	L614.2,120.2z"/>
	<polygon fill="#A4A9AD" points="1026.9,1255.4 646.1,1248.4 646.1,1250.8 1026.9,1256.3 "/>
	<path fill="#A4A9AD" d="M1198.1,579.3l255.6,4.8c-1.2-4.6-2.4-9.3-3.7-13.9l-253.2-4.7C1197.2,570.1,1197.7,574.7,1198.1,579.3z"/>
	<path fill="#A4A9AD" d="M1307.8,1077.3l-959.9-17.8c4.5,4.8,9.1,9.4,13.8,13.9l929.9,17C1297.1,1086.1,1302.5,1081.7,1307.8,1077.3z
	"/>
	<path fill="#A4A9AD" d="M474.2,708.5c-0.8-4.5-1.4-9-2.1-13.6l-235.7-4.3c-0.5,3.8-0.9,7.7-1.3,11.5c-0.1,0.7-0.1,1.3-0.2,2
	L474.2,708.5z"/>
	<path fill="#A4A9AD" d="M485.6,756.3l-253.4-4.7c-0.1,4.5-0.1,9-0.1,13.5l258,4.7C488.6,765.5,487,760.9,485.6,756.3z"/>
	<path fill="#A4A9AD" d="M1350.4,1037.1L313.1,1018c1.3,1.7,2.5,3.4,3.8,5.1c2.2,2.9,4.5,5.8,6.8,8.7l1013.4,18.8
	C1341.7,1046.1,1346.1,1041.6,1350.4,1037.1z"/>
	<path fill="#A4A9AD" d="M1200.4,647.2c-0.1,4.6-0.2,9.1-0.4,13.7l269.1,5c-0.6-4.6-1.2-9.2-1.8-13.7L1200.4,647.2z"/>
	<path fill="#A4A9AD" d="M1200.5,640.6l265.8,4.9c-0.7-4.6-1.5-9.1-2.3-13.7l-263.6-4.9C1200.5,631.5,1200.6,636,1200.5,640.6z"/>
	<path fill="#A4A9AD" d="M1256.7,30.2l12,0.2c-0.6-1.5-1-2.5-1.1-2.8L1256.7,30.2z"/>
	<path fill="#A4A9AD" d="M1150.1,841.1c-0.5,0.7-0.9,1.4-1.4,2.2l309.4,5.8c1.2-4.5,2.3-9,3.4-13.5l-304.5-5.7
	C1154.8,833.6,1152.5,837.4,1150.1,841.1z"/>
	<path fill="#A4A9AD" d="M1199.5,599.7l259,4.8l-0.4-1.9c-0.9-3.9-1.8-7.8-2.8-11.7l-256.8-4.7
	C1198.9,590.6,1199.2,595.2,1199.5,599.7z"/>
	<path fill="#A4A9AD" d="M1200.3,620.1l262.5,4.9c-0.9-4.6-1.8-9.1-2.7-13.7l-260.2-4.8C1200,611.1,1200.2,615.6,1200.3,620.1z"/>
	<path fill="#A4A9AD" d="M1198.8,681.2l272.4,5c-0.4-4.5-0.8-9-1.3-13.5l-270.2-5C1199.5,672.2,1199.2,676.7,1198.8,681.2z"/>
	<path fill="#A4A9AD" d="M1178.4,782.6l291.4,5.4c0.5-4.5,1-9,1.4-13.5l-288.4-5.3C1181.5,773.7,1180,778.2,1178.4,782.6z"/>
	<path fill="#A4A9AD" d="M1170.4,803l296.5,5.5c0.8-4.5,1.4-9,2-13.5l-293-5.4C1174.2,794.1,1172.4,798.6,1170.4,803z"/>
	<path fill="#A4A9AD" d="M1160.6,823.2l302.4,5.6c1-4.5,1.9-9.1,2.7-13.7l-298.3-5.5C1165.3,814.3,1163,818.8,1160.6,823.2z"/>
	<path fill="#A4A9AD" d="M1193.9,721.8l279.3,5.2c0-4.5-0.1-9.1-0.3-13.6l-276.9-5.1C1195.3,712.8,1194.6,717.3,1193.9,721.8z"/>
	<path fill="#A4A9AD" d="M1189.9,742.2l283,5.2c0.1-4.5,0.2-9.1,0.3-13.6l-280.5-5.2C1191.9,733.2,1190.9,737.7,1189.9,742.2z"/>
	<path fill="#A4A9AD" d="M1184.8,762.4l287,5.3c0.3-4.5,0.6-9,0.8-13.5l-284.3-5.2C1187.3,753.5,1186.1,758,1184.8,762.4z"/>
	<path fill="#A4A9AD" d="M488,464.3c1-4.5,2-9,3.1-13.5l-185-3.4c-1.9,4.5-3.8,9-5.7,13.5L488,464.3z"/>
	<path fill="#A4A9AD" d="M537.3,852.5c-3.7-4.5-7.3-9-10.7-13.7l-289-5.3c0.7,4.6,1.4,9.1,2.2,13.5L537.3,852.5z"/>
	<path fill="#A4A9AD" d="M521.5,831.7c-3.1-4.5-6-9.1-8.8-13.8l-277.9-5.1c0.5,4.6,1,9.1,1.6,13.6L521.5,831.7z"/>
	<path fill="#A4A9AD" d="M556.7,873.2c-4.7-4.5-9.1-9.1-13.4-13.8l-302.2-5.6c0.9,4.6,1.9,9.2,2.9,13.7L556.7,873.2z"/>
	<path fill="#A4A9AD" d="M581.2,894c-6-4.5-11.6-9.1-17-13.9l-318.5-5.9c1.1,4.6,2.3,9.1,3.6,13.6L581.2,894z"/>
	<path fill="#A4A9AD" d="M508.9,811.1c-2.5-4.5-4.9-9.1-7.1-13.8l-268.6-5c0.3,4.6,0.6,9.1,1,13.6L508.9,811.1z"/>
	<path fill="#A4A9AD" d="M659.4,936.2c-11.1-4.2-21.9-8.9-32.5-14.2l-368.8-6.8c1.7,4.6,3.4,9.2,5.2,13.7L659.4,936.2z"/>
	<path fill="#A4A9AD" d="M613.4,914.9c-7.9-4.4-15.4-9.1-22.5-14l-339.5-6.3c1.4,4.6,2.9,9.2,4.4,13.7L613.4,914.9z"/>
	<path fill="#A4A9AD" d="M469.3,667.7c-0.3-4.5-0.6-9-0.8-13.5L242.6,650c-0.8,4.5-1.6,9-2.3,13.5L469.3,667.7z"/>
	<path fill="#A4A9AD" d="M471.3,688.2c-0.5-4.5-1-9-1.4-13.5l-230.7-4.3c-0.7,4.5-1.3,9-1.9,13.5L471.3,688.2z"/>
	<path fill="#A4A9AD" d="M468.2,647.3c-0.1-4.5-0.2-9.1-0.3-13.6l-221.4-4.1c-1,4.6-1.9,9.1-2.7,13.6L468.2,647.3z"/>
	<path fill="#A4A9AD" d="M498.6,790.6c-2-4.5-3.9-9.1-5.8-13.7l-260.5-4.8c0.1,4.6,0.3,9.1,0.5,13.6L498.6,790.6z"/>
	<path fill="#A4A9AD" d="M478.2,729c-1-4.5-2-9.1-2.8-13.7l-241.1-4.5c-0.4,4.6-0.7,9.1-1,13.6L478.2,729z"/>
	<path fill="#A4A9AD" d="M483.5,749.5c-1.3-4.5-2.6-9.1-3.7-13.7l-246.9-4.6c-0.2,4.6-0.4,9.1-0.6,13.6L483.5,749.5z"/>
	<path fill="#A4A9AD" d="M1203.2,1149.9c7.5-4.3,14.8-8.7,22-13.1l-805-14.8c6.8,4.8,13.6,9.5,20.4,13.9L1203.2,1149.9z"/>
	<path fill="#A4A9AD" d="M1081,1208.9c10.5-4.2,20.7-8.6,30.6-12.9l-578.4-10.7c11.6,5.1,23.4,9.8,35.3,14.2L1081,1208.9z"/>
	<path fill="#A4A9AD" d="M1126.6,1189.3c9.3-4.3,18.4-8.6,27.3-13L488.6,1164c9.7,5.1,19.2,9.8,28.5,14.1L1126.6,1189.3z"/>
	<path fill="#A4A9AD" d="M1166.8,1169.7c8.4-4.3,16.6-8.7,24.6-13.2l-739.8-13.7c8,5,16,9.6,24,14.1L1166.8,1169.7z"/>
	<path fill="#A4A9AD" d="M680,943.3l-413.8-7.7c2,4.6,4,9.2,6.1,13.6l468.4,8.7C720.1,954.4,699.9,949.5,680,943.3z"/>
	<polygon fill="#A4A9AD" points="1027,1248.6 1027.3,1235.1 646.3,1228.1 646.2,1241.6 "/>
	<path fill="#A4A9AD" d="M468,627.1c0-4.5,0.1-9.1,0.2-13.7l-217-4c-1.1,4.6-2.1,9.1-3.1,13.7L468,627.1z"/>
	<path fill="#A4A9AD" d="M1030,1228.4c11.9-4.2,23.5-8.6,34.8-13l-475.6-8.8c16.7,5.5,33.7,10.4,50.8,14.5L1030,1228.4z"/>
	<path fill="#A4A9AD" d="M1356.5,1030.7c4.1-4.4,8-8.9,11.9-13.4L298.9,997.5c3,4.7,6.1,9.3,9.3,13.8L1356.5,1030.7z"/>
	<path fill="#A4A9AD" d="M507.7,36.7l-50.9-14.6l-45-0.8c-1.6,4.7-3.1,9.2-4.6,13.5L507.7,36.7z"/>
	<path fill="#A4A9AD" d="M1389.6,990.5c3.3-4.5,6.5-9,9.6-13.5l-520.4-9.6c-9.8,0.3-19.8,0.4-30.1,0.3c-13.5-0.2-26.6-0.7-39.2-1.6
	l-534-9.9c2.3,4.7,4.7,9.2,7.1,13.7L1389.6,990.5z"/>
	<path fill="#A4A9AD" d="M1374.1,1010.5c3.7-4.5,7.2-8.9,10.6-13.4L286.4,976.8c2.7,4.7,5.4,9.3,8.1,13.8L1374.1,1010.5z"/>
	<path fill="#A4A9AD" d="M1315.4,1070.7c5.1-4.5,10.1-9,14.9-13.5l-1000.9-18.5c4,4.8,8.1,9.4,12.2,13.9L1315.4,1070.7z"/>
	<path fill="#A4A9AD" d="M1264.9,1110.5c6.2-4.4,12.2-8.8,18-13.3l-914.2-17c5.2,4.8,10.4,9.5,15.7,14L1264.9,1110.5z"/>
	<path fill="#A4A9AD" d="M1235.6,1130.3c6.8-4.3,13.4-8.7,19.8-13.2l-862.6-15.9c5.9,4.8,11.9,9.4,17.9,13.9L1235.6,1130.3z"/>
	<path fill="#A4A9AD" d="M559.5,241.5c1.1-2.6,2.1-5.2,3.2-7.8l2.4-5.7l-140.8-2.6c-2.8,4.5-5.6,9-8.3,13.4L559.5,241.5z"/>
	<path fill="#A4A9AD" d="M551.5,261.6c1.8-4.6,3.6-9.1,5.4-13.5L412,245.4c-2.7,4.5-5.5,9-8.1,13.5L551.5,261.6z"/>
	<path fill="#A4A9AD" d="M567.9,221.1c1.9-4.5,3.8-9,5.7-13.5l-136.5-2.5c-2.9,4.5-5.7,9-8.5,13.4L567.9,221.1z"/>
	<path fill="#A4A9AD" d="M536.2,302c1.6-4.5,3.3-9,5-13.4L388,285.8c-2.6,4.5-5.1,8.9-7.6,13.4L536.2,302z"/>
	<path fill="#A4A9AD" d="M543.6,281.9c1.7-4.6,3.5-9.1,5.2-13.6l-149-2.8c-2.7,4.6-5.4,9.1-8,13.6L543.6,281.9z"/>
	<path fill="#A4A9AD" d="M576.5,201c2-4.5,3.9-9,5.9-13.5L450,185.1c-3,4.5-5.9,9-8.7,13.4L576.5,201z"/>
	<path fill="#A4A9AD" d="M414.1,14.6l17.6,0.3l-16.2-4.6L414.1,14.6z"/>
	<path fill="#A4A9AD" d="M583.6,58.3l-50.9-14.5L405,41.4L400.4,55L583.6,58.3z"/>
	<path fill="#A4A9AD" d="M528.9,322.5c1.6-4.6,3.2-9.1,4.8-13.6L376.4,306c-2.5,4.6-5.1,9.1-7.5,13.6L528.9,322.5z"/>
	<path fill="#A4A9AD" d="M585.5,180.8c2-4.5,4-8.9,6.1-13.4L463.4,165c-3,4.5-5.9,8.9-8.9,13.3L585.5,180.8z"/>
	<path fill="#A4A9AD" d="M634.9,79.8c1-2,2.1-3.9,3.1-5.9l-28.6-8.2L398,61.8c-1.7,4.8-3.4,9.3-4.9,13.5L634.9,79.8z"/>
	<path fill="#A4A9AD" d="M610.8,126.9l-228.1-4.2l43.4,14.3l178.2,3.3C606.5,135.8,608.7,131.3,610.8,126.9z"/>
	<path fill="#A4A9AD" d="M468,158.2l126.8,2.4c2.1-4.5,4.2-9,6.3-13.5l-152.7-2.8l23.8,7.8L468,158.2z"/>
	<path fill="#A4A9AD" d="M503.4,403.5c1.3-4.5,2.6-9,3.9-13.5L334,386.7c-2.2,4.5-4.4,9-6.5,13.5L503.4,403.5z"/>
	<path fill="#A4A9AD" d="M522,342.6c1.5-4.5,3-9,4.6-13.5l-161.3-3c-2.5,4.5-4.9,9-7.2,13.5L522,342.6z"/>
	<path fill="#A4A9AD" d="M476.5,525.2c0.7-4.5,1.4-9,2.2-13.6L282,508c-1.7,4.5-3.3,9-4.8,13.5L476.5,525.2z"/>
	<path fill="#A4A9AD" d="M479.9,504.9c0.8-4.5,1.6-9,2.5-13.5l-192.8-3.5c-1.7,4.5-3.4,9-5.1,13.4L479.9,504.9z"/>
	<path fill="#A4A9AD" d="M483.8,484.5c0.9-4.5,1.9-9,2.8-13.5l-188.9-3.5c-1.8,4.5-3.6,9-5.4,13.4L483.8,484.5z"/>
	<path fill="#A4A9AD" d="M469.6,586.3c0.3-4.5,0.7-9,1.1-13.6L262,568.9c-1.3,4.5-2.6,9.1-3.8,13.5L469.6,586.3z"/>
	<path fill="#A4A9AD" d="M471.3,565.9c0.5-4.6,1-9.1,1.5-13.7l-204.6-3.8c-1.5,4.6-2.9,9.1-4.2,13.6L471.3,565.9z"/>
	<path fill="#A4A9AD" d="M473.6,545.5c0.3-2.4,0.6-4.8,1-7.2c0.3-2.1,0.6-4.2,0.9-6.3l-200.7-3.7c-1.5,4.5-3,9-4.5,13.4L473.6,545.5z
	"/>
	<path fill="#A4A9AD" d="M492.8,443.9c1.1-4.5,2.2-9,3.4-13.4L315,427.1c-2,4.5-4,9-5.9,13.4L492.8,443.9z"/>
	<path fill="#A4A9AD" d="M513.4,369.5l-169.3-3.1c-2.3,4.5-4.6,9-6.8,13.5l171.9,3.2C510.6,378.5,512,374,513.4,369.5z"/>
	<path fill="#A4A9AD" d="M515.5,362.9c1.4-4.5,2.9-9.1,4.3-13.5l-165.3-3.1c-2.4,4.5-4.7,9-7,13.5L515.5,362.9z"/>
	<path fill="#A4A9AD" d="M468.4,606.6c0.2-4.5,0.4-9.1,0.7-13.6l-212.8-3.9c-1.2,4.5-2.4,9.1-3.5,13.5L468.4,606.6z"/>
	<path fill="#A4A9AD" d="M497.9,423.6c1.2-4.5,2.4-9,3.6-13.5l-177.2-3.3c-2.1,4.5-4.2,9-6.2,13.4L497.9,423.6z"/>
	<path fill="#FFFFFF" d="M640.9,1251.7l0.2-29.1c-43.3-10.3-85.5-25-125.8-43.8c-85.8-39.7-154-92.3-202.7-156.6
	c-67.7-89.2-95.7-198.4-82.8-324.7c16-156.2,94.6-340.1,233.9-546.6l-94.8-31.2l2.1-5.1c0.2-0.3,1.1-2.7,2.7-7s4.2-10.7,7.6-19.5
	s7.3-19.9,12.2-33.8S404.2,24,410.6,4.5l1.6-4.5l233.3,66.6l-3,5.6c-27.7,51.8-52.8,104.9-75.2,159.3
	c-45.8,110.8-75.3,213.1-87.7,303.6c-16.9,122.8-1.2,220.5,46.4,290.4c58.4,85.6,166.3,130.4,320.7,133.2h2
	c142.9,1.7,242.8-40.2,297.1-124.3c44.2-68.6,59-165.9,44.1-289.3c-11.1-90.8-37.7-194-79.4-306.4c-29.3-78.9-57.6-139.3-68.4-161.4
	l-2.9-5.8L1271,17.7l1.6,4.2c0.2,0.6,1.5,4,3.8,9.9s5.5,13.8,9.6,23.6s9.1,21.3,14.6,34.1c6.4,14.1,12.5,27.8,18.8,40.8l2.7,5.5
	l-86.7,24.6c35.8,43.8,68.8,89.9,98.6,138c64.3,103.2,107.7,203.8,129.2,299c29.3,130.2,16.2,246.5-39.5,345.8
	c-67.7,121-199.4,217.2-391.2,285.7l-0.4,28.6L640.9,1251.7z M382.4,113.3l97.4,32l-3.7,5.6C335.2,358.1,255.8,542.4,239.9,698.3
	c-12.5,123.6,14.7,230.4,80.8,317.4c47.8,62.8,114.5,114.5,199,153.6c40.9,19,83.6,33.8,127.5,44l4.1,0.8v4.2l-0.2,23l370.7,5.3
	l0.4-25.4l3.3-1.2c191.3-67.6,322.2-162.6,389.1-282c54.4-97,67.3-210.9,38.5-338.8c-21.3-94.1-64.2-193.6-127.9-295.7
	c-30.9-50-65.3-97.7-102.9-142.8l-5.1-6l90.3-25.6c-5.3-11.4-10.9-23.4-16.3-35.6c-5.7-12.8-10.7-24.4-14.7-34.3s-7.3-18-9.6-23.8
	c-0.9-1.9-1.6-3.9-2.3-5.9L1054,78.3c12.4,25.9,38.7,83.3,66,156.7c42,113.2,68.8,217,79.9,308.7c15.3,125.8,0,225.3-45.6,296
	c-56.2,87.3-159.1,130.5-305.8,129h-1.9c-157.9-2.9-268.6-49.3-329-137.8c-49.1-71.9-65.2-171.9-48-297.4
	c12.6-91.5,42.3-194.3,88.4-306c30-72.7,59-129.2,72.6-154.8L418.9,12.3c-6,17.5-11.1,32.4-15.7,45.3c-4.9,13.9-9,25-12.2,33.9
	s-5.8,15.4-7.5,19.7C383,111.8,382.6,112.5,382.4,113.3L382.4,113.3z"/>
	<path fill="#FFFFFF" d="M561.8,975.2c2.4-4.2,4.4-8.6,6.1-13.2c1.3-3.4,1.7-7.1,1.3-10.7c-0.6-3.5-2.1-6.7-4.4-9.4
	c-3.3-3.8-7.1-7.1-11.3-9.9c-1-0.5-1.6-1.6-1.4-2.7c-0.1-2.2,1.2-4.3,3.2-5.2c1-0.4,2.1-0.3,3,0.2c5.3,3.3,11.3,7.2,18,11.8
	c6.2,4.2,12.7,8,19.3,11.5c3.7,1.8,7.1,3.5,10.4,5s6.5,2.7,9.7,4s6.3,2.7,9.5,3.9s6.7,2.7,10.5,4.3c1,0.3,1.6,1.2,1.7,2.2
	c0.1,1,0,2.1-0.5,3c-0.5,1-1.3,1.8-2.2,2.5c-0.8,0.6-1.8,0.8-2.7,0.4c-4.7-1.8-9.5-3-14.4-3.8c-3.4-0.6-6.9-0.1-10.1,1.3
	c-3.2,1.6-5.9,4.1-7.9,7.1c-2.8,4.3-5.3,8.7-7.5,13.3c-13.9,28.4-27.8,56.8-41.6,85.2c-2.2,4.3-4,8.8-5.3,13.5
	c-1,3.5-1.2,7.1-0.5,10.7c0.7,3.4,2.4,6.6,4.8,9.1c3.2,3.3,6.6,6.3,10.4,8.9c3.1,1.9,6.5,3.8,10.5,5.9s8.2,3.8,12.6,5.6
	c5.6,2.2,10.9,4.1,16,5.6c3.9,1.2,7.9,2.1,11.9,2.7c4.4,0.4,8.9,0.5,13.3,0.3c3.6-0.2,7.2-1.1,10.4-2.7c3.3-1.6,6.2-3.9,8.5-6.7
	c3.1-3.5,5.6-7.5,7.6-11.7c0.6-1,1.8-1.5,3-1.3c1.6,0.1,3.1,0.3,4.6,0.7c1.5,0.4,2.8,1.1,4,2.1c1.2,0.9,1.4,1.8,1,2.7
	c-3.2,7-6.2,13.5-9.1,19.7c-2.8,6.2-5,12.6-6.7,19.2c-0.5,0.8-1.2,1.4-2.1,1.8c-1.3,0.7-3.8,0.5-7.5-0.6
	c-44.5-13.5-87.6-31.2-128.7-52.8c-8.9-4.7-17.4-9.2-25.8-13.3s-16.5-8.6-24.5-13.3c-1.3-0.8-2.2-2-2.7-3.4
	c-0.3-1.1-0.2-2.3,0.5-3.3c0.6-1,1.6-1.7,2.8-1.9c1.5-0.3,3.1-0.1,4.4,0.7c5.8,3,11.7,5.6,17.7,8c3.6,1.6,7.5,2.4,11.5,2.3
	c3.2-0.4,6.1-1.8,8.3-4.2c3.1-3.6,5.8-7.5,8-11.6c17.4-31,34.8-62.1,52.2-93.2C587.6,928.9,561.8,975.2,561.8,975.2L561.8,975.2z
	 M737.1,1039.7c1.1-4.7,1.7-9.6,1.9-14.4c0.2-3.6-0.5-7.1-2-10.4c-1.6-3.1-4-5.7-7-7.5c-4.2-2.5-8.6-4.4-13.3-5.7
	c-1.1-0.2-2-1.1-2.2-2.2c-0.3-1.1-0.3-2.2,0-3.3c0.2-1,0.8-2,1.6-2.7c0.7-0.7,1.7-1,2.7-0.7c5.9,1.5,12.6,3.3,20.1,5.3
	c7.1,2,14.2,3.7,21.5,5c3.9,0.7,7.6,1.1,11.1,1.4s7,0.6,10.3,0.9l10.1,0.7c3.4,0,7,0.5,11.1,0.8c1,0.1,1.8,0.7,2.2,1.6
	c0.4,1,0.5,2,0.4,3.1c-0.2,1.1-0.7,2.1-1.4,3c-0.5,0.9-1.4,1.4-2.4,1.4c-4.9-0.3-9.8,0-14.6,0.8c-3.4,0.5-6.6,2-9.1,4.3
	c-2.4,2.5-4.1,5.6-5,9c-1.3,5-2.4,10-3.1,15.1c-4.9,35.2-9.8,70.4-14.8,105.7c-0.9,4.6-1.1,9.4-0.6,14.1c0.4,3.2,1.9,6.2,4.3,8.4
	c3,2.5,6.6,4.4,10.4,5.3c5.9,1.7,11.9,3,18,3.9c1.3,0.3,2.5,1,3.3,2.1c0.7,0.9,1.1,2,1,3.2s-0.7,2.2-1.6,2.9c-1.1,0.9-2.6,1.3-4,1.1
	c-9.6-0.9-19.2-2.4-28.6-4.4c-9-1.9-18.1-3.6-27-5.1c-9.5-1.5-19.3-3.1-29.3-4.5c-9.2-1.2-18.4-2.9-27.4-5.1
	c-2.3-0.4-3.9-2.6-3.5-4.9v-0.1c0-0.1,0-0.3,0.1-0.4c0.4-1.1,1-2.1,1.8-2.9c1.1-0.7,2.5-1,3.8-0.9c6.1,1.2,12.4,2,18.6,2.3
	c3.9,0.3,7.8-0.3,11.4-1.6c3-1.3,5.3-3.7,6.7-6.6c1.8-4.3,3.2-8.9,4-13.5C723.4,1109.7,730.2,1074.7,737.1,1039.7L737.1,1039.7z
	 M961.2,999.7c1.5-0.3,3.1-0.4,4.6-0.3c1.4,0,2.3,1.4,2.4,3.9c0.6,6.1,1.7,12.1,3.2,18c1.5,6.7,3.1,12.9,4.8,18.5
	c0,0.8-0.4,1.6-1.1,2.1c-0.9,0.7-1.9,1.2-3,1.4c-1.2,0.3-2.4,0.3-3.6,0c-1-0.1-1.9-0.7-2.4-1.6c-2.1-5.3-4.5-10.5-7.1-15.6
	c-1.7-3.3-4.3-6-7.4-8c-3.2-1.8-6.8-2.6-10.4-2.3c-4.2,0-9.6,0.6-16.4,1.3c-5.8,0.8-11.5,1.3-17.3,1.9c-5,0.5-9,0.9-11.9,1.3
	c-2.5,0.2-5,1.2-7,2.7c-1.8,1.5-2.9,3.5-3.2,5.8c-0.4,3.6-0.5,7.1-0.3,10.7c0.8,16,1.7,31.8,2.7,47.6c0,2.7,0.7,4.1,1.8,4.7
	c1,0.5,2.2,0.8,3.3,0.7c7.9-0.4,15.8-1.3,23.6-2.8c4.5-0.8,8.8-2.6,12.5-5.3c2.5-2,4.3-4.8,4.8-8c0.6-4,0.9-8.1,0.7-12.2
	c0.1-1.1,0.7-2.1,1.6-2.7c1-0.7,2.1-1.2,3.3-1.3c1.2-0.2,2.4-0.1,3.5,0.3c1.1,0.3,1.8,1.1,2,2.2c0.4,2.5,0.7,5.1,0.8,7.7
	c0.2,2.3,0.3,4.5,0.4,6.7s0.3,4.7,0.4,7.1s0.5,5.3,0.9,8.6c0.8,4.9,1.9,9.8,3.3,14.6c1.5,5.2,2.6,10.5,3.4,15.8c0.1,1-0.5,2-1.5,2.3
	c-1.1,0.6-2.4,1-3.7,1.1s-2.6,0-3.8-0.3c-1.1-0.2-2-1-2.5-2c-1-4.2-2.4-8.4-4.1-12.4c-1.4-3-4-5.4-7.1-6.6c-4.3-1.6-9-2.3-13.6-2.1
	c-6,0-14,0.4-24.1,1c-1.2,0-2.4,0.4-3.3,1.2c-1.2,1-1.7,2.5-1.4,4c0.8,15.3,1.6,30.4,2.4,45.7c0.1,5,1,10,2.7,14.7
	c1.5,3.6,4.2,6.5,7.6,8.3c4.2,2,8.8,3.2,13.5,3.4c6.9,0.4,13.8,0.4,20.7,0c1.7,0,3.1,0,3.8,1.1c0.9,0.9,1.4,2,1.6,3.2
	c0.2,1.1-0.2,2.3-0.9,3.2c-1,1.1-2.3,1.8-3.8,1.8c-11.6,1.4-23.2,2-34.9,2c-9.7,0-19.2,0-28.2,0.2c-9.6,0.3-19,0.7-28.3,1.3
	c-9.1,0.7-18.2,0.8-27.3,0.3c-1.3,0.1-2.5-0.5-3.3-1.5c-0.7-0.9-1.1-2-1.1-3.1c-0.1-1.1,0.3-2.3,1.1-3.1c1-1,2.4-1.6,3.8-1.5
	c5.8-0.1,11.6-0.6,17.3-1.5c3.8-0.5,7.4-2,10.5-4.2c2.5-2,4.3-4.8,5.1-7.9c0.9-4.3,1.3-8.6,1.2-13c0-34.2,0.1-68.4,0.2-102.5
	c0-4-0.2-8-0.4-11.7c-0.3-3.6-0.9-7.2-1.9-10.7c-0.8-3.2-2.4-6.1-4.5-8.6s-4.9-4.2-8-5c-2.1-0.7-4.3-1.1-6.5-1.6l-6.6-1.2
	c-1,0.1-2-0.5-2.5-1.4c-0.6-0.9-0.8-2-0.7-3.1c0-1.1,0.4-2.1,1-3c0.6-0.8,1.6-1.3,2.7-1.3c6.4,0.4,12.2,0.8,17.3,1.3
	s11,0.6,17.9,0.6C894.3,1010,928,1006.3,961.2,999.7L961.2,999.7z M1115.7,941.7c1.4-0.6,2.8-1.2,4.2-1.6c1.5-0.4,2.7,0.7,3.5,3.1
	c0.8,2.2,1.7,4.3,2.8,6.3c1.1,2.2,2.4,4.4,3.6,6.7c3.9,7.2,7.8,13.8,11.7,19.7c0.3,0.8,0.1,1.6-0.4,2.2c-0.7,1-1.6,1.8-2.7,2.3
	c-1,0.7-2.2,1.1-3.4,1.3c-1,0.2-2-0.1-2.7-0.9c-3.6-4.5-7.4-8.8-11.6-12.8c-5.1-5.6-13.2-7.5-20.2-4.6c-4.2,1.3-9.4,3.4-15.7,6
	c-5.5,2.4-10.8,4.7-16.4,6.9c-4.7,1.9-8.5,3.5-11.2,4.7c-2.4,0.9-4.5,2.5-6.1,4.5c-1.3,1.9-1.9,4.2-1.5,6.4
	c0.5,3.5,1.4,6.9,2.7,10.2c5.3,15,10.7,30,16,44.9c0.8,2.5,1.9,3.8,3.1,4s2.4,0.2,3.5-0.2c7.6-2.7,14.9-5.9,22-9.7
	c4.2-2.1,7.8-5.1,10.7-8.8c1.9-2.7,2.7-5.9,2.4-9.2c-0.5-4-1.4-8-2.7-11.9c-0.2-1.1,0.1-2.2,0.8-3c0.7-1,1.7-1.8,2.8-2.3
	c1.1-0.5,2.3-0.8,3.5-0.7c1.1,0,2,0.6,2.5,1.5c1.2,2.3,2.2,4.7,3,7.2c0.8,2,1.7,4.3,2.4,6.4s1.5,4.4,2.2,6.7c1,2.7,2.1,5.4,3.4,8
	c2.1,4.5,4.4,8.9,7.1,13.1c3.1,4.5,5.7,9.3,8,14.2c0.4,0.9,0,1.7-0.8,2.7c-0.9,0.9-2,1.6-3.2,2.1s-2.6,0.8-3.9,0.9
	c-1.1,0.2-2.3-0.3-2.9-1.3c-2.2-3.8-4.8-7.4-7.7-10.7c-2.2-2.6-5.3-4.2-8.6-4.5c-4.8-0.2-9.5,0.5-14,2.1c-5.8,1.6-13.5,4.4-23.2,8
	c-1.1,0.5-2.1,1.2-2.9,2.1c-0.8,1.3-0.9,2.9-0.2,4.3c3.9,11.3,8,22.4,12,33.6c1.6,4.7,3.7,9.2,6.4,13.3c2.1,3.2,4.9,5.8,8.2,7.8
	c3.1,1.7,6.4,2.7,9.9,3.1c4,0.2,8.1-0.2,12-1.2c3.9-0.8,7.8-2,11.5-3.4c4.2-1.4,8.5-3.1,12.9-5c5.6-2.5,10.7-5,15.3-7.6
	c3.7-1.8,7.1-4.1,10.3-6.7c3.5-3,6.9-6.1,10-9.5c2.3-2.8,4.1-5.9,5.3-9.3c1.1-3.5,1.6-7.1,1.4-10.7c-0.5-4.7-1.6-9.3-3.1-13.7
	c-0.2-1.2,0.2-2.3,1.1-3.1c1.2-1.1,2.5-2,3.9-2.9c1.4-0.7,2.9-1.2,4.4-1.5c1-0.3,2.1,0.1,2.7,1c2.7,7.3,5.3,14,7.6,20.3
	c2.5,6.3,5.5,12.5,9,18.3c0.2,0.9,0.1,1.9-0.3,2.8c-0.3,1.4-2.3,3-5.8,4.8c-41,22.5-84,40.9-128.5,55.2c-9.2,3-18.2,5.9-27.1,8.7
	s-16.8,5.3-24,7.4c-1.5,0.5-3.2,0.5-4.7-0.1c-1.2-0.5-2.2-1.5-2.7-2.7c-0.5-1.1-0.4-2.4,0.4-3.4c1.1-1.4,2.6-2.4,4.3-2.9
	c5-1.6,9.8-3.6,14.4-6c3.4-1.7,6.5-4.1,9-7c2-2.5,3.4-5.4,3.9-8.6c0.4-3.8,0-7.6-1.2-11.2l-29.3-100.7c-1.1-3.8-2.3-7.5-3.8-11.2
	c-1.2-3.4-2.9-6.6-4.9-9.6c-1.7-2.7-4-5.1-6.7-6.8c-2.8-1.8-6.1-2.8-9.4-2.7c-2.2,0-4.5,0.2-6.8,0.3s-4.6,0.5-6.7,0.8
	c-1,0.3-2.2,0-2.9-0.8c-0.8-0.7-1.3-1.7-1.5-2.7c-0.3-1-0.3-2,0-3s1.2-1.8,2.2-2.1c6.2-1.5,11.9-2.7,17-3.8s10.9-2.5,17.5-4.5
	C1052.4,971.2,1084.8,958.1,1115.7,941.7L1115.7,941.7z"/>
	<path fill="#1D5632" d="M456.9,1084.2c-2.1-1.1-3.7-3-4.4-5.3c-0.5-1.5-0.2-3.2,0.6-4.6c0.9-1.4,2.2-2.3,3.8-2.7
	c2.3-0.5,4.6-0.2,6.7,0.9c5.7,3,11.5,5.6,17.5,8c3.2,1.4,6.7,2.1,10.2,2c2.7-0.3,5.2-1.6,6.9-3.7c3.1-3.4,5.7-7.2,7.8-11.3
	c17.2-31.1,34.6-62.4,51.8-93.4c2.4-4.2,4.4-8.6,6-13.1c1.1-3.1,1.5-6.4,1.1-9.7c-0.7-3-2.1-5.8-4-8.2c-3.2-3.6-6.9-6.8-11-9.5
	c-1.6-1-2.5-2.7-2.5-4.6c0.1-2.9,1.8-5.6,4.4-6.9c1.7-0.8,3.6-0.6,5.1,0.5c5.3,3.3,11.5,7.2,18.2,11.6c9.4,6.3,19.3,11.7,29.7,16.1
	c3.4,1.4,6.4,2.8,9.7,4s6.4,2.7,9.6,3.8s6.8,2.7,10.7,4.3c1.7,0.6,2.9,2.2,3.1,4c0.1,1.4-0.1,2.9-0.8,4.2c-0.7,1.2-1.6,2.3-2.7,3.1
	c-1.4,1.2-3.4,1.5-5.1,0.7c-4.4-1.6-9-2.8-13.7-3.5c-3-0.5-6.2-0.1-9,1.1c-2.8,1.5-5.1,3.7-6.8,6.4c-2.7,4.3-5.1,8.7-7.2,13.3
	c-13.4,28.6-26.9,57.2-40.4,85.7c-2.2,4.2-3.9,8.7-5.2,13.3c-0.9,3.2-1.1,6.6-0.3,9.9c0.6,3,2.1,5.7,4.2,7.8
	c3.1,3.1,6.5,5.9,10.1,8.4c2.7,1.7,6.2,3.5,10,5.5c9.1,4.4,18.6,8,28.3,10.7c3.6,1.2,7.4,2,11.2,2.5c4.4,0.3,8.7,0.4,13.1,0.2
	c6.7-0.3,13-3.4,17.3-8.6c2.9-3.5,5.4-7.4,7.3-11.5c1.2-1.8,3.2-2.7,5.3-2.5c3.8,0.1,7.5,1.3,10.7,3.5c1.9,1.6,2.7,3.4,1.6,5.1
	c-3,6.9-5.9,13.3-8.7,19.6c-2.8,6.1-4.9,12.5-6.4,19c-0.6,1.3-1.7,2.4-3,2.9c-2,1.1-5.3,0.9-9.9-0.4
	c-44.9-13.3-88.5-30.8-130.2-52.2c-8.9-4.6-17.7-9.1-26-13.3s-16.6-8.7-24.7-13.3L456.9,1084.2z M554.6,926c-0.2-0.1-0.5-0.1-0.7,0
	c-0.7,0.3-1.2,0.8-1.6,1.4c-0.4,0.6-0.6,1.4-0.6,2.1c0,0.5,0,0.6,0.4,0.8c4.4,2.9,8.5,6.3,12,10.3c2.6,3,4.4,6.6,5.1,10.5
	c0.5,3.9,0.1,7.9-1.3,11.6c-1.6,4.7-3.6,9.2-6,13.5c-17,31.3-34,62.6-51.1,94c-2.2,4.3-4.9,8.3-8,12c-2.5,2.7-5.9,4.4-9.5,4.7
	c-4.5,0.1-8.9-0.7-13.1-2.4c-4.7-1.8-10.8-4.5-18.1-8c-0.6-0.4-1.4-0.6-2.2-0.4c-0.8,0.2-1.5,0.6-1.9,1.3c-0.3,0.6-0.4,1.3-0.2,1.9
	c0,0.3,0.2,0.6,1.1,1.2c8,4.5,16,8.8,24.5,13.1s17.1,8.7,26.2,13.3c41.4,21.2,84.8,38.5,129.4,51.7c3.9,1.1,4.9,0.7,4.9,0.7
	c0.4-0.2,0.8-0.5,1.2-0.8c1.6-6.6,3.9-13.1,6.8-19.3c2.7-6.1,5.8-12.7,9-19.8c-2-1.4-4.4-2.2-6.9-2.2c-0.6,0-0.7,0-0.8,0.3
	c-2,4.3-4.6,8.4-7.6,12.1c-2.5,3-5.6,5.4-9.1,7.2c-3.6,1.7-7.4,2.7-11.4,3c-4.7,0.2-9.3,0.2-14-0.2c-4.3-0.5-8.6-1.4-12.7-2.7
	c-10.1-2.9-19.9-6.7-29.3-11.3c-3.8-1.7-7.4-3.7-10.9-5.9c-4.1-2.8-7.8-6-11.3-9.5c-2.8-2.8-4.8-6.3-5.6-10.2
	c-0.8-3.8-0.6-7.7,0.6-11.4c1.3-4.8,3.1-9.5,5.3-13.9l41.1-85.4c2.1-4.7,4.7-9.3,7.7-13.5c2-3.3,4.9-6,8.4-7.8
	c3.6-1.6,7.6-2.1,11.5-1.5c5.1,0.7,10.2,2,15,3.9c0.2,0,0.5-0.1,0.7-0.2c0.7-0.5,1.3-1.1,1.7-1.9c0.3-0.6,0.4-1.2,0.4-1.8
	c-4.1-2-7.6-3.4-10.8-4.7l-9.7-3.7c-3.2-1.3-6.4-2.7-9.8-4.1c-10.6-4.5-20.8-10-30.4-16.5C565.9,933.2,559.9,929.2,554.6,926z
	 M787.4,1192.4c-9.8-0.7-19.6-2.1-29.3-4.1c-18.6-3.7-36.6-6.6-56.4-9.1c-9.4-1.2-18.8-2.9-28-5.1c-2.3-0.3-4.2-1.7-5.3-3.7
	c-0.7-1.3-0.9-2.8-0.6-4.3c0.4-1.5,1.3-2.7,2.5-3.6c1.8-1.2,3.9-1.7,6-1.4c6,1.1,12.2,1.8,18.3,2.1c3.4,0.2,6.9-0.2,10.1-1.4
	c2.5-1.1,4.5-3.2,5.6-5.7c1.8-4.3,3.1-8.7,3.8-13.3c6.8-34.9,13.6-69.8,20.3-104.8c0.9-4.7,1.5-9.4,1.7-14.1
	c0.6-6.5-2.5-12.7-8-16.1c-4.1-2.3-8.5-4.1-13-5.3c-1.8-0.4-3.2-1.8-3.7-3.6c-0.3-1.4-0.3-2.8,0-4.2s1.1-2.6,2.1-3.6
	c1.3-1.3,3.2-1.8,5-1.3c5.9,1.5,12.7,3.3,20.4,5.3c10.7,3,21.6,5.1,32.6,6.1c3.5,0.4,6.9,0.6,10.2,0.8l10.1,0.7
	c3.5,0,7.2,0.3,11.3,0.7c1.8,0.1,3.4,1.2,4.1,2.8c0.5,1.3,0.7,2.8,0.5,4.2s-0.8,2.7-1.6,3.9c-0.9,1.5-2.6,2.4-4.4,2.2
	c-4.6-0.2-9.3,0-13.9,0.8c-3,0.5-5.8,1.8-8,3.9c-2.2,2.3-3.8,5.2-4.4,8.3c-1.3,4.8-2.2,9.7-2.7,14.7c-4.6,35.3-9.1,70.7-13.7,105.9
	c-0.7,4.5-0.7,9.1-0.2,13.6c0.3,2.8,1.6,5.3,3.6,7.2c2.7,2.2,5.9,3.7,9.3,4.6c5.9,1.5,11.8,2.7,17.8,3.6c2.1,0.4,4,1.5,5.3,3.2
	c1,1.2,1.5,2.7,1.4,4.3c-0.1,1.6-0.9,3.2-2.2,4.2C792.1,1192.1,789.7,1192.7,787.4,1192.4L787.4,1192.4z M731.9,1179.4
	c9.1,1.4,18.2,3.1,27.4,5c9.4,1.8,18.9,3.2,28.4,4c0.6,0.1,1.2,0,1.8-0.3c0.5-0.5,0.8-1.2,0.9-1.9c0-0.7-0.3-1.4-0.7-2
	c-0.4-0.5-0.9-0.8-1.5-0.9c-6.2-0.9-12.3-2.2-18.4-3.8c-4.3-1.1-8.3-3.1-11.7-5.9c-2.8-2.4-4.6-5.8-5-9.5c-0.5-4.9-0.3-9.8,0.4-14.6
	c4.8-35.3,9.6-70.6,14.5-105.9c0.6-5.2,1.6-10.3,3-15.3c1-3.7,2.9-7.1,5.6-9.9c2.8-2.7,6.4-4.4,10.2-5c5-0.9,10.1-1.3,15.2-1.1
	l0.6-0.3c0.5-0.6,0.8-1.4,0.9-2.2c0.3-0.6,0.3-1.4,0-2c-4.4-0.5-8-0.9-11.6-1s-6.8-0.3-10.2-0.6s-6.8-0.5-10.3-0.8
	c-11.3-1-22.4-3.1-33.3-6.1c-7.5-2.1-14.4-3.9-20.2-5.3c-0.3-0.1-0.6,0-0.8,0.2c-0.5,0.4-0.9,1-1,1.7c-0.2,0.7-0.2,1.5,0,2.2
	c0,0.4,0.2,0.5,0.5,0.5c5,1.4,9.8,3.4,14.3,6c3.3,2.1,6,5,7.9,8.4c1.6,3.5,2.4,7.4,2.3,11.3c-0.1,4.9-0.7,9.9-1.8,14.7
	c-6.4,35-12.9,70-19.4,105.1c-0.8,4.8-2.2,9.5-4.2,13.9c-1.3,3.4-4.1,6.2-7.5,7.5c-4.1,1.6-8.5,2.3-12.9,2c-6.4-0.4-12.7-1.1-19-2.2
	c-0.5,0-1,0.1-1.4,0.5c-0.6,0.4-1,1.1-1.1,1.8c-0.2,0.7-0.2,1.4,0,2.1c0.3,0.2,0.6,0.4,0.9,0.5c8,1.9,17.2,3.6,27.3,5
	C712.1,1176.4,722.4,1177.9,731.9,1179.4L731.9,1179.4z M939.2,1189.5c-11.8,1.5-23.7,2.3-35.6,2.3c-20,0-38.2,0.7-56.3,2
	c-9.3,0.7-18.5,0.8-27.8,0.5c-2.2,0-4.4-1-5.8-2.7c-0.9-1.2-1.4-2.6-1.5-4c-0.1-1.6,0.4-3.1,1.5-4.2c1.5-1.7,3.7-2.7,6-2.7
	c5.7-0.1,11.4-0.7,17-1.6c3.3-0.5,6.4-1.7,9.1-3.6c2.1-1.8,3.6-4.3,4.3-7c0.9-4.2,1.3-8.4,1.2-12.7c0-34.1-0.1-68.2-0.3-102.4
	c0-3.8-0.2-7.7-0.6-11.5c-0.2-3.5-0.8-7-1.9-10.3c-0.8-2.8-2.1-5.4-4-7.7c-1.9-2.1-4.4-3.6-7.2-4.3c-2.1-0.6-4.2-1.1-6.4-1.5
	s-4.5-0.8-6.5-1.1c-1.8,0-3.5-1.1-4.2-2.7c-0.8-1.2-1.1-2.7-1.1-4.1c0.1-1.4,0.6-2.8,1.4-3.9c1-1.5,2.7-2.3,4.5-2.1
	c6.4,0.2,12.4,0.5,17.6,1s11,0.5,17.8,0.5c34.2-0.7,68.3-4.6,101.8-11.5c1.7-0.3,3.4-0.5,5.1-0.4c1.5,0,4.2,0.7,4.5,5.8
	c0.6,6,1.7,12,3.3,17.9c1.7,6.8,3.4,12.9,5,18.4c0.3,1.6-0.4,3.3-1.8,4.2c-1.1,0.9-2.5,1.6-3.9,1.9c-1.6,0.5-3.2,0.6-4.8,0.3
	c-1.7-0.3-3.1-1.4-3.9-2.9c-2.1-5.3-4.5-10.4-7.3-15.3c-1.6-2.9-3.8-5.3-6.6-7.1c-2.9-1.5-6.1-2.1-9.3-1.9c-5.5,0.2-11,0.6-16.4,1.4
	c-5.8,0.8-11.7,1.4-17.5,2.1l-12.1,1.3c-2.1,0.3-4.1,1-5.8,2.2c-1.4,1.1-2.2,2.7-2.4,4.5c-0.4,3.4-0.5,6.9-0.2,10.3
	c1.1,15.9,2.1,31.6,3.2,47.6c0.2,2.5,0.8,3.1,0.8,3.1c0.6,0.3,1.3,0.4,1.9,0.3c7.8-0.4,15.5-1.4,23.1-3c4.1-0.7,8-2.5,11.4-5
	c2.2-1.7,3.7-4.2,4.1-6.9c0.6-4,0.9-8,0.8-12c0.1-1.7,1-3.3,2.5-4.3c2.7-1.8,6.1-2.3,9.3-1.4c1.7,0.6,3,2,3.4,3.8
	c0.4,2.9,0.7,5.6,0.9,7.8s0.4,4.5,0.5,6.8s0.3,4.7,0.6,7.1c0.1,2.8,0.5,5.6,1,8.4c0.7,4.8,1.8,9.5,3.1,14.2c1.7,5.2,2.9,10.6,3.8,16
	c0.2,1.9-0.9,3.7-2.7,4.3c-1.5,0.9-3.2,1.5-5,1.5c-1.7,0.2-3.4,0.1-5-0.3c-1.8-0.3-3.3-1.6-3.9-3.3c-1.1-4.2-2.6-8.3-4.4-12.2
	c-1.2-2.5-3.2-4.5-5.8-5.5c-4.1-1.3-8.4-1.9-12.7-1.7c-5.9,0-13.9,0.5-24,1.2c-0.6,0.1-1.2,0.3-1.8,0.6c-0.3,0.1-0.6,0.8-0.5,2.2
	c1,15.3,2.1,30.5,3.1,45.7c0.1,4.8,1.1,9.5,2.8,14c1.3,3.2,3.6,5.8,6.7,7.4c3.9,1.8,8,2.8,12.3,2.9c5.3,0.3,12.3,0.2,20.4-0.2
	c2.3-0.5,4.6,0.2,6.3,1.8c1.1,1.1,1.8,2.6,2.1,4.1c0.2,1.6-0.3,3.2-1.3,4.4C943.7,1188.2,941.5,1189.3,939.2,1189.5L939.2,1189.5z
	 M875.2,1188.2c9.1-0.3,18.6-0.4,28.5-0.5c11.7-0.1,23.3-0.9,34.9-2.3c1,0,1.3-0.3,1.6-0.8c0.4-0.5,0.6-1.1,0.5-1.7
	c-0.1-0.9-0.5-1.7-1.1-2.3c-0.2-0.2-0.4-0.3-1.3-0.3c-7.2,0.5-14.3,0.6-21.5,0.3c-5.1-0.2-10.2-1.4-14.9-3.5c-3.9-2-6.9-5.3-8.6-9.3
	c-2-4.8-3-10-3-15.2c-1-15.2-1.8-30.4-2.7-45.6c-0.3-2.2,0.7-4.5,2.5-5.8c1.5-0.9,3.1-1.5,4.8-1.7c10.2-0.7,18.4-1.2,24.5-1.1
	c5.1-0.2,10.2,0.5,15,2.1c3.6,1.4,6.6,4.2,8.2,7.7c1.9,4,3.4,8.2,4.5,12.5c0,0.5,0.5,0.5,0.7,0.6c1,0.2,2,0.2,3,0.2
	c0.8-0.1,1.6-0.3,2.4-0.7c-0.6-5.4-1.6-10.8-3.1-16c-1.6-4.8-2.7-9.7-3.4-14.7c-0.5-2.8-0.8-5.7-1-8.6c-0.2-2.4-0.3-4.9-0.4-7.1
	s-0.2-4.6-0.5-6.8s-0.4-4.8-0.8-7.6c0-0.3-0.2-0.6-0.5-0.7c-1.5-0.4-3-0.1-4.3,0.7c-0.5,0.1-0.8,0.6-0.7,1.1c0.2,4.2,0,8.5-0.6,12.7
	c-0.6,3.7-2.5,7-5.3,9.4c-4.1,3-8.8,5-13.8,6c-7.9,1.7-15.9,2.8-24,3.3c-1.7,0-3.3-0.3-4.8-1.1c-2.1-1.3-3.3-3.7-3.1-6.2
	c-0.9-16-1.9-31.9-2.9-47.7c-0.2-3.7-0.1-7.3,0.3-11c0.5-2.8,1.9-5.3,4-7.1c2.4-1.7,5.2-2.8,8.2-3c2.9-0.4,7.1-0.9,12.1-1.4
	c5.9-0.5,11.7-1.3,17.4-2.1c6.9-0.8,12.5-1.3,16.8-1.4c4.1-0.3,8.2,0.5,11.9,2.4c3.3,2.2,6.1,5.1,8,8.6c2.9,5,5.5,10.3,7.6,15.7
	c0.2,0.2,0.5,0.3,0.8,0.3c1.6,0.3,3.3-0.1,4.6-1.1c-1.4-5.3-3-11.5-4.6-18.4c-1.5-6-2.6-12-3.3-18.1c0-0.8-0.2-1.5-0.5-2.2
	c-1.3,0-2.5,0.1-3.8,0.3c-33.8,6.9-68.2,10.7-102.7,11.3c-6.9,0-13.1,0-18.3-0.5s-10.9-0.8-17.3-1c-0.5,0-0.6,0-0.8,0.3
	c-0.4,0.6-0.6,1.2-0.7,1.9c0,0.7,0.2,1.4,0.5,2c0.2,0.2,0.2,0.3,0.7,0.3c2.4,0.3,4.7,0.7,7,1.1s4.7,0.9,6.9,1.6c3.6,1,6.8,3,9.4,5.6
	c2.3,2.7,4,5.8,5,9.2c1.2,3.6,1.9,7.3,2.2,11c0.4,3.9,0.6,7.9,0.6,11.8c0.3,34.1,0.8,68.2,1.1,102.5c0.2,4.5-0.2,9.1-1.2,13.5
	c-0.8,3.5-2.8,6.7-5.6,9c-3.5,2.6-7.5,4.2-11.8,4.9c-5.9,1-11.8,1.5-17.8,1.7c-1,0-1.4,0.3-1.5,0.6c-0.6,0.5-0.9,1.2-0.8,2
	c0,0.8,0.3,1.5,0.8,2.1c0.2,0.3,0.4,0.4,1,0.5c9,0.3,18,0.2,27-0.5c9.3-0.7,19.1-1.1,28.6-1.7H875.2z M1031.9,1172.4
	c-2.3,0.7-4.8,0.7-7-0.2c-1.5-0.7-2.8-1.9-3.5-3.4c-0.7-1.7-0.5-3.6,0.5-5.1c1.5-2.1,3.6-3.5,6.1-4.2c4.8-1.7,9.4-3.6,13.9-5.9
	c3-1.6,5.7-3.7,8-6.3c1.8-2.2,3-4.9,3.4-7.7c0.4-3.6,0-7.3-1.2-10.7c-9.9-33.5-20-67-29.9-100.5c-1.1-3.7-2.3-7.4-3.7-11
	c-1.3-3.2-2.9-6.3-4.7-9.3c-1.7-2.5-3.8-4.6-6.3-6.2c-2.4-1.5-5.3-2.3-8.2-2.1c-2.2,0-4.3,0.2-6.5,0.5c-2.3,0.2-4.6,0.4-6.7,0.8
	c-1.7,0.4-3.5-0.1-4.7-1.3c-1.1-0.9-1.9-2.2-2.2-3.6c-0.3-1.4-0.2-2.8,0.2-4.2c0.6-1.7,2-3,3.8-3.4c6.4-1.5,12.2-2.9,17.3-4
	s10.9-2.7,17.5-4.7c33.3-10.5,65.4-24.1,96.1-40.7c1.5-0.8,3.1-1.5,4.8-1.9c1.4-0.4,4.4-0.4,6.1,4.2c0.7,2.1,1.6,4.1,2.7,6
	c1.3,2.1,2.5,4.4,3.7,6.6c4,7.1,8,13.6,12,19.4c0.8,1.5,0.6,3.3-0.5,4.6c-0.9,1.2-2.1,2.3-3.4,3.1c-1.4,0.9-3,1.5-4.6,1.7
	c-1.8,0.5-3.8-0.2-5-1.6c-3.5-4.4-7.3-8.6-11.3-12.5c-2.4-2.3-5.3-4-8.5-4.8c-3.2-0.6-6.5-0.3-9.6,0.9c-4,1.4-9.3,3.5-15.6,6.3
	c-5.5,2.3-11,4.7-16.5,7.1c-4.7,1.9-8.5,3.5-11.2,4.7c-2,0.8-3.7,2.1-5.1,3.7c-1,1.5-1.4,3.3-1,5c0.6,3.4,1.5,6.7,2.7,9.9
	c5.5,14.9,11,29.8,16.5,44.6c0.9,2.4,1.7,2.7,1.7,2.7c0.6,0.2,1.3,0.2,1.9,0c7.5-2.7,14.7-5.9,21.7-9.7c3.8-1.9,7.2-4.6,9.9-8
	c1.6-2.3,2.3-5.2,2-8c-0.6-3.9-1.5-7.8-2.7-11.6c-0.4-1.7,0-3.6,1.2-4.9c2.1-2.6,5.3-4.1,8.7-4.1c1.9-0.1,3.6,1,4.4,2.7
	c1.2,2.3,2.3,4.8,3.1,7.3c0.8,2.2,1.6,4.4,2.4,6.4s1.6,4.3,2.7,6.6c1.1,2.3,2,4.8,3.3,7.7c2.1,4.4,4.6,8.7,7.3,12.8
	c3,4.6,5.7,9.4,8,14.3c0.7,1.8,0.2,3.8-1.3,5c-1.3,1.4-2.8,2.4-4.6,3c-1.5,0.6-3.2,1-4.8,1c-1.8,0.3-3.7-0.4-4.8-1.9
	c-2.3-3.7-4.9-7.1-7.7-10.4c-1.8-2.2-4.5-3.5-7.3-3.7c-4.4-0.2-8.7,0.6-12.8,2.1c-5.8,1.6-13.6,4.4-23.1,8c-0.6,0.2-1.2,0.6-1.6,1.1
	c-0.2,0.2-0.3,0.8,0.2,2.4c4.1,11.1,8.2,22.3,12.3,33.5c1.6,4.6,3.8,9,6.5,13c2,2.9,4.6,5.4,7.7,7.1c2.7,1.6,5.8,2.5,8.9,2.7
	c3.8,0.2,7.6-0.2,11.2-1.2c3.8-0.9,7.5-2,11.2-3.3c9.6-3.5,18.8-7.7,27.7-12.7c3.4-1.8,6.7-3.9,9.7-6.4c3.5-2.8,6.7-6,9.6-9.4
	c4.7-4.9,7-11.6,6.3-18.4c-0.5-4.5-1.5-9-3-13.3c-0.5-2.1,0.3-4.3,2.1-5.5c2.8-2.8,6.4-4.6,10.3-5.3c2.7-0.4,4.4,0.4,4.8,2.2
	c2.7,7,5.5,13.7,8,20.1c2.5,6.2,5.6,12.2,9.2,17.9c0.5,1.3,0.5,2.8,0,4.1c-0.7,2.2-3.1,4.4-7.5,6.9c-41.2,23-84.6,42-129.4,56.8
	c-9.2,3.1-18.3,6.1-27.1,9s-16.8,5.5-24,7.7L1031.9,1172.4z M984.2,992.7c-0.3,0-0.5,0.2-0.6,0.4c-0.2,0.7-0.2,1.4-0.1,2.1
	c0.2,0.7,0.5,1.3,1,1.8c0.3,0.2,0.3,0.2,0.9,0.1c2.3-0.3,4.6-0.6,7.1-0.9s4.7-0.3,7-0.4c3.8-0.1,7.5,0.9,10.7,2.8
	c3,1.9,5.5,4.4,7.4,7.4c2.1,3.1,3.9,6.5,5.3,10c1.4,3.7,2.7,7.4,3.8,11.2c10.2,33.4,20.5,66.9,30.7,100.2c1.3,3.9,1.8,8,1.3,12
	c-0.5,3.5-2,6.9-4.3,9.6c-2.7,3.3-6.1,6-9.9,7.9c-4.8,2.5-9.8,4.7-14.9,6.5c-1,0.2-2,0.7-2.7,1.5c-0.3,0.5-0.4,1.2-0.2,1.8
	c0.3,0.8,0.9,1.4,1.7,1.6c0.2,0.2,0.7,0.4,2.4,0c7-2.1,15.1-4.7,24-7.5s18-5.9,27.2-9c44.6-14.7,87.7-33.6,128.7-56.5
	c3.6-2,3.9-3,3.9-3c0.5-1.2,0.3-1.5,0.2-1.6c-3.5-5.8-6.5-12-9-18.3c-2.4-6.3-5-13-7.8-20.2c-2.5,0.4-4.8,1.6-6.6,3.5
	c-0.6,0.5-0.5,0.5-0.4,0.8c1.7,4.5,2.7,9.3,3.2,14.1c0.4,3.9-0.1,7.8-1.3,11.5c-1.4,3.8-3.5,7.3-6.2,10.4c-3.2,3.6-6.6,6.9-10.3,10
	c-3.4,2.8-7,5.2-10.9,7.3c-9.2,5.2-18.9,9.7-28.9,13.3c-3.9,1.4-7.9,2.6-12,3.6c-4.3,1.1-8.8,1.5-13.3,1.2c-3.9-0.2-7.6-1.3-11-3.2
	c-3.5-2-6.5-4.8-8.7-8.2c-2.8-4.3-5.1-8.9-6.7-13.8c-4.1-11.2-8-22.4-12.2-33.5c-0.9-2.1-0.7-4.5,0.7-6.3c1.1-1.3,2.6-2.4,4.2-3
	c9.9-3.6,17.8-6.5,23.6-8.2c4.9-1.7,10-2.5,15.2-2.4c3.9,0.3,7.5,2.1,10.1,5c3,3.3,5.7,6.9,8,10.7c0.2,0.3,0.6,0.4,0.9,0.4
	c1-0.1,2-0.3,3-0.7c0.8-0.3,1.5-0.7,2-1.4c-2-5-4.5-9.8-7.5-14.3c-2.9-4.2-5.3-8.7-7.4-13.3c-1.3-2.6-2.5-5.3-3.4-8
	c-0.8-2.2-1.6-4.5-2.5-6.6s-1.5-4.3-2.3-6.5c-0.8-2.4-1.8-4.8-3-7c0-0.4-0.3-0.5-0.7-0.5c-1.6-0.1-3.2,0.7-4.1,2
	c-0.3,0.3-0.4,0.8-0.3,1.2c1.3,3.9,2.2,8,2.7,12.1c0.4,3.8-0.5,7.6-2.7,10.7c-3.2,4-7.2,7.4-11.7,9.8c-7.2,3.9-14.8,7.3-22.5,10.1
	c-1.7,0.5-3.4,0.6-5.1,0.4c-2.7-0.5-4-3.2-4.8-5.2c-5.3-14.9-10.7-29.9-16-44.9c-1.3-3.5-2.2-7-2.7-10.7c-0.5-2.8,0.2-5.7,1.8-8
	c1.8-2.4,4.3-4.2,7.1-5.3c2.7-1.4,6.6-2.9,11.4-4.9c5.5-2.3,11-4.6,16.4-7.1c6.5-2.8,11.8-5,16-6.3c7.8-3.3,16.8-1.4,22.7,4.7
	c4.2,4,8.2,8.3,11.9,12.8c0.3,0.3,0.5,0.4,0.7,0.2c0.7,0,1.4-0.2,2-0.6c0.9-0.5,1.6-1.1,2.2-1.9c-3.6-5.9-7.6-12.5-11.6-19.7
	c-1.2-2.2-2.3-4.4-3.6-6.8c-1.2-2.1-2.1-4.3-2.9-6.5c-0.6-1.5-1.1-1.7-1.1-1.7c-1.3,0.4-2.5,0.8-3.7,1.4
	c-30.9,16.7-63.4,30.4-96.9,41c-5.8,1.9-11.8,3.5-17.8,4.7C996.2,989.9,990.4,991.2,984.2,992.7L984.2,992.7z"/>
	<path fill="#1D5632" d="M557.6,968.5c2.4-4.2,4.4-8.6,6.2-13.1c1.2-3.4,1.6-7.1,1.2-10.7c-0.6-3.5-2.1-6.8-4.5-9.4
	c-3.3-3.8-7.1-7.1-11.3-9.9c-1-0.5-1.5-1.6-1.4-2.7c0-1.1,0.3-2.2,0.9-3.2c0.6-0.9,1.4-1.6,2.3-2.1c1-0.4,2.1-0.3,3,0.3
	c5.3,3.4,11.3,7.3,17.9,11.7c6.3,4.2,12.8,8.1,19.5,11.6c3.6,1.8,7.2,3.5,10.4,4.9s6.6,2.8,9.6,4.1s6.4,2.7,9.6,3.8
	s6.7,2.7,10.5,4.3c0.9,0.4,1.6,1.2,1.7,2.2c0.1,1-0.1,2-0.6,2.9c-0.5,1-1.3,1.9-2.2,2.5c-0.7,0.7-1.8,0.8-2.7,0.5
	c-4.6-1.8-9.5-3.1-14.4-3.8c-3.4-0.6-6.9-0.1-10,1.4c-3.2,1.6-5.9,4-7.8,6.9c-2.8,4.2-5.3,8.7-7.4,13.3
	c-13.9,28.4-27.7,56.8-41.5,85.2c-2.2,4.3-4,8.9-5.3,13.6c-1.1,3.5-1.3,7.1-0.7,10.7c0.8,3.4,2.4,6.5,4.8,9.1
	c3.3,3.3,6.8,6.3,10.7,8.9c3.4,2.2,6.9,4.1,10.5,5.9c3.9,1.9,8.1,3.8,12.6,5.6c5.2,2.1,10.6,4,16,5.6c3.9,1.3,7.9,2.2,11.9,2.7
	c4.5,0.5,9.1,0.6,13.6,0.4c3.6-0.2,7.1-1.1,10.3-2.7c3.2-1.7,6.1-3.9,8.5-6.6c3-3.6,5.5-7.5,7.5-11.7c0.6-1.1,1.9-1.7,3.1-1.3
	c1.5,0,3,0.3,4.5,0.7c1.5,0.3,2.9,1,4.1,2c1.1,0.9,1.4,1.7,1,2.7c-3.3,7-6.3,13.5-9.1,19.6c-2.8,6.2-5,12.6-6.6,19.2
	c-0.2,0.6-1,1.1-2.2,1.9c-2.4,0.6-4.9,0.4-7.2-0.6c-44.5-13.5-87.6-31.2-128.7-52.9l-25.8-13.5c-8.4-4.4-16.4-8.7-24.4-13.3
	c-1.3-0.7-2.3-1.9-2.7-3.3c-0.3-1.1-0.1-2.3,0.5-3.3c0.7-0.9,1.7-1.6,2.9-1.9c1.5-0.3,3.1-0.1,4.4,0.7c5.8,3,11.7,5.6,17.7,8
	c3.6,1.6,7.5,2.4,11.5,2.3c3.2-0.3,6.1-1.7,8.3-4c3.1-3.5,5.8-7.4,8-11.6c17.3-31.1,34.7-62.2,52.1-93.2
	C558.1,968.8,557.9,968.7,557.6,968.5L557.6,968.5z M732.9,1033c1-4.7,1.6-9.5,1.8-14.3c0.2-3.6-0.5-7.2-1.9-10.5
	c-1.6-3.1-4-5.7-6.9-7.5c-4.2-2.5-8.6-4.5-13.3-5.8c-1.1-0.2-1.9-1-2.2-2.1s-0.3-2.2,0-3.3c0.2-1,0.8-2,1.6-2.7s1.8-0.9,2.8-0.7
	c5.9,1.5,12.6,3.4,20.2,5.5c7,2,14.1,3.6,21.3,4.9c3.9,0.7,7.7,1.1,11.2,1.5s6.9,0.7,10.2,0.9s6.7,0.5,10.1,0.7s7,0.4,10.9,0.8
	c1,0,2,0.6,2.3,1.6c0.4,0.9,0.5,2,0.3,3c-0.2,1.1-0.7,2.1-1.3,3c-0.6,0.8-1.5,1.3-2.5,1.3c-4.8-0.2-9.7,0-14.5,0.8
	c-3.4,0.6-6.5,2.1-9.1,4.4c-2.4,2.5-4.1,5.6-5,9c-1.4,4.9-2.4,10-3,15.1c-5.1,35.2-10.1,70.4-14.9,105.7c-0.8,4.7-1,9.4-0.5,14.1
	c0.4,3.2,1.9,6.1,4.3,8.2c3,2.5,6.5,4.3,10.3,5.3c5.9,1.7,11.9,3,18,3.8c1.3,0.3,2.5,1.1,3.4,2.2c0.7,0.9,1.1,2,1.1,3.2
	c-0.2,1.1-0.8,2.2-1.7,2.9c-1.2,0.9-2.7,1.3-4.1,1c-9.6-0.8-19.2-2.2-28.6-4.2c-9.1-1.9-18-3.7-27-5.1c-9.6-1.7-19.2-3.1-29.5-4.5
	c-9.2-1.2-18.4-2.9-27.4-5.2c-1.3-0.2-2.5-1-3.1-2.2c-0.5-0.9-0.7-2.1-0.4-3.1c0.3-1.1,0.9-2.1,1.8-2.8c1.1-0.8,2.5-1.1,3.8-0.8
	c6.1,1.1,12.3,1.8,18.4,2.3c3.9,0.3,7.8-0.2,11.5-1.6c2.9-1.3,5.3-3.7,6.6-6.6c1.9-4.3,3.3-8.9,4.1-13.5
	C719.2,1102.9,726.2,1068,732.9,1033L732.9,1033z M957.1,993c1.4-0.3,2.9-0.5,4.4-0.4c1.5,0,2.2,1.4,2.5,3.9
	c0.6,6.1,1.7,12.1,3.2,18c1.6,6.8,3.2,12.9,4.8,18.5c0.1,0.9-0.3,1.7-1.1,2.1c-0.9,0.7-1.9,1.2-3,1.4c-1.1,0.3-2.3,0.4-3.5,0.2
	c-1-0.1-1.9-0.7-2.4-1.6c-2.1-5.4-4.5-10.6-7.2-15.7c-1.7-3.3-4.2-6-7.3-8c-3.2-1.7-6.9-2.5-10.5-2.3c-4.1,0-9.6,0.6-16.3,1.3
	c-5.8,0.7-11.6,1.3-17.3,1.8c-5.1,0.6-9,1-12,1.4c-2.5,0.2-4.9,1-6.9,2.5c-1.8,1.5-2.9,3.5-3.2,5.8c-0.5,3.5-0.6,7.1-0.3,10.7
	c0.9,15.8,1.7,31.6,2.7,47.6c0,2.5,0.8,4.1,1.9,4.7c1,0.5,2.2,0.8,3.3,0.8c7.9-0.3,15.8-1.3,23.5-3c4.5-0.8,8.8-2.6,12.5-5.3
	c2.5-2.1,4.2-5,4.8-8.2c0.6-4,0.9-8.1,0.8-12.2c0.1-1.1,0.6-2.1,1.5-2.7c2-1.3,4.4-1.7,6.7-1.1c1.1,0.3,1.8,1.1,2,2.2
	c0.5,2.6,0.8,5.2,0.9,7.8c0.1,2.2,0.3,4.5,0.4,6.7s0.3,4.7,0.3,7.2c0.1,2.9,0.5,5.7,1,8.5c0.7,4.9,1.7,9.8,3.1,14.6
	c1.5,5.2,2.7,10.5,3.5,15.9c0,1-0.6,1.9-1.5,2.3c-1.1,0.6-2.3,1-3.6,1.1s-2.6,0-3.9-0.3c-1.1-0.1-2.1-0.9-2.5-1.9
	c-1.1-4.2-2.4-8.4-4.1-12.4c-1.4-3-3.9-5.4-7-6.7c-4.4-1.6-9-2.3-13.7-2.1c-6,0-14,0.3-24,1c-1.2,0-2.3,0.4-3.3,1.1
	c-1.2,1-1.8,2.6-1.4,4.1c0.8,15.1,1.6,30.4,2.4,45.7c0.1,5,1.1,10,2.8,14.7c1.5,3.6,4.1,6.5,7.5,8.3c4.2,2.1,8.8,3.2,13.5,3.3
	c6.9,0.4,13.8,0.4,20.7,0c1.4-0.4,2.8,0.1,3.8,1.1c0.9,0.8,1.4,2,1.5,3.2c0.1,1.1-0.2,2.3-0.9,3.2c-1,1.1-2.3,1.8-3.8,1.9
	c-11.6,1.3-23.3,1.9-35,1.9c-9.7,0-19.1,0-28.2,0.2c-9.5,0.3-19,0.6-28.3,1.3c-9.1,0.7-18.1,0.8-27.2,0.3c-1.3,0.1-2.6-0.5-3.4-1.5
	c-0.6-0.9-1-2-1.1-3.1s0.3-2.3,1.1-3.1c1-1,2.4-1.6,3.8-1.6c5.8-0.1,11.5-0.7,17.2-1.6c3.8-0.5,7.4-1.9,10.5-4.1c2.5-2,4.3-4.8,5-8
	c0.9-4.3,1.3-8.7,1.2-13.1c0-34.1,0.1-68.2,0.2-102.4c0-3.9-0.2-8-0.5-11.6c-0.2-3.6-0.9-7.2-1.9-10.7c-0.9-3.1-2.4-6-4.5-8.4
	c-2.1-2.5-5-4.3-8.2-5.1c-2.2-0.6-4.4-1.1-6.6-1.5c-2.3-0.4-4.5-0.9-6.5-1.2c-1.1,0.1-2.1-0.5-2.7-1.4c-0.5-1-0.7-2-0.7-3.1
	c0.1-1,0.4-2,1-2.9c0.7-0.8,1.7-1.2,2.7-1.2c6.3,0.3,12.1,0.7,17.2,1.2s11.1,0.6,17.9,0.6C889.5,1003,923.6,999.4,957.1,993
	L957.1,993z M1108.6,939.4c1.4-0.7,2.8-1.3,4.3-1.7c1.4-0.3,2.7,0.6,3.5,3.1c0.7,2.2,1.6,4.3,2.7,6.3c1.2,2.2,2.5,4.4,3.7,6.7
	c3.6,6.7,7.4,13.3,11.7,19.7c0.3,0.8,0.1,1.6-0.5,2.2c-0.7,0.9-1.5,1.7-2.4,2.3c-1.1,0.7-2.3,1.1-3.5,1.3c-1.1,0.3-2.2-0.1-2.9-1
	c-3.6-4.5-7.4-8.7-11.4-12.8c-2.6-2.6-5.8-4.5-9.4-5.5c-3.6-0.7-7.4-0.4-10.9,0.9c-4,1.4-9.3,3.4-15.7,5.9c-5.3,2.4-10.8,4.8-16.3,7
	c-4.7,1.9-8.6,3.5-11.3,4.7c-2.4,0.9-4.5,2.4-6.1,4.4c-1.3,1.9-1.8,4.2-1.5,6.4c0.5,3.5,1.4,7,2.7,10.3c5.3,14.9,10.7,29.9,16,44.9
	c0.9,2.5,1.9,3.7,3,3.9c1.1,0.3,2.4,0.3,3.5,0c7.6-2.7,15-6,22.2-9.8c4.2-2.1,7.8-5,10.7-8.7c1.9-2.7,2.8-6,2.5-9.3
	c-0.6-4-1.5-8-2.7-11.9c-0.3-1.1,0-2.2,0.7-3c0.8-0.9,1.7-1.7,2.8-2.2c1.1-0.5,2.4-0.8,3.6-0.7c1.1,0,2,0.5,2.5,1.5
	c1.1,2.3,2.1,4.7,2.9,7.1c0.8,2.1,1.6,4.3,2.4,6.5s1.6,4.4,2.4,6.7c0.8,2.3,1.9,4.9,3.3,8c2.1,4.5,4.5,8.9,7.2,13.1
	c3,4.5,5.6,9.2,7.8,14.1c0.4,0.8,0,1.7-0.8,2.7c-0.9,1-2.1,1.8-3.4,2.2c-1.2,0.5-2.6,0.7-3.9,0.8c-1.1,0.2-2.3-0.3-2.9-1.3
	c-2.2-3.8-4.8-7.4-7.7-10.7c-2.2-2.5-5.3-4-8.6-4.3c-4.7-0.3-9.5,0.4-13.9,2c-5.9,1.6-13.6,4.4-23.4,8c-1.1,0.5-2,1.1-2.8,2
	c-0.8,1.3-0.9,2.9-0.2,4.3c3.9,11.2,8,22.4,11.9,33.7c1.5,4.7,3.8,9.2,6.6,13.3c2,3.2,4.8,5.8,8,7.8c3,1.8,6.4,2.8,9.9,3.1
	c4.1,0.2,8.3-0.1,12.3-1.1c3.4-0.8,7.2-1.9,11.4-3.3c4.2-1.4,8.4-3.2,12.9-5.1c5.6-2.7,10.7-5,15.3-7.7c3.7-1.8,7.1-4,10.3-6.6
	c3.5-2.9,6.8-6.1,9.8-9.5c2.5-2.7,4.4-5.9,5.7-9.3c1.1-3.5,1.5-7.1,1.2-10.7c-0.4-4.7-1.4-9.3-3-13.7c-0.2-1.2,0.3-2.4,1.2-3.1
	c1.2-1.1,2.5-2.1,3.9-2.9c1.4-0.7,2.9-1.2,4.4-1.5c1.5-0.2,2.3,0.2,2.7,1.1c2.7,7.2,5.3,13.9,7.5,20.3c2.5,6.3,5.5,12.4,9,18.2
	c0.4,0.5,0.2,1.4-0.1,2.7s-2.3,3.1-5.8,4.9c-41,22.4-84,40.9-128.5,55.1c-9.3,3-18.3,6-27.1,8.7s-16.8,5.3-24,7.4
	c-1.5,0.5-3.2,0.4-4.7-0.1c-1.1-0.5-2.1-1.4-2.7-2.5c-0.5-1.1-0.3-2.5,0.5-3.4c1-1.5,2.5-2.6,4.3-3c5-1.6,9.8-3.6,14.4-6
	c3.4-1.7,6.5-4,9-6.9c2.1-2.5,3.4-5.5,3.9-8.7c0.4-3.8,0-7.6-1.1-11.3c-9.8-33.6-19.6-67.2-29.5-100.7c-1.1-3.8-2.5-7.5-3.8-11.1
	c-1.3-3.4-2.9-6.6-4.8-9.7c-1.8-2.7-4.1-5-6.8-6.8c-2.8-1.8-6-2.7-9.3-2.7c-2.2,0-4.6,0.2-6.8,0.3s-4.6,0.5-6.7,0.8
	c-1,0.3-2.1,0-2.9-0.7c-0.8-0.7-1.4-1.7-1.6-2.7c-0.2-1-0.2-2.1,0.2-3.1s1.2-1.7,2.2-1.9c6.2-1.5,11.9-2.7,17.1-3.7
	c5.9-1.2,11.7-2.7,17.4-4.5C1045.6,969,1077.9,955.7,1108.6,939.4L1108.6,939.4z"/>
	<path fill="#007934" d="M103.5,507.7c0,0,689.8-400.3,1498,43.8c0,0-69.4,47-66.1,197.1c0,0,8,136.1-58.3,204.3
	c0,0-140.4-253.3-636.1-268.6c0,0-444.5-2.1-642.2,227c0,0-53.4-55.4-51.3-173.2C147.5,738.2,174.5,593.5,103.5,507.7L103.5,507.7z"
	/>
	<path fill="#1D5632" d="M1498.7,544c-6.6-14.1-22.2-25.1-49.4-34.6c-6.8-2.3-13.8-4.2-20.9-5.7l-27.6-5.3l14.1,24.3
	c2.3,3.9,2.9,15.4,1.5,19.4c-8.5,24.9-59.3,65-95.7,91.7c6.9-37.3,12.7-76.2,16-109.1c3.3-29.7-9.7-50.6-35.6-57.5
	c-8.8-2.2-17.9-3.4-27-3.5c-13.7-0.1-27.4,1.5-40.7,4.7l-7.8,1.8c-3.5-13.8-14.7-24.2-28.7-26.6c-3.6-0.7-7.3-1.1-11-1.1
	c-29.3-0.5-67.9,17.3-113,52.2c19.5-47,35-87.5,41.9-105.5c0.1-0.3,0.2-0.7,0.4-1h2.2l1.7-11l0.1-0.6v-0.4c1.3-8.5-0.7-17.1-5.8-24
	c-6-8.1-15.9-13.3-28.6-15.2l-3.9-0.5c-3.6-0.2-7.3-0.5-10.9-0.6c-17.4-0.1-34.6,2.6-51.1,8l-13.7,4.3l6,13.1
	c2.9,6.6,3.4,9.9,3.3,13.3c-0.5,1.1-0.8,2.3-0.9,3.5c-20.3,73.4-45.7,145.3-76.1,215.1c-0.3-5.4-1.7-10.8-4.2-15.6l-7.6-14.8
	L913.5,574c-22.5,20.2-51.7,31.3-81.9,31.1c-20.2-0.4-23.3-22.9-23.3-36.4c-0.4-43.1,10.3-78.5,29-97.2c8.5-8.9,20.4-13.9,32.7-13.7
	h0.9c12.4,0.5,18.3,3,22.9,25.1l2.7,12.6l12.5-2.7c48-9.9,59.5-29.8,60.9-44.6c0.7-8.7-2.1-17.4-7.8-24
	c-11.1-12.7-33.4-19.6-68.4-21.4h-5.3c-49.8-0.6-97.6,19.7-131.8,55.9c-28.5,29.6-45.3,67-48,104.7c-3.3,2.8-7.2,6.5-12.3,11.1
	c-4.4,4.2-11.1,10.4-16.8,15.2c-2-26,8.4-64.9,18.4-102.2l2.7-10.5c4.1-15.7,5.8-27.1,5.3-36.6c-0.7-12.2-7-32.7-42.3-33.4H659
	c-16.5,1.3-32.8,4.9-48.3,10.7l-15.6,6l9.9,13.5c1.6,2.4,2.5,5.1,2.7,8c1.9,20.6-8,55.6-27.5,95.9c-21.3,43.4-39.2,65.2-47.1,71.9
	c-1.5-17.5,3.5-55.8,9.3-99.6c1.2-9.1,2.5-18.6,3.6-28.3l0.5-3.6c1.4-8.7,1.8-17.5,1-26.3c-2.7-19.4-15.7-30.6-35.8-31
	c-4.2-0.1-8.3,0.3-12.4,1c-18.6,3.3-36.6,9.6-53.3,18.6l-14.7,7.8l11.3,12.2c3.3,4,5.3,8.8,5.8,13.9c2.1,13.3-0.4,44-2.9,73.5
	c-1.9,23.1-3.7,45.3-4,63.7c-1.1-0.4-2.3-0.6-3.5-0.7h-1.5l-1.4,0.3c-2.5,0.5-4.8,1.7-6.6,3.4c-16.6,12.2-44.6,24-76.8,32.3
	c-14.1,4-28.5,7-43,8.9c-12.8-45.4-15.5-159.8,0.3-242.7c1.5-7.3,4.5-13.3,12.1-24.2l10.2-14.1l-16.7-5.3c-9.7-3.3-19.8-5-30-5.1
	c-9.7-0.1-19.3,0.9-28.7,3c-12,2.5-23,8.2-32,16.5c-7,7.3-15.1,17.4-16.2,31.1c-12.4,100,3.9,265.9,16.8,301.6
	c3.1,9.1,10.4,30.2,34.6,30.7c6.7-0.1,13.4-1.2,19.8-3.5c22.9-7.7,43.6-13.9,71.2-21.5l5.7-1.5c50.6-13.3,85.7-22.9,95-56.9
	c8.6,16.5,22.4,24.9,41.2,25.4c4.9,0,9.7-0.4,14.5-1.3c30.6-5.3,56.8-25.5,83.8-65.9c6.1,27.4,24,43.2,50.4,43.6
	c2.7,0.1,5.3,0,8-0.3c23.3-2.2,50.9-22.2,69.3-46c13.9,27.9,42.6,42.4,85.9,43.2h3.5c32.2-0.4,85.9-11.4,113.3-36
	c-2.7,5.3-5.1,10.8-7.7,16l-7.3,14.6l16,3.4c12,3.1,24.1,5.5,36.4,7c2.7,0.3,5.3,0.5,8,0.5c26.6,0.5,37.5-12.1,45.3-25.7l1.1-1.9
	c11.2-18.6,19.1-31.8,26.5-42.9c14.2,50.6,31.8,82.8,64.9,88.7c3.2,0.6,6.4,0.9,9.6,0.9c30.5,0.6,70.5-20.3,91.1-47.6
	c2.1-2.2,3.6-5,4.2-8c1.9-7.6-2.8-15.3-10.4-17.2c-0.1,0-0.2,0-0.3-0.1l-1.3-0.3h-1c-1.6,0.1-3.2,0.3-4.7,0.7l-0.7,0.2h-0.5
	c-9.3,3.2-19.1,4.9-28.9,5c-2.7,0-5.4-0.2-8-0.8c-24.4-4.9-32.8-36.5-39.2-68.4c-0.4-2.5-0.6-5-0.6-7.5c32-22,60.4-32.8,84.5-32.3
	c4.7,0,9.5,0.6,14.1,1.6l13.6,3l1.7-13.9c0.7-4.7,1-9.5,1-14.3c7.7,10.9,16,56.3,2.9,166.1c-0.6,6.5-1.7,13-3.3,19.4
	c-2.5,9.5-4.6,11.5-4.6,11.5c-24.9,19.6-49.1,30.2-68.1,29.9c-2.9,0-5.7-0.3-8.5-0.9c-5-1.3-9.6-3.6-13.7-6.7l-10-12.6l-10,12.7
	c-3.9,5.1-13.3,18.1-16,32c-0.5,2.5-0.7,5-0.6,7.5c0.3,11.7,5.9,31.6,39.1,38.7c5.5,1.2,11.1,1.9,16.7,1.9
	c35.1,0.6,78.7-19.4,155.7-71.6c10-6.7,20.1-13.3,29.8-19.7c99.4-65.6,151.8-101.1,161.3-126.6
	C1502.9,563.2,1502.8,552.9,1498.7,544L1498.7,544z"/>
	<path fill="#FFFFFF" d="M226.5,426.9c0.7-9.3,5.5-16.6,12.7-24c7.2-6.4,16-10.8,25.4-12.8c17.2-4.3,35.2-3.7,52.1,1.6
	c-8,11.4-12.2,19.1-14.4,29c-16,84.7-13.7,203.3,0.7,250.9c0.7,2.7,1.9,5.3,3.6,7.5c15.7,0.3,38.4-5.5,54.1-9.6
	c32.8-8.5,62.8-21,81.1-34.5c0.9-0.6,1.3-1.1,1.7-1.2s1.2,0.6,1.4,2.3c9,58.6-20.7,65-92.3,84.2c-25.6,7-47.2,13.3-71.9,21.7
	c-24.4,7.9-32.1-1.5-38.2-19.3C230.2,688.1,214.5,523,226.5,426.9L226.5,426.9z M699.2,447.5c0.5,9.1-1.5,20-4.9,32.7
	c-11.4,43.1-24,86.3-21.5,116.9c0.4,6.6,2.6,12.9,6.5,18.2c12.9-3.7,44.6-40,50.1-40c1.9,0,3,1.2,3.1,3.8
	c0.7,30.9-46.4,80.5-79,83.7c-25.8,2.3-42.6-10.9-46.2-41.7c-1-11.2-0.8-22.4,0.6-33.5c-31.2,58-60.8,91.5-97.7,97.9
	c-33.6,5.9-43.9-14.5-48.2-36.3c-7.2-33,10-135,5-166.9c-1-7.6-4.1-14.8-9.1-20.7c15.4-8.4,32.1-14.3,49.4-17.5
	c24-3.6,31.8,6.3,33.5,19.2c1.3,8.6-0.6,18.8-1.5,26.8c-8,62.1-15.7,113.5-12.5,134.4c0.9,5.6,3.7,10.7,10.7,9.7
	c13.1-2.1,37.8-35.6,60.1-81c20.5-42.6,30.9-79.6,28.7-102.8c-0.4-5.1-2.1-10-5-14.3c14.4-5.3,29.4-8.5,44.7-9.7
	C682.9,426.1,698.3,430,699.2,447.5L699.2,447.5z"/>
	<path fill="#FFFFFF" d="M931.1,605c-3.1,36.8-78.7,54.7-117.7,55.1c-54.6,0-83.8-22.4-86.2-71.3c-5.3-85.5,73-171.2,172-166.5
	c45.3,2.4,65.5,13.5,63.9,31.5c-1.4,16.3-22.9,27.5-50.6,33.2c-5.1-25.4-14.1-34.5-34.8-35.4c-44-1.6-76.5,45.8-75.9,123.8
	c0.2,26.4,10.7,48.7,35.9,49c33.4,0.3,65.8-12,90.6-34.4C930.7,594.6,931.6,599.8,931.1,605z M1089.4,356.3
	c16.4,2.3,25.6,11.5,23.4,25.2c0.4-2.1-29.3,79.8-66.6,164.4c68.7-63.2,122.9-89.8,154.2-83.4c17.6,3.6,24,19.6,20.3,47.6
	c-28.7-6.4-65.4,2-112.5,35.3c-0.3,1.4-1,2.9-1.3,4.6c-0.6,4.3-0.4,8.7,0.4,12.9c6.7,33,16.3,72.2,49.4,78.7
	c11.7,2.4,25.5,0.9,43.1-4.4c1.1-0.2,1.6-0.6,2.1-0.6s0.8,1.1,0.6,2c-0.3,1-0.9,2-1.6,2.8c-19.5,26-60.6,47.2-88.7,42.2
	c-27-4.8-44.2-33.3-61.3-105.4c-14.9,18.1-24.9,35-44.3,67.5c-8.4,14.7-17.4,21.3-40.9,19.2c-11.9-1.5-23.7-3.6-35.3-6.4
	c41.5-83.1,75.3-175.6,101.9-271.2c0.3-1.5,0.6-2.9,1-4.3c0.8-6.8-0.7-12.7-4.3-20.4c18.4-6.2,37.9-8.5,57.2-6.8L1089.4,356.3z"/>
	<path fill="#FFFFFF" d="M1116.1,750.7c1.5-8,7.1-18,13.3-25.9c3.3,4.1,13.8,9.7,20.8,11.2c27.5,5.7,59.2-9.3,87.2-31.4
	c4.3-3.4,7-10.3,9.1-18.2c1.8-7,3-14.1,3.6-21.3c11.7-98.1,8.2-161.7-7.5-177.8c22.7-5.3,43.6-5.9,61.5-1.2
	c19,4.9,28.7,19.4,26.1,43.7c-5,46.9-12.4,93.5-22.1,139.7c62.9-44.5,116.4-87.3,126.7-116.7c2.5-7.4,1.6-22.7-2.5-30.1
	c6.4,1.4,12.8,3.2,19,5.3c36.8,12.8,49.3,28.2,42.2,46.7c-9.5,25.5-88.6,75.3-186.3,140.1c-90,61-130.3,74.9-162.7,67.8
	c-18.5-3.9-28.8-12.9-28.9-26.9C1115.5,754,1115.6,752.3,1116.1,750.7L1116.1,750.7z"/>
	<path fill="#007934" d="M785.3,743.1c0.8,0,1.5,0.1,2.2,0.4c0.7,0,1,0.9,0.7,2.2c-0.4,3.2-0.5,6.3-0.4,9.5c0,3.6,0,6.9,0.2,9.9
	c0,0.4-0.3,0.7-0.6,0.9c-0.5,0.3-1,0.5-1.6,0.5s-1.1-0.1-1.6-0.4c-0.5-0.2-0.9-0.6-1-1.1c-0.3-2.9-0.9-5.9-1.7-8.7
	c-0.4-1.8-1.4-3.5-2.7-4.8c-1.3-1.2-3-1.9-4.7-2.1c-2.6-0.4-5.3-0.7-8-0.8h-14.5c-1.2,0.1-2.4,0.4-3.5,1c-0.9,0.7-1.6,1.7-1.7,2.9
	c-0.4,1.8-0.6,3.7-0.6,5.5l-0.4,24.8c-0.1,0.9,0.1,1.9,0.6,2.7c0.4,0.3,0.9,0.5,1.4,0.5c3.4,0.1,6.9,0,10.3-0.4c2-0.1,4-0.8,5.7-1.9
	c1.3-1,2.3-2.3,2.7-3.9c0.6-2,1-4.1,1.2-6.2c0.1-0.5,0.4-1,0.9-1.2c0.5-0.3,1-0.5,1.6-0.4c0.6,0,1.1,0.2,1.6,0.5
	c0.4,0.3,0.6,0.8,0.6,1.3c0.1,1.3,0,2.7-0.3,4c-0.2,1.2-0.3,2.4-0.3,3.6c0,1.2-0.2,2.5-0.4,3.7c-0.2,1.5-0.2,2.9-0.2,4.4
	c-0.1,2.6,0,5.1,0.3,7.7c0.2,2.4,0.3,5.3,0.3,8.5c0,0.5-0.3,0.9-0.8,1c-0.4,0.3-1,0.4-1.5,0.3c-0.6,0-1.1-0.2-1.6-0.5
	c-0.5-0.2-0.9-0.7-0.9-1.3c-0.1-2.3-0.4-4.5-0.9-6.7c-0.3-1.6-1.2-2.9-2.5-3.9c-1.7-1.1-3.6-1.8-5.6-2c-3.4-0.5-6.9-0.7-10.3-0.7
	c-0.5,0-1.1,0.2-1.5,0.5c-0.5,0.6-0.7,1.3-0.7,2l-0.5,24c-0.1,2.6,0.2,5.2,0.7,7.7c0.4,1.7,1.3,3.3,2.7,4.5c1.5,1.2,3.2,2.1,5.1,2.5
	c2.6,0.5,5.2,0.9,7.8,1.2c0.6-0.1,1.2,0.3,1.3,0.9c0.4,0.5,0.6,1.1,0.6,1.7c0,0.6-0.2,1.1-0.6,1.5c-0.3,0.5-0.9,0.8-1.5,0.8
	c-5.2,0-9.5-0.5-13.2-0.8c-3.5-0.5-7.1-0.8-10.7-0.9c-3.6-0.1-7.1,0.1-10.7,0.5c-3.4,0.3-6.9,0.4-10.2,0.4c-0.5,0-1-0.3-1.3-0.7
	c-0.2-0.5-0.4-1-0.4-1.5c-0.1-0.6,0-1.2,0.3-1.7s0.8-0.9,1.4-1c2.2-0.1,4.4-0.5,6.6-1c1.5-0.3,2.9-1.1,4-2.2c1-1.2,1.7-2.7,2-4.2
	c0.4-2.2,0.7-4.5,0.7-6.8l0.9-53.3v-6.3c0-1.9-0.3-3.7-0.8-5.5c-0.4-1.6-1.1-3.1-2.2-4.4c-1-1.3-2.4-2.3-4-2.7
	c-1-0.4-2.1-0.7-3.2-0.9c-1.2-0.3-2.5-0.5-3.7-0.6c-0.5,0-1-0.3-1.2-0.8c-0.3-0.4-0.4-0.9-0.4-1.4c0-0.6,0.2-1.1,0.5-1.6
	c0.3-0.4,0.8-0.7,1.3-0.7c2.9,0,5.7,0.2,8.6,0.5c3,0.3,6,0.4,9,0.4L785.3,743.1z M842.2,841c-14.9-0.3-26.6-4.7-34.6-13.3
	s-12.3-21.3-12-38c0.1-6.8,1.4-13.5,3.8-19.8c4.4-11.8,13.7-21,25.5-25.4c12.5-4.5,26.2-4.3,38.5,0.6c5.5,2.4,10.5,5.9,14.7,10.2
	c4.2,4.4,7.5,9.7,9.5,15.5c2.3,6.5,3.4,13.3,3.2,20.2c0,7.5-1.4,14.9-4.2,21.8c-2.5,5.9-6.1,11.3-10.7,15.8
	c-4.4,4.1-9.6,7.3-15.3,9.5C854.7,840,848.4,841,842.2,841z M842.9,835c4.4,0.1,8.7-1.1,12.4-3.5c3.7-2.5,6.9-5.8,9.2-9.6
	c2.6-4.3,4.6-8.9,5.8-13.8c1.5-5.3,2.2-10.9,2.3-16.4c0.1-5.4-0.3-10.8-1.1-16.1c-0.8-4.9-2.4-9.7-4.7-14.2c-2.1-4.1-5.2-7.6-9-10.2
	c-4.1-2.7-9-4.1-13.9-4.1c-4.7-0.2-9.4,1-13.3,3.6c-3.9,2.5-7.2,5.8-9.5,9.8c-2.5,4.4-4.3,9.1-5.3,14c-1.3,5.2-1.9,10.6-2,16
	c-0.1,5.5,0.2,11,1.1,16.5c0.7,4.9,2.2,9.6,4.5,14c2.1,4,5.2,7.5,9,10C832.8,833.7,837.8,835,842.9,835z M916.2,769.4v-6.2
	c-0.1-1.9-0.4-3.8-0.8-5.6c-0.4-1.6-1.2-3.1-2.2-4.4c-1-1.3-2.4-2.2-4-2.7c-1-0.4-2.1-0.7-3.2-0.9l-3.3-0.4c-0.6,0-1.1-0.3-1.4-0.8
	c-0.3-0.4-0.4-1-0.3-1.5c0-0.5,0.1-1.1,0.4-1.5c0.3-0.4,0.8-0.7,1.4-0.7c3.3,0,6.1,0.3,8.7,0.5s5.5,0.4,9.1,0.5h14.1
	c0,0,7.4-0.2,10.7,0c3.8,0.1,7.5,0.6,11.2,1.6c3.5,0.8,6.9,2.3,9.8,4.5c2.9,2.1,5.2,4.8,6.8,8c1.8,3.6,2.7,7.6,2.5,11.7
	c0,3.2-0.7,6.4-1.9,9.4c-1,2.6-2.6,4.8-4.6,6.7s-4.2,3.4-6.7,4.6c-2.8,1.1-5.7,1.9-8.6,2.5c-0.5,0.1-0.9,0.5-1,1s0.3,0.8,0.9,1.2
	c3.9,1.7,7.3,4.2,10.1,7.4c2.2,2.5,4.1,5.3,5.5,8.4c1.2,2.8,2.1,5.7,2.7,8.7c0.5,3.1,1.1,5.9,1.7,8.8c0.3,1.7,1,3.4,2.2,4.7
	c0.9,0.9,2,1.4,3.3,1.5c1.3,0,2.5-0.5,3.4-1.3c1.2-1.2,2-2.7,2.5-4.3c0.1-0.6,0.5-1.2,1.1-1.4c0.5-0.3,1.1-0.4,1.7-0.2
	c0.5,0.3,1,0.6,1.4,1c0.4,0.3,0.5,0.8,0.5,1.3c-0.3,2.2-1,4.3-2.2,6.1c-0.9,1.6-2.2,3-3.8,4.1c-1.5,1-3.2,1.8-5,2.3
	s-3.7,0.7-5.6,0.7c-2.8,0-5.6-0.8-8.1-2.2c-2.4-1.2-4.1-3.3-4.9-5.8c-0.5-1.5-1-3.3-1.5-5.3s-1-3.7-1.4-5.8s-0.9-3.8-1.3-5.7
	s-0.9-3.5-1.2-4.9c-1-4.9-3.2-9.5-6.4-13.3c-3-2.9-7.1-4.4-11.3-4.2c-1.4-0.1-2.9,0.2-4.1,1c-1.2,0.6-1.7,1.9-1.7,3.9l-0.4,19.3
	c-0.1,2.6,0.2,5.2,0.9,7.7c0.4,1.8,1.5,3.4,2.9,4.6c1.4,1.2,3,2,4.8,2.5c2.2,0.5,4.4,0.9,6.7,1c0.6,0,1.1,0.3,1.3,0.9
	c0.4,0.5,0.6,1.2,0.6,1.8s-0.2,1.1-0.6,1.5c-0.3,0.5-0.8,0.8-1.4,0.8c-4.8,0-8.9-0.5-12.6-0.8s-7-0.7-10.4-0.9
	c-3.6-0.1-7.1,0.1-10.7,0.5c-3.4,0.3-6.8,0.4-10.2,0.3c-0.5,0-1-0.3-1.3-0.7c-0.2-0.5-0.3-1.1-0.4-1.6c-0.1-0.6,0-1.2,0.4-1.6
	c0.2-0.6,0.8-0.9,1.4-0.9c2.2-0.1,4.4-0.5,6.6-1c1.5-0.3,2.9-1.1,4-2.2c1.1-1.1,1.7-2.6,1.9-4.1c0.4-2.2,0.6-4.5,0.7-6.8
	L916.2,769.4z M931.4,786.5c0,2.5,0.7,4,2,4.4c2,0.5,4.1,0.8,6.2,0.7c3.1,0.1,6.3-0.2,9.3-0.9c2.3-0.5,4.4-1.7,6-3.4
	c1.7-1.8,2.8-4,3.3-6.4c0.8-3.1,1.2-6.4,1.2-9.6c0.1-3.1-0.2-6.1-0.9-9.1c-0.8-4.6-4.2-8.4-8.8-9.6c-2.8-0.8-5.8-1.2-8.7-1.1
	c-2.5-0.3-5.1,0.2-7.4,1.3c-1.4,1.6-2.1,3.7-1.9,5.8L931.4,786.5z"/>
	<path fill="#007934" d="M763.2,843.4c-5.1-0.1-9.6-0.4-13.3-0.8c-6.9-0.9-13.9-1-20.9-0.3c-3.6,0.3-7.1,0.3-10.4,0.3
	c-1,0-1.9-0.5-2.3-1.4c-0.8-1.4-0.8-3,0-4.4c0.4-0.9,1.3-1.5,2.3-1.5c2.2-0.2,4.3-0.5,6.4-1c1.3-0.3,2.5-1,3.5-1.9
	c0.9-1,1.4-2.2,1.7-3.5c0.4-2.2,0.6-4.4,0.6-6.6l1-53.3v-6.1c-0.1-1.8-0.3-3.6-0.8-5.3c-0.4-1.4-1-2.7-1.9-3.9
	c-0.8-1.1-2-1.9-3.4-2.3c-1-0.3-2.1-0.5-3.1-0.7s-2.1-0.4-3.1-0.5c-0.9,0-1.7-0.5-2.2-1.3c-0.4-0.7-0.6-1.4-0.6-2.2s0.3-1.5,0.7-2.2
	c0.4-0.8,1.2-1.3,2.1-1.3c2.9,0,5.9,0.2,8.8,0.5l8.8,0.3l51.1,0.9c0.8,0.1,1.6,0.2,2.4,0.3c0.8,0.2,2,1,1.7,3.6
	c-0.4,3.1-0.6,6.3-0.5,9.4c0,3.6,0,6.9,0.2,9.9c0,0.9-0.5,1.7-1.3,2.1c-0.6,0.3-1.3,0.5-2,0.5h-0.4c-0.6-0.1-1.3-0.2-1.9-0.4
	c-0.8-0.4-1.3-1.1-1.5-1.9c-0.4-2.9-1-5.8-1.8-8.6c-0.4-1.6-1.2-3.1-2.3-4.3c-1.2-1-2.6-1.7-4.2-1.9c-2.7-0.4-5.3-0.6-8-0.6
	l-8.6-0.2c-1.9-0.1-3.8-0.1-5.7,0c-1,0-2,0.2-2.9,0.7c-0.7,0.5-1.2,1.3-1.2,2.2c-0.4,1.7-0.6,3.5-0.6,5.3l-0.5,24.8
	c0,0.5,0,1,0.2,1.5c0.2,0.2,0.5,0.3,0.8,0.2c3.4,0.2,6.7,0.1,10.1-0.3c1.8-0.1,3.6-0.7,5.2-1.7c1-0.8,1.8-1.9,2.2-3.2
	c0.5-2,0.9-4.1,1.2-6.2c0.1-0.9,0.7-1.7,1.5-2.2c1.3-0.7,3-0.7,4.3,0c0.9,0.5,1.4,1.5,1.3,2.5c0,1.4-0.1,2.7-0.3,4.1l-0.7,7.2
	c-0.2,1.5-0.3,2.9-0.2,4.4c0,2.5,0.1,5.1,0.3,7.6c0.3,2.9,0.4,5.7,0.2,8.6c0,1-0.5,1.8-1.4,2.2c-0.6,0.2-1.2,0.3-1.8,0.4h-0.3
	c-0.7-0.1-1.4-0.3-2-0.6c-0.8-0.4-1.4-1.2-1.5-2.1c-0.1-2.2-0.4-4.3-0.7-6.5c-0.3-1.3-1-2.5-2.1-3.3c-1.5-1-3.3-1.5-5.1-1.7
	c-3.4-0.5-6.8-0.7-10.2-0.7c-0.3,0-0.5,0.1-0.7,0.3c-0.1,0.3-0.2,0.7-0.2,1l-0.5,24c-0.1,2.5,0.1,5,0.7,7.5c0.3,1.5,1.1,2.9,2.3,3.9
	c1.3,1.1,2.8,1.8,4.5,2.1c2,0.4,4.6,0.8,7.6,1.3c1,0,1.9,0.5,2.4,1.3c0.3,0.8,0.4,1.6,0.5,2.4C766.7,841.8,765.2,843.4,763.2,843.4
	L763.2,843.4L763.2,843.4z M739.4,839.2c3.6,0.1,7.2,0.3,10.7,0.8c3.7,0.4,8,0.8,13,0.9c0.2,0,0.4-0.1,0.6-0.2
	c0.2-0.3,0.3-0.6,0.3-0.9c0-0.4-0.1-0.8-0.3-1.2c0,0,0-0.2-0.3,0c-3.3-0.5-6-0.9-8.1-1.3c-2.1-0.4-4-1.3-5.6-2.7
	c-1.5-1.4-2.5-3.3-2.9-5.3c-0.6-2.7-0.8-5.4-0.7-8.2l0.5-23.8c-0.1-1.2,0.4-2.3,1.3-3c0.6-0.4,1.3-0.7,2.1-0.7
	c3.6,0,7.1,0.3,10.7,0.7c2.2,0.3,4.3,1.1,6.2,2.3c1.5,1.1,2.6,2.8,3,4.6c0.5,2.3,0.8,4.6,1,6.9v0.2c0.3,0.2,0.7,0.3,1.1,0.4
	c0.3,0,0.7,0,1-0.1c0-3.2,0-6-0.2-8.3c-0.3-2.7-0.4-5.3-0.3-8c0-1.5,0-3.1,0.2-4.6l0.6-7.3c0.2-1.3,0.3-2.5,0.3-3.8
	c-0.4-0.7-1.3-0.8-2-0.4l0,0c-0.1,0-0.2,0.2-0.3,0.5c-0.3,2.2-0.7,4.3-1.3,6.4c-0.4,1.8-1.4,3.4-2.9,4.5c-1.9,1.1-4.1,1.9-6.3,2.1
	c-3.5,0.4-7,0.6-10.5,0.5c-0.8-0.1-1.5-0.3-2.1-0.8c-0.9-1-1.4-2.3-1.2-3.6l0.5-24.8c-0.1-1.9,0.1-3.8,0.5-5.7
	c0.2-1.5,1-2.8,2.2-3.7c1.2-0.8,2.7-1.2,4.2-1.1c2-0.1,3.9-0.1,5.9,0l8.6,0.2c2.7,0.1,5.5,0.3,8.2,0.7c2,0.3,3.8,1.2,5.3,2.5
	c1.4,1.5,2.5,3.3,3,5.3c0.8,2.9,1.5,5.8,2,8.8v0.2c0.3,0.1,0.6,0.2,0.9,0.2c0.4,0,0.8-0.1,1.2-0.2c-0.2-2.7-0.2-6.2-0.3-9.8
	c-0.1-3.2,0.1-6.5,0.5-9.7c0.1-0.4,0.1-0.7,0-1.1H788l-51.1-0.9c-3.5,0-6.5-0.2-9-0.4c-2.9-0.3-5.7-0.5-8.6-0.5
	c-0.4,0.2-0.6,0.7-0.5,1.1c-0.1,0.3,0,0.7,0.2,0.9h0.3l3.4,0.5c1.1,0.2,2.2,0.4,3.3,0.7c1.8,0.5,3.4,1.6,4.5,3.1
	c1.1,1.4,1.9,3.1,2.4,4.8c0.5,1.9,0.8,3.9,0.9,5.9c0,1.9,0,4,0.1,6.2l-1,53.3c0,2.3-0.3,4.7-0.7,7c-0.5,3.6-3.3,6.5-6.9,7.2
	c-2.2,0.6-4.4,0.9-6.7,1.1c-0.4,0-0.5,0-0.5,0.2c-0.2,0.3-0.3,0.7-0.2,1c0,0.4,0.1,0.7,0.2,1.1c3.4,0.2,6.9,0.1,10.3-0.2
	C732.3,839.5,735.9,839.2,739.4,839.2L739.4,839.2z M844.9,845.5c-15.2-0.2-27.1-4.9-35.6-13.6S796.7,810,797.1,793
	c0-6.9,1.4-13.8,3.9-20.3c2.4-5.9,5.9-11.3,10.4-15.9c4.5-4.4,9.9-7.9,15.8-10.1c12.7-4.7,26.8-4.5,39.4,0.5
	c5.7,2.4,10.9,6,15.2,10.5c4.3,4.6,7.6,10,9.6,16c2.3,6.6,3.4,13.6,3.2,20.6c-0.1,7.6-1.5,15.1-4.2,22.2c-2.5,6-6.2,11.5-10.9,16
	c-4.5,4.4-9.9,7.7-15.8,9.8C857.7,844.5,851.3,845.6,844.9,845.5z M847.2,745.7c-6.5-0.1-13,1-19,3.4c-5.6,2.1-10.7,5.3-14.9,9.5
	c-4.3,4.3-7.6,9.5-9.9,15.1c-2.5,6.2-3.8,12.7-3.8,19.4c-0.3,16.4,3.5,28.9,11.6,37.3s19.4,12.7,34,12.9c6.1,0.2,12.2-0.8,18-2.9
	c5.6-1.9,10.7-5.1,14.9-9.3c4.5-4.3,8-9.5,10.3-15.3c2.7-6.8,4-14,4.1-21.3c0.2-6.7-0.8-13.4-3.1-19.7c-2-5.6-5.1-10.7-9.1-15.1
	c-4.1-4.2-9-7.6-14.4-9.8C860,747.2,853.7,745.8,847.2,745.7L847.2,745.7z M845.6,839.5c-5.4,0.1-10.6-1.3-15.2-4.1
	c-3.9-2.6-7.1-6.1-9.3-10.3c-2.4-4.5-4-9.4-4.7-14.5c-0.9-5.5-1.3-11.1-1.2-16.7c0.1-5.5,0.8-10.9,2.1-16.2c1.1-5,3.1-9.9,5.7-14.3
	c2.4-4.1,5.7-7.5,9.6-10.2c4.2-2.7,9.1-4,14.1-3.7c5.2-0.1,10.3,1.4,14.6,4.2c3.9,2.7,7.1,6.3,9.3,10.5c2.3,4.6,4,9.5,4.8,14.6
	c0.9,5.4,1.3,10.9,1.2,16.4c-0.1,5.6-0.9,11.2-2.3,16.6c-1.3,5-3.3,9.8-6,14.3c-2.5,3.9-5.8,7.3-9.6,9.9
	C854.8,838.4,850.2,839.7,845.6,839.5L845.6,839.5z M846.6,751.7c-4.5-0.2-8.9,1-12.7,3.4c-3.6,2.5-6.7,5.7-9,9.4
	c-2.5,4.2-4.3,8.8-5.3,13.6c-1.2,5.1-1.9,10.4-2,15.7c-0.1,5.4,0.4,10.9,1.3,16.2c0.6,4.8,2.1,9.4,4.4,13.7c2.1,3.8,5,7,8.6,9.5
	c4.2,2.6,9.1,3.9,14,3.8c4.1,0.1,8.2-1,11.6-3.3c3.6-2.4,6.7-5.5,8.9-9.2c2.6-4.1,4.5-8.6,5.8-13.3c1.3-5.2,2-10.6,2.1-16
	c0.2-5.4-0.2-10.7-1.1-16c-0.8-4.8-2.3-9.5-4.5-13.8c-2-3.9-4.9-7.2-8.5-9.7C856.1,753.2,851.4,751.8,846.6,751.7L846.6,751.7z
	 M975.8,849c-3-0.1-6-0.9-8.7-2.3c-2.6-1.4-4.5-3.7-5.3-6.5c-0.6-1.7-1.2-3.5-1.6-5.3c-0.4-1.9-1-3.8-1.4-5.8s-0.9-3.8-1.4-5.8
	s-0.7-3.4-1.1-4.8c-0.9-4.7-3-9-6-12.7c-2.8-2.6-6.6-4-10.4-3.9c-1.2-0.1-2.4,0.2-3.5,0.8c-0.7,0.3-1.1,1.4-1.1,2.9l-0.5,19.2
	c-0.1,2.5,0.2,4.9,0.8,7.3c0.4,1.6,1.4,3,2.7,4c1.3,1.1,2.8,1.9,4.4,2.3c2.1,0.5,4.3,0.9,6.5,1.2c0.9,0,1.8,0.4,2.2,1.2
	s0.7,1.6,0.7,2.5c0,0.8-0.3,1.6-0.7,2.3c-0.6,0.8-1.5,1.2-2.5,1.1c-4.2,0-8.5-0.3-12.7-0.8c-7-0.9-14-1-21-0.4
	c-3.4,0.3-6.9,0.5-10.3,0.4c-1,0-1.9-0.5-2.3-1.4c-0.3-0.7-0.5-1.4-0.6-2.1c-0.1-0.8,0.1-1.6,0.6-2.2c0.4-0.9,1.3-1.5,2.3-1.4
	c2.2-0.2,4.3-0.5,6.4-1c1.3-0.3,2.4-1,3.4-1.9c0.9-1,1.4-2.2,1.6-3.5c0.4-2.2,0.6-4.4,0.6-6.6l0.9-53.3v-6c-0.2-1.8-0.5-3.6-0.9-5.3
	c-0.4-1.4-1-2.6-1.8-3.8c-0.9-1.1-2.1-1.9-3.4-2.3c-1-0.3-2.1-0.5-3.2-0.8s-2.2-0.3-3.2-0.5c-0.9,0-1.7-0.5-2.2-1.3
	c-0.3-0.7-0.5-1.4-0.5-2.2s0.2-1.5,0.6-2.2c0.5-0.8,1.4-1.3,2.3-1.3c2.9,0,5.8,0.2,8.7,0.6c2.7,0.2,5.5,0.3,8.9,0.3h14.2
	c7.4-0.5,14.9,0,22.2,1.6c3.6,0.9,7.1,2.4,10.1,4.6c3,2.2,5.5,5.1,7.2,8.4c1.9,3.8,2.8,8,2.7,12.3c0,3.3-0.7,6.6-1.9,9.7
	c-1.2,2.7-2.9,5.1-5,7.1c-2,2.1-4.5,3.7-7.2,4.8c-2.7,1.2-5.4,2.1-8.3,2.7c4,1.9,7.5,4.5,10.5,7.7c2.3,2.6,4.2,5.5,5.5,8.7
	c1.2,2.9,2.1,5.9,2.7,9c0.5,3,1.1,5.9,1.7,8.7c0.2,1.5,0.9,3,1.9,4.2c1.1,1.4,3.1,1.7,4.5,0.6l0,0c0.2-0.1,0.3-0.3,0.4-0.4
	c1-1,1.8-2.3,2.2-3.7c0.2-1,0.9-1.8,1.8-2.2c0.8-0.3,1.7-0.4,2.5-0.2c0.7,0.2,1.4,0.6,1.9,1.2c0.6,0.6,0.9,1.5,0.8,2.4
	c-0.7,4.3-3,8.3-6.4,11c-1.7,1.2-3.5,2.1-5.5,2.7C979.7,848.9,977.7,849,975.8,849L975.8,849z M939.8,799.7c4.4-0.2,8.8,1.4,12,4.5
	c3.4,4,5.7,8.7,6.8,13.8c0.3,1.4,0.7,3.1,1.2,5s0.9,3.6,1.3,5.6s0.9,3.9,1.4,5.7s1,3.6,1.5,5.3c0.8,2.2,2.3,4,4.4,5.1
	c3.9,2.1,8.5,2.6,12.8,1.4c1.6-0.5,3.2-1.2,4.6-2.2c1.4-1,2.7-2.3,3.6-3.8c1-1.7,1.6-3.6,1.9-5.6v-0.3c-0.2-0.3-0.5-0.5-0.9-0.5
	h-0.8c0,0-0.3,0-0.5,0.6c-0.4,1.9-1.4,3.5-2.9,4.8c-2.3,2.2-6,2.1-8.2-0.2c-1.5-1.5-2.4-3.4-2.7-5.5c-0.7-2.9-1.2-5.9-1.7-8.8
	c-0.5-2.9-1.4-5.8-2.5-8.5c-1.3-3-3.1-5.7-5.3-8c-2.8-3-6.1-5.4-9.8-7.2c-0.9-0.4-1.6-1.2-1.7-2.2c0.1-1.1,0.9-1.9,2-2.1
	c2.9-0.6,5.6-1.5,8.3-2.7c2.4-1,4.6-2.4,6.5-4.2s3.4-3.9,4.4-6.3c1.1-2.8,1.6-5.9,1.6-8.9c0.2-3.8-0.5-7.6-2.2-11.1
	c-1.6-2.9-3.8-5.5-6.4-7.6c-2.9-2-6-3.4-9.4-4.3c-7.1-1.5-14.4-2-21.7-1.5h-14.1c-3.4,0-6.5-0.1-9.1-0.3s-5.3-0.3-8.6-0.5
	c-0.3,0.3-0.5,0.7-0.5,1.1c0,0.3,0,0.6,0.1,0.9l0.5,0.2c1.1,0.1,2.2,0.3,3.3,0.6c1.1,0.2,2.2,0.4,3.3,0.7c1.8,0.5,3.4,1.6,4.6,3
	c1.1,1.5,1.9,3.2,2.3,5c0.5,1.9,0.8,3.8,0.9,5.8c0.1,1.9,0,4,0,6.2l-0.9,53.2c0,2.4-0.2,4.7-0.5,7.1c-0.4,1.7-1.2,3.3-2.3,4.7
	c-1.3,1.3-2.9,2.2-4.7,2.7c-1.8,0.3-4,0.7-6.7,1.1c-0.2,0-0.4,0-0.5,0.2c-0.2,0.3-0.2,0.7-0.2,1c-0.1,0.4,0.1,0.8,0.4,1.1
	c3.4,0.2,6.9,0.1,10.3-0.3c7.1-0.6,14.2-0.5,21.3,0.4c4.1,0.5,8.3,0.8,12.4,0.9c0.2,0,0.4-0.1,0.4-0.3c0.2-0.2,0.4-0.6,0.3-0.9
	c0-0.4-0.1-0.8-0.3-1.1c0-0.2-0.2-0.2-0.3,0c-2.4-0.3-4.7-0.7-7-1.2c-2-0.5-3.8-1.4-5.3-2.7c-1.6-1.4-2.7-3.3-3.3-5.3
	c-0.6-2.7-0.9-5.4-0.8-8.2l0.4-19.2c-0.2-1.9,0.7-3.8,2.3-4.8C936.4,800,938.1,799.5,939.8,799.7L939.8,799.7z M942.4,796.2
	c-2.3,0-4.5-0.3-6.7-0.9c-1.3-0.5-2.7-1.8-2.7-5.5l0.5-28c-0.3-2.5,0.5-5,2.2-6.8c2.5-1.4,5.4-1.9,8.2-1.6c3,0,6.1,0.4,9,1.3
	c2.4,0.7,4.5,2,6.2,3.8c1.7,1.9,2.9,4.3,3.4,6.8c0.7,3.1,1,6.2,0.9,9.4c0,3.3-0.4,6.7-1.2,9.9c-0.5,2.5-1.7,4.9-3.5,6.8
	c-1.8,1.9-4.1,3.2-6.7,3.8C948.9,795.9,945.6,796.3,942.4,796.2L942.4,796.2z M943.9,755.9c-2.2-0.3-4.5,0.1-6.6,1
	c-0.9,0.7-1.4,2.3-1.4,4.9l-0.5,28c0,1.3,0.2,2.9,1.1,3.2c1.9,0.5,3.8,0.7,5.8,0.7c3,0.1,6-0.2,8.9-0.8c2.1-0.4,4-1.5,5.5-3.1
	s2.6-3.6,3.1-5.8c0.7-3,1.1-6.2,1.1-9.3c0.1-2.9-0.2-5.9-0.7-8.8c-0.5-2.1-1.5-4-2.9-5.6c-1.5-1.5-3.3-2.6-5.3-3.1
	c-2.7-0.7-5.5-1.1-8.3-1.1L943.9,755.9z M1017.2,797l72.3,1.3 M1089.3,802.2c0,1.5-1.2,2.7-2.7,2.7l0,0h-0.1l-66.6-1.3
	c-1.4-0.1-2.6-1.3-2.7-2.7l0.2-7.8c0-1.5,1.2-2.7,2.7-2.7l0,0h0.1l66.7,1.2c1.5,0,2.7,1.2,2.7,2.7l0,0v0.2L1089.3,802.2z
	 M615.6,789.5l72.2,1.4 M687.7,794.9c0,1.5-1.2,2.7-2.7,2.7l0,0l-67-1.3c-1.5,0-2.7-1.2-2.7-2.7l0,0l0.1-7.7
	c0.1-1.4,1.3-2.6,2.7-2.7l66.8,1.3c1.5,0,2.7,1.2,2.7,2.7l0,0L687.7,794.9z"/>
	<path fill="#007934" d="M1352.6,204c0.4,14.9-11.4,27.4-26.3,27.8s-27.4-11.4-27.8-26.3c-0.4-14.9,11.4-27.4,26.3-27.8h0.8
	c14.6-0.3,26.7,11.3,27,25.9V204z M1305.2,204c-0.4,11.2,8.5,20.6,19.7,21h0.1h0.8c11.2-0.1,20.1-9.1,20.1-20.3v-0.6
	c0.7-11.2-7.9-20.8-19.1-21.5s-20.8,7.9-21.5,19.1c0,0.3,0,0.6,0,0.8C1305.2,203,1305.2,203.5,1305.2,204L1305.2,204z M1321.4,217.8
	h-6.1v-26.3c3.3-0.6,6.7-0.9,10.1-0.8c3.2-0.3,6.4,0.4,9.2,1.9c1.7,1.4,2.7,3.6,2.7,5.8c-0.2,3-2.4,5.5-5.3,6.1v0.3
	c2.7,1.1,4.5,3.5,4.8,6.4c0.3,2.3,0.9,4.5,1.9,6.6h-6.6c-1-2-1.7-4.2-2.1-6.4c-0.5-2.9-2.1-4.2-5.3-4.2h-3.2L1321.4,217.8
	L1321.4,217.8z M1321.4,203h2.9c3.4,0,6.1-1.1,6.1-3.9s-1.8-4-5.6-4c-1.1,0-2.3,0.1-3.4,0.3V203z"/>
</svg>
