<svg version="1.1" id="Layer_1" xmlns="http://www.w3.org/2000/svg" xlink="http://www.w3.org/1999/xlink" x="0px" y="0px" viewBox="122.21418 297.24031 718.1858199999999 366.24136" enable-background="122.21418 297.24031 718.1858199999999 366.24136" space="preserve">
<g>
	<g>
		<path id="XMLID_116_" fill="#CCCCCC" d="M834.7,519.7c-0.8-11-14.1-17.7-39.9-20.2l25-89.1l8.4-25.4c3.6-10.4,5.5-19.1,5.8-25.9
			c0.2-5.6-1.6-10-5.6-13.2c-1.1-10.1-10.3-15.5-27.6-16.3c-14.9-0.7-29.7,1.6-44.4,6.7c-0.1,1.4-0.1,2.7-0.2,4.1
			c-0.9,20.6-13.9,72.5-39,155.9c-30.3-0.3-51.9-0.4-64.8-0.3c15.3-24.8,30.7-49.5,46.2-74.3c24.2-40.9,36.6-67.3,37.1-79.1
			c0.3-5.8-1.6-10-5.5-12.4c-0.5-8.1-5.8-12.3-15.8-12.8c-12.6-0.6-29.2,4.8-49.7,16.1c-1.1,14-3.8,28.4-8.3,43
			c-0.2-0.1-0.3-0.2-0.5-0.3l-114.4-56.2c-6.2-3.1-12.4-1.1-15.3,4.3c-3.8,0.7-6.8,3.8-7.7,8.7l-2.1,11.7c-0.3,0-0.6-0.1-0.9-0.1
			L410,335.7c-2.9-0.3-5.5,0.4-7.8,1.6l-0.2-13.5c-0.1-7.9-6.6-13.5-14.4-12.5l-129.8,16.8c-4.4,0.6-7.8,3.1-9.5,6.5
			c-3.7,2.2-5.9,6.3-5.6,10.8l-97.1,52c-2.1,1.2-3.9,2.8-5.2,4.7l-2.1,1.1c-7,3.7-9.7,12.5-6.2,19.6L207,570.2
			c3.6,7,12.4,10.1,19.5,6.7l64.9-30.3c2.5-1.2,4.7-3.1,6.3-5.4l0.9-0.4c5-2.3,8.5-7.4,9.5-12.9c0.8,0.1,1.6,0.2,2.4,0.2l75.4-1.1
			c5.2-0.1,9.6-2.9,12.1-7l0.1,4.9c0.1,8.1,6.8,15.8,14.8,17.1l64,10.1c7.7,1.2,15.1-3.8,17.1-11.2c0,0,0,0,0,0c0,0,0-0.1,0.1-0.3
			c0.1-0.3,0.1-0.5,0.2-0.8l3.4-18.1c0.3,0.2,0.7,0.4,1,0.6l52.1,26.5c5.4,2.7,11.7,1.7,16-2.1c0.3,0,0.7,0.1,1,0.1
			c1.6,6.9,6.9,10.6,15.8,10.9c3.1,0.1,16.1-1.1,39-3.7c21.1-2.4,47.6-3.2,79.5-2.4l-9.8,33.1c-5.4,18.1-8.3,32.9-8.8,44.3
			c-0.3,6.9,1.7,12.4,5.9,16.4c2.2,11.2,12.4,17.2,30.7,18c14.5,0.6,29.6-2.1,45.2-8.3c-2.5-7.5-3.6-14.4-3.3-20.6
			c0.5-12.2,6.3-38.2,17.2-78.1c16.4,2.3,30.9,6.7,43.7,13.3c11.3-18,17.1-30.7,17.5-38.3C840.4,526.8,838.5,522.9,834.7,519.7z"/>
		<g id="XMLID_104_">
			<path id="XMLID_71_" fill="#231F20" d="M123,403.3c-1.8-3.5-0.4-7.9,3.1-9.7L239.3,333c3.5-1.9,7.1-0.3,8.1,3.5l49.4,184
				c1,3.8-1.1,8.3-4.6,9.9l-78,36.5c-3.6,1.7-7.9,0.2-9.7-3.3L123,403.3z"/>
			<path id="XMLID_70_" fill="none" stroke="#231F20" stroke-width="0.7135" d="M123,403.3c-1.8-3.5-0.4-7.9,3.1-9.7L239.3,333
				c3.5-1.9,7.1-0.3,8.1,3.5l49.4,184c1,3.8-1.1,8.3-4.6,9.9l-78,36.5c-3.6,1.7-7.9,0.2-9.7-3.3L123,403.3z"/>
		</g>
		<g>
			<path fill="#231F20" d="M704.5,538.8c-35.7-1.2-65-0.5-87.9,2.2c-22.9,2.6-35.9,3.8-39,3.7c-11.4-0.5-16.8-6.3-16.3-17.5
				c0.1-1.8,0.4-4.5,1-8c0.6-3.6,0.9-6.3,1-8.2c26.4-19.5,49.2-46.6,68.5-81.2c19.3-34.6,30.1-67.6,32.5-99
				c20.6-11.3,37.1-16.7,49.7-16.1c11,0.5,16.2,5.5,15.8,15.1c-0.5,11.9-12.9,38.3-37.1,79.1c-17.6,28.2-35.2,56.5-52.7,84.7
				c7.4-0.6,33-0.6,76.7-0.1c25.1-83.4,38.1-135.4,39-155.9c0.1-1.4,0.1-2.7,0.2-4.1c14.7-5.1,29.5-7.3,44.4-6.7
				c19,0.8,28.3,7.3,27.7,19.4c-0.3,6.8-2.2,15.4-5.8,25.9l-8.4,25.4L786.4,496c32.6,1.8,48.6,9.3,48,22.5
				c-0.3,7.6-6.2,20.3-17.5,38.3c-12.8-6.6-27.4-11-43.7-13.3c-10.9,39.9-16.7,65.9-17.2,78.1c-0.3,6.2,0.8,13.1,3.3,20.6
				c-15.6,6.2-30.6,9-45.2,8.3c-21.4-0.9-31.8-9-31.1-24.3c0.5-11.5,3.4-26.2,8.8-44.3L704.5,538.8z"/>
		</g>
		<g id="XMLID_102_">
			<path id="XMLID_65_" fill="#231F20" d="M297.5,515.1c-3.9,0.1-8-3-9.2-6.7l-53.1-179.8c-1.1-3.8,1.2-7.3,5.1-7.8l144.2-18.7
				c3.9-0.5,7.1,2.3,7.2,6.2l2.7,198.3c0.1,3.9-3.1,7.2-7,7.2L297.5,515.1z"/>
			<path id="XMLID_63_" fill="none" stroke="#231F20" stroke-width="0.7135" d="M297.5,515.1c-3.9,0.1-8-3-9.2-6.7l-53.1-179.8
				c-1.1-3.8,1.2-7.3,5.1-7.8l144.2-18.7c3.9-0.5,7.1,2.3,7.2,6.2l2.7,198.3c0.1,3.9-3.1,7.2-7,7.2L297.5,515.1z"/>
		</g>
		<g id="XMLID_99_">
			<path id="XMLID_58_" fill="#231F20" d="M394.9,532.5c-3.9-0.6-7.1-4.4-7.1-8.3l-2.7-191c-0.1-3.9,3.1-6.8,7-6.5l113.3,10.4
				c3.9,0.4,6.5,3.8,5.9,7.7L477.1,539c-0.7,3.9-4.4,6.5-8.3,5.9L394.9,532.5z"/>
			<path id="XMLID_57_" fill="none" stroke="#231F20" stroke-width="0.7135" d="M394.9,532.5c-3.9-0.6-7.1-4.4-7.1-8.3l-2.7-191
				c-0.1-3.9,3.1-6.8,7-6.5l113.3,10.4c3.9,0.4,6.5,3.8,5.9,7.7L477.1,539c-0.7,3.9-4.4,6.5-8.3,5.9L394.9,532.5z"/>
		</g>
		<g id="XMLID_98_">
			<path id="XMLID_54_" fill="#EC1C24" d="M301.6,510.4c-3.7,0.1-7.6-2.8-8.6-6.4l-53.3-180.6c-1.1-3.6,1.1-6.9,4.8-7.3l144.9-18.8
				c3.7-0.5,6.7,2.2,6.8,5.9l2.7,199.1c0.1,3.7-2.9,6.8-6.6,6.8L301.6,510.4z"/>
			<path id="XMLID_52_" fill="none" stroke="#231F20" stroke-width="0.674" d="M301.6,510.4c-3.7,0.1-7.6-2.8-8.6-6.4l-53.3-180.6
				c-1.1-3.6,1.1-6.9,4.8-7.3l144.9-18.8c3.7-0.5,6.7,2.2,6.8,5.9l2.7,199.1c0.1,3.7-2.9,6.8-6.6,6.8L301.6,510.4z"/>
		</g>
		<g id="XMLID_97_">
			<path id="XMLID_51_" fill="#C3161C" d="M280,364.5c-1-3.6-3.7-8.8-6.2-11.6l-5.2-2.3c-3.7,0.1-9.4,1.7-12.7,3.4l-0.3,0.2
				c-3.3,1.8-5.1,6.1-4,9.6l37.3,126.3c1.1,3.6,3.8,8.9,6,11.8l8,5.9c3.5,1.3,8.5,2.3,11.3,2.3c2.7,0,4.1-3,3.2-6.6L280,364.5z"/>
		</g>
		<g id="XMLID_96_">
			<path id="XMLID_41_" fill="#231F20" d="M486.4,505.9c-3.5-1.8-5.8-6.4-5.1-10.3l32.8-182.6c0.7-3.9,4.1-5.5,7.5-3.6L635,371.7
				c3.4,1.9,4.8,6.3,3.1,9.8l-77.2,154.4c-1.8,3.5-6.1,4.9-9.5,3.1L486.4,505.9z"/>
			<path id="XMLID_40_" fill="none" stroke="#231F20" stroke-width="0.7135" d="M486.4,505.9c-3.5-1.8-5.8-6.4-5.1-10.3l32.8-182.6
				c0.7-3.9,4.1-5.5,7.5-3.6L635,371.7c3.4,1.9,4.8,6.3,3.1,9.8l-77.2,154.4c-1.8,3.5-6.1,4.9-9.5,3.1L486.4,505.9z"/>
		</g>
		<g id="XMLID_95_">
			<path id="XMLID_39_" fill="#C3161C" d="M382.3,351.7c-1.5,3.4-2.7,9.2-2.7,12.9l2.1,137.9c0.1,3.7,0.7,6.7,1.5,6.7
				s4.1-1.3,7.5-2.9l5.4-5.5c1.5-3.4,2.6-9.2,2.6-12.9l-1.9-136.6c-0.1-3.7-0.7-6.8-1.4-6.9c-0.7-0.1-4.2,0.9-7.6,2.2L382.3,351.7z"/>
		</g>
		<g id="XMLID_94_">
			<path id="XMLID_35_" fill="#32B34A" d="M399.4,527.7c-3.8-0.6-6.9-4.2-7-8l-2.9-191.4c-0.1-3.8,3-6.7,6.8-6.3l121.3,10.5
				c3.8,0.3,6.3,3.7,5.6,7.4L487,534.4c-0.7,3.8-4.4,6.3-8.1,5.7L399.4,527.7z"/>
			<path id="XMLID_34_" fill="none" stroke="#231F20" stroke-width="0.6938" d="M399.4,527.7c-3.8-0.6-6.9-4.2-7-8l-2.9-191.4
				c-0.1-3.8,3-6.7,6.8-6.3l121.3,10.5c3.8,0.3,6.3,3.7,5.6,7.4L487,534.4c-0.7,3.8-4.4,6.3-8.1,5.7L399.4,527.7z"/>
		</g>
		<g id="XMLID_93_">
			<path id="XMLID_31_" fill="#006AB5" d="M130.1,397.2c-1.7-3.3-0.4-7.4,2.9-9.2l113.9-60.9c3.3-1.7,6.7-0.3,7.7,3.3l49.6,184.7
				c1,3.6-1,7.8-4.4,9.4l-78.7,36.8c-3.4,1.6-7.5,0.2-9.2-3.2L130.1,397.2z"/>
			<path id="XMLID_30_" fill="none" stroke="#231F20" stroke-width="0.674" d="M130.1,397.2c-1.7-3.3-0.4-7.4,2.9-9.2l113.9-60.9
				c3.3-1.7,6.7-0.3,7.7,3.3l49.6,184.7c1,3.6-1,7.8-4.4,9.4l-78.7,36.8c-3.4,1.6-7.5,0.2-9.2-3.2L130.1,397.2z"/>
		</g>
		<g id="XMLID_92_">
			<path id="XMLID_32_" fill="#26963E" d="M515.8,335.3c-3.3-1.9-6.8-3.5-7.8-3.6s-2.1,0.4-2.5,1.2c-0.4,0.7-1.6,6-2.3,9.8
				l-31,154.7c-0.8,3.7-0.8,9.9-0.1,13.6l4.9,9.5c2.6,2.8,6.2,5.7,8,6.5c1.7,0.8,3.2,1.2,3.3,0.9c0.1-0.3,0.8-4.1,1.5-7.9
				l30.9-165.4c0.7-3.8,0.5-9.8-0.5-13.5L515.8,335.3z"/>
		</g>
		<g id="XMLID_90_">
			<path id="XMLID_27_" fill="#EE8A22" d="M488.8,501.8c-3.6-1.6-5.9-6.2-5.1-10l36.9-184.2c0.8-3.9,4.3-5.6,7.9-3.9l129,63.3
				c3.5,1.7,4.9,6,2.9,9.4l-87.1,156c-1.9,3.4-6.4,4.9-10,3.3L488.8,501.8z"/>
			<path id="XMLID_26_" fill="none" stroke="#231F20" stroke-width="0.7184" d="M488.8,501.8c-3.6-1.6-5.9-6.2-5.1-10l36.9-184.2
				c0.8-3.9,4.3-5.6,7.9-3.9l129,63.3c3.5,1.7,4.9,6,2.9,9.4l-87.1,156c-1.9,3.4-6.4,4.9-10,3.3L488.8,501.8z"/>
		</g>
		<g id="XMLID_78_">
			<path id="XMLID_38_" fill="#C47319" d="M654.7,369c-2.5-3.1-7.2-6.9-10.4-8.5c-3.2-1.6-6.8,0.2-7.9,4c0,0-12.6,43.2-27.4,69.6
				c-19.3,34.6-63.3,76.3-63.3,76.3c-2.9,2.7-5.4,7-5.6,9.6c0,0,0,0-0.6,3.6c-0.1,0.4-0.1,0.4-0.1,0.4c-0.1,0.4,2.8,2.1,6.4,3.8
				l3.4,1.6c3.6,1.6,9.8,3,13.7,3.1l8.5-2.8c3.1-2.4,7.3-7.2,9.2-10.6l72.2-129.3c1.9-3.4,3.8-9.5,4.1-13.4L654.7,369z"/>
		</g>
		<g>
			<path id="XMLID_125_" fill="#186DA0" d="M191.6,407.9c1.7-6.2,5.8-12.9,12.9-15.9c10.7-4.5,21.3-0.9,30.6,12
				c9.7,13.3,18.4,35.9,21,49c3.2,17.4,0.3,30.7-12.1,35.9c-4.8,2-8.7,1.6-13.8-0.2c-1.7-0.7-2.4-0.4-1.7,1.9
				c2.6,7.3,14.4,32.3,19.7,41.5c0,0-12.1,4.4-23.8,10.2c-8.6-26.5-40.8-103.9-55.1-131.4c0,0,9.1-3.4,18.6-7.8c0,0,1,3.5,1.6,5
				C190.3,409.8,191.1,409.4,191.6,407.9z M209.8,445.9c7.8,19.1,14.6,28.3,20.6,25.8c6-2.5,4.5-14.9-3-33.2
				c-7.2-17.7-14.1-27.6-20.3-25C200.7,416.1,202.6,428.1,209.8,445.9z"/>
		</g>
		<g>
			<g id="XMLID_172_">
				<g id="XMLID_173_">
					<path id="XMLID_179_" fill="#005898" d="M194.5,399.2c1.7-6.2,5.8-12.9,13-15.9c10.7-4.5,21.3-0.9,30.6,12
						c9.7,13.3,18.4,35.9,21,48.9c3.2,17.4,0.3,30.7-12.1,35.9c-4.9,2-8.7,1.6-13.8-0.2c-1.7-0.7-2.4-0.4-1.7,1.9
						c2.6,7.3,14.4,32.3,19.7,41.5c0,0-12.1,4.4-23.8,10.2c-8.6-26.5-40.8-103.9-55.1-131.4c0,0,9.1-3.4,18.6-7.8c0,0,1,3.5,1.6,5
						C193.2,401.1,194,400.8,194.5,399.2z M212.7,437.2c7.8,19.1,14.6,28.3,20.6,25.8c6-2.5,4.5-14.9-3-33.2
						c-7.2-17.7-14.1-27.6-20.3-25C203.6,407.4,205.5,419.5,212.7,437.2z"/>
					<path id="XMLID_174_" fill="#005898" d="M194.5,399.2c1.7-6.2,5.8-12.9,13-15.9c10.7-4.5,21.3-0.9,30.6,12
						c9.7,13.3,18.4,35.9,21,48.9c3.2,17.4,0.3,30.7-12.1,35.9c-4.9,2-8.7,1.6-13.8-0.2c-1.7-0.7-2.4-0.4-1.7,1.9
						c2.6,7.3,14.4,32.3,19.7,41.5c0,0-12.1,4.4-23.8,10.2c-8.6-26.5-40.8-103.9-55.1-131.4c0,0,9.1-3.4,18.6-7.8c0,0,1,3.5,1.6,5
						C193.2,401.1,194,400.8,194.5,399.2z M212.7,437.2c7.8,19.1,14.6,28.3,20.6,25.8c6-2.5,4.5-14.9-3-33.2
						c-7.2-17.7-14.1-27.6-20.3-25C203.6,407.4,205.5,419.5,212.7,437.2z"/>
				</g>
			</g>
			<g id="XMLID_162_">
				<g id="XMLID_165_">
					<path id="XMLID_169_" fill="#231F20" d="M194.5,399.2c1.7-6.2,5.8-12.9,13-15.9c10.7-4.5,21.3-0.9,30.6,12
						c9.7,13.3,18.4,35.9,21,48.9c3.2,17.4,0.3,30.7-12.1,35.9c-4.9,2-8.7,1.6-13.8-0.2c-1.7-0.7-2.4-0.4-1.7,1.9
						c2.6,7.3,14.4,32.3,19.7,41.5c0,0-12.1,4.4-23.8,10.2c-8.6-26.5-40.8-103.9-55.1-131.4c0,0,9.1-3.4,18.6-7.8c0,0,1,3.5,1.6,5
						C193.2,401.1,194,400.8,194.5,399.2z M212.7,437.2c7.8,19.1,14.6,28.3,20.6,25.8c6-2.5,4.5-14.9-3-33.2
						c-7.2-17.7-14.1-27.6-20.3-25C203.6,407.4,205.5,419.5,212.7,437.2z"/>
				</g>
			</g>
		</g>
		<g>
			<path id="XMLID_130_" fill="#C3161C" d="M334,352.3c1.3,11-5.4,18.2-15.1,19.3c-10.1,1.2-17.2-5.3-18.4-15.6
				c-1.2-10.1,4.6-17.2,15-18.3C325.2,336.5,332.9,342,334,352.3z M346.5,488.2c0,0-13.3,0.9-27.2,2.9
				c-0.3-28.2-5.5-75.2-11.5-103.7c14-0.9,26.1-3,26.1-3C334.4,411.1,339.6,459.9,346.5,488.2z"/>
		</g>
		<g>
			<g id="XMLID_185_">
				<g id="XMLID_186_">
					<path id="XMLID_190_" fill="#C3161C" d="M338.4,346.6c1.3,11-5.4,18.2-15.1,19.3c-10.1,1.2-17.2-5.3-18.4-15.6
						c-1.2-10.1,4.6-17.2,15-18.3C329.5,330.7,337.2,336.2,338.4,346.6z M350.8,482.4c0,0-13.3,0.9-27.2,2.9
						c-0.3-28.2-5.5-75.2-11.5-103.6c14-0.9,26.1-3,26.1-3C338.8,405.3,343.9,454.1,350.8,482.4z"/>
					<path id="XMLID_187_" fill="#C3161C" d="M338.4,346.6c1.3,11-5.4,18.2-15.1,19.3c-10.1,1.2-17.2-5.3-18.4-15.6
						c-1.2-10.1,4.6-17.2,15-18.3C329.5,330.7,337.2,336.2,338.4,346.6z M350.8,482.4c0,0-13.3,0.9-27.2,2.9
						c-0.3-28.2-5.5-75.2-11.5-103.6c14-0.9,26.1-3,26.1-3C338.8,405.3,343.9,454.1,350.8,482.4z"/>
				</g>
			</g>
			<g id="XMLID_177_">
				<g id="XMLID_178_">
					<path id="XMLID_182_" fill="#231F20" d="M338.4,346.6c1.3,11-5.4,18.2-15.1,19.3c-10.1,1.2-17.2-5.3-18.4-15.6
						c-1.2-10.1,4.6-17.2,15-18.3C329.5,330.7,337.2,336.2,338.4,346.6z M350.8,482.4c0,0-13.3,0.9-27.2,2.9
						c-0.3-28.2-5.5-75.2-11.5-103.6c14-0.9,26.1-3,26.1-3C338.8,405.3,343.9,454.1,350.8,482.4z"/>
				</g>
			</g>
		</g>
		<g>
			<path id="XMLID_119_" fill="#5B9F42" d="M443.7,396.9c-6.8-0.4-11.5,19-12.5,38.1c-1.1,20.1,0.7,35.7,7.7,36.1
				c5.8,0.3,7.7-12,8.1-24.3c12.8,1.9,26.3,1.7,26.3,1.7c-1.3,7-1.9,22.2-5.3,29.8c-3.9,8.5-12.6,17.3-30.2,16.3
				c-15.5-0.8-26.9-9.2-31.5-26.9c-4.6-18.7-1.9-46.2,2.9-62.4c5.6-18.4,15.9-32.8,36.2-31.7c19.6,1.1,26.5,13.1,28.4,22.6
				c1.9,9.8,0.4,23.6,0.9,32.1c0,0-13.5-1.7-26.4-1.2C449.8,410.6,449.8,397.2,443.7,396.9z"/>
		</g>
		<g>
			<g id="XMLID_149_">
				<g id="XMLID_152_">
					<path id="XMLID_163_" fill="#26963E" d="M449.5,391.1c-6.8-0.4-11.5,19-12.5,38.1c-1.1,20.1,0.7,35.7,7.7,36.1
						c5.8,0.3,7.7-12,8.1-24.3c12.8,1.9,26.3,1.7,26.3,1.7c-1.3,7-1.9,22.2-5.3,29.8c-3.9,8.5-12.6,17.3-30.2,16.3
						c-15.5-0.8-26.9-9.2-31.5-26.9c-4.6-18.7-1.9-46.2,2.9-62.4c5.6-18.4,15.9-32.9,36.2-31.7c19.6,1.1,26.5,13.1,28.4,22.6
						c1.9,9.8,0.4,23.5,0.9,32.1c0,0-13.5-1.7-26.4-1.2C455.6,404.8,455.6,391.4,449.5,391.1z"/>
					<path id="XMLID_153_" fill="#26963E" d="M449.5,391.1c-6.8-0.4-11.5,19-12.5,38.1c-1.1,20.1,0.7,35.7,7.7,36.1
						c5.8,0.3,7.7-12,8.1-24.3c12.8,1.9,26.3,1.7,26.3,1.7c-1.3,7-1.9,22.2-5.3,29.8c-3.9,8.5-12.6,17.3-30.2,16.3
						c-15.5-0.8-26.9-9.2-31.5-26.9c-4.6-18.7-1.9-46.2,2.9-62.4c5.6-18.4,15.9-32.9,36.2-31.7c19.6,1.1,26.5,13.1,28.4,22.6
						c1.9,9.8,0.4,23.5,0.9,32.1c0,0-13.5-1.7-26.4-1.2C455.6,404.8,455.6,391.4,449.5,391.1z"/>
				</g>
			</g>
			<g id="XMLID_141_">
				<g id="XMLID_144_">
					<path id="XMLID_147_" fill="#231F20" d="M449.5,391.1c-6.8-0.4-11.5,19-12.5,38.1c-1.1,20.1,0.7,35.7,7.7,36.1
						c5.8,0.3,7.7-12,8.1-24.3c12.8,1.9,26.3,1.7,26.3,1.7c-1.3,7-1.9,22.2-5.3,29.8c-3.9,8.5-12.6,17.3-30.2,16.3
						c-15.5-0.8-26.9-9.2-31.5-26.9c-4.6-18.7-1.9-46.2,2.9-62.4c5.6-18.4,15.9-32.9,36.2-31.7c19.6,1.1,26.5,13.1,28.4,22.6
						c1.9,9.8,0.4,23.5,0.9,32.1c0,0-13.5-1.7-26.4-1.2C455.6,404.8,455.6,391.4,449.5,391.1z"/>
				</g>
			</g>
		</g>
		<g>
			<path id="XMLID_112_" fill="#C47319" d="M563.5,510.9c0,0-12.7-5.2-25.9-9.1c1.4-11,2.9-28.7,2.8-36.2c-0.2-10.9-4.2-8.8-7.7-0.4
				c-3.3,7.6-7.7,21.3-10.2,32.3c0,0-11.7-5.5-24.7-9.6c13.2-28.3,42.6-108.5,50.3-135.3c12,5.4,24.1,9.2,24.1,9.2
				c-5.9,12.3-23.6,55.1-28,69.7c-1.8,5.4,0.3,6.4,4.5,3c6.2-5.1,19.3-18.6,24.9-24.6c11.5,5.6,24,9.6,24,9.6
				c-9.3,7.4-25.9,21.8-32.3,28.7c-2.7,3.1-3.8,5.4-4,9.6C560.9,469.3,562,495.5,563.5,510.9z"/>
		</g>
		<g>
			<path fill="#231F20" d="M570.8,505.1c0,0-12.8-5.2-25.9-9.2c1.4-11,2.9-28.7,2.8-36.2c-0.2-10.9-4.2-8.8-7.7-0.4
				c-3.3,7.6-7.7,21.3-10.2,32.3c0,0-11.7-5.5-24.6-9.6c13.2-28.3,42.6-108.5,50.3-135.2c12,5.3,24.1,9.2,24.1,9.2
				c-5.9,12.3-23.6,55.1-28,69.7c-1.8,5.4,0.3,6.4,4.5,3c6.2-5.2,19.3-18.6,24.9-24.6c11.5,5.6,24,9.6,24,9.6
				c-9.3,7.4-25.9,21.8-32.3,28.7c-2.7,3.1-3.8,5.4-4,9.6C568.1,463.6,569.3,489.7,570.8,505.1z"/>
		</g>
		<g>
			<g>
				<path fill="#CCE6C9" stroke="#231F20" stroke-width="0.9708" d="M202,393.3c1.7-6.2,5.8-12.9,13-15.9c10.7-4.5,21.3-0.9,30.6,12
					c9.7,13.3,18.4,35.9,21,49c3.2,17.4,0.3,30.7-12.1,35.9c-4.9,2-8.7,1.6-13.8-0.2c-1.7-0.7-2.4-0.4-1.7,1.9
					c2.6,7.3,14.4,32.3,19.7,41.5c0,0-12.1,4.4-23.8,10.2c-8.6-26.5-40.8-103.9-55.1-131.4c0,0,9.1-3.4,18.6-7.8c0,0,1,3.5,1.6,5
					C200.8,395.2,201.5,394.9,202,393.3z M220.2,431.4c7.8,19.1,14.6,28.3,20.6,25.8c6-2.5,4.5-14.9-3-33.2
					c-7.2-17.7-14.1-27.6-20.3-25C211.2,401.6,213,413.6,220.2,431.4z"/>
			</g>
			<g>
				<path fill="#CCE6C9" stroke="#231F20" stroke-width="0.9379" d="M345.7,340.9c1.3,11-5.4,18.2-15.1,19.3
					c-10.1,1.2-17.2-5.3-18.4-15.6c-1.2-10.1,4.6-17.2,15-18.3C336.8,325.1,344.5,330.6,345.7,340.9z M358.1,476.8
					c0,0-13.3,0.9-27.2,2.9c-0.3-28.2-5.5-75.2-11.5-103.6c14-0.9,26.1-3,26.1-3C346.1,399.6,351.2,448.4,358.1,476.8z"/>
			</g>
			<g>
				<path fill="#CCE6C9" stroke="#231F20" stroke-width="1.0893" d="M458,384.6c-6.8-0.4-11.5,19-12.5,38.1
					c-1.1,20.1,0.7,35.7,7.7,36.1c5.8,0.3,7.7-11.9,8.1-24.3c12.8,1.9,26.3,1.7,26.3,1.7c-1.3,7-1.9,22.2-5.3,29.8
					c-3.9,8.5-12.6,17.3-30.2,16.3c-15.5-0.8-26.9-9.2-31.5-26.9c-4.6-18.7-1.9-46.2,2.9-62.4c5.6-18.4,15.9-32.9,36.2-31.7
					c19.6,1.1,26.5,13.1,28.4,22.6c1.9,9.8,0.4,23.6,0.9,32.1c0,0-13.5-1.7-26.4-1.2C464,398.2,464,384.9,458,384.6z"/>
			</g>
			<g>
				<path fill="#CCE6C9" stroke="#231F20" stroke-width="0.878" d="M577.6,499.9c0,0-12.7-5.2-25.9-9.1c1.4-11,2.9-28.7,2.8-36.2
					c-0.3-10.9-4.2-8.8-7.8-0.4c-3.3,7.6-7.7,21.3-10.2,32.3c0,0-11.7-5.5-24.7-9.6c13.2-28.3,42.6-108.5,50.3-135.2
					c12,5.3,24.1,9.2,24.1,9.2c-5.9,12.3-23.6,55.1-28.1,69.7c-1.8,5.4,0.3,6.4,4.5,3c6.2-5.2,19.3-18.6,24.9-24.6
					c11.5,5.6,24,9.6,24,9.6c-9.3,7.4-25.9,21.8-32.3,28.7c-2.7,3.1-3.8,5.4-4,9.6C575,458.3,576.1,484.4,577.6,499.9z"/>
			</g>
		</g>
		<g>
			<path fill="#EC1C24" stroke="#231F20" stroke-width="1.3621" d="M699,528.8c-35.7-1.2-65-0.5-87.9,2.2c-22.9,2.6-35.9,3.8-39,3.7
				c-11.4-0.5-16.8-6.3-16.3-17.5c0.1-1.8,0.4-4.5,1-8c0.6-3.6,0.9-6.4,1-8.2c26.4-19.6,49.2-46.6,68.5-81.2
				c19.3-34.6,30.1-67.6,32.5-99c20.6-11.3,37.1-16.7,49.7-16.1c11,0.5,16.2,5.5,15.8,15.1c-0.5,11.9-12.9,38.3-37.1,79.1
				c-17.6,28.2-35.2,56.5-52.7,84.7c7.4-0.6,33-0.6,76.7-0.1c25.1-83.4,38.2-135.4,39.1-155.9c0.1-1.4,0.1-2.7,0.2-4.1
				c14.7-5.1,29.5-7.3,44.4-6.7c19,0.8,28.3,7.3,27.8,19.4c-0.3,6.8-2.2,15.4-5.8,25.9l-8.4,25.4l-27.6,98.6
				c32.6,1.8,48.6,9.3,48,22.5c-0.3,7.6-6.2,20.3-17.5,38.3c-12.8-6.6-27.3-11.1-43.7-13.3c-10.9,39.9-16.7,66-17.2,78.1
				c-0.3,6.2,0.8,13.1,3.3,20.6c-15.6,6.2-30.6,9-45.2,8.3c-21.4-0.9-31.8-9-31.1-24.3c0.5-11.5,3.4-26.2,8.8-44.3L699,528.8z"/>
		</g>
	</g>
	<g>
		<path fill="#231F20" d="M515.1,542.5c0,6.9-4.6,10.8-10.6,10.8c-6.3,0-10.2-4.5-10.2-10.9c0-6.3,4.1-10.2,10.5-10.2
			C510.7,532.2,515.1,536.1,515.1,542.5z M513.1,626.9c0,0-8.3-0.4-16.9-0.1c1.8-17.3,2-46.6,0.3-64.5c8.7,0.4,16.2,0,16.2,0
			C511.2,578.6,510.9,609,513.1,626.9z"/>
	</g>
	<g>
		<path fill="#231F20" d="M519.4,574.7c2.5-10.8,7.7-19.4,19.3-19.4c11.5,0,16.6,8.7,19.2,19.4c2.2,9.5,3.1,25.5-0.3,36.1
			c-3.1,10.1-10.1,14.6-18.9,14.6c-8.8,0-16-4.5-19-14.6C516.4,600.2,517.1,584.3,519.4,574.7z M544.7,591.3c0-11.2-2-22.7-6-22.7
			c-4.2,0-6.2,11.5-6.2,22.7c0,11.8,1.7,20.8,6.2,20.8C543,612.1,544.7,603,544.7,591.3z"/>
	</g>
	<g>
		<path fill="#231F20" d="M574.1,554.9c0.4,11.2,2.1,32.2,3.5,39.6c0.4,2,1.3,2,1.5,0c1.3-7.8,3.6-27.4,4.5-36.8
			c7.6,0.6,17.3,0,17.3,0c0.8,10.2,3.1,29.5,4.6,36.8c0.4,2,1.3,1.8,1.5,0c1.4-8.3,3.2-29.8,3.6-40.2c6.6,0.4,15.3,0,15.3,0
			c-3.2,14.8-8.8,49.4-10.9,66.3c0,0-9.8-0.6-16.9-0.1c-0.8-9.8-3.8-30.8-5.3-37.9c-0.3-1.8-1.3-1.8-1.7,0c-1.7,7.7-4.2,26.4-5,37.2
			c0,0-8.7-0.3-16.9,0c-2.1-15.7-7.8-50.8-10.9-64.9C565.8,555.3,574.1,554.9,574.1,554.9z"/>
	</g>
	<g>
		<path fill="#231F20" d="M630.5,571.9c3.1-4.2,8.8-6.4,15.5-6.4c6.2,0,11.8,2.1,15.1,6.7c4.1,5.7,3.9,14.4,3.5,26.7
			c-0.4,9.2-0.3,24.8,0.7,35.4c0,0-6.3-0.3-13.3,0c0.3-1.4,0.6-4.1,0.6-5.2c0-1-0.6-1.3-1.1-0.4c-2.5,3.5-7.4,7.1-12.9,7.1
			c-9.2,0-15.8-6-15.8-16.5c0-11.5,6.3-17.9,16.8-23.1c7.4-3.6,10.5-6.7,10.5-11.2c0-3.5-1.4-6-4.3-6c-4.2,0-5,4.8-4.5,11.6
			c0,0-7-0.7-14.4,0C627.7,584.6,626,578,630.5,571.9z M638,616.6c0.3,3.9,3.1,5.7,6.3,5c5.5-1.5,7.3-8.7,6.1-16.8
			c-0.1-1.4-0.8-1.7-2.1-1.1C642.8,606.2,637.6,611.2,638,616.6z"/>
	</g>
</g>
</svg>
