<svg xmlns="http://www.w3.org/2000/svg" viewBox="0 0 693.84 364.6"><title>US_IA_midday3</title><g id="Layer_2" data-name="Layer 2"><g id="Layer_1-2" data-name="Layer 1"><path d="M691.74,120c13.5-62-42.5-86.8-42.5-86.8-61.5-28.8-133.6-2.3-144,18.3-7.2,14.3-1.6,28.3,2.5,35.6l-88.6,157.7,16.5,5.2c9.8,3.1,20.6-.8,25.6-9.3l20.3-34.4,4.7,1.6c21,18.8,80.6,10.5,80.6,10.5,60.1,34.9,21.9,78.1,21.9,78.1-47,53.5-131.5,0-131.5,0-26.5,33.5-15,40-15,40,47,39,129.5,36,192,0s45-102.8,45-102.8c1-29.3-56.5-51.2-56.5-51.2C681.24,155.47,691.74,120,691.74,120Zm-121.5,47.5c-34.5-11-57-2.6-57-2.6-8.5,6.6-14.9,16.2-19.3,24.7l-1.6-1.6,49.3-83.5c4.1-7-.1-15.7-8.4-17.5l-5.6-1.2c62.2-22.5,78.1-1.4,78.1-1.4C644.74,130.67,570.24,167.47,570.24,167.47Z" style="fill:#ccc"/><path d="M444.94,250.37c.3,0,.7.1,1,.1" style="fill:#ccc"/><path d="M534,79.87l-114.4-56.2c-6.2-3.1-12.4-1.1-15.3,4.3-3.8.7-6.8,3.8-7.7,8.7l-2.1,11.7c-.3,0-.6-.1-.9-.1l-105.5-8.9a13.58,13.58,0,0,0-7.8,1.6l-.2-13.5A12.51,12.51,0,0,0,265.74,15l-129.8,16.8a12.22,12.22,0,0,0-9.5,6.5,11.56,11.56,0,0,0-5.6,10.8l-97.1,52a15.71,15.71,0,0,0-5.2,4.7l-2.1,1.1a14.83,14.83,0,0,0-6.2,19.6l74.9,147.4a15,15,0,0,0,19.5,6.7l64.9-30.3a16.42,16.42,0,0,0,6.3-5.4l.9-.4c5-2.3,8.5-7.4,9.5-12.9a19.42,19.42,0,0,0,2.4.2l75.4-1.1a14.43,14.43,0,0,0,12.1-7l.1,4.9c.1,8.1,6.8,15.8,14.8,17.1l64,10.1a15.43,15.43,0,0,0,17.1-11.2h0a.77.77,0,0,1,.1-.3c.1-.3.1-.5.2-.8l3.4-18.1c.3.2.7.4,1,.6l52.1,26.5a14.41,14.41,0,0,0,16-2.1" style="fill:#ccc"/><path d="M1.14,107a7.25,7.25,0,0,1,3.1-9.7l113.2-60.6a5.34,5.34,0,0,1,8.1,3.5l49.4,184a8.87,8.87,0,0,1-4.6,9.9l-78,36.5a7.39,7.39,0,0,1-9.7-3.3Z" style="fill:#231f20"/><path d="M1.14,107a7.25,7.25,0,0,1,3.1-9.7l113.2-60.6a5.34,5.34,0,0,1,8.1,3.5l49.4,184a8.87,8.87,0,0,1-4.6,9.9l-78,36.5a7.39,7.39,0,0,1-9.7-3.3Z" style="fill:none;stroke:#231f20;stroke-width:0.7135000228881836px"/><path d="M175.64,218.77a10.14,10.14,0,0,1-9.2-6.7l-53.1-179.8a6,6,0,0,1,5.1-7.8l144.2-18.7a6.27,6.27,0,0,1,7.2,6.2l2.7,198.3a7.06,7.06,0,0,1-7,7.2Z" style="fill:#231f20"/><path d="M175.64,218.77a10.14,10.14,0,0,1-9.2-6.7l-53.1-179.8a6,6,0,0,1,5.1-7.8l144.2-18.7a6.27,6.27,0,0,1,7.2,6.2l2.7,198.3a7.06,7.06,0,0,1-7,7.2Z" style="fill:none;stroke:#231f20;stroke-width:0.7135000228881836px"/><path d="M273,236.17a8.74,8.74,0,0,1-7.1-8.3l-2.7-191a6.33,6.33,0,0,1,7-6.5l113.3,10.4a6.57,6.57,0,0,1,5.9,7.7l-34.2,194.2a7.3,7.3,0,0,1-8.3,5.9Z" style="fill:#231f20"/><path d="M273,236.17a8.74,8.74,0,0,1-7.1-8.3l-2.7-191a6.33,6.33,0,0,1,7-6.5l113.3,10.4a6.57,6.57,0,0,1,5.9,7.7l-34.2,194.2a7.3,7.3,0,0,1-8.3,5.9Z" style="fill:none;stroke:#231f20;stroke-width:0.7135000228881836px"/><path d="M179.74,214.07a9.22,9.22,0,0,1-8.6-6.4l-53.3-180.6a5.49,5.49,0,0,1,4.8-7.3L267.54,1a5.92,5.92,0,0,1,6.8,5.9L277,206a6.64,6.64,0,0,1-6.6,6.8Z" style="fill:#ec1c24"/><path d="M179.74,214.07a9.22,9.22,0,0,1-8.6-6.4l-53.3-180.6a5.49,5.49,0,0,1,4.8-7.3L267.54,1a5.92,5.92,0,0,1,6.8,5.9L277,206a6.64,6.64,0,0,1-6.6,6.8Z" style="fill:none;stroke:#231f20;stroke-width:0.6740000247955322px"/><path d="M158.14,68.17a34.24,34.24,0,0,0-6.2-11.6l-5.2-2.3a35.25,35.25,0,0,0-12.7,3.4l-.3.2a8.53,8.53,0,0,0-4,9.6L167,193.77a45.25,45.25,0,0,0,6,11.8l8,5.9a39.15,39.15,0,0,0,11.3,2.3c2.7,0,4.1-3,3.2-6.6Z" style="fill:#c3161c"/><path d="M364.54,209.57a10.26,10.26,0,0,1-5.1-10.3l32.8-182.6c.7-3.9,4.1-5.5,7.5-3.6l113.4,62.3a7.59,7.59,0,0,1,3.1,9.8L439,239.57a7.05,7.05,0,0,1-9.5,3.1Z" style="fill:#231f20"/><path d="M364.54,209.57a10.26,10.26,0,0,1-5.1-10.3l32.8-182.6c.7-3.9,4.1-5.5,7.5-3.6l113.4,62.3a7.59,7.59,0,0,1,3.1,9.8L439,239.57a7.05,7.05,0,0,1-9.5,3.1Z" style="fill:none;stroke:#231f20;stroke-width:0.7135000228881836px"/><path d="M260.44,55.37a38.14,38.14,0,0,0-2.7,12.9l2.1,137.9c.1,3.7.7,6.7,1.5,6.7s4.1-1.3,7.5-2.9l5.4-5.5a38,38,0,0,0,2.6-12.9L274.94,55c-.1-3.7-.7-6.8-1.4-6.9s-4.2.9-7.6,2.2Z" style="fill:#c3161c"/><path d="M277.54,231.37a8.62,8.62,0,0,1-7-8L267.64,32a6.07,6.07,0,0,1,6.8-6.3l121.3,10.5a6.15,6.15,0,0,1,5.6,7.4l-36.2,194.5a7.14,7.14,0,0,1-8.1,5.7Z" style="fill:#32b34a"/><path d="M277.54,231.37a8.62,8.62,0,0,1-7-8L267.64,32a6.07,6.07,0,0,1,6.8-6.3l121.3,10.5a6.15,6.15,0,0,1,5.6,7.4l-36.2,194.5a7.14,7.14,0,0,1-8.1,5.7Z" style="fill:none;stroke:#231f20;stroke-width:0.6937999725341797px"/><path d="M8.24,100.87a6.92,6.92,0,0,1,2.9-9.2L125,30.77c3.3-1.7,6.7-.3,7.7,3.3l49.6,184.7a8.34,8.34,0,0,1-4.4,9.4L99.24,265a7,7,0,0,1-9.2-3.2Z" style="fill:#006ab5"/><path d="M8.24,100.87a6.92,6.92,0,0,1,2.9-9.2L125,30.77c3.3-1.7,6.7-.3,7.7,3.3l49.6,184.7a8.34,8.34,0,0,1-4.4,9.4L99.24,265a7,7,0,0,1-9.2-3.2Z" style="fill:none;stroke:#231f20;stroke-width:0.6740000247955322px"/><path d="M393.94,39c-3.3-1.9-6.8-3.5-7.8-3.6a2.59,2.59,0,0,0-2.5,1.2,76.94,76.94,0,0,0-2.3,9.8l-31,154.7a41.39,41.39,0,0,0-.1,13.6l4.9,9.5c2.6,2.8,6.2,5.7,8,6.5s3.2,1.2,3.3.9.8-4.1,1.5-7.9l30.9-165.4a36.05,36.05,0,0,0-.5-13.5Z" style="fill:#26963e"/><path d="M366.94,205.47a9.46,9.46,0,0,1-5.1-10l36.9-184.2c.8-3.9,4.3-5.6,7.9-3.9l129,63.3a6.68,6.68,0,0,1,2.9,9.4l-87.1,156a8,8,0,0,1-10,3.3Z" style="fill:#ee8a22"/><path d="M366.94,205.47a9.46,9.46,0,0,1-5.1-10l36.9-184.2c.8-3.9,4.3-5.6,7.9-3.9l129,63.3a6.68,6.68,0,0,1,2.9,9.4l-87.1,156a8,8,0,0,1-10,3.3Z" style="fill:none;stroke:#231f20;stroke-width:0.7184000015258789px"/><path d="M69.74,111.57c1.7-6.2,5.8-12.9,12.9-15.9,10.7-4.5,21.3-.9,30.6,12,9.7,13.3,18.4,35.9,21,49,3.2,17.4.3,30.7-12.1,35.9-4.8,2-8.7,1.6-13.8-.2-1.7-.7-2.4-.4-1.7,1.9,2.6,7.3,14.4,32.3,19.7,41.5,0,0-12.1,4.4-23.8,10.2-8.6-26.5-40.8-103.9-55.1-131.4,0,0,9.1-3.4,18.6-7.8,0,0,1,3.5,1.6,5C68.44,113.47,69.24,113.07,69.74,111.57Zm18.2,38c7.8,19.1,14.6,28.3,20.6,25.8s4.5-14.9-3-33.2c-7.2-17.7-14.1-27.6-20.3-25C78.84,119.77,80.74,131.77,87.94,149.57Z" style="fill:#186da0"/><path d="M72.64,102.87c1.7-6.2,5.8-12.9,13-15.9,10.7-4.5,21.3-.9,30.6,12,9.7,13.3,18.4,35.9,21,48.9,3.2,17.4.3,30.7-12.1,35.9-4.9,2-8.7,1.6-13.8-.2-1.7-.7-2.4-.4-1.7,1.9,2.6,7.3,14.4,32.3,19.7,41.5,0,0-12.1,4.4-23.8,10.2-8.6-26.5-40.8-103.9-55.1-131.4,0,0,9.1-3.4,18.6-7.8,0,0,1,3.5,1.6,5C71.34,104.77,72.14,104.47,72.64,102.87Zm18.2,38c7.8,19.1,14.6,28.3,20.6,25.8s4.5-14.9-3-33.2c-7.2-17.7-14.1-27.6-20.3-25C81.74,111.07,83.64,123.17,90.84,140.87Z" style="fill:#005898"/><path d="M72.64,102.87c1.7-6.2,5.8-12.9,13-15.9,10.7-4.5,21.3-.9,30.6,12,9.7,13.3,18.4,35.9,21,48.9,3.2,17.4.3,30.7-12.1,35.9-4.9,2-8.7,1.6-13.8-.2-1.7-.7-2.4-.4-1.7,1.9,2.6,7.3,14.4,32.3,19.7,41.5,0,0-12.1,4.4-23.8,10.2-8.6-26.5-40.8-103.9-55.1-131.4,0,0,9.1-3.4,18.6-7.8,0,0,1,3.5,1.6,5C71.34,104.77,72.14,104.47,72.64,102.87Zm18.2,38c7.8,19.1,14.6,28.3,20.6,25.8s4.5-14.9-3-33.2c-7.2-17.7-14.1-27.6-20.3-25C81.74,111.07,83.64,123.17,90.84,140.87Z" style="fill:#005898"/><path d="M72.64,102.87c1.7-6.2,5.8-12.9,13-15.9,10.7-4.5,21.3-.9,30.6,12,9.7,13.3,18.4,35.9,21,48.9,3.2,17.4.3,30.7-12.1,35.9-4.9,2-8.7,1.6-13.8-.2-1.7-.7-2.4-.4-1.7,1.9,2.6,7.3,14.4,32.3,19.7,41.5,0,0-12.1,4.4-23.8,10.2-8.6-26.5-40.8-103.9-55.1-131.4,0,0,9.1-3.4,18.6-7.8,0,0,1,3.5,1.6,5C71.34,104.77,72.14,104.47,72.64,102.87Zm18.2,38c7.8,19.1,14.6,28.3,20.6,25.8s4.5-14.9-3-33.2c-7.2-17.7-14.1-27.6-20.3-25C81.74,111.07,83.64,123.17,90.84,140.87Z" style="fill:#231f20"/><path d="M212.14,56c1.3,11-5.4,18.2-15.1,19.3-10.1,1.2-17.2-5.3-18.4-15.6-1.2-10.1,4.6-17.2,15-18.3C203.34,40.17,211,45.67,212.14,56Zm12.5,135.9s-13.3.9-27.2,2.9c-.3-28.2-5.5-75.2-11.5-103.7,14-.9,26.1-3,26.1-3C212.54,114.77,217.74,163.57,224.64,191.87Z" style="fill:#c3161c"/><path d="M216.54,50.27c1.3,11-5.4,18.2-15.1,19.3-10.1,1.2-17.2-5.3-18.4-15.6-1.2-10.1,4.6-17.2,15-18.3C207.64,34.37,215.34,39.87,216.54,50.27Zm12.4,135.8s-13.3.9-27.2,2.9c-.3-28.2-5.5-75.2-11.5-103.6,14-.9,26.1-3,26.1-3C216.94,109,222,157.77,228.94,186.07Z" style="fill:#c3161c"/><path d="M216.54,50.27c1.3,11-5.4,18.2-15.1,19.3-10.1,1.2-17.2-5.3-18.4-15.6-1.2-10.1,4.6-17.2,15-18.3C207.64,34.37,215.34,39.87,216.54,50.27Zm12.4,135.8s-13.3.9-27.2,2.9c-.3-28.2-5.5-75.2-11.5-103.6,14-.9,26.1-3,26.1-3C216.94,109,222,157.77,228.94,186.07Z" style="fill:#c3161c"/><path d="M216.54,50.27c1.3,11-5.4,18.2-15.1,19.3-10.1,1.2-17.2-5.3-18.4-15.6-1.2-10.1,4.6-17.2,15-18.3C207.64,34.37,215.34,39.87,216.54,50.27Zm12.4,135.8s-13.3.9-27.2,2.9c-.3-28.2-5.5-75.2-11.5-103.6,14-.9,26.1-3,26.1-3C216.94,109,222,157.77,228.94,186.07Z" style="fill:#231f20"/><path d="M321.84,100.57c-6.8-.4-11.5,19-12.5,38.1-1.1,20.1.7,35.7,7.7,36.1,5.8.3,7.7-12,8.1-24.3a187.43,187.43,0,0,0,26.3,1.7c-1.3,7-1.9,22.2-5.3,29.8-3.9,8.5-12.6,17.3-30.2,16.3-15.5-.8-26.9-9.2-31.5-26.9-4.6-18.7-1.9-46.2,2.9-62.4,5.6-18.4,15.9-32.8,36.2-31.7,19.6,1.1,26.5,13.1,28.4,22.6,1.9,9.8.4,23.6.9,32.1a186.19,186.19,0,0,0-26.4-1.2C327.94,114.27,327.94,100.87,321.84,100.57Z" style="fill:#5b9f42"/><path d="M327.64,94.77c-6.8-.4-11.5,19-12.5,38.1-1.1,20.1.7,35.7,7.7,36.1,5.8.3,7.7-12,8.1-24.3a187.43,187.43,0,0,0,26.3,1.7c-1.3,7-1.9,22.2-5.3,29.8-3.9,8.5-12.6,17.3-30.2,16.3-15.5-.8-26.9-9.2-31.5-26.9-4.6-18.7-1.9-46.2,2.9-62.4,5.6-18.4,15.9-32.9,36.2-31.7,19.6,1.1,26.5,13.1,28.4,22.6,1.9,9.8.4,23.5.9,32.1a186.19,186.19,0,0,0-26.4-1.2C333.74,108.47,333.74,95.07,327.64,94.77Z" style="fill:#26963e"/><path d="M327.64,94.77c-6.8-.4-11.5,19-12.5,38.1-1.1,20.1.7,35.7,7.7,36.1,5.8.3,7.7-12,8.1-24.3a187.43,187.43,0,0,0,26.3,1.7c-1.3,7-1.9,22.2-5.3,29.8-3.9,8.5-12.6,17.3-30.2,16.3-15.5-.8-26.9-9.2-31.5-26.9-4.6-18.7-1.9-46.2,2.9-62.4,5.6-18.4,15.9-32.9,36.2-31.7,19.6,1.1,26.5,13.1,28.4,22.6,1.9,9.8.4,23.5.9,32.1a186.19,186.19,0,0,0-26.4-1.2C333.74,108.47,333.74,95.07,327.64,94.77Z" style="fill:#26963e"/><path d="M327.64,94.77c-6.8-.4-11.5,19-12.5,38.1-1.1,20.1.7,35.7,7.7,36.1,5.8.3,7.7-12,8.1-24.3a187.43,187.43,0,0,0,26.3,1.7c-1.3,7-1.9,22.2-5.3,29.8-3.9,8.5-12.6,17.3-30.2,16.3-15.5-.8-26.9-9.2-31.5-26.9-4.6-18.7-1.9-46.2,2.9-62.4,5.6-18.4,15.9-32.9,36.2-31.7,19.6,1.1,26.5,13.1,28.4,22.6,1.9,9.8.4,23.5.9,32.1a186.19,186.19,0,0,0-26.4-1.2C333.74,108.47,333.74,95.07,327.64,94.77Z" style="fill:#231f20"/><path d="M441.64,214.57s-12.7-5.2-25.9-9.1c1.4-11,2.9-28.7,2.8-36.2-.2-10.9-4.2-8.8-7.7-.4a213.44,213.44,0,0,0-10.2,32.3,224.78,224.78,0,0,0-24.7-9.6c13.2-28.3,42.6-108.5,50.3-135.3a247.78,247.78,0,0,0,24.1,9.2c-5.9,12.3-23.6,55.1-28,69.7-1.8,5.4.3,6.4,4.5,3,6.2-5.1,19.3-18.6,24.9-24.6a207.24,207.24,0,0,0,24,9.6c-9.3,7.4-25.9,21.8-32.3,28.7-2.7,3.1-3.8,5.4-4,9.6C439,173,440.14,199.17,441.64,214.57Z" style="fill:#c47319"/><path d="M448.94,208.77s-12.8-5.2-25.9-9.2c1.4-11,2.9-28.7,2.8-36.2-.2-10.9-4.2-8.8-7.7-.4a213.44,213.44,0,0,0-10.2,32.3,228,228,0,0,0-24.6-9.6c13.2-28.3,42.6-108.5,50.3-135.2,12,5.3,24.1,9.2,24.1,9.2-5.9,12.3-23.6,55.1-28,69.7-1.8,5.4.3,6.4,4.5,3,6.2-5.2,19.3-18.6,24.9-24.6a207.24,207.24,0,0,0,24,9.6c-9.3,7.4-25.9,21.8-32.3,28.7-2.7,3.1-3.8,5.4-4,9.6C446.24,167.27,447.44,193.37,448.94,208.77Z" style="fill:#231f20"/><path d="M80.14,97c1.7-6.2,5.8-12.9,13-15.9,10.7-4.5,21.3-.9,30.6,12,9.7,13.3,18.4,35.9,21,49,3.2,17.4.3,30.7-12.1,35.9-4.9,2-8.7,1.6-13.8-.2-1.7-.7-2.4-.4-1.7,1.9,2.6,7.3,14.4,32.3,19.7,41.5,0,0-12.1,4.4-23.8,10.2-8.6-26.5-40.8-103.9-55.1-131.4,0,0,9.1-3.4,18.6-7.8,0,0,1,3.5,1.6,5C78.94,98.87,79.64,98.57,80.14,97Zm18.2,38.1c7.8,19.1,14.6,28.3,20.6,25.8s4.5-14.9-3-33.2c-7.2-17.7-14.1-27.6-20.3-25S91.14,117.27,98.34,135.07Z" style="fill:#cce6c9;stroke:#231f20;stroke-width:0.97079998254776px"/><path d="M223.84,44.57c1.3,11-5.4,18.2-15.1,19.3-10.1,1.2-17.2-5.3-18.4-15.6-1.2-10.1,4.6-17.2,15-18.3C214.94,28.77,222.64,34.27,223.84,44.57Zm12.4,135.9s-13.3.9-27.2,2.9c-.3-28.2-5.5-75.2-11.5-103.6,14-.9,26.1-3,26.1-3C224.24,103.27,229.34,152.07,236.24,180.47Z" style="fill:#cce6c9;stroke:#231f20;stroke-width:0.9379000067710876px"/><path d="M336.14,88.27c-6.8-.4-11.5,19-12.5,38.1-1.1,20.1.7,35.7,7.7,36.1,5.8.3,7.7-11.9,8.1-24.3a187.43,187.43,0,0,0,26.3,1.7c-1.3,7-1.9,22.2-5.3,29.8-3.9,8.5-12.6,17.3-30.2,16.3-15.5-.8-26.9-9.2-31.5-26.9-4.6-18.7-1.9-46.2,2.9-62.4,5.6-18.4,15.9-32.9,36.2-31.7,19.6,1.1,26.5,13.1,28.4,22.6,1.9,9.8.4,23.6.9,32.1a186.19,186.19,0,0,0-26.4-1.2C342.14,101.87,342.14,88.57,336.14,88.27Z" style="fill:#cce6c9;stroke:#231f20;stroke-width:1.0893000364303589px"/><path d="M455.74,203.57s-12.7-5.2-25.9-9.1c1.4-11,2.9-28.7,2.8-36.2-.3-10.9-4.2-8.8-7.8-.4a213.44,213.44,0,0,0-10.2,32.3,224.78,224.78,0,0,0-24.7-9.6c13.2-28.3,42.6-108.5,50.3-135.2,12,5.3,24.1,9.2,24.1,9.2-5.9,12.3-23.6,55.1-28.1,69.7-1.8,5.4.3,6.4,4.5,3,6.2-5.2,19.3-18.6,24.9-24.6a207.24,207.24,0,0,0,24,9.6c-9.3,7.4-25.9,21.8-32.3,28.7-2.7,3.1-3.8,5.4-4,9.6C453.14,162,454.24,188.07,455.74,203.57Z" style="fill:#cce6c9;stroke:#231f20;stroke-width:0.878000020980835px"/><path d="M261.64,256.77c0,6.9-4.6,10.8-10.6,10.8-6.3,0-10.2-4.5-10.2-10.9s4.1-10.2,10.5-10.2C257.24,246.47,261.64,250.37,261.64,256.77Zm-2,84.4s-8.3-.4-16.9-.1c1.8-17.3,2-46.6.3-64.5,8.7.4,16.2,0,16.2,0C257.74,292.87,257.44,323.27,259.64,341.17Z" style="fill:#231f20"/><path d="M265.94,289c2.5-10.8,7.7-19.4,19.3-19.4s16.6,8.7,19.2,19.4c2.2,9.5,3.1,25.5-.3,36.1-3.1,10.1-10.1,14.6-18.9,14.6s-16-4.5-19-14.6C262.94,314.47,263.64,298.57,265.94,289Zm25.3,16.6c0-11.2-2-22.7-6-22.7-4.2,0-6.2,11.5-6.2,22.7,0,11.8,1.7,20.8,6.2,20.8C289.54,326.37,291.24,317.27,291.24,305.57Z" style="fill:#231f20"/><path d="M320.64,269.17c.4,11.2,2.1,32.2,3.5,39.6.4,2,1.3,2,1.5,0,1.3-7.8,3.6-27.4,4.5-36.8a148.36,148.36,0,0,0,17.3,0c.8,10.2,3.1,29.5,4.6,36.8.4,2,1.3,1.8,1.5,0,1.4-8.3,3.2-29.8,3.6-40.2,6.6.4,15.3,0,15.3,0-3.2,14.8-8.8,49.4-10.9,66.3a158.36,158.36,0,0,0-16.9-.1c-.8-9.8-3.8-30.8-5.3-37.9-.3-1.8-1.3-1.8-1.7,0-1.7,7.7-4.2,26.4-5,37.2,0,0-8.7-.3-16.9,0-2.1-15.7-7.8-50.8-10.9-64.9C312.34,269.57,320.64,269.17,320.64,269.17Z" style="fill:#231f20"/><path d="M377,286.17c3.1-4.2,8.8-6.4,15.5-6.4,6.2,0,11.8,2.1,15.1,6.7,4.1,5.7,3.9,14.4,3.5,26.7a304.55,304.55,0,0,0,.7,35.4s-6.3-.3-13.3,0a34.61,34.61,0,0,0,.6-5.2c0-1-.6-1.3-1.1-.4-2.5,3.5-7.4,7.1-12.9,7.1-9.2,0-15.8-6-15.8-16.5,0-11.5,6.3-17.9,16.8-23.1,7.4-3.6,10.5-6.7,10.5-11.2,0-3.5-1.4-6-4.3-6-4.2,0-5,4.8-4.5,11.6a84.25,84.25,0,0,0-14.4,0C374.24,298.87,372.54,292.27,377,286.17Zm7.5,44.7c.3,3.9,3.1,5.7,6.3,5,5.5-1.5,7.3-8.7,6.1-16.8-.1-1.4-.8-1.7-2.1-1.1C389.34,320.47,384.14,325.47,384.54,330.87Z" style="fill:#231f20"/><path d="M506.14,78.77s-16.3-20.1-5.9-40.7,82.5-47.1,144-18.3c0,0,56,24.8,42.5,86.8,0,0-10.5,35.5-69,62.5,0,0,57.5,21.9,56.5,51.2,0,0,17.5,66.8-45,102.8s-145,39-192,0c0,0-11.5-6.5,15-40,0,0,84.5,53.5,131.5,0,0,0,38.1-43.2-21.9-78.1,0,0-59.6,8.3-80.6-10.6,0,0,8.5-28.6,27-42.9,0,0,22.5-8.4,57,2.6,0,0,74.5-36.9,35.5-83.2C600.74,70.87,582,46,506.14,78.77Z" style="fill:#231f20"/><path d="M498.44,72.17s-16.3-20.1-5.9-40.7,82.5-47.1,144-18.3c0,0,56,24.8,42.5,86.8,0,0-10.5,35.5-69,62.5,0,0,57.5,21.9,56.5,51.2,0,0,17.5,66.8-45,102.8s-145,39-192,0c0,0-11.5-6.5,15-40,0,0,84.5,53.5,131.5,0,0,0,38.1-43.2-21.9-78.1,0,0-59.6,8.3-80.6-10.6,0,0,8.5-28.6,27-42.9,0,0,22.5-8.4,57,2.6,0,0,74.5-36.9,35.5-83.2C593,64.27,574.34,39.37,498.44,72.17Z" style="fill:#ec1c24;stroke:#000;stroke-miterlimit:10"/></g></g></svg>