<?xml version="1.0" encoding="utf-8"?>
<!-- Generator: Adobe Illustrator 24.0.3, SVG Export Plug-In . SVG Version: 6.00 Build 0)  -->
<svg version="1.1" id="Layer_1" xmlns="http://www.w3.org/2000/svg" xmlns:xlink="http://www.w3.org/1999/xlink" x="0px" y="0px"
	 viewBox="0 0 460.8 335.9" enable-background="new 0 0 460.8 335.9" xml:space="preserve">
<title>US_GA_cashpop</title>
<g id="Layer_2_1_">
	<g id="Layer_1-2">
		<path fill="#C4E0AD" d="M401.9,29.7c-2.8-0.6-5.6-0.8-8.4-0.7c-10.1,0.5-14.7,4.3-17.5,14c-1,3.5-1.6,7.2-3,10.5
			c-0.8,1.7-2.3,3-4.2,3.5c-7.3,0.8-10.4-2.2-10.7-9.5c-0.1-1.7-0.1-3.3-0.3-5c-1.4-15.6-8.9-22.6-24.6-22.8
			c-10.4-0.1-14.8,3.6-16.4,14c-0.8,5.8-1.4,11.6-1.9,17.4c-1.9,20-3.8,40.1-5.3,60.2c-0.3,4.2,1.1,8.5,2,14.1
			c8.1-6.8,16.4-7.9,24.7-8.5c4-0.3,9.4,0.9,11.7-1.3c2.6-2.3,2.4-7.7,3.4-11.7c2.6-10-0.2-9.6,12.5-8.1c2.7,0.3,3.7,1.6,3.6,4.2
			c-0.1,4.8,0.2,9.7-0.1,14.5c-0.2,3.5,1.2,4.6,4.5,4.9c4.3,0.4,8.6,1.2,12.8,2c10.4,1.9,13.7,2,18.3,3.9c1.1-1.9,2.8-3.7,3.1-5.7
			c3.4-23.5,6.6-47.1,9.7-70.7C417.4,36.6,414,32.1,401.9,29.7z"/>
		<path fill="#C4E0AD" d="M91.5,92.5c-1.8,3.2-3.8,6-8.1,5.3c-4.6-0.7-9.2-1.7-10.3-7.1c-1.4-7.3-3-14.7-3.4-22s9.7-12.7,16-9
			c11.9,6.8,23.5,5.1,32.6-5c2.8-2.8,3.8-6.9,2.7-10.7c-2.3-9.7-8.2-16.5-16.7-21.4C81.5,9.5,49,18.3,34.2,41.6
			c-13.9,21.9-11.8,55.4,5,77.1c7.4,9.6,7.3,9.4,18.9,6.3c19.3-5.1,38.7-10,59.1-6.2c1.2,0.2,3.2,0.6,8.4,3.2c1.4-0.8,2.5-1.1,3-1.8
			c4.9-6.4,5.4-21.7,1-28.7C120.4,77,100.1,77.5,91.5,92.5z"/>
		<path fill="#C4E0AD" d="M306.2,72.9c-4.8-3.8-7.9-9.8-16.3-8.9c-10.3-1.8-28.1-6.7-28.3-8.8c-0.2-1.7,1.1-8.3,6.3-7.3
			c2.2,0.4,7,6.4,9.5,7.7c2.8,1.4,5.1,3.7,7.1,3.5c5.9-0.7,11.8-1.9,17.5-3.5c4.6-1.3,6.5-4.7,5.6-9.7c-2.6-13.4-9.8-23.4-22.7-28.2
			c-5.8-2.1-9.9-4-9.9-11.3c0-4.8-4.2-6.3-8.7-6.2c-4.3,0-8.9,0.9-8.8,6c0.1,7.7-4.7,8.9-10.3,10.2c-16.7,4-26.3,14.8-29.2,31.6
			c-2.4,13.5,4.2,25.9,16.8,31.2c8.5,3.6,17.3,6.5,26.1,9.7c1.8,9.4,1.8,9.4,10.5,9.1c-0.3-3.3-0.7-4.6-1-8c2.2,0.4,5.6,1.6,6.3,3.6
			c0.5,1.7-0.4,3.4-2.1,3.9c-0.2,0.1-0.4,0.1-0.6,0.1c-8.9,1.1-12.9-0.1-24-6.6c-7.6-4.5-17.2-4.1-24.5,1c-0.1,0.1,0.1,0.6,0.1,0.9
			c0.9,2.9,1.9,8.1,3.4,11.9c2.4,6.2,4.1,12.7,0,19.1l5.7,4.1c-1.2-7.7-1.1-13.9,3.8-19c2.6-2.7,4.6-2.8,6.8,0.5
			c1,1.7,2.3,3.2,3.9,4.4c6.3,4,13.3,7.1,15.4,16.4c5.5-3.3,10.2-6,14.8-8.8c2.3-1.4,4.4-3.4,6.8-4c5.1-1.2,10.8,5,10.1,6.3l2.2,1.2
			c2.6-4,6.8-7.7,7.5-12c1.7-11.2,1.9-22.6,2.3-33.9C308.5,76.9,307.6,74.1,306.2,72.9z"/>
		<path fill="#C4E0AD" d="M227.2,108.3c-5.7-17-11.9-33.8-18.2-50.7c-3.8-10.1-7.9-20.1-11.9-30.1c-2.3-5.8-6.6-9.1-13-9.2
			s-13-0.2-19.4,0.2c-7.2,0.5-13.1,4.3-15.4,11c-6.4,18.3-12.2,36.9-18,55.4c-0.4,1.6-0.1,3.2,0.7,4.6c4.3,6.8,4.5,14.4,3,21.7
			c-0.9,4.5-1.1,9.4-5.1,10.9c7.6,2.8,10.5,4.7,13.2,7.3c5,4.4,8.2,4.7,12.4,0.7c2.2-1.8,3.8-4.2,4.8-6.8
			c2.8-8.9,8.7-12.4,17.7-11.7c1.3,0.1,2.7,0,4-0.2c3.6-0.6,5.8,1,7.7,4.1c7.5,12.4,12.2,14.2,26.5,11.1
			C227.9,124.2,231,119.6,227.2,108.3z M177.2,77.9l-5.6-0.9l-3.3-3.3l3.3-13.1l4.7-1.2l3,13.1L177.2,77.9z"/>
		<path fill="#FCE1B8" d="M304.3,200.2c-0.6-2.1-3.1-3.9-5-5.3c-4.4-3.1-9.7-5.3-13.5-9c-4.8-4.7-8.4-10.7-12.6-16
			c-4.4-5.6-7.4-12.9-16-13.7c-0.9-0.1-1.6-1.1-2.4-1.7c-5.3-4.1-10.2-9-16-12.1c-35.7-18.7-80.8-0.7-95.3,38
			c-9.5,25.3-6.6,50.3,2.4,75.1c3.5,9.7,6.5,19.5,9,29.5c1.1,4.5,2.8,5.8,7.2,6c10.7,0.6,21.4,1.9,32.1,3c6.8,0.7,13.5,1.6,18.7,2.2
			c5.3-0.3,9-0.4,12.6-0.8c26.9-3.1,50.3-13.4,66.8-35.4C305.5,242.3,310.7,222.2,304.3,200.2z"/>
		<path fill="#F1A866" d="M412.6,131.4c-10.1-3.2-20.5-5.8-31-7.6c-17.2-3-34.5-5.7-52.1-3.4c-7.7,1-15,3.7-18.7,10.9
			c-3.8,7.4-6.2,15.5-9.3,23.6l5.9,2.4c7,4.2,8.8,9.4,12.2,13.7c3.6,4.6,7.7,8.9,11.6,13.3c1.2,1.4,3.6,2.7,3.6,4s-2,3.5-3.5,4.1
			c-6.4,2.3-12.9,4.1-20.3,6.4c-0.4,2.8-1.5,6.7-1.3,10.6c0.6,11.5,0,22.9-4.7,33.3c-5,11.2-6.1,14.4-13.2,24.2
			c-6.4,4.8-8.2,19.3-4.1,30.3c4.4,11.8,15,15.4,26.1,19.5l-5.4,3.5l10.6,1.6c-1.2-2-1.8-3-2.6-4.3c2.2,0,4-0.1,5.8,0
			c11.5,0.9,20-3.9,25.7-13.8c2.1-3.8,4-7.7,5.6-11.7c2.4-6,4.3-12.2,6.7-18.3c2.6-6.7,3.4-7,10.4-6.2c11.6,1.4,23.1,3,34.8,0.6
			c33-6.9,53.6-31.9,55.4-67.2C462.4,169.1,443.2,141.2,412.6,131.4z M392.4,204.8c0,0-7.2,1.1-7.6,1.2s-11.7,0.6-11.7,0.6l-7.2-1.8
			l1.4-22.8l18.2,1.8l7.8,8.8l0.9,9L392.4,204.8z"/>
		<path fill="#F1A866" d="M135.6,224.8c-0.4-9.4-0.7-19,0.5-28.4c2.3-17.5,10.4-32.5,23.3-45.3c-13.2-19.7-31.5-30.3-54.3-30.5
			c-31.2-0.2-60.4,9.4-88,23.1c-15,7.4-19.5,17-15.7,33.9c6.4,28.2,13.7,56.2,21.8,84c4.9,16.7,11.7,32.9,18.4,49
			c6.9,16.8,17.2,22.3,35.1,20.2c1.2-0.1,2.5-0.2,4.5-0.3l-3,5.3l10.5-3.1l-4.7-2.7c1.5-0.7,2.3-1.2,3.2-1.5
			c15-6.1,20.4-13.9,20.2-30.2c-0.1-8.1-1.2-16.2-1.8-24.4c-0.6-9.5-0.3-9.6,8.6-12.7s17.9-6.8,27-10.4c-0.7-1.9-1.3-3.8-1.7-5.8
			C138,240.1,135.8,228.8,135.6,224.8z M99.9,201.5l-18,8l-10-25c0,0,25-1,26,0l7,2l3,10L99.9,201.5z"/>
		
			<radialGradient id="SVGID_1_" cx="-60.4365" cy="-68.2559" r="150.34" fx="-67.8716" fy="-68.2559" gradientTransform="matrix(0.14 -0.99 -0.6 -9.000000e-02 194.6754 129.0248)" gradientUnits="userSpaceOnUse">
			<stop  offset="0.17" style="stop-color:#FBD63D"/>
			<stop  offset="0.32" style="stop-color:#F5C33A"/>
			<stop  offset="0.61" style="stop-color:#E79231"/>
			<stop  offset="1" style="stop-color:#D04724"/>
		</radialGradient>
		<path fill="url(#SVGID_1_)" d="M212.9,296.2c-5.2-0.6-11.9-1.5-18.7-2.2c-10.7-1.1-21.4-2.3-32.1-3c-4.4-0.3-6.1-1.5-7.2-6
			c-2.5-10-5.5-19.8-9-29.5c-9-24.8-11.9-49.8-2.4-75.1c14.5-38.6,59.7-56.7,95.3-38c5.8,3.1,10.7,8,16,12.1
			c0.8,0.6,1.6,1.6,2.4,1.7c8.6,0.8,11.5,8.1,16,13.7c4.2,5.3,7.8,11.3,12.6,16c3.8,3.7,9.1,5.9,13.5,9c2,1.4,4.4,3.2,5,5.3
			c6.4,22,1.2,42.1-12,59.8c-16.5,22-40,32.3-66.8,35.4C221.8,295.8,218.1,295.9,212.9,296.2z M297.5,240.2l-1-0.7
			c-0.4,0.7-0.9,1.4-1.4,2c-25.7,27.9-56.8,41.9-95.2,37.2c-9.2-1.1-18.6-2.5-27.6,1c-3.6,1.4-6.7,4-9.8,5.8
			c12.4,1.3,24.2,3,36.1,3.7c10.9,0.6,22,1.2,32.7-0.2c28.7-3.6,49.9-18.9,63.9-44.1C296,243.3,296.7,241.7,297.5,240.2L297.5,240.2
			z M217.5,143.6c-24.9-1.2-47.5,2.9-62.8,25.1c-14.1,20.4-15.6,52.1-9.3,68.4c0-6.3-0.5-12.2,0.1-17.9
			c2.7-29.1,16.5-50.8,43.3-63.4c6.8-3.2,13.8-5.8,20.7-8.7C212.2,145.9,214.8,144.8,217.5,143.6L217.5,143.6z M276.9,181.4
			c-4.2-18.8-20.1-23.6-34-30.8c-2.1-1.1-4.9-1.1-7.3-1c-19.3,0.4-43.1,17.7-46.9,34.3c12.2-13.1,26.1-22.7,44.2-24.3
			C251.6,157.9,265.5,166.8,276.9,181.4L276.9,181.4z"/>
		<path fill="#E66338" d="M316.3,317.3c0.8,1.3,1.4,2.4,2.6,4.3l-10.6-1.6l5.4-3.5c-11-4-21.7-7.6-26.1-19.5
			c-4.1-11-2.3-25.5,4.1-30.3v27l1.6,0.1c1-5.6,2-11.1,2.9-16.7c2-11.8,3.8-23.5,8.8-34.7c4.6-10.4,5.3-21.9,4.7-33.3
			c-0.2-3.9,0.9-7.8,1.3-10.6c7.4-2.3,14-4.1,20.3-6.4c1.5-0.6,3.5-2.7,3.5-4.1s-2.4-2.6-3.6-4c-3.9-4.4-7.8-8.9-11.6-13.3
			c-0.3-0.4-0.4-0.9-0.3-1.4c0-9.6,11.1-22.7,20.7-22.2c13.8,0.7,27.4,2.2,41,4.7c22.3,4,43.8,11.1,65.7,20.5
			c-0.5-1.9-1.1-3.8-1.9-5.6c-4.4-9.3-12-15.4-20.6-20.4c-17-10.1-35.9-15-55.2-18c-12-1.7-24-2.7-36.1-3c-9.6-0.3-16.3,5-19.5,14.2
			c-2,5.6-3.8,11.3-5.9,17.6l-5.9-2.4c3.1-8,5.5-16.1,9.3-23.6c3.7-7.2,11-9.9,18.7-10.9c17.6-2.2,34.9,0.4,52.1,3.4
			c10.5,1.8,20.9,4.4,31,7.6c30.6,9.7,49.8,37.6,48.1,69.3c-1.8,35.3-22.4,60.2-55.4,67.2c-11.6,2.4-23.2,0.8-34.8-0.6
			c-7-0.8-7.8-0.5-10.4,6.2c-2.4,6-4.3,12.2-6.7,18.3c-1.6,4-3.4,7.9-5.6,11.7c-5.6,9.9-14.2,14.7-25.7,13.8
			C320.4,317.2,318.6,317.3,316.3,317.3z M367.3,260.1c46.1,17.7,90.6-18.9,86.4-70.7c-2.5,19-12.3,36.3-27.4,48.1
			c-16.3,13.1-35.7,11.4-55,9.7C369.9,251.6,368.7,255.7,367.3,260.1L367.3,260.1z M396.3,192c0,0.8,0,1.6,0,2.4
			c1.8,12.9-0.1,15.1-13.1,15.1h-15.8c2,4.9,2.5,5.5,6.7,6c5.5,0.6,10.9,1.2,16.4,1.4c9.1,0.2,12.5-3.4,12.8-12.6
			C403.6,198.1,401.5,194.2,396.3,192L396.3,192z M370.5,186c-0.5,6.1-1.2,11-1.2,15.9c0,0.9,2,2.6,3.2,2.7
			c4.3,0.3,8.6,0.2,12.9,0.1c2.7-0.1,6,0.6,6.8-3.3s-0.2-7.2-4-8.8C382.7,190.3,377.1,188.5,370.5,186L370.5,186z M322.8,304.2
			c-1.2,0.4-4.1,0.7-6.4,2c-3,1.7-2.5,4,0.6,5.5c9.5,4.4,25-2.2,28.4-12.1c0.4-1.2,0.1-3.4-0.6-3.9c-1.4-0.7-3-0.8-4.5-0.3
			c-1.1,0.3-2,1.6-2.7,2.7C334.4,302.8,330.1,305,322.8,304.2z"/>
		<path fill="#E66338" d="M159.4,151.1c-12.9,12.8-20.9,27.8-23.3,45.3c-1.2,9.3-0.9,18.9-0.5,28.4c0.2,4-0.9,6.3-4.3,7.8
			c-9,4.1-18.1,8.3-27.6,12.6l1.5,12.7c12.4-1.5,23.7-6.6,34.2-12.9c0.6,2,1.3,3.9,2.1,5.8c-9.1,3.5-18.4,7.3-27.4,10.4
			s-9.2,3.1-8.6,12.7c0.5,8.1,1.6,16.2,1.8,24.4c0.3,16.3-5.2,24.1-20.2,30.2c-0.9,0.4-1.7,0.8-3.2,1.5l4.6,2.7l-10.5,3.1l3-5.3
			c-2,0.1-3.2,0.2-4.5,0.3c-18,2.2-28.2-3.3-35.1-20.2c-6.6-16.1-13.5-32.3-18.4-49c-8.1-27.8-15.4-55.8-21.8-84
			c-3.8-17,0.7-26.6,15.7-34c27.7-13.7,56.9-23.3,88-23.1C127.8,120.8,146.1,131.5,159.4,151.1z M139.8,143.3l0.6-2.1
			c-2.5-2-4.9-4.3-7.7-6c-8.7-5.2-18.4-6.6-28.3-6.7c-26.4-0.2-51.3,6.8-75.7,15.9c-4.1,1.5-8,4.2-11.6,6.7
			c-6,4.3-9.6,10.3-9.4,17.8c0.1,6.3,0.1,12.8,1.6,18.8c6.4,24.8,13,49.6,20.3,74.1c4.8,15.9,11,31.4,16.8,47c1,2.8,3.1,5.2,4.7,7.9
			l1.2-0.7c-0.4-1.4-0.8-2.8-1.3-4.2c-10.2-31.7-19.5-63.7-24.8-96.6c-1.4-7.9-2.1-15.8-2.2-23.8c0.1-16.6,7.1-26,22.6-31.5
			c21.9-7.9,44.9-12.6,68.2-13.9C123.1,145.6,131.5,144.3,139.8,143.3z M77.9,188.3c2.4,6.5,4.5,12,6.6,17.8
			c5.8-2.7,10.8-5,15.6-7.4c2.3-1.2,5.1-2.3,3.9-5.9c-1.1-3.3-2.7-6.4-6.8-6.2C91.2,186.9,85.1,187.6,77.9,188.3z M106.1,182.1
			l-0.8,1.2c1.3,2.2,2.8,4.4,3.9,6.7c2.9,5.8,1.7,9.3-4,12.3c-1.9,1-3.9,1.9-5.8,2.8c-4.3,1.9-8.6,3.7-12.9,5.6v1.9
			c2.7,0.4,5.6,1.7,8,1.1c5.1-1.3,10.2-3.1,15-5.2c10.6-4.5,12-16.3,2.8-23.5C110.6,183.6,108.2,183,106.1,182.1z M103.2,299.1
			c-0.6-0.5-2.5-3-3.1-2.7c-1.8,0.9-4.1,2.6-4.4,4.3c-1,6.7-4.5,10.7-10.8,13c-2,0.7-3.8,2.6-5.2,4.4c-0.7,1.1-0.7,2.4-0.2,3.6
			c0.5,0.8,2.2,1.2,3.4,1.2C93.8,321.9,103.4,311.2,103.2,299.1L103.2,299.1z"/>
		<path fill="#7DAE4B" d="M407,87.2c-2.9,8.6-5.7,17.2-8.6,25.8c-3.4,10.2-3.3,10.2-13.7,8.3c-4.2-0.8-8.5-1.6-12.8-2
			c-3.3-0.3-4.7-1.5-4.5-5c0.3-4.8,0-9.7,0.1-14.5c0.1-2.7-0.9-3.9-3.6-4.2c-12.8-1.5-9.9-1.9-12.6,8.1c-1.1,4-0.8,9.4-3.4,11.7
			c-2.4,2.1-7.7,0.9-11.7,1.3c-8.4,0.6-16.6,1.8-24.7,8.5c-0.8-5.6-2.3-9.9-2-14.1c1.5-20,3.5-40.1,5.3-60.1
			c0.5-5.8,1.1-11.6,1.9-17.4c1.5-10.4,6-14.1,16.4-14c15.6,0.2,23.2,7.1,24.6,22.8c0.1,1.7,0.2,3.3,0.3,5
			c0.4,7.3,3.5,10.3,10.7,9.5c1.8-0.5,3.4-1.7,4.2-3.5c1.4-3.3,2-7,3-10.5c2.8-9.7,7.5-13.5,17.5-14c2.8-0.1,5.7,0.1,8.4,0.7
			c12.1,2.5,15.5,6.9,13.9,19.2c-3,23.6-6.3,47.2-9.7,70.7c-0.3,2-2,3.8-3.1,5.7c-0.1-2.1-0.5-4.3-0.1-6.3
			c1.9-10.4,3.9-20.9,5.9-31.3L407,87.2z M317.4,58.3l2.3,0.4c1.9-6.5,3.9-13,5.7-19.5c2.2-7.7,6.4-9.8,13.8-6.8
			c1.6,0.7,3.6,1.3,5.2,1c1.8-0.5,3.4-1.6,4.4-3.2c0.4-0.7-1.4-3.3-2.7-4c-6.2-3.4-13.6-3.8-20.2-1.2c-1.6,0.6-3.6,2.6-3.9,4.2
			C320.3,38.8,318.9,48.6,317.4,58.3z M376.2,55.4l1.6,0.7c2.4-3.5,4.6-7.1,7.1-10.5c4.8-6.3,9.2-7,16.3-3.6c2.4,1.1,5,1.4,7.6,1
			c3.1-0.5,4.1-2.6,2-5.5c-5.2-7.2-23.7-7.5-28.1,0.1C379.6,43.1,378.3,49.5,376.2,55.4L376.2,55.4z M372,89.6
			c-6.3-3.4-13.6-4.5-20.7-3.2c-1.6,0.3-3.7,1.7-4.2,3c-2.6,8.1-2.8,16.5-2.1,24.9c1.8-4.6,3.2-9.4,4.3-14.3c2-8.1,4.7-9.7,12.8-7.2
			C365.8,94,368.9,93.6,372,89.6z"/>
		<path fill="#7DAE4B" d="M143.1,129.4c9.1,1.6,14.4-2.5,16.9-13.3c-2.9,1.4-5.2,2.5-7.3,3.7c-4.7,2.6-9.4,3.2-14.1-0.1
			c-2.9-2-4.6-4-3.7-8.5c1.5-7.3,1.3-14.9-3-21.7c-0.8-1.4-1-3.1-0.6-4.6c5.9-18.5,11.6-37.1,18-55.4c2.4-6.7,8.1-10.5,15.4-11
			c6.4-0.4,12.9-0.3,19.4-0.2s10.6,3.4,13,9.2c4,10,8.2,20,11.9,30.1c6.2,16.8,12.5,33.7,18.2,50.7c3.8,11.3,0.8,15.9-11,18.5
			c-14.2,3.1-18.9,1.2-26.5-11.1c-1.9-3.1-4-4.7-7.7-4.1c-1.3,0.2-2.7,0.3-4,0.2c-8.9-0.7-14.9,2.8-17.7,11.7c-1,2.6-2.7,5-4.8,6.8
			C151.3,134.1,148.1,133.9,143.1,129.4z M143.2,64.9l1.6,0.5c3.2-7.2,6.5-14.3,9.6-21.6c4.2-9.9,7.6-12.1,18.4-12.7
			c3.6-0.2,7.3-1.8,10.7-3.3c1-0.4,1.9-2.4,1.9-3.6c0-0.8-1.8-2-2.9-2.1c-4.3-0.4-8.6-0.6-12.9-0.4c-9.9,0.6-16.4,5.7-19.1,15.4
			c-2.1,7.5-4.4,15-6.5,22.5C143.6,61.5,143.3,63.2,143.2,64.9L143.2,64.9z M221.4,104.6c-0.1,1.7-0.1,2.5-0.3,3.3
			c-1.4,8.7-6.4,11.8-14.9,9.5c-1.4-0.4-3-1-4.4-0.8s-2.9,1.2-4.3,1.8c0.8,1.3,1.2,3.1,2.4,4c4.9,3.6,10.4,2.9,15.8,1.6
			C226,121.5,228.4,114,221.4,104.6z M171.7,79.5c1.6,2.7,4.4,3.8,8.2,2.7c1.4-0.4,3.2-2.1,3.4-3.4c0.7-4.9-0.6-9.4-4.5-13.9
			c0.3,4.1,0.8,7.3,0.8,10.5C179.4,81.3,174.2,77.3,171.7,79.5z M175.2,63.8l-1.6,0.1c-0.8,3.2-1.4,6.5-1.7,9.9
			c-0.1,1,1.8,2.2,2.7,3.3c0.9-1,2.8-2.2,2.7-3.1C176.8,70.5,176.1,67.1,175.2,63.8L175.2,63.8z"/>
		<path fill="#7DAE4B" d="M125.6,122c1.7-6,3.2-11,4.6-16.1l-0.8-0.1c-2.7,3.7-5.2,7.6-8.1,11.1c-0.9,1.1-2.9,2.1-4.2,1.9
			c-20.3-3.8-39.7,1.1-59.1,6.2c-11.6,3.1-11.5,3.2-18.9-6.3c-16.7-21.7-18.9-55.2-5-77.1c14.9-23.4,47.4-32.2,70.3-19
			c8.5,4.9,14.4,11.7,16.7,21.4c1,3.8,0,7.8-2.7,10.6c-9.1,10.1-20.7,11.9-32.6,5c-6.3-3.6-16.4,1.7-16,9s1.9,14.8,3.4,22
			c1.1,5.5,5.7,6.5,10.3,7.2c4.3,0.6,6.3-2.2,8.1-5.3c8.6-15,29-15.4,38.1-0.9c4.4,7,3.9,22.3-1,28.7
			C128.1,120.9,127,121.2,125.6,122z M30.7,65.8c0.7-1.1,1-1.5,1.2-2c10.3-22.4,31.3-34.7,55.8-32.6c2.8,0.2,5.6,0.9,8.4,0.9
			c2.6,0,7.2-0.3,7.4-1.3c0.9-4.1-3.2-5.1-6-6.6c-0.2-0.1-0.3-0.1-0.5-0.2C68.3,13.1,34,34.2,30.7,65.8z M113.1,39.5
			c-0.3,0.4-0.8,0.7-0.9,1.1c-0.9,8.4-6.4,11.4-13.9,12.2c-1,0-2,0.2-2.9,0.6c-1.4,1.2-2.8,2.5-4,3.9c1.4,1,2.6,2.5,4.1,3
			c6.8,2,17.5-2.8,21.2-9.1C119.6,46,118.3,41.7,113.1,39.5z M110.6,84.3c-7.8,0.2-13,2.7-15.8,8.6c-0.8,1.8,0.1,4.3,0.2,6.5
			c1.8-0.9,4.3-1.4,5.4-2.8c3.1-3.9,6.5-5.8,11.6-4.8c1.9,0.3,3.9,0.2,5.8-0.4c1.2-0.4,2.1-1.3,2.6-2.5c0.2-0.5-1.2-2-2.1-2.4
			C115.4,85.5,112.4,84.8,110.6,84.3z"/>
		<path fill="#7DAE4B" d="M270.5,87.7c0.4,3.5,0.7,6.8,1,10c-8.7,0.2-8.7,0.2-10.5-9.1c-8.8-3.2-17.6-6.1-26.1-9.7
			c-12.6-5.3-19.2-17.7-16.8-31.2c3-16.8,12.5-27.5,29.2-31.6c5.6-1.3,10.4-2.5,10.3-10.2c-0.1-5,4.5-5.9,8.8-5.9
			c4.5,0,8.7,1.5,8.7,6.2c-0.1,7.3,4,9.1,9.9,11.3c12.9,4.8,20.1,14.7,22.7,28.2c1,5-0.9,8.4-5.6,9.7c-5.7,1.7-11.6,2.9-17.5,3.5
			c-2,0.2-4.3-2-7.1-3.5h13.1c-6.4-4.1-12.5-8.2-18.9-12.1c-5.7-3.5-13.6-2.8-17.7,1.3s-3.3,7.8,1.5,10.4c1.3,0.7,2.3,1.8,3.7,2.4
			c3.8,1.7,7.5,3.9,11.6,4.7c6.3,1.2,13,2.8,19.1,1.7c8.6-1.5,11.5,5.1,16.3,8.9c1.5,1.2,2.3,4,2.2,6.1c-0.4,11.3-0.6,22.7-2.3,33.9
			c-0.6,4.3-4.9,8-7.5,12l-2.2-1.2c0.6-1.3,1.3-2.6,2.1-3.8c5.8-6.5,7.5-11.3,6.7-20.8c-2.7,3.6-5,6.9-7.5,10
			c-3,3.7-6.3,7.1-11.4,8.3c-2.5,0.6-4.5,2.6-6.8,4l-14.8,8.8c-2.1-9.3-9.2-12.4-15.4-16.4c-1.6-1.2-2.9-2.7-3.9-4.4
			c-2.1-3.2-4.2-3.2-6.8-0.5c-4.9,5.2-4.9,11.4-3.8,19l-5.8-4.1c4.1-6.3,2.4-12.8,0-19.1c-1.5-3.8-0.1-6.1,3.1-7
			c3.5-0.8,7.1-1.1,10.6-1c2.8,0.2,5.6,0.5,8.3,1c-0.6-7.7-5.6-8.6-25.4-4.9c-0.1-0.3-0.2-0.8-0.1-0.9c9.2-6.6,22.4-4.8,30.1,3.4
			c5.7,6.1,12.4,10,21.3,8.4c4-0.8,6.7-2.8,7.1-7.1s-2.4-6.3-6-7.3C275.5,88.5,272.7,88.1,270.5,87.7z M222.1,61.3
			c0.9-24.2,16.4-36,37-43.4C228.4,20.3,216.1,39,222.1,61.3z M271.2,2.7c-2.1,9.5-1.2,12.1,3.9,11.4C273,10.7,276.2,5.5,271.2,2.7z
			 M269.3,3.3l-1-2.3c-2.8,0.8-6.2,1-8.1,2.8c-1.6,1.5-1.5,4.8-2.1,7.4l1.9,1.1C259.9,5.7,264.4,4.3,269.3,3.3z"/>
		<path fill="#7DAE4B" d="M271.2,59.5c-4-0.9-9.4-3.2-9.6-4.3c0.1-2.8-0.1-5.4,0.6-7.7c0.2-0.5,4.7-0.7,5.7,0.4
			C269.4,49.5,270.4,56.6,271.2,59.5z"/>
		
			<linearGradient id="SVGID_2_" gradientUnits="userSpaceOnUse" x1="249.285" y1="213.4506" x2="245.775" y2="209.9406" gradientTransform="matrix(1 0 0 -1 0 337.2756)">
			<stop  offset="0" style="stop-color:#2CAC50"/>
			<stop  offset="1" style="stop-color:#8CBE61"/>
		</linearGradient>
		<path fill="url(#SVGID_2_)" d="M242.8,119.7c2.7,4.2,5.3,8.5,8,12.7l1.5-0.9c-2.7-4.2-5.3-8.3-7.9-12.5L242.8,119.7z"/>
		
			<linearGradient id="SVGID_3_" gradientUnits="userSpaceOnUse" x1="310.5049" y1="167.0506" x2="294.5399" y2="151.0856" gradientTransform="matrix(1 0 0 -1 0 337.2756)">
			<stop  offset="0" style="stop-color:#2CAC50"/>
			<stop  offset="1" style="stop-color:#8CBE61"/>
		</linearGradient>
		<path fill="url(#SVGID_3_)" d="M319.9,184.6c-0.9-0.8-1.9-1.6-2.9-2.3l2.5-3.2c-6,4-11.2,2.2-15.9-4.6c1.1-1.4,2.3-2.8,3.5-4.1
			l-0.4-0.3l-4.8,3.7l-5.4-6.5l-5.9-3v8.5l0.7,0.1c0.5-1.6,1.1-3.2,1.8-5.1c3.8,5.6-0.7,9.6-2.6,14.1l1.4,0.4
			c1.6-3.5,3.3-7.1,4.9-10.6l1-0.1c-0.4,4.5-0.9,8.9-1.4,14.7l4.5-12.2c0.6,4.9,1.1,8.9,1.8,14.2c0.5-4.1,0.9-7,1.3-9.8l1.4-0.3
			c1,3.5,2,7,3,10.6c0.2-2.2,0.4-4.3,0.6-6.5l0.9-0.2c0.8,2.4,1.5,4.7,2.4,7.5c0.2-2.2,0.4-4,0.6-5.8c2,0.7,3.9,1.4,5.8,2.1
			c0.6,0.2,1.2,0.3,1.8,0.4C320.1,185.8,320.2,185,319.9,184.6z"/>
		
			<linearGradient id="SVGID_4_" gradientUnits="userSpaceOnUse" x1="275.34" y1="198.9556" x2="275.3" y2="198.9156" gradientTransform="matrix(1 0 0 -1 0 337.2756)">
			<stop  offset="0" style="stop-color:#2CAC50"/>
			<stop  offset="1" style="stop-color:#8CBE61"/>
		</linearGradient>
		<path fill="url(#SVGID_4_)" d="M275.3,138.3L275.3,138.3l0.1,0.1L275.3,138.3z"/>
		
			<linearGradient id="SVGID_5_" gradientUnits="userSpaceOnUse" x1="293.3625" y1="213.0331" x2="293.2825" y2="212.9531" gradientTransform="matrix(1 0 0 -1 0 337.2756)">
			<stop  offset="0" style="stop-color:#2CAC50"/>
			<stop  offset="1" style="stop-color:#8CBE61"/>
		</linearGradient>
		<path fill="url(#SVGID_5_)" d="M293.4,124.3h-0.1c0,0,0,0,0,0.1L293.4,124.3z"/>
		
			<linearGradient id="SVGID_6_" gradientUnits="userSpaceOnUse" x1="304.0494" y1="205.3579" x2="269.8192" y2="171.1377" gradientTransform="matrix(1 0 0 -1 0 337.2756)">
			<stop  offset="0" style="stop-color:#018A50"/>
			<stop  offset="1" style="stop-color:#A9D38E"/>
		</linearGradient>
		<path fill="url(#SVGID_6_)" d="M319,175.6c-5.9-10.4-13.3-18.2-25.6-19.8c-5.2-0.7-10.6-0.2-15.9-0.6c-4.7-0.3-9.4-0.9-14-1.4
			l-0.5-1.6l12.2-13.9c-0.6-0.2-1.5-0.6-1.4-0.7c0.9-4.8,14.3-13.9,19.5-13.4c-0.1-4.3-1.6-6.3-6-3.8l4-0.2c0.1,0.4,0.2,0.7,0.3,1.1
			l-15.4,9.7l-0.5-1.2c-3.7,5.6-7.5,11.3-11.2,16.9c-1.1,1.7-2.4,3.3-3.6,4.9l-1.1-0.8c0.8-3,1.6-6,2.2-9.1
			c2.2-11.2-0.7-17.3-10.4-23.4c-3.6-2.2-6.7-5.1-10.2-7.9c-2.9,2.6-4.3,6.4-4,11c0.6,7.7,3.5,14.5,9.9,18.7
			c7,4.6,9.5,14.2,18.7,16.2c1.2,0.3,2.2,2,3.1,3.1c3.5,4.8,7,9.7,10.5,14.6c7,9.7,15,17.8,27.6,19.6c8.2,1.2,16.6-0.4,23.9-4.6
			C326.6,184.4,321.8,180.6,319,175.6z"/>
		<path fill="#FFFFFF" d="M250.8,132.4c-2.7-4.2-5.3-8.5-8-12.7l1.6-0.7c2.7,4.2,5.3,8.3,7.9,12.5L250.8,132.4z"/>
		<path fill="#FFFFFF" d="M312.6,183.9c-0.2,1.8-0.4,3.6-0.6,5.8c-0.9-2.8-1.7-5.1-2.4-7.5l-0.9,0.2c-0.2,2.2-0.4,4.3-0.6,6.5
			c-1-3.6-2-7.1-3-10.6l-1.4,0.3c-0.4,2.8-0.7,5.6-1.3,9.8c-0.7-5.3-1.1-9.2-1.8-14.2l-4.5,12.2c0.6-5.8,1-10.2,1.4-14.7l-1,0.1
			c-1.6,3.5-3.3,7.1-4.9,10.6l-1.4-0.4c1.9-4.4,6.4-8.5,2.6-14.1c-0.7,1.9-1.2,3.5-1.8,5.1l-0.7-0.1v-8.5l5.9,3l5.4,6.5l4.8-3.7
			l0.4,0.3c-1.2,1.4-2.3,2.8-3.5,4.1c4.8,6.8,10,8.6,15.9,4.6l-2.5,3.2c1,0.7,2,1.4,2.9,2.3c0.4,0.4,0.3,1.2,0.4,1.8
			c-0.6-0.1-1.2-0.3-1.8-0.4C316.5,185.3,314.6,184.6,312.6,183.9z"/>
		
			<linearGradient id="SVGID_7_" gradientUnits="userSpaceOnUse" x1="293.3786" y1="213.0262" x2="293.2386" y2="212.8762" gradientTransform="matrix(1 0 0 -1 0 337.2756)">
			<stop  offset="0" style="stop-color:#2CAC50"/>
			<stop  offset="1" style="stop-color:#8CBE61"/>
		</linearGradient>
		<path fill="url(#SVGID_7_)" d="M293.3,124.4l0.1-0.2h-0.1C293.3,124.3,293.3,124.4,293.3,124.4z"/>
		
			<linearGradient id="SVGID_8_" gradientUnits="userSpaceOnUse" x1="276.6192" y1="199.9848" x2="275.4704" y2="198.8259" gradientTransform="matrix(1 0 0 -1 0 337.2756)">
			<stop  offset="0" style="stop-color:#2CAC50"/>
			<stop  offset="1" style="stop-color:#8CBE61"/>
		</linearGradient>
		<path fill="url(#SVGID_8_)" d="M275.4,138.4l1.4-0.9l-1.5,0.8L275.4,138.4z"/>
		
			<linearGradient id="SVGID_9_" gradientUnits="userSpaceOnUse" x1="293.3102" y1="212.7954" x2="278.5602" y2="198.0455" gradientTransform="matrix(1 0 0 -1 0 337.2756)">
			<stop  offset="0" style="stop-color:#2CAC50"/>
			<stop  offset="1" style="stop-color:#8CBE61"/>
		</linearGradient>
		<path fill="url(#SVGID_9_)" d="M289.5,129.1c-4.1,3-8.5,5.6-12.7,8.3c5.2-2.8,10.5-5.5,15.5-8.5c0.9-0.5,0.7-2.9,0.9-4.5
			C292.1,126.1,291.1,128,289.5,129.1z"/>
		<path fill="#C4E0AD" d="M225.6,92c-0.1,0.1,0.1,0.6,0.1,0.9c0.9,2.9,1.9,7.3,3.4,11.9"/>
	</g>
</g>
</svg>
