<svg version="1.1" id="Layer_1" xmlns="http://www.w3.org/2000/svg" xlink="http://www.w3.org/1999/xlink" x="0px" y="0px" viewBox="276.33654 187.2 1838.4645199999998 1701.17734" enable-background="276.33654 187.2 1838.4645199999998 1701.17734" space="preserve">
<g>
	<path fill="#0055A4" d="M1656.3,386c0.1,1.5,0.1,3,0.2,4.5c0.1,3.9-2.8,6.7-6.5,6.1c-2.4-0.4-1.7-2.6-2.1-4
		c-3.8-15.7-9.5-30.6-17.3-44.7c-1.5-2.7-3.4-5.3-5.1-7.9c-7.7-7.8-13.4-17.4-22.4-24c-6.5-4.8-13.4-8.3-21.2-9.2
		c-12.1-1.4-21.3,4.4-28.6,13.3c-7.8,9.4-11,20.6-11.6,32.8c-1.5,29.1,10.5,52.2,31.2,71.5c10.7,9.2,22.5,17,33.8,25.4
		c8.2,6.1,16.9,11.7,25.2,17.8c10.4,7.7,18.3,17.8,25.5,28.4c1.3,1.9,2.8,3.7,4.3,5.4c7.8,12.6,12.5,26.5,15.9,40.8
		c4.7,20,7,40.4,6.3,60.9c-1,28.9-5.6,57.1-18.2,83.4c-12.4,25.9-29.9,47.7-55.9,61.3c-20,10.4-41.4,14.5-63.9,12.2
		c-16.2-1.7-31.7-6-46.9-11.7c-3.9-1.4-7.9-2.5-12-3.6c-8.9-2.4-15.6,0.7-21,7.7c-1.4,1.8-2.4,5-4.9,4.4c-2.9-0.6-1.9-4.2-2.7-6.4
		c-0.2-0.6,0,0.2-0.1-0.5c-1.3-10.1-1.3-10-11.2-11.3c-28.1-3.8-56.1-7.8-84.1-11.7c-2.5-0.3-5-0.3-7.4-0.8
		c-6-1.4-12.2-1.6-18.3-2.8c-5.1-1-6.1-2.1-6.2-7.4c-0.1-5.2,0-10.3,0-15.5c0-3.3,1.3-5.7,4.5-7.1c7.3-3.2,11.1-9.3,13.5-16.5
		c4-12.4,3.6-24.9,1.5-37.6c-3.3-21.1-10.2-41-20-60c-1.5-2.8-3.8-5.1-5.2-7.9c-11.9-17.3-26-31.7-48-35.4c-9.8-1.7-11-1.2-12.7,8.4
		c-5.1,27.7-11.8,55.1-15.3,83c-1.4,11.2-2.5,22.5-3.4,33.8c-0.5,5.8,0.1,11.7,1.3,17.4c1.3,6.3,4.4,11.6,10.8,14.1
		c3.7,1.4,4.8,4.1,4.9,7.8c0.3,13,0.4,13-12.7,13c-14.3,0-28.6,0-43,0c-2.1,0.1-4.2,0.1-6.3,0c-7.2-0.3-14.5,1.3-21.6-1.1
		c-2.5-4.1-0.9-8.7-1.3-13c0.1-1.6,0-3.2,1.4-4.4c6.1-2.3,9.9-7.2,13-12.6c8.4-14.3,12.5-30.1,15.9-46c17.1-79.5,34-159,51-238.5
		c6.2-28.9,12.4-57.9,18.5-86.8c1.4-6.5,2.2-13.1,1.6-19.8c-0.4-4.8-1.8-9.2-6.4-11.7c-1.2-0.6-1.5-1.4-1.7-2.7
		c-1.7-14.3-1.4-14.8,12.9-14.8c30.7,0,61.3,0.1,92-0.1c4.3,0,5.6,1.2,5,5.3c-0.3,2-0.2,4,0,6c0.2,3.3,0,5.9-3.8,7.5
		c-2.6,1.1-3.9,4-4,7c0.4,13.2,3.1,26,5.2,39c8,48.8,16.7,97.5,25.4,146.2c5.5,31.1,11.1,62.3,16.9,93.4
		c6.6,35.2,12.6,70.5,19.9,105.5c1.8,8.5,4.4,16.8,7.6,24.8c1.6,3.9,3.6,7.5,7.1,11.1c1.4-13.3-1.2-25.9-0.7-38.5
		c-0.5-3.7,1.2-7.4,0.6-11.1c-1.1-27.4-2.2-54.8-3.4-82.2c-0.1-2.7-0.1-4.6,3.4-5.3c3.4-0.7,4.8-0.6,5.2,3.5c2,19.7,6,39,12.7,57.7
		c0.6,1.7,1.4,3.4,2.1,5.1c2.4,1.4,2.7,4.1,3.6,6.3c6.5,15.2,14.7,29.3,26.4,41.1c1.5,1.5,2.9,3.1,3.8,5.2
		c10.2,9.4,22,15.4,36.1,15.9c20.4,0.7,36.1-8.1,45.2-26.1c11.9-23.5,11.9-47.9,2.6-72.5c-0.6-1.5-1.2-3.1-2.7-4.1
		c-7.6-13.7-20.2-22.1-32.3-31.2c-14.3-10.8-27.5-23-42-33.6c-1.3-1.9-3.1-3.4-4.7-5c-8.8-9.1-17.1-18.6-24.9-28.6
		c-11.5-14.8-16.3-32.2-20.1-50c-5.5-25.5-8.2-51.3-5-77.4c4.3-34.8,14.1-67.5,37.9-94.3c16-18,35.8-28.9,60.2-30.8
		c11.5-0.9,22.5,1.3,33.4,4.8c7.1,2.3,14.1,4.9,21.3,7.2c12.3,4,22.2,0.8,29.9-9.5c0.9-1.2,1.3-3.3,3.6-2.9c1.7,0.3,1.4,1.6,1.4,2.7
		c0,9,0.8,17.9,1.6,26.8c0.3,3.1,0.2,6.3,0.2,9.5c1.8,6.9,1.2,13.9,1.7,20.9c1.4,20.6,2.9,41.2,4.3,61.7c0.1,1.8,0.1,3.7,0,5.5
		C1657,380.9,1655.2,383.4,1656.3,386z"/>
	<path fill="#0055A4" d="M941.5,405.6c-0.1-29.8,1.3-59.6-1.1-89.3c-0.7-8.3-2.1-16.5-5.3-24.3c-2.7-6.5-6.3-12.2-14.3-13
		c-1.8-0.2-1.9-1.3-2.1-2.7c-1.5-14.2-1.6-14.2,12.4-14.2c19.6,0,39.3,0.1,58.9-0.1c3.4,0,4.9,0.7,4.4,4.3c-0.3,1.8-0.2,3.7,0,5.5
		c0.3,4.1,0.5,7.4-5.3,8.1c-3.8,0.5-6.4,3.9-7.8,7.7c0.2,1.2,0.2,2.3-0.2,3.4c-4.2,12.3-5.4,24.9-5.2,37.8c0,1.7-0.1,3.3-0.5,4.9
		c-0.7,2.3-0.5,4.6-0.5,7c0,94.9,0,189.8,0,284.7c0,2.3-0.2,4.7,0.6,6.9c0.8,10.8,0.5,21.6,2.5,32.3c1,5.4,1.9,10.8,3.8,16
		c2,5.3,4.7,9.9,10.2,12.3c2.8,1.2,3.7,3.5,3.9,6.4c1,12.6,0.2,13.3-12.1,13.2c-18.8-0.1-37.6,0.1-56.4-0.1
		c-10,0.2-10.6-0.4-10.5-10.5c0-3.9,0.8-7.2,4.5-9.2c10.8-5.1,13-15.2,14.7-25.6c1.1-7,0.6-13.9,0-20.9c0-2.3,0.2-4.6-0.5-6.9
		c-2.9-23.7-10.2-46.1-20.7-67.4c-17-34.5-33.7-69.1-50.6-103.6c-12.9-26.3-25.6-52.7-38.5-78.9c-6.7-14.8-14.2-29.2-21-43.9
		c-1,0.1-1,1.8-2.3,1.5c-0.3-0.1-0.6-0.5-0.6-0.3c0.5,1.4,0.8,2.9,0.8,4.4c0.1,94.8,0,189.6,0,284.3c0,2.7-0.3,5.3,0.4,7.9
		c0.9,1.6,1.6,3.3,2.1,5c0.9,8.9,1.3,17.9,2.3,26.8c0.6,5.2,1.8,10.2,3.1,15.1c1.6,6,4.6,10.7,11.1,12.3c2.7,0.7,3.6,2.5,3.9,5.1
		c1.5,13.1,0.5,14.6-12.4,16.3c-7.9,1.1-15.8,2-23.8,3c-2.7,0.6-5.6,0.1-8.3,1c-10.4,0.6-20.5,3.3-30.7,5.1
		c-1.9-0.5-3.4,0.2-4.9,1.2c-6.6,2.3-13.6,3.2-20.4,4.6c-16.4,3.4-32.8,7-49.2,10.3c-2.2,0.4-4.5,1.4-6.8,0.1
		c-11.7,2.4-23.4,4.7-35.1,7.3c-3.5,0.8-4.6-0.2-4.2-3.5c0.2-1.3,0.2-2.7,0-4c-0.5-5.1,0-8.7,6.1-10.8c6.4-2.3,9.1-8.9,11.3-15.1
		c3.7-10.3,3.7-21,2.8-31.6c-3.3-37.3-10.2-74-22.1-109.6c-1.3-4-2.2-8.4-5.7-11.4c-8.3-11.8-18-22.2-30.9-29.2
		c-6.9-3.7-14.2-5.6-22-6.1c-4.3-0.2-6.3,1.5-7.1,5.7c-3.6,19-7.3,37.9-11.1,56.9c-5.4,27.3-10.7,54.6-16,81.8
		c-3.2,16.5-5.9,33.1-7.4,49.9c-0.6,6.2-0.2,12.3,1.3,18.4c1.5,6.3,4.4,11.5,10.7,14.1c3.4,1.4,4.7,3.8,4.8,7.3
		c0.6,13.5,0.7,13.4-12.3,17.2c-8.6,2.5-17.1,5.7-25.6,8.4c-1.7,0.6-3.4,1.5-5.3,1c-6.3,0.6-12,3.5-18,5.3
		c-6.2,1.8-12.4,3.9-18.4,6.1c-2.9,1-4.4,1-4-2.6c0.2-1.3,0.2-2.7,0-4c-0.7-5.7,0.6-9.7,6.2-13c6.5-3.9,10-11,13.1-17.9
		c8.6-19.1,13-39.4,17-59.8c9.4-47.2,18.4-94.5,27.5-141.8c0.3-1.8,0.4-3.6,0.7-5.4c0-0.2-0.1-0.5-0.1-0.7c-0.5-2.3,0.5-4.5,0.7-6.8
		c8.2-44.1,17-88,25.4-132c2.4-12.8,5.5-25.4,6.9-38.3c3.2-12.2,5.4-24.6,7.5-37.1c0.3-1.8-0.1-3.7,1.7-5
		c3.9-10.8,5.4-22.1,7.7-33.2c1.4-6.8,2.6-13.8,1.1-20.8c-0.8-3.9-2-7.5-5.8-9.3c-2.5-1.2-1.8-3.3-1.9-5.1
		c-0.1-12.5-0.1-12.5,12.2-12.5c31,0,62,0.1,93-0.1c3.7,0,5.1,0.8,4.6,4.6c-0.3,2.3-0.2,4.7,0,7c0.2,3.2,0,5.6-3.6,7.1
		c-2.8,1.1-3.6,4.2-4.1,7c0.4,0.9,0.8,1.8,0.9,2.8c2.3,35.8,9.9,70.8,15.7,106.1c14.4,87.8,30,175.3,46.7,262.6
		c2.3,11.9,4.8,23.8,9.7,35.1c1.7,4,3.8,7.7,6.6,11.1c2.7,3.3,5.9,5.4,10.4,4.5c4.3-3.3,5.9-8.3,7.1-13.2c2.6-9.9,3.9-20,3.5-30.3
		c0.9-5.3,0-10.6-0.3-15.9c-0.3-6-0.5-12-0.5-18c0-91.2,0-182.3,0-273.5c0-9.2,0.6-18.3,1.1-27.4c0.1-2.3,0.5-4.7-0.4-6.9
		c0.2-11-1.1-21.9-4.5-32.4c-2.2-6.7-5.4-12.7-13.6-13.4c-1.2-0.1-1.7-0.8-1.8-2c0-0.3,0-0.7,0-1c-1.2-14-1.2-14,12.7-14
		c41.9,0,83.9,0.1,125.8-0.1c4.6,0,6,1.3,5.3,5.5c-0.2,1.1-0.1,2.3,0,3.5c0.3,4.6,0.3,8.8-4.7,11.4c-1.8,0.9-3,3.1-3.3,5.3
		c-3,20.1,7.3,36.4,15.1,53.4c10,21.8,20.1,43.6,29.8,65.5c2.2,5,5.1,9.7,7,14.9c0.5,1.5,1.6,2.9,1.1,4.1c-0.4-4.5-0.3-9.5-0.2-14.5
		C940.2,409.3,939.8,407.2,941.5,405.6z"/>
	<path fill="#0055A4" d="M317.4,879.1c-12,6-24.1,11.9-36,18.1c-3.6,1.9-4.8,1.9-4.7-2.7c0.2-7.2,0-14.3-0.2-21.5
		c-0.1-2.5,0.2-3.8,3.3-4c6.9-0.6,10.8-5.4,13.7-11.1c4.5-9.1,5.9-19,7-28.9c1.6-15.1,2-30.2,2-45.4c0-159.3,0-318.5,0-477.8
		c0-21.1-0.2-42.3-4.8-63.1c-1-4.6-2.5-9-4.8-13.1c-2.9-5.2-6.7-9.2-13-9.8c-2.8-0.3-3.5-1.5-3.3-4.2c0.3-4.1,0.4-8.3,0.2-12.5
		c-0.2-3.7,1-4.9,4.8-4.8c9.7,0.3,19.3,0.1,29,0.1c63.8,0,127.6,0,191.4,0c2.3,0,4.7-0.1,7,0.2c9.6,1,17.8-0.7,21.3-11.4
		c1.5,12.4,3.1,24.8,4.6,37.3c1.5,1.7,1.8,3.9,2,6c4.4,38.5,9.1,76.9,13.3,115.4c0.4,4.1,0.9,8.3,1.6,12.4c0.1,5,1,9.9,1.6,14.8
		c0.7,6.5,0.2,7.9-5.2,11c-4.2,2.4-6.1,1.8-7.1-3c-1.9-8.9-4-17.9-6.5-26.6c-6-20.5-13.7-40.3-25.9-58.1
		c-7.8-11.8-17.3-21.9-29.2-29.6c-16.1-10.3-33.4-13.6-52.1-9.5c-12.4,2.7-20.2,10.5-23.8,22.4c-2.3,7.5-3.4,15.3-3.5,23.1
		c-0.2,24.5-0.1,48.9-0.1,73.4c0,6.3,0.3,6.5,6.4,6.6c4.8,0,9.7,0,14.5,0c8-0.6,15.9,0.5,23.9,0.1c14.8-0.8,24.2-7.8,28.3-22.2
		c3.9-13.4,4.8-27.2,3.7-41c-0.5-6.4,2.6-7.6,7.5-7.7c3.6-0.1,5.4,1.6,5.7,5.3c1.2,14.9,2.2,29.8,3.1,44.8c0.5,9,1.5,17.9,1.9,26.8
		c-0.1,2.1,0.1,4.1,0.5,6.1c1.4,23.2,3.4,46.4,4.7,69.6c0.6,10.9,1.4,21.9,2.4,32.8c0.2,2,0.6,4-0.9,5.7c0.6,10.1,1.3,20.2,1.8,30.3
		c0.1,2,1.4,5.2-2.8,4.7c-2.9-0.4-6.9,2.2-7.4-4.1c-1.5-18.9-4.9-37.5-12.9-55c-0.9-1.9-2-3.8-3.1-5.7c-4.3-3.8-6.6-9.1-10.4-13.4
		c-11.9-13.6-27.1-18.7-44.6-18.3c-6.3,0-12.7,0-19,0c-1.1,0-2.2,0.2-3,1.2c-0.7,1.6-0.5,3.3-0.5,5c0,90.3-0.1,180.6,0.1,270.8
		c0,1.8-0.2,3.7,0.4,5.4c0.8,14.7,2.1,29.4,4.6,43.9c1.3,7.3,2.9,14.6,6.4,21.3c2.9,5.5,6.8,9.8,13.4,10.6c1,0.1,1.9,0.5,2.4,1.5
		c0.1,0.8,0.2,1.5,0.3,2.3c0.1,0.2,0.2,0.3,0.2,0.5c2.7,20.8,2.3,18.5-13.5,26.5c-30,15.2-59.8,30.7-89.8,46
		C322.2,877.7,320.1,879.3,317.4,879.1z"/>
	<path fill="#0055A4" d="M1648.5,252.9c-0.2-0.5-0.5-1.1-0.7-1.6c-3-9.9-9.1-17.3-18.3-21.9c-3-1.5-3.9-2.9-3.7-5.9
		c0.2-3.6,0.3-7.3,0-11c-0.4-4.2,0.7-5.7,5.4-5.6c18.8,0.3,37.6,0.1,56.4,0.1c34.5,0,68.9,0.1,103.4-0.1c4.8,0,6.2,1.5,5.5,5.8
		c0,0.2,0,0.3,0,0.5c0,7.7,2.2,16.6-9,19.1c-3.8,6.5-7.3,13-7.7,20.8c-0.5,11.3,0.6,22.4,4,33.1c10.8,34.5,21.5,69,32.4,103.5
		c3,9.4,5.9,18.7,9.2,28.2c1.8-3.5,3.2-7.1,4.5-10.7c0.7-1.8,0.8-4,2.9-5c9.3-24.4,17.6-49.1,25.7-73.9
		c7.3-22.4,14.7-44.9,18.5-68.3c0.9-5.8,0.9-11.6-0.7-17.4c-1.9-7.1-5.9-12.3-13.4-14c-2.6-0.6-3.5-1.6-3.4-4.3
		c0.2-4.5,0.2-9,0-13.5c-0.2-3.2,1.1-3.9,4-3.8c28.3,0.1,56.7,0.1,85,0c3.1,0,4.2,0.9,3.8,4c-0.2,2.3-0.3,4.7,0,7
		c0.8,6.4-0.3,11.8-7,14.4c-0.3,1.4-1.1,2.4-2.1,3.3c-12.4,11.9-19.3,27.1-25,42.7c-11.9,32.3-23.7,64.7-35.3,97.2
		c-11.5,32.3-22.9,64.7-34.1,97.1c-2.6,7.7-5.2,15.5-8.2,23.1c-2.8,7.1-3.9,14.3-3.9,21.9c0.1,87.3-0.1,174.6,0.2,261.8
		c0.1,17.3,1.3,34.6,6.3,51.4c3.1,10.6,9.7,17.5,19.5,21.9c4.5-0.1,6.4,1.7,5.6,6.4c-0.4,2.7,0,5.6,0.1,8.3c0.7,2,1.9,4.3,0.2,6.1
		c-2.1,2.1-4.4,0.4-6.5-0.5c-30.7-14.1-61.7-27.6-92.4-41.6c-11.2-5.1-22.5-10-33.7-15.1c-2.5-1.1-5.6-1.5-7.1-4.3
		c-6.3-2.9-12.6-6-19-8.8c-2.5-1.1-3.6-2.3-3.5-5.1c0.3-4.8,0.2-9.7,0-14.5c-0.1-2.1,0.6-2.9,2.8-3c11.5-0.5,18-7.5,22-17.5
		c3.7-9.4,5.1-19.3,6.1-29.2c1.5-15.1,1.7-30.3,1.7-45.4c0-58.8,0-117.6,0-176.5c0-3.2-0.3-6.2-1.4-9.3
		c-21.2-60.9-42.3-121.8-63.5-182.7c-0.5-1.6-1.3-3-1.9-4.6c-2.1-1.7-2.8-4.2-3.4-6.5c-2.3-8.2-5.5-16.1-8.3-24.1
		C1657.5,274.1,1652.7,263.6,1648.5,252.9z"/>
	<path fill="#0055A4" d="M1174.6,685.9c1,0.1,1.9,0.3,2.9,0.4c2.7,1.7,1.2,4.5,1.4,6.7c0.2,2.1,0.1,4.3,0.1,6.4
		c-0.4,4.4,0.7,8.8-0.6,13.1c-1.6,1.1-3.4,1.2-5.3,1.2c-35.9,0-71.8,0.2-107.7-0.1c-6.1,0-12.3,0-18.4-0.1c-3.9,0-5.8-1.9-5.8-5.8
		c-0.1-5.8-0.1-11.6,0-17.4c0-3.3,1.5-5.3,4.9-5.8c11.6-1.7,17.5-9.3,20.5-19.8c2.2-7.7,3.2-15.6,3.5-23.6
		c0.3-6.5,0.9-12.9,1.6-19.3c0.2-0.6,0.6-1,1-1.4c0.7-0.6,1.5-1,2-1.8c0.6-1.4,0.4-3,0.4-4.5c0-87.4,0.1-174.9,0-262.3
		c0-0.5-0.1-1.1-0.2-1.6c-0.1-0.3-0.1-0.6-0.2-0.9c0-0.3,0.1-0.8-0.1-0.9c-0.6-0.4-0.3,0.4-0.6,0.5c-0.3,0.3-0.7,0.5-1.2,0.5
		c-0.5-0.2-0.8-0.5-1-0.9c-0.6-1.6-0.5-3.2-0.2-4.9c0.1-0.5,0.3-0.9,0.4-1.3c0.4-6.5,0.2-13,0-19.4c-0.1-2.5,2-4.9,0.3-7.5
		c-1.4-2.6-3.4-3-6.3-2.5c-17,3.3-29.7,12.7-39.1,26.9c-7.4,10-12.2,21.2-16,32.9c-3,9.3-5.3,18.8-6.9,28.5
		c-1.1,6.9-2.1,7.4-8.8,4.8c-2.2-1.6-2.1-3.9-2.1-6.2c0-4.4,1-8.8,1.3-13.2c0.8-3.9,1.4-7.8,1.7-11.8c2-18.4,4.1-36.8,6.6-55.1
		c0.3-2.5,0.3-5,0.6-7.4c1.1-6.4,1.5-12.8,2.6-19.2c0.3-1.8,0.4-3.6,1.7-5.1c1.3-10,2.7-20.1,4-30.1c0.2-1.4-0.3-3,1.3-4.4
		c3.9,7.6,10.7,9.5,18.3,9.3c30.3-1,60.6-0.3,90.8-0.4c22-0.1,43.9,0.1,65.9,0.2c8.8,0,16.9-1.4,22.4-10.2c1.5,12.5,3,24.1,4.4,35.8
		c2.5,3.8,2.3,8.3,2.7,12.5c2.6,25.6,6,51.2,8.6,76.8c0.2,2-0.7,3.9-0.6,5.9c0.6,5.8,0.9,11.6,2,17.3c0.9,4.6-2.3,4.7-5,5.7
		c-4,1.4-3-2.3-3.4-3.8c-4.1-17.8-9.2-35.2-17.6-51.6c-1-1.9-1.8-3.9-3.7-5.2c-7.3-8.8-13.6-18.5-23.9-24.5
		c-5.6-3.3-11.6-5.9-17.9-7.3c-3.2-0.7-4.8,0.3-4.7,3.7c0,1.5,0,3,0,4.5c0,102.2,0,204.4,0,306.7c0,10.3,1,20.6,2.9,30.8
		c2.2,11.1,6.3,20.8,18.3,24.6C1173.3,684.3,1173.9,685.2,1174.6,685.9z"/>
	<path fill="#EC1C23" d="M514.5,1766.4c6,11.1,0.6,17.7-7.2,24.9c-27.2,25.3-55.7,48.6-89,65.6c-23.2,11.9-47.5,20.3-74.1,18.9
		c-26.7-1.4-48.5-11.9-60.9-36.8c-9.1-18.2-8.3-37.4-3.2-56.5c5.8-21.6,17-40.4,30.4-58c25.2-33.2,57.1-59.1,91.4-82.1
		c24.2-16.3,49.5-30.8,77.4-39.9c11.8-3.8,23.8-6.3,36.3-5.7c20.7,1,32.3,15.2,29.6,35.9c-2.5,19.3-11.5,35.7-23.3,50.6
		c-25.9,32.8-56.7,59.9-93.5,80c-2.6,1.4-5.4,2.7-8.1,3.8c-14.4,5.6-30.9-6.2-30.4-21.8c0.1-4.7,2.6-8.5,5.4-12.1
		c7.9-10,17.6-18.1,27.7-25.8c8.6-6.6,17.8-12.3,27-18c2.5-1.5,4.3-2.1,4.5,1.7c0.2,3.6,1.7,3.4,3.9,1.5
		c16.9-13.6,32.9-28.2,45.3-46.2c3-4.4,5.9-8.9,7-14.2c1.6-7.4-1.4-10.9-9-10.1c-5.2,0.6-10,2.5-14.6,4.9
		c-55,28.8-102.4,66.5-136,119.6c-11.7,18.5-20.1,38.4-18.8,61c0.9,16,10.5,27.2,26.1,30.4c6.6,1.3,13.2,1.3,19.9,0.6
		c22.9-2.5,43.6-11.6,63.6-22.3c23.4-12.6,44.9-28,65.7-44.5C509.9,1770,512.2,1768.2,514.5,1766.4z"/>
	<path fill="#EC1C23" d="M933.4,1784c-17.9,16.1-33.7,34.1-49.3,52.4c-6.7,7.9-13.4,15.7-21.5,22.3c-8,6.5-14.9,4.4-17.4-5.7
		c-3.2-12.9-2.1-26.1-2.1-39.3c-0.1-19.6,7.4-36.7,17.4-52.8c31.2-50.5,66.5-97.7,110.1-138.3c4.4-4.1,8.9-8,14.1-11.1
		c6.5-3.8,16.4-0.7,19.8,5.9c1.3,2.6,0.3,4.9-0.6,7.2c-2.2,6-5.5,11.4-8.9,16.7c-26.3,40.8-56.6,78.6-87.8,115.7
		c-11.2,13.2-22.6,26.2-34,39.3c-1.6,1.8-2.7,3.6-2.9,6.1c-0.4,4.5-1.1,8.9-1.7,13.4c2.3-0.3,3.1-2.1,4.3-3.4
		c21.1-22,42.7-43.5,67.1-62c5.7-4.3,11.6-8.4,18-11.6c5.8-2.9,10.9-2.2,15.5,2.3c1.8,1.7,3.5,3.5,5.1,5.5c5.1,6.3,5.3,10,0.8,16.7
		c-9.7,14.4-21.2,27.4-30.6,42c-2.9,4.5-5.5,9.1-7,14.3c-2.3,8.3,2.9,13.6,11.2,11.2c7.8-2.2,14.3-7,20.8-11.7
		c9.6-7.2,18.5-15.3,27.2-23.5c1.2-1.1,2.4-2.2,4.1-3.6c0.9,8.7,1.3,15.9-5.5,22.7c-15.9,15.9-30.9,32.7-49.7,45.4
		c-6.4,4.3-13,8-20.7,9.6c-11.5,2.5-20-2.9-22.8-14.4c-1.9-7.7-0.8-15.2,1.8-22.6c5.6-15.9,14.9-29.7,23.7-43.8
		c0.8-1.3,1.6-2.5,2.4-3.8c0.3-0.5,0.7-1.1,0.2-1.7C934.3,1783.7,933.8,1783.8,933.4,1784z"/>
	<path fill="#EC1C23" d="M1862.8,853c-10.8-1.2-15.9-8.6-19.5-17.7c-4.5-11.6-5.7-23.9-6.7-36.2c-1-12.5-1.2-24.9-1.2-37.4
		c0-78.8,0.2-157.6-0.2-236.4c-0.1-13.1,2.3-25.2,6.6-37.4c24.7-69.9,49.3-139.9,74.9-209.5c5.2-14.2,11.5-28,21.6-39.7
		c2.1-2.4,4.2-4.7,7-6.3c8.3,0.1,16.6,0.3,25,0.1c3.2,0,4.7,0.8,4.2,4.2c-0.1,0.3,0,0.7,0,1c0.9,9.3-0.3,16.5-9.5,22.9
		c-12.5,8.7-18.4,23.5-23.6,37.5c-12.6,33.5-24.8,67-36.7,100.7c-15.5,43.5-30.7,87.2-46,130.8c-0.7,1.9-1.1,3.8-1.1,5.8
		c0.1,87.1,0,174.2,0.2,261.4C1857.7,815.7,1858.8,834.5,1862.8,853z"/>
	<path fill="#EC1C23" d="M1355.3,724.8c26.4,3.6,52.7,7.2,79.1,10.8c6.8,0.9,13.5,1.9,20.3,2.7c3.3,0.4,5.4,1.3,5.1,5.5
		c-0.3,4.3,0.4,8.6,0.7,14.2c1.7-2.4,2.8-3.9,3.9-5.4c6.8-9.4,13.4-11.9,24.7-8.7c9.6,2.8,19,6.2,28.5,9.1
		c29.1,8.8,57.9,9.1,86.2-3.6c21.1-9.6,37.1-24.9,49.8-44c17-25.6,25.1-54.1,27.8-84.4c2.7-29.2,0.8-58.2-7.2-86.5
		c-3.3-11.6-8-22.5-13.6-33.2c-0.3-1.1,0.3-1.4,1.2-1.3c16.4,15.3,26.9,34.3,33,55.5c14.9,51.3,14.4,102.3-6.5,152
		c-12.4,29.5-32,53.3-61.8,67.1c-26.8,12.4-54.3,13-82.3,5.1c-9-2.5-17.7-5.7-26.6-8.5c-18.2-5.8-23.3-4.1-34.8,12.2
		c-0.4-5.3-0.9-9.8-0.9-14.2c0-3.5-1-4.8-4.7-5.2c-20.3-2.6-40.5-5.5-60.8-8.6c-5-0.8-8.6-0.1-11.8,4.6
		c-4.7,7.1-10.2,13.6-15.3,20.3c-18.7,0.3-37.4,0.5-56.1-0.1c-0.2-2,1.2-3,2.5-4c11.3-8.8,22.6-17.6,34-26.1c0.8,0-0.2-1.1,0.1-0.5
		c0.1,0.1-0.1,0.1-0.3,0.2c-0.6,0.2-1.3,0.2-2,0.2c-13.4-1.1-13.4-1.1-13.3-14.4C1354.3,731.9,1353.3,728.2,1355.3,724.8z"/>
	<path fill="#EC1C23" d="M805.4,343.6c6.1,12.7,12.2,25.3,18.2,38c1.1,2.4,2.1,4.8,3.1,7.3c1.1,3.7,1.3,7.5,1.3,11.4
		c0,91.1-0.1,182.3,0.1,273.4c0,12.8,0.8,25.6,3.9,38.2c1.8,7.5,4.6,14.4,12.9,17.1c1.7,0.6,2.7,2,2.9,3.8c0.4,4,0.5,8,0,12
		c-0.4,3.4-3.2,4-5.9,4.4c-6.4,1-12.9,1.6-19.3,2.5c-1.4,0.2-3-0.2-4.5,1.5c4.7,4,9.5,7.7,14.3,11.5c4.6,3.6,9.4,6.9,13.9,10.6
		c1.6,1.4,3.6,2.5,3.8,5c-18.8,0.5-37.5,0.4-56.3,0c-5.2-6.7-10.4-13.4-15.4-20.3c-1.7-2.3-3.2-2.5-5.8-2
		c-35.8,7.6-71.6,15-107.4,22.5c-4,0.8-8.1,1.7-12.6,2.6c0-5.1,0-10,0-14.8c0-1.3,0.5-2,1.9-2.4c8.4-2.4,12.6-8.7,15.1-16.5
		c24.2-5.1,48.5-10.2,72.7-15.3c1.5-0.3,2.9-0.7,4.4-1.1c0.9-0.5,1.9-0.9,3-0.7c8.7-1.3,17.1-4.6,26-4.9c2-0.1,3.9-0.2,5.9-0.3
		c2.8,0.8,5.7,2.8,7.8-1c9.3-1.3,18.7-2.7,28-3.8c7.3-0.9,7.3-0.7,7.3-8.2c0-0.8-0.1-1.7,0-2.5c0.5-4.3,0.1-7.4-5.4-8.2
		c-4-0.6-6.2-4.2-7.9-7.8c-4-8.6-5-17.8-5.8-27.1c-0.6-6.8-0.8-13.6-1.2-20.4c-1.3-4.4-1.3-8.8-1.3-13.3c0-93.2,0-186.4,0-279.6
		c0-3.7,0.7-7.3,1-10.9C804.1,343.5,804.6,343.2,805.4,343.6z"/>
	<path fill="#EC1C23" d="M1321.8,954.3c-16.6-3.2-33.1-6.3-49.7-9.5c-3.9-0.7-7.8-1.4-11.7-2c5.4-6.8,12.3-11.7,20.5-14
		c24.9-7,50-13.7,75-20.4c9.6-2.6,19.3-5.1,28.8-7.9c2.9-0.8,5.8-1.6,8.8-1.1c6.6,2.7,13,5.6,18.5,10.3c0.8,0.7,1.8,1.6,3.1,1
		c1.3-0.6,1-2,1-3.1c0.1-4.8,0.1-9.6,0.2-14.4c24.4-6.5,48.8-13,73.2-19.5c30.8-8.3,61.6-16.6,92.4-24.9c1.1-0.3,2.1-1,3.9-0.1
		c-70.7,40.4-141,80.5-211.4,120.7c-15.6-4.5-31.1-9-46.7-13.5c0.1-2.5,2.4-2.5,3.9-3.2c14.9-6.9,30.2-12.9,45.2-19.4
		c4.1-1.3,8-3.3,12-4.7c1.7-0.7,3.3-1.6,5.1-2.2c1.2-0.5,2.6-0.8,3.7-1.7c1.3-0.4,2.4-1.3,3.8-1.2c2.4-1.7,5.4-2,7.8-3.6
		c-2.3,1.7-5.3,1.7-7.6,3.4c-1.4,0.2-2.6,0.7-3.9,1.3c-1.4,0.8-2.9,1.4-4.4,1.9c-1.7,0.7-3.4,1.4-5.1,2.2c-4.3,1.7-8.6,3.4-12.8,5.2
		c-15.8,6.4-31.5,13-47.4,19C1326,953.7,1323.9,954.3,1321.8,954.3z"/>
	<path fill="#EC1C23" d="M1095.6,1317.2c10.4-0.6,20.7-1.3,31.1-1.9c-2.9,22.6-5.8,45.2-8.7,67.8c-3.8,29.9-7.7,59.7-11.5,89.5
		c-4.1,32-8.3,64-12.4,96c-0.6,4.8-1.1,9.6-1.7,14.4c-0.5,0.8-1.1,0.8-1.7,0.1c-2.7-21.8-5.4-43.6-8.2-65.3
		c-3.8-29.5-7.8-59-11.6-88.5c-4.8-36.9-9.5-73.9-14.3-110.8c12-0.4,24-0.7,35.9-1.1c2,2,1.5,4.6,1.5,7.1c0.3,18.4,0,36.8,0,55.3
		c0,3.1,0,6.2,0,9.2c0,2.7,0,5.3,0,8c0,2.3,0.1,4.7-0.2,7.9c0.3-3.2,0.1-5.5,0.2-7.8c0-2.7,0-5.3,0-8c0-3.1,0-6.2,0-9.3
		c0-18.5,0.3-37,0-55.5C1094,1321.8,1093.6,1319.2,1095.6,1317.2z"/>
	<path fill="#EC1C23" d="M501.7,796.3c10.1-4.7,21-7.4,31.5-11c10.5-3.5,10.4-3.3,10.7-14.3c0.1-3.9-0.4-6.3-4.7-7.8
		c-7.5-2.5-10.2-9.1-11.5-16.2c-2.7-14.6-0.2-28.9,2.3-43.2c9.5-55.4,21.4-110.3,31.8-165.6c0.6-3.2,1.9-4.2,5.2-4.3
		c19.6-0.1,34.1,9.8,46.8,23.4c3.6,3.9,7.7,7.7,8.9,13.3c-9.9-6.6-20.5-10.9-32.6-11c-3.9,0-5.4,1.2-6.1,5
		c-8.7,44.9-17.5,89.8-26.3,134.7c-3.8,19.3-7.4,38.6-8.5,58.2c-0.4,6.9,0,13.6,2.3,20.2c2,5.7,5.5,9.9,11.4,11.6
		c2.7,0.8,3.5,2.1,3.6,4.9c0.1,12.8,0.2,12.8-12,16.8c-22,7.2-43.9,14.4-65.8,21.8c-4,1.3-5.9,1-5.1-3.7c0.1-0.3,0-0.7,0-1
		c-0.7-6.3,0.2-11.3,6.7-15.2C496.1,809.6,500,803.4,501.7,796.3z"/>
	<path fill="#EC1C23" d="M1202.7,1307.7c9.5-1.4,19-2.7,28.5-4.1c11.9,43.8,23.7,87.5,35.6,131.3c9.6,35.4,19.2,70.8,28.8,106.3
		c0.3,1.1-0.2,1.3-1.1,1.1c-33-57.2-65.9-114.3-98.9-171.5c-11.2-19.4-22.3-38.9-33.4-58.4c12.6-1.4,25.2-2.7,37.8-4.1
		c3.8,3.1,4.5,7.9,6.3,12c2.4,5.4,4.9,10.8,6.8,16.4c1.7,4,3.4,7.9,5.1,11.9c0.8,1.9,1.4,3.9,2.6,5.6c0.2,1.1,0.4,2.3,1.1,3.2
		c1.1,3,2.3,6,3.7,8.9c0.8,2.4,2,4.6,2.9,6.9c0.5,0.6,0.4,1.5,0.8,2.1c-0.3-0.8-0.4-1.7-1-2.4c-0.8-2.4-2-4.6-3-6.9
		c-1.1-2.8-2.3-5.6-3.3-8.4c-1-1.3-0.8-3.1-1.9-4.4c-0.7-1.7-1.6-3.4-2.1-5.2c-1.8-3.9-3.3-8-5.1-11.9c-2.9-7.7-6.3-15.1-9.3-22.7
		C1203,1311.5,1201.9,1309.7,1202.7,1307.7z"/>
	<path fill="#EC1C23" d="M1174.6,685.9c-12.6-2.5-19.3-10.4-22.1-26.1c-2.1-11.3-2.9-22.8-3-34.3c0-103,0-205.9-0.1-308.9
		c0-4.8,1-5.7,5.7-4.7c19.1,4,32.2,15.7,42.2,31.7c0.3,0.5,0.2,1.3,0.3,1.9c-6.6-3.7-13.4-6.5-20.8-8.2c-4.3-0.9-5.3,0.1-5.3,4.5
		c0.1,88.9,0.1,177.8,0.1,266.7c0,19.3-0.5,38.6,0.7,57.9C1172.8,673,1173.8,679.4,1174.6,685.9z"/>
	<path fill="#EC1C23" d="M947.8,1317.6c11.2,0.7,22.4-0.1,33.5,1.2c-0.3,5.6-3.7,10.2-5.4,15.3c-0.5,1.6-1.5,3-1.9,4.6
		c-1.6,3.6-2.9,7.3-4.5,10.9c1.7-3.3,2.7-6.9,4.4-10.2c2.9-6.8,5.2-13.8,8.8-20.3c4.9-1.5,9.9-0.5,14.8-0.5c6.5-0.1,13,0.3,19.4,0.5
		c-15.6,27.1-31.1,54.3-46.7,81.4c-26.5,46-53,92-79.5,138c-0.8,1.4-1,3.7-3.8,3.6c6.4-23.6,12.8-47.1,19.2-70.6
		c13.8-50.5,27.5-101,41.3-151.5C947.6,1319.2,947.6,1318.4,947.8,1317.6z"/>
	<path fill="#EC1C23" d="M760.9,710.1c-2.4,3.1-4.9,2.6-7.7,0.3c-4.7-3.8-7.7-8.7-10-14.1c-6.8-15.5-9.6-32.1-12.7-48.6
		c-9.3-50.5-18.7-101-27.6-151.6c-7.8-44.2-15.1-88.5-22.5-132.8c-3.3-19.7-6.4-39.4-9.5-59.1c-0.9-5.4-1.4-10.9-0.1-16.4
		c8.7,0,17.3,0.1,26,0c2.9,0,4.4,0.6,4,3.9c-0.3,2.3-0.2,4.7,0,7c0.2,3.5-0.2,6.1-3.9,8c-3.8,2-4.2,6.5-4.4,10.6
		c-0.5,10.4,1.9,20.5,3.6,30.7c8.7,53,17.4,106,26.5,158.9c11,63.4,22,126.7,34.9,189.8C758.4,701.1,759.8,705.6,760.9,710.1z"/>
	<path fill="#EC1C23" d="M1456.3,668.9c0.6,13.9,1.2,27.8,1.8,42.4c-5.6-3.2-8-8.1-10.2-12.9c-6.7-14.5-9.4-30.1-12.3-45.6
		c-8.2-44.3-16.5-88.6-24.5-132.9c-9.4-52.2-18.6-104.4-27.7-156.7c-3.7-21.1-6.9-42.3-10.4-63.5c-0.7-4-0.6-8,0.6-11.9
		c8.7,0,17.3,0.2,26,0c2.9-0.1,4.4,0.6,4,3.8c-0.2,2-0.1,4-0.1,6c0,3.7,0.2,6.7-4.1,9.4c-5.4,3.4-5.1,10.3-4.2,16
		c2.6,18.6,5.5,37.2,8.7,55.7c10.1,57.8,20.2,115.6,30.6,173.4c6.5,36.5,13.5,72.9,20.3,109.3
		C1456.8,663.6,1455.4,666.5,1456.3,668.9z"/>
	<path fill="#EC1C23" d="M427.2,801.5c-9.7,0.1-14.7-5.8-18.2-13.8c-3.9-8.9-5.6-18.4-6.8-28c-1.4-11.4-3-22.8-2.8-34.3
		c-1.4-3.2,1.3-6.2,0.7-9.4c0.1-89.4,0-178.8,0-268.2c0.5-2.6-1.9-4.9-0.6-7.6c1,0,2-0.1,3-0.1c7,1,14,0.6,21,0.1
		c24-0.9,44.5,11.7,53.9,32.9c-17.1-9.3-35.8-7.6-54.2-7.8c-1.7,0-2.5,0.7-2.5,2.4c0,1.3,0,2.7,0,4c0,87.4-0.1,174.9,0.1,262.3
		C420.8,756.7,422.6,779.2,427.2,801.5z"/>
	<path fill="#EC1C23" d="M725.2,1074c11.7-5.2,24.1-8.4,36.3-12c14.2-4.2,28.3-8.4,42.9-11c25.3,0.5,50.6,1,75.9,1.4
		c51,0.9,101.9,1.8,152.9,2.7c1.2,0,2.5,0,3.9,1.1c-7.2,1.6-14.4,3.2-21.6,4.8c-47.5,10.2-94.9,20.3-142.4,30.5
		c-9.3,2-18.2-0.7-27.2-1.8c-32.9-4-65.7-8.3-98.5-12.6C740,1076.1,732.6,1075,725.2,1074z"/>
	<path fill="#EC1C23" d="M827.4,1159.1c-10-5.3-19.2-11.6-27.2-19.6c24.4-13.9,48.8-27.9,73.2-41.8c8.4-4.8,17.9-4.8,27-6.4
		c39.4-7.3,78.8-14.3,118.2-21.5c1-0.2,1.9-0.5,2.9-0.8c4.1-1.5,8.4-2.3,12.7-3.1c1.4,0.2,2.8,0.2,3.4,1.8c-0.6,2.6-3,3-4.9,3.8
		c-20.8,9-41.6,18-62.4,27c-43.7,18.9-87.5,37.7-131.2,56.7C835.4,1156.8,831.7,1159,827.4,1159.1z"/>
	<path fill="#EC1C23" d="M1329.8,1283.3c7.3-2.8,14.8-4.9,22.5-6.6c17.4,22.3,34.8,44.6,52.1,67c20.3,26.2,40.6,52.4,60.8,78.6
		c1,1.3,2.7,2.5,2.4,5.5c-6.6-5-12.6-9.6-18.6-14.2c-52.3-40.2-104.5-80.4-156.8-120.5c-0.3-0.2-0.5-0.5-0.7-0.7
		c11.9-2.9,23.8-5.7,35.7-8.6c3,0.5,4.2,3.4,6.3,5c1.7,1.8,3.6,3.5,5.3,5.3c1.6,1.3,2.9,2.9,3.8,3.8c-0.7-0.8-1.8-2.2-3.2-3.3
		c-1.7-1.7-3.5-3.4-5.2-5.2C1332.9,1287.2,1329.7,1286.5,1329.8,1283.3z"/>
	<path fill="#EC1C23" d="M317.4,879.1c16.6-8.7,33.3-17.3,49.9-25.9c18.9-9.7,37.8-19.4,56.7-29.1c2.4-1.2,3.4-2.7,3.3-5.4
		c-0.1-5,0.1-10,0.1-15c1.7,4.1,3.1,8.4,5.1,12.4c3,5.9,7.4,10.3,14.4,10.9c2,0.2,2.4,1,2.4,2.8c-0.1,5.3-0.2,10.7,0,16
		c0.1,3.1-2.3,3.4-4,4.3c-38.5,19.7-76.9,39.4-115.4,59.1c-9.2,4.7-18.4,9.3-27.5,14.1c-2.4,1.3-3.5,1.3-3.5-1.9
		c0-7.7-0.3-15.3-0.4-23c0-1.6-0.4-3.2,2.2-3.5C310.4,893.9,314.6,887.2,317.4,879.1z"/>
	<path fill="#EC1C23" d="M635.7,1577.3c-3,12.9-6.2,25.7-8.9,38.7c-0.8,3.7-2.3,4.5-5.7,4.3c-4.5-0.3-10,1.3-13.1-0.8
		c-3.2-2.2-2.3-8.3-3.2-12.6c-3.5-18.3-6.7-36.6-10.2-54.9c-0.7-3.8,0.2-4.8,4.1-4.8c13,0.1,13,0,15,13.1c1.3,8.2,2.7,16.4,4.1,25.3
		c2.5-4,2.6-8.1,3.5-11.8c1.9-7.6,3.6-15.2,5.2-22.9c0.6-2.9,1.8-3.8,4.7-3.6c4.5,0.3,9.9-1.2,13.2,0.8c3.1,1.9,2.5,7.8,3.6,11.9
		c2.1,8.4,3.9,16.8,6.1,26.1c2.2-6,2.3-11.7,3.3-17.1c1.2-6.2,2.1-12.5,3-18.7c0.3-2.3,1.3-3.1,3.5-3.1c3.8,0.1,7.7,0.2,11.5,0
		c3-0.2,3.2,1.2,2.7,3.6c-4.1,21.7-8.1,43.5-12,65.3c-0.6,3.1-1.6,4.6-5.1,4.2c-4.6-0.5-10.3,1.7-13.6-0.8c-3.3-2.5-2.7-8.5-3.8-13
		c-2.4-9.6-4.5-19.3-6.7-29C636.5,1577.4,636.1,1577.4,635.7,1577.3z"/>
	<path fill="#EC1C23" d="M808.8,1304.8c18.8,2.5,37.7,5,56.5,7.4c-18.3,14.2-36.5,28.4-54.9,42.5c-30.3,23.4-60.7,46.7-91.1,70
		c-1.2,0.9-2.4,1.7-3.7,2.6c-0.6,0.4-1.1,0.3-1.5-0.2c19.2-24.9,38.4-49.8,57.6-74.7C784.1,1336.5,796.5,1320.7,808.8,1304.8z"/>
	<path fill="#EC1C23" d="M501.6,502.9c-2.5-36.3-5-72.7-7.6-109c0.1-1.7,0.5-3.4,0.8-5.1c4.1-14.3,4.4-28.9,4.2-43.6
		c-0.1-3.2,0-6.3,4.2-7.4c6.2-1.6,8.4-0.6,9.1,5.8c1.3,12.1,1.9,24.2,2.7,36.3c1.2,17.7,2.5,35.5,3.7,53.2
		c0.8,11.6,1.6,23.2,2.4,34.8c1.2,17.7,2.5,35.5,3.6,53.2c0.7,11.9,2.4,23.8,1.8,35.8c-0.8,2,0.1,4.3-0.9,6.3c0,0,0.1,0,0.1,0
		c-9.2,0.7-9.2,0.7-10.3-8.2c-2-16.2-4.8-32.1-11.2-47.3C503.4,506,502.4,504.5,501.6,502.9z"/>
	<path fill="#EC1C23" d="M754.4,890.2c-2.8,14.3-6.8,28.4-10.4,42.5c-33.6-19.2-67.3-38.5-100.9-57.7c-14.7-8.4-29.4-16.8-44.2-25.3
		c1.7-1.5,3.4-0.6,4.9-0.2C654,863.1,704.2,876.6,754.4,890.2z"/>
	<path fill="#EC1C23" d="M1832.8,402.1c-2.2,6.7-4.5,13.4-6.7,20c-0.4,0-0.8-0.1-1.2-0.1c-3.4-10.7-6.7-21.4-10.1-32.1
		c-10.7-34.1-21.4-68.2-31.9-102.4c-4.2-13.5-6.4-27.2-3.4-41.3c1.1-5.5,3.2-10.5,8-13.9c8.8,0.1,17.6,0.4,26.4,0.2
		c3.8-0.1,5.2,1.1,4.7,4.8c-0.2,1.8-0.1,3.7,0,5.5c0.3,6.1,0.7,11-7.2,14.3c-9,3.8-10.1,13.8-10.8,22.7c-1.2,15.1,3.2,29.3,7.6,43.4
		C1816.4,349.5,1824.6,375.8,1832.8,402.1z"/>
	<path fill="#EC1C23" d="M719.2,1031.1c-3.5,13.7-7,27.4-10.6,41.1c-41.7-5.4-83.5-10.7-125.2-16.1c-8.6-1.1-17.2-2.1-25.7-3.1
		c-0.8-0.6-0.8-1.2,0-1.8c20.3-2.5,40.6-5,60.9-7.6C652.1,1039.5,685.7,1035.3,719.2,1031.1z"/>
	<path fill="#EC1C23" d="M1572.9,424.3c-7.7-4-12.5-10.8-17.1-17.6c-14.8-22-20.1-45.7-12.2-71.5c2.6-8.6,7.5-15.9,14.3-21.8
		c11.3-9.8,25.1-10.9,39.3-2.6c12.1,7,21.2,17.3,28.2,29.3c-6.4-4.2-13-8.1-20.9-8.9c-16-1.5-26.8,6.8-34.1,19.7
		c-11.5,20.2-10.2,41.4-2.5,62.6C1569.4,417.1,1571.3,420.7,1572.9,424.3z"/>
	<path fill="#EC1C23" d="M785.1,1583.8c0-10.7,0.1-21.3-0.1-32c-0.1-3.3,0.7-4.9,4.4-4.6c3.5,0.3,7,0.2,10.5,0c3-0.2,4.1,0.8,4,3.9
		c-0.2,6,0.1,12-0.1,18c-0.1,3.1,0.9,4.1,4,3.9c4.3-0.2,8.7-0.2,13,0c3,0.2,3.7-1,3.6-3.8c-0.2-6,0.1-12-0.1-18
		c-0.1-2.8,0.4-4.4,3.7-4.1c4.8,0.5,11-1.9,14,0.9c3.2,2.9,1,9.2,1,13.9c0.1,17.8-0.1,35.7,0.1,53.5c0.1,4.1-1.3,5.2-5.1,4.8
		c-3.5-0.3-7-0.2-10.5,0c-2.7,0.2-3.4-0.8-3.4-3.4c0.1-7.2-0.1-14.3,0.1-21.5c0.1-3.3-0.7-4.9-4.4-4.6c-5.1,0.4-11.7-2-15,0.9
		c-3.4,3-0.8,9.7-1.1,14.8c-0.2,3.3-0.3,6.7,0,10c0.3,3.3-1.1,4-4,3.8c-3.5-0.2-7-0.3-10.5,0c-3.7,0.4-4.4-1.2-4.3-4.5
		C785.3,1605.1,785.1,1594.5,785.1,1583.8C785.1,1583.8,785.1,1583.8,785.1,1583.8z"/>
	<path fill="#EC1C23" d="M550.5,358.6c-1.7-13.2-3.4-26.4-4.9-39.5c-3.6-30.4-7.1-60.7-10.6-91.1c-0.1-1.1-0.1-2.3-0.2-3.5
		c8.1,0.3,14.2-2.8,17.8-10.9c5,43.2,10.1,86.4,15.1,129.6c-1.3,14.3-4,28.3-8.1,42c-2.1-1.2-2.5-3.4-3.1-5.4
		C554.6,372.7,552,365.8,550.5,358.6z"/>
	<path fill="#EC1C23" d="M1729,812.4c19.4,8.6,38.9,17.2,58.3,25.9c25.8,11.5,51.6,23.1,77.4,34.7c0.9,0.4,1.8,0.7,3.3,1.2
		c0.2-2.4,0.4-4.4,0.5-6.5c4.9,6.9,11.1,11.4,19.9,11.4c1.5,0,2.1,0.6,2.1,2c0,6.1,0,12.2,0,19c-13.1-5.9-25.5-11.4-37.8-17
		c-39.9-17.9-79.7-35.8-119.7-53.6c-3-1.3-4.5-2.8-4.2-6.2C1729.1,819.7,1729,816.1,1729,812.4z"/>
	<path fill="#EC1C23" d="M1224.7,378.6c-3.4-29.4-6.7-58.7-10.1-88.1c-0.1-0.8,0-1.7,0-2.5c7-0.9,13.4-2.7,17.8-10.6
		c1.1,9.2,2.1,17.2,3,25.2c4.3,37.5,8.5,75.1,12.8,112.6c0.4,4,0.8,7.9,1.3,11.9c0.2,1.9-0.3,3-2.2,3.8c-3.4,1.4-5.3,1.8-6.3-3
		c-3.3-15.8-7.9-31.3-14.8-46C1224.6,381.3,1225.3,379.6,1224.7,378.6z"/>
	<path fill="#EC1C23" d="M1661.7,285.1c4.2,10,7.4,20.4,10.7,30.8c1.6,24.7,3.1,49.5,4.7,74.2c0.6,9,0.9,18,1.8,26.9
		c0.5,4.4-2.6,4.2-5.1,5c-3.6,1.1-3.2-2-3.6-3.8c-3.1-12.5-7.3-24.5-12.8-36.1c-1.2-0.6-1.2-1.9-1.5-3c-2-29.5-3.9-59-5.9-88.5
		C1653.4,287.7,1657.2,285.7,1661.7,285.1z"/>
	<path fill="#EC1C23" d="M880.5,1037.3c34.9-4.5,69.9-6,105-5c12.9,3.8,26.1,5.8,39.2,8.9c4.4,1,8.8,2,13.1,3.9
		c-67.8,1.1-135.5,2.1-203.3,3.2c-5.7,0.3-11.4,0.9-17-0.3c19.4-4.5,38.9-8,58.8-10C877.7,1037.7,879.2,1038.4,880.5,1037.3z"/>
	<path fill="#EC1C23" d="M746.2,1547.3c8.3,0,16.7,0.1,25,0c2.5,0,3.6,0.6,3.5,3.3c-0.2,4-0.2,8,0,12c0.1,2.2-0.8,2.9-2.9,2.8
		c-3.7-0.1-7.4,0.4-11-0.1c-4.7-0.6-5.4,1.4-5.3,5.5c0.2,15.2,0,30.3,0.2,45.5c0,3.4-1,4.3-4.2,4.1c-3.6-0.3-7.3-0.3-11,0
		c-3.1,0.2-4-0.8-3.9-3.9c0.2-15.5-0.1-31,0.2-46.5c0-3.7-0.9-5.3-4.7-4.6c-0.2,0-0.3,0-0.5,0c-4.5-0.1-10.6,1.5-13-0.7
		c-3-2.9-0.6-9.1-1-13.9c-0.3-3,1-3.6,3.7-3.5C729.5,1547.4,737.8,1547.3,746.2,1547.3z"/>
	<path fill="#EC1C23" d="M941.5,405.6c0,7.2,0,14.5,0,21.7c-0.3,0.1-0.6,0.2-0.9,0.2c-3.8-8.4-7.7-16.7-11.5-25.1
		c-12.6-27.5-25.3-54.9-37.8-82.5c-3.4-7.6-5.9-15.5-5.8-24.1c0-2.8,0.4-5.6,1.8-8.1c8,0,16,0.4,23.9-0.1c5.5-0.4,7,1.6,6.2,6.6
		c-0.2,1.1-0.1,2.3,0,3.5c0.4,4.1-0.4,7.2-4.2,10.1c-5.6,4.3-6,11.2-5.3,17.8c1,10.1,5,19.2,9.2,28.3c7.4,16,14.8,31.9,22.2,47.9
		C940,403.1,940.8,404.3,941.5,405.6z"/>
	<path fill="#EC1C23" d="M1500.7,1043.1c-2.6-2.7-5.1-5.3-7.7-8c13.5,0.6,26.8,3,40.1,4.7c30.7,3.8,61.4,7.7,92.1,11.6
		c0.8,0.6,0.9,1.1,0,1.6c-23.1,2.9-46.2,5.8-69.3,8.7c-12.2,1.5-24.4,3.1-36.6,4.7c-5.3-6.7-10.5-13.5-15.8-20.2
		C1502.8,1044.9,1501.8,1044,1500.7,1043.1z"/>
	<path fill="#0254A6" d="M2083,259.3c3.9-10.3,7.8-20.5,11.6-30.7c2.4-6.2,4.6-12.5,7.1-18.7c2.3-5.8,7.2-2.4,10.8-2.7
		c3.6-0.4,1.9,3.2,1.9,4.9c0.1,18.2,0,36.3,0.1,54.5c0,2.8,0,4.6-3.8,4.6c-3.6,0-4.4-1.1-4.4-4.6c0.2-15.5,0.1-30.9,0.1-46.8
		c-2,1.5-2.2,3.5-2.9,5.3c-5.4,14.1-10.8,28.2-16,42.4c-1,2.6-2.2,3.6-5,3.6c-2.8,0-4.1-0.9-5-3.5c-5.3-14.4-10.7-28.6-16.1-42.9
		c-0.6-1.5-1.2-3.1-2.8-4.6c0,2.3,0,4.7,0,7c0,13.3-0.1,26.7,0.1,40c0.1,3.5-1.4,4-4.4,4c-3.1,0-3.9-1-3.9-4
		c0.1-18.8,0.1-37.7,0-56.5c0-2.9,0.8-3.6,3.6-3.7c8.2-0.1,8.2-0.2,11.1,7.6c5.1,13.7,10.2,27.4,15.4,41.1
		C2081.1,256.9,2081.2,258.3,2083,259.3z"/>
	<path fill="#EC1C23" d="M1467.6,1224.5c9.3-6.7,18.3-13.7,27-21.2c30.3,17.3,60.6,34.6,90.8,51.9c0.3,0.9,0.1,1.3-0.9,1
		C1545.5,1245.6,1506.6,1235.1,1467.6,1224.5z"/>
	<path fill="#EC1C23" d="M687.5,1583.2c0-10.7,0.1-21.3-0.1-32c0-3,0.7-4.2,3.9-4c4.8,0.3,11-1.5,14,0.9c3.2,2.6,1,9,1,13.8
		c0.1,18,0,36,0.1,54c0,3.5-0.8,4.8-4.4,4.4c-4.7-0.5-11.1,2.1-13.8-1.1c-2.3-2.7-0.7-8.9-0.8-13.5
		C687.5,1598.2,687.5,1590.7,687.5,1583.2z"/>
	<path fill="#EC1C23" d="M1069.6,1120.4c2.3-5,4.6-10.1,7-15.1c0.9-0.2,1.4,0,1,1c-4.2,23.2-8.4,46.4-12.5,69.6
		c-1.3,7-2.4,14.1-3.7,21.1c-8.4,0.8-16.8,1.5-25.2,1.2c-1.1-2.5,0.5-4.6,1.4-6.6c9.8-22.6,19.5-45.2,29.4-67.7
		C1067.6,1122.5,1068.1,1121,1069.6,1120.4z"/>
	<path fill="#EC1C24" d="M1090.5,1193.9c-7.3,1.1-14.6,2.4-22,2.3c6.5-30,13-60,19.5-90.1c0.4,0,0.7,0,1.1,0.1
		C1089.6,1135.4,1090,1164.6,1090.5,1193.9z"/>
	<path fill="#EC1C23" d="M1118.1,1189c-6.6,2.1-13.5,2.9-20.3,3.9c0.4-28.9,0.9-57.8,1.3-86.8c0.4,0,0.7-0.1,1.1-0.1
		C1106.1,1133.7,1112.1,1161.3,1118.1,1189z"/>
	<path fill="#EC1C24" d="M1112.4,1107.2c10.9,25,21.7,50,32.6,75c-6.4,2.4-12.8,4.3-19.6,5.2c-4.7-25.7-9.3-51.4-14-77.1
		C1111.2,1109.1,1110,1107.6,1112.4,1107.2z"/>
	<path fill="#EC1C23" d="M1509.4,689.4c-16.4-14.2-26.4-32.6-33.8-52.6c0.5-11.8-0.9-23.6-1.1-35.3c-0.1-3.9,2.9-6.6,6.7-6.1
		c2.4,0.3,1.5,2.3,1.7,3.5c2,17.5,5.2,34.8,10.6,51.6c3.8,11.9,8.5,23.4,14.4,34.4C1508.6,686.3,1509.8,687.6,1509.4,689.4z"/>
	<path fill="#0155A5" d="M2013.4,242.1c0-7.5-0.3-15,0.1-22.5c0.3-4.8-1.5-5.9-5.8-5.5c-4.1,0.3-8.3-0.1-12.5,0.1
		c-2.7,0.1-3.4-0.9-3.3-3.4c0.1-2.5,0.4-3.9,3.5-3.9c14.8,0.2,29.6,0.1,44.4,0c2.9,0,3.7,0.9,3.7,3.7c0,2.9-0.9,3.7-3.7,3.6
		c-4.5-0.2-9,0.2-13.5-0.1c-3.6-0.3-4.5,1-4.4,4.5c0.1,15.6-0.1,31.3,0.1,46.9c0.1,4.2-0.7,6.1-5.4,5.6c-2.7-0.3-3.3-1.1-3.3-3.6
		C2013.5,259.1,2013.4,250.6,2013.4,242.1z"/>
	<path fill="#EB1D24" d="M1516.6,537c13.9,9.1,26.3,20.3,39,30.9c9,7.5,20,12.7,27.4,22.2c3,3.9,6.7,7.4,7.6,12.5
		c-6.9-3.5-12.5-8.8-18.2-13.9c-14-12.3-30-22.2-43.3-35.4c-4.8-4.8-9.1-10.1-13.6-15.2C1515.2,537.1,1515.6,536.8,1516.6,537z"/>
	<path fill="#EA2A32" d="M608.5,1249c2,0.6,4.6,0.2,5.3,3.1c-5.5,1.5-11.1,3-16.6,4.5c-0.1-0.3-0.2-0.6-0.3-0.9
		C600.7,1253.4,604.6,1251.2,608.5,1249z"/>
	<path fill="#E6868C" d="M817.6,1048c5.7,0.1,11.3,0.2,17,0.3c-7.1,1.3-14.2,0.7-21.3,0.7C814.5,1047.7,816.1,1048.2,817.6,1048z"/>
	<path fill="#5078C0" d="M1178.6,699c-0.6-4.2,0.9-8.6-1.1-12.7c3.9,2.2,0.9,5.9,2,8.8c0,1.3-0.1,2.6-0.1,3.9
		C1179.2,699.7,1178.9,699.7,1178.6,699z"/>
	<path fill="#ACB3D0" d="M1456.3,668.9c-0.5-2.5-1-5.1-1.5-7.6c0.3-1.1,0.6-2.2,0.9-3.3C1456.9,661.6,1456.5,665.3,1456.3,668.9z"/>
	<path fill="#C7445C" d="M1516.6,537c-0.4,0.4-0.7,0.8-1.1,1.1c-1.6-1.6-3.1-3.2-3.9-5.3C1513.7,533.7,1515.3,535.2,1516.6,537z"/>
	<path fill="#FAC0C3" d="M1625.2,1053c0-0.5,0-1.1,0-1.6c1.3-0.2,3.4-0.6,3.4,0.6C1628.7,1054,1626.6,1053,1625.2,1053z"/>
	<path fill="#F4A5A6" d="M1833.5,1784.1c0.8-1.3,1.7-2.6,3.7-2.8c-0.4,1.7-1.2,3-2.5,3.9C1834.3,1784.9,1833.9,1784.5,1833.5,1784.1
		z"/>
	<path fill="#B7A9A5" d="M1655.8,379c0.5,1,1,2,1.5,3c-1.1,1.1-0.4,2.7-1,4C1655.3,383.8,1655.4,381.4,1655.8,379z"/>
	<path fill="#B73755" d="M1661.7,499.9c-0.4,0.4-0.8,0.9-1.2,1.3c-1.4-1.5-2.6-3.1-3-5.2C1659,497,1660.6,498.2,1661.7,499.9z"/>
	<path fill="#F5D5D3" d="M557.7,1051.2c0,0.6,0,1.2,0,1.8c-1.3,0-3.4,1-3.4-1.1C554.3,1050.6,556.4,1051.1,557.7,1051.2z"/>
	<path fill="#E44149" d="M1112.4,1107.2c-1.2,0.8-0.6,2.1-1,3.1c-1.1-1.5-0.9-3.3-1.1-5c-0.4-1,0.1-1.2,1-1
		C1111.7,1105.2,1112,1106.2,1112.4,1107.2z"/>
	<path fill="#A6AAC2" d="M1224.7,378.6c0.5,1.1,1,2.2,1.5,3.4c-0.3,0.4-0.6,0.9-0.9,1.3C1224.1,381.8,1224.5,380.2,1224.7,378.6z"/>
	<path fill="#EC1C23" d="M1077.6,1106.2c-0.3-0.3-0.7-0.7-1-1c0.4-1.3,0.7-2.6,1.1-4C1079.2,1102.9,1078.7,1104.6,1077.6,1106.2z"/>
	<path fill="#FACCC5" d="M1299.3,1703c0.9-1.4,1.9-2.5,3.8-2.8c-0.2,1.6-1.2,2.3-2.2,3C1300.3,1703.1,1299.8,1703.1,1299.3,1703z"/>
	<path fill="#F16578" d="M1294.4,1542.2c0.4-0.4,0.8-0.7,1.1-1.1c1.1,1,1,2.2,1,3.5C1294.8,1544.6,1294.6,1543.4,1294.4,1542.2z"/>
	<path fill="#E85061" d="M714.2,1427.1c0.5,0.1,1,0.1,1.5,0.2c-0.8,1.3-1.8,2.2-3.5,2.4C712.5,1428.4,713.2,1427.6,714.2,1427.1z"/>
	<path fill="#EC1C23" d="M1111.3,1104.3c-0.3,0.3-0.7,0.7-1,1c-1.1-1.2-0.8-2.7-0.8-4.1C1110.8,1101.8,1110.9,1103.1,1111.3,1104.3z
		"/>
	<path fill="#F59FA9" d="M1584.5,1256.2c0.3-0.3,0.6-0.6,0.9-1c1,0.2,2.6,0.6,2,1.7C1586.9,1257.8,1585.3,1257.1,1584.5,1256.2z"/>
	<path fill="#E8A5B1" d="M597.8,848.1c-0.3,0.2-0.7,0.8-1,0.7c-0.6-0.2-1.1-0.6-1.6-1c0.3-0.2,0.6-0.6,1-0.6
		C596.9,847,597.6,847.1,597.8,848.1z"/>
	<path fill="#EC1C23" d="M829.7,1160.5c70.7-27.8,141.5-55.7,212.9-83.7c-0.7,2.7-2.5,3.3-3.8,4.3c-43.5,30.1-87.1,60-130.7,90.1
		c-6.1,4.2-13.4,4.6-20.1,7c-3.2,1.2-6.8,1.1-9.8,3.1C861.1,1176.4,844.9,1169.6,829.7,1160.5z"/>
	<path fill="#EC1C23" d="M1047.5,1089.2c-27.8,28.7-55.6,57.3-83.3,86c-6.4,6.6-12.6,13.2-18.9,19.8c-15.3-1.4-30.3-3.9-45.2-7.9
		c4.1-6.3,9.1-11.5,15.7-15.7c43-27.4,85.9-55,128.8-82.6c0.6-0.4,1.2-0.6,1.8-0.9C1047.4,1087.8,1047.7,1088.2,1047.5,1089.2z"/>
	<path fill="#EC1C23" d="M1304.2,889.4c-9.1,11.9-18.1,23.8-27.3,35.5c-2.9,3.7-7.5,5.4-11.4,8c-4.4,2.9-9,5.7-13.4,8.5
		c-13.2-1.5-26.4-3-39.6-4.4c-0.4-2.2,1.3-3.3,2.6-4.5c12.7-12.8,24.7-26.4,37.8-38.8c1.7-1.6,3.2-3.3,5.4-4.3
		C1273.5,889.4,1288.9,889.4,1304.2,889.4z"/>
	<path fill="#EC1C23" d="M951.6,1195.8c34.6-33.3,69.2-66.6,103.7-99.8c0.6-0.3,1.1-0.3,1.6,0.2c-19,29.5-38.1,59-57.1,88.5
		c-2.9,4.5-5.7,9-8.5,13.5C978,1198.5,964.8,1197.3,951.6,1195.8z"/>
	<path fill="#EC1C23" d="M1204.9,889.4c15.7,0,31.3,0,47,0c0,1.3-0.7,2.2-1.5,3c-7.2,7.3-14.2,14.9-21.9,21.7
		c-6.9,6-13.1,12.7-19.7,18.9c-1.4,1.3-2.5,3.2-4.8,3.1c-9.3-0.5-18.7-1-28-1.5c-0.7-1.5,0.2-2.6,0.9-3.7
		c8.6-13.3,17-26.6,25.8-39.8C1203.2,890.4,1203.8,889.6,1204.9,889.4z"/>
	<path fill="#EC1C23" d="M998.3,1198.5c22.5-32.4,44.9-64.8,67.4-97.1c1.7,0,1.4,0.9,0.9,1.9c-0.7,2.2-1.5,4.5-2.2,6.7
		c0,0,0-0.1,0-0.1c-1.2,1.5-1.8,3.3-2.1,5.2c0.5,2.1-0.4,3.9-1.1,5.8c-9.8,24.5-19.3,49.1-29.2,73.5c-0.6,1.6-0.8,3.6-2.8,4.4
		C1018.8,1198.8,1008.6,1199.6,998.3,1198.5z"/>
	<path fill="#EC1C23" d="M1164.1,889.4c11.4,0,22.8,0,34.2,0c0.7,1.9-0.5,3.2-1.4,4.5c-8.6,12-16.8,24.3-25.4,36.4
		c-1.1,1.5-2.3,2.8-3.9,3.8c-7-0.2-14-0.3-21-0.5c-0.6-4.9,2.4-8.8,3.9-13.1c3.3-9,7-17.8,10.6-26.7
		C1161.9,892.2,1162.4,890.4,1164.1,889.4z"/>
	<path fill="#EC1C23" d="M1043.2,938.1c-5.9,0.8-11.9,1.6-17.8,2.5c-1.7-0.2-2.5-1.5-3.4-2.7c-5.2-7.3-10.1-14.9-15.4-22.1
		c-1-1.4-1.4-3-1.8-4.6c1.6-6.5,3.3-13,4.7-19.6c0.5-2.2,1.7-2.6,3.5-2.5c3.8,0.1,7.6,0.2,11.3,0.2c1.9,1.1,2.4,3.1,3.2,4.9
		c4.9,12.5,9.8,25.1,14.8,37.6C1043,933.9,1044,935.9,1043.2,938.1z"/>
	<path fill="#EC1C23" d="M1067.1,935.9c-5.2,0.6-10.4,1.5-15.7,1.3c-3.6-2.5-4.1-6.7-5.8-10.2c-4.9-10.7-9.3-21.7-14.3-32.3
		c-0.8-1.6-1.6-3.3-0.7-5.2c9.4,0,18.7,0,28.1-0.1c1.6,1.4,2,3.4,2.4,5.4c2.3,11.8,4.1,23.6,6.4,35.4
		C1068,932,1068.3,934.1,1067.1,935.9z"/>
	<path fill="#EC1C23" d="M1201.5,1151.9c-20.7-21.3-41.3-42.5-62-63.8c-0.2-1,0-1.4,1.1-1.1c23,14.7,46.1,29.5,69.1,44.2
		c1.3,0.8,2.6,1.5,3.8,2.3C1211.5,1141,1207.2,1146.9,1201.5,1151.9z"/>
	<path fill="#EC1C23" d="M1130.5,1094.1c7.8,5.9,14.3,13.2,21.4,19.9c14.9,14.2,29.6,28.5,44.4,42.8c-5.5,5-11.7,8.8-18.3,12.1
		c-15.1-23.5-30.3-46.9-45.4-70.4C1131.7,1097.1,1130.2,1096,1130.5,1094.1z"/>
	<path fill="#EC1C23" d="M1138.5,933.4c-5.6,0-11.3-0.1-16.9-0.1c-1.4-1.4-1-3.1-0.7-4.7c2-11.3,4.2-22.5,6.1-33.8
		c0.3-2,0.8-3.9,2.4-5.3c9.3,0,18.7,0,28,0c1.3,1.7,0.1,3.2-0.5,4.6c-5.1,11.7-10.2,23.4-15.3,35.1
		C1141,930.8,1140.2,932.4,1138.5,933.4z"/>
	<path fill="#EC1C23" d="M1122.4,1101.2c16.3,23.6,32.7,47.2,49,70.8c-6.1,3.6-12.8,6-19.6,8c-9.5-24.2-19.1-48.4-28.6-72.6
		c-0.7-1.7-1.3-3.4-1.9-5.1C1121,1101.2,1121.5,1101,1122.4,1101.2z"/>
	<path fill="#EC1C23" d="M1090.1,934.2c-4.9,1.1-9.9,1-14.8,0.9c-1.9-1.2-2.1-3.2-2.6-5.2c-2.7-11.8-4.9-23.7-7.8-35.4
		c-0.4-1.7-1-3.6,0.5-5.2c8.4,0,16.9,0,25.3,0c1.2,1.3,1.3,3,1.3,4.7c0.1,11.6,0.1,23.2,0,34.8C1092,930.8,1092,932.9,1090.1,934.2z
		"/>
	<path fill="#EC1C23" d="M1097.4,889.4c8.4,0,16.8,0,25.2,0c1.3,1.6,0.8,3.5,0.4,5.2c-2.5,11.7-4.8,23.4-7.6,34.9
		c-0.4,1.4-0.7,2.9-2.1,3.8c-5,0.9-10.1,0.6-15.2,0.5c-1.9-3.3-2-7-2.2-10.6c-0.3-9.6-0.2-19.2-0.1-28.9
		C1096,892.7,1096,890.8,1097.4,889.4z"/>
	<path fill="#EC1C24" d="M1215.3,1126.1c-23.6-16.1-47.2-32.3-70.8-48.5c2-1.4,3.4,0.3,5,0.3c2.1-0.7,3.9,0.3,5.7,1.1
		c16.3,6.6,32.8,12.8,49.1,19.4c2.3,1,4.5,2,6.5,3.6C1215,1109.6,1216.3,1117.7,1215.3,1126.1z"/>
	<path fill="#EB1D25" d="M1203.6,1090.7c-15.6-6.7-31.3-13.4-46.9-20.1c-1.4-0.6-2.8-1-4.2-1.5c-0.3-0.3-0.7-0.7-1-1
		c-0.1-1.9,1-1.6,2.1-1.1c3.3,0.4,6.6,0.9,9.9,1.3c1.8-0.3,3.6-0.7,5,0.9c1.2,0.9,2.6,1,4,0.8c3.1-1,5.7,0,8.1,1.9
		C1190.5,1075.5,1197.3,1082.7,1203.6,1090.7z"/>
	<path fill="#EC1D24" d="M1016.8,941.9c-6.8,1.3-13.6,2.6-21.1,4.1c2-9,4.1-17.5,6.8-25.9c0.7-0.2,1.3,0,1.8,0.6
		c4.8,6.2,9,12.9,12.7,19.8C1017.2,940.9,1017,941.5,1016.8,941.9z"/>
	<path fill="#FCF0EF" d="M1095.6,1317.2c-0.4,21-0.8,42-1.2,63c-0.2,0.5-0.5,0.5-0.7,0c-0.4-21-0.8-41.9-1.2-62.9
		C1093.5,1317.2,1094.5,1317.2,1095.6,1317.2z"/>
	<path fill="#F9E5E4" d="M1212.6,1337.1c-4.2-9.6-8.4-19.3-12.7-28.9c0.9-0.2,1.8-0.4,2.7-0.5c3.7,9.4,7.3,18.8,11,28.2
		C1214.1,1336.9,1213.6,1337.2,1212.6,1337.1z"/>
	<path fill="none" d="M1093.9,768.6c0,0.3,0,0.5,0,0.8c0-5,0.2-9.9,0.4-14.7C1094.1,759.3,1093.8,763.9,1093.9,768.6z"/>
	<path fill="none" d="M1218.9,750.2c0.2-1.1,1-2,1.2-3.1c0.3-0.8,0.5-1.6,1-2.5c-0.5,0.7-0.6,1.3-0.8,1.9c-0.3,1.3-1.1,2.5-1.5,3.7
		c-0.7,0.9-1,2-1.4,3c0,0,0.1,0,0.1,0C1217.8,752.2,1218.2,751.1,1218.9,750.2z"/>
	<path fill="#EC1C23" d="M1094.3,740.7c0.3,4.5,0.1,9.2,0,14.1C1094.6,749.8,1094.7,745.1,1094.3,740.7z"/>
	<path fill="#EC1C23" d="M1093.9,769.4c0,2.3,0,4.5,0.1,6.8C1094.4,774,1094,771.7,1093.9,769.4z"/>
	<path fill="#EC1C23" d="M1324.6,567.3c-5.9-7.9-12.5-15.1-20.4-21.1c-10.4-7.9-21.9-12.4-35.1-12.1c-2.8,0-4,0.9-4.5,3.8
		c-6,33-14.2,65.6-17.6,99.1c-1.3,13.2-3.6,26.4-1.5,39.8c1.1,6.6,3.1,13.5,9.6,15.9c6.5,2.4,7.5,6.3,6.7,12c-0.1,1-0.1,2,0,3
		c0.5,3.7-1,4.7-4.7,4.7c-16.5-0.2-33,0-49.4,0.1c-2.5,1.3-3.3,3.9-4.9,6.1c-0.3-2.1,0.7-4.4-1.4-6c-7.3-0.1-14.5-0.2-21.8-0.3
		c-0.4-0.4-0.7-0.4-1.1,0c-3.5,0.1-7,0.2-10.5,0.2c-34.4,0.1-68.8,0.1-103.2,0.2c-0.3,5.3-0.2,10.6-0.9,15.9
		c-2.3,17.3-4.4,34.6-6.6,51.9c11.7,0.4,23.4,0.5,35.1,0c0.9-1.3,1.4-2.6,1.6-4c-0.1-2.3-0.1-4.6-0.1-6.8c0-0.3,0-0.5,0-0.8
		c-0.1-4.7,0.2-9.3,0.4-13.8c0.2-4.9,0.3-9.6,0-14.1c0.4,4.4,0.2,9.1,0,14.1c-0.2,4.8-0.4,9.7-0.4,14.7c0.1,2.3,0.5,4.6,0.1,6.8
		c0,0.1,0,0.3,0,0.4c0.1,1.4,0.6,2.6,1.5,3.6c10,0.4,20,0.4,30,0c1.5-1.7,1.1-3.7,0.8-5.7c-1.2-9.9-2.7-19.8-3.8-29.7
		c-0.5-4.7-0.2-5.2,4.6-5.2c19.3-0.1,38.6-0.1,57.9,0c4.7,0,5.1,0.6,2.6,4.8c-5.7,9.6-11.1,19.3-16.7,29c-1.2,2.1-2.8,4.2-2.3,6.9
		c12.2,0,24.3,0,36.5,0c3.9-9,7.7-18,11.6-27c0.2,0,0.5,0,0.6,0c0.4-1,0.7-2.1,1.4-3c0.5-1.3,1.2-2.4,1.5-3.7
		c0.3-0.6,0.3-1.2,0.8-1.9c-0.4,0.9-0.7,1.7-1,2.5c-0.2,1.1-1,2-1.2,3.1c-0.7,0.9-1.1,2-1.5,3.1c0.4,0.1,0.5,0.4,0.2,1.1
		c-3.3,8.6-6.6,17.3-10,25.9c0,0,0,0,0,0c0,0,0,0,0,0c9.7,0.4,19.3,0.5,29,0c3.5-12.8,7.2-25.6,10.4-38.5c0.8-3.2,2.2-3.8,5.1-3.8
		c9.3,0.2,18.7,0.1,28,0c1.4,0,3.6,0.7,3.7-1.4c0.3-4.8,0.2-9.6,0-14.5c0-1.1-1.3-1.4-2.3-1.7c-8.5-2.4-12.4-8.7-13.7-16.8
		c-2.6-15.5-1.3-31.1,2.4-46.1c7.7-31.3,16.7-62.3,25-93.5c1.1-4.1,3-4.3,6.4-3.7c9.2,1.7,17.2,6.1,24.8,11.2
		C1327,569.7,1325.5,568.6,1324.6,567.3z"/>
	<path fill="#F9DEDA" d="M1207.4,777.5c-0.5,1.1-1.1,2-2.2,2.8c0.8,0,1.7,0,2.5-0.1C1207.1,779.3,1207.1,778.4,1207.4,777.5z"/>
	<path fill="#F9DEDA" d="M1208.2,775.6c0.2-0.3,0.3-0.6,0.4-0.9c2.9-6.6,5.4-13.4,8.3-20c0.2-0.5,0.3-0.9,0.5-1.4c0,0-0.1,0-0.1,0
		c-0.1,0.3-0.2,0.5-0.3,0.8C1214.2,761.3,1211.2,768.4,1208.2,775.6z"/>
	<path fill="none" d="M967.7,745.8c1,3.3,2.5,6.3,3.8,9.5c0,0,0.1,0,0.1,0C970.2,752.1,968.8,749,967.7,745.8z"/>
	<path fill="#EC1C23" d="M996.4,738.7c2.8,0.1,5.7,0,8.5,0c13-0.1,13.5,1.5,13.1-14.1c-0.1-3-1.2-5.1-4.1-6.2
		c-3.6-1.4-6-4.1-7.8-7.4c-2.1-4-3.3-8.3-4.4-12.7c-4.8-20.8-4.3-42.1-4.5-63.1c-0.6-74.5-0.2-148.9-0.2-223.4
		c0-2.1,0.3-4.4-0.9-6.3c-2.7-0.6-2-2.7-1.8-4.4c0.4-4.9,1-9.9,1.5-14.8c0.5-6.9,0.3-13.9,1.5-20.8c0.2-3.7,0.7-7.3,0.6-11
		c-0.2-14.6,2.2-28.8,6.6-42.8c1.6-7.8,2.5-15.7,2.9-23.7c-8.7-0.1-17.4-0.1-26.1-0.2c-0.9,1.9-2.1,3.8-2.7,5.8
		c-3.7,12.9-4.5,26.2-4.4,39.5c0.5,3.2-0.3,6.3-0.3,9.4c0.1,91,0,182.1,0.1,273.1c0,5.9,0.2,11.9,0.3,17.8
		c-0.3,14.7,1,29.3,4.6,43.5c1.6,6.2,3.3,13.6,9.8,15.9c6.1,2.2,6,5.8,5.7,10.5c-0.1,1.5-0.2,3,0,4.5c0.5,3.3-1.2,3.8-4,3.8
		c-15.6-0.1-31.3-0.2-46.9-0.1c-5.3,0-10.6-0.6-15.9,0.4c-1.3,2-0.4,3.9,0.2,5.8c5.3,19.1,10.2,38.3,15.7,57.4
		c0.6,1.9,1,3.9,2.7,5.2c11.4,0.4,22.8,0.6,34.2,0c0,0,0,0,0,0c-3-7.9-6.1-15.9-9.1-23.8c-0.2-0.6-0.2-1,0.2-1.1
		c-1.3-3.1-2.8-6.2-3.8-9.5c1.1,3.2,2.5,6.4,3.9,9.5c0.2,0,0.4-0.1,0.7,0c3.6,8.3,7.2,16.6,10.8,24.9c0,0,0,0,0,0
		c10.3,0.5,20.5,0.6,30.8-0.1c0.9-4.9-2.8-8-4.7-11.7c-4.7-8.8-10-17.3-14.9-26C992.7,739.7,993.1,738.5,996.4,738.7z"/>
	<path fill="#F9E0DE" d="M982.7,1319.1c-1.3,7.6-5.6,13.9-8.3,21c-1,0.1-1.4-0.3-1-1.3c2.3-6.8,4.9-13.5,8-20
		C981.8,1318.9,982.2,1319,982.7,1319.1z"/>
	<path fill="#F99E9A" d="M1329.8,1283.3c1.7,1.9,3.3,3.9,5,5.8c-0.4,0.5-0.8,0.5-1.3,0.1c-2.1-1.8-4.1-3.6-6.2-5.4
		C1328,1283.1,1328.9,1283.1,1329.8,1283.3z"/>
	<path fill="#CC2432" d="M880.5,1037.3c-1.1,2.1-2.6,1.8-4.2,0.7C877.6,1037.1,879,1037.1,880.5,1037.3z"/>
	<path fill="#A82B45" d="M1500.7,1043.1c1.8,0.2,2.7,1.2,2.8,3C1502.1,1045.5,1501.2,1044.5,1500.7,1043.1z"/>
	<path fill="#EC1C23" d="M1277.4,474.1c6-31.8,12.1-63.6,18.1-95.5c1.5-8,3-16,5.5-24.1c1.1,6,2.3,11.9,3.4,17.9
		c2.9,16,5.6,32.1,8.6,48.1c0.5,2.5,0.5,4.9,0.6,7.4c0,11.3-3.5,22.1-5.2,33.2c-0.9,6-2.2,12-3.3,18c-0.4,2.1-0.7,4.3-2.6,5.7
		c-7.8-4.4-15.8-7.8-24.9-7.9C1276.6,476.2,1276.8,475.2,1277.4,474.1z"/>
	<path fill="#EC1C23" d="M1207.6,712.4c-1.5,2.9-2.7,6-6.3,9.1c0-3.7,0-6.4,0-9.1C1203.4,712.4,1205.5,712.4,1207.6,712.4z"/>
	<path fill="#474388" d="M1179.5,712.1c-0.4,0-0.7,0-1.1,0c0-4.3,0.1-8.7,0.1-13c0.3,0,0.6,0,0.8-0.1
		C1179.4,703.3,1179.5,707.7,1179.5,712.1z"/>
	<path fill="#274C93" d="M1277.4,474.1c0.1,1,0.1,2,0.2,3C1274.4,476.3,1275.9,475.2,1277.4,474.1z"/>
	<path fill="#EC1C23" d="M599.7,484.8c-7.1-3.8-14.3-7.2-22.5-7.5c-2.8-0.1-2.8-1.4-2.4-3.5c4.4-23,8.8-46,13.1-69
		c2.9-15.2,5.7-30.4,8.6-45.6c0.3-1.8,0.8-3.5,1.5-6.8c4,22.1,7.7,42.8,11.4,63.4c0.7,3.8,1.5,7.5,1.3,11.4
		c1.4,6.5-1.1,12.5-2.1,18.7c-1.9,11.2-4.1,22.3-6.2,33.4C602,481.3,602.1,483.7,599.7,484.8z"/>
	<path fill="#EC1C23" d="M922.8,693.5c-8.4-30.8-16.9-61.5-25.3-92.3c-3.1-11.5-6.1-23.1-9.2-34.7c-0.2-1.1-0.8-2.4,1.2-2.4
		c13.4,23.1,26.7,46.2,40.1,69.3c1.9,3.3,3.9,6.5,5.9,9.8c1.5,0.6,1.4,2.1,1.9,3.2c1.1,12.3,1.2,24.5-3.9,36.1
		C931.3,687.4,928.2,691.6,922.8,693.5z"/>
	<path fill="#0553A7" d="M805.4,343.6c-1.8,1.4-0.9,3.4-0.9,5.1c0,99,0,198,0,296.9c0,0.8-0.1,1.7-0.1,2.5c-0.6-1-1.2-2-1.8-3
		c-0.9-1.9-0.5-3.9-0.5-5.9c0-94.7,0-189.5-0.1-284.2c0-2,0.5-4-0.5-5.9c0.4-2.4-2-4.6-0.6-7.1c1.7,0.9,1.3,2.9,2,4.4
		c1.4-1.4-0.5-3.5,1.6-4.4C804.6,342,805.1,343,805.4,343.6z"/>
	<path fill="#E21E2A" d="M974.3,333.1c1,0.6,1.4,1.5,1.1,2.5c-1.6,5.6-0.8,11.3-0.8,16.9c-0.1,87.3,0,174.5,0,261.8
		c0,6.4,2.1,12.8-0.1,19.2c-1.2-4.4-0.7-8.9-0.7-13.4c0-93.9,0-187.7,0.1-281.6C973.8,336.7,973.4,334.8,974.3,333.1z"/>
	<path fill="#00579B" d="M801.5,349.1c1.7,1.6,1,3.8,1,5.7c0,96.8,0,193.5,0,290.3c-1.8-1.8-1-4.1-1-6.2
		C801.5,542.4,801.5,445.8,801.5,349.1z"/>
	<path fill="#EC1C23" d="M789.3,726c-2.3,6-2.3,6-7.8,1C783.9,725.8,786.6,726.1,789.3,726z"/>
	<path fill="#F9CAC8" d="M525.6,557.1c0.5,0.1,0.9,0.1,1.4,0.2c-0.4,2-0.2,4.1-1.6,5.9C525.5,561.2,525.6,559.1,525.6,557.1z"/>
	<path fill="#274C93" d="M749.5,732.3c-0.8,1.2-1.9,0.8-3,0.7C747.3,732,748,730.3,749.5,732.3z"/>
	<path fill="none" d="M1124.5,1733.2c0.8-1.2,1.7-2.3,2.4-3.6c0.8-0.9,1.4-2,2.1-3.1c-0.7,0.9-1.4,1.8-2,2.8
		C1126.3,1730.6,1125.3,1731.9,1124.5,1733.2z"/>
	<path fill="none" d="M1124.3,1733.4c0.1-0.1,0.1-0.2,0.2-0.3c-0.5,0.7-1.1,1.4-1.5,2C1123.4,1734.7,1123.9,1734.1,1124.3,1733.4z"/>
	<path fill="#EC1C23" d="M1129.8,1725.5c-0.2,0.3-0.5,0.7-0.7,1C1129.3,1726.2,1129.5,1725.8,1129.8,1725.5z"/>
	<path fill="#EC1C23" d="M1905.8,1792.5c-1.9-0.1-2.5,1.3-3.4,2.1c-11.8,11.1-23.6,22-37.4,30.7c-3.8,2.4-7.8,4.5-12.2,5.5
		c-7.8,1.7-12.3-3.1-10.5-10.8c1.6-6.6,5.1-12.3,9-17.7c8.8-12.3,18-24.4,26.9-36.7c7.1-9.9,6.7-13.7-1.8-22.4
		c-1.2-1.2-2.5-2.3-3.7-3.4c-4-3.5-8.3-3.8-13-1.7c-5.3,2.4-10.2,5.5-15,9c-22.7,16.5-42.8,36-62.5,55.9c-4.1,4.2-8.7,7.9-12.6,11.3
		c-0.7-9.4,3.1-17.6,10.1-25.4c39.3-44.2,76.9-89.8,110.1-138.9c5.4-8,10.7-16.1,14.5-25c1.1-2.6,2.3-5.2,0.6-8.1
		c-4-7-13.5-9.4-20.4-5.1c-6.5,4.1-12.1,9.3-17.7,14.6c-37.4,35.6-68.3,76.4-96.5,119.4c-10.4,15.9-20.7,31.9-24.8,50.9
		c-0.3,1.2-1.1,2-1.9,2.8c-13.7,12-27.8,23.4-44.4,31.2c-9.9,4.7-20.2,7.9-31.4,6.3c-7.8-1.1-13.2-5.6-15.7-13c-2.4-7.1-4-14.2,2-21
		c10.7-12.1,23.2-22,37-30.2c0.3-0.2,0.9-0.1,1.3-0.2c0.3,1.4,0.6,2.7,0.9,4c1.6,7.1,5.3,9.1,11.9,6.3c1.7-0.7,3.3-1.7,4.7-2.8
		c10.5-8.6,18.6-19,24.2-31.4c1.9-4.3,2.9-8.9,3.1-13.6c0.5-9.4-3.6-14.4-12.9-15.8c-5-0.8-10,0-14.8,1.3
		c-18.5,5.1-34.5,14.8-49.2,26.8c-16,13.1-29.2,28.3-34.7,48.8c-0.4,1.4-1.1,2.4-2.1,3.3c-13.4,11.5-26.7,23.1-41.9,32.4
		c-4,2.4-8.1,4.7-12.7,5.6c-7.2,1.5-12.2-2.3-12.5-9.6c-0.2-3.7,0-7.3,0.7-10.9c4.2-22.4,14.7-41.9,27.6-60.3
		c3.5-5,7.1-7.4,13.4-6.7c7.5,0.8,15,0,21.3-5.2c10.3-8.4,18.6-18.6,25.3-30c2.2-3.8,1.2-6.2-2.8-7.8c-4.5-1.7-9.3-2.1-13.8-2.7
		c-0.2-1.4,0.5-1.9,1-2.5c4.7-5.6,9.4-11.3,14-16.9c2.5-3,5-6.4,3-10.4c-2.1-4.3-6.5-4-10.6-3.6c-8.4,0.8-15.5,4.6-22,9.9
		c-6.6,5.4-12.1,11.9-16.9,19c-2,2.9-4.1,4.2-7.7,4.2c-5.5,0-11,0.4-16.4,1.1c-6.8,0.8-13.5,2.1-18.8,7.1
		c-8.2,7.6-14.3,16.6-19.2,26.6c-2.2,4.6-1.2,6.2,3.8,6.2c7,0,14,0.3,20.9,1.1c4,0.4,4,1.4,1.7,4.4c-12.6,16.2-25.9,31.8-40.4,46.3
		c-9.9,9.9-20.4,19.2-32.7,26.1c-4.7,2.6-9.6,4.7-15.2,4.1c-6.1-0.7-9.2-4.5-8.6-10.6c0.5-4.3,1.9-8.4,3.7-12.4
		c5.1-11.3,12.6-21.2,19.4-31.4c5-7.5,6.2-14.3,1.4-22.5c-5-8.5-4.4-8.9,4.1-14.1c2.3-1.4,4.6-2.7,4.6-6c0-7.1-10.8-20-20.3-18.2
		c-18,3.3-35,9.3-51.6,16.6c-24.9,11-46.9,26.1-64.5,46.9c-8.4,10-15.7,20.8-16.4,34.5c-0.1,1.7-1.2,2.6-2.3,3.6
		c-12.9,12-26.7,22.6-42.1,31.1c-5.5,3-11.2,6-17.6,6.6c-7.4,0.7-10.1-1.8-10.8-9c-1.2-13.1,2-25.5,6.6-37.5
		c10.4-27.3,26.5-51.4,43.5-75c13.3-18.5,27.9-36.1,42.7-53.5c11.1-13,11-25.5,2.3-39.2c-0.9-1.4-1.7-2.9-2.6-4.2
		c-5.2-7.5-8.8-8.4-16.9-4.2c-9.8,5.2-18.3,12.1-26.7,19.2c-36.9,31.1-70.2,65.9-102.8,101.3c-1.5,0.5-2.2,1.9-3.3,3
		c-0.1,0.5-0.1,0.5-0.3,0.1c0,0,0.1-0.1,0.3-0.1c1.1-1.1,1.9-2.4,2.2-4c4.8-8,9.8-15.9,14.5-23.9c12.5-21.2,24.9-42.5,33.5-65.7
		c2.2-6,3.5-12,2.2-18.6c-3.9-19.3-17.4-25.4-33.7-14.9c-15.7,10-29.3,22.5-42.8,35.2c-20.8,19.5-39.4,41.1-57.5,63.1
		c-1.3,0.5-2.1,1.3-2.8,2.3c-0.2,0.3-0.5,0.7-0.7,1c-0.7,1.1-1.3,2.2-2.1,3.1c-0.7,1.3-1.6,2.4-2.4,3.6c0,0,0,0,0,0c0,0,0,0,0,0
		c-0.1,0.1-0.1,0.2-0.2,0.3c-0.4,0.7-0.9,1.3-1.4,1.8c-0.3,0.4-0.6,0.8-0.8,1.1c0.1-0.3,0.4-0.7,0.8-1.1c0.5-0.6,1-1.3,1.5-2
		c0,0,0,0,0,0c0.8-1.3,1.8-2.5,2.5-3.9c0.6-0.9,1.4-1.8,2-2.8c0.2-0.4,0.5-0.7,0.7-1c0.7-1.1,1.3-2.3,1.5-3.7
		c1.4-2.6,2.9-5.3,4.3-7.9c9.5-16.8,18.1-34.1,23.4-52.8c4.6-15.9,3.9-31.2-5.3-45.6c-6.7-10.5-11.8-12.9-23.8-9.6
		c-21.8,5.8-42.1,15.5-62.3,25.3c-1.5,0.7-2.8,2.4-5.6,1.2c1.4-1.1,2.5-1.8,3.4-2.7c3.2-3.1,6.5-6.2,9.5-9.6c1.1-1.3,3.6-2.8,1.6-5
		c-1.7-2-3.3,0.1-4.9,0.6c-0.5,0.1-0.9,0.5-1.3,0.7c-24.3,14.1-35.4,36.3-37.8,63.3c-1.4,15.9,2.6,18.5,17.1,11.6
		c17.7-8.5,34-19.7,51.4-28.8c7.4-3.9,14.5-8.3,22.5-10.8c5.4-1.7,8.6,0.9,8.1,6.4c-0.5,5.4-2.5,10.3-4.5,15.2
		c-12.8,30.4-30.4,58-48.2,85.6c-11.5,17.8-24.7,34.3-35.8,52.4c-10.1,16.4-7.3,31.7,2,46.9c4.9,7.9,9.7,8.3,16.5,1.7
		c7.4-7.3,13.5-15.6,19.3-24.2c20-29.5,39.2-59.5,60.9-87.9c22.4-29.3,46.3-57.3,75.7-79.9c2-1.5,4-3,6.1-4.5
		c-0.1,2.2-0.7,3.7-1.4,5.2c-15.6,33.8-34.8,65.6-55.7,96.3c-12.2,17.9-24,36-34.6,54.9c-9.4,16.8-7.9,33.1-0.7,49.8
		c3.3,7.5,5.6,8,11.7,2.7c8.6-7.5,15.9-16.1,23.2-24.8c21.9-26,42.8-52.8,65.5-78.1c21.2-23.5,43.4-46.1,67.8-66.3
		c0.5,0.2,1.2-1.3,1.6,0.2c-8.1,10-16.4,19.7-24.1,29.9c-18.8,24.7-36,50.4-46.6,79.9c-7.4,20.6-7.4,41.2,1.6,61.3
		c4.9,11,15,15.6,26.8,13.3c4.4-0.9,8.7-2.1,12.8-3.9c27.6-12.3,50.1-31.3,70.7-52.9c1.4-1.5,2.4-3.5,4.8-4.2
		c2.9,8.3,6.7,15.9,11.4,22.9c11.1,16.6,16.8,17.6,33.1,6.1c12.1-8.6,22.9-18.8,33.4-29.3c3.7-3.7,7.3-7.6,11.2-11.7
		c1.2,2.5,0.2,4-0.2,5.6c-2,7.6-4.3,15-5.8,22.7c-1.8,9.5-0.3,18.5,8.1,24.7c8,5.9,16.4,4.1,24.5,0c6.6-3.3,12.4-7.8,17.9-12.7
		c14.6-13,27.8-27.3,41.2-41.5c2.5-2.6,5-5,8.4-6.6c0.1,0.4,0.1,0.6,0.1,0.7c-0.5,1.2-1.1,2.4-1.7,3.6c-6,13.3-11.1,26.8-10,41.8
		c0.8,11.4,7.6,18.4,18.9,19.5c10.8,1.1,20.2-3,29.3-8.1c17.6-9.9,32.6-23.1,47-36.9c3.1-2.9,6.1-5.9,9.7-9.4
		c1.4,17.8,7.2,32.6,19.3,44.7c8.2,8.1,17.8,11.2,29.2,8.5c7.7-1.8,14.7-5.2,21.4-9.3c17.2-10.6,31.6-24.4,45.6-38.7
		c1.3-1.3,2.3-3,4.6-3.7c0,1.9,0,3.4,0,4.9c0,9.5-0.2,19,2,28.3c2.4,10,9.3,12.4,17.3,6.1c6-4.8,11.3-10.4,16.3-16.2
		c17.4-20.2,34.6-40.6,54.4-58.5c0.4-0.2,1.1-0.7,1.3-0.4c0.5,0.4-0.1,1-0.2,1.6c-8.3,13.3-17,26.3-23.4,40.7
		c-3.7,8.5-6.1,17.2-4.9,26.6c1.8,13.2,11.1,19.8,24.1,16.8c9-2.1,16.6-6.8,23.9-12.1c17.1-12.4,31.2-28,46-42.9
		C1907.1,1807.5,1906.7,1800.5,1905.8,1792.5z M1394.3,1823.5c-2.9,2.1-6.1,4-9.4,5.5c-6.6,3-10.7,0.4-11.3-6.8
		c-0.7-10,2.9-18.5,9.3-26.1c7.8-9.2,17.9-15.3,28.3-21c17.2-9.5,35-17.5,53-25.5c0.6-0.2,1.2-0.3,3-0.8
		C1444.9,1777,1422.3,1802.9,1394.3,1823.5z"/>
	<path fill="#EC1C23" d="M1124.5,1733.2C1124.5,1733.2,1124.5,1733.2,1124.5,1733.2C1124.5,1733.2,1124.5,1733.2,1124.5,1733.2
		C1124.5,1733.2,1124.5,1733.2,1124.5,1733.2z"/>
	<path fill="#EC1C23" d="M1122.9,1735.2c-0.4,0.4-0.7,0.8-0.8,1.1C1122.3,1736,1122.6,1735.6,1122.9,1735.2z"/>
	<path fill="#EC1C23" d="M509.5,295.8c-12-8.8-25-15-40.1-16c-8.4-0.6-16.6,0.2-24.5,3c-11.8,4-18.2,12.8-21.3,24.4
		c-2.2,8.4-2.8,17.1-2.9,25.7c-0.1,17.1,0.1,34.2,0.1,51.4c-6.5,0.1-13,0.1-19.5,0.2c-2.3,0.1-2.8-0.9-2.8-3
		c0.6-29.8-1.3-59.6,0.9-89.3c0.7-8.8,2.7-17.3,8.3-24.6c7.4-9.7,18.1-12.5,29.5-13.3c21.8-1.5,40,6.7,55.6,21.3
		C499.3,281.5,505.2,288,509.5,295.8z"/>
	<path fill="#E71F20" d="M401.5,717.1c0.8,3.1-2.9,5.1-2.1,8.2c-1.2-3-0.8-6.2-0.8-9.4c0-90.3,0-180.5,0-270.8c0-1.6-1-3.6,0.9-5
		c0.7,1.6,1.3,3.2,2,4.9c-1,1.7-0.5,3.6-0.5,5.4c0,87.1,0,174.1,0,261.2C401,713.6,400.5,715.4,401.5,717.1z"/>
	<path fill="#0254A1" d="M305.9,279.2c0,174.2,0,349.4,0,524.6C303.6,797.8,304.5,284.1,305.9,279.2z"/>
	<path fill="#0254A1" d="M307.5,793.2c-1.7-1.7-1-3.8-1-5.7c0-164.5,0-328.9,0-493.4c0-2.6-0.2-5.3,1.5-7.9c1.1,2.4,0.3,4.8,0.5,7
		c-1,1.9-0.5,3.9-0.5,5.9c0,162.7,0,325.5-0.1,488.2C308,789.2,308.4,791.2,307.5,793.2z"/>
	<path fill="#0057AD" d="M307.5,793.2c0-164.6,0-329.2,0-493.8c0-2.1-0.8-4.4,1-6.2c0,167.6,0,335.2,0,503
		C306.8,795.4,307.8,794.1,307.5,793.2z"/>
	<path fill="#ED1A2D" d="M423.5,440.3c-3.3,1.8-6.8,0.6-10.2,0.9c-2.8,0.3-5.6-0.4-8.4,0.7c-1.4,0.6-2.2-0.2-2.4-1.6
		C409.5,440.2,416.5,440.2,423.5,440.3z"/>
	<path fill="#DCD4E5" d="M493.6,389.1c0.6,0.3,1.1,0.7,1.7,1c-0.4,1.2-0.9,2.5-1.3,3.7C493.4,392.3,493.4,390.7,493.6,389.1z"/>
	<path fill="#EC1C23" d="M1072.2,342.9c-11.2,5-19,13.7-25.7,23.7c-11.5,17.3-17.2,36.9-21.1,57.1c-0.2,1.3-0.3,2.7-0.8,3.9
		c-0.7,1.6,1.2,5.2-2.7,4.4c-3.1-0.6-6.2-1.2-5.6-6.2c2.8-20.4,5.2-40.9,7.5-61.3c0.9-8.4,2.8-16.7,2.5-25.2
		c4.5-9,12.1-15.1,20.4-20.3c6.5-4.1,13.9-6.2,21.5-7.4c3.3-0.5,4.6,0.6,4.4,3.8c0.6,9.3,0.7,18.6-0.1,27.9L1072.2,342.9z"/>
	<path fill="#0056AD" d="M1075.5,621.1c-0.7,0-1.3,0-2,0c-0.9-1.7-0.5-3.6-0.5-5.4c0-87.1,0-174.1,0-261.2c0-1.8-0.5-3.7,0.5-5.4
		l0,0c0.7-0.6,1.3-0.6,2,0l0,0c0.9,1.7,0.5,3.6,0.5,5.4c0,87.1,0,174.1,0,261.2C1076,617.5,1076.4,619.4,1075.5,621.1z"/>
	<path fill="#04549F" d="M1073.5,349.1c0,90.7,0,181.3,0,272c0,0-0.5,0-0.5,0l-0.5,0c-0.1-3-0.2-6-0.2-9c0-85.9,0-171.7,0-257.6
		c0-1.8,0.1-3.7,0.2-5.5C1072.9,349.1,1073.2,349.1,1073.5,349.1z"/>
	<path fill="#0A5296" d="M1075.5,621.1c0-90.7,0-181.3,0-272c1.6,1.5,1,3.4,1,5.2c0,87.2,0,174.4,0,261.6
		C1076.5,617.7,1077.1,619.7,1075.5,621.1z"/>
	<path fill="#04549F" d="M1072.5,343c0-9.3,0.1-18.6,0.1-27.9c1.3,0,2.6,0,3.9,0c-3.2,2.3-3.2,5.3-3,8.5c0.2,5.9,0.1,11.9,0.3,17.9
		C1073.8,342.7,1073.5,343,1072.5,343z"/>
	<path fill="#AAC9D9" d="M996.2,365.4c1,3.1-0.9,6.6,1.1,9.6c-0.5,3.7-1,7.4-1.5,11.1C995.8,379.2,995.5,372.3,996.2,365.4z"/>
	<path fill="#04549F" d="M1075.5,349.1c-0.7,0-1.3,0-2,0c0.1-1.2,0.3-2.5,1.8-3.3C1075.4,347.1,1075.4,348.1,1075.5,349.1z"/>
	<path fill="#EC1C23" d="M863.7,1670.8c0,2.1,0,4.2,0,6.6c-4.2-2.2-8.1-4.5-12.2-6.2c-2.9-1.2-3.5-2.2-1.8-5
		c3.7-6.1,7-12.4,10.5-18.6c-1.9-1.1-3.6-0.6-5.2-0.6c-5.7,0-12.1-1.6-16.8,0.6c-4.9,2.3-6.3,9.4-9.1,14.4c-1.5,2.6-3.1,3.3-5.9,3.2
		c-8.7-0.3-17.3,0.8-25.7,3c-24.9,6.5-43.4,20.7-52.7,45.2c-6.4,16.9-1.4,33.3,12.8,43.4c2.4,1.7,5.1,3.2,7.6,4.8
		c5.7,3.5,5.7,3.5,2.5,9.1c-8.2,14.7-16.5,29.3-24.7,44c-5.1,9-5.1,9-14.2,3.6c-16.2-9.5-19.5-23.1-9.4-38.2c1-1.5,3.8-2.7,2.3-4.8
		c-1.3-1.8-4-1.2-6.2-1.1c-0.8,0.1-1.6,0.3-2.4,0.5c-9.7,2.4-14,10.1-17.7,18.3h0c-0.4,1-0.7,2-1.5,4.3c-0.3-2.9-0.4-4.5-0.6-6.1
		c-0.9,0.7-1.8,1.4-2.7,2.2c-11,10-21.6,20.3-34.4,28.1c-4.9,3-10,5.5-15.9,5.5c-7.1-0.1-10.5-3.6-10-10.6
		c0.5-7.9,4.3-14.7,8.2-21.2c5-8.3,10.1-16.5,15.7-24.4c4.7-6.7,4.8-12.8,0.8-19.9c-5.2-9.3-4.8-9.5,4-15.2c0.3-0.2,0.6-0.4,0.8-0.6
		c3.3-2.1,4.4-4.8,2.8-8.5c-3.9-9.3-11.2-17.5-25-14.1c-25.2,6.3-49.3,15.2-71.3,29c-19,12-36.1,26.2-48.2,45.7
		c-5.2,8.4-8.8,17.3-7.6,27.4c2.2,17.5,10.4,32.1,22.1,44.9c3.5,3.9,7.9,4.6,12.8,2.7c5.2-2,9.8-5,14.2-8.2
		c15.2-11.2,28.2-24.8,41.6-38.1c2.7-0.5,1.4,1.1,1.1,2.1c-2.4,8.8-5.3,17.5-6.6,26.6c-1.3,9,0.8,17,8.4,22.7
		c7.1,5.4,14.7,4.4,22.2,1.1c7.1-3.1,13.2-7.7,19-12.8c13-11.4,24.9-24,36.9-36.6c2.8-3,5.6-5.9,9-9.5c0.1,1.8,0.2,2.6,0.2,3.3
		c1.2,18.4,8.7,32.3,27.2,38.3c3,1,2.4,2.2,1.2,4.2c-4.6,8-9.1,16.1-14.2,25.3c7.2,0,13.4-0.2,19.5,0.1c2.8,0.1,4.2-0.9,5.5-3.2
		c3.3-6.2,6.9-12.1,10.2-18.3c1.3-2.4,2.7-3.3,5.5-3.2c5,0.3,10-0.1,14.9-1c27.1-4.9,49.9-17.6,66.7-39.6
		c13-17.1,13.1-36.9-2.5-53.6c-5.1-5.5-10.7-10.5-16.7-15c-2.3-1.7-2.8-3-1.3-5.7c8.8-15.3,17.4-30.7,26-46.1
		c1.7-3.1,3.1-2.6,5.1-0.6c4.3,4.1,7.7,8.6,9.2,14.5c1.4,5.9,0.2,11.4-2,16.9c10.3-2.8,22.5-13.3,26.7-22.7
		C877.3,1692.4,873.2,1677.1,863.7,1670.8z M613.8,1772.8c-15.9,18.4-32.9,35.8-52.6,50.3c-3.5,2.6-7.1,5-11.3,6.3
		c-5.5,1.8-8.2,0.5-9.6-5.1c-1.9-7.7,0.5-14.8,4.1-21.5c4.9-8.9,12.5-15.1,20.8-20.4c20.9-13.2,43.4-23.1,66-33
		c0.2-0.1,0.6,0.1,1.7,0.3C626.5,1757.6,620.3,1765.3,613.8,1772.8z M796.6,1808c-4.6,12.8-20.3,21.2-37.7,19.7
		c9.4-16.7,18.5-32.9,27.6-49.1C795.6,1784.6,800.1,1798.2,796.6,1808z M795.9,1720.9c-1.3,2.3-2.7,4.6-3.9,7
		c-1.2,2.3-2.1,1.9-3.5,0.1c-8.5-10.5-9.6-25.1,2.9-34.8c8.3-6.5,16.8-10.1,25.4-9.7C809.7,1696.3,802.8,1708.6,795.9,1720.9z"/>
	<path fill="#EB1E1F" d="M979.5,621.1c-0.7,0-1.3,0-2,0c-0.9-1.7-0.5-3.6-0.5-5.4c0-89.7,0-179.5,0-269.2c0-1.8-0.4-3.7,0.5-5.4
		c0.7,0,1.3,0,2,0c0.9,1.7,0.5,3.6,0.5,5.4c0,89.7,0,179.5,0,269.2C980,617.5,980.4,619.4,979.5,621.1z"/>
	<path fill="#F2192B" d="M979.5,621.1c0-93.3,0-186.7,0-280c1.5,1.3,1,3.1,1,4.7c0,93.2,0,186.4,0,279.6c0,0.8,0,1.6,0,2.4
		c-0.3,0-0.7,0-1,0C979.5,625.7,979.5,623.4,979.5,621.1z"/>
	<path fill="#E21E2A" d="M977.5,341.2c0,93.3,0,186.7,0,280c-1.6-1.5-1-3.4-1-5.2c0-89.9,0-179.7,0-269.6
		C976.5,344.6,975.9,342.6,977.5,341.2z"/>
	<path fill="#E21E2A" d="M978.4,325.8c1.4,2.2,1.3,4.4,0.3,7.6C977,330.4,977.5,328.1,978.4,325.8z"/>
	<path fill="#F1363C" d="M1424.7,914.4c-2.2,0.8-4.3,1.7-7.5,2.9C1419.5,913.5,1422.4,914.4,1424.7,914.4z"/>
	<path fill="#FCDDD9" d="M1093.7,1380.1c0.2,0,0.5,0,0.7,0c0,3,0,6-0.1,8.9c-0.2,0-0.4,0-0.6,0
		C1093.7,1386.1,1093.7,1383.1,1093.7,1380.1z"/>
	<path fill="#F45B5C" d="M1094.4,1397.1c0.1,2.4,0.4,4.8-0.4,7.5c-0.8-2.7-0.5-5.1-0.4-7.5
		C1093.9,1396.7,1094.1,1396.7,1094.4,1397.1z"/>
	<path fill="#F79795" d="M1094.4,1397.1l-0.4,0c0,0-0.4,0-0.4,0c0-2.7,0-5.3,0-8c0.2,0,0.4,0,0.6,0
		C1094.3,1391.7,1094.4,1394.4,1094.4,1397.1z"/>
	<path fill="#F8CFCB" d="M1212.6,1337.1c0.3-0.4,0.7-0.8,1-1.3c2.2,3.8,3.6,8,4.9,12.1c0.5,1.1-0.1,1.2-0.9,1.1
		C1216,1345.1,1214.3,1341.1,1212.6,1337.1z"/>
	<path fill="#F4988C" d="M1225.4,1366.3c-2-2.7-3.3-5.8-3.9-9.2c0.2-0.4,0.5-0.4,0.7,0c1.5,2.9,3,5.8,3.4,9.1L1225.4,1366.3z"/>
	<path fill="#F7706A" d="M1225.7,1366.1c1.7,2,2.7,4.3,2.9,7l0,0c-1.7-2-3-4.2-3.1-6.9C1225.4,1366.3,1225.7,1366.1,1225.7,1366.1z"/>
	<path fill="#F2BFAA" d="M1217.7,1349.1c0.3-0.4,0.6-0.8,0.9-1.1c0.7,1.6,1.3,3.3,2,4.9c0.4,0.7,0.3,1.2-0.3,1.7
		C1219.4,1352.7,1218.5,1350.9,1217.7,1349.1z"/>
	<path fill="#FA464A" d="M1228.5,1373.2c1.2,1.1,2.1,2.3,1.6,4.3C1228.6,1376.3,1228.4,1374.8,1228.5,1373.2
		C1228.5,1373.2,1228.5,1373.2,1228.5,1373.2z"/>
	<path fill="#FAB2B2" d="M1220.3,1354.6c0.1-0.6,0.2-1.1,0.3-1.7c0.6,1.4,1.1,2.8,1.7,4.2c0,0-0.4,0-0.4,0s-0.4,0-0.4,0
		C1220.4,1356.6,1220.4,1355.6,1220.3,1354.6z"/>
	<path fill="#F8CBC3" d="M973.3,1338.8c0.3,0.4,0.7,0.9,1,1.3c-1.7,4.1-3.1,8.4-6.6,11.7C969.6,1347.5,971.4,1343.1,973.3,1338.8z"/>
	<path fill="#F99F99" d="M963.4,1363.1c1.1-3,2.3-6,3.4-9c0.2,3.9-1,7.3-3.3,10.2c-0.3-0.3-0.4-0.5-0.3-0.8
		C963.3,1363.2,963.3,1363.1,963.4,1363.1z"/>
	<path fill="#F4736E" d="M963.4,1363.1c0,0.4,0.1,0.8,0.1,1.2c0,3.2-2.1,5.6-3.4,8.3C960.6,1369.2,961.7,1366,963.4,1363.1z"/>
	<path fill="#F6191E" d="M418.5,466.2c2.3,0.6,0.9,2.5,0.9,3.5c0.1,88.9,0.1,177.9,0.1,266.8c0,1.6,0.6,3.4-1,4.7
		c-0.9-1.7-0.5-3.6-0.5-5.4c0-88.1,0-176.1,0-264.2C418,469.8,417.6,467.9,418.5,466.2z"/>
	<path fill="#E41F23" d="M418.5,466.2c0,91.7,0,183.3,0,275c-1.6-1.5-1-3.4-1-5.2c0-88.2,0-176.4,0-264.6
		C417.5,469.6,416.9,467.6,418.5,466.2z"/>
	<path fill="#ED1A2D" d="M401.5,717.1c-1.6-1.5-1-3.4-1-5.2c0-87.2,0-174.4,0-261.6c0-1.7-0.7-3.7,1-5.2
		C401.5,535.8,401.5,626.5,401.5,717.1z"/>
	<path fill="#EC1C23" d="M1040.4,1067.1c-0.6,0.4-1.3,0.7-1.9,1.1c-0.3,0.4-0.6,0.5-1.1,0.3c-0.1-0.2-0.1-0.4,0.1-0.5
		c-0.8-1-2.1-0.5-3.1-0.9c1.5-1.2,3.3-0.9,5-1.1C1040.4,1065.7,1040.7,1066.1,1040.4,1067.1z"/>
	<path fill="#F8484B" d="M1339.8,1294.1c2.8,1.4,3.9,4.4,6.4,6c-0.3,0.4-0.6,0.7-1,1.1c-2.2-2.3-4.5-4.6-6.7-7
		C1338.8,1293.7,1339.3,1293.7,1339.8,1294.1z"/>
	<path fill="#F97D7B" d="M1339.8,1294.1c-0.4,0-0.9,0.1-1.3,0.1c-1.7-1.7-3.3-3.4-5-5c0.4,0,0.9,0,1.3-0.1
		C1336.4,1290.8,1338.1,1292.5,1339.8,1294.1z"/>
	<path fill="#EC1C23" d="M1047.5,1089.2c-0.4-0.4-0.8-0.8-1.2-1.2c1.1-0.9,2.1-1.9,3.2-2.8c0.5,0.3,2.5-0.7,1.2,1.2
		C1049.9,1087.5,1048.6,1088.3,1047.5,1089.2z"/>
	<path fill="#EC1C23" d="M1040.4,1067.1c-0.4-0.4-0.7-0.8-1.1-1.2c0.9-0.8,1.9-1,3.7-0.4C1042,1066.1,1041.2,1066.6,1040.4,1067.1z"/>
	<path fill="#EC1C23" d="M1066.5,1103.2c-0.3-0.6-0.6-1.3-0.9-1.9c0.5-1.4,1.2-2.6,2.6-3.5C1068.6,1100,1067.7,1101.6,1066.5,1103.2
		z"/>
	<path fill="#E8444D" d="M1056.9,1096.2c-0.5-0.1-1.1-0.1-1.6-0.2c1.1-1.1,2.1-2.2,3.2-3.3c0.4,0.5,0.5,1,0.1,1.5
		C1058.1,1094.9,1057.5,1095.5,1056.9,1096.2z"/>
	<path fill="#EC1C23" d="M1058.6,1094.2c0-0.5-0.1-1-0.1-1.5c0.2-0.9,0.9-2.3,1.5-1.6C1060.9,1092.1,1059.6,1093.3,1058.6,1094.2z"/>
	<path fill="#EC1C23" d="M1127.6,1090.3c1.5,0.9,2.9,1.8,2.9,3.8C1128,1094,1127.9,1092.1,1127.6,1090.3z"/>
	<path fill="#EC1C23" d="M1122.4,1101.2c-0.3,0.3-0.7,0.7-1,1c-1.1-1.2-1.8-2.6-1.6-4.4C1121.2,1098.7,1121.8,1099.9,1122.4,1101.2z
		"/>
	<path fill="#EB1D25" d="M1153.6,1067.1c-0.7,0.4-1.4,0.7-2.1,1.1c-0.6,0-1.3-0.1-1.9-0.1l0,0c-0.5-0.4-1.4-0.7-1.5-1.2
		c-0.1-1.4,1-0.9,1.7-0.8C1151.1,1066.2,1152.5,1066.1,1153.6,1067.1z"/>
	<path fill="#EC1C23" d="M1140.6,1087.1c-0.4,0.4-0.7,0.7-1.1,1.1c-1.5-0.7-2.5-1.9-3.4-3.4c1.8-0.7,2.6,1.7,4.2,1.4
		C1140.4,1086.5,1140.5,1086.8,1140.6,1087.1z"/>
	<path fill="#EB2D42" d="M889.5,564.1c-0.9,0.5-1,1.5-1.2,2.4c-0.7-1.9-1.4-3.8-2.2-6.2C888.7,561,889,562.6,889.5,564.1z"/>
	<path fill="#F4A499" d="M1284.4,576.1c0.3,0.6,0.6,1.2,0.8,1.8c-0.2,0.8-0.8,2-1.3,1.6C1282.9,578.5,1283.5,577.1,1284.4,576.1z"/>
	<path fill="#ED1C24" d="M1962.1,1618.7c-19.6,0-35.2,15.4-35.2,34.6c0,19.5,15.6,34.9,35.4,34.9c19.4,0,34.9-15.6,34.9-34.9
		C1997.2,1634,1981.7,1618.7,1962.1,1618.7z M1961.4,1683.1c-16.3-0.4-28.3-13.5-28-30.8c0.3-16.3,12.9-28.6,29.2-28.3
		c16.3,0.2,28.2,13.1,28,30.1C1990.4,1670.7,1977.6,1683.4,1961.4,1683.1z"/>
	<path fill="#EE1C26" d="M1970.4,1655.2c6.9-2.7,9.2-6.8,8-13.3c-1-5.4-5.2-8.5-12.3-8.7c-4.8-0.1-9.7,0.1-14.5-0.1
		c-2.8-0.1-3.3,1-3.2,3.5c0.2,5.5,0,11,0,16.5c0,5.8,0.1,11.6,0,17.5c0,2.2,0.4,3.4,3,3.4c2.6,0,3.5-1,3.4-3.5
		c-0.1-3.3-0.1-6.7,0-10c0.1-3.8,2.5-5.4,6-4.1c1.4,0.5,1.9,1.8,2.6,2.9c2.6,4,5.3,8.1,7.7,12.2c1.8,3,4.8,3.2,6.8,1.9
		c1.9-1.3-0.8-3.1-1.6-4.4c-2.1-3.6-4.5-7-6.7-10.5C1968.8,1657.1,1967.9,1656.1,1970.4,1655.2z M1956.1,1650.8
		c-2.8-0.5-0.4-4.1-1.6-6c1.2-2.3-1.8-6.4,2.6-6.4c5-0.1,11-2.3,14.5,3.6c1.6,2.7,0.8,5.8-1.9,7.5
		C1965.5,1652.1,1960.6,1651.6,1956.1,1650.8z"/>
	<path fill="#0055A4" d="M1374.4,969.4c21,7.9,41.8,16,61.6,26.5c19.1,10.2,37.2,21.9,53.5,36.3c1.1,1,2.3,1.8,3.5,2.7
		c3.3,1.7,6.1,4.1,8.3,7.2c0.8,1.4,1.9,2.5,3.1,3.6c5.9,6.2,11.8,12.4,15,20.5c5.2,9.8,10.4,19.7,13.1,30.6
		c6.8,27.4,1.5,52.7-13.1,76.5c-6.8,11.2-15.7,20.6-24.8,29.9c-0.5,1.1-0.8,2.1-1.7,3c-7.1,6.3-14.5,12.1-22.5,17.3
		c-0.8,0.5-1.8,0.9-2.8,0.9c-34.8,22.7-72.7,38.6-112.2,50.9c-1.1,0.3-2.1,0.9-3.1,1.4c-3.1,3-7.5,2.9-11.2,4.3
		c-3.5,1.3-7.3,1.9-10.9,3.1c-1,0.3-2,0.6-3.1,0.9c-9.4,2-18.6,4.9-28.1,6.8c-2.4,0.5-4.9,1.1-7.4,0.3c-20,4.2-40.2,7.9-60.4,11.2
		c-1.3,1.4-3.1,1.8-4.9,2c-7.7,1-15.3,2.7-23,3.1c-1.1,0.3-2.2,0.6-3.4,0.7c-10.8,1.2-21.5,2.9-32.4,3.5c-1.8,0.1-3.6,0.5-5.3-0.6
		c-11.8,1-23.7,2-35.5,3c-3.7,2.2-8,1.9-12.1,2.2c-6.3,0.4-12.5,0.6-18.8,1.1c-1.2,0.1-2.5,0-3.7,0c-9.6-0.3-19.2,1.6-28.9,1.1
		c-2.3-0.1-4.7,0.2-6.7-1.4c-13.2,0.2-26.4,0.5-39.7,0.7c-2.9,2.3-6.3,1.8-9.5,1.3c-8.1-1.1-16.2-0.8-24.3-0.4c-0.6,0.1-1.2,0-1.8,0
		c-7.6-0.6-15.2-0.1-22.8-0.3c-3.6-0.1-7.3-0.1-10.6-2.1c-19.1-1.1-38.1-2.2-57.2-3.5c-8.4-0.5-16.9-1.3-25.3-1.9
		c-3.1,1.4-6.3,0.6-9.3,0.2c-14.5-1.8-29-3.4-43.4-5.8c-1.5-0.2-3-0.2-3.8-1.8c-25.9-4.8-51.8-9.7-77.4-16.2
		c-37.3-9.5-73.9-21.4-109.9-35.1c-2.5-1-5-1.7-7.7-1.5c-1.6-1.2-4.1-1.1-5.3-3.1c-17.3-8.7-35.6-13.6-55-13.8
		c-7.3-0.1-14.6,0-21.9,0c-0.1-0.5-0.2-1-0.2-1.5c1.9-0.8,3.7-1.7,5.6-2.4c82.5-33,165.1-66,247.6-99.1c4-1.6,6.6-1.5,9.4,1.9
		c1.8,2.1,3.7,4.3,6.4,5.5c2,0.5,3.5,1.8,5,3.1c7,5.9,14.6,11,22.6,15.6c0.8,0.5,1.6,1,2.5,1.4c15.4,8.7,31.7,15.5,48.6,20.7
		c7.3,2.1,14.6,4.4,22.1,5.7c14.6,3.9,29.5,5.9,44.5,7.6c2.3,0.3,4.5,0.8,6.8,1c12.8,1.1,25.6,1.9,38.4,2.3c2.8,1,5.7,0.4,8.5,0.5
		c9.9,0.4,19.7,0.2,29.6,0.1c2.7-0.6,5.4-1,8.1-0.8c6.3-0.3,12.6,0.2,18.9-0.9c2-0.3,4-0.3,5.7,1.1c2.4,0.2,4.8-0.1,7.1-0.8
		c7.2-2.1,14.5-3.3,22-2.3c2.4-0.3,4.8-0.7,7.2-1c6.4-3.3,13.3-3.9,20.3-3.9c2.6,0.2,5-0.6,7.3-1.6c2.9-2.8,7-2.5,10.5-3.7
		c2.7-0.9,5.4-1.4,8.1-2.3c2.4-0.7,4.8-1.5,7.1-2.3c6.8-1.9,13.1-4.9,19.5-7.9c2.1-0.9,4.2-2.1,6.3-3.1c6.8-3.4,13.1-7.5,18.9-12.4
		c1.8-1.4,3.7-2.6,5.2-4.3c5.1-5.4,9.5-11.3,11.7-18.6c0.9-2.3,1.5-4.6,1.4-7.1c0.3-7.8-0.3-15.5-4.2-22.5
		c-1.7-4.5-4.5-8.4-7.4-12.2c-6.3-7.4-13.2-14.1-22.1-18.3c-1.5-1.7-3.3-3-5.4-3.8c-6.1-3-12-6.5-18.4-8.8c-0.9-0.3-1.8-0.7-2.6-1.1
		c-3.9-2.4-8.9-2.5-12.5-5.6c-17.4-6.3-35.5-9.9-53.6-12.9c-33-5.4-66.4-7.7-99.8-8.2c-0.8,0-1.7,0.1-2.5,0.1
		c-1.8,1.6-4,1.4-6.2,1.4c-5.5,0.1-11,0.1-16.4,0c-27.3-0.2-54.4,1.9-81.4,4.9c-1.8-0.1-3.5-0.1-5.2,0.5c-16.6,2-33,5.1-49.4,8.1
		c-2.9,0.5-5.9,0.9-8.8,1.1c-1.5,0.6-3.3-0.1-4.8,0.7c-3.1,0.1-6,0.7-8.8,2c-1.5,1.9-3.8,2-5.8,2.5c-22.2,5.2-44,11.7-65.7,18.8
		c-2.6,0.8-5.2,0.8-7.8,1.7c-6.1,0.8-11.3,4.2-17.4,5.5c-0.9-2.6,1.2-4.8,0.8-7.3c0.1-8.8,3.2-16.9,5.4-25.2
		c1.4-5.4,1.4-11.3,5.1-16c8.3-32.8,16.5-65.5,24.8-98.3c-0.6-1.8-0.4-3.6,0.1-5.4c2.7-10.9,5.5-21.8,8.2-32.8
		c0.4-1.6,0.9-3.2,2.1-4.4c4.8-15.4,8.1-31.1,12.1-46.7c4.9-19,9.8-38,14.2-57.1c1.2-5,3.3-6.6,8.1-6c1.6,0.2,3.3-0.1,5-0.2
		c2.1-2.2,4.9-1.7,7.5-1.7c16.1,0,32.2-0.1,48.3,0.1c32.1-0.1,64.1-0.3,96.2,0.1c11.6-0.1,23.1,0,34.7,0.2c0.9-0.1,1.8-0.1,2.7-0.1
		c10.4-0.2,20.8-0.4,31.1,0.3c14.1-0.8,28.3-0.7,42.4-0.1c11.9-0.4,23.7-0.5,35.6,0c1.2,0,2.4,0,3.6,0c10-0.5,20.1-0.3,30.1-0.3
		c14.5-0.2,29-0.2,43.5,0c11.9-0.2,23.7-0.2,35.6,0c1,0,1.9,0,2.9,0c9.6-0.2,19.2-0.2,28.8-0.1c32.2-0.2,64.5-0.2,96.7-0.1
		c16.1-0.1,32.2-0.1,48.4,0c2.6,0,5.4-0.5,7.5,1.7c7,0.1,14,0.4,20.9,0.2c4.3-0.2,6,0.8,5.9,5.6c-0.3,33.9-0.2,67.8-0.2,101.8
		c0,1.8,0.2,3.6,0.3,5.4c3,5.3,2,10.9,0.8,16.2c-0.7,3.3-3.8,2.5-6,0.9c-5.9-4.1-12.1-7.4-18.6-10.2c-17.6-7-36.2-8.9-54.9-9.5
		c-11.2-0.3-22.3,0-33.5-0.1c-15,0.3-30.1,0.1-45.1,0.1c-2.5-0.4-5.1,0.2-7.7-0.1c-15.4,0.1-30.9,0.2-46.3,0c-2.2-0.1-4.5,0.3-6.7,0
		c-11.1,0.2-22.3,0.1-33.4,0.1c-2.5-0.2-5,0.2-7.6-0.1c-9.2,0.2-18.3,0.2-27.5,0c-2.5,0.1-5,0.1-7.5,0c-8.2,0.2-16.3,0.2-24.5,0
		c-2.5,0.1-5,0.1-7.5,0c-8.2,0.2-16.3,0.2-24.5,0c-2.5,0.1-5,0-7.5,0c-9.1,0.2-18.1,0.2-27.2,0c-2.1,0.1-4.1,0.1-6.2,0
		c-3.1,0-6.3,0.1-9.4,0c-3.2-0.1-4.9,1.2-5.6,4.3c-1.2,5.5-2.6,10.9-4,16.3c-0.9,3-1.6,6-2.3,9.1c-1.7,6.9-3.6,13.7-5.3,20.7
		c-0.7,2.7,0.1,3.2,2.6,2.8c5.2-1,10.4-2,15.6-2.9c2.9-0.6,5.8-1,8.7-1.2c5.7-1.2,11.5-1.5,17.2-2.5c3.1-0.3,6.2-0.6,9.2-1.2
		c5.2,0.2,10.3-1,15.5-1.1c2.9,0,5.7-0.7,8.5-1c4.9-0.1,9.9,0.2,14.7-0.9c2.6-0.2,5.2-0.2,7.8-0.1c4.7-0.1,9.5,0.1,14.2-0.3
		c3.4-0.2,6.8,0.3,10.2-0.6c5.2-0.3,10.4-0.4,15.6,0c2.9,0.8,5.8,0.7,8.7,0.8c6.7-0.2,13.4-0.1,20-0.1c3,0.1,6,0.5,8.9,1
		c9.4-0.5,18.7,0.9,28,1.4c2.8,0.9,5.8,0.6,8.7,0.7c13.1,1.3,26.1,3,39.2,4.3c3,0.9,6.1,0.8,9.1,1.6c20.2,2.9,40.2,6.6,60,11.4
		c2.3,0.8,4.7,1.2,7,1.8c13.7,3.4,27.4,7.1,40.9,11.5C1370.9,967,1373.2,967.3,1374.4,969.4z"/>
</g>
</svg>
