<svg version="1.1" id="Layer_1" xmlns="http://www.w3.org/2000/svg" xlink="http://www.w3.org/1999/xlink" x="0px" y="0px" viewBox="126.7 577.1 2586.6095600000003 604.9999999999999" enable-background="126.7 577.1 2586.6095600000003 604.9999999999999" space="preserve">
<g>
	<path fill="#231F20" d="M235,988.7h60.7v189.7H175c0,0-48-8.3-48.3-56V945c0,0,2.7-34.2,33.2-55.4c2.3-1.6,4.5-3.3,6.7-5
		c5.5-4.2,29.2-14.7,128.4-11v56h-77.3c0,0-29.7-4.3-30.3,34.7v157.3h47C234.3,1121.7,234.6,988.3,235,988.7z"/>
	<linearGradient id="SVGID_1_" gradientUnits="userSpaceOnUse" x1="219.8079" y1="872.3388" x2="219.8079" y2="1165.9542">
		<stop offset="0" style="stop-color:#93292F"/>
		<stop offset="0.5231" style="stop-color:#CA282C"/>
		<stop offset="1" style="stop-color:#ED2028"/>
	</linearGradient>
	<path fill="url(#SVGID_1_)" d="M243.6,979.3h60.7V1169H183.6c0,0-48-8.3-48.3-56V935.7c0,0,2.7-34.2,33.2-55.4
		c2.3-1.6,4.5-3.3,6.7-5c5.5-4.2,29.2-14.7,128.4-11v56h-77.3c0,0-29.7-4.3-30.3,34.7v157.3h47C243,1112.3,243.3,979,243.6,979.3z"/>
	<path fill="#231F20" d="M1038.3,986.7h60.7v189.7H978.3c0,0-48-8.3-48.3-56V943c0,0,2.7-34.2,33.2-55.4c2.3-1.6,4.5-3.3,6.7-5
		c5.5-4.2,29.2-14.7,128.4-11v56H1021c0,0-29.7-4.3-30.3,34.7v157.3h47C1037.6,1119.7,1038,986.3,1038.3,986.7z"/>
	<path fill="#231F20" d="M464.1,927.5v-55h-91.5c0,0-42-5-54.5,52.5v181c0,0,0.5,57,70.5,72h75v-57h-58c0,0-32,3-26-58h62v-58h-62
		v-77.3C379.6,927.8,463.6,927,464.1,927.5z"/>
	<rect x="1126" y="872" fill="#231F20" width="58.7" height="304"/>
	<rect x="1803.6" y="658.2" fill="#231F20" width="123.3" height="518.3"/>
	<path fill="#231F20" d="M1322.3,873h-56c0,0-53.3,6-47.3,66c0,0-0.7,238-1.3,238h62v-133.3h46v132.7h62V943.7
		C1387.6,943.7,1383,889.7,1322.3,873z M1327,985.7h-48v-55.3C1337,918.3,1327,985.7,1327,985.7z"/>
	<linearGradient id="SVGID_2_" gradientUnits="userSpaceOnUse" x1="1313.9745" y1="864.3388" x2="1313.9745" y2="1174.3389">
		<stop offset="0" style="stop-color:#93292F"/>
		<stop offset="0.5231" style="stop-color:#CA282C"/>
		<stop offset="1" style="stop-color:#ED2028"/>
	</linearGradient>
	<path fill="url(#SVGID_2_)" d="M1333.6,867h-56c0,0-53.3,6-47.3,66c0,0-0.7,238-1.3,238h62v-133.3h46v132.7h62V937.7
		C1399,937.7,1394.3,883.7,1333.6,867z M1338.3,979.7h-48v-55.3C1348.3,912.3,1338.3,979.7,1338.3,979.7z"/>
	<path fill="#231F20" d="M1752.3,752.3v-96h-179c0,0-122,2-121,108v410h123v-194h127v-97h-125v-130
		C1577.3,753.3,1753.8,750.8,1752.3,752.3z"/>
	<polygon fill="#231F20" points="1969.3,651.3 2107.3,651.3 2179.3,937.3 2249.3,650.3 2388.3,650.3 2242.3,1172.3 2116.3,1172.3 	
		"/>
	<path fill="#231F20" d="M2707.3,748.7v-96h-194c0,0-112,11-108,116v272c0,0-1,108,147,134h153v-95h-116c0,0-71,9-56-100h124v-99
		h-124V751C2533.3,751,2708.8,747.2,2707.3,748.7z"/>
	<linearGradient id="SVGID_3_" gradientUnits="userSpaceOnUse" x1="402.8079" y1="864.3388" x2="402.8079" y2="1174.3389">
		<stop offset="0" style="stop-color:#93292F"/>
		<stop offset="0.5231" style="stop-color:#CA282C"/>
		<stop offset="1" style="stop-color:#ED2028"/>
	</linearGradient>
	<path fill="url(#SVGID_3_)" d="M475.8,921.8v-55h-91.5c0,0-42-5-54.5,52.5v181c0,0,0.5,57,70.5,72h75v-57h-58c0,0-32,3-26-58h62
		v-58h-62v-77.3C391.3,922.1,475.3,921.3,475.8,921.8z"/>
	<path fill="#231F20" d="M870.6,1029c50-21.3,34-102,34-102c0-50.7-51.3-53.3-51.3-53.3h-116l-0.7,304h62v-132h10.7l34,132H908
		L870.6,1029z M798.3,989v-59h47C853.6,1005,798.3,989,798.3,989z"/>
	<linearGradient id="SVGID_4_" gradientUnits="userSpaceOnUse" x1="831.3079" y1="864.3388" x2="831.3079" y2="1174.3389">
		<stop offset="0" style="stop-color:#93292F"/>
		<stop offset="0.5231" style="stop-color:#CA282C"/>
		<stop offset="1" style="stop-color:#ED2028"/>
	</linearGradient>
	<path fill="url(#SVGID_4_)" d="M879.6,1022c50-21.3,34-102,34-102c0-50.7-51.3-53.3-51.3-53.3h-116l-0.7,304h62v-132h10.7l34,132
		H917L879.6,1022z M807.3,982v-59h47C862.6,998,807.3,982,807.3,982z"/>
	<linearGradient id="SVGID_5_" gradientUnits="userSpaceOnUse" x1="1023.8079" y1="864.3388" x2="1023.8079" y2="1174.3389">
		<stop offset="0" style="stop-color:#93292F"/>
		<stop offset="0.5231" style="stop-color:#CA282C"/>
		<stop offset="1" style="stop-color:#ED2028"/>
	</linearGradient>
	<path fill="url(#SVGID_5_)" d="M1047.6,982.7h60.7v189.7H987.6c0,0-48-8.3-48.3-56V939c0,0,2.7-34.2,33.2-55.4
		c2.3-1.6,4.5-3.3,6.7-5c5.5-4.2,29.2-14.7,128.4-11v56h-77.3c0,0-29.7-4.3-30.3,34.7v157.3h47
		C1047,1115.7,1047.3,982.3,1047.6,982.7z"/>
	<linearGradient id="SVGID_6_" gradientUnits="userSpaceOnUse" x1="1168.3079" y1="864.3388" x2="1168.3079" y2="1174.3389">
		<stop offset="0" style="stop-color:#93292F"/>
		<stop offset="0.5231" style="stop-color:#CA282C"/>
		<stop offset="1" style="stop-color:#ED2028"/>
	</linearGradient>
	<rect x="1139" y="867" fill="url(#SVGID_6_)" width="58.7" height="304"/>
	<g>
		<linearGradient id="SVGID_7_" gradientUnits="userSpaceOnUse" x1="1673.3079" y1="902.1722" x2="1927.5046" y2="902.1722">
			<stop offset="0" style="stop-color:#93292F"/>
			<stop offset="0.5231" style="stop-color:#F16726"/>
			<stop offset="1" style="stop-color:#ED2028"/>
		</linearGradient>
		<rect x="1815" y="643" fill="url(#SVGID_7_)" width="123.3" height="518.3"/>
		
			<radialGradient id="SVGID_8_" cx="-585.9861" cy="5176.4609" r="62.683" gradientTransform="matrix(-0.1256 -4.2073 -0.3113 0.9418 3384.5835 -6438.9814)" gradientUnits="userSpaceOnUse">
			<stop offset="0" style="stop-color:#FFFFFF;stop-opacity:0.75"/>
			<stop offset="0.5304" style="stop-color:#FCE5DF;stop-opacity:0.6"/>
			<stop offset="1" style="stop-color:#FFFFFF;stop-opacity:0"/>
		</radialGradient>
		<path fill="url(#SVGID_8_)" d="M1838.8,638.1c15.4-46.7,31.4,33.7,35.7,179.3c4.4,145.5-4.6,301.4-20,348.1s-31.4-33.7-35.7-179.3
			S1823.4,684.8,1838.8,638.1z"/>
	</g>
	<linearGradient id="SVGID_9_" gradientUnits="userSpaceOnUse" x1="1223.3079" y1="903.3388" x2="1675.3123" y2="903.3388">
		<stop offset="0" style="stop-color:#93292F"/>
		<stop offset="0.5231" style="stop-color:#F16726"/>
		<stop offset="1" style="stop-color:#ED2028"/>
	</linearGradient>
	<path fill="url(#SVGID_9_)" d="M1758.3,740.3v-96h-179c0,0-122,2-121,108v410h123v-194h127v-97h-125v-130
		C1583.3,741.3,1759.8,738.8,1758.3,740.3z"/>
	
		<radialGradient id="SVGID_10_" cx="-338.5685" cy="6196.292" r="62.683" gradientTransform="matrix(-0.1428 -3.754 -0.3074 0.8389 3350.4541 -5541.6494)" gradientUnits="userSpaceOnUse">
		<stop offset="0" style="stop-color:#FFFFFF;stop-opacity:0.75"/>
		<stop offset="0.5304" style="stop-color:#FCE5DF;stop-opacity:0.6"/>
		<stop offset="1" style="stop-color:#FFFFFF;stop-opacity:0"/>
	</radialGradient>
	<path fill="url(#SVGID_10_)" d="M1485.1,692.5c15.2-41.6,31.5,30.2,36.5,160.1c5,129.8-3.4,268.8-18.6,310.4
		c-15.2,41.6-31.5-30.2-36.5-160.1C1461.5,873.1,1469.9,734.1,1485.1,692.5z"/>
	<linearGradient id="SVGID_11_" gradientUnits="userSpaceOnUse" x1="2227.3079" y1="904.3388" x2="2665.4221" y2="904.3388">
		<stop offset="0" style="stop-color:#93292F"/>
		<stop offset="0.5231" style="stop-color:#F16726"/>
		<stop offset="1" style="stop-color:#ED2028"/>
	</linearGradient>
	<path fill="url(#SVGID_11_)" d="M2713.3,739.3v-96h-194c0,0-112,11-108,116v272c0,0-1,108,147,134h153v-95h-116c0,0-71,9-56-100
		h124v-99h-124V741.7C2539.3,741.7,2714.8,737.8,2713.3,739.3z"/>
	<g>
		<linearGradient id="SVGID_12_" gradientUnits="userSpaceOnUse" x1="1969.3079" y1="901.3388" x2="2361.6343" y2="901.3388">
			<stop offset="0" style="stop-color:#93292F"/>
			<stop offset="0.5231" style="stop-color:#F16726"/>
			<stop offset="1" style="stop-color:#ED2028"/>
		</linearGradient>
		<polygon fill="url(#SVGID_12_)" points="1978.3,641.3 2116.3,641.3 2188.3,927.3 2258.3,640.3 2397.3,640.3 2251.3,1162.3 
			2125.3,1162.3 		"/>
		
			<radialGradient id="SVGID_13_" cx="-892.63" cy="3828.6045" r="62.683" gradientTransform="matrix(-1.2469 -4.0203 -4.791176e-002 0.9908 1155.4918 -6488.6626)" gradientUnits="userSpaceOnUse">
			<stop offset="0" style="stop-color:#F9C4B7;stop-opacity:0.75"/>
			<stop offset="0.5304" style="stop-color:#FCE5DF;stop-opacity:0.3522"/>
			<stop offset="1" style="stop-color:#FFFFFF;stop-opacity:0"/>
		</radialGradient>
		<path fill="url(#SVGID_13_)" d="M2007,641.4c2.3-49.1,39.2,24.1,82.4,163.1c43.2,139,76.2,291.6,73.9,340.7s-39.2-24.1-82.4-163.1
			S2004.6,690.5,2007,641.4z"/>
	</g>
	<text transform="matrix(1 0 0 1 2735.637 744.6288)" font-family="&apos;MyriadPro-Regular&apos;" font-size="143.5917px">&#x422;&#x41C;</text>
	<radialGradient id="SVGID_14_" cx="649.97" cy="999.6492" r="131.4686" gradientUnits="userSpaceOnUse">
		<stop offset="0" style="stop-color:#FFFFFF"/>
		<stop offset="3.187318e-002" style="stop-color:#FFFEF9"/>
		<stop offset="7.541171e-002" style="stop-color:#FFFCE7"/>
		<stop offset="0.1257" style="stop-color:#FEF8CA"/>
		<stop offset="0.181" style="stop-color:#FDF3A2"/>
		<stop offset="0.2405" style="stop-color:#FDEC6F"/>
		<stop offset="0.3025" style="stop-color:#FBE431"/>
		<stop offset="0.3282" style="stop-color:#FBE015"/>
		<stop offset="0.6132" style="stop-color:#DCB128"/>
		<stop offset="1" style="stop-color:#C2932E"/>
	</radialGradient>
	<ellipse fill="url(#SVGID_14_)" cx="599.6" cy="1064.3" rx="124.7" ry="117.8"/>
	<radialGradient id="SVGID_15_" cx="706.97" cy="716.6492" r="117.4777" gradientUnits="userSpaceOnUse">
		<stop offset="0" style="stop-color:#FFFFFF"/>
		<stop offset="3.187318e-002" style="stop-color:#FFFEF9"/>
		<stop offset="7.541171e-002" style="stop-color:#FFFCE7"/>
		<stop offset="0.1257" style="stop-color:#FEF8CA"/>
		<stop offset="0.181" style="stop-color:#FDF3A2"/>
		<stop offset="0.2405" style="stop-color:#FDEC6F"/>
		<stop offset="0.3025" style="stop-color:#FBE431"/>
		<stop offset="0.3282" style="stop-color:#FBE015"/>
		<stop offset="0.6132" style="stop-color:#DCB128"/>
		<stop offset="1" style="stop-color:#C2932E"/>
	</radialGradient>
	<ellipse fill="url(#SVGID_15_)" cx="661.6" cy="770.3" rx="114.7" ry="108.3"/>
	<radialGradient id="SVGID_16_" cx="960.97" cy="633.6492" r="94.2019" gradientUnits="userSpaceOnUse">
		<stop offset="0" style="stop-color:#FFFFFF"/>
		<stop offset="3.187318e-002" style="stop-color:#FFFEF9"/>
		<stop offset="7.541171e-002" style="stop-color:#FFFCE7"/>
		<stop offset="0.1257" style="stop-color:#FEF8CA"/>
		<stop offset="0.181" style="stop-color:#FDF3A2"/>
		<stop offset="0.2405" style="stop-color:#FDEC6F"/>
		<stop offset="0.3025" style="stop-color:#FBE431"/>
		<stop offset="0.3282" style="stop-color:#FBE015"/>
		<stop offset="0.6132" style="stop-color:#DCB128"/>
		<stop offset="1" style="stop-color:#C2932E"/>
	</radialGradient>
	<ellipse fill="url(#SVGID_16_)" cx="914.6" cy="671.3" rx="99.7" ry="94.2"/>
	<radialGradient id="SVGID_17_" cx="1173.97" cy="634.6492" r="124.2014" gradientUnits="userSpaceOnUse">
		<stop offset="0" style="stop-color:#FFFFFF"/>
		<stop offset="3.187318e-002" style="stop-color:#FFFEF9"/>
		<stop offset="7.541171e-002" style="stop-color:#FFFCE7"/>
		<stop offset="0.1257" style="stop-color:#FEF8CA"/>
		<stop offset="0.181" style="stop-color:#FDF3A2"/>
		<stop offset="0.2405" style="stop-color:#FDEC6F"/>
		<stop offset="0.3025" style="stop-color:#FBE431"/>
		<stop offset="0.3282" style="stop-color:#FBE015"/>
		<stop offset="0.6132" style="stop-color:#DCB128"/>
		<stop offset="1" style="stop-color:#C2932E"/>
	</radialGradient>
	<ellipse fill="url(#SVGID_17_)" cx="1141.6" cy="666.3" rx="88.7" ry="83.8"/>
	<radialGradient id="SVGID_18_" cx="1332.97" cy="725.6492" r="67.9559" gradientUnits="userSpaceOnUse">
		<stop offset="0" style="stop-color:#FFFFFF"/>
		<stop offset="3.187318e-002" style="stop-color:#FFFEF9"/>
		<stop offset="7.541171e-002" style="stop-color:#FFFCE7"/>
		<stop offset="0.1257" style="stop-color:#FEF8CA"/>
		<stop offset="0.181" style="stop-color:#FDF3A2"/>
		<stop offset="0.2405" style="stop-color:#FDEC6F"/>
		<stop offset="0.3025" style="stop-color:#FBE431"/>
		<stop offset="0.3282" style="stop-color:#FBE015"/>
		<stop offset="0.6132" style="stop-color:#DCB128"/>
		<stop offset="1" style="stop-color:#C2932E"/>
	</radialGradient>
	<ellipse fill="url(#SVGID_18_)" cx="1312.6" cy="759.3" rx="71.7" ry="67.7"/>
	
		<radialGradient id="SVGID_19_" cx="-968.6926" cy="3376.7739" r="62.683" gradientTransform="matrix(-0.1146 -3.3858 -0.2636 0.7573 3223.5503 -4933.6143)" gradientUnits="userSpaceOnUse">
		<stop offset="0" style="stop-color:#FFFFFF;stop-opacity:0.75"/>
		<stop offset="0.5304" style="stop-color:#FCE5DF;stop-opacity:0.6"/>
		<stop offset="1" style="stop-color:#FFFFFF;stop-opacity:0"/>
	</radialGradient>
	<path fill="url(#SVGID_19_)" d="M2437.2,691.2c13-37.6,26.8,27.2,30.8,144.3c4,117.1-3.4,242.5-16.4,280.1
		c-13,37.6-26.8-27.2-30.8-144.3C2416.8,854.1,2424.2,728.7,2437.2,691.2z"/>
</g>
</svg>
