<?xml version="1.0" encoding="UTF-8"?>
<svg id="Layer_2" data-name="Layer 2" xmlns="http://www.w3.org/2000/svg" viewBox="0 0 1192.39 720.08">
  <g id="Layer_1-2" data-name="Layer 1">
    <path d="M1030.98,401.96c28.53,45.95,36.45,94.96,22.14,146.78-12.84,46.54-40.76,82.34-82.46,106.62-45.66,26.58-94.45,31.91-144.74,16.15-50.29-15.76-86.22-48.83-109.51-96.31-2.41,4.66-5.28,8.72-9.88,10.97-2.74,1.34-5.69,2.72-8.66,3.05-13.46,1.49-26.95,2.63-40.44,3.85-6.44.58-12.32-.88-17.22-5.29-1.63-1.47-3.23-.92-4.95-.55-10.33,2.25-20.7,4.4-31.01,6.76-5.95,1.36-11.37.23-16.57-2.67-.75-.42-1.54-.76-2.53-1.24-4.27,7.43-10.94,10.77-19.04,12.29-9.81,1.83-19.48,4.42-29.28,6.37-18.86,3.75-37.55,8.29-56.35,12.34-22.26,4.8-44.51,9.61-66.77,14.43-9.05,1.96-18.09,3.94-27.11,6-6.31,1.44-12.25.64-17.86-2.57-.63-.36-1.29-.68-2.11-1.12-.67.82-1.37,1.55-1.92,2.38-3.49,5.23-8.66,7.9-14.55,9.24-10.03,2.27-20.14,4.2-30.16,6.52-7.39,1.71-14.32,1.21-20.73-3.16-.63.23-1.27.31-1.69.65-12.57,10.37-27.32,16.08-42.91,19.8-11.01,2.63-22.1,4.87-33.55,4.85-8.8-.02-17.27-1.38-25.41-4.52-.33.21-.69.31-.8.54-4.19,8.21-11.35,11.79-20.02,13.6-22.44,4.67-44.82,9.62-67.22,14.46-3.59.78-7.2,1.48-10.75,2.41-6.36,1.66-12.25.58-17.84-2.69-.62-.36-1.27-.67-1.66-.87-2.65,2.66-4.93,5.39-7.64,7.56-3.02,2.42-6.76,3.4-10.57,4.18-11.09,2.25-22.1,4.89-33.21,6.96-11.18,2.08-21.01-5.63-24.05-13.83-1.3-3.52-1.75-7.1-1.75-10.82,0-27.01-.05-54.01-.09-81.02,0-2.06,0-4.13-.09-6.19-.43-10.38,7.75-19.67,17.26-21.83,11.75-2.67,23.52-5.24,35.3-7.76,4.06-.87,8.29-.02,15.59,2.72.38-.27.95-.52,1.29-.95,4.06-5.12,9.51-7.65,15.77-8.96,14.96-3.12,29.9-6.33,44.83-9.57,12.06-2.62,24.15-5.14,36.14-8.06,7.45-1.81,14.28-1.15,20.68,3.14.35.23.83.29,1.47.49,2.25-1.69,4.55-3.49,6.94-5.17,11.88-8.35,25.26-13.12,39.26-16.35,11.48-2.65,23.03-4.96,34.92-4.49,7.39.29,14.62,1.43,21.71,4.35.48-.66,1.02-1.32,1.45-2.04,3.55-5.91,8.82-9.36,15.47-10.82,9.9-2.18,19.82-4.25,29.71-6.51,6.83-1.56,13.43-1.49,19.55,1.94.48-.17.87-.19,1.02-.38,4.88-6.75,12.21-8.74,19.8-10.37,22.69-4.88,45.37-9.83,68.04-14.76,23.11-5.03,46.19-10.25,69.34-15.07,15.51-3.23,30.89-6.97,46.41-10.12.54-.11,1.06-.34,2.22-.72-.94-.49-1.35-.87-1.78-.9-9.25-.7-18.51-1.23-27.75-2.07-10.11-.92-20.19-2.06-30.27-3.23-9.79-1.14-19.57-2.32-29.32-3.71-12.08-1.72-24.2-3.31-36.17-5.61-19.62-3.77-39.23-7.67-58.68-12.23-42.15-9.88-83.28-22.99-122.99-40.35-22.97-10.04-45.18-21.55-66.16-35.31-18.18-11.93-35.13-25.42-49.83-41.52-15.27-16.72-27.44-35.36-33.72-57.37-6.95-24.35-5.38-48.27,4.07-71.71,7.38-18.3,18.65-34.01,32.17-48.23,19.9-20.92,43.16-37.41,68.14-51.59,37.26-21.15,76.89-36.69,117.76-49.24,27.27-8.37,54.86-15.49,82.88-20.84,17.46-3.33,34.93-6.64,52.49-9.4,14.81-2.32,29.73-4.07,44.64-5.64,16.68-1.76,33.39-3.16,50.11-4.46,11.01-.85,22.04-1.34,33.08-1.8,10.45-.44,20.91-.69,31.37-.9,12.97-.25,25.95-.54,38.92-.48,11.64.05,23.28.43,34.92.87,10.45.39,20.89.89,31.32,1.64,12.76.92,25.51,2.06,38.25,3.27,12.01,1.14,24.03,2.29,36,3.79,11.52,1.44,23.02,3.11,34.46,5.05,16.37,2.78,32.72,5.74,49.03,8.9,25.27,4.9,50.16,11.34,74.8,18.75,31.58,9.5,62.47,20.87,92.25,35.08,27.07,12.91,52.91,27.89,76.12,47.02,17.73,14.62,33.56,31.01,45.26,51.02,8.11,13.86,13.74,28.65,15.86,44.61,3.23,24.31-1.8,47.11-13.26,68.6-8.62,16.16-20.18,30.05-33.31,42.71-18.8,18.13-40.15,32.76-62.84,45.5-15.4,8.65-31.25,16.43-47.53,23.3-1.19.5-2.29,1.19-3.52,1.84ZM632.56,564.72c.27-2.05.55-4.09.82-6.14.88-7.3,1.85-14.59,2.62-21.9.5-4.73,1.78-9.63-1.74-13.9-.14-.17-.02-.56-.02-.87,5.56-8.46,8.22-16.3,6.39-27.99-1.66-10.6-9.78-21.7-23.67-21.32-5.84.16-11.74.89-17.46,2.09-22.57,4.74-45.08,9.73-67.58,14.76-2.78.62-5.39,1.97-8.11,3-2.81.18-5.89.02-8.8.63-12.8,2.67-25.54,5.57-38.31,8.36-6.46,1.41-12.94,2.73-19.4,4.13-6.31,1.37-12.58,3.02-18.93,4.15-6.41,1.14-12.57,3.21-18.98,4.41-13.56,2.55-26.96,5.97-40.52,8.56-4.45.85-7.51,2.92-10.15,6.28-4.28,5.45-8.66,10.81-13.03,16.18-.49.6-1.18,1.04-2.18,1.9,0-3.36.09-6.16-.02-8.95-.21-5.55-4.48-8.89-9.92-7.73-10.63,2.28-21.24,4.61-31.85,6.94-5.09,1.12-6.94,3.36-6.97,8.62-.04,7.21-.01,14.43-.01,22.35-.77-1.4-1.24-2.26-1.72-3.12-4.32-7.78-10.56-13.42-19.03-16.27-8.21-2.76-16.62-3.17-25.26-2.16-12.33,1.44-24.36,4-36.03,8.15-18.64,6.63-32.91,18.08-40.06,37.16-.13.34-.45.61-1.17,1.55-.15-1.59-.32-2.52-.32-3.46-.03-4.72.03-9.45-.02-14.17-.07-6.22-3.63-9.14-9.69-7.91-7.34,1.5-14.63,3.22-21.99,4.59-7.32,1.36-14.29,4.13-21.76,4.98-4.94.56-9.78,1.97-14.67,3.03-8.47,1.82-16.95,3.63-25.41,5.52-2.6.58-4.98,1.55-6.75,3.83-4.15,5.36-8.44,10.61-12.75,15.85-1.13,1.38-2.01,3.11-4.11,3.88,0-2.96.07-5.62-.01-8.27-.18-5.95-4.18-9.09-10.02-7.86-10.5,2.21-20.99,4.44-31.47,6.72-5.58,1.22-7.3,3.45-7.29,9.25.07,28.63.14,57.26.23,85.89.02,7.42,3.78,10.53,11.06,8.98,10.34-2.2,20.66-4.54,30.97-6.87,4.94-1.11,6.67-3.25,6.71-8.32.04-5.61.06-11.22-.15-16.82-.11-2.96.89-5.08,3.54-6.81,1.52,1.84,3.02,3.62,4.48,5.43,4.07,5.05,8.14,10.09,12.18,15.17,2.51,3.16,5.47,4.57,9.64,3.46,4.96-1.31,10.06-2.13,15.07-3.27,10.45-2.38,20.86-4.93,31.33-7.22,11.33-2.48,22.72-4.69,34.06-7.13,5.96-1.28,7.46-3.33,7.47-9.52.01-7.63,0-15.26,0-23.97,1.2,2.34,1.76,3.84,2.66,5.12,2.2,3.11,4.26,6.39,6.89,9.09,7.48,7.68,17.26,9.68,27.46,10.19,9.8.49,19.34-1.55,28.81-3.64,10.2-2.25,20.17-5.29,29.45-10.29,12.38-6.67,21.79-15.96,26.59-29.45.18-.51.48-.98.72-1.47.55,5.23.47,10.33.57,15.44.11,5.77,3.97,9.19,9.56,8.07,11.09-2.22,22.13-4.68,33.16-7.21,4.31-.99,6.01-3.5,6.05-8.02.04-5.76.15-11.52-.05-17.27-.11-2.99.91-4.97,3.58-6.5,5.2,6.48,10.45,12.64,15.25,19.15,3.35,4.55,7.24,5.8,12.65,4.56,18.03-4.13,36.11-8.02,54.18-11.97,26.69-5.83,53.39-11.58,80.06-17.48,2.75-.61,5.32-2.05,8.33-3.25,2.02,0,4.7.43,7.19-.08,9.93-2.02,19.79-4.35,29.68-6.55,6.67-1.48,7.91-3.03,7.92-9.94,0-6.32,0-12.64,0-19.19,5.84-1.21,11.38-2.35,17.23-3.56.15,1.78.26,2.93.35,4.08.31,3.96.49,7.93.95,11.87.79,6.79,4.39,9.52,11.15,8.62,1.45-.19,2.87-.58,4.31-.9,8.44-1.84,16.89-3.69,25.38-5.55.25-2.77.48-5.25.7-7.72ZM1017.12,383c.25-.1.78-.31,1.31-.53,19.61-8.06,38.67-17.27,56.99-27.94,19.92-11.6,38.67-24.8,55.15-41.01,13.43-13.22,24.77-27.94,32.26-45.43,6.06-14.15,8.12-28.91,6.38-44.04-1.67-14.51-7.29-27.75-15.07-40.09-12.3-19.47-28.65-35.05-46.87-48.81-20.51-15.5-42.78-28.06-66.02-38.95-25.84-12.1-52.48-22.11-79.74-30.52-30.3-9.35-61.03-16.83-92.16-22.87-22.91-4.45-45.95-7.99-69.06-11.09-13.68-1.84-27.43-3.16-41.17-4.44-11.85-1.1-23.73-1.97-35.62-2.66-13.22-.77-26.45-1.66-39.68-1.72-25.5-.12-51.01.26-76.51.55-7.94.09-15.89.47-23.83.88-9.69.5-19.39,1.04-29.06,1.81-13.33,1.06-26.64,2.26-39.95,3.59-10.96,1.1-21.92,2.25-32.82,3.79-12.19,1.72-24.37,3.64-36.46,5.96-19.86,3.8-39.74,7.57-59.45,12.09-26.17,6-51.9,13.6-77.24,22.54-31.26,11.03-61.56,24.18-90.13,41.06-23.69,14-45.71,30.16-63.83,51.17-9.02,10.45-16.45,21.86-21.89,34.54-3.61,8.42-5.85,17.26-6.57,26.36-1.55,19.41,3.54,37.24,13.33,53.92,9.66,16.46,22.28,30.36,36.76,42.61,18.16,15.37,38.06,28.16,59.14,39.16,15,7.83,30.34,14.91,46.03,21.27,26.83,10.88,54.29,19.88,82.26,27.23,15.73,4.14,31.57,7.93,47.47,11.37,14.19,3.07,28.48,5.69,42.8,8.05,13.32,2.19,26.72,3.86,40.11,5.59,11.79,1.53,23.59,2.96,35.41,4.19,10.23,1.06,20.48,1.99,30.75,2.6,14.39.85,28.81,1.37,43.21,1.99,3.09.13,6.2.05,9.3.13,11.91.31,23.82.65,35.51.97,4.04-5.37,8.94-8.46,14.97-9.59,2.44-.46,4.98-.36,7.47-.61,8.33-.82,16.65-1.73,24.99-2.5,5.84-.54,11.7-.89,17.52-1.32,27.3-59.89,72.22-98.43,137.94-109.22,65.87-10.81,120.8,11.44,166.09,59.91ZM741.53,542.7c0,1.25-.08,2.14.02,3.01.1.87.37,1.72.57,2.57,2.28,9.82,8.35,17.11,15.95,23.22,8.7,7,18.68,11.73,29.2,15.26,12.5,4.19,25.24,7.51,38.41,8.93,8.39.9,16.79,2.4,25.19,2.48,11.58.11,23.18.64,34.78-.52,9.02-.91,18.07-1.34,27.08-2.67,14.59-2.15,28.88-5.26,42.56-10.79,16.65-6.72,31.18-16.19,40.44-32.2,5.14-8.88,6.98-18.51,5.3-28.59-1.83-11.01-7.86-19.74-16.28-26.77-8.21-6.85-17.67-11.62-27.69-15.23-8.55-3.08-17.29-5.44-26.24-7.28-11.19-2.29-22.44-3.86-33.8-4.12-11.01-.25-22.05.24-33.05.87-7.01.4-14.04,1.28-20.94,2.61-7.56,1.46-14.97,3.68-23,5.71,3.87-13.6,8.37-26.82,13.04-40.24h153.49v-30.86h-207.76c-8.67,34.4-17.3,68.61-25.95,102.94,5.22.51,9.84,1.29,14.48,1.35,16.67.22,33.35.23,50.03.2,1.31,0,2.7-.76,3.9-1.44,3.15-1.79,6.05-4.12,9.36-5.53,9.77-4.17,20.17-5.68,30.7-6.23,8.67-.45,17.32-.19,25.92,1.38,11.39,2.08,22.06,5.52,30.2,14.34,5.31,5.75,8.02,12.55,7.37,20.36-.7,8.33-4.71,15.05-11.17,20.3-9.86,8.03-21.69,11.2-33.9,12.26-11.39.99-22.94,1.03-34.25-1.61-6.18-1.45-12.18-3.38-17.57-6.87-6.29-4.07-10.43-9.74-12.23-16.85h-74.16ZM656.06,528.63c-3.57,1.91-4.37,4.87-4.7,8.28-.63,6.56-1.61,13.09-2.32,19.65-.51,4.67-1.03,9.36-1.18,14.05-.14,4.4,2.72,7.1,7.11,7.23,1.32.04,2.66-.03,3.98-.15,11.83-1.14,23.66-2.33,35.49-3.44,5.07-.48,7.56-3.07,8.09-8.14.67-6.41,1.68-12.78,2.36-19.19.54-5.11.83-10.25,1.2-15.38.13-1.81-.01-3.58-1.53-4.87-1.5-1.27-1.23-2.76-.88-4.43.85-4.01,1.58-8.04,2.3-12.08,1.9-10.67,3.73-21.35,5.66-32.02,1.28-7.07,2.75-14.1,3.98-21.17.92-5.33-2.19-9.02-7.54-8.97-2.63.02-5.24.55-7.87.78-10.68.95-21.36,1.89-32.04,2.79-5.91.5-8.41,3-8.73,8.94-.56,10.27-1.15,20.55-1.65,30.82-.61,12.34-1.14,24.68-1.72,37.32Z" style="fill: #5350a2; stroke-width: 0px;"/>
    <path d="M177.19,539.44c-9.58,2.07-18.6,4.02-28.02,6.06-3.34-8.47-6.59-16.74-10.23-25.97-3.52,10.75-6.73,20.54-9.96,30.41-9.36,2.04-18.51,4.03-28.09,6.11-6.09-17.1-12.12-34.02-18.25-51.23,8.76-1.93,17.17-3.79,25.88-5.71,2.87,9.88,5.67,19.51,8.47,29.15.25-.02.49-.04.74-.06,3.53-10.96,7.05-21.92,10.71-33.3,6.58-1.49,13.27-3,20.51-4.63,3.4,9.49,6.79,18.96,10.18,28.43,4.1-10.55,6.6-21.45,9.82-32.68,8.13-1.79,16.52-3.64,25.8-5.68-5.73,20.21-11.72,39.6-17.54,59.11Z" style="fill: #5350a2; stroke-width: 0px;"/>
    <path d="M355.89,500.48c-8.04,1.74-15.75,3.41-23.96,5.19-.12-4.11-.28-7.73-.31-11.35-.05-5.9.06-11.81-.04-17.71-.1-6.32-3.52-8.76-9.57-7-6.53,1.9-10.04,6.43-10.09,13.3-.07,8.84-.02,17.69-.02,27.12-8,1.75-15.94,3.49-24.33,5.33v-74.47c7.42-1.63,15.22-3.34,23.43-5.14.32,8.41.62,16.28.9,23.9,4.01-2.67,7.77-5.81,12.05-7.88,6.54-3.16,13.52-5.02,20.94-3.16,5.56,1.39,8.88,5.02,10.29,10.42.51,1.98.8,4.07.82,6.11.13,11.06.14,22.13.18,33.2,0,.57-.15,1.14-.29,2.15Z" style="fill: #5350a2; stroke-width: 0px;"/>
    <path d="M230.78,472.62c3.94-.95,7.47-1.81,11.14-2.7v-17.49c7.87-1.72,15.67-3.43,24.04-5.26v17.59c4.64-.98,8.73-1.84,13.07-2.75v15.8c-4.06.99-8.15,1.97-12.42,3.01,0,6.84-.09,13.44.04,20.05.06,2.91,1.43,3.82,4.41,3.28,2.87-.52,5.72-1.19,8.85-1.85v14.61c-5.73,2.47-11.83,4.02-18,5.2-3.44.66-6.99.97-10.5,1-4.34.04-7.26-2.32-8.3-6.52-.59-2.4-.89-4.93-.93-7.4-.12-7.64-.04-15.28-.04-23.11-3.77.78-7.05,1.45-10.61,2.18-1.4-2.46-.59-5.13-.72-7.66-.14-2.49-.03-4.99-.03-7.99Z" style="fill: #5350a2; stroke-width: 0px;"/>
    <path d="M225.02,528.98c-8.3,1.79-16.11,3.47-24.37,5.25v-55.17c7.69-1.66,15.48-3.33,23.62-5.08.25,18.67.5,36.7.75,54.99Z" style="fill: #5350a2; stroke-width: 0px;"/>
    <path d="M200.63,459.75c7.91-1.71,15.56-3.36,23.55-5.08v14.12c-7.56,1.65-15.35,3.35-23.55,5.14v-14.18Z" style="fill: #5350a2; stroke-width: 0px;"/>
    <path d="M1017.12,383c-45.29-48.48-100.23-70.72-166.09-59.91-65.72,10.79-110.64,49.32-137.94,109.22-5.82.43-11.68.78-17.52,1.32-8.33.76-16.66,1.68-24.99,2.5-2.49.24-5.03.15-7.47.61-6.02,1.13-10.93,4.23-14.97,9.59-11.69-.32-23.6-.66-35.51-.97-3.1-.08-6.2,0-9.3-.13-14.41-.62-28.82-1.14-43.21-1.99-10.27-.61-20.52-1.54-30.75-2.6-11.82-1.23-23.62-2.66-35.41-4.19-13.39-1.73-26.79-3.4-40.11-5.59-14.32-2.36-28.62-4.98-42.8-8.05-15.9-3.44-31.74-7.23-47.47-11.37-27.98-7.36-55.43-16.35-82.26-27.23-15.69-6.36-31.03-13.44-46.03-21.27-21.07-11-40.98-23.8-59.14-39.16-14.48-12.25-27.1-26.15-36.76-42.61-9.78-16.68-14.88-34.51-13.33-53.92.73-9.1,2.96-17.94,6.57-26.36,5.44-12.68,12.87-24.09,21.89-34.54,18.13-21,40.14-37.17,63.83-51.17,28.57-16.88,58.87-30.03,90.13-41.06,25.33-8.94,51.07-16.54,77.24-22.54,19.71-4.52,39.59-8.29,59.45-12.09,12.09-2.31,24.27-4.23,36.46-5.96,10.9-1.54,21.86-2.69,32.82-3.79,13.3-1.33,26.62-2.53,39.95-3.59,9.67-.77,19.37-1.31,29.06-1.81,7.94-.41,15.88-.79,23.83-.88,25.5-.29,51.01-.66,76.51-.55,13.23.06,26.46.95,39.68,1.72,11.88.69,23.76,1.56,35.62,2.66,13.74,1.28,27.5,2.61,41.17,4.44,23.11,3.1,46.15,6.64,69.06,11.09,31.13,6.04,61.87,13.52,92.16,22.87,27.26,8.42,53.9,18.42,79.74,30.52,23.25,10.89,45.51,23.44,66.02,38.95,18.22,13.77,34.57,29.35,46.87,48.81,7.79,12.33,13.4,25.58,15.07,40.09,1.74,15.13-.32,29.89-6.38,44.04-7.49,17.49-18.83,32.21-32.26,45.43-16.47,16.22-35.23,29.41-55.15,41.01-18.33,10.68-37.38,19.88-56.99,27.94-.53.22-1.06.43-1.31.53ZM614.97,300.13c2.85,8.09,1.18,10.88-4.67,16.17-2.58,2.33-5.74,4.11-8.81,5.82-11.38,6.36-23.75,10.07-36.31,13.17-13.96,3.44-28.11,5.76-42.42,7.33-13.62,1.5-27.26,1.97-40.92,2.29-5.57.13-11.16-.39-16.73-.68-5.58-.29-11.2-.34-16.72-1.08-11.17-1.48-22.34-3.1-33.42-5.13-21.99-4.02-42.83-11.33-61.96-23.04-11.24-6.88-21.35-15.13-29.47-25.66-9.42-12.21-15.67-25.69-18.07-41.06-1.65-10.61-1.52-21.05.82-31.43,4.82-21.39,16.72-38.38,33.54-52.01,18.24-14.79,39.38-23.67,61.9-29.7,18.65-5,37.69-7.66,56.87-8.53,18.67-.84,37.38-.8,56.06,1.25,11.23,1.23,22.41,2.6,33.54,4.54,13.89,2.43,27.62,5.49,40.7,10.84,4.87,1.99,9.51,4.63,14.03,7.36,2.49,1.5,4.61,3.7,4.99,6.95.31,2.75.69,5.48,1.05,8.24,5,2.45,9.71,2.94,13.82-1.71.58-.66,1.3-1.21,2-1.75,18.55-14.25,37.1-28.49,55.64-42.75.76-.58,1.34-1.39,2.42-2.55-3.67-.52-6.22-3.06-9.73-1.6-6.84,2.83-13.67,2.4-20.64.11-11.56-3.8-23.21-7.3-34.82-10.94-24.27-7.59-49.15-12.28-74.36-15.28-10.49-1.25-21.05-2.03-31.6-2.64-9.99-.58-20.01-.78-30.01-.9-5.58-.06-11.16.54-16.73.57-11.93.06-23.82.46-35.68,1.81-8.31.94-16.63,1.72-24.93,2.71-14.71,1.76-29.23,4.58-43.63,8.05-20.3,4.9-40.05,11.44-58.97,20.31-18.33,8.59-35.42,19.12-50.61,32.69-11.99,10.72-22.16,22.79-29.61,37.02-8.16,15.59-12.22,32.12-11.58,49.89.46,12.69,3.22,24.7,8.24,36.22,9.11,20.9,23.91,37.33,41.54,51.33,14.83,11.77,31.28,20.87,48.61,28.44,20.78,9.08,42.38,15.51,64.51,20.23,17.93,3.83,36.1,6.29,54.34,7.88,12.44,1.09,24.95,1.59,37.44,1.86,18.26.39,36.51.03,54.73-1.55,5.42-.47,10.89-.46,16.27-1.17,11.62-1.52,23.2-3.31,34.79-5.07,15.67-2.39,31-6.32,46.08-11.12,14.81-4.71,29.45-9.98,44.19-14.89,8.01-2.67,16.26-4.18,24.72-3.09,3.01.39,5.55-.12,8.62-1.64-2.48-1.7-4.52-3.11-6.57-4.51-20.37-13.98-40.78-27.92-61.09-41.98-2.44-1.69-4.65-2.28-7.36-1.03-1.18.55-2.47.85-4.03,1.38ZM841.63,284.81c.51.67.85,1.54,1.44,1.78.77.31,1.74.14,2.62.14,17.86,0,35.71,0,53.57,0,1.14,0,2.28-.16,3.62-.27-.13-.93-.23-1.59-.32-2.27-.85-.07-1.44-.07-2.01-.17-5.06-.94-7.73-2.16-7.57-8.64.32-12.83.09-25.67.1-38.51,0-1.28.14-2.56.21-3.88h101.32c.18.4.29.53.29.66.06,15.04.1,30.09.18,45.13.01,1.89-.83,3.15-2.51,3.74-2.31.81-4.69,1.42-7.24,2.18.08.55.18,1.2.28,1.83h60.42v-2.1c-1.77-.4-3.35-.65-4.86-1.14-3.78-1.21-4.66-2.42-4.66-6.38-.01-34.23-.01-68.46,0-102.69,0-3.61,1.01-5.04,4.4-6.17,1.75-.59,3.58-.95,5.46-1.44-.18-.83-.3-1.36-.43-1.98-.75-.06-1.32-.14-1.89-.14-18.45,0-36.89,0-55.34,0-.88,0-1.84-.14-2.62.17-.46.18-.62,1.1-1.03,1.91,1.82.49,3.36.86,4.87,1.32,4.3,1.3,5.12,2.4,5.13,6.89.01,12.1.01,24.2,0,36.3,0,1.26-.17,2.52-.26,3.72-11.26.87-98.24.47-101.72-.49,0-13.5-.04-27.07.03-40.63.02-3.13,1.49-4.75,4.62-5.65,1.66-.48,3.37-.83,5.15-1.26-.09-.8-.15-1.34-.22-2.02h-60.92c.33.95.37,1.9.79,2.11.89.45,1.97.5,2.97.75,5.91,1.48,6.73,2.5,6.73,8.37,0,33.05,0,66.1,0,99.15,0,.89.03,1.77,0,2.66-.1,2.24-.99,4.05-3.18,4.83-2.17.78-4.42,1.33-7.4,2.21ZM811.25,174.96c-.05-.4-.11-.8-.16-1.2-1.66,0-3.33.03-4.99,0-2.16-.04-4.41.24-6.46-.27-11.51-2.88-22.92-6.17-34.78-7.39-10.79-1.12-21.55-2.76-32.37-3.18-14.84-.58-29.72-.63-44.52,1.45-9.75,1.37-19.4,3.05-28.66,6.42-8.21,2.99-15.87,6.96-22,13.44-8.68,9.18-9.35,24.15,2.3,32.86,6.13,4.59,13.07,7.23,20.32,9.25,11.75,3.27,23.84,4.68,35.9,6.12,9.76,1.16,19.59,1.71,29.36,2.75,9.76,1.05,19.5,2.24,29.22,3.63,5.24.75,10.27,2.37,14.95,4.99,3.93,2.2,5.7,5.43,5.03,9.87-.56,3.7-2.71,6.48-5.6,8.68-3.81,2.9-8.19,4.61-12.8,5.67-12.06,2.78-24.22,3.68-36.64,2.94-10.28-.61-20.51-1.3-30.66-2.94-8.98-1.45-17.87-3.33-26.23-7.05-4.27-1.9-8.25-4.14-7.91-10.08-1.57-.29-2.95-.55-4.09-.76-9.05,7.91-22.65,22.12-24.06,25.22.68.22,1.36.66,1.99.61,6.62-.59,12.74,1.64,18.95,3.33,17.74,4.81,35.79,8.01,54.11,8.84,15.29.69,30.66,1.24,45.93-.59,8.28-.99,16.59-2.01,24.74-3.72,11.71-2.46,22.98-6.34,32.4-14.12,12.32-10.18,14.11-27.73-1.13-38.07-8.57-5.82-18.34-8.46-28.29-10.45-11.36-2.27-22.83-3.76-34.4-4.67-10.52-.83-21-2.1-31.48-3.33-6.4-.75-12.84-1.44-19.12-2.81-5.11-1.11-10.13-2.89-14.96-4.93-3.63-1.53-6.29-4.35-6.29-8.8,0-4.27,2.61-6.78,5.97-8.57,2.97-1.58,6.05-3.14,9.28-3.99,8.67-2.28,17.55-3.48,26.51-3.71,13.99-.35,27.98-.36,41.85,1.76,7.53,1.15,15.02,2.58,22.02,5.82,3.99,1.85,7.39,4.26,8.65,8.95,1.36.42,2.72.84,4.04,1.24,8.18-7.89,16.13-15.55,24.08-23.21ZM617.22,284.09c-6.31.36-9.37-2.8-12.06-7.04-17.35-27.28-34.85-54.47-52.28-81.69-4.28-6.68-8.54-13.38-12.75-20.1-1.18-1.89-2.06-3.93-1.07-6.21.73-1.88,4.7-.83,3.84-4.38h-64.17c-.78,3.59,3.24,2.41,3.95,4.37.85,2.01-.13,3.65-1.19,5.28-3.06,4.67-6.1,9.35-9.16,14.03-18.83,28.78-37.7,57.54-56.46,86.36-3.24,4.97-6.74,9.3-13.44,9.5.07.97.12,1.62.17,2.21h51.97c-.07-.87-.11-1.42-.15-1.92-2.07-.57-3.99-1.09-6.35-1.74.42-1.73.4-3.32,1.13-4.39,5.64-8.22,11.44-16.33,17.13-24.41h20.28c19.18,0,38.36.01,57.55-.02,1.99,0,3.69.1,5,2.01,5.22,7.65,10.6,15.19,15.8,22.85.8,1.18.96,2.8,1.48,4.42-1.95.57-3.27.96-4.68,1.37.15.8.24,1.33.39,2.13.88,0,1.59,0,2.3,0,16.23,0,32.46,0,48.69,0,.88,0,1.84.12,2.62-.18.47-.18.67-1.06,1.46-2.45Z" style="fill: #ec1c24; stroke-width: 0px;"/>
    <path d="M741.53,542.7h74.16c1.81,7.1,5.95,12.78,12.23,16.85,5.39,3.49,11.39,5.42,17.57,6.87,11.31,2.65,22.86,2.6,34.25,1.61,12.21-1.06,24.03-4.23,33.9-12.26,6.46-5.26,10.47-11.97,11.17-20.3.66-7.81-2.06-14.61-7.37-20.36-8.15-8.82-18.82-12.25-30.2-14.34-8.6-1.57-17.24-1.84-25.92-1.38-10.53.55-20.92,2.06-30.7,6.23-3.3,1.41-6.2,3.74-9.36,5.53-1.2.68-2.6,1.44-3.9,1.44-16.68.03-33.35.02-50.03-.2-4.63-.06-9.26-.84-14.48-1.35,8.65-34.33,17.28-68.54,25.95-102.94h207.76v30.86h-153.49c-4.67,13.42-9.17,26.64-13.04,40.24,8.03-2.03,15.44-4.25,23-5.71,6.89-1.33,13.93-2.21,20.94-2.61,11-.63,22.05-1.12,33.05-.87,11.35.26,22.61,1.82,33.8,4.12,8.95,1.84,17.68,4.2,26.24,7.28,10.02,3.6,19.48,8.38,27.69,15.23,8.42,7.03,14.45,15.76,16.28,26.77,1.68,10.08-.17,19.71-5.3,28.59-9.26,16.01-23.79,25.48-40.44,32.2-13.69,5.53-27.98,8.64-42.56,10.79-9.01,1.33-18.06,1.77-27.08,2.67-11.6,1.17-23.2.63-34.78.52-8.4-.08-16.8-1.57-25.19-2.48-13.16-1.42-25.9-4.73-38.41-8.93-10.52-3.53-20.5-8.27-29.2-15.26-7.6-6.11-13.67-13.4-15.95-23.22-.2-.86-.47-1.7-.57-2.57-.1-.87-.02-1.76-.02-3.01Z" style="fill: #fefefe; stroke-width: 0px;"/>
    <path d="M632.56,564.72c-.22,2.48-.45,4.95-.7,7.72-8.49,1.86-16.93,3.7-25.38,5.55-1.43.31-2.86.7-4.31.9-6.76.9-10.36-1.84-11.15-8.62-.46-3.94-.64-7.92-.95-11.87-.09-1.15-.2-2.3-.35-4.08-5.85,1.21-11.38,2.35-17.23,3.56,0,6.55,0,12.87,0,19.19,0,6.91-1.25,8.46-7.92,9.94-9.89,2.2-19.76,4.52-29.68,6.55-2.49.51-5.17.08-7.19.08-3.01,1.2-5.58,2.64-8.33,3.25-26.67,5.91-53.37,11.66-80.06,17.48-18.07,3.94-36.15,7.84-54.18,11.97-5.41,1.24-9.3,0-12.65-4.56-4.79-6.51-10.05-12.67-15.25-19.15-2.66,1.53-3.68,3.52-3.58,6.5.2,5.75.09,11.51.05,17.27-.03,4.53-1.74,7.03-6.05,8.02-11.02,2.54-22.07,4.99-33.16,7.21-5.59,1.12-9.45-2.3-9.56-8.07-.1-5.1-.02-10.21-.57-15.44-.24.49-.53.96-.72,1.47-4.8,13.48-14.21,22.77-26.59,29.45-9.28,5-19.25,8.05-29.45,10.29-9.47,2.09-19.01,4.13-28.81,3.64-10.2-.51-19.97-2.51-27.46-10.19-2.63-2.7-4.69-5.98-6.89-9.09-.9-1.27-1.47-2.78-2.66-5.12,0,8.7,0,16.34,0,23.97-.01,6.19-1.51,8.24-7.47,9.52-11.34,2.44-22.73,4.65-34.06,7.13-10.47,2.29-20.88,4.84-31.33,7.22-5.01,1.14-10.1,1.96-15.07,3.27-4.17,1.1-7.13-.3-9.64-3.46-4.04-5.07-8.11-10.12-12.18-15.17-1.46-1.81-2.96-3.59-4.48-5.43-2.65,1.73-3.65,3.85-3.54,6.81.21,5.6.19,11.21.15,16.82-.03,5.07-1.77,7.21-6.71,8.32-10.32,2.33-20.63,4.66-30.97,6.87-7.28,1.55-11.04-1.55-11.06-8.98-.09-28.63-.16-57.26-.23-85.89-.01-5.8,1.71-8.03,7.29-9.25,10.48-2.29,20.97-4.52,31.47-6.72,5.84-1.23,9.84,1.92,10.02,7.86.08,2.65.01,5.31.01,8.27,2.1-.77,2.98-2.51,4.11-3.88,4.31-5.24,8.59-10.49,12.75-15.85,1.77-2.28,4.15-3.25,6.75-3.83,8.46-1.9,16.93-3.7,25.41-5.52,4.88-1.05,9.73-2.46,14.67-3.03,7.47-.85,14.44-3.62,21.76-4.98,7.36-1.37,14.66-3.09,21.99-4.59,6.05-1.24,9.62,1.68,9.69,7.91.05,4.72,0,9.45.02,14.17,0,.94.17,1.87.32,3.46.72-.94,1.04-1.21,1.17-1.55,7.15-19.08,21.42-30.53,40.06-37.16,11.67-4.15,23.7-6.71,36.03-8.15,8.64-1.01,17.05-.6,25.26,2.16,8.47,2.85,14.7,8.49,19.03,16.27.48.86.95,1.72,1.72,3.12,0-7.92-.03-15.13.01-22.35.03-5.25,1.88-7.5,6.97-8.62,10.61-2.33,21.23-4.66,31.85-6.94,5.43-1.16,9.7,2.17,9.92,7.73.11,2.79.02,5.59.02,8.95,1-.86,1.69-1.3,2.18-1.9,4.37-5.37,8.76-10.74,13.03-16.18,2.64-3.37,5.71-5.43,10.15-6.28,13.56-2.59,26.95-6.01,40.52-8.56,6.41-1.2,12.57-3.27,18.98-4.41,6.36-1.13,12.62-2.78,18.93-4.15,6.46-1.4,12.94-2.72,19.4-4.13,12.77-2.79,25.52-5.69,38.31-8.36,2.92-.61,5.99-.45,8.8-.63,2.72-1.03,5.34-2.38,8.11-3,22.51-5.02,45.02-10.01,67.58-14.76,5.72-1.2,11.62-1.93,17.46-2.09,13.89-.38,22.01,10.72,23.67,21.32,1.83,11.69-.83,19.54-6.39,27.99,0,.31-.12.7.02.87,3.52,4.27,2.24,9.16,1.74,13.9-.77,7.31-1.74,14.6-2.62,21.9-.5-1.8-1.26-3.57-1.45-5.4-.52-4.98-.76-9.99-1.17-14.98-.18-2.2-.43-4.41-.84-6.57-.84-4.44-3.87-7.02-8.1-8.5,9.77-8.31,12.84-15.4,11.69-26.8-.72-7.1-6.2-16.23-15.32-16.17-4.09.03-8.28.08-12.25.91-20.32,4.22-40.59,8.68-60.88,13.08-4.71,1.02-9.4,2.13-13.71,3.11v89.45c11.61-2.55,22.63-4.96,33.72-7.39v-27.44c8.51-1.86,16.81-3.74,25.15-5.45,2.78-.57,4.91.72,5.94,3.44.62,1.62.94,3.41,1.11,5.15.38,3.95.51,7.93.88,11.89.16,1.66.68,3.28,1.04,4.99,11.51-2.47,22.44-4.82,33.37-7.17ZM22.7,608.02c-.11,1.02-.2,1.45-.2,1.88.05,25.07.07,50.14.19,75.21.02,4.05.45,8.1.69,12.3,11.37-2.49,22.38-4.9,33.41-7.31,0-7.15-.04-13.92.04-20.69.02-1.41.06-3.15.85-4.15,3.07-3.89,6.44-7.55,9.95-11.58,7.95,9.84,15.61,19.32,23.42,28.98,14.91-3.26,29.73-6.5,45.09-9.85-14.2-15.61-27.84-30.62-41.6-45.75,12.64-14.28,25.02-28.27,38.05-42.99-15.03,3.26-28.95,6.3-42.89,9.27-2.06.44-3.26,1.75-4.49,3.27-8.62,10.66-17.28,21.28-25.96,31.89-.58.71-1.35,1.25-2.76,2.53v-30.38c-11.56,2.52-22.59,4.92-33.78,7.36ZM421.73,521.42c-1.08,0-1.54-.08-1.95.01-12.65,2.77-25.27,5.69-37.96,8.24-3.43.69-5.84,2.13-7.98,4.83-7.97,10.05-16.12,19.95-24.21,29.91-.85,1.05-1.74,2.06-2.61,3.08-.36-.15-.73-.29-1.09-.44v-29.46c-11.72,2.56-22.74,4.96-33.43,7.3v89.51c11.55-2.51,22.56-4.91,33.94-7.39,0-5.8.25-11.38-.07-16.93-.29-5,.64-9.17,4.66-12.56,2.27-1.92,4.05-4.42,6.19-6.82,8.07,9.98,15.74,19.47,23.36,28.9,15.08-3.3,29.83-6.52,45.08-9.86-14.07-15.47-27.72-30.48-41.61-45.74,12.6-14.22,24.98-28.21,37.7-42.57ZM262.68,610.21c-.41.97-.71,1.49-.86,2.06-2.53,10.17-9.4,15.6-19.32,17.74-10.68,2.3-17.71-2.13-19.66-12.88-.7-3.87-.6-7.94-.4-11.9.74-14.51,9.15-23.86,23.47-26.16,7.89-1.27,14.24,2.2,15.8,9.78.14.69.54,1.34.89,2.19,12.59-2.74,25.05-5.44,37.79-8.21-.79-7.34-2.85-13.93-7.75-19.4-5.88-6.58-13.52-9.24-22.09-9.47-18.13-.48-35.41,3.59-51.94,10.7-11.71,5.03-21.05,13.01-26.68,24.72-6.82,14.16-7.57,29-3.77,43.98,3.26,12.86,13.17,20.42,26.46,21.81,6.98.73,13.82.17,20.65-1.03,11.76-2.07,23.39-4.64,34.31-9.71,8.83-4.1,16.62-9.53,22.2-17.71,4.48-6.58,6.58-14.08,8.3-21.71.2-.9.03-1.89.03-2.94-12.63,2.75-24.98,5.44-37.44,8.16ZM515.65,556.38v-22.02c-17.49,3.79-34.67,7.51-52.21,11.31v-11.62c18.87-4.13,37.64-8.23,56.37-12.33v-22.04c-30.44,6.64-60.55,13.2-90.62,19.76-.06,1.11-.13,1.69-.12,2.27.05,24.34.07,48.69.19,73.03.02,4.65.44,9.3.68,14.08,30.34-6.62,60.32-13.16,90.11-19.66v-22.03c-18.97,4.12-37.6,8.17-56.41,12.25v-11.64c17.46-3.82,34.67-7.58,52.02-11.38ZM173.84,664.58v-89.49c-11.54,2.53-22.65,4.96-33.41,7.32v89.49c11.47-2.51,22.48-4.92,33.41-7.32ZM304.7,589.46c-5.26,1.17-10.11,2.25-14.97,3.32-8.17,1.81-16.34,3.63-24.51,5.4-4.31.93-7.89-.45-9.53-3.72-.59-1.17-.84-2.5-1.22-3.77-1.04-3.48-3.17-5.13-6.47-4.45-10.48,2.14-15.93,5.69-17.89,16.61-.92,5.1-.96,10.29.67,15.3.85,2.6,2.36,4.83,5.55,4.91,6.16.16,15.3-2.17,18.08-11.89.24-.85.56-1.67.78-2.53.9-3.58,3.3-5.24,6.83-5.97,8.77-1.79,17.47-3.96,26.26-5.65,5.36-1.03,10.6-3.53,16.43-1.64v-5.93ZM132.2,657.41c.36-20.33,1.3-40.43-.14-61.41-9.46,10.65-18.41,20.71-27.53,30.98,9.33,10.26,18.5,20.35,27.68,30.43ZM421.6,532.9c-9.56,10.77-18.47,20.82-27.52,31.02,9.23,10.14,18.21,20,27.52,30.22v-61.24Z" style="fill: #fefefe; stroke-width: 0px;"/>
    <path d="M632.56,564.72c-10.93,2.35-21.86,4.7-33.37,7.17-.37-1.71-.89-3.33-1.04-4.99-.37-3.96-.5-7.93-.88-11.89-.17-1.74-.49-3.52-1.11-5.15-1.03-2.72-3.16-4.01-5.94-3.44-8.34,1.71-16.64,3.59-25.15,5.45v27.44c-11.09,2.43-22.1,4.85-33.72,7.39v-89.45c4.3-.98,9-2.09,13.71-3.11,20.28-4.4,40.55-8.86,60.88-13.08,3.98-.83,8.16-.88,12.25-.91,9.12-.07,14.6,9.07,15.32,16.17,1.15,11.4-1.92,18.49-11.69,26.8,4.23,1.48,7.26,4.06,8.1,8.5.41,2.17.65,4.37.84,6.57.42,4.99.66,10,1.17,14.98.19,1.83.95,3.6,1.45,5.4-.27,2.05-.55,4.09-.82,6.14ZM565.16,512.77c-.16,5.25-.33,10.5-.42,15.75,0,.08.85.18,1.3.28,2.29-.46,4.58-.89,6.86-1.38,5.6-1.21,11.22-2.3,16.77-3.71,6.27-1.6,9.13-6.33,7.74-12.22-.7-2.96-1.73-3.96-4.73-4.27-1.16-.12-2.38-.09-3.52.15-8.01,1.76-16,3.59-24,5.4Z" style="fill: #ec1c24; stroke-width: 0px;"/>
    <path d="M656.06,528.63c.58-12.64,1.11-24.98,1.72-37.32.51-10.28,1.09-20.55,1.65-30.82.32-5.94,2.83-8.44,8.73-8.94,10.68-.9,21.36-1.85,32.04-2.79,2.63-.23,5.25-.75,7.87-.78,5.35-.05,8.46,3.65,7.54,8.97-1.23,7.07-2.7,14.1-3.98,21.17-1.93,10.67-3.76,21.35-5.66,32.02-.72,4.04-1.45,8.07-2.3,12.08-.35,1.67-.62,3.17.88,4.43,1.52,1.28,1.66,3.06,1.53,4.87-.37,5.13-.66,10.27-1.2,15.38-.68,6.41-1.69,12.78-2.36,19.19-.53,5.07-3.01,7.67-8.09,8.14-11.83,1.12-23.66,2.3-35.49,3.44-1.32.13-2.65.19-3.98.15-4.39-.13-7.25-2.83-7.11-7.23.15-4.69.67-9.38,1.18-14.05.72-6.56,1.69-13.08,2.32-19.65.33-3.41,1.13-6.37,4.7-8.28ZM659.17,535.71c-1.32,11.51-2.59,22.68-3.95,34.59,13.51-1.31,26.29-2.55,39.65-3.85,1.33-11.5,2.65-22.89,4.01-34.63-13.35,1.3-26.3,2.57-39.71,3.88Z" style="fill: #fff; stroke-width: 0px;"/>
    <path d="M614.97,300.13c1.57-.53,2.86-.83,4.03-1.38,2.71-1.26,4.92-.66,7.36,1.03,20.32,14.06,40.72,28,61.09,41.98,2.05,1.4,4.09,2.81,6.57,4.51-3.06,1.52-5.61,2.03-8.62,1.64-8.46-1.09-16.71.42-24.72,3.09-14.75,4.91-29.38,10.18-44.19,14.89-15.08,4.8-30.4,8.73-46.08,11.12-11.59,1.76-23.17,3.55-34.79,5.07-5.38.7-10.85.69-16.27,1.17-18.21,1.59-36.47,1.94-54.73,1.55-12.49-.26-25-.77-37.44-1.86-18.25-1.59-36.41-4.05-54.34-7.88-22.12-4.73-43.73-11.15-64.51-20.23-17.33-7.58-33.78-16.67-48.61-28.44-17.63-14-32.43-30.43-41.54-51.33-5.02-11.52-7.78-23.54-8.24-36.22-.64-17.77,3.42-34.3,11.58-49.89,7.45-14.23,17.62-26.3,29.61-37.02,15.19-13.58,32.27-24.1,50.61-32.69,18.92-8.87,38.67-15.41,58.97-20.31,14.39-3.47,28.92-6.3,43.63-8.05,8.3-.99,16.63-1.77,24.93-2.71,11.86-1.35,23.76-1.75,35.68-1.81,5.58-.03,11.16-.63,16.73-.57,10.01.12,20.02.32,30.01.9,10.55.61,21.11,1.39,31.6,2.64,25.2,3,50.09,7.69,74.36,15.28,11.61,3.63,23.27,7.13,34.82,10.94,6.97,2.29,13.81,2.73,20.64-.11,3.51-1.45,6.06,1.08,9.73,1.6-1.08,1.15-1.67,1.96-2.42,2.55-18.54,14.26-37.09,28.5-55.64,42.75-.7.54-1.42,1.09-2,1.75-4.11,4.65-8.82,4.16-13.82,1.71-.35-2.76-.73-5.5-1.05-8.24-.37-3.25-2.5-5.45-4.99-6.95-4.52-2.72-9.16-5.37-14.03-7.36-13.08-5.35-26.8-8.42-40.7-10.84-11.13-1.94-22.31-3.32-33.54-4.54-18.68-2.04-37.39-2.09-56.06-1.25-19.19.87-38.22,3.53-56.87,8.53-22.51,6.03-43.65,14.91-61.9,29.7-16.82,13.63-28.73,30.62-33.54,52.01-2.34,10.38-2.47,20.82-.82,31.43,2.4,15.37,8.65,28.85,18.07,41.06,8.12,10.53,18.23,18.78,29.47,25.66,19.13,11.7,39.98,19.01,61.96,23.04,11.08,2.03,22.25,3.64,33.42,5.13,5.52.73,11.14.78,16.72,1.08,5.58.29,11.16.81,16.73.68,13.66-.32,27.3-.79,40.92-2.29,14.31-1.57,28.47-3.89,42.42-7.33,12.55-3.09,24.93-6.81,36.31-13.17,3.07-1.72,6.22-3.49,8.81-5.82,5.85-5.29,7.52-8.07,4.67-16.17Z" style="fill: #fed31d; stroke-width: 0px;"/>
    <path d="M841.63,284.81c2.98-.88,5.23-1.43,7.4-2.21,2.2-.78,3.09-2.6,3.18-4.83.04-.88,0-1.77,0-2.66,0-33.05,0-66.1,0-99.15,0-5.87-.83-6.9-6.73-8.37-1-.25-2.08-.3-2.97-.75-.42-.21-.46-1.16-.79-2.11h60.92c.07.68.13,1.23.22,2.02-1.78.43-3.48.78-5.15,1.26-3.13.9-4.6,2.52-4.62,5.65-.07,13.56-.03,27.12-.03,40.63,3.48.96,90.47,1.36,101.72.49.09-1.2.25-2.46.26-3.72.02-12.1.02-24.2,0-36.3,0-4.49-.83-5.59-5.13-6.89-1.51-.46-3.06-.83-4.87-1.32.41-.81.58-1.73,1.03-1.91.78-.3,1.74-.17,2.62-.17,18.45,0,36.89,0,55.34,0,.57,0,1.14.08,1.89.14.13.62.25,1.15.43,1.98-1.89.49-3.71.85-5.46,1.44-3.39,1.14-4.4,2.56-4.4,6.17-.01,34.23-.01,68.46,0,102.69,0,3.96.88,5.17,4.66,6.38,1.51.48,3.1.73,4.86,1.14v2.1h-60.42c-.1-.63-.2-1.28-.28-1.83,2.55-.76,4.93-1.37,7.24-2.18,1.68-.59,2.52-1.85,2.51-3.74-.08-15.04-.12-30.09-.18-45.13,0-.13-.11-.26-.29-.66h-101.32c-.08,1.32-.21,2.6-.21,3.88-.02,12.84.21,25.68-.1,38.51-.16,6.48,2.51,7.7,7.57,8.64.57.11,1.15.1,2.01.17.1.68.19,1.34.32,2.27-1.34.1-2.48.26-3.62.27-17.86.02-35.71.01-53.57,0-.88,0-1.85.17-2.62-.14-.59-.24-.93-1.11-1.44-1.78Z" style="fill: #fed31d; stroke-width: 0px;"/>
    <path d="M811.25,174.96c-7.95,7.66-15.9,15.32-24.08,23.21-1.32-.41-2.68-.82-4.04-1.24-1.26-4.69-4.66-7.11-8.65-8.95-7-3.24-14.49-4.67-22.02-5.82-13.88-2.12-27.87-2.12-41.85-1.76-8.96.23-17.84,1.42-26.51,3.71-3.22.85-6.31,2.42-9.28,3.99-3.36,1.78-5.98,4.3-5.97,8.57,0,4.45,2.66,7.27,6.29,8.8,4.82,2.04,9.85,3.82,14.96,4.93,6.28,1.37,12.72,2.06,19.12,2.81,10.48,1.23,20.97,2.51,31.48,3.33,11.57.91,23.04,2.4,34.4,4.67,9.95,1.99,19.71,4.63,28.29,10.45,15.24,10.34,13.45,27.9,1.13,38.07-9.42,7.78-20.69,11.66-32.4,14.12-8.15,1.71-16.46,2.72-24.74,3.72-15.28,1.83-30.64,1.28-45.93.59-18.32-.83-36.37-4.03-54.11-8.84-6.21-1.68-12.33-3.92-18.95-3.33-.63.06-1.3-.39-1.99-.61,1.41-3.11,15.01-17.31,24.06-25.22,1.14.21,2.52.47,4.09.76-.34,5.94,3.64,8.18,7.91,10.08,8.37,3.72,17.26,5.6,26.23,7.05,10.15,1.64,20.38,2.34,30.66,2.94,12.43.74,24.58-.16,36.64-2.94,4.6-1.06,8.99-2.78,12.8-5.67,2.9-2.2,5.04-4.98,5.6-8.68.67-4.44-1.1-7.68-5.03-9.87-4.68-2.62-9.71-4.24-14.95-4.99-9.71-1.39-19.46-2.59-29.22-3.63-9.77-1.05-19.6-1.6-29.36-2.75-12.06-1.43-24.15-2.84-35.9-6.12-7.25-2.02-14.19-4.66-20.32-9.25-11.65-8.72-10.98-23.68-2.3-32.86,6.13-6.49,13.79-10.46,22-13.44,9.26-3.37,18.91-5.05,28.66-6.42,14.81-2.08,29.68-2.03,44.52-1.45,10.81.42,21.58,2.07,32.37,3.18,11.86,1.23,23.27,4.51,34.78,7.39,2.05.51,4.3.23,6.46.27,1.66.03,3.33,0,4.99,0,.05.4.11.8.16,1.2Z" style="fill: #fed31d; stroke-width: 0px;"/>
    <path d="M617.22,284.09c-.79,1.39-.99,2.28-1.46,2.45-.78.3-1.74.18-2.62.18-16.23,0-32.46,0-48.69,0-.71,0-1.42,0-2.3,0-.15-.8-.25-1.34-.39-2.13,1.41-.41,2.73-.8,4.68-1.37-.52-1.62-.68-3.24-1.48-4.42-5.2-7.66-10.58-15.2-15.8-22.85-1.3-1.91-3.01-2.01-5-2.01-19.18.03-38.36.02-57.55.02h-20.28c-5.69,8.07-11.48,16.19-17.13,24.41-.74,1.07-.71,2.66-1.13,4.39,2.36.65,4.28,1.17,6.35,1.74.04.5.08,1.06.15,1.92h-51.97c-.04-.59-.09-1.24-.17-2.21,6.7-.2,10.2-4.52,13.44-9.5,18.76-28.82,37.63-57.58,56.46-86.36,3.06-4.67,6.1-9.35,9.16-14.03,1.07-1.63,2.04-3.27,1.19-5.28-.7-1.97-4.72-.78-3.95-4.37h64.17c.86,3.55-3.11,2.5-3.84,4.38-1,2.28-.12,4.32,1.07,6.21,4.21,6.72,8.47,13.42,12.75,20.1,17.44,27.23,34.93,54.41,52.28,81.69,2.69,4.23,5.75,7.39,12.06,7.04ZM537.21,236c-9.92-16.23-19.6-32.05-29.6-48.4-10.13,16.42-19.81,32.11-29.86,48.4h59.45Z" style="fill: #fed31d; stroke-width: 0px;"/>
    <path d="M22.7,608.02c11.19-2.44,22.22-4.84,33.78-7.36v30.38c1.41-1.28,2.18-1.82,2.76-2.53,8.67-10.61,17.34-21.23,25.96-31.89,1.23-1.52,2.44-2.83,4.49-3.27,13.94-2.97,27.86-6.01,42.89-9.27-13.03,14.72-25.41,28.71-38.05,42.99,13.75,15.13,27.4,30.13,41.6,45.75-15.35,3.35-30.17,6.59-45.09,9.85-7.81-9.66-15.46-19.14-23.42-28.98-3.51,4.03-6.88,7.68-9.95,11.58-.79,1-.83,2.74-.85,4.15-.08,6.77-.04,13.54-.04,20.69-11.02,2.41-22.04,4.82-33.41,7.31-.25-4.2-.67-8.25-.69-12.3-.12-25.07-.14-50.14-.19-75.21,0-.43.09-.86.2-1.88Z" style="fill: #ec1c24; stroke-width: 0px;"/>
    <path d="M421.73,521.42c-12.72,14.36-25.1,28.35-37.7,42.57,13.89,15.27,27.54,30.28,41.61,45.74-15.24,3.33-29.99,6.56-45.08,9.86-7.62-9.42-15.3-18.92-23.36-28.9-2.14,2.4-3.92,4.9-6.19,6.82-4.02,3.39-4.95,7.56-4.66,12.56.33,5.55.07,11.13.07,16.93-11.38,2.48-22.4,4.88-33.94,7.39v-89.51c10.69-2.33,21.71-4.74,33.43-7.3v29.46c.36.15.73.29,1.09.44.87-1.03,1.76-2.04,2.61-3.08,8.09-9.95,16.24-19.86,24.21-29.91,2.14-2.7,4.55-4.14,7.98-4.83,12.69-2.55,25.31-5.47,37.96-8.24.42-.09.87-.01,1.95-.01Z" style="fill: #ec1c24; stroke-width: 0px;"/>
    <path d="M262.68,610.21c12.46-2.71,24.81-5.41,37.44-8.16,0,1.05.18,2.04-.03,2.94-1.72,7.63-3.82,15.14-8.3,21.71-5.57,8.18-13.36,13.61-22.2,17.71-10.91,5.07-22.55,7.63-34.31,9.71-6.82,1.2-13.66,1.76-20.65,1.03-13.28-1.4-23.2-8.96-26.46-21.81-3.8-14.98-3.05-29.82,3.77-43.98,5.64-11.71,14.98-19.68,26.68-24.72,16.53-7.11,33.81-11.18,51.94-10.7,8.57.23,16.21,2.89,22.09,9.47,4.9,5.48,6.96,12.06,7.75,19.4-12.74,2.77-25.2,5.48-37.79,8.21-.36-.85-.75-1.49-.89-2.19-1.56-7.58-7.91-11.05-15.8-9.78-14.32,2.3-22.74,11.65-23.47,26.16-.2,3.96-.3,8.03.4,11.9,1.95,10.75,8.98,15.18,19.66,12.88,9.91-2.13,16.78-7.57,19.32-17.74.14-.57.45-1.09.86-2.06Z" style="fill: #ec1c24; stroke-width: 0px;"/>
    <path d="M515.65,556.38c-17.35,3.79-34.56,7.56-52.02,11.38v11.64c18.81-4.09,37.44-8.13,56.41-12.25v22.03c-29.78,6.5-59.77,13.04-90.11,19.66-.24-4.77-.66-9.42-.68-14.08-.12-24.34-.14-48.69-.19-73.03,0-.58.06-1.16.12-2.27,30.08-6.56,60.19-13.12,90.62-19.76v22.04c-18.73,4.1-37.5,8.2-56.37,12.33v11.62c17.53-3.8,34.72-7.52,52.21-11.31v22.02Z" style="fill: #ec1c24; stroke-width: 0px;"/>
    <path d="M173.84,664.58c-10.93,2.39-21.95,4.81-33.41,7.32v-89.49c10.76-2.36,21.87-4.79,33.41-7.32v89.49Z" style="fill: #ec1c24; stroke-width: 0px;"/>
    <path d="M304.7,589.46v5.93c-5.83-1.89-11.07.61-16.43,1.64-8.79,1.7-17.49,3.86-26.26,5.65-3.53.72-5.93,2.38-6.83,5.97-.21.85-.54,1.68-.78,2.53-2.78,9.72-11.92,12.05-18.08,11.89-3.19-.08-4.7-2.31-5.55-4.91-1.63-5-1.59-10.2-.67-15.3,1.97-10.92,7.41-14.48,17.89-16.61,3.3-.67,5.43.97,6.47,4.45.38,1.27.63,2.6,1.22,3.77,1.64,3.27,5.22,4.65,9.53,3.72,8.18-1.77,16.34-3.59,24.51-5.4,4.86-1.07,9.72-2.16,14.97-3.32Z" style="fill: #5350a2; stroke-width: 0px;"/>
    <path d="M132.2,657.41c-9.17-10.09-18.35-20.18-27.68-30.43,9.13-10.27,18.07-20.33,27.53-30.98,1.44,20.98.5,41.09.14,61.41Z" style="fill: #5350a2; stroke-width: 0px;"/>
    <path d="M421.6,532.9v61.24c-9.31-10.22-18.29-20.08-27.52-30.22,9.05-10.2,17.96-20.25,27.52-31.02Z" style="fill: #5350a2; stroke-width: 0px;"/>
    <path d="M565.16,512.77c8-1.81,15.99-3.64,24-5.4,1.13-.25,2.36-.27,3.52-.15,2.99.31,4.03,1.31,4.73,4.27,1.4,5.89-1.47,10.62-7.74,12.22-5.54,1.41-11.17,2.5-16.77,3.71-2.28.49-4.57.92-6.86,1.38-.28-1.23-.76-2.46-.79-3.7-.11-4.11-.07-8.22-.08-12.33Z" style="fill: #fefefe; stroke-width: 0px;"/>
    <path d="M565.16,512.77c.02,4.11-.03,8.22.08,12.33.03,1.24.52,2.47.79,3.7-.45-.09-1.3-.19-1.3-.28.1-5.25.26-10.5.43-15.75Z" style="fill: #fed31d; stroke-width: 0px;"/>
    <path d="M659.17,535.71c13.41-1.31,26.36-2.57,39.71-3.88-1.36,11.73-2.68,23.12-4.01,34.63-13.36,1.3-26.14,2.54-39.65,3.85,1.36-11.91,2.64-23.08,3.95-34.59Z" style="fill: #ec1c24; stroke-width: 0px;"/>
    <path d="M537.21,236h-59.45c10.05-16.29,19.73-31.98,29.86-48.4,10,16.35,19.67,32.17,29.6,48.4Z" style="fill: #ec1c24; stroke-width: 0px;"/>
    <polygon points="663.75 527.81 666.5 460.5 707.14 457.2 695.21 524.76 663.75 527.81" style="fill: #ed1c23; stroke-width: 0px;"/>
  </g>
</svg>