<svg version="1.1" id="Layer_1" xmlns="http://www.w3.org/2000/svg" xlink="http://www.w3.org/1999/xlink" x="0px" y="0px" viewBox="220.24046 147.2 1135.26345 599.1358500000001" enable-background="220.24046 147.2 1135.26345 599.1358500000001" space="preserve">
<g>
	<path d="M1297.3,176.1c-10.9-15.3-27.4-24.3-49-26.9c-3.7-0.8-10.7-2-19.7-2c-17.4,0-42.2,4.6-62,26.3
		c-22.5,24.7-31.3,64.8-26.2,119.1c0.7,7.3,1.1,13.9,1.1,20.1c0.4,28.3,0.4,100.9-7.4,166.5c-0.4,3.2-4.7,3.8-6,0.9
		c-2.8-6.5-6.1-12.8-10.1-19c-18.6-29-48.2-51-83.4-61.9c-15.5-4.8-31.4-7.2-47.2-7.2c-19.8,0-39.1,3.9-56.4,11.3
		c-6.3,2.7-13.3-1.7-13.8-8.5v0c-0.6-9.4-8.9-16.3-18.3-15.3l-7.6,0.9c-6.4,0.7-12.2-4-12.7-10.5l-3.2-40.5
		c-0.6-8-8.1-13.6-15.9-11.9l-21.3,4.4c-6.8,1.4-12.6,5.7-16,11.8l0,0c-25.1,46.3-62.6,55.8-76.2,57.8l0.2-4.3
		c0.5-9-7.1-16.5-16.1-15.8l-19.7,1.4c-6.9,0.5-13.3,4-17.4,9.6l0,0c-31,42.5-69.9,47.1-85.1,47.1c-2.1,0-3.3-0.1-3.3-0.1
		c0,0,0,0,0,0l0,0c-3.2-0.4-6.2-1.6-8.6-3.8c-24.1-21.5-57.4-33.7-92.5-33.7c-12.8,0-25.8,1.6-38.5,4.7c-28.3,7-53.7,21.3-72.9,40.6
		c-2.7,2.7-7.3,1-7.7-2.8l-6.7-64c-1.2-11.5-11.6-19.8-23.1-18.3l-121.5,15.5c-8.2,1-13.9,8.7-12.7,16.8l4.4,28.7
		c1.3,8.2,8.3,14.3,16.6,14.3h3.8l19,184.7l-1.7,0.2c-11.3,1.1-19.6,11-18.7,22.3l1.6,19.7c0.9,10.9,10.5,19,21.4,17.9L406.6,659
		c13.5-1.3,23.1-13.7,20.8-27.1l-1.2-7.1c18,7.9,37.9,12,58.5,12c12.8,0,25.8-1.6,38.5-4.7c26.1-6.4,49.7-19,68.3-36.2l-0.1,1.5
		c-0.5,16.5,4.9,30.7,15.9,42.1c21.4,22,58,25.3,78,25.3c4,0,6.7-0.1,7.7-0.2l1.2-0.1l1.3-0.2c43.9-7.6,64.2-31.2,73.6-51.9
		c2.4-5.4,8.8-7.6,14.1-5c12.3,5.9,27.6,9,45.4,9c17,0,30.3-2.7,30.9-2.8l1.2-0.2l1.2-0.4c9.7-3,18.4-6.9,26.3-11.6
		c7-4.2,15.9-3.5,22.3,1.6c15.3,12.4,33.3,21.9,52.8,27.9c15.5,4.8,31.4,7.2,47.2,7.2c11.1,0,21.9-1.2,32.4-3.5c4.4-1,8.2,3,7,7.3
		c-2.6,9.3-3.6,19.2-2.7,29.3c3.4,40.4,36.7,72.7,77.2,75c47.5,2.7,87-35.2,87-82.1c0-20.3-7.6-39.8-20.9-54.7
		c-4.5-5.1-6.6-11.9-5.3-18.6v0c0.4-1.8,35.6-177,83.1-245.9c18.4-26.7,31-54.7,37.7-83.2C1314.4,224.6,1311.5,195.9,1297.3,176.1z
		 M880.6,442.9l-0.1-1.9l1.8-0.3C881.7,441.4,881.1,442.1,880.6,442.9z M747.2,533.1l-12.4,2.4l1.8-39.1l7.1-0.3L747.2,533.1z"/>
	<polygon fill="#FFEC01" points="260.3,629.7 282.7,627.6 260.3,410.3 241.3,410.3 237.3,384.3 359.8,368.7 385.6,616.2 
		406.7,616.2 410.9,641.3 262.4,655.4 	"/>
	<polygon fill="#ED1B24" points="244.7,389.9 354.1,375.9 379.8,622.6 401.3,622.6 403.4,635.5 268.3,648.4 267.2,635.5 
		289.7,633.4 266.1,403.8 246.8,403.8 	"/>
	<path fill="#FFEC01" d="M484.1,619.6c-53.6,0-98.7-31.2-109.7-75.9c-13.8-55.7,28.5-114.2,94.2-130.4c11.3-2.8,22.9-4.2,34.4-4.2
		c53.6,0,98.7,31.2,109.7,75.9c6.7,27.2,0.5,55.8-17.6,80.5c-17.8,24.4-45,42.1-76.6,49.9C507.1,618.1,495.6,619.6,484.1,619.6z"/>
	
		<ellipse transform="matrix(0.9709 -0.2396 0.2396 0.9709 -108.8602 133.2465)" fill="#ED1B24" cx="493.5" cy="514.3" rx="116.3" ry="97.6"/>
	<path fill="#FFEC01" d="M1009.9,620.7c-14.1,0-28.3-2.2-42.1-6.4c-64.8-20-103.7-80.8-86.8-135.5c12.8-41.6,55.4-69.5,105.9-69.5
		c14.1,0,28.3,2.2,42.1,6.4c64.8,20,103.7,80.8,86.8,135.5C1103,592.8,1060.4,620.7,1009.9,620.7z"/>
	
		<ellipse transform="matrix(0.9556 0.2948 -0.2948 0.9556 196.1684 -271.4263)" fill="#ED1B24" cx="998.4" cy="515" rx="116.5" ry="97.5"/>
	<path fill="#FFEC01" d="M992.7,589.5c-0.4,0-0.8,0-1.1,0l-1.5-0.1c-3.8-0.3-7.4-2.1-9.9-5c-2.5-2.9-3.7-6.7-3.4-10.5l9.8-125.1
		c0.6-7.5,6.9-13.4,14.4-13.4c0.4,0,0.7,0,1.1,0l1.5,0.1c8,0.6,13.9,7.6,13.3,15.6l-9.8,125.1
		C1006.5,583.6,1000.2,589.5,992.7,589.5z"/>
	<path d="M996.4,583.4l-10.1-0.8c-2.1-0.2-3.6-2-3.4-4l10.5-133.7c0.2-2.1,2-3.6,4-3.4l10.1,0.8c2.1,0.2,3.6,2,3.4,4l-10.5,133.7
		C1000.2,582,998.4,583.5,996.4,583.4z"/>
	<path fill="#FFEC01" d="M510.3,591.9c-6.8,0-12.6-4.6-14.1-11.2l-29.4-125.2c-0.9-3.8-0.2-7.6,1.8-10.9c2-3.3,5.2-5.6,9-6.5
		l1.5-0.3c1.1-0.3,2.2-0.4,3.3-0.4c6.8,0,12.6,4.6,14.1,11.2l29.4,125.2c1.8,7.8-3,15.6-10.8,17.4l-1.5,0.3
		C512.5,591.8,511.4,591.9,510.3,591.9z"/>
	<path d="M517.7,583.9l-9.8,2.3c-2,0.5-4-0.8-4.5-2.8l-31.3-133.6c-0.5-2,0.8-4,2.8-4.5l9.8-2.3c2-0.5,4,0.8,4.5,2.8l31.3,133.6
		C521,581.4,519.7,583.5,517.7,583.9z"/>
	<path fill="#FFEC01" d="M684.7,647.4c-17.3,0-48.7-2.6-65.7-20.1c-7.7-7.9-11.4-17.9-11.1-29.6l8.2-125.6l-21.1-4.9v-21.6l7.2,0.8
		c0,0,1.9,0.2,5.2,0.2c17.9,0,63.3-5.3,99-54.1l1.8-2.4l20.3-1.4l-3.6,65.7l36.5,0.7l-1.5,23.3l-40,1.4l-8.1,125.6
		c1.2,2.3,3.2,5,4.7,5c0.3,0,8.5-0.4,21.3-36l1.3-3.6l20-3.1l0.5,7c0,0.6,3.1,60.3-67.5,72.5l-0.3,0.1l-0.3,0
		C691.2,647.3,688.7,647.4,684.7,647.4z"/>
	<path fill="#ED1B24" d="M601.5,452.8c0,0,63.6,7.2,110.1-56.5l10-0.7l-3.6,65.1l36.5,0.7l-0.7,10.7l-40,1.4l-8.6,133
		c0,0,14.3,37.2,38.6-30l9.3-1.4c0,0,3.6,54.3-62.2,65.8c0,0-77.9,5-76.5-42.9l8.6-130.9l-21.5-5V452.8z"/>
	<path fill="#FFEC01" d="M828.1,598.9c-37.1,0-59-14.4-61.7-40.5l-8.5-125.6l-21.6-2.1l-2.9-21.4l7.2-0.2
		c2.5-0.1,60.9-2.3,96.1-67.2l1.4-2.6l19.9-4.1l5.1,65.6l36.3-4.1l1.5,23.3l-39.5,6.7l8.6,125.6c1.4,2.1,3.7,4.3,5.1,4.3
		c0.1,0,8.3-0.4,16.5-38.6l0.8-3.7l19.4-5.7l1.4,6.9c0.1,0.6,11.1,59.3-57.3,80.9l-0.3,0.1l-0.3,0.1
		C855.1,596.6,843.1,598.9,828.1,598.9z"/>
	<path fill="#ED1B24" d="M740.8,415.6c0,0,64-1.3,101.7-70.6l9.8-2l5.1,65l36.2-4.1l0.7,10.7l-39.5,6.7l9.1,133
		c0,0,19.1,35,34.3-34.9l9-2.6c0,0,10.7,53.4-52.9,73.4c0,0-76.6,15.3-81.5-32.4L764,426.9l-21.9-2.1L740.8,415.6z"/>
	<path fill="#FFEC01" d="M1127,582.9l2.7-6.7c28.6-70.2,28.9-219.6,28.4-263.7c-0.1-6.7-0.5-13.7-1.2-21.5
		c-4.7-49.3,2.7-84.9,21.8-106c15.6-17.1,35.4-20.7,49.3-20.7c8.5,0,14.9,1.4,16.8,1.8c17,1.8,29.8,8.5,38,19.9
		c11.2,15.7,13.2,39.7,5.9,71.4c-6.1,26.4-17.9,52.5-35.1,77.3c-49.4,71.6-85.4,250.5-85.8,252.3l-1.4,6.8L1127,582.9z"/>
	<path fill="#ED1B24" d="M1135.6,578.7l25.7,7.2c0,0,36.1-181.1,86.8-254.7c15.7-22.9,27.8-48.1,34.1-75.2
		c8.6-37.2,7.5-78.8-38.7-83.5c0,0-93.9-25.4-80.4,117.9c0.7,7.3,1.2,14.7,1.3,22C1165.1,356.9,1164.7,507.2,1135.6,578.7z"/>
	<path fill="#FFEC01" d="M1128.5,728.8c-35.9,0-65.1-29.2-65.1-65.1c0-35.9,29.2-65.1,65.1-65.1s65.1,29.2,65.1,65.1
		C1193.6,699.6,1164.4,728.8,1128.5,728.8z"/>
	<circle fill="#ED1B24" cx="1128.5" cy="663.7" r="58.6"/>
</g>
<g id="XMLID_3_">
	<g>
		<path id="XMLID_29_" d="M1339,235.3c-9,0-16.5-7.5-16.5-16.5s7.5-16.5,16.5-16.5s16.5,7.5,16.5,16.5
			C1355.7,227.8,1348.2,235.3,1339,235.3z M1339,204.9c-7.6,0-13.7,6.3-13.7,13.7c0,7.5,6.3,13.7,13.7,13.7
			c7.6,0,13.7-6.3,13.7-13.7C1352.7,211.2,1346.6,204.9,1339,204.9z"/>
		<g id="XMLID_27_">
			<path id="XMLID_28_" d="M1346.1,216.2c0,2.6-1.2,4.3-3.5,4.9l4.2,5.7h-3.5l-3.8-5.4h-3.5v5.4h-2.6V211h5.9c2.4,0,4.2,0.3,5.2,1.2
				S1346.1,214.3,1346.1,216.2z M1342.6,218.5c0.5-0.5,0.9-1.2,0.9-2.3s-0.3-1.7-0.9-2.1c-0.5-0.3-1.6-0.5-3-0.5h-3.5v5.7h3.3
				C1341.1,219.1,1342.1,218.8,1342.6,218.5z"/>
		</g>
	</g>
</g>
</svg>
