<svg xmlns="http://www.w3.org/2000/svg" viewBox="0 0 853.8 895.92"><defs><style>.cls-1{fill:#524da3;}.cls-2{fill:#5457a9;}.cls-3{fill:#31368d;}.cls-4{fill:#f78d2a;}.cls-5{fill:#6566b2;}.cls-6{fill:#fbb021;}.cls-7{fill:#faa125;}.cls-8{fill:#8b89c2;}.cls-9{fill:#7474b8;}.cls-10{fill:#f3352f;}.cls-11{fill:none;}.cls-12{fill:#080000;}.cls-13{fill:#f88d29;}.cls-14{fill:#fff;}</style></defs><g id="Layer_2" data-name="Layer 2"><g id="Layer_1-2" data-name="Layer 1"><path class="cls-1" d="M603.38,179.75c-42.8,9.1-84.1,18.2-122.9,27.2l35.3-150.2-53.4,16-1,7.1c0,.1-.8,5.4-2.2,13.6l-17.5,4.7c.4-1.2.8-2.5,1.2-3.8l5.5-17.4-50.3,8.2-.5,3.9-39.9,4.6-2.8,11.4a39,39,0,0,0-16.6-3.9c-15.06,0-28.91,9.07-41.14,27l-.15.09c-3.8.1-8.41-.5-11.41-3.3l17.6-88.2-43.3-22.2L240.23,99a106.93,106.93,0,0,0-14.74-27.92c-17.18-23.2-41.8-35.5-71.24-35.5a130.35,130.35,0,0,0-33.86,4.8l-.31.1-.3.1c-1.91.6-46.92,15.7-63.91,58.9-8.94,22.8-8.34,48.7,1.81,77.2,3.72,13.5,9.75,27.6,17.89,42.2l8.74,15.7,24.92-35.5c-1,5-1.91,10.2-2.71,15.5v.6c-.1.6-6.13,57.3-53.06,67.1l-8.94,1.9v38.16l3,.1v10.5l10.86.84h1.71A99.18,99.18,0,0,0,81,331.17a72.23,72.23,0,0,0-29,33.28c-6.1,14.5-5.8,26.9.9,37,9.3,14,29.7,20.9,62.2,20.9,28.6,0,56.6-5.4,57.8-5.6h.1c131.1-27,223.1-98.8,248.2-120.2a15.07,15.07,0,0,1,6.6-3.2l178.5-33.2,13.3-83.8Z"/><path class="cls-2" d="M48.29,875.37a10.56,10.56,0,0,1-1.61-2q-7.51-17-14.92-34c-7-16-13.83-32.09-20.76-48.12-2.39-5.53-4.87-11-7.24-16.56-1.22-2.84-2.24-5.75-3.48-8.57-.57-1.31-.28-1.89,1-2.36,5.5-2,11-4.09,16.45-6.16,13.72-5.19,27.44-10.36,41.12-15.62,1.91-.73,3.08-.11,4.2,1.26a5.46,5.46,0,0,0,0,1.71c.64,2,1.42,3.94,2.08,5.94,2,5.95,3.85,11.91,5.8,17.86.47,1.46,1.07,2.88,1.73,4.66,2-3.31,3.77-6.1,5.42-9,1-1.64,1.72-3.38,2.57-5.08,1.24,1.34,3,1.09,4.56,1.63a7.64,7.64,0,0,1,3.37,2c2,2.48,3.74,5.21,5.58,7.83.21.3.44.58.66.87a4,4,0,0,0,1-.9,9.1,9.1,0,0,0,.67-1.81q4.34-13.38,8.66-26.77a50.25,50.25,0,0,1,2.28-6.26c1.62-3.38,4.18-4.53,7.91-3.77,7.78,1.58,15.55,3.2,23.33,4.8,1.57.33,3.12.7,4.7,1s2.12-.24,1.7-1.82c-.6-2.23-1.31-4.43-1.85-6.68a35.22,35.22,0,0,1-.57-13.15,43.35,43.35,0,0,1,5.85-16.84,44.13,44.13,0,0,1,14.59-14.8,49.19,49.19,0,0,1,20.17-7,45.06,45.06,0,0,1,15.85.64c10.86,2.49,20.43,7.27,27.46,16.33a32.74,32.74,0,0,0,4.25,3.87c.09.72-.41,1.88,1.13,1.55h0c-.06.55-.32,1.2-.13,1.65,1.18,2.78,2.8,5.32,3.06,8.51s1.36,6.59,1.65,9.91a48,48,0,0,1-.42,7.74,26.16,26.16,0,0,1-2.38,9.71c-.92,1.84-.64,2.32,1.4,2.26,3.56-.1,7.12-.31,10.69-.48a7.83,7.83,0,0,0,2.22.48c6.18-.46,12.36-1,18.53-1.52a3.43,3.43,0,0,0,.89-.33q0,43.11,0,86.23c0,2.73.11,2.8,2.95,2.32a12,12,0,0,1,1.47-.07c3.72-.16,7.44-.35,11.17-.49,1,0,1.51-.24,1.55-1.35.1-2.67.4-5.34.41-8q.07-32.49.06-65c0-8.48,0-17,0-25.43,0-1.45.34-2,1.88-2,15.56-.47,31.11-1.1,46.67-1.51,7.88-.2,15.79-.19,23.68,0a45.78,45.78,0,0,1,23.78,7.24c4.62,3,8.63,6.87,12.89,10.38,1.55,1.28,3,2.65,4.56,4-.18.29-.59.72-.52.84.82,1.27,1.76,2.45,2.56,3.73a64.47,64.47,0,0,1,7.29,17.48,23.43,23.43,0,0,1,.93,3c.41,3,.64,5.94,1.05,8.9.18,1.34.86,2.65.89,4,.12,4.4.06,8.8,0,13.2a8.1,8.1,0,0,1-.33,1.4c-.38,2-1.08,4.12-1,6.17.09,4.53-1.46,8.75-2.9,12.79a76.48,76.48,0,0,1-7.6,14.6,50.94,50.94,0,0,1-7.8,9.52,73.4,73.4,0,0,1-14.73,10.76,60.06,60.06,0,0,1-19.77,7c-5.95,1-12.07,1.17-18.12,1.58s-12,.68-18,1c-6.55.34-13.11.69-19.67,1-5.11.24-10.23.4-15.34.59a12.26,12.26,0,0,1-.45-2.28c-.07-6.58-.09-13.17-.13-19.75,0-.53,0-1.07,0-1.6,0-1.38,0-2.77.15-4.14s-.36-1.73-1.65-1.62c-3.16.27-6.33.43-9.5.66-3.57.25-7.14.44-10.7.8-1.81.19-2.37-.5-2.15-2.18a13.93,13.93,0,0,0,0-1.71V748c0-.57,0-1.15,0-1.71.13-1.35-.55-1.72-1.76-1.61-2.1.18-4.21.32-6.32.48l-30.83,2.45c-3.23.26-3.25.29-3.24,3.58q0,60.65,0,121.31c0,1.37.14,1.73,1.72,1.63q18.51-1.2,37-2.13c3.24-.17,6.5,0,9.74-.12,3-.15,5.94-.67,8.93-.87,5.52-.37,11-.63,16.57-.94.62,0,1.47.07,1-1,2.27,2,4.56,3.93,6.81,5.91a1.57,1.57,0,0,1,.37.78,2.73,2.73,0,0,1-1.2.58q-8.25.53-16.5,1c-5.66.33-11.32.68-17,1-7.78.37-15.57.69-23.35,1-1.39.06-2.78,0-4.16.06-8.39.61-16.78,1.25-25.17,1.87-1.3-1-1.53-2.29-1.54-3.83,0-2.28-.28-4.55-.43-6.83.75-2.16.43-4.4.43-6.62q0-50.25,0-100.52a6,6,0,0,0-.06-1.94c-.15-.39-1-.93-1.21-.82a61.72,61.72,0,0,1-17.54,4.29,51.59,51.59,0,0,1-14.49-.71,42.8,42.8,0,0,1-17.42-6.93c-.73-.52-1.49-1-2.23-1.49l-.15.23,5.67,6.16a15.38,15.38,0,0,1-2.44.07c-1.56-.18-1.89.5-1.89,2q.06,44.84,0,89.67c0,1.53.4,1.89,1.89,1.9,10.31.09,20.63.31,30.95.39,2.9,0,5.81-.27,8.71-.41l.35,1.3c.33-.3.81-.53,1-.9a4.08,4.08,0,0,0,.08-1.45q0-38.22,0-76.43a10.67,10.67,0,0,0-.52-2.24l-.2-.85c1.69-.18,3.38-.45,5.07-.46.5,0,1.16.65,1.45,1.16s.07,1.11.07,1.68V859c0,3.09,0,3.1-3.15,3.1l-49.65,0c-2.46,0-2.47,0-2.47-2.61q0-20.18,0-40.36v-2.58a12.26,12.26,0,0,0-1.3,3.61q-3.48,13.88-7,27.75Q143.37,857.46,141,867c-.79,3.21-1.53,6.42-2.25,9.65a2.33,2.33,0,0,1-2.59,2.16c-4.77.16-9.54.59-14.3,1-5.4.44-10.8.94-16.2,1.41-1.77.16-3.54.42-5.31.44-1.4,0-3.06.68-4.13-.75-1.54-2.06-2.93-4.24-4.41-6.36-1.61-2.31-3.25-4.61-5-7.15-1.66,3.24-3.26,6.15-4.66,9.15A5.47,5.47,0,0,1,78.06,880,14.64,14.64,0,0,1,73,880c-3.72-.73-7.37-1.79-11.08-2.62-3.23-.72-6.47-1.38-9.74-1.93A23.87,23.87,0,0,0,48.29,875.37ZM292,854.61l4.87.09c1.93-.14,3.85-.36,5.78-.43,5.61-.19,11.22-.22,16.83-.52,5.95-.32,11.92-.2,17.85-1.16,3.76-.61,7.64-.43,11.45-.68a57.58,57.58,0,0,0,30.45-10.61A56.33,56.33,0,0,0,401,811c4.08-13.82,4-27.79.82-41.71-3.43-14.93-11.47-26.51-25.47-33.56-11.37-5.71-23.49-7.45-36-7.09-7.16.21-14.31.62-21.47,1-8.68.45-17.36,1-26,1.41-1.85.09-1.3,1.31-1.3,2.24q0,59.67,0,119.33A9.78,9.78,0,0,0,292,854.61ZM70.61,789.35c-1.27-4.07-2.38-7.7-3.53-11.31q-4.26-13.49-8.54-27c-.33-1-.79-1.86-2.06-1.38q-4.92,1.86-9.81,3.81c-2.2.88-4.34,1.93-6.57,2.73-2.86,1-5.78,1.8-8.66,2.76-1.5.5-3,1.13-4.43,1.74-2.37,1-4.68,2.09-7.09,2.95-3.2,1.13-6.45,2.12-9.71,3.07-1.7.5-1.94,1.35-1.19,2.87a35.66,35.66,0,0,1,2.82,6.45c.6,2.26,1.89,4.14,2.75,6.23,3.89,9.54,8.17,18.93,12.28,28.38.87,2,2.08,4,2.33,6A7.42,7.42,0,0,0,31,821.15a9.72,9.72,0,0,1,1.49,2.7q9.22,21.39,18.4,42.8a4.2,4.2,0,0,0,3.3,2.78q10.05,2,20,4.23a2,2,0,0,0,2.67-1.26c2.59-5.15,5.27-10.26,7.89-15.39,1.2-2.34,1.2-2.34,2.66-.21,3.73,5.42,7.5,10.81,11.19,16.25a3.45,3.45,0,0,0,3.55,1.85c5-.49,10-.82,15.09-1.14,3.25-.21,6.5-.36,9.76-.43,5.41-.13,5.7-.3,7.06-5.6,1.45-5.67,2.85-11.35,4.27-17,4.4-17.59,8.76-35.19,13.22-52.76,1.58-6.25,2.8-12.47,2.5-19s-.06-12.88-.07-19.32c0-3.67,0-3.67,3.71-3.8.12,0,.23-.18.45-.37-.88-1-1.78-2-2.64-3.05-3.15-3.77-6.91-6.51-12-7.16-1.89-.24-3.8-.46-5.67-.86-2.81-.6-5.57-1.45-8.39-2-3.22-.64-6.48-1.07-9.72-1.6-1.87-.31-3.73-.68-5.6-.91-1-.13-1.43.27-1.65,1.47-.43,2.38-1.77,4.6-1.18,7.17,0,.19-.14.44-.23.66-.73,1.68-1.58,3.32-2.19,5-1.17,3.34-2.17,6.74-3.32,10.08-1.33,3.85-2.77,7.65-4.09,11.49-1.4,4.05-2.71,8.12-4.16,12.49-.64-.88-1.14-1.49-1.57-2.15L85.94,771c-2.28-3.47-2.28-3.47-4.32,0l-.51.83Zm117-30.74a46.58,46.58,0,0,0,22.9-4.91c1.26-.65,1.86-1.31,1.79-2.76-.1-2.44.09-4.89,0-7.33-.1-1.74.61-2.28,2.22-2.37,3-.16,6-.56,9-.66a2.9,2.9,0,0,0,2.76-1.92A37,37,0,0,0,228.37,710c-3.8-11.77-12-19.54-23.62-23.34-13.68-4.46-27-3.83-39.41,4.25a34.72,34.72,0,0,0-12.86,14.94c-3,6.49-3.5,13.3-2.93,20.26a32.66,32.66,0,0,0,5.54,16c5.89,8.63,14.44,13.35,24.31,15.85C182,758.56,184.86,758.4,187.6,758.61Z"/><path class="cls-2" d="M579.16,765.64a7.23,7.23,0,0,0,1.3-1.68c1.89-5.21,3.7-10.45,5.55-15.67.08-.23.31-.44.31-.65-.05-5.2,2.62-9.62,4.13-14.37,1.12-3.54,2.52-7,3.7-10.51a2.58,2.58,0,0,1,2.77-2c6.28-.22,12.57-.56,18.85-1,10.61-.7,21.21-1.5,31.82-2.23a44.19,44.19,0,0,1,6.19-.17,11.07,11.07,0,0,1,3.14,1.3c.92,2.9,1.8,5.81,2.79,8.68,1.12,3.25,2.37,6.46,3.54,9.69,1.75,4.86,3.47,9.73,5.24,14.59q2,5.52,4.09,11a16.41,16.41,0,0,0,.94,1.74c0-6.88,0-13.14,0-19.39,0-1.12-.16-2.42.35-3.29.31-.52,1.77-.36,2.7-.54.48-.09.94-.24,1.41-.37,4.13-.19,8.26-.36,12.39-.6,2.76-.16,5.5-.47,8.26-.67,7.93-.56,15.87-1.14,23.81-1.64,2.28-.14,4.57-.06,6.86-.09,0,.33,0,.65,0,1V825.5c0,.87.15,1.22,1.28,1.09,3.21-.36,6.45-.5,9.69-.67s3.22-.13,3.22-3.26q0-35.67,0-71.35a25.75,25.75,0,0,0-.27-2.63q.15-12.18.32-24.34c0-3.7-.64-3.26,3.34-3.6,6.71-.59,13.42-1.31,20.13-1.78,4-.28,8.06-.05,12.08-.29,3.14-.18,6.25-.79,9.38-1.1,2.91-.29,5.83-.45,8.75-.61a5.37,5.37,0,0,1,1.57.38V802.6a7.74,7.74,0,0,0,.1,2.42,2,2,0,0,0,1.43,1.16c1.76-.1,3.51-.66,5.26-.66,3.49,0,7-.75,10.47.3,4.66-.43,9.32-.9,14-1.25,2.29-.18,4.61-.14,6.91-.2,0,1.67,0,3.34,0,5v43a4.73,4.73,0,0,1-.06,1.69c-.2.48-.73,1.09-1.17,1.13-2.49.27-5,.41-7.49.55-3.32.19-6.64.29-9.95.52-6.29.44-12.57,1-18.85,1.42-5.66.38-11.32.67-17,1-6.23.35-12.46.67-18.69,1q-9.09.5-18.2,1a3.75,3.75,0,0,0-1.08.43c-.35-.64-.71-1.27-1.07-1.91,0-3.81.18-7.63.11-11.43-.05-3.38-.33-6.75-.5-10.12a12.42,12.42,0,0,1,.21-3.53c.58-1.61-.3-1.39-1.24-1.35-4.06.15-8.11.26-12.16.46a39.16,39.16,0,0,0-5.06.56c-2.11.38-2.2.39-2.27-1.64,0-.41,0-.82,0-1.22v-84.1c0-2.32-.43-2.58-2.73-2.27-3.34.45-6.68.84-10,1.08-4.06.29-8.14.33-12.2.57-5.11.3-10.22.74-15.33,1-1.52.08-2,.66-1.86,2.1a14,14,0,0,1,0,1.71V864.7c0,2-.06,3.91,0,5.87.11,2.44,1.3,3.49,3.65,3.37,12.74-.7,25.47-1.38,38.2-2.11,4.59-.25,9.17-.64,13.75-.91,6.09-.36,12.19-.65,18.28-1a37.56,37.56,0,0,1,4.13,3.24,7.75,7.75,0,0,0,5.41,2.14l1.76.12a31.44,31.44,0,0,1-5,.82c-5.25.37-10.5.72-15.75,1-7.28.37-14.57.67-21.86,1-3.23.15-6.47.3-9.7.52-6.87.45-13.72,1-20.59,1.42-4.77.28-9.57.32-14.35.57a12.18,12.18,0,0,0-2.73.82,4.64,4.64,0,0,1-2-4.36c.09-3.41,0-6.81,0-10.22V851.89l-17.58.93c-.41,0-.81.08-1.21.13a35.88,35.88,0,0,1-9.54.36l-.56-.55a10.32,10.32,0,0,1-1-2.08c-.84-3.36-1.74-6.72-2.29-10.14-.27-1.69-1.06-1.94-2.44-1.93q-10.14,0-20.3,0c-1.3,0-2.11.28-2.46,1.72-.84,3.38-1.88,6.7-2.77,10.07-.35,1.36-.78,2.4-2.45,2.53-2.49.19-5,.65-7.46.83-3.48.26-7,.36-10.46.56-2.75.15-5.5.31-8.25.52-5.57.44-11.13,1-16.7,1.37-4,.28-8.11.33-12.17.57-2.71.15-5.42.44-8.15.67l.58,1.55-1.89-1.82a14.92,14.92,0,0,0,1.27-2.27c1.51-4.17,3-8.36,4.4-12.54q1.82-5.26,3.59-10.53c.09-.17.18-.34.28-.51l.26-1q1.78-5.1,3.59-10.21c.66-1.74,1.2-3.54,2-5.2s.37-2.47-1.33-3.08c-2.55-.93-5-2.06-7.61-3.14a19.58,19.58,0,0,0,7.73-5.6c6.67-8.39,9.16-18,8-28.58a23.5,23.5,0,0,0-9.38-16.73,29.58,29.58,0,0,0-6.38-3.35c-3.42-1.47-6.82-3.26-10.42-4a100.81,100.81,0,0,0-17.62-2.11c-8.93-.15-17.88.27-26.8.8-9.8.58-19.58,1.59-29.37,2.34-1.56.12-1.81.76-1.33,2-.06.81-.17,1.62-.17,2.42q0,56.17,0,112.33c0,.73.08,1.46.13,2.19l.27.35.5.06c1,0,1.95.11,2.92.12q25.44,0,50.88,0c4.83,0,9.68.07,14.5-.22a52.74,52.74,0,0,0,17.46-4.31c1.66-.7,1-1.44.41-2.36a6,6,0,0,1,1.7.7c1.46,1.27,2.8,2.66,4.23,4,1.14,1,1.09,1.56-.45,2.12-4.51,1.66-9,3.6-13.58,4.82a53.42,53.42,0,0,1-12.9,1.95c-20.93.2-41.86,0-62.79.17-3.55,0-6.76-.22-9.25-3q0-13.8.05-27.62l.06-98c0-3.34.06-3.24,3.38-3.49,3.84-.3,7.66-.9,11.5-1.32,2.25-.24,4.51-.38,6.76-.57,4.11-.33,8.22-.71,12.33-1,3.64-.24,7.39.14,10.91-.63,7.71-1.67,15.42-.43,23.12-.72,2-.07,4.4-.31,6,.63,2.59,1.57,5.41,1.31,8.06,2.08,1.18.34,2.53,0,3.77.21a13,13,0,0,1,3.84,1c4,2,7.88,4.15,11.8,6.27.25.13.36.5.54.76.69,1.65,1.38,3.21,3.56,3.46.63.07,1.3.94,1.7,1.6,1.48,2.44,3,4.88,4.22,7.44,1.71,3.49,3.14,7.09,2,11.12,0,.17.09.38.14.57l.57.15Zm212.75,46.58a11.59,11.59,0,0,0,.37-2.06q0-41.68,0-83.37c0-2.63,0-2.77-2.66-2.54-8.07.7-16.19.45-24.23,1.71-3.84.6-7.78.58-11.67.93-3.58.32-3.58.36-3.58,4V849c0,.82,0,1.63,0,2.45.07,2.33.07,2.34,2.3,2.2,3.62-.23,7.23-.5,10.85-.72q13.71-.81,27.42-1.59c6.8-.38,13.6-.71,20.4-1.08,5.68-.31,11.37-.66,17.05-.94,1.24-.06,2-.33,2-1.8q0-17.61,0-35.21c0-1.15-.37-1.6-1.57-1.51-5.12.38-10.23.68-15.35,1-6.48.45-12.95.95-19.44,1.32-.62,0-1.28-.61-1.92-.95ZM673.53,833.75V812.21q0-13.32.06-26.65a5.86,5.86,0,0,0-.4-1.87c-3.14-8.79-6.25-17.6-9.45-26.37-3.54-9.7-7.16-19.37-10.73-29.07-1.46-3.94-1.43-4-5.64-3.71l-36.54,2.13c-3.17.19-6.32.51-9.49.66a2,2,0,0,0-2.09,1.59c-3.4,9.46-6.88,18.89-10.26,28.36-1.27,3.55-2.29,7.19-3.54,10.74q-8.85,25.05-17.76,50.09-5.41,15.27-10.84,30.54c-.44,1.21-.3,1.65,1.11,1.47s3.09-.15,4.63-.26L589.84,848c5.19-.36,10.38-.75,15.58-1a2.24,2.24,0,0,0,2.37-1.9c1-3.69,2.2-7.33,3.21-11a2.21,2.21,0,0,1,2.54-1.92q14.67.11,29.34,0a2.38,2.38,0,0,1,2.71,2.07c1,3.71,2.35,7.35,3.36,11.06.38,1.38,1,1.61,2.26,1.5,2.84-.26,5.68-.47,8.52-.65,3.9-.25,7.8-.48,11.7-.66,1.59-.08,2.3-.68,2.22-2.4C673.5,839.94,673.56,836.84,673.53,833.75Z"/><path class="cls-3" d="M285.52,861.71c5.11-.19,10.23-.35,15.34-.59,6.56-.29,13.12-.64,19.67-1,6-.31,12-.58,18-1s12.17-.56,18.12-1.58a60.06,60.06,0,0,0,19.77-7,73.4,73.4,0,0,0,14.73-10.76,50.94,50.94,0,0,0,7.8-9.52,76.48,76.48,0,0,0,7.6-14.6c1.44-4,3-8.26,2.9-12.79-.05-2,.65-4.12,1-6.17a8.1,8.1,0,0,0,.33-1.4c0-4.4.09-8.8,0-13.2,0-1.33-.71-2.64-.89-4-.41-3-.64-5.94-1.05-8.9a23.43,23.43,0,0,0-.93-3,64.47,64.47,0,0,0-7.29-17.48c-.8-1.28-1.74-2.46-2.56-3.73-.07-.12.34-.55.52-.84,4.05,3.48,8.22,6.82,12.12,10.46,6.7,6.27,10.73,14.22,13.37,22.86a92.73,92.73,0,0,1,4,29.35c-.25,11.08-3.33,21.38-8.13,31.25a57.44,57.44,0,0,1-12.82,17.09A65.58,65.58,0,0,1,384.46,869c-4.13,1.47-8.16,3.24-12.29,4.71a35.84,35.84,0,0,1-6.37,1.62c-4.32.68-8.67,1.36-13,1.7-14.37,1.11-28.75,2.07-43.13,3.07-3.5.25-3.5.22-3.5,3.66,0,2-.08,3.91,0,5.86.08,1.42-.5,1.79-1.83,1.85-9.43.42-18.85.92-28.27,1.41-13.42.7-26.85,1.2-40.25,2.26-4.5.35-7.86-.3-11-3.76-3.36-3.7-7.35-6.82-11.06-10.2,8.39-.62,16.78-1.26,25.17-1.87,1.38-.1,2.77,0,4.16-.06,7.78-.33,15.57-.65,23.35-1,5.67-.28,11.33-.63,17-1q8.25-.48,16.5-1a2.73,2.73,0,0,0,1.2-.58,1.57,1.57,0,0,0-.37-.78c-2.25-2-4.54-3.94-6.81-5.91Z"/><path class="cls-3" d="M744.42,861.11a3.75,3.75,0,0,1,1.08-.43q9.11-.54,18.2-1c6.23-.33,12.46-.65,18.69-1,5.66-.31,11.32-.6,17-1,6.28-.43,12.56-1,18.85-1.42,3.31-.23,6.63-.33,9.95-.52,2.5-.14,5-.28,7.49-.55.44,0,1-.65,1.17-1.13a4.73,4.73,0,0,0,.06-1.69v-43c0-1.67,0-3.34,0-5,1.51,1.14,3.06,2.23,4.52,3.44,3.79,3.14,7.51,6.35,11.31,9.49a2.42,2.42,0,0,1,1,2.21c-.08,10.81,0,21.63,0,32.45,0,5.29,0,10.58.1,15.87,0,1.43-.52,1.77-1.81,1.81-7.31.25-14.63.47-21.93.87-6.79.36-13.57,1-20.36,1.39-5.11.33-10.22.59-15.33.85-2.67.14-5.34.18-8,.3s-2.61.25-2.6,2.88c0,4,0,8,0,12,0,1.1-.17,1.78-1.56,1.81-3,0-6,.27-8.95.46-6,.38-12,.85-18,1.19-5.67.32-11.35.46-17,.8-5.34.33-10.66.84-16,1.22-3.55.25-7.11.42-10.67.6-5,.25-10.13.08-15.08.83-4.52.69-7.71-.61-10.76-3.82s-6.81-6.29-10.25-9.41a12.18,12.18,0,0,1,2.73-.82c4.78-.25,9.58-.29,14.35-.57,6.87-.4,13.72-1,20.59-1.42,3.23-.22,6.47-.37,9.7-.52,7.29-.34,14.58-.64,21.86-1,5.25-.27,10.5-.62,15.75-1a31.44,31.44,0,0,0,5-.82l-1.76-.12a7.75,7.75,0,0,1-5.41-2.14,37.56,37.56,0,0,0-4.13-3.24,12.65,12.65,0,0,0-1.09-1.22Q748.79,864.9,744.42,861.11Z"/><path class="cls-3" d="M48.29,875.37a23.87,23.87,0,0,1,3.88.06c3.27.55,6.51,1.21,9.74,1.93,3.71.83,7.36,1.89,11.08,2.62a14.64,14.64,0,0,0,5.07,0,5.47,5.47,0,0,0,4.07-3.45c1.4-3,3-5.91,4.66-9.15,1.8,2.54,3.44,4.84,5,7.15,1.48,2.12,2.87,4.3,4.41,6.36,1.07,1.43,2.73.76,4.13.75,1.77,0,3.54-.28,5.31-.44,5.4-.47,10.8-1,16.2-1.41,4.76-.38,9.53-.81,14.3-1a2.33,2.33,0,0,0,2.59-2.16c.72-3.23,1.46-6.44,2.25-9.65q2.33-9.54,4.71-19.06,3.47-13.87,7-27.75a12.26,12.26,0,0,1,1.3-3.61v2.58q0,20.18,0,40.36c0,2.61,0,2.62,2.47,2.61l49.65,0c3.15,0,3.15,0,3.15-3.1V777.55c0-.57.17-1.24-.07-1.68s-.95-1.16-1.45-1.16c-1.69,0-3.38.28-5.07.46-.89,0-1.78,0-2.68,0-8.94.18-17.5-1.47-25.29-6-3.49-2-6.63-4.64-9.92-7L159.11,756l.15-.23c.74.5,1.5,1,2.23,1.49a42.8,42.8,0,0,0,17.42,6.93,51.59,51.59,0,0,0,14.49.71,61.72,61.72,0,0,0,17.54-4.29c.26-.11,1.06.43,1.21.82a6,6,0,0,1,.06,1.94q0,50.26,0,100.52c0,2.22.32,4.46-.43,6.62-.06.73-.1,1.46-.17,2.19-.34,3.3-2.16,5-5.44,5-8.55-.1-17.1-.26-25.65-.37-4.4-.06-8.8-.06-13.19-.13s-5.41-1-5.68-5.37c-.05-.79.58-2.06-1-2.31-2.12-.34-3.08,0-3.67,1.68-2.29,6.4-4.57,12.79-6.77,19.21-1.11,3.21-1,3.18-4.36,3.43-8.18.63-16.36,1.32-24.55,1.94a45.71,45.71,0,0,1-5.85.13c-2.78-.14-4.59-2.13-6.53-3.8s-3.86-3.46-5.81-5.17c-1-.88-1.48-.33-1.94.66-.83,1.77-1.53,3.72-3.73,4.29a8.42,8.42,0,0,1-2.62.36c-8.77-.55-17.55-1.11-26.31-1.8A6.69,6.69,0,0,1,65,889c-4.94-3.93-9.77-8-14.64-12C49.69,876.44,49,875.91,48.29,875.37Z"/><path class="cls-3" d="M548.28,859l-.58-1.55c2.73-.23,5.44-.52,8.15-.67,4.06-.24,8.12-.29,12.17-.57,5.57-.39,11.13-.93,16.7-1.37,2.75-.21,5.5-.37,8.25-.52,3.49-.2,7-.3,10.46-.56,2.49-.18,5-.64,7.46-.83,1.67-.13,2.1-1.17,2.45-2.53.89-3.37,1.93-6.69,2.77-10.07.35-1.44,1.16-1.72,2.46-1.72q10.15.06,20.3,0c1.38,0,2.17.24,2.44,1.93.55,3.42,1.45,6.78,2.29,10.14a10.32,10.32,0,0,0,1,2.08c-3.09,0-6.19.14-9.28,0a2.27,2.27,0,0,0-2.67,2c-1,3.7-2.14,7.34-3.07,11-.23.91-.49,1.14-1.36,1.19q-7,.43-14,1c-5.23.42-10.45.92-15.67,1.33a14.49,14.49,0,0,1-3.42-.06,3.22,3.22,0,0,0-3.56,1.89c-4.32,7.27-10.79,11.76-18.42,15.16-8.72,3.9-17.81,5.13-27.17,5.21-10.34.09-20.69,0-31,0s-20.51.22-30.77.3a25.55,25.55,0,0,1-5.33-.28,8.38,8.38,0,0,1-3.32-1.83c-4.31-3.57-8.44-7.38-12.89-10.76-1.71-1.3-2.43-2.32-1.48-4.26,2.49,2.82,5.7,3.06,9.25,3,20.93-.13,41.86,0,62.79-.17a53.42,53.42,0,0,0,12.9-1.95c4.63-1.22,9.07-3.16,13.58-4.82,1.54-.56,1.59-1.08.45-2.12-1.43-1.31-2.77-2.7-4.23-4a6,6,0,0,0-1.7-.7l-5.29-4.81A2.3,2.3,0,0,0,548.28,859Z"/><path class="cls-3" d="M285.11,751.59q0,32.49-.06,65c0,2.66-.31,5.33-.41,8,0,1.11-.6,1.32-1.55,1.35-3.73.14-7.45.33-11.17.49a12,12,0,0,0-1.47.07c-2.84.48-2.95.41-2.95-2.32q0-43.11,0-86.23a8.5,8.5,0,0,1,2.56,1c2.73,2.23,5.33,4.63,8,6.92C280.4,747.77,282.76,749.67,285.11,751.59Z"/><path class="cls-3" d="M816,805.82c-3.46-1.05-7-.32-10.47-.3-1.75,0-3.5.56-5.26.66a2,2,0,0,1-1.43-1.16,7.74,7.74,0,0,1-.1-2.42V717.34c2.16,1.42,4.41,2.72,6.47,4.29a83.5,83.5,0,0,1,8.62,7.16,6.07,6.07,0,0,1,2,4.31c0,23.51,0,47,.07,70.53C815.94,804.36,816,805.09,816,805.82Z"/><path class="cls-3" d="M743.18,748.68a25.75,25.75,0,0,1,.27,2.63q0,35.67,0,71.35c0,3.13,0,3.1-3.22,3.26s-6.48.31-9.69.67c-1.13.13-1.28-.22-1.28-1.09V738.75c0-.33,0-.65,0-1,3,2.28,5.91,4.53,8.84,6.83C739.85,745.93,741.5,747.31,743.18,748.68Z"/><path class="cls-3" d="M245.87,739.3c-3.57.17-7.13.38-10.69.48-2,.06-2.32-.42-1.4-2.26a26.16,26.16,0,0,0,2.38-9.71,48,48,0,0,0,.42-7.74c-.29-3.32-1.38-6.58-1.65-9.91s-1.88-5.73-3.06-8.51c-.19-.45.07-1.1.13-1.65,3.54,2.28,5.71,5.78,8,9.14a39.06,39.06,0,0,1,6.13,17.37C246.69,730.85,246.21,735,245.87,739.3Z"/><path class="cls-3" d="M678,740.77c-.47.13-.93.28-1.41.37-.93.18-2.39,0-2.7.54-.51.87-.35,2.17-.35,3.29,0,6.25,0,12.51,0,19.39a16.41,16.41,0,0,1-.94-1.74q-2.07-5.49-4.09-11c-1.77-4.86-3.49-9.73-5.24-14.59-1.17-3.23-2.42-6.44-3.54-9.69-1-2.87-1.87-5.78-2.79-8.68,5.16,4.18,10.34,8.32,15.45,12.56a8.45,8.45,0,0,1,1.52,2.37C675.27,736,676.62,738.38,678,740.77Z"/><path class="cls-3" d="M645.19,853.31a35.88,35.88,0,0,0,9.54-.36c.4-.05.8-.11,1.21-.13l17.58-.93V867c-3.39.18-6.77.42-10.16.48a4.36,4.36,0,0,1-2.64-.82c-5.08-4.12-10.08-8.34-15.08-12.54A2.8,2.8,0,0,1,645.19,853.31Z"/><path class="cls-3" d="M80.65,759.33c-.85,1.7-1.62,3.44-2.57,5.08-1.65,2.86-3.4,5.65-5.42,9-.66-1.78-1.26-3.2-1.73-4.66-2-6-3.85-11.91-5.8-17.86-.66-2-1.44-3.94-2.08-5.94a5.46,5.46,0,0,1,0-1.71c5.28,4,10.65,7.86,15.79,12C79.88,756.06,80.07,757.93,80.65,759.33Z"/><path class="cls-3" d="M579.16,765.64l-3.74,11.06-.57-.15c-.05-.19-.18-.4-.14-.57,1.17-4-.26-7.63-2-11.12-1.25-2.56-2.74-5-4.22-7.44-.4-.66-1.07-1.53-1.7-1.6-2.18-.25-2.87-1.81-3.56-3.46a59.71,59.71,0,0,1,5.94,4C572.63,759.36,575.85,762.55,579.16,765.64Z"/><path class="cls-3" d="M232,700c-1.54.33-1-.83-1.13-1.55Z"/><path class="cls-4" d="M70.61,789.35l10.5-17.49.51-.83c2-3.49,2-3.49,4.32,0l9.92,15.1c.43.66.93,1.27,1.57,2.15,1.45-4.37,2.76-8.44,4.16-12.49,1.32-3.84,2.76-7.64,4.09-11.49,1.15-3.34,2.15-6.74,3.32-10.08.61-1.72,1.46-3.36,2.19-5,.09-.22.27-.47.23-.66-.59-2.57.75-4.79,1.18-7.17.22-1.2.66-1.6,1.65-1.47,1.87.23,3.73.6,5.6.91,3.24.53,6.5,1,9.72,1.6,2.82.56,5.58,1.41,8.39,2,1.87.4,3.78.62,5.67.86,5,.65,8.8,3.39,12,7.16.86,1,1.76,2,2.64,3.05-.22.19-.33.37-.45.37-3.71.13-3.71.13-3.71,3.8,0,6.44-.23,12.9.07,19.32s-.92,12.75-2.5,19c-4.46,17.57-8.82,35.17-13.22,52.76-1.42,5.68-2.82,11.36-4.27,17-1.36,5.3-1.65,5.47-7.06,5.6-3.26.07-6.51.22-9.76.43-5,.32-10.07.65-15.09,1.14a3.45,3.45,0,0,1-3.55-1.85c-3.69-5.44-7.46-10.83-11.19-16.25-1.46-2.13-1.46-2.13-2.66.21-2.62,5.13-5.3,10.24-7.89,15.39a2,2,0,0,1-2.67,1.26q-10-2.26-20-4.23a4.2,4.2,0,0,1-3.3-2.78q-9.19-21.4-18.4-42.8a9.72,9.72,0,0,0-1.49-2.7,7.42,7.42,0,0,1-1.84-4.43c-.25-2.08-1.46-4.05-2.33-6-4.11-9.45-8.39-18.84-12.28-28.38-.86-2.09-2.15-4-2.75-6.23A35.66,35.66,0,0,0,9,769.62c-.75-1.52-.51-2.37,1.19-2.87,3.26-1,6.51-1.94,9.71-3.07,2.41-.86,4.72-2,7.09-2.95,1.47-.61,2.93-1.24,4.43-1.74,2.88-1,5.8-1.75,8.66-2.76,2.23-.8,4.37-1.85,6.57-2.73q4.89-1.95,9.81-3.81c1.27-.48,1.73.34,2.06,1.38q4.26,13.48,8.54,27C68.23,781.65,69.34,785.28,70.61,789.35ZM132,827.86c.17-.81.34-1.63.5-2.44L133,824c.47-1.46,1-2.89,1.39-4.38,1-4.27,1.85-8.57,2.83-12.84.48-2.1,1.3-4.14,1.6-6.27a56.48,56.48,0,0,0,.08-6c.06-1.32-.34-1.89-1.77-1.88-11.58,0-23.15,0-34.73,0-.87,0-1.42.09-1.74,1.18-1,3.46-2.24,6.86-3.5,10.63-1.16-1.68-2.26-3.22-3.3-4.81-1.52-2.32-2.86-4.77-4.51-7C87,789.52,84,786.92,82,783.5c-.13-.21-.62-.48-.69-.42a25.13,25.13,0,0,0-3.11,2.8A22.21,22.21,0,0,0,77,788.43c-.87,1.35-2,2.54-2.79,3.91-2.48,4.1-4.29,8.6-7.49,12.26-.15.17-.14.48-.29.65a13,13,0,0,1-1.06,1c-.3-.39-.83-.76-.88-1.19-.33-2.64-2.32-4.84-2-7.66,0-.23-.25-.55-.46-.76a24.59,24.59,0,0,0-2.58-2.43c-.86-.65-1.88-1.52-2.83-1.54-7.91-.12-15.82-.08-23.72-.05-.51,0-1.39.2-1.47.48-.64,2.3-2.41,4.39-1.54,7,.69,2.06,1.44,4.1,2.29,6.1,1.6,3.76,3.27,7.49,5,11.2.83,1.8,2,3.42,2.2,5.51,0,.37.76.68,1.17,1,1.34,3.76,2.52,7.59,4.07,11.27,3,7,6.12,14,9.19,21,.77,1.75,1.35,3.68,4,3.05.48-.11,1.08.3,1.63.44,2.58.64,5.16,1.34,7.77,1.86a2.43,2.43,0,0,0,2.08-.59c1.46-2.55,2.72-5.22,4-7.87,1.71-3.44,3.35-6.92,5.12-10.34,1.19-2.3,2.54-4.51,3.93-7,1.24,2,2.23,3.62,3.34,5.22,4.25,6.15,8.66,12.2,12.77,18.45,1.82,2.78,3.45,4.42,7.29,3.8,5.41-.88,11-.78,16.47-1.16a1.87,1.87,0,0,0,1.4-.89c1-3.36,2-6.75,2.88-10.17C128.35,843.31,130.14,835.58,132,827.86Z"/><path class="cls-4" d="M292,854.61a10.44,10.44,0,0,1-.41-2q0-59.66,0-119.33c0-.93-.55-2.15,1.3-2.24,8.68-.42,17.36-1,26-1.41,7.16-.37,14.31-.78,21.47-1,12.52-.36,24.64,1.38,36,7.09,14,7,22,18.63,25.47,33.56,3.2,13.92,3.26,27.89-.82,41.71a56.33,56.33,0,0,1-21.82,30.33,57.58,57.58,0,0,1-30.45,10.61c-3.81.25-7.69.07-11.45.68-5.93,1-11.9.84-17.85,1.16-5.61.3-11.22.33-16.83.52-1.93.07-3.85.29-5.78.43-.78-.8-3.91-1.35-4.79-.78C291.92,854,292,854.37,292,854.61Zm41.56-42.41a4.53,4.53,0,0,1,.28,1.66c-.37,1.65.38,2,1.81,1.83,2.64-.35,5.33-.49,7.91-1.09,7.21-1.66,13.18-5.31,16.28-12.28s2.75-14.26.63-21.45A17,17,0,0,0,348,768.71c-4.45-1.24-9-.39-13.54-.59-.25,0-.53.65-.8,1a11.12,11.12,0,0,0-.56,2.47q-.06,19.15,0,38.33A13.13,13.13,0,0,0,333.51,812.2Zm-36.17,31.31c1.77-.16,3.53-.36,5.31-.47,5.16-.34,10.33-.7,15.5-1,7.36-.38,14.73-.67,22.1-1,3-.14,6-.24,9-.53a30,30,0,0,0,6.4-1.16,52.33,52.33,0,0,0,9.3-3.85,67.37,67.37,0,0,0,10.67-7.31,53.41,53.41,0,0,0,7.71-8.65c1.66-2.22,2.72-4.89,4.05-7.36.31-.21.81-.35.9-.63,1.79-5.18,4-10.24,4-15.9a53,53,0,0,1,.64-6.75c.34-2.74.63-5.4-.39-8.14a26.81,26.81,0,0,1-1.23-6.26c-.27-2.25.7-4.71-1.93-6.42-1.05-.68-2.71-2-4.08-1.89H385q-10.37-.19-20.71-.42c-1,0-1.75.17-1.21,1.32,1.1,2.35-.15,5.5,2.5,7.31.11.07.14.29.15.44.44,3.85,1.86,7.52,1.58,11.52s-.21,7.86-1.39,11.74c-.9,3-1.79,5.82-3.77,8.17-2.44,2.87-5.07,5.58-7.62,8.36-.42.24-.86.45-1.26.73a29.08,29.08,0,0,1-10.42,4.54A51.87,51.87,0,0,1,327.71,821a42.14,42.14,0,0,1-4.94-.94q-.24-25.5-.49-51c0-2.95,0-2.95-3-2.84-.57,0-1.14,0-1.71,0-5.78,0-11.56,0-17.34,0-2.57,0-2.81.3-2.86,2.77-.16,8.45-.42,16.89-.46,25.34-.08,15.63,0,31.26,0,46.89A11.49,11.49,0,0,0,297.34,843.51Zm-5-109.53h-.24V850.9h.24Z"/><path class="cls-4" d="M285.52,861.71l8.42,7.28c.51,1.11-.34,1-1,1-5.53.31-11.05.57-16.57.94-3,.2-6,.72-8.93.87-3.24.16-6.5-.05-9.74.12q-18.53,1-37,2.13c-1.58.1-1.72-.26-1.72-1.63q0-60.66,0-121.31c0-3.29,0-3.32,3.24-3.58L253,745.12c2.11-.16,4.22-.3,6.32-.48,1.21-.11,1.89.26,1.76,1.61,0,.56,0,1.14,0,1.71v81.93a13.93,13.93,0,0,1,0,1.71c-.22,1.68.34,2.37,2.15,2.18,3.56-.36,7.13-.55,10.7-.8,3.17-.23,6.34-.39,9.5-.66,1.29-.11,1.78.29,1.65,1.62s-.11,2.76-.15,4.14c-.38-.18-.78-.54-1.15-.51-3.94.31-7.88.78-11.82,1-7.2.41-14.4.69-21.59,1-.16-7.06-.34-14.13-.47-21.19,0-1,.19-1.92.26-2.89a27.49,27.49,0,0,0,.14-3.14c-.07-1.61-.42-3.22-.39-4.82.09-5.43.32-10.87.45-16.3.06-2.94-.09-5.82-3.37-7.26a1.05,1.05,0,0,1-.47-.8c.17-2.33-1.32-2.31-3-2.33-5.61,0-11.21-.21-16.81-.24a1.69,1.69,0,0,0-1.21,1.1,84.05,84.05,0,0,0-1,8.64c-.28,6.69-.43,13.38-.51,20.07-.08,7.25,0,14.49,0,21.74a9.15,9.15,0,0,0,.46,2q0,7,0,14c0,.81-.14,1.61-.17,2.42-.11,3.65-.23,7.3-.28,10.95,0,1,.45,1.42,1.6,1.17a35.55,35.55,0,0,1,5-.68c5.82-.37,11.64-.65,17.46-1,5.09-.3,10.18-.67,15.26-1,6.39-.36,12.78-.74,19.18-.94,1.78-.06,2.17-.66,2.14-2.29-.09-5,0-9.94,0-14.91a17.19,17.19,0,0,1,.31-2.35c0,6.58.06,13.17.13,19.75A12.26,12.26,0,0,0,285.52,861.71Z"/><path class="cls-5" d="M187.6,758.61c-2.74-.21-5.57-.05-8.2-.71-9.87-2.5-18.42-7.22-24.31-15.85a32.66,32.66,0,0,1-5.54-16c-.57-7,0-13.77,2.93-20.26a34.72,34.72,0,0,1,12.86-14.94c12.38-8.08,25.73-8.71,39.41-4.25,11.65,3.8,19.82,11.57,23.62,23.34a37,37,0,0,1-2.16,28.68,2.9,2.9,0,0,1-2.76,1.92c-3,.1-6,.5-9,.66-1.61.09-2.32.63-2.22,2.37.14,2.44-.05,4.89,0,7.33.07,1.45-.53,2.11-1.79,2.76A46.58,46.58,0,0,1,187.6,758.61Zm-31.16-30.54c.38,4,2.79,7,5.25,9.83,4.41,5.11,10.5,7.33,16.74,9.1,1.44.41,3.14-.13,4.61.23,3.84.95,7.58.07,11.31-.48a30,30,0,0,0,15-6.87c3.61-3,6.89-6.37,7.75-11.32.31-.21.85-.39.89-.64a60.67,60.67,0,0,0,1-7.42c.15-3.94,0-7.73-2.12-11.47-1.15-2-2.06-2.52-4.09-2.51-17.67.05-35.33,0-53,0-.65,0-1.31,0-2,0-1.07-.06-1.27.51-1.44,1.47-.35,2-1,3.88-1.4,5.83a14,14,0,0,0-.48,3.32,62.61,62.61,0,0,0,.5,7.25A18,18,0,0,0,156.44,728.07Z"/><path class="cls-4" d="M164.78,762.16c3.29,2.36,6.43,5,9.92,7,7.79,4.51,16.35,6.16,25.29,6,.9,0,1.79,0,2.68,0l.2.85c0,.81-.08,1.62-.08,2.44v67.92c0,2.52.05,5,0,7.57a5.51,5.51,0,0,1-.76,1.79c-2.9.14-5.81.44-8.71.41-10.32-.08-20.64-.3-30.95-.39-1.49,0-1.89-.37-1.89-1.9q.08-44.83,0-89.67c0-1.46.33-2.14,1.89-2A15.38,15.38,0,0,0,164.78,762.16Zm1,71.58c0,2.69,0,5.37,0,8.06s.12,2.69,2.55,2.7c7.08,0,14.17-.06,21.25,0,1.79,0,2.17-.63,2.15-2.27-.09-5.29,0-10.58,0-15.87q0-17,0-33.95c0-2.74-1.12-3.6-3.82-3a13,13,0,0,1-2.4.28c-3.58,0-7.17.1-10.75,0-2.07-.07-4.12-.52-6.19-.73-.39,0-1.1.15-1.16.38a22,22,0,0,0-1.07,4.68c-.28,4.53-.47,9.07-.51,13.61C165.69,816.32,165.75,825,165.75,833.74Zm-4.26-68.2h.73v89.21h.58v-30c0-10,0-20.05,0-30.07s-.25-19.87.19-29.8c-2.13,0-2.14,0-2.14,2.39v85.83c0,.56.08,1.12.11,1.69l.52,0Z"/><path class="cls-6" d="M284.94,839.68a17.19,17.19,0,0,0-.31,2.35c0,5-.07,9.94,0,14.91,0,1.63-.36,2.23-2.14,2.29-6.4.2-12.79.58-19.18.94-5.08.29-10.17.66-15.26,1-5.82.35-11.64.63-17.46,1a35.55,35.55,0,0,0-5,.68c-1.15.25-1.61-.22-1.6-1.17.05-3.65.17-7.3.28-10.95,0-.81.16-1.61.17-2.42q0-7,0-14c.16-1.57.33-3.14.49-4.71.07-.79.12-1.59.18-2.39l.68,0c.37,2.73-.2,5.58.61,8.29a1.8,1.8,0,0,0,.48-1.12c.16-2.53.15-2.54,2.54-2.54h14.17c2.66,0,2.65,0,2.89,2.64a6.3,6.3,0,0,0,.62,1.47c.4-2.59.73-4.71,1.06-6.82l.74.06a44.08,44.08,0,0,0,.06,5.75c.22,1.6-.39,3.56,1.41,4.73,7.19-.34,14.39-.62,21.59-1,3.94-.23,7.88-.7,11.82-1,.37,0,.77.33,1.15.51C284.93,838.61,284.94,839.15,284.94,839.68Z"/><path class="cls-3" d="M202,855.74a5.51,5.51,0,0,0,.76-1.79c.08-2.52,0-5.05,0-7.57V778.46c0-.82.05-1.63.08-2.44a10.67,10.67,0,0,1,.52,2.24q0,38.22,0,76.43a4.08,4.08,0,0,1-.08,1.45c-.16.37-.64.6-1,.9Z"/><path class="cls-7" d="M292,854.61c0-.24,0-.61.09-.69.88-.57,4,0,4.79.78Z"/><path class="cls-4" d="M548.28,859a2.3,2.3,0,0,1,.66.28l5.29,4.81c.63.92,1.25,1.66-.41,2.36a52.74,52.74,0,0,1-17.46,4.31c-4.82.29-9.67.21-14.5.22q-25.44,0-50.88,0c-1,0-2-.08-2.92-.12V756.57a14.67,14.67,0,0,0-.05-2.2c0-.31-.44-.56-.68-.85-.48-1.27-.23-1.91,1.33-2,9.79-.75,19.57-1.76,29.37-2.34,8.92-.53,17.87-.95,26.8-.8a100.81,100.81,0,0,1,17.62,2.11c3.6.71,7,2.5,10.42,4a29.58,29.58,0,0,1,6.38,3.35,23.5,23.5,0,0,1,9.38,16.73c1.12,10.58-1.37,20.19-8,28.58a19.58,19.58,0,0,1-7.73,5.6c2.58,1.08,5.06,2.21,7.61,3.14,1.7.61,2.17,1.38,1.33,3.08s-1.36,3.46-2,5.2c-.54-.32-1.09-.63-1.62-1-2.72-1.7-5.33-3.62-8.18-5.07a44.71,44.71,0,0,0-14.27-4.93,62.11,62.11,0,0,1-7.37-1.86,4.6,4.6,0,0,1-1-.54c.28-.3.52-.75.86-.87a47.24,47.24,0,0,1,7.54-2.35c5.72-.88,9.66-4.77,14.11-7.81,1.45-1,1.43-2.71,1.56-4.26-1.44,1.51-1.44,1.43-3.76,1.44a2.15,2.15,0,0,0-1.65,1c-.7,1.65-1.78,1.89-3.32,1.37a4.53,4.53,0,0,0-1.68-.18c-2.7.2-5.25.23-6.12-3.15-.06-.24-.61-.36-.94-.53-.12.28-.37.57-.34.83.13,1.33-.38,2-1.76,1.93a.86.86,0,0,0-.57.39,23.51,23.51,0,0,1-1.78,3.24c-2.42,3.06-4.63,6.47-9.17,6.61a3.24,3.24,0,0,0-.69.22,26.72,26.72,0,0,1-4.81,1.16c-4.61.3-9.24.37-13.85.56a3.44,3.44,0,0,0-.94.34l.07.62c1.49,0,3,0,4.47,0,4.54.14,9.07.28,13.61.5,4,.19,7.15,2.53,9.84,5.13,1.6,1.55,3.7,3.31,3.17,6.2,0,.23.59.58.91.88,0,2.61,0,5.22,0,7.82l-1,2.95a16.24,16.24,0,0,1-.85,3c-3.35,6.81-9.64,8.92-16.44,9.65-4.49.49-9.08,0-13.63.13-1.57,0-1.92-.61-1.89-2,.08-3.25,0-6.5,0-9.75.1-11.44.16-22.88-1-34.29-.18-1.87-.49-3.72-.78-5.92-.37.49-.58.65-.61.83-.46,2.68-.46,2.68-3.13,2.68H475.05c-2.57,0-2.58,0-2.58,2.49q0,15.15,0,30.29,0,14.77,0,29.54c0,2.73,0,2.74,2.83,2.74,17.09,0,34.18,0,51.27,0,2.58,0,5.16-.32,7.75-.49a33.29,33.29,0,0,0,4.91-.37c2.43-.53,4.78-1.37,7.17-2.08Zm-39.71-67.43.21,0c0,2.19,0,4.39,0,6.58s.49,2.54,2.6,2.49c2.27-.06,4.55,0,6.81-.25a10,10,0,0,0,3.71-1c4-2.06,5.08-5.59,4.86-9.8-.28-5.08-2.8-7.64-7.77-8.27-1.12-.15-2.26-.26-3.39-.3-1.81-.06-3.63-.1-5.43,0-.32,0-.84.7-.88,1.11C509,785.3,508.8,788.44,508.57,791.57Zm6.25,27v0c-1.22,0-2.44.09-3.65,0-1.52-.13-2,.44-1.93,1.94.09,4.31,0,8.62,0,12.93,0,4.8,0,4.82,4.7,4.64,1.78-.07,3.57-.18,5.34-.42,4.74-.66,7.64-5,7.53-10.65-.11-5.34-4.09-8.13-8.36-8.36C517.26,818.5,516,818.56,514.82,818.56Z"/><path class="cls-4" d="M673.53,833.75c0,3.09,0,6.19.12,9.28.08,1.72-.63,2.32-2.22,2.4-3.9.18-7.8.41-11.7.66-2.84.18-5.68.39-8.52.65-1.22.11-1.88-.12-2.26-1.5-1-3.71-2.31-7.35-3.36-11.06a2.38,2.38,0,0,0-2.71-2.07q-14.67.1-29.34,0A2.21,2.21,0,0,0,611,834c-1,3.68-2.21,7.32-3.21,11a2.24,2.24,0,0,1-2.37,1.9c-5.2.3-10.39.69-15.58,1l-27.25,1.86c-1.54.11-3.1.07-4.63.26s-1.55-.26-1.11-1.47q5.45-15.25,10.84-30.54,8.88-25.05,17.76-50.09c1.25-3.55,2.27-7.19,3.54-10.74,3.38-9.47,6.86-18.9,10.26-28.36a2,2,0,0,1,2.09-1.59c3.17-.15,6.32-.47,9.49-.66l36.54-2.13c4.21-.24,4.18-.23,5.64,3.71,3.57,9.7,7.19,19.37,10.73,29.07,3.2,8.77,6.31,17.58,9.45,26.37a5.86,5.86,0,0,1,.4,1.87q0,13.32-.06,26.65l-2-4.89-.95-1c0-.16,0-.32,0-.48-1.15-3.37-2.24-6.75-3.45-10.09-1.91-5.34-3.94-10.63-5.84-16-1.07-3-1.95-6.11-3-9.16-.16-.49-.47-1.21-.85-1.31-1.25-.35-1-1.26-1.11-2.13a9.13,9.13,0,0,0-.56-2c-1.1-3-2.19-6-3.36-9a2.51,2.51,0,0,0-1.14-1.26,2.73,2.73,0,0,1-1.84-2.54c-.2-2-1.26-2.75-3.31-2.76-3.58,0-7.17,0-10.75,0-1.58,0-2.55.69-2.47,2.32.1,2.13-.59,4.36.9,6.33a3,3,0,0,1,.47,1.86c-.3,3.59,1.4,6.84,1.73,10.32.08.78.62,1.5.77,2.28.71,3.8,1.23,7.64,2.09,11.41s2.06,7.22,3,10.86c.7,2.73,1.17,5.53,1.82,8.27.1.43.61.77.93,1.15,0,.24,0,.49,0,.73,0,3.55.27,3.17-3.11,3.17q-16,0-32,0a14.19,14.19,0,0,1-2.53-.46,19,19,0,0,1,.28-3.13c.46-1.8,1.23-3.53,1.66-5.34,1.16-4.92,2.22-9.87,3.31-14.81.38-1.69.78-3.37,1.12-5.07.38-1.93.62-3.9,1.1-5.8.87-3.51,2-7,2.76-10.49s1-7,1.49-10.52c.19-1.51.23-3-1.86-3.3a33.39,33.39,0,0,0-3.75-.71c-4.07-.14-8.15.06-12.19-.29-1.45-.12-2.28.25-2.82,1.22-1,1.9-1.84,3.94-2.77,5.91-.46,1-1.35,1.88-1.44,2.87-.27,3.07-2.36,5.38-3.07,8.28-.62,2.58-2,5-2.84,7.51-1.12,3.35-1.91,6.81-3.1,10.13-1.76,4.9-3.77,9.7-5.61,14.57a40.05,40.05,0,0,0-1.11,4.07c-.5,1.57-1,3.17-1.52,4.72-1.43,3.89-2.93,7.75-4.37,11.63-1.82,4.91-3.63,9.83-5.38,14.77a29.84,29.84,0,0,0-.79,3.69,23.12,23.12,0,0,0,3.77.36c7.18-.42,14.36-.93,21.54-1.43a42.44,42.44,0,0,0,5.54-.57,2.79,2.79,0,0,0,1.72-1.62c1.12-3.71,2.09-7.46,3.09-11.2.39-1.46,1-2.31,2.81-2.3q21,.12,42,0a2.26,2.26,0,0,1,2.57,1.93c1,3.65,2.27,7.24,3.25,10.91.3,1.14.77,1.48,1.81,1.38,1.69-.17,3.37-.36,5.06-.48C664,834.38,668.77,834.07,673.53,833.75Zm-44.84-71.13c-.37.58-.55.75-.59,1q-4.1,18.7-8.16,37.4c-.33,1.51.12,2,1.72,1.95,4.65-.1,9.3-.14,13.93,0,1.68.06,2-.36,1.62-1.84C634.39,788.42,631.59,775.73,628.69,762.62Z"/><path class="cls-4" d="M744.42,861.11q4.37,3.79,8.7,7.61a12.65,12.65,0,0,1,1.09,1.22c-6.09.33-12.19.62-18.28,1-4.58.27-9.16.66-13.75.91-12.73.73-25.46,1.41-38.2,2.11-2.35.12-3.54-.93-3.65-3.37-.09-2,0-3.91,0-5.87V751a14,14,0,0,0,0-1.71c-.19-1.44.34-2,1.86-2.1,5.11-.26,10.22-.7,15.33-1,4.06-.24,8.14-.28,12.2-.57,3.35-.24,6.69-.63,10-1.08,2.3-.31,2.72,0,2.73,2.27v84.1c0,.4,0,.81,0,1.22.07,2,.16,2,2.27,1.64a39.16,39.16,0,0,1,5.06-.56c4.05-.2,8.1-.31,12.16-.46.94,0,1.82-.26,1.24,1.35a12.42,12.42,0,0,0-.21,3.53l-18.9,1c-.4,0-.78.2-1.18.23-3.22.26-6.44.49-9.66.72-1,.07-1.53-.19-1.56-1.31-.12-3.48-.31-6.95-.48-10.42a52.81,52.81,0,0,0,.45-5.31c0-2.34-.4-4.68-.42-7-.06-6.52,0-13,0-19.56,0-3.65.41-3.33-3.21-3.34H690.85c-2.71,0-2.71,0-3.37-2.55,0-.07-.28-.08-.77-.2-.32,4.3-.87,8.54-.92,12.79-.13,11.17,0,22.33,0,33.5v23.73c0,2.68,0,2.67,2.57,2.26.48-.07,1,0,1.46-.06,6.23-.32,12.47-.63,18.7-1,5.34-.3,10.67-.67,16-1,6.28-.35,12.57-.65,18.86-1C743.71,859.84,744.07,860.47,744.42,861.11Z"/><path class="cls-4" d="M791.91,812.21c.64.34,1.3,1,1.92.95,6.49-.37,13-.87,19.44-1.32,5.12-.35,10.23-.65,15.35-1,1.2-.09,1.57.36,1.57,1.51q0,17.61,0,35.21c0,1.47-.73,1.74-2,1.8-5.68.28-11.37.63-17.05.94-6.8.37-13.6.7-20.4,1.08q-13.71.78-27.42,1.59c-3.62.22-7.23.49-10.85.72-2.23.14-2.23.13-2.3-2.2,0-.82,0-1.63,0-2.45V730.93c0-3.68,0-3.72,3.58-4,3.89-.35,7.83-.33,11.67-.93,8-1.26,16.16-1,24.23-1.71,2.63-.23,2.66-.09,2.66,2.54q0,41.69,0,83.37a11.59,11.59,0,0,1-.37,2.06v-86.1a1.33,1.33,0,0,0-.49,1.17q0,41.44,0,82.89A9.18,9.18,0,0,0,791.91,812.21Zm-10.77,3.91q0-3.66,0-7.33,0-9.21,0-18.43V764.7a5.62,5.62,0,0,0-.09-2.18c-1.34-2.94,1.18-6-.33-8.91-.08-.15.16-.44.21-.68.59-2.75-.24-3.81-3-3.82-5.78,0-11.57,0-17.35,0-1.35,0-2.46-.11-2.44-1.89,0-.45-.4-.9-.61-1.35-.27.45-.75.88-.79,1.35-.53,6.93-1.19,13.86-1.45,20.8-.25,6.38,0,12.78,0,19.17,0,5,0,9.94,0,14.9a11.38,11.38,0,0,0,.46,2.28c0,11.82,0,23.65,0,35.47,0,1.66.41,2.35,2.18,2.23,3.64-.26,7.29-.35,10.94-.54,2.67-.13,5.33-.31,8-.49,7.11-.47,14.21-1,21.32-1.43,4.22-.25,8.44-.32,12.65-.53,2.18-.1,4.36-.32,6.54-.45.93-.06,1.89,0,1.93-1.31.06-1.6.08-3.2.07-4.8,0-4.52-.06-9-.13-13.58,0-1.7-.88-2.17-2.66-2-3,.3-6,.44-9,.62-3.15.2-6.31.3-9.47.55-5.48.43-10.95.94-16.43,1.41h0c-.17-.81-.33-1.62-.5-2.44Z"/><path class="cls-6" d="M673.53,833.75c-4.76.32-9.52.63-14.28,1-1.69.12-3.37.31-5.06.48-1,.1-1.51-.24-1.81-1.38-1-3.67-2.21-7.26-3.25-10.91a2.26,2.26,0,0,0-2.57-1.93q-21,.09-42,0c-1.83,0-2.42.84-2.81,2.3-1,3.74-2,7.49-3.09,11.2a2.79,2.79,0,0,1-1.72,1.62,42.44,42.44,0,0,1-5.54.57c-7.18.5-14.36,1-21.54,1.43a23.12,23.12,0,0,1-3.77-.36,29.84,29.84,0,0,1,.79-3.69c1.75-4.94,3.56-9.86,5.38-14.77,1.44-3.88,2.94-7.74,4.37-11.63.57-1.55,1-3.15,1.52-4.72,1.26.13,3.07-.19,3.64.51.89,1.1,1.77.93,2.74.94,6.41,0,12.82,0,19.23,0,1.55,0,2.5.21,2.33,2.08,0,.43.58.91.9,1.38a14.19,14.19,0,0,0,2.53.46q16,0,32,0c3.38,0,3.11.38,3.11-3.17,0-.24,0-.49,0-.73h20.73c2.63,0,2.62,0,2.79,2.55a7,7,0,0,0,.44,1.42c.78-1,.12-2.83,2-2.5,0,.16,0,.32,0,.48l.95,1,2,4.89Z"/><path class="cls-6" d="M546.39,857.18c-2.39.71-4.74,1.55-7.17,2.08a33.29,33.29,0,0,1-4.91.37c-2.59.17-5.17.49-7.75.49-17.09,0-34.18,0-51.27,0-2.82,0-2.83,0-2.83-2.74q0-14.77,0-29.54c7.07,0,14.15,0,21.23,0,1.6,0,2.49-.31,2.27-2.12a5.32,5.32,0,0,1,.27-1.6l.5.05c.22,2,.39,4,.71,5.93a5.38,5.38,0,0,0,.93,1.63c0,3.25.06,6.5,0,9.75,0,1.41.32,2.05,1.89,2,4.55-.09,9.14.36,13.63-.13,6.8-.73,13.09-2.84,16.44-9.65a16.24,16.24,0,0,0,.85-3c1.89-.47,1.82-1.58,1-2.95,0-2.6,0-5.21,0-7.82.83.08,1.87-.3,2,1.14a44.22,44.22,0,0,1,.44,4.56c-.07,1.76.61,2.19,2.26,2.16,5-.09,9.91,0,14.86,0,1.59,0,3.11-.14,3.54,1.94,0,.24.65.36,1,.53l-.26,1c-.1.17-.19.34-.28.51q-1.78,5.26-3.59,10.53c-1.44,4.18-2.89,8.37-4.4,12.54A14.92,14.92,0,0,1,546.39,857.18Z"/><path class="cls-6" d="M711.18,827.87c.17,3.47.36,6.94.48,10.42,0,1.12.61,1.38,1.56,1.31,3.22-.23,6.44-.46,9.66-.72.4,0,.78-.21,1.18-.23l18.9-1c.17,3.37.45,6.74.5,10.12.07,3.8-.07,7.62-.11,11.43-6.29.32-12.58.62-18.86,1-5.34.29-10.67.66-16,1-6.23.35-12.47.66-18.7,1-.49,0-1,0-1.46.06-2.57.41-2.57.42-2.57-2.26V836.18c.33-.46.89-.89.93-1.38.12-1.45.05-2.92.05-4.38v-6.08l.55,0a4.48,4.48,0,0,1,.4,1c.32,2.53.31,2.53,2.79,2.53Z"/><path class="cls-7" d="M556.19,830.32c-.34-.17-.94-.29-1-.53-.43-2.08-2-2-3.54-1.94-4.95,0-9.91,0-14.86,0-1.65,0-2.33-.4-2.26-2.16a44.22,44.22,0,0,0-.44-4.56c-.09-1.44-1.13-1.06-2-1.14-.32-.3-.95-.65-.91-.88.53-2.89-1.57-4.65-3.17-6.2-2.69-2.6-5.8-4.94-9.84-5.13-4.54-.22-9.07-.36-13.61-.5-1.49-.05-3,0-4.47,0l-.07-.62a3.44,3.44,0,0,1,.94-.34c4.61-.19,9.24-.26,13.85-.56a26.72,26.72,0,0,0,4.81-1.16,3.24,3.24,0,0,1,.69-.22c4.54-.14,6.75-3.55,9.17-6.61a23.51,23.51,0,0,0,1.78-3.24.86.86,0,0,1,.57-.39c1.38.06,1.89-.6,1.76-1.93,0-.26.22-.55.34-.83.33.17.88.29.94.53.87,3.38,3.42,3.35,6.12,3.15a4.53,4.53,0,0,1,1.68.18c1.54.52,2.62.28,3.32-1.37a2.15,2.15,0,0,1,1.65-1c2.32,0,2.32.07,3.76-1.44-.13,1.55-.11,3.27-1.56,4.26-4.45,3-8.39,6.93-14.11,7.81a47.24,47.24,0,0,0-7.54,2.35c-.34.12-.58.57-.86.87a4.6,4.6,0,0,0,1,.54,62.11,62.11,0,0,0,7.37,1.86A44.71,44.71,0,0,1,550,814.08c2.85,1.45,5.46,3.37,8.18,5.07.53.33,1.08.64,1.62,1Q558,825.21,556.19,830.32Z"/><path class="cls-7" d="M467.33,753.52c.24.29.64.54.68.85a14.67,14.67,0,0,1,.05,2.2v114.3l-.5-.06a.51.51,0,0,0-.27-.35c-.05-.73-.13-1.46-.13-2.19q0-56.16,0-112.33C467.16,755.14,467.27,754.33,467.33,753.52Z"/><path class="cls-7" d="M555.65,831.84l.28-.51Z"/><path class="cls-4" d="M467.29,870.46a.51.51,0,0,1,.27.35Z"/><path class="cls-7" d="M40.5,824c-.41-.34-1.14-.65-1.17-1-.16-2.09-1.37-3.71-2.2-5.51-1.7-3.71-3.37-7.44-5-11.2-.85-2-1.6-4-2.29-6.1-.87-2.59.9-4.68,1.54-7,.08-.28,1-.47,1.47-.48,7.9,0,15.81-.07,23.72.05.95,0,2,.89,2.83,1.54A24.59,24.59,0,0,1,62,796.68c.21.21.49.53.46.76-.3,2.82,1.69,5,2,7.66.05.43.58.8.88,1.19a13,13,0,0,0,1.06-1c.15-.17.14-.48.29-.65,3.2-3.66,5-8.16,7.49-12.26.82-1.37,1.92-2.56,2.79-3.91a22.21,22.21,0,0,1,1.22-2.55,25.13,25.13,0,0,1,3.11-2.8c.07-.06.56.21.69.42,2,3.42,5,6,7.28,9.15,1.65,2.22,3,4.67,4.51,7,1,1.59,2.14,3.13,3.3,4.81,1.26-3.77,2.49-7.17,3.5-10.63.32-1.09.87-1.18,1.74-1.18,11.58,0,23.15,0,34.73,0,1.43,0,1.83.56,1.77,1.88a56.48,56.48,0,0,1-.08,6c-.3,2.13-1.12,4.17-1.6,6.27-1,4.27-1.84,8.57-2.83,12.84-.35,1.49-.92,2.92-1.39,4.38-.78.18-1.9.1-2.29.59-1.73,2.21-4.08,1.84-6.35,1.84H47.93c-2,0-4.39.62-4.47-2.65,0-.14-.18-.27-.28-.4-.31-.42-.61-.85-.92-1.28a11.94,11.94,0,0,1-.85,1.25A4.59,4.59,0,0,1,40.5,824Z"/><path class="cls-6" d="M40.5,824a4.59,4.59,0,0,0,.91-.63,11.94,11.94,0,0,0,.85-1.25c.31.43.61.86.92,1.28.1.13.27.26.28.4.08,3.27,2.47,2.65,4.47,2.65h76.38c2.27,0,4.62.37,6.35-1.84.39-.49,1.51-.41,2.29-.59l-.48,1.46-1.43.77.93,1.67c-1.83,7.72-3.62,15.45-5.5,23.15-.84,3.42-1.84,6.81-2.88,10.17a1.87,1.87,0,0,1-1.4.89c-5.49.38-11.06.28-16.47,1.16-3.84.62-5.47-1-7.29-3.8-4.11-6.25-8.52-12.3-12.77-18.45-1.11-1.6-2.1-3.27-3.34-5.22-1.39,2.46-2.74,4.67-3.93,7-1.77,3.42-3.41,6.9-5.12,10.34-1.32,2.65-2.58,5.32-4,7.87a2.43,2.43,0,0,1-2.08.59c-2.61-.52-5.19-1.22-7.77-1.86-.55-.14-1.15-.55-1.63-.44-2.64.63-3.22-1.3-4-3.05-3.07-7-6.24-13.93-9.19-21C43,831.54,41.84,827.71,40.5,824Z"/><path class="cls-7" d="M132,827.86l-.93-1.67,1.43-.77C132.31,826.23,132.14,827.05,132,827.86Z"/><path class="cls-6" d="M387.35,812.21c-1.33,2.47-2.39,5.14-4.05,7.36a53.41,53.41,0,0,1-7.71,8.65,67.37,67.37,0,0,1-10.67,7.31,52.33,52.33,0,0,1-9.3,3.85,30,30,0,0,1-6.4,1.16c-3,.29-6,.39-9,.53-7.37.34-14.74.63-22.1,1-5.17.26-10.34.62-15.5,1-1.78.11-3.54.31-5.31.47q0-16.85,0-33.7c0-.81-.33-2.17,1.08-1.89,1,.2,2.95-.25,2.79,1.83-.14,1.71.64,2,2.15,2,4.63-.08,9.28,0,13.91,0,3.2,0,3.2,0,3.72-3,0-.07.25-.11.63-.25.06.74.15,1.42.15,2.1,0,2.53,0,5,0,7.57,0,.76-.29,1.73,1,1.87a42.14,42.14,0,0,0,4.94.94,51.87,51.87,0,0,0,15.18-1.05,29.08,29.08,0,0,0,10.42-4.54c.4-.28.84-.49,1.26-.73,1.07-.25,2.66-.15,3.12-.82,1.6-2.32,4.6-3.37,5.52-6.24a2.32,2.32,0,0,1,.51.06c.09.77.14,1.58.31,2.36a1.85,1.85,0,0,0,2.13,1.74c3.56-.11,7.13-.1,10.7,0S383.85,812.05,387.35,812.21Z"/><path class="cls-7" d="M387.35,812.21c-3.5-.16-7-.39-10.49-.47s-7.14-.09-10.7,0A1.85,1.85,0,0,1,364,810c-.17-.78-.22-1.59-.31-2.36a2.32,2.32,0,0,0-.51-.06c-.92,2.87-3.92,3.92-5.52,6.24-.46.67-2.05.57-3.12.82,2.55-2.78,5.18-5.49,7.62-8.36,2-2.35,2.87-5.22,3.77-8.17,1.18-3.88,1.11-7.8,1.39-11.74s-1.14-7.67-1.58-11.52c0-.15,0-.37-.15-.44-2.65-1.81-1.4-5-2.5-7.31-.54-1.15.17-1.35,1.21-1.32q10.35.24,20.71.42h.24c1.37-.15,3,1.21,4.08,1.89,2.63,1.71,1.66,4.17,1.93,6.42a26.81,26.81,0,0,0,1.23,6.26c1,2.74.73,5.4.39,8.14a53,53,0,0,0-.64,6.75c0,5.66-2.23,10.72-4,15.9C388.16,811.86,387.66,812,387.35,812.21Z"/><path class="cls-7" d="M322.77,820c-1.26-.14-1-1.11-1-1.87,0-2.52,0-5,0-7.57,0-.68-.09-1.36-.15-2.1-.38.14-.62.18-.63.25-.52,3-.52,3-3.72,3-4.63,0-9.28-.05-13.91,0-1.51,0-2.29-.29-2.15-2,.16-2.08-1.76-1.63-2.79-1.83-1.41-.28-1.08,1.08-1.08,1.89q0,16.85,0,33.7a11.49,11.49,0,0,1-.48-2.27c0-15.63-.07-31.26,0-46.89,0-8.45.3-16.89.46-25.34.05-2.47.29-2.76,2.86-2.77,5.78,0,11.56,0,17.34,0,.57,0,1.14,0,1.71,0,3-.11,3-.11,3,2.84Q322.52,794.55,322.77,820Z"/><path class="cls-2" d="M333.63,769.12c.27-.35.55-1,.8-1,4.52.2,9.09-.65,13.54.59a17,17,0,0,1,12.45,12.16c2.12,7.19,2.46,14.49-.63,21.45s-9.07,10.62-16.28,12.28c-2.58.6-5.27.74-7.91,1.09-1.43.2-2.18-.18-1.81-1.83a4.53,4.53,0,0,0-.28-1.66h0c.05,0,.14-.05.15-.09a1.51,1.51,0,0,0,0-.3,16.12,16.12,0,0,0,.17-1.69q0-19.27,0-38.56C333.85,770.74,333.71,769.93,333.63,769.12Zm6.75,22.31c0,5.13.06,10.26,0,15.38,0,1.45.47,2,1.73,1.44a40.54,40.54,0,0,0,7.21-3.37,12.43,12.43,0,0,0,5.3-7.87,26,26,0,0,0,0-12.67c-.86-3.05-2-6-5-7.75A16.25,16.25,0,0,0,342,774.4c-1.44-.08-1.63.19-1.62,1.41C340.4,781,340.38,786.23,340.38,791.43Z"/><path class="cls-7" d="M292.32,734V850.9h-.24V734Z"/><path class="cls-7" d="M333.63,769.12c.08.81.22,1.62.22,2.43q0,19.28,0,38.56a16.12,16.12,0,0,1-.17,1.69.76.76,0,0,0-.16.39h0a13.13,13.13,0,0,1-.45-2.28q0-19.17,0-38.33A11.12,11.12,0,0,1,333.63,769.12Z"/><path class="cls-7" d="M250.37,839.61c-1.8-1.17-1.19-3.13-1.41-4.73a44.08,44.08,0,0,1-.06-5.75l-.74-.06c-.33,2.11-.66,4.23-1.06,6.82a6.3,6.3,0,0,1-.62-1.47c-.24-2.62-.23-2.64-2.89-2.64H229.42c-2.39,0-2.38,0-2.54,2.54a1.8,1.8,0,0,1-.48,1.12c-.81-2.71-.24-5.56-.61-8.29l-.68,0c-.06.8-.11,1.6-.18,2.39-.16,1.57-.33,3.14-.49,4.71a9.15,9.15,0,0,1-.46-2c0-7.25-.09-14.49,0-21.74.08-6.69.23-13.38.51-20.07a84.05,84.05,0,0,1,1-8.64,1.69,1.69,0,0,1,1.21-1.1c5.6,0,11.2.2,16.81.24,1.69,0,3.18,0,3,2.33a1.05,1.05,0,0,0,.47.8c3.28,1.44,3.43,4.32,3.37,7.26-.13,5.43-.36,10.87-.45,16.3,0,1.6.32,3.21.39,4.82a27.49,27.49,0,0,1-.14,3.14c-.07,1-.28,1.93-.26,2.89C250,825.48,250.21,832.55,250.37,839.61Z"/><path class="cls-8" d="M217,728c-.78,5-4,8.37-7.55,11.45a30,30,0,0,1-14.89,7.13c-3.72.61-7.44,1.55-11.3.67-1.48-.34-3.17.24-4.62-.15-6.27-1.67-12.39-3.79-16.88-8.81-2.51-2.81-5-5.74-5.42-9.75-.18-1.11-.43-2.22-.53-3.34-.21-2.37-.08-2.51,2.25-2.55l55.68-1c2.84,0,3.53.89,3,3.76A10.57,10.57,0,0,0,217,728Z"/><path class="cls-9" d="M217.1,728.56a10,10,0,0,1-.17-2.54c.54-2.86-.14-3.81-3-3.81H158.27c-2.34,0-2.47.14-2.3,2.51.08,1.12.31,2.23.47,3.35a18,18,0,0,1-1.41-3.66,62.61,62.61,0,0,1-.5-7.25,14,14,0,0,1,.48-3.32c.43-2,1.05-3.86,1.4-5.83.17-1,.37-1.53,1.44-1.47.65,0,1.31,0,2,0,17.66,0,35.32,0,53,0,2,0,2.94.49,4.09,2.51,2.13,3.74,2.27,7.53,2.12,11.47a60.67,60.67,0,0,1-1,7.42C218,728.17,217.41,728.35,217.1,728.56Z"/><path class="cls-7" d="M165.75,833.74c0-8.71-.06-17.42,0-26.13,0-4.54.23-9.08.51-13.61a22,22,0,0,1,1.07-4.68c.06-.23.77-.42,1.16-.38,2.07.21,4.12.66,6.19.73,3.58.13,7.17.06,10.75,0a13,13,0,0,0,2.4-.28c2.7-.57,3.82.29,3.82,3q0,17,0,33.95c-1.19-.44-2.38-1.25-3.58-1.26-5.51,0-11,.19-16.55.27-2.5,0-3.22-.74-3.35-3.31,0-.62-.16-1.24-.24-1.86l-.79.07c-.15,3.77-.27,7.54-.45,11.31C166.66,832.41,167.15,833.52,165.75,833.74Z"/><path class="cls-6" d="M165.75,833.74c1.4-.22.91-1.33.95-2.12.18-3.77.3-7.54.45-11.31l.79-.07c.08.62.21,1.24.24,1.86.13,2.57.85,3.35,3.35,3.31,5.52-.08,11-.3,16.55-.27,1.2,0,2.39.82,3.58,1.26,0,5.29,0,10.58,0,15.87,0,1.64-.36,2.29-2.15,2.27-7.08-.1-14.17,0-21.25,0-2.43,0-2.54-.14-2.55-2.7S165.75,836.43,165.75,833.74Z"/><path class="cls-7" d="M161.49,765.54v89.19l-.52,0c0-.57-.11-1.13-.11-1.69V767.24c0-2.41,0-2.41,2.14-2.39-.44,9.93-.13,19.86-.19,29.8s0,20.05,0,30.07v30h-.58V765.54Z"/><path class="cls-7" d="M498.38,831.78a5.38,5.38,0,0,1-.93-1.63c-.32-2-.49-3.95-.71-5.93l-.5-.05a5.32,5.32,0,0,0-.27,1.6c.22,1.81-.67,2.14-2.27,2.12-7.08-.06-14.16,0-21.23,0q0-15.15,0-30.29c0-2.48,0-2.49,2.58-2.49h17.83c2.67,0,2.67,0,3.13-2.68,0-.18.24-.34.61-.83.29,2.2.6,4,.78,5.92C498.54,808.9,498.48,820.34,498.38,831.78Z"/><path class="cls-2" d="M508.57,791.57c.23-3.13.44-6.27.73-9.4,0-.41.56-1.09.88-1.11,1.8-.09,3.62,0,5.43,0,1.13,0,2.27.15,3.39.3,5,.63,7.49,3.19,7.77,8.27.22,4.21-.91,7.74-4.86,9.8a10,10,0,0,1-3.71,1c-2.26.21-4.54.19-6.81.25-2.11.05-2.59-.41-2.6-2.49s0-4.39,0-6.58Zm7.43-.36c.67.64-1.16,2.51,1,2.59,2.33.1,2.91-.66,2.92-3.06,0-1.88-.68-2.84-2.1-2.92S516,788.54,516,791.21Z"/><path class="cls-2" d="M514.82,818.56c1.22,0,2.44-.06,3.66,0,4.27.23,8.25,3,8.36,8.36.11,5.66-2.79,10-7.53,10.65-1.77.24-3.56.35-5.34.42-4.7.18-4.7.16-4.7-4.64,0-4.31.06-8.62,0-12.93,0-1.5.41-2.07,1.93-1.94,1.21.11,2.43,0,3.65,0Zm1.18,9.65a4.8,4.8,0,0,0,0,1.2c.17.63.45,1.72.71,1.73.82,0,2-.1,2.4-.64a6,6,0,0,0,.88-3.3,2.14,2.14,0,0,0-2.55-2.24c-1.72.14-1.41,1.43-1.46,2.52C516,827.73,516,828,516,828.21Z"/><path class="cls-7" d="M532.15,827.86c.84,1.37.91,2.48-1,2.95Z"/><path class="cls-7" d="M607,807.82c-.32-.47-.94-1-.9-1.38.17-1.87-.78-2.1-2.33-2.08-6.41.06-12.82,0-19.23,0-1,0-1.85.16-2.74-.94-.57-.7-2.38-.38-3.64-.51a40.05,40.05,0,0,1,1.11-4.07c1.84-4.87,3.85-9.67,5.61-14.57,1.19-3.32,2-6.78,3.1-10.13.85-2.54,2.22-4.93,2.84-7.51.71-2.9,2.8-5.21,3.07-8.28.09-1,1-1.9,1.44-2.87.93-2,1.73-4,2.77-5.91.54-1,1.37-1.34,2.82-1.22,4,.35,8.12.15,12.19.29a33.39,33.39,0,0,1,3.75.71c2.09.3,2,1.79,1.86,3.3-.44,3.51-.78,7.05-1.49,10.52s-1.89,7-2.76,10.49c-.48,1.9-.72,3.87-1.1,5.8-.34,1.7-.74,3.38-1.12,5.07-1.09,4.94-2.15,9.89-3.31,14.81-.43,1.81-1.2,3.54-1.66,5.34A19,19,0,0,0,607,807.82Z"/><path class="cls-7" d="M670.59,805.85c-1.87-.33-1.21,1.48-2,2.5a7,7,0,0,1-.44-1.42c-.17-2.54-.16-2.55-2.79-2.55H644.64c-.32-.38-.83-.72-.93-1.15-.65-2.74-1.12-5.54-1.82-8.27-.93-3.64-2.16-7.2-3-10.86s-1.38-7.61-2.09-11.41c-.15-.78-.69-1.5-.77-2.28-.33-3.48-2-6.73-1.73-10.32a3,3,0,0,0-.47-1.86c-1.49-2-.8-4.2-.9-6.33-.08-1.63.89-2.32,2.47-2.32,3.58,0,7.17,0,10.75,0,2.05,0,3.11.75,3.31,2.76a2.73,2.73,0,0,0,1.84,2.54,2.51,2.51,0,0,1,1.14,1.26c1.17,3,2.26,6,3.36,9a9.13,9.13,0,0,1,.56,2c.11.87-.14,1.78,1.11,2.13.38.1.69.82.85,1.31,1,3,1.9,6.14,3,9.16,1.9,5.34,3.93,10.63,5.84,16C668.35,799.1,669.44,802.48,670.59,805.85Z"/><path class="cls-2" d="M628.69,762.62c2.9,13.11,5.7,25.8,8.52,38.49.34,1.48.06,1.9-1.62,1.84-4.63-.17-9.28-.13-13.93,0-1.6,0-2-.44-1.72-1.95q4.09-18.69,8.16-37.4C628.14,763.37,628.32,763.2,628.69,762.62Z"/><path class="cls-7" d="M671.55,807.32l-.95-1Z"/><path class="cls-7" d="M711.18,827.87H690.47c-2.48,0-2.47,0-2.79-2.53a4.48,4.48,0,0,0-.4-1l-.55,0v6.08c0,1.46.07,2.93-.05,4.38,0,.49-.6.92-.93,1.38,0-11.17-.09-22.33,0-33.5.05-4.25.6-8.49.92-12.79.49.12.75.13.77.2.66,2.54.66,2.55,3.37,2.55H708c3.62,0,3.2-.31,3.21,3.34,0,6.52,0,13,0,19.56,0,2.34.4,4.68.42,7A52.81,52.81,0,0,1,711.18,827.87Z"/><path class="cls-6" d="M781.14,817.1c.17.82.33,1.63.5,2.44a1,1,0,0,0-.18.09s0,.08,0,.13l.21-.22c5.48-.47,11-1,16.43-1.41,3.16-.25,6.32-.35,9.47-.55,3-.18,6-.32,9-.62,1.78-.18,2.63.29,2.66,2,.07,4.53.1,9.06.13,13.58,0,1.6,0,3.2-.07,4.8,0,1.26-1,1.25-1.93,1.31-2.18.13-4.36.35-6.54.45-4.21.21-8.43.28-12.65.53-7.11.43-14.21,1-21.32,1.43-2.67.18-5.33.36-8,.49-3.65.19-7.3.28-10.94.54-1.77.12-2.19-.57-2.18-2.23.06-11.82,0-23.65,0-35.47.28-1.06.57-2.12.85-3.19l.57,0v7.54a35.91,35.91,0,0,1,3.8-.45c3.9-.06,7.8,0,11.7,0,5.08,0,5.07,0,5.11,5.08a23.42,23.42,0,0,0,.24,2.51l.56-.06c.05-.47.15-.94.16-1.4,0-2.44-.07-4.88,0-7.31a9.71,9.71,0,0,1,.82-2.53,22.85,22.85,0,0,0,.63,2.33,17.29,17.29,0,0,0,1,1.87q0,3.68,0,7.33Z"/><path class="cls-7" d="M781.13,808.79a17.29,17.29,0,0,1-1-1.87,22.85,22.85,0,0,1-.63-2.33,9.71,9.71,0,0,0-.82,2.53c-.11,2.43,0,4.87,0,7.31,0,.46-.11.93-.16,1.4l-.56.06a23.42,23.42,0,0,1-.24-2.51c0-5.08,0-5.08-5.11-5.08-3.9,0-7.8,0-11.7,0a35.91,35.91,0,0,0-3.8.45v-7.54l-.57,0c-.28,1.07-.57,2.13-.85,3.19a11.38,11.38,0,0,1-.46-2.28c0-5,0-9.93,0-14.9,0-6.39-.2-12.79,0-19.17.26-6.94.92-13.87,1.45-20.8,0-.47.52-.9.79-1.35.21.45.61.9.61,1.35,0,1.78,1.09,1.89,2.44,1.89,5.78,0,11.57,0,17.35,0,2.78,0,3.61,1.07,3,3.82,0,.24-.29.53-.21.68,1.51,2.92-1,6,.33,8.91a5.62,5.62,0,0,1,.09,2.18v25.66Q781.14,799.57,781.13,808.79Z"/><path class="cls-7" d="M791.91,812.21a9.18,9.18,0,0,1-.47-2q0-41.45,0-82.89a1.33,1.33,0,0,1,.49-1.17v86.1Z"/><path class="cls-7" d="M781.14,817.1v0Z"/><path class="cls-3" d="M340.38,791.43c0-5.2,0-10.41,0-15.62,0-1.22.18-1.49,1.62-1.41a16.25,16.25,0,0,1,7.58,2.19c3,1.77,4.11,4.7,5,7.75a26,26,0,0,1,0,12.67,12.43,12.43,0,0,1-5.3,7.87,40.54,40.54,0,0,1-7.21,3.37c-1.26.53-1.75,0-1.73-1.44C340.44,801.69,340.38,796.56,340.38,791.43Z"/><path class="cls-4" d="M333.52,812.19a.76.76,0,0,1,.16-.39,1.51,1.51,0,0,1,0,.3S333.57,812.16,333.52,812.19Z"/><path class="cls-3" d="M516,791.21c0-2.67.45-3.46,1.83-3.39s2.11,1,2.1,2.92c0,2.4-.59,3.16-2.92,3.06C514.84,793.72,516.67,791.85,516,791.21Z"/><path class="cls-3" d="M516,828.21c0-.24,0-.48,0-.73,0-1.09-.26-2.38,1.46-2.52A2.14,2.14,0,0,1,520,827.2a6,6,0,0,1-.88,3.3c-.36.54-1.58.67-2.4.64-.26,0-.54-1.1-.71-1.73A4.8,4.8,0,0,1,516,828.21Z"/><path class="cls-7" d="M781.63,819.54l-.21.22s0-.11,0-.13a1,1,0,0,1,.18-.09Z"/><path class="cls-10" d="M31.8,719.77c.31,1.43,1,2,2.09,1.79q2.1-.45,5.8-8.71c-.32-.86-.51-1.43-.58-1.72a14.2,14.2,0,0,1,.68-6.75,31.27,31.27,0,0,1,3.32-7.51q2.07-3.35,3.45-3.65,1.66-.36,2.54,3.64a16.4,16.4,0,0,1,0,6.8,30.62,30.62,0,0,1-2.66,7.42c.35.23.73.45,1.14.68a6.45,6.45,0,0,0,1.29.52,2.72,2.72,0,0,0,1.33,0c1-.23,2.21-1.36,3.46-3.4l.74,3.39c-1.95,3.15-3.84,4.93-5.69,5.33a6.51,6.51,0,0,1-2.64.15,13.4,13.4,0,0,1-2.68-.94q-6.48,12.46-11.06,13.45a3.44,3.44,0,0,1-3.08-.7,6,6,0,0,1-1.82-3.43c-.16-.76-.47-3.69-.91-8.79q-1.39,2.55-3.24,6c-1.23,2.3-2.25,4.08-3,5.33a17.76,17.76,0,0,1-2.31,3,4.88,4.88,0,0,1-2.47,1.43,5.13,5.13,0,0,1-3.42-.95,13.28,13.28,0,0,1-4-3.66A14,14,0,0,1,5.57,723a14.35,14.35,0,0,1-.26-5.34,36.93,36.93,0,0,1,2.51-7.3q1.93-4.41,3.56-7.32a29.34,29.34,0,0,1,3.06-4.61,5.41,5.41,0,0,1,2.55-2,7.19,7.19,0,0,1,1.81-.06,7.53,7.53,0,0,1,2.09.42c.63.22,1,.53,1.07.91a9.88,9.88,0,0,1-.6,4.93A37,37,0,0,1,18,709.93a101.33,101.33,0,0,1-5.68,8.59,18.31,18.31,0,0,0,.06,5.58,2.37,2.37,0,0,0,.68,1.18,1.23,1.23,0,0,0,1.11.38q2-.43,6.19-7.74T31,696.21c.15-.37.6-.63,1.33-.79a4.62,4.62,0,0,1,2.28.06,1.61,1.61,0,0,1,1.29,1.21,35.7,35.7,0,0,1-1.29,6.13c-.93,3.74-1.71,7.14-2.32,10.23S31.49,718.37,31.8,719.77Z"/><path class="cls-10" d="M76.33,704.18l.76,3.48a49.59,49.59,0,0,1-6.68,10.87c-2.23,2.61-4.29,4.11-6.17,4.52q-3.9.86-6.71-2.84a21.54,21.54,0,0,1-3.86-8.55,16.41,16.41,0,0,1-.39-3.64,13.87,13.87,0,0,1,.3-3c.19-.8.59-2.09,1.21-3.86q4.47-12,10.11-13.24c1.94-.42,3.07.11,3.39,1.61.23,1-.06,2.74-.84,5.18a21.42,21.42,0,0,1-2.36,5.36c-2.18,3.27-3.58,5.53-4.2,6.76a5.71,5.71,0,0,0-.48,3.85,3.75,3.75,0,0,0,1.91,2.59,5,5,0,0,0,3.59.41A9.85,9.85,0,0,0,70.49,711,63.71,63.71,0,0,0,76.33,704.18Zm-7.89-20.62a3.61,3.61,0,0,1-2.46-.41,2.94,2.94,0,0,1-1.57-2.06,8.07,8.07,0,0,1,1-5.11c1-2,2.16-3.17,3.59-3.48a3.44,3.44,0,0,1,2.58.36,3.35,3.35,0,0,1,1.51,2.35,7.7,7.7,0,0,1-1,4.95Q70.69,683.07,68.44,683.56Z"/><path class="cls-10" d="M87.26,675.87l2-.45A27.25,27.25,0,0,1,92.49,668a6.89,6.89,0,0,1,4.27-2.91q2.63-.57,2.88.63.12.57-1.38,3.54a43.07,43.07,0,0,0-2.17,4.92l3-.29,2-.19a77,77,0,0,1-4.57,11.84l-2.28.32-1.87.25-2.3.33q-1.68,4.71-2.7,8.36A41.36,41.36,0,0,0,86,701.38a16.24,16.24,0,0,0,.19,5.35c.48,2.2,1.59,3.1,3.34,2.72q1.82-.39,4.33-3c1.67-1.72,3.86-4.26,6.55-7.65l.7,3.2q-9.84,16.79-16,18.12a4.3,4.3,0,0,1-3.82-.92,6.93,6.93,0,0,1-2.25-4,15.36,15.36,0,0,1-.17-4.36q.21-2.6,1-7.92c-.36.48-.7.94-1,1.4L78,705.59l-.87,1.19c-.31.41-.61.84-.92,1.27l-.71-3.29q4.09-5.29,8.91-17.38c-.49.07-.94.14-1.36.22s-.91.17-1.48.3a17.36,17.36,0,0,0-4.12,1.29c-.36.18-.69.36-1,.54a2.6,2.6,0,0,1-.66.32c-.12,0-.21,0-.25-.24q-.35-1.57.93-5.15a17.75,17.75,0,0,1,2.12-4.61,7.6,7.6,0,0,1,3.05-2.49A28,28,0,0,1,87.26,675.87Z"/><path class="cls-10" d="M136,691.19l.66,3q-3.22,5.14-5.67,8.5a39.27,39.27,0,0,1-4.41,5.23,8,8,0,0,1-3.54,2.22q-3.72.81-4.67-3.58a19.13,19.13,0,0,1,.53-8.68,95.27,95.27,0,0,1,4.27-12.4,28.88,28.88,0,0,0-3.46,3.62,28.42,28.42,0,0,0-2.68,4c-.74,1.34-1.36,2.48-1.85,3.42q-2.34,4.15-4.41,8.43c-1.38,2.85-2.33,4.71-2.83,5.59a2.8,2.8,0,0,1-1.67,1.51q-3.72.81-5.72-8.35a28.37,28.37,0,0,1-.54-6.83c.08-2.55,1-6.09,2.78-10.65q5.64-14.31,9.84-23.55a137.6,137.6,0,0,1,7.24-14.17c2-3.28,3.48-5,4.38-5.12a7.47,7.47,0,0,1,2.84.08c.76.2,1.19.52,1.29,1a9.68,9.68,0,0,1-.79,4.29q-1,3.1-3.79,9.8-3,7.1-4.27,10t-3.87,8.28q-2.6,5.4-4.8,9.64t-5.1,9.28l1.25,5.73q4.85-8.51,8.53-14.05a74,74,0,0,1,6.43-8.57q2.74-3,4.27-3.35a3.49,3.49,0,0,1,3,1.11,5.36,5.36,0,0,1,1.85,2.52,2.43,2.43,0,0,1-.22,1.3q-2.53,4.85-4,8a36.07,36.07,0,0,0-2.08,5.5,8.53,8.53,0,0,0-.3,3.89,2,2,0,0,0,2.63,1.78C128.72,699.22,131.66,696.44,136,691.19Z"/><circle class="cls-5" cx="417.5" cy="398.6" r="299.1"/><path class="cls-11" d="M495.6,206.1l3.9-.9C498.2,205.4,496.9,205.8,495.6,206.1Z"/><path class="cls-11" d="M579.9,187l4.1-.9C582.7,186.4,581.3,186.7,579.9,187Z"/><path class="cls-11" d="M553.5,192.8c1.3-.3,2.7-.6,4.1-.9C556.2,192.2,554.8,192.5,553.5,192.8Z"/><path class="cls-11" d="M571.1,188.9l4-.9C573.7,188.3,572.4,188.6,571.1,188.9Z"/><path class="cls-11" d="M562.2,190.9l4.1-.9Z"/><path class="cls-11" d="M503.6,204.2l3.9-.9Z"/><path class="cls-11" d="M528,198.6l4.1-.9C530.7,198,529.3,198.3,528,198.6Z"/><path class="cls-11" d="M519.8,200.5l4-.9C522.5,199.8,521.1,200.2,519.8,200.5Z"/><path class="cls-11" d="M511.7,202.3l3.9-.9Z"/><path class="cls-11" d="M536.5,196.7l4-.9C539.1,196.1,537.8,196.4,536.5,196.7Z"/><path class="cls-11" d="M544.9,194.8l4.1-.9A27.13,27.13,0,0,0,544.9,194.8Z"/><path class="cls-12" d="M532.1,197.7c1.5-.3,2.9-.7,4.4-1C535,197,533.5,197.3,532.1,197.7Z"/><path class="cls-12" d="M549,193.8c1.5-.3,3-.7,4.5-1C552,193.2,550.5,193.5,549,193.8Z"/><path class="cls-12" d="M540.4,195.8c1.5-.3,3-.7,4.4-1C543.4,195.1,541.9,195.4,540.4,195.8Z"/><path class="cls-12" d="M566.3,190c1.6-.4,3.2-.7,4.8-1.1C569.5,189.3,567.9,189.6,566.3,190Z"/><path class="cls-12" d="M557.5,191.9c1.5-.3,3.1-.7,4.6-1C560.6,191.2,559.1,191.6,557.5,191.9Z"/><path class="cls-12" d="M523.8,199.5c1.4-.3,2.8-.6,4.2-1C526.6,198.9,525.2,199.2,523.8,199.5Z"/><path class="cls-12" d="M499.5,205.1l4.1-.9Z"/><path class="cls-12" d="M507.5,203.3c1.4-.3,2.8-.6,4.2-1C510.3,202.6,508.9,203,507.5,203.3Z"/><path class="cls-12" d="M515.6,201.4c1.4-.3,2.8-.6,4.2-1C518.4,200.8,517,201.1,515.6,201.4Z"/><path class="cls-12" d="M575.1,188c1.6-.4,3.2-.7,4.9-1.1C578.3,187.3,576.7,187.7,575.1,188Z"/><path class="cls-12" d="M495.6,206.1l-2.4.6a2.05,2.05,0,0,1-2.5-2.5L524.9,58.6l-35,148.9C491.9,206.9,493.8,206.5,495.6,206.1Z"/><path class="cls-12" d="M584,186.1c1.7-.4,3.3-.7,5-1.1C587.4,185.3,585.7,185.7,584,186.1Z"/><path class="cls-13" d="M618,178.7c-2.2.5-4.4.9-6.6,1.4-1.3.3-2.6.6-3.9.8-1.8.4-3.6.8-5.3,1.1l-4.1.9c-1.7.4-3.4.7-5.1,1.1l-4,.9c-1.7.4-3.4.7-5,1.1l-4.1.9c-1.6.4-3.2.7-4.9,1.1l-4,.9c-1.6.4-3.2.7-4.8,1.1l-4.1.9c-1.5.3-3.1.7-4.6,1l-4.1.9c-1.5.3-3,.7-4.5,1l-4.1.9c-1.5.3-3,.7-4.4,1l-4,.9c-1.5.3-2.9.7-4.4,1l-4.1.9c-1.4.3-2.8.6-4.2,1l-4,.9c-1.4.3-2.8.6-4.2,1l-3.9.9c-1.4.3-2.8.6-4.2,1l-3.9.9-4.1.9-3.9.9c-1.9.4-3.8.9-5.6,1.3l35-148.9-28,8.4S482.3,169.9,456,174.4c0,0-34.7,13.4.6-98l-24.1,3.9s-16.8,131.1-34.2,103.6c0,0-9,7.3,12.3-96.9L391,89.2l-5,20.2S359.7,76.9,330.5,120c0,0-29.1,33.6-37.5,86.8,0,0-13.4,23.5-11.2-12.9L314.9,28.2l-23-11.8L247.6,206.3s-12.9,53.8,20.2,42c0,0,12.9,2.8,37-28.6,0,0,7.8,38.1,41.5,6.2,0,0,23.5-15.7,30.8-36.4,0,0,2.1,32.3,17,26.3,0,0,12.5,1.1,24.3-22l.1.1.1.1a.1.1,0,0,1,.1.1l.2.2.1.1.2.2.2.2.3.3.2.2.3.3c.1.1.2.1.3.2s.3.2.4.3.2.2.3.2.3.3.5.4.2.2.3.2c.2.2.4.3.6.5s.2.1.2.2c.3.2.6.5.9.7.1.1.2.1.2.2a2.18,2.18,0,0,0,.8.5c.1.1.3.2.4.3a4.23,4.23,0,0,0,.7.5c.1.1.3.2.4.3a4.35,4.35,0,0,0,.7.4c.2.1.3.2.5.3s.5.3.7.4.3.2.5.3.5.3.7.4a2.19,2.19,0,0,1,.5.3c.2.1.5.3.7.4a2.19,2.19,0,0,1,.5.3c.3.1.5.3.8.4a2.19,2.19,0,0,1,.5.3c.3.1.6.3.9.4s.3.1.5.2a2.71,2.71,0,0,0,1.3,0h.1a7.34,7.34,0,0,0,1.4,1c.2,0,.3.1.5.1l1,.3c.2,0,.4.1.6.1s.6.1.9.2.4.1.6.1a2.77,2.77,0,0,0,.9.1c.2,0,.4.1.6.1h3a1.39,1.39,0,0,0,.9,0,1.27,1.27,0,0,0,.6-.1c.3,0,.6-.1.9-.1s.4-.1.6-.1l1.1-.3c.1,0,.4-.4.4-.4h.1s2.7,1.5,1.7,2.7l-8.1,10.5C230.2,270.6,145,307.7,114.2,324.2a60.82,60.82,0,0,0-27.6,29.9C60.2,417.5,195,391.3,195,391.3c14.2-2.9,28-6.4,41.2-10.3,5.7-1.7,11.3-3.4,16.8-5.2,1.8-.6,3.7-1.2,5.5-1.8,3.6-1.2,7.2-2.5,10.7-3.8l10.5-3.9c3.5-1.3,6.8-2.7,10.2-4.1,5.5-2.3,11-4.6,16.3-7,2.2-1,4.4-2,6.5-3s4.1-1.9,6.1-2.9c2.3-1.1,4.5-2.2,6.8-3.3,3-1.5,5.9-2.9,8.8-4.4,5.1-2.6,10-5.2,14.8-7.8,3.2-1.8,6.3-3.5,9.4-5.3,1.6-.9,3.3-1.9,4.9-2.8,4.3-2.5,8.4-5,12.3-7.4,2.8-1.7,5.5-3.4,8.2-5.1,1.8-1.1,3.5-2.3,5.2-3.4,3.6-2.4,7-4.7,10.3-6.9,2.5-1.7,4.9-3.4,7.2-5,1.5-1.1,3-2.1,4.4-3.2,2.9-2.1,5.7-4.2,8.2-6.1,1.1-.8,2.2-1.6,3.2-2.4.8-.6,1.7-1.3,2.4-1.9s1.3-1,1.9-1.5l2.7-2.1a17.41,17.41,0,0,0,1.4-1.2c1.3-1.1,2.6-2.1,3.7-3,1.3-1.1,2.5-2.1,3.5-3a26.38,26.38,0,0,1,11.9-5.7L620.7,236l9.5-59.9c-3.2.7-6.3,1.3-9.5,2Q619.5,178.4,618,178.7ZM412.5,282l-9.5,4.8c-117.4,59.4-201.3,89.5-249.4,89.5h0c-14,0-24.7-2.6-32-7.8a16.7,16.7,0,0,1-1.7-25.7c17.6-16.6,70-33.6,155.9-50.5,63.1-12.4,122.1-20.3,122.7-20.4l10.5-1.4C415.7,269.7,418.6,278.9,412.5,282Z"/><path class="cls-10" d="M628,165.2c-42.8,9.1-84.1,18.2-122.9,27.2L540.4,42.2,487,58.2l-1,7.1c0,.1-.8,5.4-2.2,13.6l-17.5,4.7c.4-1.2.8-2.5,1.2-3.8L473,62.4l-50.3,8.2-.5,3.9-39.9,4.6-2.8,11.4a39,39,0,0,0-16.6-3.9c-15.06,0-28.91,9.07-41.15,27l-.15.08c-3.8.1-8.4-.5-11.4-3.3l17.6-88.2L284.5,0l-20,85.9a31.74,31.74,0,0,1,1.4,5l.1.3.1.3c4.7,27.3-2.5,53.7-21,77.7l-8,34.5c-1.3,5.6-7.4,34.2,4.1,48.8a22.43,22.43,0,0,0,10,7.3c-79.9,25.1-121.4,43.8-141.9,54.7a72.47,72.47,0,0,0-32.7,35.4c-6.1,14.5-5.8,26.9.9,37,9.3,14,29.7,20.9,62.2,20.9,28.6,0,56.6-5.4,57.8-5.6h.1c131.1-27,223.1-98.8,248.2-120.2a15.07,15.07,0,0,1,6.6-3.2l178.5-33.2,13.3-83.8Zm-7.2,70.9L450.1,267.9a25.39,25.39,0,0,0-11.9,5.7c-1,.9-2.2,1.9-3.5,3-1.1.9-2.4,2-3.7,3-.5.4-.9.8-1.4,1.2l-2.7,2.1c-.6.5-1.2,1-1.9,1.5s-1.6,1.2-2.4,1.9c-1,.8-2.1,1.6-3.2,2.4-2.5,1.9-5.3,4-8.2,6.1-1.4,1-2.9,2.1-4.4,3.2-2.3,1.6-4.7,3.3-7.2,5-3.3,2.2-6.7,4.6-10.3,6.9-1.7,1.1-3.5,2.2-5.2,3.4-2.6,1.7-5.4,3.4-8.2,5.1-3.9,2.4-8.1,4.9-12.3,7.4-1.6.9-3.2,1.9-4.9,2.8-3.1,1.8-6.2,3.5-9.4,5.3-4.8,2.6-9.7,5.2-14.8,7.8-2.9,1.5-5.8,3-8.8,4.4-2.2,1.1-4.5,2.2-6.8,3.3-2,1-4.1,1.9-6.1,2.9-2.2,1-4.3,2-6.5,3-5.3,2.4-10.7,4.7-16.3,7-3.4,1.4-6.8,2.7-10.2,4.1s-6.9,2.6-10.5,3.9-7.1,2.6-10.7,3.8c-1.8.6-3.6,1.2-5.5,1.8-5.5,1.8-11.1,3.6-16.8,5.2-13.3,3.9-27,7.4-41.2,10.3,0,0-134.8,26.2-108.3-36.9a60.82,60.82,0,0,1,27.6-29.9c30.8-16.5,116-53.6,328.6-105.8l9.1-11.7a1.1,1.1,0,0,0-1.3-1.7,8.8,8.8,0,0,1-1.5.5c-.1,0-.3.1-.4.1l-1.1.3c-.2,0-.4.1-.6.1a2.77,2.77,0,0,1-.9.1,1.27,1.27,0,0,0-.6.1c-.3,0-.6,0-.9.6h-2.1a1.21,1.21,0,0,0-.9-.6,1.27,1.27,0,0,1-.6-.1c-.3,0-.6-.1-.9-.1s-.4-.1-.6-.1-.6-.1-.9-.2-.4-.1-.6-.1-.7-.2-1-.3-.3-.1-.5-.1a10.26,10.26,0,0,0-1.4-.4h-.1a7.54,7.54,0,0,0-1.3-.6c-.2-.1-.3-.1-.5-.2s-.6-.3-.9-.4a2.19,2.19,0,0,1-.5-.3c-.3-.1-.5-.3-.8-.4a2.19,2.19,0,0,1-.5-.3,4.35,4.35,0,0,1-.7-.4,2.19,2.19,0,0,1-.5-.3c-.2-.1-.5-.3-.7-.4s-.3-.2-.5-.3-.5-.3-.7-.4-.3-.2-.5-.3a4.35,4.35,0,0,0-.7-.4c-.1-.1-.3-.2-.4-.3s-.5-.3-.7-.5-.3-.2-.4-.3a3.51,3.51,0,0,0-.8-.5c-.1-.1-.2-.1-.2-.2-.3-.2-.6-.5-.9-.7-.1-.1-.2-.1-.2-.2-.2-.2-.4-.3-.6-.5s-.2-.2-.3-.2-.3-.3-.5-.4-.2-.2-.3-.2-.3-.2-.4-.3-.2-.2-.3-.2l-.3-.3c-.1-.1-.2-.1-.2-.2l-.3-.3-.2-.2c-.1-.1-.2-.1-.2-.2l-.1-.1-.2-.2a.1.1,0,0,1-.1-.1l-.1-.1-.1-.1c-11.8,23.2-24.3,22-24.3,22-14.9,6-17-26.3-17-26.3-7.3,20.7-30.8,36.4-30.8,36.4-33.6,31.9-41.5-6.2-41.5-6.2-24.1,31.4-37,28.6-37,28.6-33.1,11.8-20.2-42-20.2-42L291.9,16.5l23,11.8L281.8,194.1C279.6,230.5,293,207,293,207c8.4-53.2,37.5-86.8,37.5-86.8,29.1-43.1,55.5-10.6,55.5-10.6l5-20.2,19.6-2.2c-21.3,104.2-12.3,96.9-12.3,96.9,17.4,27.5,34.2-103.6,34.2-103.6l24.1-3.9c-35.3,111.5-.6,98-.6,98C482.3,170.1,496.9,67,496.9,67l28-8.4L490.7,204.2a2.05,2.05,0,0,0,2.5,2.5l2.4-.6,3.9-.9,4.1-.9,3.9-.9c1.4-.3,2.8-.6,4.2-1l3.9-.9c1.4-.3,2.8-.6,4.2-1l4-.9c1.4-.3,2.8-.6,4.2-1l4.1-.9c1.5-.3,2.9-.7,4.4-1l4-.9c1.5-.3,3-.7,4.4-1l4.1-.9c1.5-.3,3-.7,4.5-1,1.3-.3,2.7-.6,4.1-.9s3.1-.7,4.6-1l4.1-.9c1.6-.4,3.2-.7,4.8-1.1l4-.9c1.6-.4,3.2-.7,4.9-1.1l4.1-.9c1.7-.4,3.3-.7,5-1.1,1.3-.3,2.6-.6,4-.9,1.7-.4,3.4-.7,5.1-1.1l4.1-.9c1.8-.4,3.5-.8,5.3-1.1,1.3-.3,2.6-.6,3.9-.8,2.2-.5,4.4-.9,6.6-1.4.9-.2,1.8-.4,2.8-.6,3.1-.7,6.3-1.3,9.5-2Z"/><path class="cls-11" d="M419.9,195.3c-.1-.1-.2-.1-.2-.2C419.7,195.2,419.8,195.2,419.9,195.3Z"/><path class="cls-11" d="M269.2,370.1c-3.5,1.3-7.1,2.6-10.7,3.8C262.1,372.7,265.6,371.4,269.2,370.1Z"/><path class="cls-11" d="M421.2,196.4c-.1-.1-.2-.2-.3-.2C421,196.2,421.1,196.3,421.2,196.4Z"/><path class="cls-11" d="M420.5,195.8c-.1-.1-.2-.2-.3-.2C420.3,195.7,420.4,195.7,420.5,195.8Z"/><path class="cls-11" d="M447.7,206.2c-.2,0-.4.1-.6.1A1.27,1.27,0,0,1,447.7,206.2Z"/><path class="cls-11" d="M422.8,197.7c-.1-.1-.2-.1-.2-.2C422.6,197.6,422.7,197.6,422.8,197.7Z"/><path class="cls-11" d="M421.9,197c-.1-.1-.2-.2-.3-.2A.77.77,0,0,1,421.9,197Z"/><path class="cls-11" d="M449.2,205.8c-.1,0-.3.1-.4.1C448.9,205.9,449.1,205.8,449.2,205.8Z"/><path class="cls-11" d="M253,375.7c-5.5,1.8-11.1,3.6-16.8,5.2C241.9,379.3,247.5,377.6,253,375.7Z"/><path class="cls-11" d="M318.8,349.3c-2,1-4.1,1.9-6.1,2.9C314.7,351.2,316.7,350.3,318.8,349.3Z"/><path class="cls-11" d="M418.8,194.2Z"/><path class="cls-11" d="M418.5,194l-.1-.1Z"/><path class="cls-11" d="M289.8,362.1c-3.4,1.4-6.8,2.7-10.2,4.1C283.1,364.9,286.5,363.5,289.8,362.1Z"/><path class="cls-11" d="M419.4,194.9l-.2-.2C419.3,194.7,419.3,194.8,419.4,194.9Z"/><path class="cls-11" d="M419,194.5l-.1-.1Z"/><path class="cls-11" d="M306.1,355.2c-5.3,2.4-10.7,4.7-16.3,7C295.4,359.8,300.8,357.5,306.1,355.2Z"/><path class="cls-11" d="M423.9,198.5c-.1-.1-.2-.1-.2-.2Z"/><path class="cls-11" d="M433.8,204.2c-.2-.1-.3-.1-.5-.2A.76.76,0,0,0,433.8,204.2Z"/><path class="cls-11" d="M441.6,206.4a1.27,1.27,0,0,1-.6-.1A1.27,1.27,0,0,1,441.6,206.4Z"/><path class="cls-11" d="M432.4,203.6a2.19,2.19,0,0,1-.5-.3C432,203.5,432.2,203.5,432.4,203.6Z"/><path class="cls-11" d="M431.1,203a2.19,2.19,0,0,1-.5-.3A2.19,2.19,0,0,0,431.1,203Z"/><path class="cls-11" d="M435.2,205.2Z"/><path class="cls-11" d="M438.6,205.8c-.2,0-.4-.1-.6-.1C438.2,205.7,438.4,205.8,438.6,205.8Z"/><path class="cls-11" d="M437,205.4c-.2,0-.3-.1-.5-.1A4.33,4.33,0,0,1,437,205.4Z"/><path class="cls-11" d="M440.1,206.1c-.2,0-.4-.1-.6-.1A1.27,1.27,0,0,0,440.1,206.1Z"/><path class="cls-11" d="M325.5,346c-2.2,1.1-4.5,2.2-6.8,3.3C321,348.2,323.3,347.1,325.5,346Z"/><path class="cls-11" d="M426.2,200.1c-.1-.1-.3-.2-.4-.3A1.38,1.38,0,0,0,426.2,200.1Z"/><path class="cls-11" d="M446.2,206.4a1.27,1.27,0,0,0-.6.1A1.27,1.27,0,0,1,446.2,206.4Z"/><path class="cls-11" d="M425.1,199.4c-.1-.1-.3-.2-.4-.3A1.38,1.38,0,0,0,425.1,199.4Z"/><path class="cls-11" d="M444.7,206.2h0Z"/><path class="cls-11" d="M428.5,201.6c-.2-.1-.3-.2-.5-.3A2.19,2.19,0,0,1,428.5,201.6Z"/><path class="cls-11" d="M429.8,202.3a2.19,2.19,0,0,1-.5-.3A2.19,2.19,0,0,0,429.8,202.3Z"/><path class="cls-11" d="M427.3,200.9c-.2-.1-.3-.2-.5-.3A.85.85,0,0,1,427.3,200.9Z"/><path class="cls-11" d="M443.2,206.2h0Z"/><path class="cls-11" d="M411.1,294.6c-1.4,1-2.9,2.1-4.4,3.2C408.2,296.7,409.7,295.7,411.1,294.6Z"/><path class="cls-11" d="M399.5,302.8c-3.3,2.2-6.7,4.6-10.3,6.9C392.8,307.4,396.2,305.1,399.5,302.8Z"/><path class="cls-11" d="M607.5,181c1.3-.3,2.6-.6,3.9-.8C610.1,180.4,608.9,180.7,607.5,181Z"/><path class="cls-11" d="M618,178.7c.9-.2,1.8-.4,2.8-.6C619.9,178.3,619,178.5,618,178.7Z"/><path class="cls-11" d="M598.2,183l4.1-.9C600.9,182.4,599.5,182.7,598.2,183Z"/><path class="cls-11" d="M589.1,185c1.3-.3,2.6-.6,4-.9C591.7,184.4,590.4,184.7,589.1,185Z"/><path class="cls-11" d="M422.5,286.1c-1,.8-2.1,1.6-3.2,2.4C420.4,287.7,421.5,286.9,422.5,286.1Z"/><path class="cls-11" d="M358.6,328.5c-3.1,1.8-6.2,3.5-9.4,5.3C352.4,332,355.5,330.2,358.6,328.5Z"/><path class="cls-11" d="M349.2,333.8c-4.8,2.6-9.7,5.2-14.8,7.8C339.5,339,344.4,336.4,349.2,333.8Z"/><path class="cls-11" d="M431,279.5c-.5.4-.9.8-1.4,1.2A17.41,17.41,0,0,1,431,279.5Z"/><path class="cls-11" d="M375.8,318.3c-3.9,2.4-8.1,4.9-12.3,7.4C367.7,323.2,371.8,320.7,375.8,318.3Z"/><path class="cls-11" d="M383.9,313.1c-2.6,1.7-5.4,3.4-8.2,5.1C378.6,316.5,381.3,314.8,383.9,313.1Z"/><path class="cls-12" d="M442.5,206.5a2.77,2.77,0,0,1-.9-.1A2.77,2.77,0,0,1,442.5,206.5Z"/><path class="cls-12" d="M439.5,206c-.3-.1-.6-.1-.9-.2A2.92,2.92,0,0,0,439.5,206Z"/><path class="cls-12" d="M441,206.3c-.3,0-.6-.1-.9-.1A2.77,2.77,0,0,1,441,206.3Z"/><path class="cls-12" d="M434.7,276.5c-1.1.9-2.4,2-3.7,3C432.3,278.4,433.6,277.4,434.7,276.5Z"/><path class="cls-12" d="M448.8,205.9l-1.1.3Z"/><path class="cls-12" d="M389.2,309.8c-1.7,1.1-3.5,2.2-5.2,3.4C385.7,312,387.5,310.9,389.2,309.8Z"/><path class="cls-12" d="M363.5,325.7c-1.6.9-3.2,1.9-4.9,2.8C360.2,327.5,361.9,326.6,363.5,325.7Z"/><path class="cls-12" d="M334.4,341.6c-2.9,1.5-5.8,3-8.8,4.4C328.5,344.6,331.5,343.1,334.4,341.6Z"/><path class="cls-12" d="M406.7,297.8c-2.3,1.6-4.7,3.3-7.2,5C402,301.1,404.4,299.5,406.7,297.8Z"/><path class="cls-12" d="M429.5,280.7l-2.7,2.1C427.8,282.1,428.7,281.3,429.5,280.7Z"/><path class="cls-12" d="M312.6,352.2c-2.2,1-4.3,2-6.5,3C308.3,354.2,310.5,353.2,312.6,352.2Z"/><path class="cls-12" d="M444,206.2h0Z"/><path class="cls-12" d="M425,284.2c-.8.6-1.6,1.2-2.4,1.9C423.4,285.5,424.2,284.9,425,284.2Z"/><path class="cls-12" d="M447.1,206.3a2.77,2.77,0,0,1-.9.1C446.5,206.4,446.8,206.3,447.1,206.3Z"/><path class="cls-12" d="M445.6,206.4a2.77,2.77,0,0,0-.9.1A2.77,2.77,0,0,0,445.6,206.4Z"/><path class="cls-12" d="M419.3,288.6c-2.5,1.9-5.3,4-8.2,6.1C414,292.5,416.8,290.5,419.3,288.6Z"/><path class="cls-12" d="M418.6,194.1l-.1-.1Z"/><path class="cls-12" d="M611.5,180.1c2.2-.5,4.4-.9,6.6-1.4C615.8,179.2,613.6,179.7,611.5,180.1Z"/><path class="cls-12" d="M630.3,176.1c-3.2.7-6.3,1.3-9.5,2C623.9,177.5,627.1,176.8,630.3,176.1Z"/><path class="cls-12" d="M602.2,182.1c1.8-.4,3.5-.8,5.3-1.1C605.8,181.4,604,181.7,602.2,182.1Z"/><path class="cls-12" d="M438,205.7l-1-.3C437.4,205.5,437.7,205.6,438,205.7Z"/><path class="cls-12" d="M593,184.1c1.7-.4,3.4-.7,5.1-1.1C596.5,183.4,594.7,183.7,593,184.1Z"/><path class="cls-12" d="M429.2,202c-.2-.1-.5-.3-.7-.4A4.35,4.35,0,0,1,429.2,202Z"/><path class="cls-12" d="M428,201.3c-.2-.1-.5-.3-.7-.4A1.61,1.61,0,0,1,428,201.3Z"/><path class="cls-12" d="M430.5,202.7a4.35,4.35,0,0,1-.7-.4C430,202.4,430.3,202.6,430.5,202.7Z"/><path class="cls-12" d="M418.8,194.3l-.2-.2Z"/><path class="cls-12" d="M431.9,203.4c-.3-.1-.5-.3-.8-.4A5.9,5.9,0,0,1,431.9,203.4Z"/><path class="cls-12" d="M436.6,205.3c-.5-.2-1-.3-1.4-.5C435.6,205,436.1,205.1,436.6,205.3Z"/><path class="cls-12" d="M435.1,204.8c-.4-.2-.9-.3-1.3-.5A11.22,11.22,0,0,1,435.1,204.8Z"/><path class="cls-12" d="M425.7,199.8c-.2-.2-.5-.3-.7-.5C425.3,199.5,425.5,199.7,425.7,199.8Z"/><path class="cls-12" d="M433.3,204c-.3-.1-.6-.3-.9-.4A3.55,3.55,0,0,0,433.3,204Z"/><path class="cls-12" d="M426.8,200.5a4.35,4.35,0,0,0-.7-.4A5.74,5.74,0,0,0,426.8,200.5Z"/><path class="cls-12" d="M420.2,195.6l-.3-.3Z"/><path class="cls-12" d="M424.7,199.1a3.51,3.51,0,0,0-.8-.5A3.51,3.51,0,0,1,424.7,199.1Z"/><path class="cls-12" d="M420.9,196.2c-.1-.1-.3-.2-.4-.3A.54.54,0,0,1,420.9,196.2Z"/><path class="cls-12" d="M419.2,194.7c-.1-.1-.2-.1-.2-.2Z"/><path class="cls-12" d="M419.7,195.1l-.3-.3Z"/><path class="cls-12" d="M423.7,198.4c-.3-.2-.6-.5-.9-.7A5.5,5.5,0,0,1,423.7,198.4Z"/><path class="cls-12" d="M422.6,197.5c-.2-.2-.4-.3-.6-.5C422.1,197.2,422.3,197.3,422.6,197.5Z"/><path class="cls-12" d="M421.7,196.8c-.2-.1-.3-.3-.5-.4A2.18,2.18,0,0,0,421.7,196.8Z"/><path class="cls-11" d="M204.9,87c-2.3-4.7-6.5-8.1-11.4-10.6l13.1,29C208.1,96.4,206.7,90.6,204.9,87Z"/><path class="cls-11" d="M206.2,107.5l-2.5,3.9a92.44,92.44,0,0,0-13,32.1C199.9,128.1,204.4,116.3,206.2,107.5Z"/><path class="cls-13" d="M254.7,93.4S236,12,147.1,35.9c0,0-106.1,34.7-41.1,151.6l18.3-26.1s-40.1-64.1,15.8-97A39.17,39.17,0,0,1,159.8,59c28.7,0,103.5,9.5,20.9,118.8,0,0-11.6-32.9,13.4-72.5l-8.6-19S152.3,127.4,141.4,201c0,0-6.3,65.4-61.6,76.9v18.7s76.2,3,93.4-85.5C173.3,211.1,267.7,169.2,254.7,93.4Z"/><path class="cls-11" d="M302.3,240c-2.2,2.3-4.3,4.4-6.4,6.2,3.2-.9,6.4-1.9,9.7-2.8C304.5,242.4,303.4,241.2,302.3,240Z"/><path class="cls-11" d="M373.1,216.9a111.84,111.84,0,0,1-11,10.9c5.4-1.4,10.8-2.9,16.4-4.3A29.82,29.82,0,0,1,373.1,216.9Z"/><path class="cls-11" d="M419.2,213l4.7-1.2c-.9-.5-1.7-1-2.6-1.5A19.36,19.36,0,0,1,419.2,213Z"/><path class="cls-10" d="M265.8,91.5l-.1-.3-.1-.3c-.1-.2-.5-2.1-1.4-5l-19.4,83.4C263.3,145.3,270.5,118.8,265.8,91.5Z"/><ellipse class="cls-10" cx="344.71" cy="166.63" rx="41.8" ry="20.9" transform="translate(56.02 418.12) rotate(-66.86)"/><path class="cls-14" d="M420.2,628c-64.9,0-115.8-21.1-118.9-22.4-17.3-6.6-29-17.1-34.8-31.2-10.3-25,1.8-51.9,2.3-53.1l1.2-2.6H377.2l-.8,5.1a.6.6,0,0,1-.1.4,25.85,25.85,0,0,0,15.1,27.3c12.2,5.5,23.5,8.3,33.9,8.3,34.3,0,47.3-30.8,47.4-31.1l.1-.3.2-.3c2.7-4.6,3.2-8.6,1.4-12.2-6.1-12.6-35.9-19.2-46.9-20.6l-5.7-.8,19.9-50.9,3.8.8a47.66,47.66,0,0,0,10.5,1.2h0c28.3,0,46-26.9,48-30,5.1-13.7-13.2-23.1-16.5-24.7a86,86,0,0,0-13.2-1.1,62.67,62.67,0,0,0-54.7,31l-1.4,2.7-108-8.3,4.6-6.5c31.8-44.9,68.8-57.4,73-58.8a246.47,246.47,0,0,1,103.5-22.8A266.2,266.2,0,0,1,598,349.8,63.36,63.36,0,0,1,634,391c4,14.5,2.1,27.8-5.6,39.3-17.6,26.6-60.7,36.3-74.8,38.8l.4,2.9c28.2,8.5,44.8,21.6,49.3,38.8,7,26.8-18.4,52.7-19.5,53.8C541,606.7,485.9,628,420.2,628Z"/><path class="cls-14" d="M318.6,411.2l97.1,7.5s18.1-35.5,62.7-33.3a36.49,36.49,0,0,1,23,9.5c5.8,5.3,10.6,13.1,6.7,22.7,0,0-23.7,40.1-63.5,31.2l-16.4,42s61.2,5.7,48.7,39.6c0,0-25.8,62.7-102,17.6,0,0-6-4.9-3-24.8h-99s-26,57,30.1,78.2c0,0,165.1,70.2,277.9-40,0,0,59.8-60.1-30.6-85.9l-1.5-10.1s97.5-13.2,81.1-73.2a59.22,59.22,0,0,0-33.5-38.3c-35.5-15.7-116.7-41.3-206.7.2C389.6,354,351.1,365.2,318.6,411.2Z"/><path class="cls-10" d="M409,270.6,398.5,272c-.6.1-59.6,8-122.7,20.4-86,16.9-138.4,33.9-156,50.5a16.92,16.92,0,0,0-5.2,13.3,16.58,16.58,0,0,0,6.9,12.4c7.3,5.2,18,7.8,32,7.8h0c48.1,0,132.1-30.1,249.5-89.6l9.5-4.8C418.6,278.9,415.7,269.7,409,270.6Zm-59.7,31.2c-111.5,53.5-164.7,63.5-190.1,61.4a13.9,13.9,0,0,1-8.5-3.7c28.3-12.4,134.9-57.6,202-62.8A5.8,5.8,0,0,1,349.3,301.8Z"/><path class="cls-10" d="M265,86.7l.3-1.1a107.35,107.35,0,0,0-15.47-30.1C232.59,32.3,208,20,178.53,20a130.41,130.41,0,0,0-33.86,4.8l-.3.1-.3.1c-1.91.6-46.93,15.7-63.91,58.9-9,22.8-8.34,48.7,1.8,77.2,3.72,13.5,9.75,27.6,17.89,42.2l8.74,15.7,24.92-35.5c-1,5-1.91,10.2-2.71,15.5v.6c-.1.6-6.13,57.3-53.06,67.1l-8.94,1.9v28.1l.1,10.7,2.9.1V318l11.2.2h1.38c8.54,0,82.9-2.5,102.79-89.1a205.74,205.74,0,0,0,43.51-29.8,145.06,145.06,0,0,0,18.39-19.7l19.5-83.4C267.76,93.7,266.56,90.5,265,86.7ZM173.8,211.1c-15,77.4-75.1,84.8-90,85.5v-8c55.3-11.6,61.6-76.9,61.6-76.9C156.2,138.1,189.5,97,189.5,97l4.4,9.8c-23.9,39-12.6,71.1-12.6,71.1l1.1-1.4a54.54,54.54,0,0,0,2.3,12.1c37.9-50.3,42.7-79.4,33.9-96.3-4.2-29.5-40.2-33.2-58.1-33.2a37.93,37.93,0,0,0-19.7,5.4c-37.9,22.4-31.6,59.1-23.7,80.4a113.92,113.92,0,0,0,6.6,18.5l-17,24.3a204.37,204.37,0,0,1-13.6-29.6c-23.1-84.8,58-111.4,58-111.4,69.4-18.7,96,26.9,104.3,47.8C267.5,169.6,173.8,211.1,173.8,211.1Zm32.8-105.7-7.8-17.3a24.6,24.6,0,0,1,8.4,7.6A49.65,49.65,0,0,1,206.6,105.4ZM115.1,301.3a92.44,92.44,0,0,1-10.4,3.2C108,303.6,111.5,302.6,115.1,301.3Zm21.1-137.2,1.7-2.4-3.9-6.3a91.72,91.72,0,0,1-6.7-14.2c-2.3-9.4-3.3-20.3-.2-30.5,3.9-12.5,13.6-22.5,29-29.7,1.6-.1,4.2-.2,7.4-.2a113.11,113.11,0,0,1,11.9.6c-5.9,8-25.7,37.1-38,84.6A7.57,7.57,0,0,1,136.2,164.1Zm110.1-1.2,12.5-53.8C261.1,129.7,255.5,147.7,246.3,162.9Z"/></g></g></svg>