<svg width="122" height="123" viewBox="0 0 122 123" fill="none" xmlns="http://www.w3.org/2000/svg">
<path d="M79.9927 0.239979C80.4041 0.0966706 80.8441 0.081497 81.2758 0.078125C85.9931 0.0932988 90.7105 0.0680094 95.4279 0.0916132C96.947 0.100043 98.2553 1.49772 98.1946 3.01005C98.198 25.034 98.198 47.058 98.1946 69.082C98.2637 70.6567 96.8525 72.0746 95.2795 72.0156C90.5031 72.019 85.7267 72.0207 80.952 72.0156C79.3908 72.0662 77.9931 70.6567 78.0572 69.0972C78.0538 47.0631 78.0538 25.0307 78.0572 2.99825C78.0218 1.78602 78.8446 0.621011 79.9927 0.239979Z" fill="#0174EE"/>
<path d="M54.6797 20.2499C59.5556 20.1875 64.4365 20.2415 69.314 20.2229C70.8719 20.1336 72.3134 21.4908 72.2932 23.0554C72.305 38.064 72.2915 53.0709 72.2982 68.0779C72.2915 68.8349 72.3724 69.6323 72.0352 70.3371C71.5699 71.3807 70.4453 72.0618 69.3056 72.0163C64.5292 72.0129 59.7528 72.0247 54.9765 72.0112C53.449 72.0264 52.1069 70.6389 52.1558 69.1147C52.1558 53.7639 52.1507 38.4113 52.1592 23.0604C52.144 21.6661 53.2905 20.3831 54.6797 20.2499Z" fill="#0174EE"/>
<path d="M28.7035 38.9681C33.3552 38.8805 38.0135 38.9614 42.6668 38.9294C43.3665 38.931 44.105 38.8805 44.7507 39.2076C45.7977 39.6813 46.4603 40.821 46.4047 41.9641C46.3996 51.0094 46.408 60.0547 46.4013 69.1C46.4266 70.1875 45.7792 71.2496 44.7996 71.7217C44.1471 72.0657 43.3884 72.0269 42.6736 72.0252C38.1214 72.0117 33.5693 72.0387 29.0188 72.0117C27.5065 71.9965 26.2049 70.6073 26.2639 69.1017C26.2589 60.3936 26.2639 51.6855 26.2606 42.9774C26.2639 42.4092 26.2268 41.8343 26.3179 41.2695C26.5134 40.0994 27.5284 39.1266 28.7035 38.9681Z" fill="#0174EE"/>
<path d="M0.9858 112.871L8.46766 91.4067H13.3738L20.7943 112.871H16.9001L10.9207 94.841H10.8901L4.84938 112.871H0.9858ZM4.48142 107.29L5.49331 104.377H16.0415L17.0227 107.29H4.48142ZM23.3612 112.871V97.6621H26.5808L26.8875 100.207H26.9181C27.4088 99.3077 28.0936 98.6024 28.9726 98.0914C29.8516 97.5599 30.8942 97.2941 32.1003 97.2941C33.3472 97.2941 34.4102 97.5599 35.2892 98.0914C36.1683 98.6024 36.8429 99.3792 37.313 100.422C37.7832 101.444 38.0183 102.711 38.0183 104.224V112.871H34.3693V104.592C34.3693 103.243 34.0831 102.21 33.5108 101.495C32.9588 100.759 32.1003 100.391 30.935 100.391C30.1991 100.391 29.5348 100.575 28.9419 100.943C28.3491 101.311 27.8789 101.843 27.5314 102.538C27.2043 103.212 27.0408 104.04 27.0408 105.021V112.871H23.3612ZM46.667 113.239C45.4201 113.239 44.3775 113.035 43.5394 112.626C42.7217 112.196 42.1186 111.634 41.7302 110.939C41.3418 110.224 41.1476 109.447 41.1476 108.609C41.1476 107.648 41.3929 106.82 41.8835 106.125C42.3946 105.41 43.1407 104.858 44.122 104.469C45.1032 104.06 46.3195 103.856 47.7709 103.856H51.6652C51.6652 103.038 51.5425 102.374 51.2972 101.863C51.0723 101.331 50.7146 100.933 50.224 100.667C49.7538 100.401 49.161 100.268 48.4455 100.268C47.5869 100.268 46.851 100.473 46.2377 100.882C45.6245 101.27 45.2463 101.863 45.1032 102.66H41.4849C41.6076 101.556 41.9755 100.606 42.5888 99.8085C43.2225 99.0113 44.0504 98.398 45.0725 97.9687C46.0946 97.519 47.219 97.2941 48.4455 97.2941C49.8969 97.2941 51.1337 97.5496 52.1558 98.0607C53.1983 98.5513 53.9854 99.2566 54.5168 100.176C55.0688 101.096 55.3448 102.21 55.3448 103.519V112.871H52.2478L51.8798 110.418H51.8185C51.5732 110.847 51.2768 111.236 50.9292 111.583C50.5817 111.931 50.1933 112.227 49.764 112.472C49.3552 112.718 48.885 112.902 48.3535 113.024C47.8425 113.168 47.2803 113.239 46.667 113.239ZM47.6176 110.326C48.2104 110.326 48.7419 110.224 49.2121 110.019C49.7027 109.795 50.1115 109.488 50.4386 109.099C50.7657 108.711 51.0212 108.272 51.2052 107.781C51.3892 107.29 51.5016 106.779 51.5425 106.248V106.217H48.1389C47.4029 106.217 46.7999 106.309 46.3297 106.493C45.88 106.677 45.5427 106.933 45.3178 107.26C45.1134 107.566 45.0112 107.924 45.0112 108.333C45.0112 108.762 45.1134 109.13 45.3178 109.437C45.5427 109.723 45.8493 109.948 46.2377 110.111C46.6261 110.254 47.0861 110.326 47.6176 110.326ZM58.9242 112.871V91.0388H62.6038V112.871H58.9242ZM68.5633 119.372L72.2429 111.154H71.3537L65.1597 97.6621H69.1766L73.7761 107.996H73.8374L78.1609 97.6621H82.0552L72.4576 119.372H68.5633ZM89.9889 113.239C88.6806 113.239 87.5153 113.024 86.4932 112.595C85.4711 112.145 84.6534 111.532 84.0402 110.755C83.4473 109.979 83.0896 109.079 82.9669 108.057H86.6465C86.7692 108.466 86.9634 108.854 87.2292 109.222C87.4949 109.59 87.8526 109.887 88.3024 110.111C88.7725 110.316 89.3245 110.418 89.9582 110.418C90.551 110.418 91.0416 110.336 91.43 110.173C91.8184 109.989 92.1046 109.754 92.2886 109.467C92.4726 109.181 92.5646 108.885 92.5646 108.578C92.5646 108.128 92.4317 107.781 92.166 107.536C91.9002 107.27 91.5118 107.055 91.0007 106.892C90.4897 106.728 89.8866 106.565 89.1916 106.401C88.5579 106.238 87.9037 106.054 87.2292 105.849C86.5546 105.645 85.9413 105.389 85.3893 105.083C84.8374 104.756 84.3877 104.347 84.0402 103.856C83.7131 103.345 83.5495 102.722 83.5495 101.986C83.5495 101.107 83.7846 100.309 84.2548 99.5939C84.725 98.8784 85.4098 98.3162 86.3093 97.9074C87.2087 97.4985 88.2921 97.2941 89.5596 97.2941C91.3176 97.2941 92.7281 97.7132 93.7911 98.5513C94.8746 99.369 95.5083 100.524 95.6922 102.016H92.1966C92.0944 101.423 91.8082 100.963 91.338 100.636C90.8883 100.309 90.2853 100.146 89.5289 100.146C88.7521 100.146 88.1593 100.299 87.7504 100.606C87.3416 100.912 87.1372 101.291 87.1372 101.74C87.1372 102.067 87.2598 102.343 87.5051 102.568C87.7709 102.793 88.1491 102.987 88.6397 103.151C89.1507 103.314 89.7435 103.488 90.4181 103.672C91.4811 103.917 92.4521 104.204 93.3312 104.531C94.2102 104.837 94.9154 105.277 95.4469 105.849C95.9784 106.422 96.2442 107.239 96.2442 108.302C96.2646 109.243 96.0193 110.091 95.5083 110.847C94.9972 111.583 94.2715 112.166 93.3312 112.595C92.3908 113.024 91.2767 113.239 89.9889 113.239ZM99.7405 112.871V97.6621H103.42V112.871H99.7405ZM101.58 95.2397C100.906 95.2397 100.344 95.0352 99.8938 94.6264C99.4645 94.1971 99.2499 93.6758 99.2499 93.0626C99.2499 92.4288 99.4645 91.9076 99.8938 91.4987C100.344 91.0899 100.906 90.8855 101.58 90.8855C102.255 90.8855 102.807 91.0899 103.236 91.4987C103.686 91.9076 103.911 92.4288 103.911 93.0626C103.911 93.6758 103.686 94.1971 103.236 94.6264C102.807 95.0352 102.255 95.2397 101.58 95.2397ZM113.692 113.239C112.384 113.239 111.219 113.024 110.197 112.595C109.175 112.145 108.357 111.532 107.744 110.755C107.151 109.979 106.793 109.079 106.67 108.057H110.35C110.473 108.466 110.667 108.854 110.933 109.222C111.198 109.59 111.556 109.887 112.006 110.111C112.476 110.316 113.028 110.418 113.662 110.418C114.255 110.418 114.745 110.336 115.134 110.173C115.522 109.989 115.808 109.754 115.992 109.467C116.176 109.181 116.268 108.885 116.268 108.578C116.268 108.128 116.135 107.781 115.869 107.536C115.604 107.27 115.215 107.055 114.704 106.892C114.193 106.728 113.59 106.565 112.895 106.401C112.261 106.238 111.607 106.054 110.933 105.849C110.258 105.645 109.645 105.389 109.093 105.083C108.541 104.756 108.091 104.347 107.744 103.856C107.417 103.345 107.253 102.722 107.253 101.986C107.253 101.107 107.488 100.309 107.958 99.5939C108.428 98.8784 109.113 98.3162 110.013 97.9074C110.912 97.4985 111.996 97.2941 113.263 97.2941C115.021 97.2941 116.432 97.7132 117.495 98.5513C118.578 99.369 119.212 100.524 119.396 102.016H115.9C115.798 101.423 115.512 100.963 115.042 100.636C114.592 100.309 113.989 100.146 113.232 100.146C112.456 100.146 111.863 100.299 111.454 100.606C111.045 100.912 110.841 101.291 110.841 101.74C110.841 102.067 110.963 102.343 111.209 102.568C111.474 102.793 111.853 102.987 112.343 103.151C112.854 103.314 113.447 103.488 114.122 103.672C115.185 103.917 116.156 104.204 117.035 104.531C117.914 104.837 118.619 105.277 119.15 105.849C119.682 106.422 119.948 107.239 119.948 108.302C119.968 109.243 119.723 110.091 119.212 110.847C118.701 111.583 117.975 112.166 117.035 112.595C116.094 113.024 114.98 113.239 113.692 113.239Z" fill="#0174EE"/>
</svg>
