<svg width="123" height="121" viewBox="0 0 123 121" fill="none" xmlns="http://www.w3.org/2000/svg">
<path d="M12.1561 110.598C10.0301 110.598 8.19035 110.138 6.63674 109.219C5.08312 108.278 3.88725 106.98 3.04912 105.324C2.21099 103.648 1.79192 101.716 1.79192 99.529C1.79192 97.3212 2.21099 95.3894 3.04912 93.7336C3.88725 92.0573 5.08312 90.749 6.63674 89.8087C8.19035 88.8683 10.0301 88.3982 12.1561 88.3982C14.7319 88.3982 16.8272 89.0319 18.4421 90.2993C20.0775 91.5463 21.0996 93.3145 21.5085 95.604H17.4609C17.1952 94.398 16.6126 93.4474 15.7131 92.7523C14.8341 92.0573 13.6484 91.7098 12.1561 91.7098C10.7865 91.7098 9.60086 92.0267 8.59919 92.6604C7.61796 93.2941 6.8616 94.1935 6.3301 95.3587C5.7986 96.5239 5.53285 97.914 5.53285 99.529C5.53285 101.123 5.7986 102.503 6.3301 103.669C6.8616 104.834 7.61796 105.733 8.59919 106.367C9.60086 106.98 10.7865 107.287 12.1561 107.287C13.6484 107.287 14.8341 106.96 15.7131 106.306C16.6126 105.651 17.2054 104.762 17.4916 103.638H21.5085C21.0996 105.805 20.0775 107.512 18.4421 108.759C16.8272 109.985 14.7319 110.598 12.1561 110.598ZM24.8695 110.23V88.3982H28.5491V97.4745H28.5797C29.1112 96.5751 29.8165 95.88 30.6955 95.3894C31.5745 94.8988 32.5762 94.6535 33.7005 94.6535C34.927 94.6535 35.9696 94.9192 36.8282 95.4507C37.7072 95.9618 38.3716 96.7386 38.8213 97.7811C39.2915 98.8033 39.5265 100.071 39.5265 101.583V110.23H35.8776V101.951C35.8776 100.602 35.6016 99.5698 35.0497 98.8544C34.5182 98.1184 33.6801 97.7505 32.5353 97.7505C31.7789 97.7505 31.0941 97.9345 30.4809 98.3024C29.888 98.6704 29.4179 99.2019 29.0703 99.8969C28.7228 100.572 28.5491 101.399 28.5491 102.381V110.23H24.8695ZM50.3816 110.598C48.8484 110.598 47.489 110.271 46.3034 109.617C45.1382 108.943 44.2183 108.023 43.5437 106.857C42.8895 105.672 42.5625 104.292 42.5625 102.718C42.5625 101.123 42.8895 99.7232 43.5437 98.5171C44.1978 97.311 45.1075 96.3706 46.2727 95.696C47.4584 95.001 48.828 94.6535 50.3816 94.6535C51.8943 94.6535 53.2129 94.9908 54.3372 95.6654C55.4615 96.3195 56.3405 97.1985 56.9742 98.3024C57.608 99.4063 57.9248 100.653 57.9248 102.043C57.9248 102.248 57.9146 102.473 57.8941 102.718C57.8941 102.963 57.8839 103.229 57.8635 103.515H45.1995V101.154H54.2145C54.1532 100.05 53.7648 99.1814 53.0493 98.5477C52.3339 97.914 51.4446 97.5972 50.3816 97.5972C49.6253 97.5972 48.92 97.7709 48.2658 98.1184C47.6321 98.4455 47.1211 98.9464 46.7327 99.6209C46.3647 100.296 46.1807 101.154 46.1807 102.197V103.086C46.1807 104.026 46.3647 104.834 46.7327 105.508C47.1006 106.183 47.6015 106.704 48.2352 107.072C48.8689 107.42 49.5741 107.593 50.351 107.593C51.1891 107.593 51.8943 107.399 52.4667 107.011C53.0391 106.622 53.4684 106.111 53.7546 105.478H57.4649C57.1991 106.459 56.7289 107.338 56.0543 108.115C55.4002 108.871 54.5927 109.474 53.6319 109.924C52.6711 110.374 51.5877 110.598 50.3816 110.598ZM68.3884 110.598C66.8348 110.598 65.4652 110.261 64.2795 109.587C63.0939 108.912 62.1638 107.982 61.4892 106.796C60.835 105.59 60.508 104.2 60.508 102.626C60.508 101.052 60.8453 99.672 61.5198 98.4864C62.1944 97.3007 63.1246 96.3706 64.3102 95.696C65.4959 95.001 66.8553 94.6535 68.3884 94.6535C70.31 94.6535 71.9249 95.1543 73.2333 96.156C74.5416 97.1577 75.3797 98.5273 75.7476 100.265H71.8841C71.6796 99.4676 71.2606 98.8544 70.6269 98.4251C69.9932 97.9753 69.2368 97.7505 68.3578 97.7505C67.6219 97.7505 66.937 97.9447 66.3033 98.3331C65.6901 98.701 65.1892 99.253 64.8008 99.9889C64.4329 100.704 64.2489 101.583 64.2489 102.626C64.2489 103.403 64.3511 104.088 64.5555 104.68C64.7804 105.273 65.0768 105.784 65.4448 106.214C65.8332 106.622 66.2727 106.939 66.7633 107.164C67.2539 107.369 67.7854 107.471 68.3578 107.471C68.9506 107.471 69.4821 107.379 69.9523 107.195C70.4224 106.99 70.8211 106.704 71.1481 106.336C71.4957 105.968 71.741 105.519 71.8841 104.987H75.7476C75.3797 106.684 74.5416 108.043 73.2333 109.065C71.9249 110.087 70.31 110.598 68.3884 110.598ZM89.0615 110.23L82.1929 101.859L88.2949 95.0214H92.6798L85.0753 103.362V100.51L93.661 110.23H89.0615ZM79.0653 110.23V88.3982H82.7449V110.23H79.0653ZM102.122 110.598C100.589 110.598 99.2294 110.271 98.0438 109.617C96.8785 108.943 95.9586 108.023 95.284 106.857C94.6299 105.672 94.3028 104.292 94.3028 102.718C94.3028 101.123 94.6299 99.7232 95.284 98.5171C95.9382 97.311 96.8479 96.3706 98.0131 95.696C99.1987 95.001 100.568 94.6535 102.122 94.6535C103.635 94.6535 104.953 94.9908 106.078 95.6654C107.202 96.3195 108.081 97.1985 108.715 98.3024C109.348 99.4063 109.665 100.653 109.665 102.043C109.665 102.248 109.655 102.473 109.635 102.718C109.635 102.963 109.624 103.229 109.604 103.515H96.9399V101.154H105.955C105.894 100.05 105.505 99.1814 104.79 98.5477C104.074 97.914 103.185 97.5972 102.122 97.5972C101.366 97.5972 100.66 97.7709 100.006 98.1184C99.3725 98.4455 98.8614 98.9464 98.473 99.6209C98.1051 100.296 97.9211 101.154 97.9211 102.197V103.086C97.9211 104.026 98.1051 104.834 98.473 105.508C98.841 106.183 99.3418 106.704 99.9755 107.072C100.609 107.42 101.315 107.593 102.091 107.593C102.929 107.593 103.635 107.399 104.207 107.011C104.779 106.622 105.209 106.111 105.495 105.478H109.205C108.939 106.459 108.469 107.338 107.795 108.115C107.141 108.871 106.333 109.474 105.372 109.924C104.412 110.374 103.328 110.598 102.122 110.598ZM112.739 110.23V95.0214H115.989L116.296 98.0878H116.357C116.766 97.2496 117.236 96.5853 117.768 96.0947C118.299 95.5836 118.912 95.2156 119.608 94.9908C120.303 94.7659 121.09 94.6535 121.969 94.6535V98.5171H120.957C120.282 98.5171 119.659 98.5988 119.086 98.7624C118.534 98.9259 118.054 99.1917 117.645 99.5596C117.257 99.9071 116.95 100.377 116.725 100.97C116.521 101.543 116.419 102.258 116.419 103.117V110.23H112.739Z" fill="#0174EE"/>
<path d="M33.4775 48.5998H92.4947L96.8413 30.8592C96.8735 30.8592 96.9379 30.8592 97.0023 30.8592C101.478 30.8592 105.148 27.1888 105.148 22.6812C105.148 18.2058 101.51 14.5353 97.0023 14.5353C92.4947 14.5353 88.8565 18.238 88.8565 22.6812C88.8565 23.9047 89.1141 25.0959 89.597 26.1263L80.2599 32.8554C79.294 33.5316 78.6178 33.3062 78.1027 32.5335L66.9947 16.113C69.4417 14.6963 71.1159 12.0239 71.1159 8.99742C71.1159 4.52203 67.4454 0.851562 62.97 0.851562C58.4303 0.851562 54.792 4.52203 54.792 8.99742C54.792 12.0239 56.4662 14.6963 58.9132 16.113L47.8052 32.5335C47.2901 33.274 46.7105 33.4994 45.7768 32.8232L36.3109 25.9975C36.7616 24.9994 37.0192 23.8725 37.0192 22.6812C37.0192 18.238 33.3488 14.5353 28.8734 14.5353C24.3658 14.5353 20.6953 18.2058 20.6953 22.6812C20.6953 27.1888 24.3658 30.8592 28.8734 30.8592C28.9378 30.8592 29.0343 30.8592 29.0987 30.8592L33.4775 48.5998ZM34.701 53.7191L35.7635 58.0013C37.0836 63.3138 39.9813 66.0184 45.5192 66.0184H80.4208C85.9587 66.0184 88.8565 63.3782 90.1444 58.0013L91.2069 53.7191H34.701Z" fill="#0174EE"/>
</svg>
