<svg width="81" height="81" viewBox="0 0 81 81" fill="none" xmlns="http://www.w3.org/2000/svg">
<path d="M36.1125 8.86548C35.1635 6.84772 33.6599 5.14168 31.7773 3.94671C29.8948 2.75174 27.711 2.11719 25.4813 2.11719C23.2515 2.11719 21.0677 2.75174 19.1852 3.94671C17.3026 5.14168 15.799 6.84772 14.85 8.86548H5.0625C3.71984 8.86548 2.43217 9.39885 1.48277 10.3483C0.533369 11.2977 0 12.5853 0 13.928H0C0 15.2706 0.533369 16.5583 1.48277 17.5077C2.43217 18.4571 3.71984 18.9905 5.0625 18.9905H14.8331C15.7821 21.0082 17.2857 22.7143 19.1683 23.9092C21.0508 25.1042 23.2346 25.7388 25.4644 25.7388C27.6942 25.7388 29.8779 25.1042 31.7605 23.9092C33.643 22.7143 35.1466 21.0082 36.0956 18.9905H75.9375C77.2802 18.9905 78.5678 18.4571 79.5172 17.5077C80.4666 16.5583 81 15.2706 81 13.928C81 12.5853 80.4666 11.2977 79.5172 10.3483C78.5678 9.39885 77.2802 8.86548 75.9375 8.86548H36.1125Z" fill="white"/>
<path d="M55.5356 28.6836C53.306 28.6876 51.1233 29.3239 49.2409 30.5187C47.3585 31.7135 45.8536 33.4178 44.901 35.4336H5.0625C3.71984 35.4336 2.43217 35.967 1.48277 36.9164C0.533369 37.8658 0 39.1534 0 40.4961H0C0 41.8388 0.533369 43.1264 1.48277 44.0758C2.43217 45.0252 3.71984 45.5586 5.0625 45.5586H44.8875C45.8365 47.5764 47.3401 49.2824 49.2227 50.4774C51.1052 51.6723 53.289 52.3069 55.5188 52.3069C57.7485 52.3069 59.9323 51.6723 61.8148 50.4774C63.6974 49.2824 65.201 47.5764 66.15 45.5586H75.9375C77.2802 45.5586 78.5678 45.0252 79.5172 44.0758C80.4666 43.1264 81 41.8388 81 40.4961C81 39.1534 80.4666 37.8658 79.5172 36.9164C78.5678 35.967 77.2802 35.4336 75.9375 35.4336H66.1669C65.2145 33.4183 63.7101 31.7144 61.8284 30.5196C59.9466 29.3248 57.7646 28.6882 55.5356 28.6836V28.6836Z" fill="white"/>
<path d="M25.4644 55.2617C23.2354 55.2663 21.0534 55.903 19.1716 57.0977C17.2899 58.2925 15.7855 59.9964 14.8331 62.0117H5.0625C3.71984 62.0117 2.43217 62.5451 1.48277 63.4945C0.533369 64.4439 0 65.7315 0 67.0742H0C0 68.4169 0.533369 69.7045 1.48277 70.6539C2.43217 71.6033 3.71984 72.1367 5.0625 72.1367H14.8331C15.7821 74.1544 17.2857 75.8605 19.1683 77.0554C21.0508 78.2504 23.2346 78.885 25.4644 78.885C27.6942 78.885 29.8779 78.2504 31.7605 77.0554C33.643 75.8605 35.1466 74.1544 36.0956 72.1367H75.9375C77.2802 72.1367 78.5678 71.6033 79.5172 70.6539C80.4666 69.7045 81 68.4169 81 67.0742C81 65.7315 80.4666 64.4439 79.5172 63.4945C78.5678 62.5451 77.2802 62.0117 75.9375 62.0117H36.1125C35.1589 59.9938 33.6519 58.2882 31.7669 57.0932C29.8818 55.8983 27.6963 55.2631 25.4644 55.2617V55.2617Z" fill="white"/>
</svg>
