<svg width="85" height="109" viewBox="0 0 85 109" fill="none" xmlns="http://www.w3.org/2000/svg">
<path d="M39.6685 1.97944C41.3662 0.637313 43.8844 0.348372 45.9466 1.09239C46.8775 1.42323 47.6317 2.04012 48.3843 2.62089C52.1364 5.48863 55.8822 8.36503 59.6389 11.2299C59.6389 8.37081 59.6421 5.51319 59.6374 2.65412C59.6437 2.20626 59.661 1.71073 59.9987 1.35389C60.3332 0.953703 60.9012 0.816456 61.4298 0.82079C64.4292 0.813567 67.4287 0.82368 70.4281 0.816456C70.9409 0.819346 71.5105 0.838127 71.9128 1.17185C72.3515 1.48969 72.4745 2.02278 72.4682 2.51109C72.4714 8.67564 72.4682 14.8416 72.4698 21.0062C76.0609 23.7453 79.6583 26.4773 83.251 29.2135C83.6471 29.4909 83.9248 29.8882 83.9974 30.3462V30.4473C83.9816 30.9284 83.7244 31.3618 83.382 31.7143C82.4337 32.7285 81.5186 33.7701 80.5609 34.7785C79.9708 35.4272 78.8174 35.4879 78.1515 34.9028C66.6334 26.1147 55.1248 17.3193 43.6051 8.53262C32.117 17.2976 20.632 26.067 9.14866 34.8363C8.69267 35.1802 8.07258 35.4287 7.47932 35.2582C7.03753 35.1556 6.70145 34.8551 6.41745 34.5431C5.53387 33.5693 4.6424 32.5999 3.75251 31.6291C3.44641 31.304 3.23656 30.901 3.21289 30.469V30.3563C3.27916 29.8926 3.56159 29.4909 3.96236 29.2107C15.8654 20.1336 27.7622 11.0522 39.6685 1.97944Z" fill="#0174EE"/>
<path d="M14.9443 33.5036C24.4942 26.4115 34.0472 19.3236 43.6018 12.2344C51.8585 18.3583 60.1106 24.4866 68.3658 30.6105C69.7061 31.6241 71.0891 32.5965 72.4043 33.6342C72.4941 34.0899 72.4342 34.5569 72.45 35.0183C72.4516 41.5922 72.4484 48.1662 72.4516 54.7387C72.4453 55.3051 72.4894 55.89 72.2718 56.4323C71.8224 57.5821 70.5261 58.4395 69.1558 58.3927C62.7756 58.3998 56.3953 58.3941 50.0151 58.3955C50.0041 52.625 50.0277 46.8531 50.0025 41.0826C45.729 41.1025 41.454 41.0613 37.1821 41.1039C37.2026 46.8659 37.1837 52.6293 37.1916 58.3927C31.0274 58.4012 24.8616 58.3912 18.6974 58.3969C18.1108 58.3941 17.51 58.4168 16.947 58.2422C15.6745 57.839 14.7236 56.6906 14.7583 55.4627C14.7456 48.3621 14.7598 41.26 14.752 34.1594C14.7788 33.938 14.6936 33.6413 14.9443 33.5036Z" fill="#0174EE"/>
<path d="M15.1616 99.6914V79.4953H19.0566V99.6914H15.1616ZM2.43809 99.6914V79.4953H6.33306V99.6914H2.43809ZM5.78488 90.9494V87.8045H15.8252V90.9494H5.78488ZM30.1606 100.038C28.7758 100.038 27.5255 99.7203 26.4099 99.0855C25.3136 98.4316 24.4384 97.5372 23.7844 96.4023C23.1497 95.2483 22.8323 93.9307 22.8323 92.4497C22.8323 90.9301 23.1497 89.603 23.7844 88.4681C24.4384 87.3141 25.3232 86.4197 26.4388 85.7849C27.5544 85.131 28.8046 84.804 30.1895 84.804C31.5936 84.804 32.8438 85.131 33.9402 85.7849C35.0558 86.4197 35.931 87.3141 36.5657 88.4681C37.2197 89.603 37.5467 90.9205 37.5467 92.4208C37.5467 93.9211 37.2197 95.2483 36.5657 96.4023C35.931 97.5372 35.0558 98.4316 33.9402 99.0855C32.8246 99.7203 31.5648 100.038 30.1606 100.038ZM30.1606 96.662C30.8146 96.662 31.3916 96.5081 31.8917 96.2004C32.4111 95.8926 32.815 95.4214 33.1035 94.7866C33.4113 94.1519 33.5651 93.3633 33.5651 92.4208C33.5651 91.4783 33.4113 90.6993 33.1035 90.0838C32.815 89.4491 32.4111 88.9778 31.8917 88.6701C31.3916 88.3431 30.8242 88.1796 30.1895 88.1796C29.574 88.1796 29.0066 88.3431 28.4872 88.6701C27.9679 88.9778 27.5544 89.4491 27.2466 90.0838C26.9581 90.6993 26.8139 91.4783 26.8139 92.4208C26.8139 93.3633 26.9581 94.1519 27.2466 94.7866C27.5544 95.4214 27.9583 95.8926 28.4584 96.2004C28.9777 96.5081 29.5451 96.662 30.1606 96.662ZM41.2498 99.6914V85.1502H44.6831L45.0005 87.0833C45.4621 86.3908 46.068 85.8426 46.8182 85.4387C47.5875 85.0156 48.4627 84.804 49.4437 84.804C50.1746 84.804 50.8285 84.9002 51.4056 85.0925C51.9826 85.2848 52.4923 85.5637 52.9347 85.9292C53.3963 86.2946 53.7714 86.7563 54.0599 87.3141C54.5985 86.5255 55.3005 85.91 56.1661 85.4676C57.0316 85.0252 57.9741 84.804 58.9935 84.804C60.263 84.804 61.3209 85.0636 62.1672 85.583C63.0135 86.0831 63.6483 86.814 64.0714 87.7757C64.5138 88.7374 64.735 89.9203 64.735 91.3244V99.6914H60.8689V91.6707C60.8689 90.5166 60.6381 89.6318 60.1764 89.0163C59.7341 88.4008 59.0416 88.0931 58.0991 88.0931C57.4836 88.0931 56.9354 88.2469 56.4546 88.5547C55.9737 88.8624 55.5987 89.3048 55.3294 89.8819C55.0793 90.4589 54.9543 91.1513 54.9543 91.9592V99.6914H51.0593V91.6707C51.0593 90.5166 50.8285 89.6318 50.3669 89.0163C49.9053 88.4008 49.1936 88.0931 48.2319 88.0931C47.6356 88.0931 47.0971 88.2469 46.6162 88.5547C46.1546 88.8624 45.7891 89.3048 45.5198 89.8819C45.2698 90.4589 45.1448 91.1513 45.1448 91.9592V99.6914H41.2498ZM75.7392 100.038C74.2774 100.038 72.979 99.7299 71.8442 99.1144C70.7286 98.4796 69.8534 97.6045 69.2187 96.4889C68.6032 95.354 68.2955 94.0461 68.2955 92.5651C68.2955 91.0455 68.6032 89.7088 69.2187 88.5547C69.8534 87.3814 70.7286 86.4678 71.8442 85.8138C72.9598 85.1406 74.2581 84.804 75.7392 84.804C77.1817 84.804 78.4416 85.1214 79.5187 85.7561C80.5959 86.3908 81.4325 87.2468 82.0288 88.3239C82.6251 89.401 82.9232 90.6224 82.9232 91.988C82.9232 92.1804 82.9232 92.4016 82.9232 92.6516C82.9232 92.8824 82.904 93.1229 82.8655 93.3729H71.0652V91.0071H78.9994C78.9417 90.0646 78.6051 89.3241 77.9896 88.7855C77.3933 88.2469 76.6432 87.9777 75.7392 87.9777C75.0852 87.9777 74.4793 88.1315 73.9215 88.4393C73.3637 88.7278 72.9213 89.1798 72.5943 89.7953C72.2866 90.4108 72.1327 91.1898 72.1327 92.1323V92.969C72.1327 93.7576 72.277 94.45 72.5655 95.0463C72.8732 95.6233 73.2964 96.0753 73.835 96.4023C74.3735 96.7101 74.9986 96.8639 75.7103 96.8639C76.422 96.8639 77.0086 96.7101 77.4703 96.4023C77.9511 96.0946 78.307 95.7003 78.5378 95.2194H82.5193C82.25 96.1234 81.798 96.9409 81.1633 97.6718C80.5285 98.4027 79.7495 98.9797 78.8263 99.4029C77.903 99.826 76.874 100.038 75.7392 100.038Z" fill="#0174EE"/>
</svg>
