<svg width="156" height="123" viewBox="0 0 156 123" fill="none" xmlns="http://www.w3.org/2000/svg">
<path d="M2.46175 112.844V91.3794H7.09192L13.8072 105.638H13.8379L20.4918 91.3794H25.122V112.844H21.4424V97.4507H21.381L15.463 109.777H12.09L6.20268 97.4507H6.14135V112.844H2.46175ZM31.1143 119.344L34.7939 111.127H33.9046L27.7106 97.6347H31.7275L36.327 107.968H36.3884L40.7119 97.6347H44.6061L35.0085 119.344H31.1143ZM63.8239 113.212C61.8615 113.212 60.1341 112.752 58.6418 111.832C57.1495 110.912 55.9843 109.634 55.1462 107.999C54.3285 106.343 53.9197 104.411 53.9197 102.204C53.9197 100.016 54.349 98.0844 55.2075 96.4082C56.0661 94.7115 57.2926 93.393 58.8871 92.4526C60.5021 91.4918 62.4032 91.0114 64.5905 91.0114C67.0845 91.0114 69.1594 91.6145 70.8152 92.8206C72.471 94.0062 73.534 95.662 74.0042 97.788H69.8646C69.5784 96.725 68.9856 95.8971 68.0861 95.3043C67.1867 94.7115 66.0215 94.4151 64.5905 94.4151C63.1391 94.4151 61.8921 94.7319 60.8496 95.3656C59.8275 95.9789 59.0404 96.8784 58.4885 98.064C57.9366 99.2292 57.6606 100.619 57.6606 102.234C57.6606 103.849 57.9366 105.239 58.4885 106.404C59.0404 107.57 59.8173 108.459 60.8189 109.072C61.8206 109.665 62.996 109.961 64.3452 109.961C66.3486 109.961 67.8613 109.399 68.8834 108.275C69.9055 107.151 70.5085 105.689 70.6925 103.89H65.1425V101.1H74.4028V112.844H71.0298L70.7232 109.501H70.6925C70.2019 110.299 69.6295 110.973 68.9754 111.525C68.3417 112.077 67.5955 112.496 66.737 112.782C65.8988 113.069 64.9278 113.212 63.8239 113.212ZM83.1646 113.212C81.9176 113.212 80.8751 113.007 80.0369 112.598C79.2193 112.169 78.6162 111.607 78.2278 110.912C77.8394 110.196 77.6452 109.42 77.6452 108.582C77.6452 107.621 77.8905 106.793 78.3811 106.098C78.8922 105.382 79.6383 104.83 80.6196 104.442C81.6008 104.033 82.8171 103.829 84.2685 103.829H88.1627C88.1627 103.011 88.0401 102.347 87.7948 101.836C87.5699 101.304 87.2122 100.905 86.7216 100.64C86.2514 100.374 85.6586 100.241 84.9431 100.241C84.0845 100.241 83.3486 100.446 82.7353 100.854C82.1221 101.243 81.7439 101.836 81.6008 102.633H77.9825C78.1052 101.529 78.4731 100.578 79.0864 99.7812C79.7201 98.9839 80.548 98.3706 81.5701 97.9414C82.5922 97.4916 83.7166 97.2668 84.9431 97.2668C86.3945 97.2668 87.6312 97.5223 88.6534 98.0333C89.6959 98.524 90.4829 99.2292 91.0144 100.149C91.5664 101.069 91.8423 102.183 91.8423 103.491V112.844H88.7453L88.3774 110.391H88.3161C88.0708 110.82 87.7743 111.208 87.4268 111.556C87.0793 111.903 86.6909 112.2 86.2616 112.445C85.8528 112.69 85.3826 112.874 84.8511 112.997C84.34 113.14 83.7779 113.212 83.1646 113.212ZM84.1152 110.299C84.708 110.299 85.2395 110.196 85.7097 109.992C86.2003 109.767 86.6091 109.461 86.9362 109.072C87.2633 108.684 87.5188 108.244 87.7028 107.754C87.8868 107.263 87.9992 106.752 88.0401 106.22V106.19H84.6365C83.9005 106.19 83.2975 106.282 82.8273 106.466C82.3776 106.65 82.0403 106.905 81.8154 107.232C81.611 107.539 81.5088 107.897 81.5088 108.306C81.5088 108.735 81.611 109.103 81.8154 109.409C82.0403 109.696 82.3469 109.921 82.7353 110.084C83.1237 110.227 83.5837 110.299 84.1152 110.299ZM95.3605 112.844V97.6347H98.6108L98.9174 99.9038H98.9788C99.4489 99.0657 100.093 98.4217 100.911 97.972C101.749 97.5018 102.699 97.2668 103.762 97.2668C104.539 97.2668 105.244 97.369 105.878 97.5734C106.512 97.7778 107.074 98.0947 107.565 98.524C108.055 98.9532 108.454 99.495 108.76 100.149H108.822C109.374 99.2292 110.099 98.524 110.999 98.0333C111.898 97.5223 112.941 97.2668 114.126 97.2668C115.353 97.2668 116.406 97.5325 117.285 98.064C118.184 98.5751 118.869 99.3519 119.339 100.394C119.83 101.417 120.075 102.684 120.075 104.197V112.844H116.426V104.565C116.426 103.215 116.16 102.183 115.629 101.468C115.097 100.732 114.28 100.364 113.176 100.364C112.46 100.364 111.827 100.538 111.275 100.885C110.743 101.233 110.324 101.733 110.018 102.388C109.711 103.042 109.558 103.849 109.558 104.81V112.844H105.878V104.565C105.878 103.215 105.612 102.183 105.081 101.468C104.57 100.732 103.762 100.364 102.658 100.364C101.984 100.364 101.371 100.548 100.819 100.916C100.267 101.284 99.8271 101.815 99.5 102.51C99.1934 103.185 99.0401 104.013 99.0401 104.994V112.844H95.3605ZM130.936 113.212C129.402 113.212 128.043 112.885 126.857 112.23C125.692 111.556 124.772 110.636 124.098 109.471C123.443 108.285 123.116 106.905 123.116 105.331C123.116 103.737 123.443 102.336 124.098 101.13C124.752 99.9243 125.661 98.9839 126.827 98.3093C128.012 97.6143 129.382 97.2668 130.936 97.2668C132.448 97.2668 133.767 97.6041 134.891 98.2787C136.015 98.9328 136.894 99.8118 137.528 100.916C138.162 102.02 138.479 103.267 138.479 104.657C138.479 104.861 138.468 105.086 138.448 105.331C138.448 105.577 138.438 105.842 138.417 106.128H125.753V103.767H134.768C134.707 102.664 134.319 101.795 133.603 101.161C132.888 100.527 131.998 100.21 130.936 100.21C130.179 100.21 129.474 100.384 128.82 100.732C128.186 101.059 127.675 101.56 127.287 102.234C126.919 102.909 126.735 103.767 126.735 104.81V105.699C126.735 106.64 126.919 107.447 127.287 108.122C127.655 108.796 128.155 109.317 128.789 109.685C129.423 110.033 130.128 110.207 130.905 110.207C131.743 110.207 132.448 110.012 133.021 109.624C133.593 109.236 134.022 108.725 134.308 108.091H138.019C137.753 109.072 137.283 109.951 136.608 110.728C135.954 111.484 135.147 112.087 134.186 112.537C133.225 112.987 132.142 113.212 130.936 113.212ZM147.777 113.212C146.469 113.212 145.304 112.997 144.281 112.568C143.259 112.118 142.442 111.505 141.828 110.728C141.236 109.951 140.878 109.052 140.755 108.03H144.435C144.557 108.438 144.752 108.827 145.017 109.195C145.283 109.563 145.641 109.859 146.091 110.084C146.561 110.288 147.113 110.391 147.746 110.391C148.339 110.391 148.83 110.309 149.218 110.145C149.607 109.961 149.893 109.726 150.077 109.44C150.261 109.154 150.353 108.858 150.353 108.551C150.353 108.101 150.22 107.754 149.954 107.508C149.688 107.243 149.3 107.028 148.789 106.864C148.278 106.701 147.675 106.537 146.98 106.374C146.346 106.21 145.692 106.026 145.017 105.822C144.343 105.617 143.73 105.362 143.178 105.055C142.626 104.728 142.176 104.319 141.828 103.829C141.501 103.318 141.338 102.694 141.338 101.958C141.338 101.079 141.573 100.282 142.043 99.5665C142.513 98.851 143.198 98.2889 144.098 97.88C144.997 97.4712 146.08 97.2668 147.348 97.2668C149.106 97.2668 150.516 97.6858 151.579 98.524C152.663 99.3416 153.297 100.497 153.481 101.989H149.985C149.883 101.396 149.596 100.936 149.126 100.609C148.677 100.282 148.074 100.118 147.317 100.118C146.54 100.118 145.948 100.272 145.539 100.578C145.13 100.885 144.925 101.263 144.925 101.713C144.925 102.04 145.048 102.316 145.293 102.541C145.559 102.766 145.937 102.96 146.428 103.123C146.939 103.287 147.532 103.461 148.206 103.645C149.269 103.89 150.24 104.176 151.119 104.503C151.998 104.81 152.704 105.249 153.235 105.822C153.767 106.394 154.032 107.212 154.032 108.275C154.053 109.215 153.808 110.064 153.297 110.82C152.785 111.556 152.06 112.138 151.119 112.568C150.179 112.997 149.065 113.212 147.777 113.212Z" fill="#0174EE"/>
<g clip-path="url(#clip0_472_4236)">
<path d="M47.4776 0.0820312H111.803C112.735 0.208491 113.647 0.583654 114.323 1.24967C115.06 1.93115 115.482 2.88943 115.631 3.873V21.5408C115.509 22.4401 115.156 23.3196 114.532 23.9913C113.72 24.9046 112.495 25.4062 111.276 25.3739C90.3389 25.3753 69.4015 25.3711 48.4654 25.3767C47.5802 25.4076 46.6627 25.3037 45.8828 24.854C44.6674 24.2063 43.8665 22.9375 43.6895 21.5857V3.90532C43.8215 2.91051 44.2515 1.94239 44.9934 1.25389C45.6622 0.594894 46.5587 0.221137 47.4776 0.0820312ZM53.0193 6.03405C52.6582 6.32351 52.4952 6.79421 52.5149 7.24806C52.5149 10.6681 52.5163 14.0881 52.5149 17.5081C52.5177 17.8833 52.491 18.2627 52.5514 18.6364C52.6723 19.2744 53.2891 19.7577 53.9355 19.7394C55.2549 19.7689 56.5757 19.7493 57.8951 19.7366C58.5723 19.7366 59.1863 19.1704 59.2482 18.4973C59.3493 17.7681 58.7775 17.0206 58.0398 16.9531C57.1363 16.8997 56.23 16.9601 55.3265 16.9419C55.3251 13.7087 55.3265 10.4756 55.3251 7.24244C55.342 6.80546 55.1916 6.35582 54.8572 6.06356C54.3626 5.60128 53.528 5.58583 53.0193 6.03405ZM65.1159 5.80362C62.3689 6.23779 60.0196 8.46067 59.4379 11.181C59.0135 13.0315 59.3831 15.0492 60.4481 16.6215C61.5919 18.3456 63.5295 19.5231 65.5936 19.7127C67.5242 19.9151 69.5209 19.2617 70.9611 17.9606C72.5095 16.592 73.399 14.5125 73.3006 12.4469C73.2318 10.269 72.0627 8.16981 70.2656 6.94456C68.7846 5.9104 66.8933 5.50152 65.1159 5.80362ZM73.6055 7.95905C74.273 8.82038 75.4757 8.42133 76.4045 8.51406C76.4073 11.7908 76.3975 15.0675 76.4087 18.3442C76.368 19.2758 77.4091 20.0148 78.2747 19.6692C78.8775 19.4711 79.2583 18.8374 79.2147 18.2135C79.2161 14.9804 79.2133 11.7472 79.2147 8.51406C79.9187 8.48315 80.6353 8.58151 81.3322 8.44802C82.0572 8.24709 82.5083 7.40262 82.2638 6.68743C82.0783 6.05935 81.4249 5.64765 80.78 5.70245C78.7159 5.71228 76.649 5.68278 74.5863 5.7165C73.5254 5.75444 72.9212 7.15392 73.6055 7.95905ZM84.0244 7.95483C84.6904 8.81897 85.896 8.42273 86.8262 8.51406C86.8318 11.795 86.8191 15.0773 86.8318 18.3582C86.8163 19.1057 87.4894 19.7689 88.2355 19.7493C88.9788 19.7647 89.6476 19.1015 89.6307 18.3568C89.6462 15.0759 89.6336 11.795 89.6378 8.51406C90.5778 8.41992 91.7974 8.826 92.4691 7.94921C93.1393 7.13987 92.5351 5.75725 91.4813 5.7165C89.316 5.69542 87.1479 5.6898 84.9841 5.71931C83.9387 5.77692 83.3527 7.15533 84.0244 7.95483ZM98.5602 5.81345C95.9706 6.24341 93.7336 8.25833 93.0311 10.7875C92.4339 12.8291 92.833 15.1321 94.0962 16.8449C95.2736 18.4777 97.1776 19.5666 99.1869 19.7212C101.314 19.9179 103.499 19.0622 104.937 17.4842C106.222 16.1044 106.909 14.1893 106.786 12.3064C106.686 10.4334 105.782 8.62928 104.36 7.41106C102.798 6.03967 100.603 5.4425 98.5602 5.81345Z" fill="#0174EE"/>
<path d="M65.7667 8.55185C67.8814 8.23851 70.0382 9.79818 70.4148 11.8988C70.9192 14.0866 69.3427 16.4598 67.1367 16.8574C64.8449 17.4026 62.372 15.642 62.1148 13.3081C61.7397 11.0642 63.5101 8.77807 65.7667 8.55185Z" fill="#0174EE"/>
<path d="M98.9726 8.59678C100.972 8.16401 103.143 9.42719 103.765 11.3733C104.468 13.2912 103.511 15.604 101.679 16.4907C99.9548 17.4068 97.6504 16.8897 96.4702 15.3385C95.5526 14.1961 95.3081 12.562 95.8547 11.2004C96.3606 9.87823 97.5788 8.85953 98.9726 8.59678Z" fill="#0174EE"/>
<path d="M48.0457 29.5859C69.1223 29.5859 90.1989 29.5859 111.275 29.5859C111.275 33.8954 111.275 38.2034 111.275 42.5129C106.355 42.5157 101.435 42.5073 96.5162 42.5157C95.3977 42.4946 94.3959 43.4923 94.4184 44.6107C94.4114 48.8302 94.4114 53.0526 94.4184 57.2721C94.3959 58.3892 95.3921 59.3868 96.5092 59.3699C101.431 59.3812 106.353 59.3699 111.275 59.3742C111.273 62.8897 111.281 66.4053 111.271 69.9195C111.288 70.9536 110.456 71.8445 109.457 72.0201H90.1989C90.1989 63.2129 90.1975 54.4071 90.2003 45.6013C90.1876 44.9395 90.2846 44.2257 89.9417 43.6243C89.5694 42.9049 88.7586 42.4736 87.9549 42.5115C82.3752 42.5171 76.7942 42.5073 71.2145 42.5171C70.0974 42.4988 69.1012 43.4993 69.1251 44.6163C69.1181 53.7509 69.1251 62.8855 69.1223 72.0201H49.8934C48.879 71.8655 48.0289 70.9592 48.0485 69.9166C48.0415 66.4025 48.0471 62.8883 48.0457 59.3742C52.9172 59.3742 57.7873 59.3727 62.6574 59.3756C63.4597 59.4121 64.2719 58.9863 64.6456 58.2683C64.9463 57.7527 64.9112 57.1372 64.9098 56.5625C64.9 52.5791 64.9154 48.5942 64.9028 44.6107C64.9224 43.4965 63.9304 42.4988 62.8148 42.5171C57.8927 42.5073 52.9692 42.5171 48.0457 42.5129C48.0457 38.2034 48.0457 33.8954 48.0457 29.5859ZM70.8365 34.1216C69.7644 34.3071 68.9635 35.4143 69.1462 36.4906C69.2783 37.4939 70.2098 38.306 71.2229 38.2948C76.797 38.3032 82.371 38.2934 87.9451 38.299C88.5408 38.3201 89.1493 38.1079 89.5722 37.6807C90.1961 37.0723 90.3829 36.0663 89.9881 35.285C89.6565 34.5684 88.8921 34.0851 88.1024 34.0851C82.7574 34.0781 77.4124 34.0851 72.0674 34.0823C71.6571 34.0865 71.2426 34.057 70.8365 34.1216Z" fill="#0174EE"/>
<path d="M48.0449 46.7266C52.2602 46.7266 56.4755 46.7266 60.6909 46.7266C60.6909 49.5368 60.6909 52.347 60.6909 55.1572C56.4755 55.1572 52.2602 55.1572 48.0449 55.1572C48.0449 52.347 48.0449 49.5368 48.0449 46.7266Z" fill="#0174EE"/>
<path d="M73.3359 46.7266C77.5513 46.7266 81.7666 46.7266 85.9819 46.7266C85.9819 55.1572 85.9819 63.5878 85.9819 72.0184H73.3359C73.3359 63.5878 73.3359 55.1572 73.3359 46.7266Z" fill="#0174EE"/>
<path d="M98.6309 46.7266C102.846 46.7266 107.061 46.7266 111.277 46.7266C111.277 49.5368 111.277 52.347 111.277 55.1572C107.061 55.1572 102.846 55.1572 98.6309 55.1572C98.6309 52.347 98.6309 49.5368 98.6309 46.7266Z" fill="#0174EE"/>
</g>
<defs>
<clipPath id="clip0_472_4236">
<rect width="71.9413" height="71.9413" fill="white" transform="translate(43.6914 0.078125)"/>
</clipPath>
</defs>
</svg>
