<svg width="138" height="120" viewBox="0 0 138 120" fill="none" xmlns="http://www.w3.org/2000/svg">
<path d="M12.2842 109.86C10.1786 109.86 8.31839 109.4 6.70345 108.48C5.10896 107.54 3.85176 106.242 2.93186 104.586C2.0324 102.91 1.58267 100.968 1.58267 98.76C1.58267 96.5727 2.0324 94.6511 2.93186 92.9953C3.85176 91.319 5.10896 90.0107 6.70345 89.0704C8.31839 88.13 10.1786 87.6599 12.2842 87.6599C14.4306 87.6599 16.3011 88.13 17.8956 89.0704C19.5105 90.0107 20.7677 91.319 21.6672 92.9953C22.5666 94.6511 23.0164 96.5727 23.0164 98.76C23.0164 100.968 22.5666 102.91 21.6672 104.586C20.7677 106.242 19.5105 107.54 17.8956 108.48C16.3011 109.4 14.4306 109.86 12.2842 109.86ZM12.3148 106.549C13.7049 106.549 14.9212 106.242 15.9638 105.629C17.0268 104.995 17.8445 104.095 18.4169 102.93C18.9892 101.765 19.2754 100.375 19.2754 98.76C19.2754 97.1451 18.9892 95.755 18.4169 94.5898C17.8445 93.4246 17.0268 92.5353 15.9638 91.9221C14.9212 91.2884 13.7049 90.9715 12.3148 90.9715C10.9043 90.9715 9.6778 91.2884 8.63524 91.9221C7.59269 92.5353 6.775 93.4246 6.18217 94.5898C5.60979 95.755 5.3236 97.1451 5.3236 98.76C5.3236 100.375 5.60979 101.765 6.18217 102.93C6.775 104.095 7.59269 104.995 8.63524 105.629C9.6778 106.242 10.9043 106.549 12.3148 106.549ZM30.4446 109.492L25.0478 94.2832H28.9114L32.8363 106.395H32.8976L36.8225 94.2832H40.6248L35.2587 109.492H30.4446ZM49.8729 109.86C48.3397 109.86 46.9803 109.533 45.7947 108.879C44.6295 108.204 43.7096 107.284 43.035 106.119C42.3808 104.934 42.0538 103.554 42.0538 101.98C42.0538 100.385 42.3808 98.9849 43.035 97.7788C43.6891 96.5727 44.5988 95.6323 45.764 94.9578C46.9497 94.2627 48.3193 93.9152 49.8729 93.9152C51.3856 93.9152 52.7042 94.2525 53.8285 94.9271C54.9528 95.5812 55.8318 96.4603 56.4655 97.5641C57.0992 98.668 57.4161 99.915 57.4161 101.305C57.4161 101.509 57.4059 101.734 57.3854 101.98C57.3854 102.225 57.3752 102.491 57.3548 102.777H44.6908V100.416H53.7058C53.6445 99.3119 53.2561 98.4432 52.5406 97.8094C51.8252 97.1757 50.9359 96.8589 49.8729 96.8589C49.1166 96.8589 48.4113 97.0326 47.7571 97.3802C47.1234 97.7072 46.6124 98.2081 46.224 98.8827C45.856 99.5573 45.672 100.416 45.672 101.458V102.348C45.672 103.288 45.856 104.095 46.224 104.77C46.5919 105.445 47.0928 105.966 47.7265 106.334C48.3602 106.681 49.0654 106.855 49.8423 106.855C50.6804 106.855 51.3856 106.661 51.958 106.273C52.5304 105.884 52.9597 105.373 53.2459 104.739H56.9562C56.6904 105.721 56.2202 106.6 55.5456 107.376C54.8915 108.133 54.084 108.736 53.1232 109.186C52.1624 109.635 51.079 109.86 49.8729 109.86ZM60.4899 109.492V94.2832H63.7402L64.0468 97.3495H64.1081C64.517 96.5114 64.9872 95.847 65.5187 95.3564C66.0502 94.8453 66.6634 94.4774 67.3585 94.2525C68.0535 94.0276 68.8405 93.9152 69.7195 93.9152V97.7788H68.7076C68.0331 97.7788 67.4096 97.8606 66.8372 98.0241C66.2852 98.1876 65.8048 98.4534 65.396 98.8213C65.0076 99.1689 64.701 99.639 64.4761 100.232C64.2717 100.804 64.1695 101.52 64.1695 102.378V109.492H60.4899ZM76.3756 109.492L70.9789 94.2832H74.8425L78.7674 106.395H78.8287L82.7536 94.2832H86.5559L81.1898 109.492H76.3756ZM89.3211 109.492V94.2832H93.0007V109.492H89.3211ZM91.1609 91.8608C90.4863 91.8608 89.9241 91.6563 89.4744 91.2475C89.0451 90.8182 88.8305 90.2969 88.8305 89.6837C88.8305 89.0499 89.0451 88.5287 89.4744 88.1198C89.9241 87.711 90.4863 87.5066 91.1609 87.5066C91.8355 87.5066 92.3874 87.711 92.8167 88.1198C93.2664 88.5287 93.4913 89.0499 93.4913 89.6837C93.4913 90.2969 93.2664 90.8182 92.8167 91.2475C92.3874 91.6563 91.8355 91.8608 91.1609 91.8608ZM104.377 109.86C102.844 109.86 101.484 109.533 100.299 108.879C99.1334 108.204 98.2135 107.284 97.5389 106.119C96.8847 104.934 96.5576 103.554 96.5576 101.98C96.5576 100.385 96.8847 98.9849 97.5389 97.7788C98.193 96.5727 99.1027 95.6323 100.268 94.9578C101.454 94.2627 102.823 93.9152 104.377 93.9152C105.89 93.9152 107.208 94.2525 108.332 94.9271C109.457 95.5812 110.336 96.4603 110.969 97.5641C111.603 98.668 111.92 99.915 111.92 101.305C111.92 101.509 111.91 101.734 111.889 101.98C111.889 102.225 111.879 102.491 111.859 102.777H99.1947V100.416H108.21C108.148 99.3119 107.76 98.4432 107.045 97.8094C106.329 97.1757 105.44 96.8589 104.377 96.8589C103.62 96.8589 102.915 97.0326 102.261 97.3802C101.627 97.7072 101.116 98.2081 100.728 98.8827C100.36 99.5573 100.176 100.416 100.176 101.458V102.348C100.176 103.288 100.36 104.095 100.728 104.77C101.096 105.445 101.597 105.966 102.23 106.334C102.864 106.681 103.569 106.855 104.346 106.855C105.184 106.855 105.89 106.661 106.462 106.273C107.034 105.884 107.464 105.373 107.75 104.739H111.46C111.194 105.721 110.724 106.6 110.05 107.376C109.395 108.133 108.588 108.736 107.627 109.186C106.666 109.635 105.583 109.86 104.377 109.86ZM117.429 109.492L113.167 94.2832H116.785L119.79 106.978L119.33 106.947L122.673 94.2832H126.843L130.216 106.947L129.725 106.978L132.73 94.2832H136.379L132.086 109.492H128.008L124.482 96.5522H125.034L121.477 109.492H117.429Z" fill="#0174EE"/>
<path d="M49.2954 5.23169C59.3392 1.27965 70.3874 0.0600717 81.0394 1.63729C96.4281 3.83201 110.83 12.1709 120.68 24.4053C122.83 26.9988 124.632 29.8599 126.476 32.6773C124.382 35.9115 122.275 39.156 119.751 42.0685C113.44 49.5121 105.447 55.4736 96.5543 59.3021C81.7536 65.7474 64.5151 66.0664 49.4872 60.2001C40.049 56.5594 31.5068 50.5567 24.7915 42.8816C21.9752 39.7503 19.6485 36.2177 17.3672 32.6773C18.8309 30.4723 20.2213 28.2132 21.8263 26.1137C28.8772 16.7611 38.4844 9.43846 49.2954 5.23169ZM51.8215 15.2765C43.0698 18.9146 35.3224 25.0022 29.609 32.6773C34.8202 39.6809 41.7247 45.3671 49.5452 49.0644C57.9033 53.0473 67.2935 54.7068 76.4818 53.8938C83.8885 53.266 91.1539 51.0044 97.6496 47.3251C104.092 43.6818 109.778 38.6568 114.229 32.6747C106.278 21.9353 94.2781 14.3914 81.2615 12.0937C71.417 10.3107 61.0754 11.3913 51.8215 15.2765Z" fill="#0174EE"/>
<path d="M68.7721 15.627C72.4111 14.9271 76.2747 15.4623 79.578 17.1707C82.5508 18.6862 85.0567 21.1228 86.7046 24.0637C88.5594 27.3493 89.3013 31.2679 88.7916 35.0244C88.2692 39.0588 86.2857 42.8719 83.3104 45.5838C80.7313 47.9663 77.4128 49.5049 73.953 49.9089C70.4099 50.3514 66.7356 49.6104 63.624 47.8248C60.2222 45.8977 57.5094 42.7381 56.0911 39.0433C54.4155 34.7517 54.5265 29.773 56.4015 25.5663C58.6122 20.4615 63.3843 16.6253 68.7721 15.627ZM70.0112 25.8802C69.0573 26.158 68.1715 26.6572 67.4169 27.3081C64.752 29.5312 64.1994 33.8486 66.2182 36.6917C68.0428 39.5013 71.9392 40.5742 74.8993 39.0716C78.0891 37.6102 79.7294 33.5038 78.4222 30.1924C77.2589 26.8193 73.365 24.8124 70.0112 25.8802Z" fill="#0174EE"/>
</svg>
