<svg width="87" height="76" viewBox="0 0 87 76" fill="none" xmlns="http://www.w3.org/2000/svg">
<path d="M85.4123 67.1438L68.5722 52.594C81.1728 38.0514 77.737 17.4404 60.8983 6.55813C44.0596 -4.32416 20.1942 -1.35691 7.59363 13.1856C-5.00692 27.7282 -1.57116 48.3392 15.2676 59.2215C28.7938 67.9631 47.3719 67.9631 60.8983 59.2215L77.7455 73.7713C79.8626 75.5998 83.2952 75.5998 85.4121 73.7713C87.5293 71.9429 87.5293 68.9784 85.4121 67.1501L85.4123 67.1438ZM38.2233 56.4132C23.2579 56.4132 11.1261 45.9358 11.1261 33.0111C11.1261 20.0863 23.2579 9.6089 38.2233 9.6089C53.1888 9.6089 65.3206 20.0863 65.3206 33.0111C65.3046 45.9299 53.1822 56.3995 38.2233 56.4132Z" fill="white"/>
</svg>
