<svg width="944" height="751" viewBox="0 0 944 751" fill="none" xmlns="http://www.w3.org/2000/svg">
<path d="M856.761 133.614C860.534 129.588 866.361 127.028 871.881 128.561C879.908 130.254 885.548 139.001 883.414 146.974C882.668 150.601 880.294 153.548 877.708 156.068C858.948 174.654 840.361 193.414 821.641 212.041C818.348 215.441 813.801 217.854 808.948 217.241C802.508 217.108 798.214 211.735 793.921 207.668C785.388 198.828 776.308 190.508 768.001 181.454C762.481 175.774 763.028 165.788 768.881 160.548C774.161 154.935 783.814 154.574 789.454 159.868C796.588 166.441 803.121 173.668 810.188 180.321C825.668 164.708 841.334 149.281 856.761 133.614Z" fill="white"/>
<path d="M303.814 162.107C313.227 160.667 319.214 173.667 312.414 180.027C307.747 185.813 297.72 184.293 294.72 177.613C291.12 171.093 296.214 161.907 303.814 162.107Z" fill="white"/>
<path d="M391.907 162.187C398.654 160.747 405.48 166.92 404.4 173.814C404.174 182.56 392.014 186.987 386.12 180.547C379.707 174.987 383.32 162.894 391.907 162.187Z" fill="white"/>
<path d="M343.787 163.254C348.413 161.027 354.84 161.854 357.76 166.441C362.067 171.654 359.533 180.334 353.307 182.721C349.587 184.587 344.933 183.574 341.907 180.854C336.493 176.334 337.373 166.481 343.787 163.254Z" fill="white"/>
<path d="M83.0276 0.0545098C204.694 0.0278431 326.361 -0.0788325 448.028 0.107834C449.068 11.9212 450.468 24.0145 455.908 34.7478C463.468 51.0678 476.294 64.8678 492.308 73.1345C504.121 79.8678 517.721 82.4012 531.148 83.2145C531.601 101.575 530.281 120.001 532.028 138.321C456.774 138.375 381.521 138.388 306.268 138.375C294.841 138.148 283.108 138.201 272.321 142.455C245.641 151.641 226.374 178.788 226.868 207.041C227.214 282.215 226.921 357.388 227.014 432.575C226.921 480.215 227.201 527.868 226.868 575.521C220.188 572.508 214.254 568.188 207.974 564.454C182.774 549.428 157.054 535.335 131.801 520.401C111.468 509.108 92.4676 495.308 76.0676 478.775C26.9343 430.961 -1.41242 362.441 0.0542496 293.855C0.160916 223.534 -0.119083 153.215 0.200917 82.8945C19.5209 83.1078 38.3743 75.6278 53.2943 63.5745C71.7743 47.9745 82.7076 24.2012 83.0276 0.0545098Z" fill="#C5E9FE"/>
<path d="M299.987 356.987C304.961 355.214 310.401 356.187 315.587 356.014C453.361 356.04 591.134 356 728.894 356.027C735.147 356.16 741.441 355.52 747.681 356.334C754.094 357.427 758.161 365.28 755.347 371.174C753.734 374.12 751.147 377.24 747.521 377.4C731.121 378.32 714.694 377.387 698.294 377.774C610.734 377.587 523.161 377.8 435.614 377.747C421.841 378.707 408.054 377.227 394.281 377.96C386.254 378 378.254 377.454 370.241 377.64C350.667 378.2 331.094 377.134 311.547 377.974C306.201 377.827 299.321 378.627 295.934 373.494C291.334 368.32 293.827 359.64 299.987 356.987Z" fill="#C5E9FE"/>
<path d="M300.161 407.988C306.001 406.228 312.214 406.948 318.228 406.841C456.014 406.855 593.814 406.855 731.601 406.841C737.628 406.961 743.868 406.121 749.734 407.921C756.361 410.481 758.321 420.015 753.561 425.175C750.868 428.535 746.214 428.761 742.268 428.935C600.961 428.895 459.654 428.908 318.348 428.921C312.014 428.761 305.361 429.681 299.308 427.441C291.428 423.815 291.948 410.868 300.161 407.988Z" fill="#C5E9FE"/>
<path d="M317 490.04C330.614 477.454 349.107 470.614 367.614 470.814C513.4 470.707 659.201 470.787 804.987 470.774C815.614 471.027 826.241 470.16 836.867 470.56C851.134 471.227 865.721 469.587 879.614 473.707C906.961 481.147 928.107 505.8 932.32 533.68C935.174 544.88 935.441 556.52 934.521 568C932.801 577.414 929.414 586.6 924.134 594.627C919.374 602.027 914.081 609.307 906.921 614.56C899.334 620.12 891.374 625.56 882.214 628.107C875.147 629.974 868.307 633.427 860.854 633.214C854.774 633.32 848.16 631.987 842.76 635.547C837.214 639.067 830.134 640.534 825.667 645.52C824.814 655.934 826.467 666.454 824.827 676.827C823.747 684.334 824.32 692.307 820.72 699.254C818.014 704.267 816.027 709.6 813.547 714.72C806.414 724.227 797.947 733.094 787.414 738.827C782.12 741.734 777.134 745.6 771.027 746.574C764.547 747.667 758.321 750.174 751.707 750.427C602.787 750.427 453.867 750.36 304.947 750.454C295.28 751.254 285.934 748.347 276.814 745.574C261.867 740.574 249.001 730.667 239.227 718.427C234.254 713.467 232.301 706.928 228.754 701.074C225.741 696.101 224.254 690.074 223.24 682.814C222.774 662.054 223.267 641.294 222.974 620.547C223.027 617.12 222.414 613.214 225.16 610.587C226.107 629.44 225.04 648.347 225.667 667.227C226.494 685.894 234.427 704.494 248.654 716.854C261.547 729.134 279.36 735.147 296.96 735.507C316.467 734.067 336.054 734.987 355.601 735.027C365.787 734.2 375.974 736.227 386.147 734.84C440.414 734.694 494.667 734.867 548.934 734.774C559.754 734.574 574.254 734.774 585.254 734.574C599.754 734.574 609.487 734.521 623.754 734.574C638.39 734.629 641.754 734.574 651.754 734.574C673.254 734.574 694.254 734.574 715.754 734.574C728.351 734.574 740.754 734.574 753.254 734.574C770.814 734.321 788.401 729.027 801.267 716.84C816.881 702.854 825.654 681.48 824.281 660.547C824.614 650.534 824.147 640.52 822.494 630.627C677.974 630.587 533.454 630.627 388.934 630.6C373.467 630.92 357.467 630.2 343.014 624.147C333.627 620.4 325 614.747 317.507 608.014C309.654 599.107 300.974 589.747 298.681 577.667C297.654 572.054 294.627 567 294.04 561.294C293.387 555.72 292.507 550.147 292.307 544.534C292.921 524.094 301.747 503.787 317 490.04ZM378.227 516.614C376.614 522.2 377.534 528.12 377.32 533.854C371.454 532.254 365.707 529.294 359.507 529.534C352.841 530.067 350.56 540.427 356.12 543.934C360.88 546.987 366.587 548.027 371.88 549.88C368.827 554.827 364.494 559.12 362.561 564.68C360.481 570.987 368.627 577.32 374.214 573.747C379.107 570.267 381.934 564.747 385.427 560C389.267 564.214 391.921 569.48 396.307 573.174C401.721 577.934 411.36 571.307 408.88 564.574C406.894 559.014 402.641 554.707 399.387 549.894C404.907 547.907 411.014 547 415.894 543.574C421.281 539.707 418.214 529.907 411.654 529.587C405.534 529.32 399.894 532.254 394.134 533.867C393.921 528 394.841 521.934 393.227 516.214C390.987 509.72 380.041 509.92 378.227 516.614ZM488.24 516.534C486.694 522.16 487.4 528.08 487.24 533.854C481.6 532.2 476.094 529.6 470.134 529.467C463.334 529.52 460.4 539.747 465.787 543.667C470.454 546.867 476.187 547.88 481.481 549.707C479.014 554.96 474.627 559.094 472.574 564.534C470.267 570.947 479.054 577.627 484.574 573.52C489.347 570.04 492 564.507 495.654 559.987C499.347 564.454 502.147 569.827 506.76 573.454C512.2 577.627 521.161 571.294 518.947 564.734C517.041 559.147 512.614 554.88 509.76 549.774C515.28 547.76 521.521 547 526.267 543.32C531.334 539.04 527.774 529.16 520.987 529.467C515.16 529.667 509.787 532.24 504.267 533.854C504.067 528.12 504.84 522.24 503.4 516.627C501.574 509.734 490.214 509.814 488.24 516.534ZM598.24 516.64C596.707 522.227 597.601 528.134 597.361 533.854C591.534 532.214 585.801 529.347 579.627 529.547C572.907 530.027 570.614 540.44 576.227 543.947C581 547.027 586.747 548.027 592.054 549.894C588.907 554.827 584.521 559.12 582.614 564.747C580.467 571.4 589.627 577.76 595.041 573.24C599.521 569.56 602.321 564.347 605.774 559.774C609.414 564.507 612.24 570.134 617.147 573.72C622.747 577.44 631.347 570.894 628.907 564.507C626.934 558.96 622.734 554.627 619.467 549.84C625.027 547.96 631.054 546.96 636.014 543.64C641.387 539.72 638.28 529.907 631.72 529.534C625.694 529.347 620.134 532.187 614.467 533.854C614.28 527.947 615 521.827 613.227 516.094C610.88 509.72 600.04 509.934 598.24 516.64ZM708.494 516.147C706.614 521.84 707.52 527.96 707.32 533.854C701.68 532.187 696.161 529.534 690.187 529.48C683.441 529.534 680.454 539.76 685.827 543.654C690.694 546.96 696.641 547.987 702.121 549.84C698.947 554.72 694.72 559.027 692.64 564.547C690.387 570.92 698.961 577.414 704.534 573.667C709.401 570.16 712.08 564.52 715.72 559.894C719.347 564.414 722.187 569.72 726.747 573.414C732.214 577.64 741.241 571.387 739.027 564.747C737.214 559.067 732.76 554.76 729.48 549.907C734.854 548.027 740.707 547.067 745.56 543.947C751.174 540.507 748.881 530.387 742.361 529.654C736.081 529.067 730.267 532.254 724.361 533.867C724.067 528.134 725.001 522.214 723.494 516.627C721.721 509.894 710.814 509.8 708.494 516.147ZM818.32 516.614C816.934 522.24 817.681 528.134 817.494 533.88C811.547 532.254 805.734 529.227 799.454 529.574C792.934 530.294 790.787 540.334 796.187 543.867C800.987 547.014 806.787 548.014 812.147 549.894C808.947 554.787 804.654 559.12 802.681 564.694C800.467 571.32 809.601 577.72 815.014 573.334C819.467 569.747 822.24 564.614 825.56 560.067C829.747 564.334 832.267 570.16 837.201 573.654C842.774 577.467 851.414 570.96 849.027 564.547C847.067 558.974 842.774 554.694 839.547 549.867C845.094 547.974 851.107 546.96 856.041 543.654C861.374 539.707 858.321 529.76 851.667 529.534C845.667 529.374 840.147 532.24 834.494 533.854C834.307 527.934 835.254 521.787 833.307 516.08C830.987 509.667 820.16 510.027 818.32 516.614Z" fill="#C5E9FE"/>
<path d="M810.481 53.9615C834.241 51.1615 858.827 55.7215 879.947 67.0148C904.081 79.6148 923.547 100.855 934.174 125.908C952.107 166.641 944.334 217.108 914.987 250.548C899.761 268.402 879.241 281.641 856.641 287.988C838.107 293.268 818.281 293.708 799.427 289.948C772.334 284.255 747.334 268.855 730.241 247.068C720.907 235.268 713.881 221.695 709.387 207.361C702.681 184.935 702.534 160.708 709.361 138.295C715.361 119.668 725.254 102.055 739.427 88.4282C758.161 69.2015 783.814 56.8815 810.481 53.9615ZM856.761 133.615C841.334 149.281 825.667 164.708 810.187 180.321C803.121 173.668 796.587 166.441 789.454 159.868C783.814 154.575 774.161 154.935 768.881 160.548C763.027 165.788 762.481 175.775 768.001 181.455C776.307 190.508 785.387 198.828 793.921 207.668C798.214 211.735 802.507 217.108 808.947 217.241C813.801 217.855 818.347 215.441 821.641 212.041C840.361 193.415 858.947 174.655 877.707 156.068C880.294 153.548 882.667 150.601 883.414 146.975C885.547 139.001 879.907 130.255 871.881 128.561C866.361 127.028 860.534 129.588 856.761 133.615Z" fill="#2FDF4C"/>
<path d="M272.321 142.454C283.108 138.201 294.841 138.147 306.268 138.374C381.521 138.387 456.774 138.374 532.028 138.321C591.134 138.307 650.241 138.254 709.361 138.294C702.534 160.707 702.681 184.934 709.388 207.361C640.774 207.321 572.161 207.601 503.561 207.094C411.334 207.401 319.108 206.974 226.868 207.041C226.374 178.787 245.641 151.641 272.321 142.454ZM303.814 162.107C296.214 161.907 291.121 171.094 294.721 177.614C297.721 184.294 307.748 185.814 312.414 180.027C319.214 173.667 313.228 160.667 303.814 162.107ZM391.908 162.187C383.321 162.894 379.708 174.987 386.121 180.547C392.014 186.987 404.174 182.561 404.401 173.814C405.481 166.921 398.654 160.747 391.908 162.187ZM343.788 163.254C337.374 166.481 336.494 176.334 341.908 180.854C344.934 183.574 349.588 184.587 353.308 182.721C359.534 180.334 362.068 171.654 357.761 166.441C354.841 161.854 348.414 161.027 343.788 163.254Z" fill="#017DCA"/>
<path d="M303.974 305.201C430.521 305.027 557.081 305.201 683.628 305.107C686.734 305.121 690.161 305.281 692.668 307.401C697.681 311.227 698.108 319.547 693.508 323.867C691.268 326.081 688.054 326.867 684.988 326.841C558.721 326.881 432.468 326.841 306.201 326.867C301.041 327.414 295.734 324.494 294.121 319.427C291.668 312.934 297.014 305.174 303.974 305.201Z" fill="#017DCA"/>
<path d="M378.228 516.614C380.041 509.921 390.988 509.721 393.228 516.214C394.841 521.934 393.921 528.001 394.134 533.868C399.894 532.254 405.534 529.321 411.654 529.588C418.214 529.908 421.281 539.708 415.894 543.574C411.014 547.001 404.908 547.908 399.388 549.894C402.641 554.708 406.894 559.014 408.881 564.574C411.361 571.308 401.721 577.934 396.308 573.174C391.921 569.481 389.268 564.214 385.428 560.001C381.934 564.748 379.108 570.268 374.214 573.748C368.628 577.321 360.481 570.988 362.561 564.681C364.494 559.121 368.828 554.828 371.881 549.881C366.588 548.028 360.881 546.988 356.121 543.934C350.561 540.428 352.841 530.068 359.508 529.534C365.708 529.294 371.454 532.254 377.321 533.854C377.534 528.121 376.614 522.201 378.228 516.614Z" fill="#017DCA"/>
<path d="M488.241 516.533C490.214 509.813 501.574 509.733 503.401 516.626C504.841 522.24 504.068 528.12 504.268 533.853C509.788 532.24 515.161 529.666 520.988 529.466C527.774 529.16 531.334 539.04 526.268 543.32C521.521 547 515.281 547.76 509.761 549.773C512.614 554.88 517.041 559.146 518.948 564.733C521.161 571.293 512.201 577.626 506.761 573.453C502.148 569.826 499.348 564.453 495.654 559.986C492.001 564.506 489.348 570.04 484.574 573.52C479.054 577.626 470.268 570.946 472.574 564.533C474.628 559.093 479.014 554.96 481.481 549.706C476.188 547.88 470.454 546.866 465.788 543.666C460.401 539.746 463.334 529.52 470.134 529.466C476.094 529.6 481.601 532.2 487.241 533.853C487.401 528.08 486.694 522.16 488.241 516.533Z" fill="#017DCA"/>
<path d="M598.241 516.641C600.041 509.935 610.881 509.721 613.228 516.095C615.001 521.828 614.281 527.948 614.468 533.855C620.134 532.188 625.694 529.348 631.721 529.535C638.281 529.908 641.388 539.721 636.014 543.641C631.054 546.961 625.028 547.961 619.468 549.841C622.734 554.628 626.934 558.961 628.908 564.508C631.348 570.895 622.748 577.441 617.148 573.721C612.241 570.135 609.415 564.508 605.775 559.775C602.321 564.348 599.521 569.561 595.041 573.241C589.628 577.761 580.468 571.401 582.615 564.748C584.521 559.121 588.908 554.828 592.054 549.895C586.748 548.028 581.001 547.028 576.228 543.948C570.614 540.441 572.908 530.028 579.628 529.548C585.801 529.348 591.535 532.215 597.361 533.855C597.601 528.135 596.708 522.228 598.241 516.641Z" fill="#017DCA"/>
<path d="M708.494 516.148C710.814 509.801 721.721 509.894 723.494 516.628C725.001 522.214 724.067 528.134 724.361 533.868C730.267 532.254 736.081 529.068 742.361 529.655C748.881 530.388 751.174 540.508 745.561 543.948C740.707 547.068 734.854 548.028 729.481 549.908C732.761 554.761 737.214 559.068 739.027 564.748C741.241 571.388 732.214 577.641 726.747 573.415C722.187 569.721 719.347 564.414 715.721 559.894C712.081 564.521 709.401 570.161 704.534 573.668C698.961 577.415 690.387 570.921 692.641 564.548C694.721 559.028 698.947 554.721 702.121 549.841C696.641 547.988 690.694 546.961 685.827 543.655C680.454 539.761 683.441 529.535 690.187 529.481C696.161 529.535 701.681 532.188 707.321 533.855C707.521 527.961 706.614 521.841 708.494 516.148Z" fill="#017DCA"/>
<path d="M818.321 516.614C820.161 510.028 830.988 509.668 833.308 516.081C835.254 521.788 834.308 527.934 834.494 533.854C840.148 532.241 845.668 529.374 851.668 529.534C858.321 529.761 861.374 539.708 856.041 543.654C851.108 546.961 845.094 547.974 839.548 549.867C842.774 554.694 847.068 558.974 849.028 564.548C851.414 570.961 842.774 577.468 837.201 573.654C832.268 570.161 829.748 564.334 825.561 560.068C822.241 564.614 819.468 569.748 815.014 573.334C809.601 577.721 800.468 571.321 802.681 564.694C804.654 559.121 808.948 554.788 812.148 549.894C806.788 548.014 800.988 547.014 796.188 543.867C790.788 540.334 792.934 530.294 799.454 529.574C805.734 529.228 811.548 532.254 817.494 533.881C817.681 528.134 816.934 522.241 818.321 516.614Z" fill="#017DCA"/>
</svg>
