<?xml version="1.0" encoding="UTF-8" ?>
<!DOCTYPE svg PUBLIC "-//W3C//DTD SVG 1.1//EN" "http://www.w3.org/Graphics/SVG/1.1/DTD/svg11.dtd">
<svg width="290pt" height="145pt" viewBox="0 0 290 145" version="1.1" xmlns="http://www.w3.org/2000/svg">
<g id="#fba930ff">
<path fill="#fba930" opacity="1.00" d=" M 97.22 0.00 L 105.76 0.00 C 106.10 0.04 106.76 0.12 107.09 0.17 C 108.56 3.86 109.91 7.60 111.10 11.38 C 108.50 10.65 105.83 10.24 103.16 9.84 C 101.30 9.44 99.47 8.92 97.64 8.42 C 96.63 5.71 95.67 2.99 94.76 0.25 C 95.37 0.19 96.60 0.06 97.22 0.00 Z" />
</g>
<g id="#f68633ff">
<path fill="#f68633" opacity="1.00" d=" M 82.81 3.97 C 86.60 2.19 90.62 0.93 94.76 0.25 C 95.67 2.99 96.63 5.71 97.64 8.42 C 99.47 8.92 101.30 9.44 103.16 9.84 C 97.31 9.70 91.43 10.84 86.16 13.43 C 84.88 10.34 83.76 7.18 82.81 3.97 Z" />
</g>
<g id="#fdc239ff">
<path fill="#fdc239" opacity="1.00" d=" M 107.09 0.17 C 110.66 0.78 114.19 1.66 117.56 3.02 C 117.45 8.12 120.79 12.40 122.18 17.15 C 118.81 14.68 115.11 12.62 111.10 11.38 C 109.91 7.60 108.56 3.86 107.09 0.17 Z" />
</g>
<g id="#f15d36ff">
<path fill="#f15d36" opacity="1.00" d=" M 69.41 13.50 C 73.54 9.89 77.78 6.29 82.81 3.97 C 83.76 7.18 84.88 10.34 86.16 13.43 C 81.41 15.93 77.16 19.40 73.89 23.66 C 71.47 20.73 70.69 16.98 69.41 13.50 Z" />
</g>
<g id="#fcd350ff">
<path fill="#fcd350" opacity="1.00" d=" M 122.18 17.15 C 120.79 12.40 117.45 8.12 117.56 3.02 C 120.77 4.38 123.91 5.98 126.72 8.08 C 126.60 9.63 126.59 11.23 127.32 12.65 C 129.30 17.18 131.39 21.67 133.32 26.23 C 132.67 26.40 131.38 26.75 130.73 26.92 C 128.42 23.23 125.44 20.02 122.18 17.15 Z" />
</g>
<g id="#fbe262ff">
<path fill="#fbe262" opacity="1.00" d=" M 127.32 12.65 C 126.59 11.23 126.60 9.63 126.72 8.08 C 132.96 12.47 137.75 18.65 141.17 25.42 C 138.54 25.62 135.91 25.79 133.32 26.23 C 131.39 21.67 129.30 17.18 127.32 12.65 Z" />
</g>
<g id="#ffffffff">
<path fill="#ffffff" opacity="1.00" d=" M 175.82 12.98 C 175.76 11.22 177.23 9.58 179.03 9.67 C 184.01 9.48 189.00 9.50 193.97 9.64 C 195.89 9.45 197.66 10.99 197.52 12.97 C 197.79 19.55 197.26 26.13 197.43 32.71 C 200.74 28.34 205.44 24.97 210.91 24.01 C 219.30 22.35 228.81 23.53 235.63 29.03 C 236.70 29.98 237.70 31.00 238.72 32.00 C 238.98 27.65 239.36 23.31 239.74 18.96 L 237.86 19.43 C 238.99 17.59 239.89 15.61 241.15 13.86 C 243.55 12.60 246.37 13.63 248.94 13.69 C 252.77 14.36 256.90 14.00 260.54 15.50 C 260.77 15.87 261.22 16.61 261.45 16.97 C 261.72 22.65 260.40 28.28 260.04 33.94 C 261.98 32.27 263.72 30.26 266.02 29.06 C 272.06 29.20 278.03 30.52 283.97 31.51 C 287.03 31.90 287.39 36.28 285.11 37.90 C 280.74 40.86 276.37 43.84 272.27 47.17 C 272.35 47.38 272.52 47.79 272.61 47.99 C 275.94 55.02 279.44 61.98 282.51 69.12 C 283.43 70.84 283.19 72.88 281.88 74.32 C 275.91 74.94 270.04 72.87 264.11 72.38 C 259.35 72.00 259.11 66.11 257.13 62.80 C 256.39 65.34 257.20 69.03 254.65 70.63 C 251.83 71.28 248.92 70.32 246.08 70.21 C 242.49 69.67 238.32 70.27 235.54 67.43 C 235.67 66.34 235.93 64.18 236.06 63.10 C 235.20 63.83 234.37 64.60 233.51 65.33 C 222.01 71.96 204.83 70.01 197.18 58.44 C 197.14 61.12 197.01 63.81 196.75 66.48 C 190.43 67.60 183.88 67.42 177.52 66.71 C 171.43 67.42 164.98 68.52 159.02 66.72 C 151.77 70.80 141.55 70.88 135.90 64.05 C 135.55 63.51 134.85 62.45 134.50 61.91 C 131.67 55.30 131.91 47.95 131.16 40.92 C 130.94 36.27 129.80 31.57 130.73 26.92 C 131.38 26.75 132.67 26.40 133.32 26.23 C 135.91 25.79 138.54 25.62 141.17 25.42 C 143.77 25.26 146.38 24.87 148.99 25.04 C 151.07 24.98 151.42 27.31 152.20 28.75 C 152.07 36.00 152.17 43.36 153.45 50.51 C 153.95 50.75 154.97 51.23 155.48 51.47 C 157.06 49.26 156.65 46.48 156.59 43.93 C 156.43 38.60 155.89 33.29 155.95 27.95 C 155.77 26.20 157.01 24.39 158.87 24.41 C 164.53 23.90 170.22 23.81 175.89 23.86 C 175.79 20.23 175.51 16.60 175.82 12.98 M 178.75 12.25 C 178.63 15.47 178.66 18.69 178.60 21.90 C 178.69 22.53 178.86 23.78 178.94 24.40 C 184.06 24.84 189.20 24.48 194.33 24.56 C 194.38 23.88 194.48 22.53 194.53 21.86 C 194.58 18.64 194.56 15.42 194.35 12.20 C 189.15 12.28 183.95 12.25 178.75 12.25 M 242.20 25.96 C 241.19 37.63 240.30 49.32 239.27 60.99 C 239.05 63.15 239.03 65.33 239.27 67.50 C 243.92 67.99 248.56 68.86 253.26 68.61 C 253.46 68.17 253.85 67.28 254.05 66.83 C 254.07 66.34 254.12 65.36 254.15 64.86 C 254.41 62.52 254.64 60.16 254.88 57.81 C 255.47 57.54 256.65 56.99 257.25 56.72 C 259.51 61.19 261.27 65.89 263.56 70.35 C 267.43 70.60 271.21 71.48 275.07 71.83 C 276.49 72.18 277.93 72.47 279.37 72.75 C 279.68 72.19 280.29 71.07 280.60 70.51 C 278.53 65.48 275.94 60.68 273.90 55.64 L 273.62 55.60 C 272.37 52.46 270.54 49.58 269.39 46.41 C 273.22 43.50 277.11 40.67 281.05 37.90 C 282.33 37.20 282.91 35.85 283.42 34.56 L 284.02 34.15 C 278.60 33.23 273.14 32.61 267.73 31.66 C 264.00 34.78 260.60 38.28 256.75 41.27 C 256.91 38.91 257.14 36.56 257.41 34.21 C 257.95 28.61 258.72 23.03 258.98 17.40 C 253.81 16.88 248.64 16.43 243.50 15.75 C 242.48 19.06 242.50 22.54 242.20 25.96 M 211.48 26.74 C 204.83 28.13 198.61 33.45 197.62 40.34 C 195.05 49.70 198.94 60.75 208.01 65.02 C 208.96 65.32 209.93 65.58 210.91 65.82 C 215.35 67.75 220.65 67.93 225.25 66.40 C 231.51 65.38 237.02 60.33 238.04 53.96 C 238.20 53.36 238.53 52.14 238.69 51.54 C 233.71 51.17 228.73 50.67 223.74 50.45 C 223.36 56.38 213.87 56.51 212.54 51.06 C 212.01 46.73 211.53 41.44 215.48 38.50 C 217.81 38.67 220.62 37.79 222.48 39.63 C 223.61 40.55 223.62 42.10 223.99 43.39 C 226.02 43.57 228.05 43.69 230.08 43.86 C 232.81 44.42 235.62 44.47 238.40 44.62 C 238.64 44.03 239.12 42.85 239.36 42.26 C 239.51 36.87 236.28 31.94 231.62 29.41 C 225.57 25.99 218.21 25.52 211.48 26.74 M 158.68 27.09 C 158.47 34.79 159.65 42.45 159.24 50.14 C 158.45 54.09 153.30 55.36 150.46 52.67 C 150.83 51.18 150.21 49.74 149.89 48.31 C 149.15 41.43 149.57 34.41 148.16 27.61 C 143.02 28.16 137.87 28.50 132.71 28.85 C 132.84 30.54 132.98 32.22 133.20 33.89 C 133.73 37.84 132.96 41.83 133.56 45.76 C 135.30 51.64 134.22 58.62 138.63 63.51 C 144.72 70.21 156.58 68.21 161.28 60.84 C 161.28 61.50 161.28 62.82 161.28 63.48 C 161.40 64.00 161.62 65.06 161.74 65.58 C 166.01 65.56 170.27 65.39 174.54 65.44 C 175.04 63.33 175.26 61.16 175.07 59.00 C 174.37 48.38 175.11 37.69 174.00 27.11 L 173.99 26.36 C 168.90 26.83 163.79 26.83 158.68 27.09 M 178.89 26.41 C 178.77 29.52 178.74 32.64 178.92 35.74 C 178.92 45.61 179.08 55.50 179.55 65.36 C 184.23 65.33 188.91 65.27 193.60 65.39 C 194.10 63.31 194.25 61.16 194.21 59.02 C 194.13 48.16 194.66 37.30 194.33 26.45 C 189.18 26.36 184.03 26.44 178.89 26.41 M 215.92 41.32 L 215.61 42.21 L 215.61 42.21 C 215.21 45.26 214.30 48.97 216.23 51.66 C 217.29 51.92 220.02 52.57 219.72 50.74 C 220.67 49.61 221.23 47.69 222.98 47.56 C 227.02 47.34 231.05 48.04 235.10 48.22 C 236.47 48.90 237.16 47.54 237.86 46.72 C 233.08 46.04 228.24 46.09 223.46 45.45 C 221.00 45.28 220.99 42.47 220.46 40.69 C 219.00 40.74 216.88 39.74 215.92 41.32 Z" />
<path fill="#ffffff" opacity="1.00" d=" M 102.32 74.97 C 106.41 74.42 110.60 74.15 114.68 74.93 C 116.27 75.80 117.69 76.98 118.46 78.67 C 118.65 78.99 119.04 79.63 119.23 79.96 C 119.14 82.92 117.42 85.23 115.07 86.87 C 115.13 87.55 115.26 88.90 115.32 89.57 C 116.02 96.32 116.61 103.09 117.73 109.79 C 119.23 109.49 120.74 109.21 122.23 108.85 C 123.73 105.83 124.32 102.40 126.74 99.89 C 128.04 95.58 129.83 91.25 133.46 88.35 C 140.58 81.93 151.73 80.38 160.26 84.88 C 164.86 81.57 169.59 78.46 174.32 75.34 C 176.98 73.37 180.65 73.15 183.70 74.18 C 186.13 75.58 185.82 78.70 186.26 81.07 C 188.18 81.12 190.10 81.19 192.02 81.29 C 197.79 78.53 202.98 72.44 209.98 74.24 C 213.46 74.93 213.26 78.97 213.39 81.72 C 215.48 81.89 217.62 81.86 219.64 82.48 C 221.12 83.13 221.55 84.91 222.40 86.14 C 230.33 81.40 241.24 82.27 247.82 88.96 C 254.54 86.80 263.48 83.78 269.45 89.05 C 272.18 88.22 275.10 87.45 277.89 88.53 C 282.43 89.75 285.03 94.61 284.81 99.09 C 284.48 102.75 282.33 106.09 279.33 108.14 C 275.54 109.71 271.37 109.26 267.83 107.28 C 267.69 108.89 267.55 110.50 267.43 112.11 C 268.14 112.67 268.84 113.24 269.55 113.83 C 271.96 116.36 271.67 120.24 269.92 123.05 C 267.15 125.31 263.48 125.67 260.05 125.26 C 254.29 124.63 247.83 124.43 243.36 120.24 C 235.22 123.88 224.89 122.93 218.55 116.30 C 211.48 122.24 199.30 122.74 193.49 114.80 C 188.07 119.84 179.79 122.16 172.83 119.09 C 169.74 117.81 167.73 115.02 166.11 112.22 C 158.79 121.38 144.63 124.99 134.45 118.50 C 132.78 120.55 131.20 123.53 128.11 123.32 C 117.48 122.63 107.11 125.67 96.56 126.20 C 94.29 124.98 92.37 122.77 92.54 120.04 C 92.50 117.42 94.84 115.90 96.50 114.28 C 95.83 107.20 94.55 100.19 93.37 93.18 C 93.25 92.50 93.01 91.15 92.90 90.48 C 90.70 89.83 87.95 89.47 86.82 87.16 C 85.53 85.00 86.51 82.48 87.57 80.47 C 89.25 79.11 91.08 77.93 93.08 77.09 C 96.08 76.11 99.19 75.43 102.32 74.97 M 88.08 82.88 C 88.31 83.81 88.62 84.68 89.02 85.49 C 89.38 88.23 92.38 88.44 94.51 88.76 C 94.92 90.14 95.32 91.53 95.70 92.93 C 95.93 94.44 96.13 95.95 96.33 97.46 C 97.02 101.35 97.62 105.26 98.17 109.17 L 98.38 108.87 C 98.21 111.27 98.98 113.78 98.20 116.10 C 97.24 117.33 95.91 118.21 94.70 119.18 C 94.87 120.34 95.04 121.51 95.24 122.68 L 95.61 122.61 L 95.04 122.74 L 97.76 123.87 C 108.32 123.77 118.65 120.42 129.26 121.47 C 130.81 119.33 132.08 116.99 132.92 114.48 C 140.76 122.47 154.80 121.08 162.10 113.07 C 165.94 109.47 167.36 103.92 166.39 98.83 C 166.02 97.43 165.53 96.07 165.08 94.69 L 164.86 94.70 C 164.62 94.19 164.15 93.18 163.92 92.68 C 165.22 92.67 166.52 92.67 167.83 92.68 C 167.71 96.26 167.72 99.86 168.12 103.43 C 168.13 107.59 168.03 112.48 171.44 115.49 C 175.55 119.49 181.97 118.96 186.88 116.86 C 189.36 115.38 191.72 113.55 192.68 110.68 C 192.28 109.18 191.87 107.68 191.45 106.19 C 188.65 106.80 185.23 109.05 183.10 105.98 C 183.08 105.51 183.05 104.57 183.03 104.10 C 183.18 100.30 182.95 96.48 183.39 92.70 C 187.10 92.81 190.80 92.64 194.51 92.46 C 194.83 98.34 194.08 104.24 194.68 110.10 C 195.16 114.00 198.30 116.82 201.69 118.40 C 206.42 118.87 211.80 119.00 215.55 115.54 C 216.71 114.77 217.46 113.10 218.99 113.10 C 220.99 114.78 222.48 117.06 224.86 118.28 C 228.95 121.14 234.75 121.27 239.30 119.45 L 240.03 119.43 C 241.85 118.42 243.62 117.32 245.28 116.05 C 245.25 118.41 246.63 120.21 248.59 121.34 C 249.72 121.61 250.83 121.92 251.95 122.26 C 256.25 122.77 260.60 123.01 264.93 122.79 C 266.51 122.88 267.59 122.19 268.19 120.72 L 268.69 120.62 C 269.53 117.79 268.30 115.00 265.20 114.49 C 265.12 112.34 265.14 110.18 265.31 108.03 C 265.45 106.55 265.57 105.07 265.67 103.58 L 265.79 103.62 L 266.27 102.33 C 267.98 103.44 269.38 104.92 270.71 106.45 C 275.32 108.77 280.31 105.52 281.96 101.07 C 282.17 100.29 282.58 98.73 282.79 97.95 C 282.46 94.36 279.83 91.04 276.00 91.07 C 272.51 90.52 270.03 93.26 267.44 95.06 C 267.25 93.28 267.09 91.49 266.94 89.71 C 260.65 89.02 252.91 88.73 248.09 93.54 L 247.82 93.28 C 247.17 92.31 246.42 91.42 245.69 90.51 C 239.11 84.48 228.11 84.65 221.67 90.82 C 219.97 92.67 218.46 94.71 217.62 97.10 L 217.38 97.10 C 217.00 99.75 215.75 102.59 216.84 105.21 C 216.86 105.68 216.88 106.63 216.90 107.10 C 214.59 107.94 212.24 108.62 209.81 107.79 L 209.72 106.91 C 209.35 102.47 209.63 98.02 209.79 93.57 C 212.55 93.53 215.35 93.85 218.10 93.47 L 218.57 92.15 L 219.23 91.47 C 219.28 89.34 219.23 87.20 219.19 85.07 C 216.24 84.81 213.28 84.65 210.32 84.53 C 210.30 82.01 210.28 79.49 210.21 76.98 C 203.14 75.58 198.34 82.24 192.19 84.36 C 188.97 84.27 185.77 83.99 182.57 83.70 C 183.56 82.37 183.91 79.00 182.31 78.31 L 182.74 76.52 C 180.62 76.66 178.21 76.03 176.38 77.43 C 171.59 80.55 166.72 83.58 162.13 86.99 C 162.07 88.08 162.06 89.18 162.10 90.28 C 162.37 90.63 162.91 91.34 163.18 91.69 C 155.17 81.53 138.24 84.15 131.39 94.32 C 130.08 97.01 129.16 99.92 129.42 102.95 C 128.49 103.11 127.57 103.31 126.65 103.54 C 126.06 106.15 125.24 108.72 124.03 111.11 C 121.09 112.39 117.91 113.34 114.74 112.29 C 114.03 104.19 112.54 96.15 112.15 88.01 C 111.65 85.70 114.03 84.95 115.34 83.63 C 115.68 82.38 115.79 81.09 115.99 79.82 C 114.00 78.22 111.65 77.00 109.01 77.33 C 101.80 77.58 93.91 78.15 88.08 82.88 M 186.05 94.97 C 186.05 98.34 185.99 101.73 186.40 105.09 L 186.41 104.32 C 187.97 103.76 189.59 103.29 191.24 103.03 C 191.56 100.29 191.58 97.52 191.58 94.77 C 189.74 94.86 187.89 94.92 186.05 94.97 M 212.66 95.64 C 212.59 98.75 212.53 101.87 212.37 104.99 C 212.64 104.95 213.18 104.87 213.45 104.84 C 213.23 101.68 213.71 98.55 214.59 95.52 C 214.10 95.55 213.14 95.61 212.66 95.64 Z" />
<path fill="#ffffff" opacity="1.00" d=" M 232.54 93.34 C 233.48 93.45 235.37 93.69 236.31 93.81 C 236.57 94.97 236.81 96.14 237.03 97.32 C 236.97 97.63 236.85 98.25 236.78 98.56 C 234.83 98.29 232.89 98.00 230.95 97.70 C 231.45 96.23 231.99 94.78 232.54 93.34 Z" />
<path fill="#ffffff" opacity="1.00" d=" M 143.76 96.64 C 145.08 95.68 146.65 95.26 148.19 94.82 C 150.61 98.99 152.23 103.72 152.08 108.60 C 151.83 109.09 151.32 110.08 151.07 110.58 C 150.28 110.58 148.71 110.59 147.93 110.60 C 146.69 108.13 145.65 105.56 144.84 102.93 C 144.57 102.01 144.32 101.08 144.11 100.15 C 144.02 99.27 143.85 97.52 143.76 96.64 M 147.00 97.69 C 147.17 100.64 148.07 103.52 149.63 106.03 C 149.06 103.17 148.68 100.15 147.00 97.69 Z" />
<path fill="#ffffff" opacity="1.00" d=" M 249.99 97.61 C 251.83 101.70 250.23 106.23 249.84 110.45 C 249.73 110.99 249.50 112.06 249.39 112.60 C 248.89 112.87 247.91 113.40 247.41 113.66 L 246.42 113.98 C 246.50 113.48 246.68 112.47 246.76 111.97 C 247.21 110.62 245.81 109.65 245.34 108.53 C 242.41 109.78 239.35 111.66 236.03 110.97 C 234.03 110.59 232.62 109.01 231.34 107.57 C 231.17 107.01 230.84 105.88 230.67 105.32 C 236.18 105.42 241.62 106.46 247.13 106.60 C 247.51 106.01 248.29 104.83 248.68 104.24 C 249.35 102.08 249.70 99.84 249.99 97.61 Z" />
</g>
<g id="#00b1f8ff">
<path fill="#00b1f8" opacity="1.00" d=" M 178.75 12.25 C 183.95 12.25 189.15 12.28 194.35 12.20 C 194.56 15.42 194.58 18.64 194.53 21.86 C 189.22 22.02 183.91 21.99 178.60 21.90 C 178.66 18.69 178.63 15.47 178.75 12.25 Z" />
</g>
<g id="#dc4c37ff">
<path fill="#dc4c37" opacity="1.00" d=" M 53.71 31.45 C 58.36 25.00 63.19 18.54 69.41 13.50 C 70.69 16.98 71.47 20.73 73.89 23.66 C 71.79 26.39 70.60 29.71 68.52 32.44 C 65.04 35.24 61.16 37.51 57.61 40.22 C 56.50 37.22 55.21 34.28 53.71 31.45 Z" />
</g>
<g id="#f47c35ff">
<path fill="#f47c35" opacity="1.00" d=" M 80.45 24.32 C 85.99 18.44 94.05 15.21 102.10 15.30 C 100.63 17.38 99.26 19.52 98.01 21.74 C 96.62 22.02 95.23 22.35 93.87 22.75 C 89.45 27.32 88.71 33.91 88.99 39.97 C 88.28 52.15 97.66 64.04 109.59 66.42 C 114.52 67.47 119.56 66.64 124.52 66.37 C 121.88 69.89 118.43 72.68 114.68 74.93 C 110.60 74.15 106.41 74.42 102.32 74.97 C 97.75 72.24 92.79 69.88 89.26 65.76 C 82.03 57.39 78.02 46.08 79.29 35.00 C 79.74 31.44 81.05 27.94 80.45 24.32 Z" />
</g>
<g id="#f89c33ff">
<path fill="#f89c33" opacity="1.00" d=" M 102.10 15.30 C 107.03 15.70 111.93 16.99 116.19 19.57 C 113.06 19.98 110.01 20.83 107.22 22.30 C 104.20 21.67 101.09 21.51 98.01 21.74 C 99.26 19.52 100.63 17.38 102.10 15.30 Z" />
<path fill="#f89c33" opacity="1.00" d=" M 93.87 22.75 C 98.40 22.32 103.05 22.50 107.34 24.15 C 103.64 27.54 99.74 31.62 99.84 37.02 C 98.83 43.91 102.31 51.36 108.95 54.02 C 113.27 56.41 118.22 55.17 122.80 54.48 C 122.03 57.55 120.69 60.43 119.42 63.31 C 121.43 60.42 123.15 57.31 124.22 53.94 C 127.57 52.79 129.32 49.67 131.03 46.81 C 130.94 53.80 128.74 60.78 124.52 66.37 C 119.56 66.64 114.52 67.47 109.59 66.42 C 97.66 64.04 88.28 52.15 88.99 39.97 C 88.71 33.91 89.45 27.32 93.87 22.75 Z" />
</g>
<g id="#302d2dff">
<path fill="#302d2d" opacity="1.00" d=" M 242.20 25.96 C 242.50 22.54 242.48 19.06 243.50 15.75 C 243.32 21.89 242.61 27.99 242.15 34.11 C 241.88 37.36 241.64 40.60 241.35 43.85 C 241.02 47.53 240.75 51.22 240.45 54.90 C 240.15 58.34 239.84 61.78 239.59 65.23 C 244.41 65.76 249.24 66.14 254.05 66.83 C 253.85 67.28 253.46 68.17 253.26 68.61 C 248.56 68.86 243.92 67.99 239.27 67.50 C 239.03 65.33 239.05 63.15 239.27 60.99 C 240.30 49.32 241.19 37.63 242.20 25.96 Z" />
</g>
<g id="#00a5f6ff">
<path fill="#00a5f6" opacity="1.00" d=" M 243.50 15.75 C 248.64 16.43 253.81 16.88 258.98 17.40 C 258.72 23.03 257.95 28.61 257.41 34.21 C 252.35 35.05 247.17 35.35 242.15 34.11 C 242.61 27.99 243.32 21.89 243.50 15.75 Z" />
</g>
<g id="#fab32eff">
<path fill="#fab32e" opacity="1.00" d=" M 107.22 22.30 C 110.01 20.83 113.06 19.98 116.19 19.57 C 125.41 25.35 131.06 35.97 131.03 46.81 C 129.32 49.67 127.57 52.79 124.22 53.94 C 125.71 47.57 125.31 40.61 122.18 34.78 C 119.17 28.79 113.62 24.26 107.22 22.30 Z" />
</g>
<g id="#45628bff">
<path fill="#45628b" opacity="1.00" d=" M 235.63 29.03 C 236.04 25.78 235.82 22.20 237.86 19.43 L 239.74 18.96 C 239.36 23.31 238.98 27.65 238.72 32.00 C 237.70 31.00 236.70 29.98 235.63 29.03 Z" />
<path fill="#45628b" opacity="1.00" d=" M 210.91 65.82 C 215.67 66.29 220.46 66.40 225.25 66.40 C 220.65 67.93 215.35 67.75 210.91 65.82 Z" />
<path fill="#45628b" opacity="1.00" d=" M 143.76 96.64 C 144.23 94.04 146.92 94.28 148.95 94.16 C 149.07 94.40 149.32 94.89 149.44 95.14 C 150.09 96.74 150.68 98.37 151.17 100.03 C 151.60 101.72 151.97 103.42 152.25 105.14 C 152.24 106.30 152.20 107.45 152.08 108.60 C 152.23 103.72 150.61 98.99 148.19 94.82 C 146.65 95.26 145.08 95.68 143.76 96.64 Z" />
<path fill="#45628b" opacity="1.00" d=" M 224.86 118.28 C 229.56 119.57 234.45 119.70 239.30 119.45 C 234.75 121.27 228.95 121.14 224.86 118.28 Z" />
</g>
<g id="#222025fe">
<path fill="#222025" opacity="1.00" d=" M 178.60 21.90 C 183.91 21.99 189.22 22.02 194.53 21.86 C 194.48 22.53 194.38 23.88 194.33 24.56 C 189.20 24.48 184.06 24.84 178.94 24.40 C 178.86 23.78 178.69 22.53 178.60 21.90 Z" />
</g>
<g id="#f15e37ff">
<path fill="#f15e37" opacity="1.00" d=" M 80.45 24.32 C 81.05 27.94 79.74 31.44 79.29 35.00 C 78.02 46.08 82.03 57.39 89.26 65.76 C 92.79 69.88 97.75 72.24 102.32 74.97 C 99.19 75.43 96.08 76.11 93.08 77.09 C 90.90 76.25 88.72 75.40 86.64 74.34 C 85.23 73.35 83.86 72.32 82.56 71.20 C 81.03 69.80 79.55 68.34 78.20 66.77 C 76.36 64.09 74.85 61.18 73.61 58.18 C 72.72 55.76 72.08 53.25 71.65 50.70 C 71.32 45.88 72.04 41.06 72.83 36.32 C 74.80 31.99 77.01 27.68 80.45 24.32 Z" />
</g>
<g id="#fabc2cff">
<path fill="#fabc2c" opacity="1.00" d=" M 99.84 37.02 C 99.74 31.62 103.64 27.54 107.34 24.15 C 119.03 28.82 125.47 42.36 122.80 54.48 C 118.22 55.17 113.27 56.41 108.95 54.02 C 102.31 51.36 98.83 43.91 99.84 37.02 Z" />
</g>
<g id="#0099f4ff">
<path fill="#0099f4" opacity="1.00" d=" M 211.48 26.74 C 218.21 25.52 225.57 25.99 231.62 29.41 C 236.28 31.94 239.51 36.87 239.36 42.26 C 234.46 41.90 229.55 41.57 224.67 41.03 C 223.97 38.35 222.22 35.74 219.11 35.93 C 215.22 35.17 212.74 38.69 212.23 42.09 C 207.41 42.19 202.59 42.36 197.78 41.95 C 197.74 41.55 197.66 40.74 197.62 40.34 C 198.61 33.45 204.83 28.13 211.48 26.74 Z" />
<path fill="#0099f4" opacity="1.00" d=" M 132.71 28.85 C 137.87 28.50 143.02 28.16 148.16 27.61 C 148.11 32.02 148.49 36.41 148.75 40.80 C 143.82 40.76 138.71 41.75 133.92 40.14 C 133.75 38.05 133.47 35.97 133.20 33.89 C 132.98 32.22 132.84 30.54 132.71 28.85 Z" />
</g>
<g id="#009df4ff">
<path fill="#009df4" opacity="1.00" d=" M 158.68 27.09 C 163.79 26.83 168.90 26.83 173.99 26.36 L 174.00 27.11 C 174.04 29.74 174.09 32.37 174.14 35.00 C 173.41 35.65 172.69 36.30 171.97 36.95 C 168.01 36.92 164.06 36.99 160.11 37.14 C 160.07 40.11 160.10 43.07 159.96 46.03 C 159.77 47.41 159.55 48.78 159.24 50.14 C 159.65 42.45 158.47 34.79 158.68 27.09 Z" />
<path fill="#009df4" opacity="1.00" d=" M 178.89 26.41 C 184.03 26.44 189.18 26.36 194.33 26.45 C 194.22 29.27 194.17 32.09 194.15 34.92 C 193.40 35.60 192.66 36.28 191.92 36.96 C 187.61 36.97 183.30 37.03 179.00 37.14 C 178.98 36.79 178.94 36.09 178.92 35.74 C 178.74 32.64 178.77 29.52 178.89 26.41 Z" />
</g>
<g id="#241818fe">
<path fill="#241818" opacity="1.00" d=" M 174.00 27.11 C 175.11 37.69 174.37 48.38 175.07 59.00 C 175.26 61.16 175.04 63.33 174.54 65.44 C 170.27 65.39 166.01 65.56 161.74 65.58 C 161.62 65.06 161.40 64.00 161.28 63.48 C 165.75 63.34 170.22 63.19 174.69 63.06 C 174.69 57.39 174.37 51.74 174.30 46.07 C 174.25 42.38 174.18 38.69 174.14 35.00 C 174.09 32.37 174.04 29.74 174.00 27.11 Z" />
<path fill="#241818" opacity="1.00" d=" M 148.16 27.61 C 149.57 34.41 149.15 41.43 149.89 48.31 C 150.21 49.74 150.83 51.18 150.46 52.67 L 150.45 52.74 C 148.48 49.09 149.18 44.79 148.75 40.80 C 148.49 36.41 148.11 32.02 148.16 27.61 Z" />
<path fill="#241818" opacity="1.00" d=" M 133.20 33.89 C 133.47 35.97 133.75 38.05 133.92 40.14 C 133.54 44.23 135.21 48.19 134.84 52.34 C 135.12 57.12 137.15 62.28 141.88 64.22 C 148.98 67.39 157.14 64.08 161.68 58.20 C 161.58 58.86 161.38 60.18 161.28 60.84 C 156.58 68.21 144.72 70.21 138.63 63.51 C 134.22 58.62 135.30 51.64 133.56 45.76 C 132.96 41.83 133.73 37.84 133.20 33.89 Z" />
<path fill="#241818" opacity="1.00" d=" M 269.37 44.57 C 274.04 41.21 278.68 37.81 283.42 34.56 C 282.91 35.85 282.33 37.20 281.05 37.90 C 277.11 40.67 273.22 43.50 269.39 46.41 C 269.38 45.95 269.37 45.03 269.37 44.57 Z" />
<path fill="#241818" opacity="1.00" d=" M 212.23 42.09 C 212.74 38.69 215.22 35.17 219.11 35.93 C 222.22 35.74 223.97 38.35 224.67 41.03 C 229.55 41.57 234.46 41.90 239.36 42.26 C 239.12 42.85 238.64 44.03 238.40 44.62 C 235.62 44.47 232.81 44.42 230.08 43.86 C 228.05 43.69 226.02 43.57 223.99 43.39 C 223.62 42.10 223.61 40.55 222.48 39.63 C 220.62 37.79 217.81 38.67 215.48 38.50 C 211.53 41.44 212.01 46.73 212.54 51.06 C 212.06 48.09 211.99 45.08 212.23 42.09 Z" />
<path fill="#241818" opacity="1.00" d=" M 208.01 65.02 C 198.94 60.75 195.05 49.70 197.62 40.34 C 197.66 40.74 197.74 41.55 197.78 41.95 C 197.79 44.93 197.49 47.94 198.03 50.89 C 200.09 57.68 205.90 63.13 213.00 64.22 C 222.22 66.37 234.56 63.96 238.04 53.96 C 237.02 60.33 231.51 65.38 225.25 66.40 C 220.46 66.40 215.67 66.29 210.91 65.82 C 209.93 65.58 208.96 65.32 208.01 65.02 Z" />
<path fill="#241818" opacity="1.00" d=" M 256.99 54.17 C 257.36 54.41 258.11 54.90 258.48 55.14 C 260.38 59.37 261.83 63.84 264.23 67.82 C 269.56 69.31 275.17 69.51 280.60 70.51 C 280.29 71.07 279.68 72.19 279.37 72.75 C 277.93 72.47 276.49 72.18 275.07 71.83 C 271.21 71.48 267.43 70.60 263.56 70.35 C 261.27 65.89 259.51 61.19 257.25 56.72 C 256.65 56.99 255.47 57.54 254.88 57.81 C 254.64 60.16 254.41 62.52 254.15 64.86 C 254.42 61.17 254.16 57.01 256.99 54.17 Z" />
<path fill="#241818" opacity="1.00" d=" M 89.02 85.49 C 90.78 85.97 92.56 86.41 94.35 86.84 C 94.76 88.46 95.17 90.09 95.49 91.73 L 95.70 92.93 C 95.32 91.53 94.92 90.14 94.51 88.76 C 92.38 88.44 89.38 88.23 89.02 85.49 Z" />
<path fill="#241818" opacity="1.00" d=" M 209.56 91.94 C 212.69 90.95 216.01 91.42 219.23 91.47 L 218.57 92.15 C 215.57 92.45 212.55 92.24 209.56 91.94 Z" />
<path fill="#241818" opacity="1.00" d=" M 143.06 93.91 C 144.61 93.09 146.26 92.29 148.06 92.74 C 148.29 93.10 148.73 93.81 148.95 94.16 C 146.92 94.28 144.23 94.04 143.76 96.64 C 143.85 97.52 144.02 99.27 144.11 100.15 C 143.62 98.10 143.34 96.00 143.06 93.91 Z" />
<path fill="#241818" opacity="1.00" d=" M 194.51 92.46 L 194.77 92.45 C 194.78 94.95 194.77 97.45 194.75 99.94 C 194.71 102.61 194.63 105.27 194.71 107.93 C 195.16 111.81 198.02 115.12 201.75 116.23 C 207.90 117.84 215.49 116.08 218.83 110.26 C 224.02 119.13 236.88 120.98 244.90 114.95 C 245.83 114.19 246.24 113.01 246.76 111.97 C 246.68 112.47 246.50 113.48 246.42 113.98 C 245.78 116.20 246.56 118.69 249.04 119.23 C 255.15 121.14 261.87 122.26 268.19 120.72 C 267.59 122.19 266.51 122.88 264.93 122.79 C 260.60 123.01 256.25 122.77 251.95 122.26 C 250.83 121.92 249.72 121.61 248.59 121.34 C 246.63 120.21 245.25 118.41 245.28 116.05 C 243.62 117.32 241.85 118.42 240.03 119.43 L 239.30 119.45 C 234.45 119.70 229.56 119.57 224.86 118.28 C 222.48 117.06 220.99 114.78 218.99 113.10 C 217.46 113.10 216.71 114.77 215.55 115.54 C 211.80 119.00 206.42 118.87 201.69 118.40 C 198.30 116.82 195.16 114.00 194.68 110.10 C 194.08 104.24 194.83 98.34 194.51 92.46 Z" />
<path fill="#241818" opacity="1.00" d=" M 266.27 102.33 C 266.58 101.56 266.94 100.80 267.30 100.04 C 269.49 102.18 271.56 105.27 275.00 105.14 C 277.95 105.28 280.19 103.15 281.96 101.07 C 280.31 105.52 275.32 108.77 270.71 106.45 C 269.38 104.92 267.98 103.44 266.27 102.33 Z" />
<path fill="#241818" opacity="1.00" d=" M 168.12 103.43 L 168.25 102.77 C 168.24 103.35 168.20 104.51 168.18 105.09 C 168.38 107.12 168.69 109.14 169.10 111.14 C 170.32 114.09 173.51 115.09 176.13 116.39 C 178.20 117.80 180.75 117.49 182.84 116.33 C 186.30 115.33 189.34 113.37 192.07 111.06 L 192.68 110.68 C 191.72 113.55 189.36 115.38 186.88 116.86 C 181.97 118.96 175.55 119.49 171.44 115.49 C 168.03 112.48 168.13 107.59 168.12 103.43 Z" />
</g>
<g id="#3b3333fe">
<path fill="#3b3333" opacity="1.00" d=" M 194.33 26.45 C 194.66 37.30 194.13 48.16 194.21 59.02 C 194.25 61.16 194.10 63.31 193.60 65.39 C 188.91 65.27 184.23 65.33 179.55 65.36 C 179.08 55.50 178.92 45.61 178.92 35.74 C 178.94 36.09 178.98 36.79 179.00 37.14 C 179.15 40.11 179.14 43.09 179.17 46.07 C 179.45 51.69 179.19 57.33 179.63 62.94 L 180.12 63.80 C 184.64 64.11 189.19 64.07 193.72 63.74 L 193.77 62.98 C 193.99 56.30 194.01 49.61 194.09 42.93 C 194.15 40.26 194.12 37.59 194.15 34.92 C 194.17 32.09 194.22 29.27 194.33 26.45 Z" />
<path fill="#3b3333" opacity="1.00" d=" M 209.52 91.94 L 209.56 91.94 C 212.55 92.24 215.57 92.45 218.57 92.15 L 218.10 93.47 C 215.35 93.85 212.55 93.53 209.79 93.57 C 209.63 98.02 209.35 102.47 209.72 106.91 C 209.48 104.58 209.33 102.24 209.37 99.90 C 209.44 97.25 209.54 94.59 209.52 91.94 Z" />
<path fill="#3b3333" opacity="1.00" d=" M 166.39 98.83 C 167.36 103.92 165.94 109.47 162.10 113.07 C 154.80 121.08 140.76 122.47 132.92 114.48 C 132.08 116.99 130.81 119.33 129.26 121.47 C 118.65 120.42 108.32 123.77 97.76 123.87 L 95.04 122.74 L 95.61 122.61 C 95.85 122.55 96.35 122.45 96.60 122.40 C 103.69 121.52 110.75 120.35 117.85 119.54 C 121.52 119.03 125.30 119.84 128.91 119.02 C 130.62 117.05 131.37 114.50 132.34 112.13 C 139.97 120.53 153.90 119.01 161.52 111.40 C 163.19 109.53 164.60 107.43 165.63 105.14 C 165.94 103.44 166.14 101.72 166.31 100.00 L 166.39 98.83 Z" />
</g>
<g id="#4b6891e7">
<path fill="#4b6891" opacity="0.91" d=" M 152.20 28.75 C 156.11 35.69 154.45 43.90 155.48 51.47 C 154.97 51.23 153.95 50.75 153.45 50.51 C 152.17 43.36 152.07 36.00 152.20 28.75 Z" />
</g>
<g id="#c74037ff">
<path fill="#c74037" opacity="1.00" d=" M 38.09 56.97 C 42.98 48.27 47.92 39.58 53.71 31.45 C 55.21 34.28 56.50 37.22 57.61 40.22 C 50.54 45.10 44.01 50.73 38.09 56.97 Z" />
</g>
<g id="#0093f3ff">
<path fill="#0093f3" opacity="1.00" d=" M 256.75 41.27 C 260.60 38.28 264.00 34.78 267.73 31.66 C 273.14 32.61 278.60 33.23 284.02 34.15 L 283.42 34.56 C 278.68 37.81 274.04 41.21 269.37 44.57 C 260.08 43.30 250.69 44.34 241.35 43.85 C 241.64 40.60 241.88 37.36 242.15 34.11 C 247.17 35.35 252.35 35.05 257.41 34.21 C 257.14 36.56 256.91 38.91 256.75 41.27 Z" />
</g>
<g id="#018ef2ff">
<path fill="#018ef2" opacity="1.00" d=" M 171.97 36.95 C 172.69 36.30 173.41 35.65 174.14 35.00 C 174.18 38.69 174.25 42.38 174.30 46.07 C 169.52 46.23 164.74 46.22 159.96 46.03 C 160.10 43.07 160.07 40.11 160.11 37.14 C 164.06 36.99 168.01 36.92 171.97 36.95 Z" />
<path fill="#018ef2" opacity="1.00" d=" M 191.92 36.96 C 192.66 36.28 193.40 35.60 194.15 34.92 C 194.12 37.59 194.15 40.26 194.09 42.93 C 193.28 44.13 192.80 46.06 191.00 45.95 C 187.07 46.38 183.11 46.07 179.17 46.07 C 179.14 43.09 179.15 40.11 179.00 37.14 C 183.30 37.03 187.61 36.97 191.92 36.96 Z" />
</g>
<g id="#d74338ff">
<path fill="#d74338" opacity="1.00" d=" M 55.72 48.43 C 61.26 44.17 66.98 40.14 72.83 36.32 C 72.04 41.06 71.32 45.88 71.65 50.70 C 66.80 52.79 62.74 56.19 58.53 59.29 C 58.91 56.00 59.00 52.70 58.91 49.39 C 58.11 49.15 56.51 48.67 55.72 48.43 Z" />
</g>
<g id="#09254cff">
<path fill="#09254c" opacity="1.00" d=" M 272.27 47.17 C 276.37 43.84 280.74 40.86 285.11 37.90 C 281.32 41.70 277.03 44.95 272.61 47.99 C 272.52 47.79 272.35 47.38 272.27 47.17 Z" />
<path fill="#09254c" opacity="1.00" d=" M 215.92 41.32 C 216.88 39.74 219.00 40.74 220.46 40.69 C 220.99 42.47 221.00 45.28 223.46 45.45 C 228.24 46.09 233.08 46.04 237.86 46.72 C 237.16 47.54 236.47 48.90 235.10 48.22 C 231.05 48.04 227.02 47.34 222.98 47.56 C 221.23 47.69 220.67 49.61 219.72 50.74 C 219.02 49.10 218.27 47.49 217.51 45.88 L 215.90 46.81 C 215.80 45.28 215.69 43.75 215.61 42.21 L 215.92 41.32 Z" />
</g>
<g id="#0186f1ff">
<path fill="#0186f1" opacity="1.00" d=" M 133.92 40.14 C 138.71 41.75 143.82 40.76 148.75 40.80 C 149.18 44.79 148.48 49.09 150.45 52.74 L 150.55 53.05 C 145.31 53.02 140.04 53.14 134.84 52.34 C 135.21 48.19 133.54 44.23 133.92 40.14 Z" />
</g>
<g id="#0179eeff">
<path fill="#0179ee" opacity="1.00" d=" M 197.78 41.95 C 202.59 42.36 207.41 42.19 212.23 42.09 C 211.99 45.08 212.06 48.09 212.54 51.06 C 213.87 56.51 223.36 56.38 223.74 50.45 C 228.73 50.67 233.71 51.17 238.69 51.54 C 238.53 52.14 238.20 53.36 238.04 53.96 C 234.56 63.96 222.22 66.37 213.00 64.22 C 205.90 63.13 200.09 57.68 198.03 50.89 C 197.49 47.94 197.79 44.93 197.78 41.95 Z" />
</g>
<g id="#017befff">
<path fill="#017bef" opacity="1.00" d=" M 191.00 45.95 C 192.80 46.06 193.28 44.13 194.09 42.93 C 194.01 49.61 193.99 56.30 193.77 62.98 C 189.06 62.92 184.34 62.94 179.63 62.94 C 179.19 57.33 179.45 51.69 179.17 46.07 C 183.11 46.07 187.07 46.38 191.00 45.95 Z" />
</g>
<g id="#0182f0ff">
<path fill="#0182f0" opacity="1.00" d=" M 241.35 43.85 C 250.69 44.34 260.08 43.30 269.37 44.57 C 269.37 45.03 269.38 45.95 269.39 46.41 C 270.54 49.58 272.37 52.46 273.62 55.60 C 268.61 54.73 263.53 55.12 258.48 55.14 C 258.11 54.90 257.36 54.41 256.99 54.17 C 251.54 55.21 245.98 55.12 240.45 54.90 C 240.75 51.22 241.02 47.53 241.35 43.85 Z" />
</g>
<g id="#0178eeff">
<path fill="#0178ee" opacity="1.00" d=" M 159.96 46.03 C 164.74 46.22 169.52 46.23 174.30 46.07 C 174.37 51.74 174.69 57.39 174.69 63.06 C 170.22 63.19 165.75 63.34 161.28 63.48 C 161.28 62.82 161.28 61.50 161.28 60.84 C 161.38 60.18 161.58 58.86 161.68 58.20 C 157.14 64.08 148.98 67.39 141.88 64.22 C 137.15 62.28 135.12 57.12 134.84 52.34 C 140.04 53.14 145.31 53.02 150.55 53.05 L 150.45 52.74 L 150.46 52.67 C 153.30 55.36 158.45 54.09 159.24 50.14 C 159.55 48.78 159.77 47.41 159.96 46.03 Z" />
</g>
<g id="#e14b37ff">
<path fill="#e14b37" opacity="1.00" d=" M 33.91 67.77 C 40.60 60.71 48.03 54.38 55.72 48.43 C 56.51 48.67 58.11 49.15 58.91 49.39 C 59.00 52.70 58.91 56.00 58.53 59.29 C 53.44 63.24 48.20 67.13 44.01 72.07 C 49.06 69.80 53.81 66.94 58.81 64.57 C 59.28 64.76 60.20 65.15 60.66 65.34 C 60.93 67.72 61.06 70.12 61.21 72.51 C 54.30 75.10 47.65 78.37 41.25 82.04 C 40.72 77.42 40.60 72.76 40.89 68.12 C 38.57 68.00 36.24 67.88 33.91 67.77 Z" />
</g>
<g id="#c03438ff">
<path fill="#c03438" opacity="1.00" d=" M 58.53 59.29 C 62.74 56.19 66.80 52.79 71.65 50.70 C 72.08 53.25 72.72 55.76 73.61 58.18 C 68.86 60.74 63.56 62.02 58.81 64.57 C 53.81 66.94 49.06 69.80 44.01 72.07 C 48.20 67.13 53.44 63.24 58.53 59.29 Z" />
</g>
<g id="#0173edff">
<path fill="#0173ed" opacity="1.00" d=" M 240.45 54.90 C 245.98 55.12 251.54 55.21 256.99 54.17 C 254.16 57.01 254.42 61.17 254.15 64.86 C 254.12 65.36 254.07 66.34 254.05 66.83 C 249.24 66.14 244.41 65.76 239.59 65.23 C 239.84 61.78 240.15 58.34 240.45 54.90 Z" />
</g>
<g id="#0170edff">
<path fill="#0170ed" opacity="1.00" d=" M 258.48 55.14 C 263.53 55.12 268.61 54.73 273.62 55.60 L 273.90 55.64 C 275.94 60.68 278.53 65.48 280.60 70.51 C 275.17 69.51 269.56 69.31 264.23 67.82 C 261.83 63.84 260.38 59.37 258.48 55.14 Z" />
</g>
<g id="#d54238ff">
<path fill="#d54238" opacity="1.00" d=" M 73.61 58.18 C 74.85 61.18 76.36 64.09 78.20 66.77 C 73.00 69.51 67.75 72.25 63.11 75.91 C 69.58 74.27 76.13 72.99 82.56 71.20 C 83.86 72.32 85.23 73.35 86.64 74.34 C 77.71 76.23 68.84 78.45 60.24 81.53 C 59.89 79.16 59.54 76.80 59.16 74.43 C 61.10 73.32 63.05 72.24 64.99 71.14 C 63.73 71.59 62.47 72.04 61.21 72.51 C 61.06 70.12 60.93 67.72 60.66 65.34 C 60.20 65.15 59.28 64.76 58.81 64.57 C 63.56 62.02 68.86 60.74 73.61 58.18 Z" />
</g>
<g id="#09264eff">
<path fill="#09264e" opacity="1.00" d=" M 197.18 58.44 C 204.83 70.01 222.01 71.96 233.51 65.33 C 233.17 66.21 232.83 67.09 232.50 67.97 C 222.19 75.89 205.43 74.42 197.18 64.15 C 196.55 66.31 197.34 69.56 194.98 70.82 C 190.05 71.67 185.01 71.07 180.04 71.07 C 173.66 70.85 167.21 72.48 160.90 70.95 C 154.40 74.17 146.02 74.58 140.33 69.48 C 138.70 67.80 137.25 65.96 135.90 64.05 C 141.55 70.88 151.77 70.80 159.02 66.72 C 164.98 68.52 171.43 67.42 177.52 66.71 C 183.88 67.42 190.43 67.60 196.75 66.48 C 197.01 63.81 197.14 61.12 197.18 58.44 Z" />
</g>
<g id="#fbae30ff">
<path fill="#fbae30" opacity="1.00" d=" M 128.61 69.78 C 130.72 66.97 132.30 63.82 133.73 60.63 L 134.50 61.91 C 134.85 62.45 135.55 63.51 135.90 64.05 C 137.25 65.96 138.70 67.80 140.33 69.48 C 138.23 73.13 135.89 76.65 133.02 79.74 C 131.37 76.51 129.91 73.18 128.61 69.78 Z" />
</g>
<g id="#1d0f14fe">
<path fill="#1d0f14" opacity="1.00" d=" M 179.63 62.94 C 184.34 62.94 189.06 62.92 193.77 62.98 L 193.72 63.74 C 189.19 64.07 184.64 64.11 180.12 63.80 L 179.63 62.94 Z" />
</g>
<g id="#09264dff">
<path fill="#09264d" opacity="1.00" d=" M 257.13 62.80 C 259.11 66.11 259.35 72.00 264.11 72.38 C 270.04 72.87 275.91 74.94 281.88 74.32 C 278.53 76.08 275.08 78.88 271.06 77.84 C 266.72 77.12 262.34 76.63 258.02 75.78 C 255.78 75.62 255.19 73.12 254.06 71.60 C 252.18 72.75 250.48 74.83 248.06 74.57 C 243.62 74.18 239.14 73.90 234.75 73.07 C 232.27 72.74 232.35 69.86 232.50 67.97 C 232.83 67.09 233.17 66.21 233.51 65.33 C 234.37 64.60 235.20 63.83 236.06 63.10 C 235.93 64.18 235.67 66.34 235.54 67.43 C 238.32 70.27 242.49 69.67 246.08 70.21 C 248.92 70.32 251.83 71.28 254.65 70.63 C 257.20 69.03 256.39 65.34 257.13 62.80 Z" />
</g>
<g id="#bb3337ff">
<path fill="#bb3337" opacity="1.00" d=" M 63.11 75.91 C 67.75 72.25 73.00 69.51 78.20 66.77 C 79.55 68.34 81.03 69.80 82.56 71.20 C 76.13 72.99 69.58 74.27 63.11 75.91 Z" />
</g>
<g id="#ec5437ff">
<path fill="#ec5437" opacity="1.00" d=" M 19.44 85.36 C 23.81 79.14 28.73 73.32 33.91 67.77 C 36.24 67.88 38.57 68.00 40.89 68.12 C 40.60 72.76 40.72 77.42 41.25 82.04 C 33.75 86.37 26.73 91.50 20.15 97.11 C 20.30 93.18 20.12 89.24 19.44 85.36 Z" />
</g>
<g id="#f89032ff">
<path fill="#f89032" opacity="1.00" d=" M 118.46 78.67 C 122.55 76.62 125.83 73.34 128.61 69.78 C 129.91 73.18 131.37 76.51 133.02 79.74 C 130.38 82.65 127.14 84.90 124.14 87.41 C 122.68 84.81 120.98 82.36 119.23 79.96 C 119.04 79.63 118.65 78.99 118.46 78.67 Z" />
</g>
<g id="#e04a37ff">
<path fill="#e04a37" opacity="1.00" d=" M 12.06 107.90 C 26.28 94.85 42.58 84.23 59.16 74.43 C 59.54 76.80 59.89 79.16 60.24 81.53 C 42.91 87.68 26.59 96.65 12.06 107.90 Z" />
</g>
<g id="#fab71dff">
<path fill="#fab71d" opacity="1.00" d=" M 88.08 82.88 C 93.91 78.15 101.80 77.58 109.01 77.33 C 111.65 77.00 114.00 78.22 115.99 79.82 C 114.41 81.23 112.67 82.49 111.30 84.12 C 110.93 86.66 111.35 89.23 111.60 91.77 C 106.23 91.53 100.86 91.55 95.49 91.73 C 95.17 90.09 94.76 88.46 94.35 86.84 C 92.56 86.41 90.78 85.97 89.02 85.49 C 88.62 84.68 88.31 83.81 88.08 82.88 Z" />
</g>
<g id="#fab11cff">
<path fill="#fab11c" opacity="1.00" d=" M 176.38 77.43 C 178.21 76.03 180.62 76.66 182.74 76.52 L 182.31 78.31 C 181.79 80.05 181.78 81.90 182.19 83.66 L 182.57 83.70 C 185.77 83.99 188.97 84.27 192.19 84.36 C 198.34 82.24 203.14 75.58 210.21 76.98 C 210.28 79.49 210.30 82.01 210.32 84.53 C 213.28 84.65 216.24 84.81 219.19 85.07 C 219.23 87.20 219.28 89.34 219.23 91.47 C 216.01 91.42 212.69 90.95 209.56 91.94 L 209.52 91.94 C 204.60 91.85 199.68 91.76 194.76 91.74 C 194.74 91.34 194.70 90.55 194.68 90.15 C 190.91 90.35 187.16 90.63 183.39 90.62 C 183.20 90.90 182.83 91.47 182.64 91.76 C 177.70 91.83 172.66 92.27 167.84 90.90 C 165.96 90.48 164.01 90.44 162.10 90.28 C 162.06 89.18 162.07 88.08 162.13 86.99 C 166.72 83.58 171.59 80.55 176.38 77.43 Z" />
</g>
<g id="#d8ab44ff">
<path fill="#d8ab44" opacity="1.00" d=" M 182.31 78.31 C 183.91 79.00 183.56 82.37 182.57 83.70 L 182.19 83.66 C 181.78 81.90 181.79 80.05 182.31 78.31 Z" />
</g>
<g id="#3d1815fe">
<path fill="#3d1815" opacity="1.00" d=" M 115.99 79.82 C 115.79 81.09 115.68 82.38 115.34 83.63 C 114.03 84.95 111.65 85.70 112.15 88.01 C 112.54 96.15 114.03 104.19 114.74 112.29 C 114.36 110.74 113.98 109.20 113.67 107.64 C 113.03 104.25 112.69 100.82 112.32 97.40 C 112.10 95.52 111.84 93.64 111.60 91.77 C 111.35 89.23 110.93 86.66 111.30 84.12 C 112.67 82.49 114.41 81.23 115.99 79.82 Z" />
<path fill="#3d1815" opacity="1.00" d=" M 162.10 90.28 C 164.01 90.44 165.96 90.48 167.84 90.90 C 167.84 91.35 167.83 92.24 167.83 92.68 C 166.52 92.67 165.22 92.67 163.92 92.68 C 163.73 92.43 163.37 91.94 163.18 91.69 C 162.91 91.34 162.37 90.63 162.10 90.28 Z" />
<path fill="#3d1815" opacity="1.00" d=" M 183.39 90.62 C 187.16 90.63 190.91 90.35 194.68 90.15 C 194.70 90.55 194.74 91.34 194.76 91.74 L 194.77 92.45 L 194.51 92.46 C 190.80 92.64 187.10 92.81 183.39 92.70 C 182.95 96.48 183.18 100.30 183.03 104.10 C 182.96 102.71 182.89 101.31 182.85 99.93 C 182.77 97.20 182.73 94.48 182.64 91.76 C 182.83 91.47 183.20 90.90 183.39 90.62 Z" />
<path fill="#3d1815" opacity="1.00" d=" M 232.79 91.21 C 233.64 91.21 235.35 91.22 236.20 91.23 C 237.17 92.91 237.94 94.77 237.16 96.72 L 237.03 97.32 C 236.81 96.14 236.57 94.97 236.31 93.81 C 235.37 93.69 233.48 93.45 232.54 93.34 C 231.99 94.78 231.45 96.23 230.95 97.70 L 230.83 97.68 C 231.15 95.43 231.74 93.23 232.79 91.21 Z" />
<path fill="#3d1815" opacity="1.00" d=" M 247.82 93.28 L 248.09 93.54 C 249.36 94.80 250.61 96.08 251.93 97.29 C 251.73 99.21 251.57 101.13 251.37 103.05 C 251.15 104.93 250.78 106.78 250.32 108.61 C 250.20 109.07 249.96 109.99 249.84 110.45 C 250.23 106.23 251.83 101.70 249.99 97.61 L 249.78 97.06 C 249.16 95.78 248.54 94.51 247.82 93.28 Z" />
</g>
<g id="#8a0000ff">
<path fill="#8a0000" opacity="1.00" d=" M 119.23 79.96 C 120.98 82.36 122.68 84.81 124.14 87.41 C 123.29 89.48 121.91 91.25 120.29 92.76 C 120.43 94.41 120.59 96.05 120.74 97.70 C 120.55 97.57 120.16 97.30 119.96 97.16 C 121.47 93.31 118.02 91.29 115.32 89.57 C 115.26 88.90 115.13 87.55 115.07 86.87 C 117.42 85.23 119.14 82.92 119.23 79.96 Z" />
</g>
<g id="#d14637ff">
<path fill="#d14637" opacity="1.00" d=" M 72.63 83.41 C 77.53 82.12 82.44 80.36 87.57 80.47 C 86.51 82.48 85.53 85.00 86.82 87.16 C 87.95 89.47 90.70 89.83 92.90 90.48 C 93.01 91.15 93.25 92.50 93.37 93.18 C 88.97 92.14 84.78 90.30 80.27 89.78 C 78.40 89.32 76.56 88.76 74.72 88.21 C 74.02 86.61 73.33 85.01 72.63 83.41 Z" />
<path fill="#d14637" opacity="1.00" d=" M 147.00 97.69 C 148.68 100.15 149.06 103.17 149.63 106.03 C 148.07 103.52 147.17 100.64 147.00 97.69 Z" />
</g>
<g id="#c13d37ff">
<path fill="#c13d37" opacity="1.00" d=" M 49.76 90.75 C 57.39 88.33 64.99 85.80 72.63 83.41 C 73.33 85.01 74.02 86.61 74.72 88.21 C 76.56 88.76 78.40 89.32 80.27 89.78 C 70.10 89.00 59.86 89.27 49.76 90.75 Z" />
</g>
<g id="#f9a318ff">
<path fill="#f9a318" opacity="1.00" d=" M 131.39 94.32 C 138.24 84.15 155.17 81.53 163.18 91.69 C 163.37 91.94 163.73 92.43 163.92 92.68 C 164.15 93.18 164.62 94.19 164.86 94.70 C 159.71 94.80 154.57 94.79 149.44 95.14 C 149.32 94.89 149.07 94.40 148.95 94.16 C 148.73 93.81 148.29 93.10 148.06 92.74 C 146.26 92.29 144.61 93.09 143.06 93.91 C 139.17 94.20 135.28 94.26 131.39 94.32 Z" />
</g>
<g id="#f26d36ff">
<path fill="#f26d36" opacity="1.00" d=" M 0.00 117.65 C 6.08 106.65 11.97 95.50 19.44 85.36 C 20.12 89.24 20.30 93.18 20.15 97.11 C 12.69 103.39 6.17 110.67 0.00 118.20 L 0.00 117.65 Z" />
</g>
<g id="#faaa1aff">
<path fill="#faaa1a" opacity="1.00" d=" M 221.67 90.82 C 228.11 84.65 239.11 84.48 245.69 90.51 C 242.54 90.92 239.38 91.22 236.20 91.23 C 235.35 91.22 233.64 91.21 232.79 91.21 C 229.08 91.16 225.37 91.05 221.67 90.82 Z" />
</g>
<g id="#f99415ff">
<path fill="#f99415" opacity="1.00" d=" M 248.09 93.54 C 252.91 88.73 260.65 89.02 266.94 89.71 C 267.09 91.49 267.25 93.28 267.44 95.06 C 270.03 93.26 272.51 90.52 276.00 91.07 C 279.83 91.04 282.46 94.36 282.79 97.95 C 272.51 97.49 262.15 98.62 251.93 97.29 C 250.61 96.08 249.36 94.80 248.09 93.54 Z" />
<path fill="#f99415" opacity="1.00" d=" M 217.62 97.10 C 218.46 94.71 219.97 92.67 221.67 90.82 C 225.37 91.05 229.08 91.16 232.79 91.21 C 231.74 93.23 231.15 95.43 230.83 97.68 C 226.45 97.09 222.02 97.11 217.62 97.10 Z" />
<path fill="#f99415" opacity="1.00" d=" M 236.20 91.23 C 239.38 91.22 242.54 90.92 245.69 90.51 C 246.42 91.42 247.17 92.31 247.82 93.28 C 248.54 94.51 249.16 95.78 249.78 97.06 C 245.57 97.34 241.35 97.22 237.16 96.72 C 237.94 94.77 237.17 92.91 236.20 91.23 Z" />
<path fill="#f99415" opacity="1.00" d=" M 95.49 91.73 C 100.86 91.55 106.23 91.53 111.60 91.77 C 111.84 93.64 112.10 95.52 112.32 97.40 C 107.04 98.54 101.63 98.24 96.33 97.46 C 96.13 95.95 95.93 94.44 95.70 92.93 L 95.49 91.73 Z" />
</g>
<g id="#c51b00ff">
<path fill="#c51b00" opacity="1.00" d=" M 115.32 89.57 C 118.02 91.29 121.47 93.31 119.96 97.16 C 120.16 97.30 120.55 97.57 120.74 97.70 C 121.14 101.43 121.55 105.16 122.23 108.85 C 120.74 109.21 119.23 109.49 117.73 109.79 C 116.61 103.09 116.02 96.32 115.32 89.57 Z" />
</g>
<g id="#f99014ff">
<path fill="#f99014" opacity="1.00" d=" M 167.84 90.90 C 172.66 92.27 177.70 91.83 182.64 91.76 C 182.73 94.48 182.77 97.20 182.85 99.93 C 178.32 99.91 173.72 99.29 169.24 100.20 C 168.99 100.84 168.50 102.13 168.25 102.77 L 168.12 103.43 C 167.72 99.86 167.71 96.26 167.83 92.68 C 167.83 92.24 167.84 91.35 167.84 90.90 Z" />
<path fill="#f99014" opacity="1.00" d=" M 194.76 91.74 C 199.68 91.76 204.60 91.85 209.52 91.94 C 209.54 94.59 209.44 97.25 209.37 99.90 C 204.49 99.80 199.62 99.81 194.75 99.94 C 194.77 97.45 194.78 94.95 194.77 92.45 L 194.76 91.74 Z" />
</g>
<g id="#f98311ff">
<path fill="#f98311" opacity="1.00" d=" M 131.39 94.32 C 135.28 94.26 139.17 94.20 143.06 93.91 C 143.34 96.00 143.62 98.10 144.11 100.15 C 144.32 101.08 144.57 102.01 144.84 102.93 C 139.70 103.03 134.56 102.73 129.42 102.95 C 129.16 99.92 130.08 97.01 131.39 94.32 Z" />
</g>
<g id="#f98812ff">
<path fill="#f98812" opacity="1.00" d=" M 149.44 95.14 C 154.57 94.79 159.71 94.80 164.86 94.70 L 165.08 94.69 C 165.53 96.07 166.02 97.43 166.39 98.83 L 166.31 100.00 C 161.27 99.93 156.22 99.93 151.17 100.03 C 150.68 98.37 150.09 96.74 149.44 95.14 Z" />
</g>
<g id="#880000ff">
<path fill="#880000" opacity="1.00" d=" M 186.05 94.97 C 187.89 94.92 189.74 94.86 191.58 94.77 C 191.58 97.52 191.56 100.29 191.24 103.03 C 191.14 102.28 190.94 100.79 190.84 100.05 C 189.35 100.15 187.87 100.26 186.38 100.37 C 186.39 101.36 186.40 103.33 186.41 104.32 L 186.40 105.09 C 185.99 101.73 186.05 98.34 186.05 94.97 Z" />
<path fill="#880000" opacity="1.00" d=" M 176.13 116.39 C 178.26 115.34 180.65 115.68 182.84 116.33 C 180.75 117.49 178.20 117.80 176.13 116.39 Z" />
</g>
<g id="#8b0000ff">
<path fill="#8b0000" opacity="1.00" d=" M 212.66 95.64 C 213.14 95.61 214.10 95.55 214.59 95.52 C 213.71 98.55 213.23 101.68 213.45 104.84 C 213.18 104.87 212.64 104.95 212.37 104.99 C 212.53 101.87 212.59 98.75 212.66 95.64 Z" />
<path fill="#8b0000" opacity="1.00" d=" M 267.83 107.28 C 271.37 109.26 275.54 109.71 279.33 108.14 C 276.32 110.44 273.06 112.41 269.55 113.83 C 268.84 113.24 268.14 112.67 267.43 112.11 C 267.55 110.50 267.69 108.89 267.83 107.28 Z" />
<path fill="#8b0000" opacity="1.00" d=" M 134.45 118.50 C 144.63 124.99 158.79 121.38 166.11 112.22 C 167.73 115.02 169.74 117.81 172.83 119.09 C 179.79 122.16 188.07 119.84 193.49 114.80 C 199.30 122.74 211.48 122.24 218.55 116.30 C 224.89 122.93 235.22 123.88 243.36 120.24 C 247.83 124.43 254.29 124.63 260.05 125.26 C 263.48 125.67 267.15 125.31 269.92 123.05 C 266.08 126.27 261.26 129.20 256.04 128.63 C 250.93 128.18 245.55 127.78 241.06 125.04 C 239.28 123.50 237.15 124.77 235.21 125.16 C 228.64 127.08 221.41 124.90 216.48 120.31 C 209.73 125.65 198.74 126.02 193.05 118.94 C 188.01 123.40 180.54 125.55 174.14 122.89 C 171.17 121.80 169.26 119.16 167.51 116.69 C 160.46 124.96 147.70 127.99 138.10 122.41 C 136.57 124.36 134.93 126.95 132.07 126.70 C 123.24 126.28 114.57 128.21 105.86 129.28 C 102.46 129.72 99.42 127.73 96.56 126.20 C 107.11 125.67 117.48 122.63 128.11 123.32 C 131.20 123.53 132.78 120.55 134.45 118.50 Z" />
</g>
<g id="#f9740eff">
<path fill="#f9740e" opacity="1.00" d=" M 96.33 97.46 C 101.63 98.24 107.04 98.54 112.32 97.40 C 112.69 100.82 113.03 104.25 113.67 107.64 C 108.93 107.20 104.15 106.96 99.41 107.41 C 99.15 107.78 98.64 108.51 98.38 108.87 L 98.17 109.17 C 97.62 105.26 97.02 101.35 96.33 97.46 Z" />
<path fill="#f9740e" opacity="1.00" d=" M 151.17 100.03 C 156.22 99.93 161.27 99.93 166.31 100.00 C 166.14 101.72 165.94 103.44 165.63 105.14 C 161.17 104.98 156.71 105.00 152.25 105.14 C 151.97 103.42 151.60 101.72 151.17 100.03 Z" />
<path fill="#f9740e" opacity="1.00" d=" M 169.24 100.20 C 173.72 99.29 178.32 99.91 182.85 99.93 C 182.89 101.31 182.96 102.71 183.03 104.10 C 183.05 104.57 183.08 105.51 183.10 105.98 C 178.28 104.44 173.14 105.24 168.18 105.09 C 168.20 104.51 168.24 103.35 168.25 102.77 C 168.50 102.13 168.99 100.84 169.24 100.20 Z" />
</g>
<g id="#f9780fff">
<path fill="#f9780f" opacity="1.00" d=" M 217.38 97.10 L 217.62 97.10 C 222.02 97.11 226.45 97.09 230.83 97.68 L 230.95 97.70 C 232.89 98.00 234.83 98.29 236.78 98.56 C 236.85 98.25 236.97 97.63 237.03 97.32 L 237.16 96.72 C 241.35 97.22 245.57 97.34 249.78 97.06 L 249.99 97.61 C 249.70 99.84 249.35 102.08 248.68 104.24 C 242.46 104.36 236.32 103.16 230.11 103.18 C 230.29 103.89 230.48 104.61 230.67 105.32 C 230.84 105.88 231.17 107.01 231.34 107.57 C 226.84 106.61 222.25 107.03 217.69 107.08 C 217.48 106.62 217.05 105.68 216.84 105.21 C 215.75 102.59 217.00 99.75 217.38 97.10 Z" />
</g>
<g id="#f97b10ff">
<path fill="#f97b10" opacity="1.00" d=" M 251.93 97.29 C 262.15 98.62 272.51 97.49 282.79 97.95 C 282.58 98.73 282.17 100.29 281.96 101.07 C 280.19 103.15 277.95 105.28 275.00 105.14 C 271.56 105.27 269.49 102.18 267.30 100.04 C 266.94 100.80 266.58 101.56 266.27 102.33 L 265.79 103.62 L 265.67 103.58 C 260.94 102.78 256.14 102.98 251.37 103.05 C 251.57 101.13 251.73 99.21 251.93 97.29 Z" />
</g>
<g id="#f96f0dff">
<path fill="#f96f0d" opacity="1.00" d=" M 194.75 99.94 C 199.62 99.81 204.49 99.80 209.37 99.90 C 209.33 102.24 209.48 104.58 209.72 106.91 L 209.81 107.79 C 204.77 107.81 199.74 108.04 194.71 107.93 C 194.63 105.27 194.71 102.61 194.75 99.94 Z" />
</g>
<g id="#f96009ff">
<path fill="#f96009" opacity="1.00" d=" M 126.65 103.54 C 127.57 103.31 128.49 103.11 129.42 102.95 C 134.56 102.73 139.70 103.03 144.84 102.93 C 145.65 105.56 146.69 108.13 147.93 110.60 C 139.98 111.61 131.98 110.45 124.03 111.11 C 125.24 108.72 126.06 106.15 126.65 103.54 Z" />
<path fill="#f96009" opacity="1.00" d=" M 152.25 105.14 C 156.71 105.00 161.17 104.98 165.63 105.14 C 164.60 107.43 163.19 109.53 161.52 111.40 C 158.03 111.15 154.56 110.79 151.07 110.58 C 151.32 110.08 151.83 109.09 152.08 108.60 C 152.20 107.45 152.24 106.30 152.25 105.14 Z" />
</g>
<g id="#3a2b29fe">
<path fill="#3a2b29" opacity="1.00" d=" M 230.11 103.18 C 236.32 103.16 242.46 104.36 248.68 104.24 C 248.29 104.83 247.51 106.01 247.13 106.60 C 241.62 106.46 236.18 105.42 230.67 105.32 C 230.48 104.61 230.29 103.89 230.11 103.18 Z" />
</g>
<g id="#f9670bff">
<path fill="#f9670b" opacity="1.00" d=" M 251.37 103.05 C 256.14 102.98 260.94 102.78 265.67 103.58 C 265.57 105.07 265.45 106.55 265.31 108.03 C 260.31 107.96 255.29 108.01 250.32 108.61 C 250.78 106.78 251.15 104.93 251.37 103.05 Z" />
</g>
<g id="#f85c08ff">
<path fill="#f85c08" opacity="1.00" d=" M 168.18 105.09 C 173.14 105.24 178.28 104.44 183.10 105.98 C 185.23 109.05 188.65 106.80 191.45 106.19 C 191.87 107.68 192.28 109.18 192.68 110.68 L 192.07 111.06 C 184.41 110.89 176.75 111.01 169.10 111.14 C 168.69 109.14 168.38 107.12 168.18 105.09 Z" />
</g>
<g id="#b14915fe">
<path fill="#b14915" opacity="1.00" d=" M 216.84 105.21 C 217.05 105.68 217.48 106.62 217.69 107.08 L 216.90 107.10 C 216.88 106.63 216.86 105.68 216.84 105.21 Z" />
</g>
<g id="#f84804ff">
<path fill="#f84804" opacity="1.00" d=" M 99.41 107.41 C 104.15 106.96 108.93 107.20 113.67 107.64 C 113.98 109.20 114.36 110.74 114.74 112.29 C 117.91 113.34 121.09 112.39 124.03 111.11 C 131.98 110.45 139.98 111.61 147.93 110.60 C 148.71 110.59 150.28 110.58 151.07 110.58 C 154.56 110.79 158.03 111.15 161.52 111.40 C 153.90 119.01 139.97 120.53 132.34 112.13 C 131.37 114.50 130.62 117.05 128.91 119.02 C 125.30 119.84 121.52 119.03 117.85 119.54 C 110.75 120.35 103.69 121.52 96.60 122.40 C 96.35 122.45 95.85 122.55 95.61 122.61 L 95.24 122.68 C 95.04 121.51 94.87 120.34 94.70 119.18 C 95.91 118.21 97.24 117.33 98.20 116.10 C 98.98 113.78 98.21 111.27 98.38 108.87 C 98.64 108.51 99.15 107.78 99.41 107.41 Z" />
</g>
<g id="#f84e05ff">
<path fill="#f84e05" opacity="1.00" d=" M 209.81 107.79 C 212.24 108.62 214.59 107.94 216.90 107.10 L 217.69 107.08 C 222.25 107.03 226.84 106.61 231.34 107.57 C 232.62 109.01 234.03 110.59 236.03 110.97 C 239.35 111.66 242.41 109.78 245.34 108.53 C 245.81 109.65 247.21 110.62 246.76 111.97 C 246.24 113.01 245.83 114.19 244.90 114.95 C 236.88 120.98 224.02 119.13 218.83 110.26 C 215.49 116.08 207.90 117.84 201.75 116.23 C 198.02 115.12 195.16 111.81 194.71 107.93 C 199.74 108.04 204.77 107.81 209.81 107.79 Z" />
</g>
<g id="#f85206ff">
<path fill="#f85206" opacity="1.00" d=" M 250.32 108.61 C 255.29 108.01 260.31 107.96 265.31 108.03 C 265.14 110.18 265.12 112.34 265.20 114.49 C 259.29 113.85 253.33 114.16 247.41 113.66 C 247.91 113.40 248.89 112.87 249.39 112.60 C 249.50 112.06 249.73 110.99 249.84 110.45 C 249.96 109.99 250.20 109.07 250.32 108.61 Z" />
</g>
<g id="#f84b05ff">
<path fill="#f84b05" opacity="1.00" d=" M 169.10 111.14 C 176.75 111.01 184.41 110.89 192.07 111.06 C 189.34 113.37 186.30 115.33 182.84 116.33 C 180.65 115.68 178.26 115.34 176.13 116.39 C 173.51 115.09 170.32 114.09 169.10 111.14 Z" />
</g>
<g id="#f84002ff">
<path fill="#f84002" opacity="1.00" d=" M 246.42 113.98 L 247.41 113.66 C 253.33 114.16 259.29 113.85 265.20 114.49 C 268.30 115.00 269.53 117.79 268.69 120.62 L 268.19 120.72 C 261.87 122.26 255.15 121.14 249.04 119.23 C 246.56 118.69 245.78 116.20 246.42 113.98 Z" />
</g>
</svg>
