<svg width="132" height="44" viewBox="0 0 132 44" fill="none" xmlns="http://www.w3.org/2000/svg">
<g filter="url(#filter0_d_17_7229)">
<rect x="4" y="3" width="124" height="36" rx="16" fill="#32CD34"/>
<rect x="4.5" y="3.5" width="123" height="35" rx="15.5" stroke="#333333"/>
</g>
<path d="M29.35 26L32.934 16.2H34.81L38.394 26H36.616L33.858 18.16L31.1 26H29.35ZM30.946 23.69L31.394 22.36H36.224L36.672 23.69H30.946ZM39.742 26V16.2H42.906C44.0447 16.2 44.9827 16.4007 45.72 16.802C46.4667 17.2033 47.0174 17.7727 47.372 18.51C47.736 19.238 47.918 20.106 47.918 21.114C47.918 22.1033 47.736 22.9667 47.372 23.704C47.0174 24.432 46.4667 24.9967 45.72 25.398C44.9827 25.7993 44.0447 26 42.906 26H39.742ZM41.422 24.572H42.822C43.6714 24.572 44.3387 24.4367 44.824 24.166C45.3187 23.886 45.6687 23.4893 45.874 22.976C46.0887 22.4533 46.196 21.8327 46.196 21.114C46.196 20.386 46.0887 19.7653 45.874 19.252C45.6687 18.7293 45.3187 18.328 44.824 18.048C44.3387 17.7587 43.6714 17.614 42.822 17.614H41.422V24.572ZM52.0505 26.168C51.4251 26.168 50.8791 26.0513 50.4125 25.818C49.9551 25.5753 49.6005 25.23 49.3485 24.782C49.0965 24.3247 48.9705 23.774 48.9705 23.13H50.6505C50.6505 23.438 50.6971 23.7087 50.7905 23.942C50.8838 24.1753 51.0285 24.3573 51.2245 24.488C51.4298 24.6093 51.6911 24.67 52.0085 24.67C52.3258 24.67 52.5778 24.6093 52.7645 24.488C52.9511 24.3667 53.0865 24.1987 53.1705 23.984C53.2638 23.76 53.3105 23.5033 53.3105 23.214V16.2H54.9905V23.214C54.9905 24.166 54.7245 24.8987 54.1925 25.412C53.6698 25.916 52.9558 26.168 52.0505 26.168ZM55.9008 26L59.4848 16.2H61.3608L64.9448 26H63.1668L60.4088 18.16L57.6508 26H55.9008ZM57.4968 23.69L57.9448 22.36H62.7748L63.2228 23.69H57.4968ZM70.0863 26.168C69.1156 26.168 68.2756 25.958 67.5663 25.538C66.8663 25.1087 66.3249 24.516 65.9423 23.76C65.5689 22.9947 65.3823 22.1127 65.3823 21.114C65.3823 20.106 65.5689 19.224 65.9423 18.468C66.3249 17.7027 66.8663 17.1053 67.5663 16.676C68.2756 16.2467 69.1156 16.032 70.0863 16.032C71.2529 16.032 72.2049 16.3213 72.9423 16.9C73.6796 17.4693 74.1463 18.2767 74.3423 19.322H72.4943C72.3636 18.7713 72.0976 18.3373 71.6963 18.02C71.2949 17.7027 70.7536 17.544 70.0723 17.544C69.4563 17.544 68.9243 17.6887 68.4763 17.978C68.0376 18.258 67.6969 18.6687 67.4543 19.21C67.2209 19.742 67.1043 20.3767 67.1043 21.114C67.1043 21.8513 67.2209 22.486 67.4543 23.018C67.6969 23.5407 68.0376 23.9467 68.4763 24.236C68.9243 24.516 69.4563 24.656 70.0723 24.656C70.7536 24.656 71.2949 24.5113 71.6963 24.222C72.0976 23.9233 72.3636 23.5127 72.4943 22.99H74.3423C74.1556 23.9793 73.6889 24.7587 72.9423 25.328C72.2049 25.888 71.2529 26.168 70.0863 26.168ZM75.9862 26V16.2H82.3142V17.558H77.6662V20.372H81.8942V21.702H77.6662V24.642H82.3142V26H75.9862ZM84.0799 26V16.2H85.7599L90.4779 23.284V16.2H92.1579V26H90.4779L85.7599 18.93V26H84.0799ZM96.4108 26V17.558H93.5268V16.2H100.961V17.558H98.0768V26H96.4108Z" fill="#333333"/>
<defs>
<filter id="filter0_d_17_7229" x="0.626664" y="0.469998" width="130.747" height="42.7467" filterUnits="userSpaceOnUse" color-interpolation-filters="sRGB">
<feFlood flood-opacity="0" result="BackgroundImageFix"/>
<feColorMatrix in="SourceAlpha" type="matrix" values="0 0 0 0 0 0 0 0 0 0 0 0 0 0 0 0 0 0 127 0" result="hardAlpha"/>
<feOffset dy="0.843334"/>
<feGaussianBlur stdDeviation="1.68667"/>
<feComposite in2="hardAlpha" operator="out"/>
<feColorMatrix type="matrix" values="0 0 0 0 0 0 0 0 0 0 0 0 0 0 0 0 0 0 0.25 0"/>
<feBlend mode="normal" in2="BackgroundImageFix" result="effect1_dropShadow_17_7229"/>
<feBlend mode="normal" in="SourceGraphic" in2="effect1_dropShadow_17_7229" result="shape"/>
</filter>
</defs>
</svg>
