<svg width="103" height="47" viewBox="0 0 103 47" fill="none" xmlns="http://www.w3.org/2000/svg">
<g filter="url(#filter0_d_775_2781)">
<rect x="5" y="4" width="93" height="36" rx="18" fill="#B25000"/>
</g>
<path d="M33.3178 14.3247C33.6992 13.3151 34.7327 12.7609 35.6127 13.0995C36.4202 13.3681 37.0127 14.3279 36.9998 15.3336C37.0037 16.1672 36.6041 16.9838 35.9896 17.3738C35.537 17.6774 34.9911 17.7264 34.4944 17.5707C33.0044 19.5152 31.4858 21.4293 30.0062 23.3839C30.5941 24.3748 30.3513 25.8849 29.5185 26.566C28.7538 27.2502 27.5849 27.0985 26.9587 26.2352C26.4154 25.5362 26.3177 24.4472 26.6654 23.5979C25.9887 22.5954 25.3172 21.5865 24.6411 20.5824C24.1321 20.8361 23.548 20.8276 23.0436 20.5629C22.2562 21.5787 21.4849 22.614 20.6884 23.6197C20.9326 24.3258 20.9539 25.1664 20.6153 25.8351C20.1678 26.8136 19.0909 27.2674 18.2335 26.8377C17.3036 26.4314 16.7707 25.0863 17.0958 23.963C17.3548 22.9137 18.2931 22.1976 19.1932 22.3665C19.3881 22.393 19.5733 22.4739 19.7566 22.5525C20.5421 21.5204 21.3418 20.503 22.1182 19.4599C21.8372 18.7593 21.8644 17.8922 22.2095 17.2298C22.6583 16.3089 23.673 15.8746 24.5051 16.2505C25.3295 16.579 25.8935 17.6431 25.7834 18.6807C25.7711 18.9757 25.672 19.2482 25.5904 19.5222C26.2697 20.5209 26.9374 21.5313 27.6134 22.5331C28.0402 22.3252 28.5161 22.2871 28.961 22.4319C30.4556 20.4975 31.9553 18.5694 33.4505 16.6358C33.0769 15.9594 33.0192 15.0557 33.3178 14.3247ZM35.0066 14.5653C34.5222 14.5894 34.2438 15.3522 34.5559 15.7975C34.8246 16.2638 35.4877 16.1602 35.6529 15.6301C35.851 15.1265 35.4677 14.4905 35.0066 14.5653ZM23.8045 17.6781C23.3013 17.7007 23.0306 18.5157 23.379 18.9501C23.6782 19.4039 24.3543 19.2318 24.4721 18.6691C24.6159 18.174 24.2383 17.6112 23.8045 17.6781ZM18.883 23.9054C18.4013 23.9288 18.1209 24.6854 18.4278 25.1322C18.6823 25.5806 19.3117 25.5198 19.5053 25.0302C19.7514 24.5258 19.3668 23.8245 18.883 23.9054ZM28.3367 23.9054C27.8731 23.9295 27.5882 24.6348 27.8569 25.0878C28.0926 25.5759 28.7583 25.5409 28.9591 25.031C29.2064 24.5266 28.8205 23.8252 28.3367 23.9054Z" fill="white"/>
<path d="M39.3 26L42.372 17.6H43.98L47.052 26H45.528L43.164 19.28L40.8 26H39.3ZM40.668 24.02L41.052 22.88H45.192L45.576 24.02H40.668ZM48.1595 26V19.952H49.4315L49.5395 20.96C49.7235 20.608 49.9875 20.328 50.3315 20.12C50.6755 19.912 51.0835 19.808 51.5555 19.808C52.0435 19.808 52.4595 19.912 52.8035 20.12C53.1475 20.32 53.4115 20.616 53.5955 21.008C53.7875 21.4 53.8835 21.888 53.8835 22.472V26H52.4435V22.604C52.4435 22.1 52.3315 21.712 52.1075 21.44C51.8835 21.168 51.5515 21.032 51.1115 21.032C50.8235 21.032 50.5635 21.1 50.3315 21.236C50.1075 21.372 49.9275 21.572 49.7915 21.836C49.6635 22.092 49.5995 22.404 49.5995 22.772V26H48.1595ZM57.4177 26.144C56.9217 26.144 56.5097 26.06 56.1817 25.892C55.8537 25.724 55.6097 25.5 55.4497 25.22C55.2897 24.94 55.2097 24.636 55.2097 24.308C55.2097 23.924 55.3057 23.592 55.4977 23.312C55.6977 23.032 55.9897 22.816 56.3737 22.664C56.7577 22.504 57.2297 22.424 57.7897 22.424H59.3137C59.3137 22.104 59.2697 21.84 59.1817 21.632C59.0937 21.416 58.9577 21.256 58.7737 21.152C58.5897 21.048 58.3537 20.996 58.0657 20.996C57.7377 20.996 57.4577 21.072 57.2257 21.224C56.9937 21.368 56.8497 21.592 56.7937 21.896H55.3777C55.4257 21.464 55.5697 21.096 55.8097 20.792C56.0497 20.48 56.3657 20.24 56.7577 20.072C57.1577 19.896 57.5937 19.808 58.0657 19.808C58.6337 19.808 59.1177 19.908 59.5177 20.108C59.9177 20.3 60.2217 20.58 60.4297 20.948C60.6457 21.308 60.7537 21.744 60.7537 22.256V26H59.5297L59.3857 25.028C59.3057 25.188 59.2017 25.336 59.0737 25.472C58.9537 25.608 58.8137 25.728 58.6537 25.832C58.4937 25.928 58.3097 26.004 58.1017 26.06C57.9017 26.116 57.6737 26.144 57.4177 26.144ZM57.7417 25.004C57.9737 25.004 58.1777 24.964 58.3537 24.884C58.5377 24.796 58.6937 24.676 58.8217 24.524C58.9577 24.364 59.0617 24.188 59.1337 23.996C59.2057 23.804 59.2537 23.6 59.2777 23.384V23.36H57.9457C57.6657 23.36 57.4337 23.396 57.2497 23.468C57.0657 23.532 56.9337 23.628 56.8537 23.756C56.7737 23.884 56.7337 24.032 56.7337 24.2C56.7337 24.368 56.7737 24.512 56.8537 24.632C56.9337 24.752 57.0497 24.844 57.2017 24.908C57.3537 24.972 57.5337 25.004 57.7417 25.004ZM62.2923 26V17.36H63.7323V26H62.2923ZM66.0712 28.64L67.5472 25.328H67.1872L64.7752 19.952H66.3472L68.1472 24.056L69.8512 19.952H71.3752L67.5952 28.64H66.0712ZM74.5246 26.144C73.9886 26.144 73.5206 26.06 73.1206 25.892C72.7286 25.716 72.4166 25.476 72.1846 25.172C71.9606 24.86 71.8286 24.504 71.7886 24.104H73.2286C73.2686 24.272 73.3406 24.428 73.4446 24.572C73.5486 24.708 73.6886 24.816 73.8646 24.896C74.0486 24.976 74.2646 25.016 74.5126 25.016C74.7526 25.016 74.9486 24.984 75.1006 24.92C75.2526 24.848 75.3646 24.756 75.4366 24.644C75.5086 24.532 75.5446 24.412 75.5446 24.284C75.5446 24.092 75.4926 23.944 75.3886 23.84C75.2846 23.736 75.1326 23.656 74.9326 23.6C74.7406 23.536 74.5086 23.476 74.2366 23.42C73.9486 23.364 73.6686 23.296 73.3966 23.216C73.1326 23.128 72.8926 23.02 72.6766 22.892C72.4686 22.764 72.3006 22.6 72.1726 22.4C72.0526 22.2 71.9926 21.956 71.9926 21.668C71.9926 21.316 72.0846 21 72.2686 20.72C72.4606 20.44 72.7326 20.22 73.0846 20.06C73.4446 19.892 73.8726 19.808 74.3686 19.808C75.0726 19.808 75.6326 19.972 76.0486 20.3C76.4726 20.62 76.7206 21.072 76.7926 21.656H75.4246C75.3846 21.432 75.2726 21.26 75.0886 21.14C74.9046 21.012 74.6606 20.948 74.3566 20.948C74.0446 20.948 73.8046 21.008 73.6366 21.128C73.4766 21.24 73.3966 21.392 73.3966 21.584C73.3966 21.704 73.4446 21.816 73.5406 21.92C73.6446 22.016 73.7926 22.1 73.9846 22.172C74.1766 22.236 74.4126 22.3 74.6926 22.364C75.1406 22.452 75.5366 22.556 75.8806 22.676C76.2246 22.796 76.4966 22.972 76.6966 23.204C76.8966 23.436 76.9966 23.764 76.9966 24.188C77.0046 24.572 76.9046 24.912 76.6966 25.208C76.4966 25.504 76.2126 25.736 75.8446 25.904C75.4766 26.064 75.0366 26.144 74.5246 26.144ZM78.4538 26V19.952H79.8938V26H78.4538ZM79.1738 18.992C78.9098 18.992 78.6898 18.912 78.5138 18.752C78.3458 18.584 78.2618 18.38 78.2618 18.14C78.2618 17.892 78.3458 17.692 78.5138 17.54C78.6898 17.38 78.9098 17.3 79.1738 17.3C79.4378 17.3 79.6538 17.38 79.8218 17.54C79.9978 17.692 80.0858 17.892 80.0858 18.14C80.0858 18.38 79.9978 18.584 79.8218 18.752C79.6538 18.912 79.4378 18.992 79.1738 18.992ZM83.9699 26.144C83.4339 26.144 82.9659 26.06 82.5659 25.892C82.1739 25.716 81.8619 25.476 81.6299 25.172C81.4059 24.86 81.2739 24.504 81.2339 24.104H82.6739C82.7139 24.272 82.7859 24.428 82.8899 24.572C82.9939 24.708 83.1339 24.816 83.3099 24.896C83.4939 24.976 83.7099 25.016 83.9579 25.016C84.1979 25.016 84.3939 24.984 84.5459 24.92C84.6979 24.848 84.8099 24.756 84.8819 24.644C84.9539 24.532 84.9899 24.412 84.9899 24.284C84.9899 24.092 84.9379 23.944 84.8339 23.84C84.7299 23.736 84.5779 23.656 84.3779 23.6C84.1859 23.536 83.9539 23.476 83.6819 23.42C83.3939 23.364 83.1139 23.296 82.8419 23.216C82.5779 23.128 82.3379 23.02 82.1219 22.892C81.9139 22.764 81.7459 22.6 81.6179 22.4C81.4979 22.2 81.4379 21.956 81.4379 21.668C81.4379 21.316 81.5299 21 81.7139 20.72C81.9059 20.44 82.1779 20.22 82.5299 20.06C82.8899 19.892 83.3179 19.808 83.8139 19.808C84.5179 19.808 85.0779 19.972 85.4939 20.3C85.9179 20.62 86.1659 21.072 86.2379 21.656H84.8699C84.8299 21.432 84.7179 21.26 84.5339 21.14C84.3499 21.012 84.1059 20.948 83.8019 20.948C83.4899 20.948 83.2499 21.008 83.0819 21.128C82.9219 21.24 82.8419 21.392 82.8419 21.584C82.8419 21.704 82.8899 21.816 82.9859 21.92C83.0899 22.016 83.2379 22.1 83.4299 22.172C83.6219 22.236 83.8579 22.3 84.1379 22.364C84.5859 22.452 84.9819 22.556 85.3259 22.676C85.6699 22.796 85.9419 22.972 86.1419 23.204C86.3419 23.436 86.4419 23.764 86.4419 24.188C86.4499 24.572 86.3499 24.912 86.1419 25.208C85.9419 25.504 85.6579 25.736 85.2899 25.904C84.9219 26.064 84.4819 26.144 83.9699 26.144Z" fill="white"/>
<defs>
<filter id="filter0_d_775_2781" x="0.114921" y="0.336191" width="102.77" height="45.7702" filterUnits="userSpaceOnUse" color-interpolation-filters="sRGB">
<feFlood flood-opacity="0" result="BackgroundImageFix"/>
<feColorMatrix in="SourceAlpha" type="matrix" values="0 0 0 0 0 0 0 0 0 0 0 0 0 0 0 0 0 0 127 0" result="hardAlpha"/>
<feOffset dy="1.22127"/>
<feGaussianBlur stdDeviation="2.44254"/>
<feComposite in2="hardAlpha" operator="out"/>
<feColorMatrix type="matrix" values="0 0 0 0 0 0 0 0 0 0 0 0 0 0 0 0 0 0 0.25 0"/>
<feBlend mode="normal" in2="BackgroundImageFix" result="effect1_dropShadow_775_2781"/>
<feBlend mode="normal" in="SourceGraphic" in2="effect1_dropShadow_775_2781" result="shape"/>
</filter>
</defs>
</svg>
