<svg width="103" height="47" viewBox="0 0 103 47" fill="none" xmlns="http://www.w3.org/2000/svg">
<g filter="url(#filter0_d_718_2702)">
<rect x="5" y="4" width="93" height="36" rx="18" fill="#FEFFFF"/>
</g>
<g clip-path="url(#clip0_718_2702)">
<g clip-path="url(#clip1_718_2702)">
<path d="M34.6051 28.3365V23.8432L29.212 28.3365H34.6051ZM34.5948 31.748V29.7456H25.9434V29.0359L33.6005 22.5781H36.6582V28.3158H38.7839V29.7456H36.6582V31.748H34.5948Z" fill="#3E4982"/>
<path d="M48.9243 28.1214V29.7782H39.7061V22.5762H41.7672V28.1214H48.9243ZM50.7574 22.5762H52.8185V29.7782H50.7574V22.5762ZM64.6371 25.7146V27.2366H57.3349V29.7782H55.2737V22.5762H64.7823V24.2122H57.3349V25.7146H64.6371ZM76.3913 25.3747V26.9071H68.7388V28.1421H76.3913V29.7782H66.7179V22.5762H76.3913V24.2122H68.7388V25.3747H76.3913Z" fill="#2D7F67"/>
<path d="M32.549 13.1504C29.5338 13.1504 28.1328 13.9223 27.483 14.5687C26.7917 15.26 26.4346 16.2162 26.4346 17.3499C26.4346 18.4836 26.7963 19.4457 27.483 20.1323C28.1305 20.7798 29.5338 21.5506 32.5524 21.5506C34.4903 21.5506 36.2588 21.1865 37.4064 20.5517L37.4582 20.5229V18.7613L37.3096 18.8443C36.071 19.5355 34.2933 19.9515 32.5524 19.9515C30.8634 19.9515 29.5661 19.6231 28.9935 19.0505C28.5775 18.6346 28.384 18.0954 28.384 17.3511C28.384 16.6068 28.5798 16.0319 28.9819 15.6298C29.5396 15.0722 30.845 14.7519 32.5628 14.7519C34.2806 14.7519 36.0469 15.1897 37.305 15.9351L37.4559 16.0238V14.1804L37.4029 14.1528C36.2565 13.5145 34.4869 13.1504 32.549 13.1504ZM44.0692 13.2852L38.4744 21.3709H40.6335L41.8882 19.5275H48.627L49.8817 21.3709H52.1192L46.5255 13.2852H44.0692ZM47.5509 17.9341H42.9654L45.2536 14.5491L47.5509 17.9341ZM58.3856 16.4662C55.9108 16.351 55.3498 16.2162 55.1355 16.0054C55.0368 15.892 54.987 15.7441 54.9972 15.5941C54.991 15.5103 55.0021 15.4261 55.0299 15.3469C55.0576 15.2676 55.1014 15.1948 55.1585 15.1332C55.3717 14.9212 55.8867 14.7035 58.1011 14.7035C59.7463 14.7035 61.7337 15.0595 62.94 15.5687L63.0794 15.6275V13.9442L63.0161 13.9189C61.8248 13.4442 60.0804 13.1838 58.1068 13.1838C55.6597 13.1838 54.329 13.4707 53.6561 14.1424C53.2621 14.5364 53.08 15.0468 53.08 15.7473C53.08 16.3556 53.2367 16.8073 53.557 17.1299C54.1596 17.7324 55.253 17.9617 58.2382 18.1115C60.8961 18.2509 61.4204 18.35 61.645 18.5723C61.7032 18.6368 61.7475 18.7125 61.7752 18.7947C61.803 18.8769 61.8136 18.964 61.8063 19.0505C61.8103 19.1385 61.796 19.2264 61.7645 19.3086C61.733 19.3909 61.6849 19.4658 61.6231 19.5286C61.3455 19.8063 60.7014 19.9895 58.479 19.9895C56.6217 19.9895 54.1688 19.5367 53.0109 18.9802L52.8681 18.9111V20.6047L52.928 20.6312C54.1596 21.167 56.3383 21.5138 58.479 21.5138C61.713 21.5138 62.6762 20.9653 63.1532 20.4872C63.5472 20.0932 63.7293 19.5793 63.7293 18.8742C63.7293 18.2843 63.5472 17.7774 63.2177 17.4479C62.6762 16.9121 61.8524 16.6425 58.3856 16.4662ZM75.5986 13.3301V16.4893H67.9576V13.3301H66.0209V21.3709H67.9576V18.123H75.5986V21.3709H77.5353V13.3301H75.5986ZM78.0526 24.9679H77.6102V25.5762H77.3441V24.9679H76.9016V24.7674H78.0538L78.0526 24.9679ZM78.5238 24.7674L78.8626 25.408L79.2013 24.7674H79.5827V25.5739H79.3522V24.9483L79.0181 25.5762H78.707L78.3798 24.9609V25.5762H78.1494V24.7697L78.5238 24.7674Z" fill="#2D7F67"/>
</g>
</g>
<defs>
<filter id="filter0_d_718_2702" x="0.114921" y="0.336191" width="102.77" height="45.7702" filterUnits="userSpaceOnUse" color-interpolation-filters="sRGB">
<feFlood flood-opacity="0" result="BackgroundImageFix"/>
<feColorMatrix in="SourceAlpha" type="matrix" values="0 0 0 0 0 0 0 0 0 0 0 0 0 0 0 0 0 0 127 0" result="hardAlpha"/>
<feOffset dy="1.22127"/>
<feGaussianBlur stdDeviation="2.44254"/>
<feComposite in2="hardAlpha" operator="out"/>
<feColorMatrix type="matrix" values="0 0 0 0 0 0 0 0 0 0 0 0 0 0 0 0 0 0 0.25 0"/>
<feBlend mode="normal" in2="BackgroundImageFix" result="effect1_dropShadow_718_2702"/>
<feBlend mode="normal" in="SourceGraphic" in2="effect1_dropShadow_718_2702" result="shape"/>
</filter>
<clipPath id="clip0_718_2702">
<rect width="53.8043" height="19.3737" fill="white" transform="translate(25 12)"/>
</clipPath>
<clipPath id="clip1_718_2702">
<rect width="53.6378" height="24.0486" fill="white" transform="translate(25.9434 9.88965)"/>
</clipPath>
</defs>
</svg>
