<svg width="103" height="47" viewBox="0 0 103 47" fill="none" xmlns="http://www.w3.org/2000/svg">
<g filter="url(#filter0_d_775_2786)">
<rect x="5" y="4" width="93" height="36" rx="18" fill="#670FD3"/>
</g>
<path d="M23.7549 29.8379H29.9589" stroke="white" stroke-width="1.32824" stroke-linecap="round" stroke-linejoin="round"/>
<path d="M26.8564 25.8545V29.7195" stroke="white" stroke-width="1.32824"/>
<path d="M32.3457 16.4436C32.3457 16.2278 32.4284 16.0208 32.5756 15.8682C32.7229 15.7156 32.9225 15.6299 33.1307 15.6299H35.2001V20.7301C35.2001 22.1825 34.0641 23.3599 32.6629 23.3599C32.4878 23.3599 32.3457 23.2126 32.3457 23.0311V16.4436Z" stroke="white" stroke-width="1.32824" stroke-linejoin="round"/>
<path d="M21.8544 16.4436C21.8544 16.2278 21.7717 16.0208 21.6245 15.8682C21.4772 15.7156 21.2776 15.6299 21.0694 15.6299H19V20.7301C19 22.1825 20.1359 23.3599 21.5372 23.3599C21.7123 23.3599 21.8544 23.2126 21.8544 23.0311V16.4436Z" stroke="white" stroke-width="1.32824" stroke-linejoin="round"/>
<path d="M26.9114 15.7337C26.9342 15.6649 26.9787 15.605 27.0385 15.5625C27.0982 15.52 27.1703 15.4971 27.2442 15.4971C27.3181 15.4971 27.3901 15.52 27.4499 15.5625C27.5097 15.605 27.5542 15.6649 27.577 15.7337L28.3441 18.0421C28.3669 18.1107 28.4114 18.1704 28.4711 18.2128C28.5308 18.2552 28.6027 18.2781 28.6764 18.2781H31.1587C31.2327 18.2781 31.3048 18.3009 31.3647 18.3434C31.4245 18.3859 31.4691 18.4458 31.4919 18.5146C31.5147 18.5834 31.5147 18.6575 31.4918 18.7263C31.4688 18.7951 31.4242 18.8549 31.3643 18.8974L29.3561 20.324C29.2964 20.3665 29.252 20.4263 29.2292 20.495C29.2064 20.5637 29.2064 20.6376 29.2292 20.7063L29.9963 23.0147C30.0192 23.0835 30.0192 23.1575 29.9964 23.2263C29.9735 23.2951 29.9289 23.355 29.8691 23.3974C29.8092 23.4399 29.7372 23.4627 29.6632 23.4627C29.5893 23.4626 29.5173 23.4396 29.4575 23.397L27.4493 21.9704C27.3895 21.928 27.3176 21.9051 27.2437 21.9051C27.1699 21.9051 27.098 21.928 27.0382 21.9704L25.03 23.397C24.9702 23.4396 24.8982 23.4626 24.8243 23.4627C24.7503 23.4627 24.6782 23.4399 24.6184 23.3974C24.5586 23.355 24.514 23.2951 24.4911 23.2263C24.4683 23.1575 24.4683 23.0835 24.4912 23.0147L25.2583 20.7063C25.2811 20.6376 25.2811 20.5637 25.2583 20.495C25.2355 20.4263 25.1911 20.3665 25.1314 20.324L23.1232 18.8974C23.0633 18.8549 23.0187 18.7951 22.9957 18.7263C22.9728 18.6575 22.9728 18.5834 22.9956 18.5146C23.0184 18.4458 23.063 18.3859 23.1228 18.3434C23.1827 18.3009 23.2548 18.2781 23.3288 18.2781H25.8111C25.8848 18.2781 25.9567 18.2552 26.0164 18.2128C26.0761 18.1704 26.1206 18.1107 26.1434 18.0421L26.9114 15.7337Z" fill="white"/>
<path d="M22.3696 14.2383C22.2224 14.3909 22.1396 14.5979 22.1396 14.8137V21.4859C22.1396 22.7807 22.6359 24.0225 23.5192 24.9381C24.4026 25.8536 25.6006 26.368 26.8499 26.368H27.4206C28.6698 26.368 29.8679 25.8536 30.7512 24.9381C31.6345 24.0225 32.1308 22.7807 32.1308 21.4859V14.8137C32.1308 14.5979 32.0481 14.3909 31.9009 14.2383C31.7536 14.0857 31.554 14 31.3458 14H22.9247C22.7165 14 22.5168 14.0857 22.3696 14.2383Z" stroke="white" stroke-width="1.32824" stroke-miterlimit="16"/>
<path d="M44.584 26.144C43.752 26.144 43.032 25.964 42.424 25.604C41.824 25.236 41.36 24.728 41.032 24.08C40.712 23.424 40.552 22.668 40.552 21.812C40.552 20.948 40.712 20.192 41.032 19.544C41.36 18.888 41.824 18.376 42.424 18.008C43.032 17.64 43.752 17.456 44.584 17.456C45.584 17.456 46.4 17.704 47.032 18.2C47.664 18.688 48.064 19.38 48.232 20.276H46.648C46.536 19.804 46.308 19.432 45.964 19.16C45.62 18.888 45.156 18.752 44.572 18.752C44.044 18.752 43.588 18.876 43.204 19.124C42.828 19.364 42.536 19.716 42.328 20.18C42.128 20.636 42.028 21.18 42.028 21.812C42.028 22.444 42.128 22.988 42.328 23.444C42.536 23.892 42.828 24.24 43.204 24.488C43.588 24.728 44.044 24.848 44.572 24.848C45.156 24.848 45.62 24.724 45.964 24.476C46.308 24.22 46.536 23.868 46.648 23.42H48.232C48.072 24.268 47.672 24.936 47.032 25.424C46.4 25.904 45.584 26.144 44.584 26.144ZM49.5931 26V17.36H51.0331V20.888C51.2331 20.56 51.5051 20.3 51.8491 20.108C52.1931 19.908 52.5811 19.808 53.0131 19.808C53.5091 19.808 53.9291 19.912 54.2731 20.12C54.6171 20.32 54.8771 20.62 55.0531 21.02C55.2371 21.412 55.3291 21.904 55.3291 22.496V26H53.9011V22.628C53.9011 22.108 53.7891 21.712 53.5651 21.44C53.3491 21.168 53.0171 21.032 52.5691 21.032C52.2811 21.032 52.0211 21.104 51.7891 21.248C51.5571 21.384 51.3731 21.584 51.2371 21.848C51.1011 22.104 51.0331 22.42 51.0331 22.796V26H49.5931ZM59.6907 26.144C59.0907 26.144 58.5627 26.016 58.1067 25.76C57.6507 25.496 57.2947 25.128 57.0387 24.656C56.7827 24.184 56.6547 23.64 56.6547 23.024C56.6547 22.384 56.7787 21.824 57.0267 21.344C57.2827 20.864 57.6387 20.488 58.0947 20.216C58.5587 19.944 59.0947 19.808 59.7027 19.808C60.2947 19.808 60.8107 19.94 61.2507 20.204C61.6907 20.468 62.0307 20.824 62.2707 21.272C62.5107 21.712 62.6307 22.208 62.6307 22.76C62.6307 22.84 62.6307 22.928 62.6307 23.024C62.6307 23.12 62.6227 23.22 62.6067 23.324H57.6867V22.4H61.1787C61.1627 21.96 61.0147 21.616 60.7347 21.368C60.4547 21.112 60.1067 20.984 59.6907 20.984C59.3947 20.984 59.1227 21.052 58.8747 21.188C58.6267 21.324 58.4307 21.528 58.2867 21.8C58.1427 22.064 58.0707 22.4 58.0707 22.808V23.156C58.0707 23.532 58.1387 23.856 58.2747 24.128C58.4187 24.4 58.6107 24.608 58.8507 24.752C59.0987 24.888 59.3747 24.956 59.6787 24.956C60.0147 24.956 60.2907 24.884 60.5067 24.74C60.7307 24.596 60.8947 24.404 60.9987 24.164H62.4627C62.3507 24.54 62.1667 24.88 61.9107 25.184C61.6547 25.48 61.3387 25.716 60.9627 25.892C60.5867 26.06 60.1627 26.144 59.6907 26.144ZM66.8283 26.144C66.2363 26.144 65.7043 26.012 65.2323 25.748C64.7683 25.476 64.4043 25.104 64.1403 24.632C63.8843 24.152 63.7563 23.608 63.7563 23C63.7563 22.368 63.8843 21.816 64.1403 21.344C64.4043 20.864 64.7683 20.488 65.2323 20.216C65.7043 19.944 66.2403 19.808 66.8403 19.808C67.5923 19.808 68.2243 20.008 68.7363 20.408C69.2483 20.8 69.5763 21.34 69.7203 22.028H68.2083C68.1283 21.724 67.9603 21.484 67.7043 21.308C67.4563 21.132 67.1603 21.044 66.8163 21.044C66.5203 21.044 66.2483 21.12 66.0003 21.272C65.7603 21.424 65.5683 21.644 65.4243 21.932C65.2883 22.22 65.2203 22.568 65.2203 22.976C65.2203 23.288 65.2603 23.564 65.3403 23.804C65.4203 24.044 65.5323 24.248 65.6763 24.416C65.8283 24.576 66.0003 24.7 66.1923 24.788C66.3843 24.876 66.5923 24.92 66.8163 24.92C67.0483 24.92 67.2563 24.884 67.4403 24.812C67.6323 24.732 67.7923 24.616 67.9203 24.464C68.0563 24.312 68.1523 24.132 68.2083 23.924H69.7203C69.5763 24.596 69.2483 25.136 68.7363 25.544C68.2243 25.944 67.5883 26.144 66.8283 26.144ZM75.0087 26L72.3327 22.688L74.7327 19.952H76.4487L73.4607 23.276V22.16L76.8087 26H75.0087ZM71.1087 26V17.36H72.5487V26H71.1087ZM80.1282 26.144C79.5282 26.144 79.0002 26.016 78.5442 25.76C78.0882 25.496 77.7322 25.128 77.4762 24.656C77.2202 24.184 77.0922 23.64 77.0922 23.024C77.0922 22.384 77.2162 21.824 77.4642 21.344C77.7202 20.864 78.0762 20.488 78.5322 20.216C78.9962 19.944 79.5322 19.808 80.1402 19.808C80.7322 19.808 81.2482 19.94 81.6882 20.204C82.1282 20.468 82.4682 20.824 82.7082 21.272C82.9482 21.712 83.0682 22.208 83.0682 22.76C83.0682 22.84 83.0682 22.928 83.0682 23.024C83.0682 23.12 83.0602 23.22 83.0442 23.324H78.1242V22.4H81.6162C81.6002 21.96 81.4522 21.616 81.1722 21.368C80.8922 21.112 80.5442 20.984 80.1282 20.984C79.8322 20.984 79.5602 21.052 79.3122 21.188C79.0642 21.324 78.8682 21.528 78.7242 21.8C78.5802 22.064 78.5082 22.4 78.5082 22.808V23.156C78.5082 23.532 78.5762 23.856 78.7122 24.128C78.8562 24.4 79.0482 24.608 79.2882 24.752C79.5362 24.888 79.8122 24.956 80.1162 24.956C80.4522 24.956 80.7282 24.884 80.9442 24.74C81.1682 24.596 81.3322 24.404 81.4362 24.164H82.9002C82.7882 24.54 82.6042 24.88 82.3482 25.184C82.0922 25.48 81.7762 25.716 81.4002 25.892C81.0242 26.06 80.6002 26.144 80.1282 26.144ZM84.3978 26V19.952H85.6818L85.8138 21.08C85.9578 20.816 86.1378 20.592 86.3538 20.408C86.5698 20.216 86.8218 20.068 87.1098 19.964C87.4058 19.86 87.7298 19.808 88.0818 19.808V21.332H87.5778C87.3378 21.332 87.1098 21.364 86.8938 21.428C86.6778 21.484 86.4898 21.58 86.3298 21.716C86.1778 21.844 86.0578 22.024 85.9698 22.256C85.8818 22.48 85.8378 22.764 85.8378 23.108V26H84.3978Z" fill="white"/>
<defs>
<filter id="filter0_d_775_2786" x="0.114921" y="0.336191" width="102.77" height="45.7702" filterUnits="userSpaceOnUse" color-interpolation-filters="sRGB">
<feFlood flood-opacity="0" result="BackgroundImageFix"/>
<feColorMatrix in="SourceAlpha" type="matrix" values="0 0 0 0 0 0 0 0 0 0 0 0 0 0 0 0 0 0 127 0" result="hardAlpha"/>
<feOffset dy="1.22127"/>
<feGaussianBlur stdDeviation="2.44254"/>
<feComposite in2="hardAlpha" operator="out"/>
<feColorMatrix type="matrix" values="0 0 0 0 0 0 0 0 0 0 0 0 0 0 0 0 0 0 0.25 0"/>
<feBlend mode="normal" in2="BackgroundImageFix" result="effect1_dropShadow_775_2786"/>
<feBlend mode="normal" in="SourceGraphic" in2="effect1_dropShadow_775_2786" result="shape"/>
</filter>
</defs>
</svg>
