<svg width="132" height="44" viewBox="0 0 132 44" fill="none" xmlns="http://www.w3.org/2000/svg">
<g filter="url(#filter0_d_17_7303)">
<rect x="4" y="3" width="124" height="36" rx="16" fill="#FF0004"/>
<rect x="4.5" y="3.5" width="123" height="35" rx="15.5" stroke="#333333"/>
</g>
<path d="M37.348 26.5684C36.3773 26.5684 35.5373 26.3584 34.828 25.9384C34.128 25.5091 33.5867 24.9164 33.204 24.1604C32.8307 23.3951 32.644 22.5131 32.644 21.5144C32.644 20.5064 32.8307 19.6244 33.204 18.8684C33.5867 18.1031 34.128 17.5057 34.828 17.0764C35.5373 16.6471 36.3773 16.4324 37.348 16.4324C38.5147 16.4324 39.4667 16.7217 40.204 17.3004C40.9413 17.8697 41.408 18.6771 41.604 19.7224H39.756C39.6253 19.1717 39.3593 18.7377 38.958 18.4204C38.5567 18.1031 38.0153 17.9444 37.334 17.9444C36.718 17.9444 36.186 18.0891 35.738 18.3784C35.2993 18.6584 34.9587 19.0691 34.716 19.6104C34.4827 20.1424 34.366 20.7771 34.366 21.5144C34.366 22.2517 34.4827 22.8864 34.716 23.4184C34.9587 23.9411 35.2993 24.3471 35.738 24.6364C36.186 24.9164 36.718 25.0564 37.334 25.0564C38.0153 25.0564 38.5567 24.9117 38.958 24.6224C39.3593 24.3237 39.6253 23.9131 39.756 23.3904H41.604C41.4173 24.3797 40.9507 25.1591 40.204 25.7284C39.4667 26.2884 38.5147 26.5684 37.348 26.5684ZM47.7139 26.5684C46.7712 26.5684 45.9359 26.3584 45.2079 25.9384C44.4892 25.5091 43.9246 24.9164 43.5139 24.1604C43.1032 23.3951 42.8979 22.5084 42.8979 21.5004C42.8979 20.5017 43.1032 19.6244 43.5139 18.8684C43.9246 18.1031 44.4892 17.5057 45.2079 17.0764C45.9359 16.6471 46.7712 16.4324 47.7139 16.4324C48.6752 16.4324 49.5199 16.6471 50.2479 17.0764C50.9759 17.5057 51.5406 18.1031 51.9419 18.8684C52.3432 19.6244 52.5439 20.5017 52.5439 21.5004C52.5439 22.5084 52.3432 23.3951 51.9419 24.1604C51.5406 24.9164 50.9759 25.5091 50.2479 25.9384C49.5199 26.3584 48.6752 26.5684 47.7139 26.5684ZM47.7279 25.0564C48.3532 25.0564 48.8992 24.9164 49.3659 24.6364C49.8326 24.3471 50.1919 23.9364 50.4439 23.4044C50.6959 22.8724 50.8219 22.2377 50.8219 21.5004C50.8219 20.7631 50.6959 20.1284 50.4439 19.5964C50.1919 19.0644 49.8326 18.6584 49.3659 18.3784C48.8992 18.0891 48.3532 17.9444 47.7279 17.9444C47.1026 17.9444 46.5566 18.0891 46.0899 18.3784C45.6232 18.6584 45.2592 19.0644 44.9979 19.5964C44.7459 20.1284 44.6199 20.7631 44.6199 21.5004C44.6199 22.2377 44.7459 22.8724 44.9979 23.4044C45.2592 23.9364 45.6232 24.3471 46.0899 24.6364C46.5566 24.9164 47.1026 25.0564 47.7279 25.0564ZM54.1854 26.4004V16.6004H55.8654V25.0844H60.2334V26.4004H54.1854ZM65.1552 26.5684C64.4458 26.5684 63.8018 26.4284 63.2232 26.1484C62.6538 25.8684 62.1965 25.4391 61.8512 24.8604C61.5152 24.2817 61.3472 23.5537 61.3472 22.6764V16.6004H63.0272V22.6904C63.0272 23.2224 63.1158 23.6611 63.2932 24.0064C63.4705 24.3517 63.7178 24.6131 64.0352 24.7904C64.3618 24.9584 64.7445 25.0424 65.1832 25.0424C65.6312 25.0424 66.0138 24.9584 66.3312 24.7904C66.6578 24.6131 66.9052 24.3517 67.0732 24.0064C67.2505 23.6611 67.3392 23.2224 67.3392 22.6904V16.6004H69.0192V22.6764C69.0192 23.5537 68.8465 24.2817 68.5012 24.8604C68.1558 25.4391 67.6892 25.8684 67.1012 26.1484C66.5132 26.4284 65.8645 26.5684 65.1552 26.5684ZM70.9061 26.4004V16.6004H72.8941L76.0301 22.9284L79.1381 16.6004H81.1401V26.4004H79.4601V19.4844L76.6881 25.0284H75.3721L72.5861 19.4984V26.4004H70.9061ZM83.1288 26.4004V16.6004H84.8088L89.5268 23.6844V16.6004H91.2068V26.4004H89.5268L84.8088 19.3304V26.4004H83.1288ZM96.4676 26.5684C95.7583 26.5684 95.1283 26.4424 94.5776 26.1904C94.0269 25.9384 93.5976 25.5791 93.2896 25.1124C92.9816 24.6457 92.8229 24.0904 92.8136 23.4464H94.5916C94.5916 23.7731 94.6663 24.0671 94.8156 24.3284C94.9743 24.5804 95.1889 24.7811 95.4596 24.9304C95.7396 25.0797 96.0756 25.1544 96.4676 25.1544C96.8036 25.1544 97.0929 25.1031 97.3356 25.0004C97.5876 24.8884 97.7789 24.7344 97.9096 24.5384C98.0496 24.3331 98.1196 24.0951 98.1196 23.8244C98.1196 23.5164 98.0449 23.2644 97.8956 23.0684C97.7556 22.8631 97.5596 22.6904 97.3076 22.5504C97.0556 22.4104 96.7663 22.2891 96.4396 22.1864C96.1129 22.0744 95.7676 21.9577 95.4036 21.8364C94.6289 21.5751 94.0456 21.2437 93.6536 20.8424C93.2616 20.4317 93.0656 19.8857 93.0656 19.2044C93.0656 18.6351 93.2009 18.1451 93.4716 17.7344C93.7423 17.3237 94.1203 17.0064 94.6056 16.7824C95.1003 16.5491 95.6696 16.4324 96.3136 16.4324C96.9669 16.4324 97.5363 16.5491 98.0216 16.7824C98.5163 17.0157 98.9036 17.3424 99.1836 17.7624C99.4729 18.1731 99.6223 18.6677 99.6316 19.2464H97.8396C97.8303 19.0037 97.7649 18.7797 97.6436 18.5744C97.5223 18.3597 97.3449 18.1871 97.1116 18.0564C96.8876 17.9164 96.6123 17.8464 96.2856 17.8464C96.0056 17.8371 95.7536 17.8837 95.5296 17.9864C95.3149 18.0797 95.1423 18.2197 95.0116 18.4064C94.8903 18.5837 94.8296 18.8077 94.8296 19.0784C94.8296 19.3397 94.8856 19.5591 94.9976 19.7364C95.1189 19.9044 95.2916 20.0491 95.5156 20.1704C95.7396 20.2824 96.0009 20.3897 96.2996 20.4924C96.5983 20.5951 96.9249 20.7071 97.2796 20.8284C97.7649 20.9871 98.2036 21.1831 98.5956 21.4164C98.9969 21.6404 99.3143 21.9344 99.5476 22.2984C99.7809 22.6624 99.8976 23.1337 99.8976 23.7124C99.8976 24.2164 99.7669 24.6877 99.5056 25.1264C99.2443 25.5557 98.8616 25.9057 98.3576 26.1764C97.8536 26.4377 97.2236 26.5684 96.4676 26.5684Z" fill="white"/>
<defs>
<filter id="filter0_d_17_7303" x="0.626664" y="0.469998" width="130.747" height="42.7467" filterUnits="userSpaceOnUse" color-interpolation-filters="sRGB">
<feFlood flood-opacity="0" result="BackgroundImageFix"/>
<feColorMatrix in="SourceAlpha" type="matrix" values="0 0 0 0 0 0 0 0 0 0 0 0 0 0 0 0 0 0 127 0" result="hardAlpha"/>
<feOffset dy="0.843334"/>
<feGaussianBlur stdDeviation="1.68667"/>
<feComposite in2="hardAlpha" operator="out"/>
<feColorMatrix type="matrix" values="0 0 0 0 0 0 0 0 0 0 0 0 0 0 0 0 0 0 0.25 0"/>
<feBlend mode="normal" in2="BackgroundImageFix" result="effect1_dropShadow_17_7303"/>
<feBlend mode="normal" in="SourceGraphic" in2="effect1_dropShadow_17_7303" result="shape"/>
</filter>
</defs>
</svg>
