<svg width="102" height="47" viewBox="0 0 102 47" fill="none" xmlns="http://www.w3.org/2000/svg">
<g filter="url(#filter0_d_775_2788)">
<rect x="5" y="4" width="92" height="36" rx="18" fill="#D30F45"/>
</g>
<path d="M27.7548 14H31.0831C31.4783 14.0145 31.8682 14.1773 32.1321 14.4624C32.3417 14.6855 32.4768 14.9738 32.4993 15.274C32.5174 15.4628 32.5076 15.6525 32.51 15.8416C33.0483 15.8422 33.5865 15.8422 34.1247 15.8419C34.3507 15.8413 34.5819 15.8365 34.8001 15.9004C35.1962 16.0106 35.5341 16.2966 35.6953 16.6609C35.863 17.029 35.847 17.4695 35.6488 17.8241C35.4697 18.1541 35.1429 18.4035 34.7681 18.4992C34.7603 21.4121 34.7684 24.3253 34.764 27.2384C34.7622 27.7398 34.5677 28.2456 34.1962 28.6037C33.8698 28.9261 33.4095 29.1149 32.9416 29.1273H25.8485C25.3683 29.1087 24.8991 28.9045 24.5742 28.5644C24.2203 28.201 24.0415 27.6999 24.0455 27.2062C24.044 24.3049 24.0471 21.4035 24.044 18.5021C23.6864 18.4049 23.3667 18.1774 23.1848 17.8645C22.9688 17.5085 22.941 17.0568 23.1075 16.6777C23.2668 16.3034 23.6121 16.0082 24.0181 15.8983C24.236 15.836 24.466 15.8413 24.691 15.8419C25.2274 15.8419 25.7638 15.8422 26.3001 15.8416C26.3029 15.6114 26.2884 15.3795 26.327 15.1511C26.3846 14.8252 26.5717 14.5227 26.8399 14.3155C27.0951 14.112 27.425 14.008 27.7548 14ZM27.5307 14.7448C27.3174 14.8095 27.1432 14.9777 27.0757 15.1821C27.011 15.396 27.0495 15.6223 27.0393 15.8416C28.6158 15.8428 30.1925 15.8407 31.7693 15.8428C31.7705 15.6785 31.7748 15.5142 31.7671 15.3502C31.7542 15.102 31.5868 14.8692 31.3488 14.77C31.1956 14.7002 31.0224 14.7079 30.8575 14.7082C29.8812 14.7085 28.9052 14.7085 27.929 14.7079C27.7958 14.7088 27.6586 14.7029 27.5307 14.7448ZM24.3929 16.5527C24.1583 16.5569 23.9321 16.6883 23.8233 16.8881C23.6953 17.1103 23.7271 17.4048 23.9 17.5972C24.0307 17.752 24.24 17.8315 24.4453 17.8261C27.7431 17.8264 31.0412 17.8255 34.339 17.8264C34.4734 17.8273 34.6127 17.809 34.7298 17.7416C34.9613 17.6187 35.0985 17.3546 35.0591 17.1035C35.0313 16.8798 34.8664 16.6795 34.6478 16.5976C34.5313 16.5515 34.4028 16.5498 34.2788 16.5507C30.9835 16.5527 27.6882 16.5486 24.3929 16.5527ZM24.786 18.5338C24.7841 21.4147 24.7853 24.2954 24.7853 27.1761C24.7776 27.533 24.9065 27.9041 25.1889 28.1464C25.3942 28.3304 25.6765 28.4223 25.9558 28.4185C28.2474 28.4197 30.539 28.4188 32.8306 28.4191C33.0366 28.4197 33.2465 28.3839 33.4259 28.2823C33.744 28.1115 33.9512 27.7853 34.0045 27.4438C34.0341 27.2476 34.0233 27.0493 34.0251 26.852C34.0248 24.0794 34.0255 21.3069 34.0248 18.5343C30.9453 18.534 27.8655 18.5349 24.786 18.5338Z" fill="white"/>
<path d="M27.3011 19.6819C27.4465 19.614 27.6317 19.6706 27.7164 19.815C27.7691 19.8947 27.7745 19.9959 27.7767 20.0903C27.7759 22.3437 27.7764 24.5969 27.7764 26.8504C27.779 26.9786 27.7454 27.1187 27.6447 27.1985C27.5051 27.3224 27.2741 27.2917 27.1674 27.1345C27.0827 27.0194 27.0946 26.8647 27.094 26.7274C27.0952 24.5044 27.0935 22.2813 27.0949 20.0583C27.0892 19.9036 27.1629 19.7428 27.3011 19.6819Z" fill="white"/>
<path d="M29.3196 19.6824C29.5366 19.5762 29.8 19.7765 29.7884 20.0287C29.7923 22.3142 29.7901 24.5996 29.7895 26.8851C29.8029 27.0989 29.6259 27.3008 29.4225 27.2764C29.2371 27.2676 29.0974 27.076 29.1082 26.8826C29.1068 24.6091 29.1077 22.3355 29.1079 20.0616C29.1011 19.9044 29.1793 19.7421 29.3196 19.6824Z" fill="white"/>
<path d="M31.338 19.6782C31.4714 19.6206 31.6367 19.6654 31.7249 19.7881C31.7911 19.8715 31.8037 19.9857 31.804 20.0914C31.8034 22.294 31.8034 24.4964 31.804 26.699C31.8028 26.8498 31.8202 27.0221 31.7212 27.1454C31.5963 27.3178 31.3249 27.3166 31.2012 27.1433C31.1085 27.0303 31.121 26.8705 31.1204 26.731C31.1215 24.5073 31.1201 22.284 31.121 20.0607C31.1127 19.9008 31.1944 19.736 31.338 19.6782Z" fill="white"/>
<path d="M42.923 26V16.9H45.861C46.9183 16.9 47.7893 17.0863 48.474 17.459C49.1673 17.8317 49.6787 18.3603 50.008 19.045C50.346 19.721 50.515 20.527 50.515 21.463C50.515 22.3817 50.346 23.1833 50.008 23.868C49.6787 24.544 49.1673 25.0683 48.474 25.441C47.7893 25.8137 46.9183 26 45.861 26H42.923ZM44.483 24.674H45.783C46.5717 24.674 47.1913 24.5483 47.642 24.297C48.1013 24.037 48.4263 23.6687 48.617 23.192C48.8163 22.7067 48.916 22.1303 48.916 21.463C48.916 20.787 48.8163 20.2107 48.617 19.734C48.4263 19.2487 48.1013 18.876 47.642 18.616C47.1913 18.3473 46.5717 18.213 45.783 18.213H44.483V24.674ZM55.0542 26.156C54.4042 26.156 53.8322 26.0173 53.3382 25.74C52.8442 25.454 52.4586 25.0553 52.1812 24.544C51.9039 24.0327 51.7652 23.4433 51.7652 22.776C51.7652 22.0827 51.8996 21.476 52.1682 20.956C52.4456 20.436 52.8312 20.0287 53.3252 19.734C53.8279 19.4393 54.4086 19.292 55.0672 19.292C55.7086 19.292 56.2676 19.435 56.7442 19.721C57.2209 20.007 57.5892 20.3927 57.8492 20.878C58.1092 21.3547 58.2392 21.892 58.2392 22.49C58.2392 22.5767 58.2392 22.672 58.2392 22.776C58.2392 22.88 58.2306 22.9883 58.2132 23.101H52.8832V22.1H56.6662C56.6489 21.6233 56.4886 21.2507 56.1852 20.982C55.8819 20.7047 55.5049 20.566 55.0542 20.566C54.7336 20.566 54.4389 20.6397 54.1702 20.787C53.9016 20.9343 53.6892 21.1553 53.5332 21.45C53.3772 21.736 53.2992 22.1 53.2992 22.542V22.919C53.2992 23.3263 53.3729 23.6773 53.5202 23.972C53.6762 24.2667 53.8842 24.492 54.1442 24.648C54.4129 24.7953 54.7119 24.869 55.0412 24.869C55.4052 24.869 55.7042 24.791 55.9382 24.635C56.1809 24.479 56.3586 24.271 56.4712 24.011H58.0572C57.9359 24.4183 57.7366 24.7867 57.4592 25.116C57.1819 25.4367 56.8396 25.6923 56.4322 25.883C56.0249 26.065 55.5656 26.156 55.0542 26.156ZM59.6796 26V16.64H61.2396V26H59.6796ZM66.0484 26.156C65.3984 26.156 64.8264 26.0173 64.3324 25.74C63.8384 25.454 63.4527 25.0553 63.1754 24.544C62.898 24.0327 62.7594 23.4433 62.7594 22.776C62.7594 22.0827 62.8937 21.476 63.1624 20.956C63.4397 20.436 63.8254 20.0287 64.3194 19.734C64.822 19.4393 65.4027 19.292 66.0614 19.292C66.7027 19.292 67.2617 19.435 67.7384 19.721C68.215 20.007 68.5834 20.3927 68.8434 20.878C69.1034 21.3547 69.2334 21.892 69.2334 22.49C69.2334 22.5767 69.2334 22.672 69.2334 22.776C69.2334 22.88 69.2247 22.9883 69.2074 23.101H63.8774V22.1H67.6604C67.643 21.6233 67.4827 21.2507 67.1794 20.982C66.876 20.7047 66.499 20.566 66.0484 20.566C65.7277 20.566 65.433 20.6397 65.1644 20.787C64.8957 20.9343 64.6834 21.1553 64.5274 21.45C64.3714 21.736 64.2934 22.1 64.2934 22.542V22.919C64.2934 23.3263 64.367 23.6773 64.5144 23.972C64.6704 24.2667 64.8784 24.492 65.1384 24.648C65.407 24.7953 65.706 24.869 66.0354 24.869C66.3994 24.869 66.6984 24.791 66.9324 24.635C67.175 24.479 67.3527 24.271 67.4654 24.011H69.0514C68.93 24.4183 68.7307 24.7867 68.4534 25.116C68.176 25.4367 67.8337 25.6923 67.4264 25.883C67.019 26.065 66.5597 26.156 66.0484 26.156ZM73.3938 26C72.9518 26 72.5661 25.9307 72.2368 25.792C71.9161 25.6533 71.6648 25.4237 71.4828 25.103C71.3008 24.7823 71.2098 24.349 71.2098 23.803V20.761H70.0918V19.448H71.2098L71.3918 17.719H72.7698V19.448H74.5508V20.761H72.7698V23.803C72.7698 24.1323 72.8391 24.362 72.9778 24.492C73.1251 24.6133 73.3678 24.674 73.7058 24.674H74.5118V26H73.3938ZM78.9214 26.156C78.2714 26.156 77.6994 26.0173 77.2054 25.74C76.7114 25.454 76.3258 25.0553 76.0484 24.544C75.7711 24.0327 75.6324 23.4433 75.6324 22.776C75.6324 22.0827 75.7668 21.476 76.0354 20.956C76.3128 20.436 76.6984 20.0287 77.1924 19.734C77.6951 19.4393 78.2758 19.292 78.9344 19.292C79.5758 19.292 80.1348 19.435 80.6114 19.721C81.0881 20.007 81.4564 20.3927 81.7164 20.878C81.9764 21.3547 82.1064 21.892 82.1064 22.49C82.1064 22.5767 82.1064 22.672 82.1064 22.776C82.1064 22.88 82.0978 22.9883 82.0804 23.101H76.7504V22.1H80.5334C80.5161 21.6233 80.3558 21.2507 80.0524 20.982C79.7491 20.7047 79.3721 20.566 78.9214 20.566C78.6008 20.566 78.3061 20.6397 78.0374 20.787C77.7688 20.9343 77.5564 21.1553 77.4004 21.45C77.2444 21.736 77.1664 22.1 77.1664 22.542V22.919C77.1664 23.3263 77.2401 23.6773 77.3874 23.972C77.5434 24.2667 77.7514 24.492 78.0114 24.648C78.2801 24.7953 78.5791 24.869 78.9084 24.869C79.2724 24.869 79.5714 24.791 79.8054 24.635C80.0481 24.479 80.2258 24.271 80.3384 24.011H81.9244C81.8031 24.4183 81.6038 24.7867 81.3264 25.116C81.0491 25.4367 80.7068 25.6923 80.2994 25.883C79.8921 26.065 79.4328 26.156 78.9214 26.156Z" fill="white"/>
<defs>
<filter id="filter0_d_775_2788" x="0.114921" y="0.336191" width="101.77" height="45.7702" filterUnits="userSpaceOnUse" color-interpolation-filters="sRGB">
<feFlood flood-opacity="0" result="BackgroundImageFix"/>
<feColorMatrix in="SourceAlpha" type="matrix" values="0 0 0 0 0 0 0 0 0 0 0 0 0 0 0 0 0 0 127 0" result="hardAlpha"/>
<feOffset dy="1.22127"/>
<feGaussianBlur stdDeviation="2.44254"/>
<feComposite in2="hardAlpha" operator="out"/>
<feColorMatrix type="matrix" values="0 0 0 0 0 0 0 0 0 0 0 0 0 0 0 0 0 0 0.25 0"/>
<feBlend mode="normal" in2="BackgroundImageFix" result="effect1_dropShadow_775_2788"/>
<feBlend mode="normal" in="SourceGraphic" in2="effect1_dropShadow_775_2788" result="shape"/>
</filter>
</defs>
</svg>
