<svg width="132" height="44" viewBox="0 0 132 44" fill="none" xmlns="http://www.w3.org/2000/svg">
<g filter="url(#filter0_d_17_7283)">
<rect x="4" y="3" width="124" height="36" rx="16" fill="#D0FF00"/>
<rect x="4.5" y="3.5" width="123" height="35" rx="15.5" stroke="#333333"/>
</g>
<path d="M43.994 25V15.2H47.158C48.2967 15.2 49.2347 15.4007 49.972 15.802C50.7187 16.2033 51.2693 16.7727 51.624 17.51C51.988 18.238 52.17 19.106 52.17 20.114C52.17 21.1033 51.988 21.9667 51.624 22.704C51.2693 23.432 50.7187 23.9967 49.972 24.398C49.2347 24.7993 48.2967 25 47.158 25H43.994ZM45.674 23.572H47.074C47.9233 23.572 48.5907 23.4367 49.076 23.166C49.5707 22.886 49.9207 22.4893 50.126 21.976C50.3407 21.4533 50.448 20.8327 50.448 20.114C50.448 19.386 50.3407 18.7653 50.126 18.252C49.9207 17.7293 49.5707 17.328 49.076 17.048C48.5907 16.7587 47.9233 16.614 47.074 16.614H45.674V23.572ZM53.8104 25V15.2H55.4904V25H53.8104ZM61.7308 25.168C60.8068 25.168 59.9948 24.958 59.2948 24.538C58.6041 24.118 58.0675 23.5347 57.6848 22.788C57.3021 22.032 57.1108 21.15 57.1108 20.142C57.1108 19.1433 57.3068 18.2613 57.6988 17.496C58.0908 16.7213 58.6508 16.1193 59.3788 15.69C60.1161 15.2513 60.9888 15.032 61.9968 15.032C63.1355 15.032 64.0781 15.3073 64.8248 15.858C65.5808 16.3993 66.0708 17.1553 66.2948 18.126H64.4048C64.2648 17.6407 63.9895 17.2627 63.5788 16.992C63.1681 16.7213 62.6361 16.586 61.9828 16.586C61.3201 16.586 60.7508 16.7307 60.2748 17.02C59.8081 17.3 59.4488 17.7107 59.1968 18.252C58.9541 18.784 58.8328 19.4187 58.8328 20.156C58.8328 20.8933 58.9541 21.528 59.1968 22.06C59.4488 22.592 59.8035 22.998 60.2608 23.278C60.7181 23.5487 61.2548 23.684 61.8708 23.684C62.7855 23.684 63.4761 23.4273 63.9428 22.914C64.4095 22.4007 64.6848 21.7333 64.7688 20.912H62.2348V19.638H66.4628V25H64.9228L64.7828 23.656C64.5681 23.9733 64.3208 24.2487 64.0408 24.482C63.7608 24.706 63.4295 24.8787 63.0468 25C62.6735 25.112 62.2348 25.168 61.7308 25.168ZM68.2753 25V15.2H69.9553V25H68.2753ZM74.2076 25V16.558H71.3236V15.2H78.7576V16.558H75.8736V25H74.2076ZM83.2957 25.168C82.5864 25.168 81.9564 25.042 81.4057 24.79C80.8551 24.538 80.4257 24.1787 80.1177 23.712C79.8097 23.2453 79.6511 22.69 79.6417 22.046H81.4197C81.4197 22.3727 81.4944 22.6667 81.6437 22.928C81.8024 23.18 82.0171 23.3807 82.2877 23.53C82.5677 23.6793 82.9037 23.754 83.2957 23.754C83.6317 23.754 83.9211 23.7027 84.1637 23.6C84.4157 23.488 84.6071 23.334 84.7377 23.138C84.8777 22.9327 84.9477 22.6947 84.9477 22.424C84.9477 22.116 84.8731 21.864 84.7237 21.668C84.5837 21.4627 84.3877 21.29 84.1357 21.15C83.8837 21.01 83.5944 20.8887 83.2677 20.786C82.9411 20.674 82.5957 20.5573 82.2317 20.436C81.4571 20.1747 80.8737 19.8433 80.4817 19.442C80.0897 19.0313 79.8937 18.4853 79.8937 17.804C79.8937 17.2347 80.0291 16.7447 80.2997 16.334C80.5704 15.9233 80.9484 15.606 81.4337 15.382C81.9284 15.1487 82.4977 15.032 83.1417 15.032C83.7951 15.032 84.3644 15.1487 84.8497 15.382C85.3444 15.6153 85.7317 15.942 86.0117 16.362C86.3011 16.7727 86.4504 17.2673 86.4597 17.846H84.6677C84.6584 17.6033 84.5931 17.3793 84.4717 17.174C84.3504 16.9593 84.1731 16.7867 83.9397 16.656C83.7157 16.516 83.4404 16.446 83.1137 16.446C82.8337 16.4367 82.5817 16.4833 82.3577 16.586C82.1431 16.6793 81.9704 16.8193 81.8397 17.006C81.7184 17.1833 81.6577 17.4073 81.6577 17.678C81.6577 17.9393 81.7137 18.1587 81.8257 18.336C81.9471 18.504 82.1197 18.6487 82.3437 18.77C82.5677 18.882 82.8291 18.9893 83.1277 19.092C83.4264 19.1947 83.7531 19.3067 84.1077 19.428C84.5931 19.5867 85.0317 19.7827 85.4237 20.016C85.8251 20.24 86.1424 20.534 86.3757 20.898C86.6091 21.262 86.7257 21.7333 86.7257 22.312C86.7257 22.816 86.5951 23.2873 86.3337 23.726C86.0724 24.1553 85.6897 24.5053 85.1857 24.776C84.6817 25.0373 84.0517 25.168 83.2957 25.168Z" fill="#333333"/>
<defs>
<filter id="filter0_d_17_7283" x="0.626664" y="0.469998" width="130.747" height="42.7467" filterUnits="userSpaceOnUse" color-interpolation-filters="sRGB">
<feFlood flood-opacity="0" result="BackgroundImageFix"/>
<feColorMatrix in="SourceAlpha" type="matrix" values="0 0 0 0 0 0 0 0 0 0 0 0 0 0 0 0 0 0 127 0" result="hardAlpha"/>
<feOffset dy="0.843334"/>
<feGaussianBlur stdDeviation="1.68667"/>
<feComposite in2="hardAlpha" operator="out"/>
<feColorMatrix type="matrix" values="0 0 0 0 0 0 0 0 0 0 0 0 0 0 0 0 0 0 0.25 0"/>
<feBlend mode="normal" in2="BackgroundImageFix" result="effect1_dropShadow_17_7283"/>
<feBlend mode="normal" in="SourceGraphic" in2="effect1_dropShadow_17_7283" result="shape"/>
</filter>
</defs>
</svg>
