<svg width="103" height="47" viewBox="0 0 103 47" fill="none" xmlns="http://www.w3.org/2000/svg">
<g filter="url(#filter0_d_775_2782)">
<rect x="5" y="4" width="93" height="36" rx="18" fill="#248A3D"/>
</g>
<g clip-path="url(#clip0_775_2782)">
<path d="M24.8004 28.875H25.1947C25.5773 28.8333 25.9499 28.6894 26.2512 28.4482C26.6167 28.1632 26.8752 27.7483 26.9774 27.2966C27.7434 27.2958 28.5094 27.2961 29.2757 27.2964C29.4011 27.2958 29.5369 27.3096 29.6493 27.2416C29.7672 27.1774 29.8417 27.056 29.8723 26.9281V26.8094C29.8423 26.6011 29.6545 26.4258 29.4407 26.4298C28.6197 26.4279 27.7987 26.4298 26.9776 26.429C26.8896 26.0429 26.6896 25.6831 26.4032 25.4088C26.0504 25.0669 25.5692 24.8615 25.0779 24.8469C24.565 24.8255 24.0485 25.0132 23.6662 25.3552C23.3489 25.6348 23.1262 26.0166 23.0335 26.4287C20.8335 26.4301 18.6339 26.4279 16.4339 26.4298C16.2209 26.425 16.0324 26.597 15.999 26.8043V26.9214C16.0318 27.1284 16.2185 27.3012 16.4318 27.2958C18.6322 27.2972 20.833 27.295 23.0335 27.2969C23.1297 27.7258 23.3679 28.1215 23.7052 28.4041C24.0125 28.6674 24.4008 28.8243 24.8004 28.875ZM24.7877 27.9933C24.4043 27.9215 24.0694 27.641 23.9312 27.2766C23.8041 26.9522 23.8361 26.5705 24.0176 26.2727C24.2035 25.9584 24.5466 25.7429 24.9113 25.7158C25.1966 25.6917 25.49 25.7787 25.7144 25.957C25.9916 26.1713 26.1604 26.5179 26.1561 26.8685C26.1566 27.217 25.9865 27.5597 25.7103 27.7716C25.4537 27.9746 25.1083 28.0559 24.7877 27.9933Z" fill="white"/>
<path d="M19.6294 23.5313C20.0388 23.8524 20.5761 24.0036 21.0931 23.9429C21.5088 23.8993 21.9066 23.7166 22.2163 23.4367C22.5271 23.1576 22.7463 22.7799 22.8373 22.3724C25.0384 22.3699 27.2394 22.3729 29.4402 22.371C29.6572 22.3765 29.8474 22.1949 29.8723 21.983V21.8952C29.8496 21.6817 29.6572 21.5004 29.4402 21.5053C27.2391 21.5029 25.0381 21.5061 22.8373 21.5037C22.7498 21.1146 22.546 20.7528 22.2566 20.4784C21.9225 20.157 21.4741 19.9567 21.011 19.9259C20.5087 19.8874 19.9952 20.0489 19.6039 20.3662C19.2471 20.6507 18.9943 21.0593 18.894 21.5042C18.1277 21.5048 17.3614 21.5048 16.5954 21.5042C16.4743 21.5056 16.344 21.4915 16.2342 21.5538C16.1093 21.6164 16.0269 21.7416 15.999 21.8763V21.9941C16.0242 22.1318 16.1071 22.261 16.2345 22.3239C16.3445 22.3843 16.4729 22.3708 16.5932 22.3718C17.3601 22.3713 18.1269 22.3713 18.894 22.3718C18.9956 22.8279 19.259 23.246 19.6294 23.5313ZM20.6395 23.0669C20.2664 22.994 19.9399 22.7236 19.7993 22.3705C19.6708 22.0592 19.6906 21.6915 19.8516 21.3956C20.0226 21.0734 20.3539 20.842 20.7165 20.797C21.0484 20.7512 21.3972 20.862 21.6426 21.0902C21.8992 21.3224 22.0404 21.6747 22.0139 22.0196C21.993 22.3426 21.8261 22.6515 21.5698 22.8485C21.311 23.0525 20.9617 23.1319 20.6395 23.0669Z" fill="white"/>
<path d="M23.7258 18.5712C24.1006 18.8823 24.591 19.0495 25.0776 19.0297C25.5505 19.0156 26.0138 18.8246 26.362 18.5051C26.6698 18.2268 26.8852 17.8513 26.9776 17.4472C27.7978 17.4467 28.618 17.4481 29.4383 17.4464C29.6526 17.4529 29.8379 17.2776 29.8723 17.0709V16.9657C29.8461 16.7544 29.6553 16.5756 29.4391 16.5804C28.6186 16.5791 27.7978 16.581 26.9774 16.5796C26.8663 16.0829 26.5631 15.6323 26.1414 15.3467C25.8624 15.153 25.5329 15.0397 25.1963 15.0013H24.821C24.4005 15.0454 23.9927 15.2161 23.6757 15.4974C23.3538 15.7781 23.1267 16.1632 23.0332 16.5794C20.9062 16.581 18.7788 16.5796 16.6515 16.5802C16.5507 16.5821 16.4488 16.5728 16.3488 16.5886C16.1673 16.6224 16.0245 16.7818 15.999 16.963V17.0682C16.0291 17.2776 16.218 17.4524 16.4328 17.4464C18.6331 17.4483 20.8333 17.4462 23.0335 17.4475C23.1316 17.8851 23.3776 18.288 23.7258 18.5712ZM24.8712 18.1566C24.5203 18.1176 24.1957 17.9049 24.0163 17.6014C23.8312 17.2958 23.8028 16.9018 23.942 16.5729C24.0724 16.2556 24.3517 16.0049 24.681 15.9093C25.0156 15.809 25.3947 15.8727 25.6767 16.0792C25.9566 16.278 26.1379 16.6081 26.1545 16.9514C26.1772 17.3199 26.007 17.6922 25.7155 17.9182C25.4806 18.106 25.1695 18.1924 24.8712 18.1566Z" fill="white"/>
</g>
<path d="M33.852 26V17.6H39.276V18.764H35.292V21.176H38.916V22.316H35.292V24.836H39.276V26H33.852ZM43.4295 26.144C42.8695 26.144 42.3695 26.008 41.9295 25.736C41.4895 25.464 41.1455 25.088 40.8975 24.608C40.6575 24.128 40.5375 23.584 40.5375 22.976C40.5375 22.368 40.6615 21.828 40.9095 21.356C41.1575 20.876 41.5015 20.5 41.9415 20.228C42.3895 19.948 42.8935 19.808 43.4535 19.808C43.9095 19.808 44.3055 19.896 44.6415 20.072C44.9855 20.24 45.2575 20.48 45.4575 20.792V17.36H46.8975V26H45.6015L45.4575 25.124C45.3295 25.3 45.1735 25.468 44.9895 25.628C44.8055 25.78 44.5855 25.904 44.3295 26C44.0735 26.096 43.7735 26.144 43.4295 26.144ZM43.7295 24.896C44.0735 24.896 44.3775 24.816 44.6415 24.656C44.9055 24.488 45.1095 24.26 45.2535 23.972C45.3975 23.684 45.4695 23.352 45.4695 22.976C45.4695 22.6 45.3975 22.268 45.2535 21.98C45.1095 21.692 44.9055 21.468 44.6415 21.308C44.3775 21.148 44.0735 21.068 43.7295 21.068C43.4015 21.068 43.1055 21.148 42.8415 21.308C42.5775 21.468 42.3695 21.692 42.2175 21.98C42.0735 22.268 42.0015 22.6 42.0015 22.976C42.0015 23.352 42.0735 23.684 42.2175 23.972C42.3695 24.26 42.5775 24.488 42.8415 24.656C43.1055 24.816 43.4015 24.896 43.7295 24.896ZM48.5593 26V19.952H49.9993V26H48.5593ZM49.2793 18.992C49.0153 18.992 48.7953 18.912 48.6193 18.752C48.4513 18.584 48.3673 18.38 48.3673 18.14C48.3673 17.892 48.4513 17.692 48.6193 17.54C48.7953 17.38 49.0153 17.3 49.2793 17.3C49.5433 17.3 49.7593 17.38 49.9273 17.54C50.1033 17.692 50.1913 17.892 50.1913 18.14C50.1913 18.38 50.1033 18.584 49.9273 18.752C49.7593 18.912 49.5433 18.992 49.2793 18.992ZM54.2914 26C53.8834 26 53.5274 25.936 53.2234 25.808C52.9274 25.68 52.6954 25.468 52.5274 25.172C52.3594 24.876 52.2754 24.476 52.2754 23.972V21.164H51.2434V19.952H52.2754L52.4434 18.356H53.7154V19.952H55.3594V21.164H53.7154V23.972C53.7154 24.276 53.7794 24.488 53.9074 24.608C54.0434 24.72 54.2674 24.776 54.5794 24.776H55.3234V26H54.2914ZM59.6918 26V17.6H65.0558V18.764H61.1318V21.224H64.3358V22.364H61.1318V26H59.6918ZM66.3015 26V19.952H67.7415V26H66.3015ZM67.0215 18.992C66.7575 18.992 66.5375 18.912 66.3615 18.752C66.1935 18.584 66.1095 18.38 66.1095 18.14C66.1095 17.892 66.1935 17.692 66.3615 17.54C66.5375 17.38 66.7575 17.3 67.0215 17.3C67.2855 17.3 67.5015 17.38 67.6695 17.54C67.8455 17.692 67.9335 17.892 67.9335 18.14C67.9335 18.38 67.8455 18.584 67.6695 18.752C67.5015 18.912 67.2855 18.992 67.0215 18.992ZM69.4056 26V17.36H70.8456V26H69.4056ZM75.0804 26C74.6724 26 74.3164 25.936 74.0124 25.808C73.7164 25.68 73.4844 25.468 73.3164 25.172C73.1484 24.876 73.0644 24.476 73.0644 23.972V21.164H72.0324V19.952H73.0644L73.2324 18.356H74.5044V19.952H76.1484V21.164H74.5044V23.972C74.5044 24.276 74.5684 24.488 74.6964 24.608C74.8324 24.72 75.0564 24.776 75.3684 24.776H76.1124V26H75.0804ZM80.1829 26.144C79.5829 26.144 79.0549 26.016 78.5989 25.76C78.1429 25.496 77.7869 25.128 77.5309 24.656C77.2749 24.184 77.1469 23.64 77.1469 23.024C77.1469 22.384 77.2709 21.824 77.5189 21.344C77.7749 20.864 78.1309 20.488 78.5869 20.216C79.0509 19.944 79.5869 19.808 80.1949 19.808C80.7869 19.808 81.3029 19.94 81.7429 20.204C82.1829 20.468 82.5229 20.824 82.7629 21.272C83.0029 21.712 83.1229 22.208 83.1229 22.76C83.1229 22.84 83.1229 22.928 83.1229 23.024C83.1229 23.12 83.1149 23.22 83.0989 23.324H78.1789V22.4H81.6709C81.6549 21.96 81.5069 21.616 81.2269 21.368C80.9469 21.112 80.5989 20.984 80.1829 20.984C79.8869 20.984 79.6149 21.052 79.3669 21.188C79.1189 21.324 78.9229 21.528 78.7789 21.8C78.6349 22.064 78.5629 22.4 78.5629 22.808V23.156C78.5629 23.532 78.6309 23.856 78.7669 24.128C78.9109 24.4 79.1029 24.608 79.3429 24.752C79.5909 24.888 79.8669 24.956 80.1709 24.956C80.5069 24.956 80.7829 24.884 80.9989 24.74C81.2229 24.596 81.3869 24.404 81.4909 24.164H82.9549C82.8429 24.54 82.6589 24.88 82.4029 25.184C82.1469 25.48 81.8309 25.716 81.4549 25.892C81.0789 26.06 80.6549 26.144 80.1829 26.144ZM84.4524 26V19.952H85.7364L85.8684 21.08C86.0124 20.816 86.1924 20.592 86.4084 20.408C86.6244 20.216 86.8764 20.068 87.1644 19.964C87.4604 19.86 87.7844 19.808 88.1364 19.808V21.332H87.6324C87.3924 21.332 87.1644 21.364 86.9484 21.428C86.7324 21.484 86.5444 21.58 86.3844 21.716C86.2324 21.844 86.1124 22.024 86.0244 22.256C85.9364 22.48 85.8924 22.764 85.8924 23.108V26H84.4524Z" fill="white"/>
<defs>
<filter id="filter0_d_775_2782" x="0.114921" y="0.336191" width="102.77" height="45.7702" filterUnits="userSpaceOnUse" color-interpolation-filters="sRGB">
<feFlood flood-opacity="0" result="BackgroundImageFix"/>
<feColorMatrix in="SourceAlpha" type="matrix" values="0 0 0 0 0 0 0 0 0 0 0 0 0 0 0 0 0 0 127 0" result="hardAlpha"/>
<feOffset dy="1.22127"/>
<feGaussianBlur stdDeviation="2.44254"/>
<feComposite in2="hardAlpha" operator="out"/>
<feColorMatrix type="matrix" values="0 0 0 0 0 0 0 0 0 0 0 0 0 0 0 0 0 0 0.25 0"/>
<feBlend mode="normal" in2="BackgroundImageFix" result="effect1_dropShadow_775_2782"/>
<feBlend mode="normal" in="SourceGraphic" in2="effect1_dropShadow_775_2782" result="shape"/>
</filter>
<clipPath id="clip0_775_2782">
<rect width="13.8733" height="13.8733" fill="white" transform="matrix(1 0 0 -1 16 28.874)"/>
</clipPath>
</defs>
</svg>
