<svg width="132" height="44" viewBox="0 0 132 44" fill="none" xmlns="http://www.w3.org/2000/svg">
<g filter="url(#filter0_d_17_7265)">
<rect x="4" y="3" width="124" height="36" rx="16" fill="#FF39A6"/>
<rect x="4.5" y="3.5" width="123" height="35" rx="15.5" stroke="#333333"/>
</g>
<path d="M28.994 25V15.2H35.252V16.558H30.674V19.428H34.412V20.758H30.674V25H28.994ZM36.6913 25V15.2H38.3713V25H36.6913ZM40.3417 25V15.2H44.1777C44.8683 15.2 45.4423 15.3073 45.8997 15.522C46.3663 15.7367 46.7163 16.0353 46.9497 16.418C47.183 16.7913 47.2997 17.2253 47.2997 17.72C47.2997 18.2147 47.1923 18.63 46.9777 18.966C46.763 19.302 46.4783 19.5587 46.1237 19.736C45.7783 19.9133 45.4003 20.0207 44.9897 20.058L45.1997 19.904C45.6383 19.9133 46.0303 20.03 46.3757 20.254C46.7303 20.478 47.0103 20.772 47.2157 21.136C47.421 21.4907 47.5237 21.8873 47.5237 22.326C47.5237 22.8393 47.3977 23.3013 47.1457 23.712C46.903 24.1133 46.5437 24.4307 46.0677 24.664C45.5917 24.888 45.0083 25 44.3177 25H40.3417ZM42.0217 23.628H44.0657C44.6163 23.628 45.0457 23.4973 45.3537 23.236C45.6617 22.9747 45.8157 22.6107 45.8157 22.144C45.8157 21.6773 45.657 21.3087 45.3397 21.038C45.0223 20.758 44.5883 20.618 44.0377 20.618H42.0217V23.628ZM42.0217 19.344H43.9397C44.481 19.344 44.8917 19.2227 45.1717 18.98C45.4517 18.728 45.5917 18.3827 45.5917 17.944C45.5917 17.5147 45.4517 17.1787 45.1717 16.936C44.8917 16.684 44.4763 16.558 43.9257 16.558H42.0217V19.344ZM53.5987 25.168C52.656 25.168 51.8207 24.958 51.0927 24.538C50.374 24.1087 49.8093 23.516 49.3987 22.76C48.988 21.9947 48.7827 21.108 48.7827 20.1C48.7827 19.1013 48.988 18.224 49.3987 17.468C49.8093 16.7027 50.374 16.1053 51.0927 15.676C51.8207 15.2467 52.656 15.032 53.5987 15.032C54.56 15.032 55.4047 15.2467 56.1327 15.676C56.8607 16.1053 57.4253 16.7027 57.8267 17.468C58.228 18.224 58.4287 19.1013 58.4287 20.1C58.4287 21.108 58.228 21.9947 57.8267 22.76C57.4253 23.516 56.8607 24.1087 56.1327 24.538C55.4047 24.958 54.56 25.168 53.5987 25.168ZM53.6127 23.656C54.238 23.656 54.784 23.516 55.2507 23.236C55.7173 22.9467 56.0767 22.536 56.3287 22.004C56.5807 21.472 56.7067 20.8373 56.7067 20.1C56.7067 19.3627 56.5807 18.728 56.3287 18.196C56.0767 17.664 55.7173 17.258 55.2507 16.978C54.784 16.6887 54.238 16.544 53.6127 16.544C52.9873 16.544 52.4413 16.6887 51.9747 16.978C51.508 17.258 51.144 17.664 50.8827 18.196C50.6307 18.728 50.5047 19.3627 50.5047 20.1C50.5047 20.8373 50.6307 21.472 50.8827 22.004C51.144 22.536 51.508 22.9467 51.9747 23.236C52.4413 23.516 52.9873 23.656 53.6127 23.656ZM60.0702 25V15.2H61.7502L66.4682 22.284V15.2H68.1482V25H66.4682L61.7502 17.93V25H60.0702ZM69.475 25L73.059 15.2H74.935L78.519 25H76.741L73.983 17.16L71.225 25H69.475ZM71.071 22.69L71.519 21.36H76.349L76.797 22.69H71.071ZM83.6605 25.168C82.6898 25.168 81.8498 24.958 81.1405 24.538C80.4405 24.1087 79.8992 23.516 79.5165 22.76C79.1432 21.9947 78.9565 21.1127 78.9565 20.114C78.9565 19.106 79.1432 18.224 79.5165 17.468C79.8992 16.7027 80.4405 16.1053 81.1405 15.676C81.8498 15.2467 82.6898 15.032 83.6605 15.032C84.8272 15.032 85.7792 15.3213 86.5165 15.9C87.2538 16.4693 87.7205 17.2767 87.9165 18.322H86.0685C85.9378 17.7713 85.6718 17.3373 85.2705 17.02C84.8692 16.7027 84.3278 16.544 83.6465 16.544C83.0305 16.544 82.4985 16.6887 82.0505 16.978C81.6118 17.258 81.2712 17.6687 81.0285 18.21C80.7952 18.742 80.6785 19.3767 80.6785 20.114C80.6785 20.8513 80.7952 21.486 81.0285 22.018C81.2712 22.5407 81.6118 22.9467 82.0505 23.236C82.4985 23.516 83.0305 23.656 83.6465 23.656C84.3278 23.656 84.8692 23.5113 85.2705 23.222C85.6718 22.9233 85.9378 22.5127 86.0685 21.99H87.9165C87.7298 22.9793 87.2632 23.7587 86.5165 24.328C85.7792 24.888 84.8272 25.168 83.6605 25.168ZM93.9144 25.168C92.9437 25.168 92.1037 24.958 91.3944 24.538C90.6944 24.1087 90.1531 23.516 89.7704 22.76C89.3971 21.9947 89.2104 21.1127 89.2104 20.114C89.2104 19.106 89.3971 18.224 89.7704 17.468C90.1531 16.7027 90.6944 16.1053 91.3944 15.676C92.1037 15.2467 92.9437 15.032 93.9144 15.032C95.0811 15.032 96.0331 15.3213 96.7704 15.9C97.5077 16.4693 97.9744 17.2767 98.1704 18.322H96.3224C96.1917 17.7713 95.9257 17.3373 95.5244 17.02C95.1231 16.7027 94.5817 16.544 93.9004 16.544C93.2844 16.544 92.7524 16.6887 92.3044 16.978C91.8657 17.258 91.5251 17.6687 91.2824 18.21C91.0491 18.742 90.9324 19.3767 90.9324 20.114C90.9324 20.8513 91.0491 21.486 91.2824 22.018C91.5251 22.5407 91.8657 22.9467 92.3044 23.236C92.7524 23.516 93.2844 23.656 93.9004 23.656C94.5817 23.656 95.1231 23.5113 95.5244 23.222C95.9257 22.9233 96.1917 22.5127 96.3224 21.99H98.1704C97.9837 22.9793 97.5171 23.7587 96.7704 24.328C96.0331 24.888 95.0811 25.168 93.9144 25.168ZM99.8143 25V15.2H101.494V25H99.8143Z" fill="#333333"/>
<defs>
<filter id="filter0_d_17_7265" x="0.626664" y="0.469998" width="130.747" height="42.7467" filterUnits="userSpaceOnUse" color-interpolation-filters="sRGB">
<feFlood flood-opacity="0" result="BackgroundImageFix"/>
<feColorMatrix in="SourceAlpha" type="matrix" values="0 0 0 0 0 0 0 0 0 0 0 0 0 0 0 0 0 0 127 0" result="hardAlpha"/>
<feOffset dy="0.843334"/>
<feGaussianBlur stdDeviation="1.68667"/>
<feComposite in2="hardAlpha" operator="out"/>
<feColorMatrix type="matrix" values="0 0 0 0 0 0 0 0 0 0 0 0 0 0 0 0 0 0 0.25 0"/>
<feBlend mode="normal" in2="BackgroundImageFix" result="effect1_dropShadow_17_7265"/>
<feBlend mode="normal" in="SourceGraphic" in2="effect1_dropShadow_17_7265" result="shape"/>
</filter>
</defs>
</svg>
