<svg width="132" height="44" viewBox="0 0 132 44" fill="none" xmlns="http://www.w3.org/2000/svg">
<g filter="url(#filter0_d_17_7293)">
<rect x="4" y="3" width="124" height="36" rx="16" fill="#0022FF"/>
<rect x="4.5" y="3.5" width="123" height="35" rx="15.5" stroke="#333333"/>
</g>
<path d="M47.994 25V15.2H49.674V23.684H54.042V25H47.994ZM55.6776 25V15.2H57.3576V25H55.6776ZM59.328 25V15.2H61.008L65.726 22.284V15.2H67.406V25H65.726L61.008 17.93V25H59.328ZM69.3768 25V15.2H75.7048V16.558H71.0568V19.372H75.2848V20.702H71.0568V23.642H75.7048V25H69.3768ZM80.7606 25.168C80.0512 25.168 79.4212 25.042 78.8706 24.79C78.3199 24.538 77.8906 24.1787 77.5826 23.712C77.2746 23.2453 77.1159 22.69 77.1066 22.046H78.8846C78.8846 22.3727 78.9592 22.6667 79.1086 22.928C79.2672 23.18 79.4819 23.3807 79.7526 23.53C80.0326 23.6793 80.3686 23.754 80.7606 23.754C81.0966 23.754 81.3859 23.7027 81.6286 23.6C81.8806 23.488 82.0719 23.334 82.2026 23.138C82.3426 22.9327 82.4126 22.6947 82.4126 22.424C82.4126 22.116 82.3379 21.864 82.1886 21.668C82.0486 21.4627 81.8526 21.29 81.6006 21.15C81.3486 21.01 81.0592 20.8887 80.7326 20.786C80.4059 20.674 80.0606 20.5573 79.6966 20.436C78.9219 20.1747 78.3386 19.8433 77.9466 19.442C77.5546 19.0313 77.3586 18.4853 77.3586 17.804C77.3586 17.2347 77.4939 16.7447 77.7646 16.334C78.0352 15.9233 78.4132 15.606 78.8986 15.382C79.3932 15.1487 79.9626 15.032 80.6066 15.032C81.2599 15.032 81.8292 15.1487 82.3146 15.382C82.8092 15.6153 83.1966 15.942 83.4766 16.362C83.7659 16.7727 83.9152 17.2673 83.9246 17.846H82.1326C82.1232 17.6033 82.0579 17.3793 81.9366 17.174C81.8152 16.9593 81.6379 16.7867 81.4046 16.656C81.1806 16.516 80.9052 16.446 80.5786 16.446C80.2986 16.4367 80.0466 16.4833 79.8226 16.586C79.6079 16.6793 79.4352 16.8193 79.3046 17.006C79.1832 17.1833 79.1226 17.4073 79.1226 17.678C79.1226 17.9393 79.1786 18.1587 79.2906 18.336C79.4119 18.504 79.5846 18.6487 79.8086 18.77C80.0326 18.882 80.2939 18.9893 80.5926 19.092C80.8912 19.1947 81.2179 19.3067 81.5726 19.428C82.0579 19.5867 82.4966 19.7827 82.8886 20.016C83.2899 20.24 83.6072 20.534 83.8406 20.898C84.0739 21.262 84.1906 21.7333 84.1906 22.312C84.1906 22.816 84.0599 23.2873 83.7986 23.726C83.5372 24.1553 83.1546 24.5053 82.6506 24.776C82.1466 25.0373 81.5166 25.168 80.7606 25.168Z" fill="white"/>
<defs>
<filter id="filter0_d_17_7293" x="0.626664" y="0.469998" width="130.747" height="42.7467" filterUnits="userSpaceOnUse" color-interpolation-filters="sRGB">
<feFlood flood-opacity="0" result="BackgroundImageFix"/>
<feColorMatrix in="SourceAlpha" type="matrix" values="0 0 0 0 0 0 0 0 0 0 0 0 0 0 0 0 0 0 127 0" result="hardAlpha"/>
<feOffset dy="0.843334"/>
<feGaussianBlur stdDeviation="1.68667"/>
<feComposite in2="hardAlpha" operator="out"/>
<feColorMatrix type="matrix" values="0 0 0 0 0 0 0 0 0 0 0 0 0 0 0 0 0 0 0.25 0"/>
<feBlend mode="normal" in2="BackgroundImageFix" result="effect1_dropShadow_17_7293"/>
<feBlend mode="normal" in="SourceGraphic" in2="effect1_dropShadow_17_7293" result="shape"/>
</filter>
</defs>
</svg>
