<svg width="132" height="44" viewBox="0 0 132 44" fill="none" xmlns="http://www.w3.org/2000/svg">
<g filter="url(#filter0_d_17_7253)">
<rect x="4" y="3" width="124" height="36" rx="16" fill="#9589D9"/>
<rect x="4.5" y="3.5" width="123" height="35" rx="15.5" stroke="#333333"/>
</g>
<path d="M51.3739 26.2002V16.4002H53.0539V24.8842H57.4219V26.2002H51.3739ZM62.6348 26.3682C61.6921 26.3682 60.8568 26.1582 60.1288 25.7382C59.4101 25.3089 58.8455 24.7162 58.4348 23.9602C58.0241 23.1949 57.8188 22.3082 57.8188 21.3002C57.8188 20.3015 58.0241 19.4242 58.4348 18.6682C58.8455 17.9029 59.4101 17.3055 60.1288 16.8762C60.8568 16.4469 61.6921 16.2322 62.6348 16.2322C63.5961 16.2322 64.4408 16.4469 65.1688 16.8762C65.8968 17.3055 66.4615 17.9029 66.8628 18.6682C67.2641 19.4242 67.4648 20.3015 67.4648 21.3002C67.4648 22.3082 67.2641 23.1949 66.8628 23.9602C66.4615 24.7162 65.8968 25.3089 65.1688 25.7382C64.4408 26.1582 63.5961 26.3682 62.6348 26.3682ZM62.6488 24.8562C63.2741 24.8562 63.8201 24.7162 64.2868 24.4362C64.7535 24.1469 65.1128 23.7362 65.3648 23.2042C65.6168 22.6722 65.7428 22.0375 65.7428 21.3002C65.7428 20.5629 65.6168 19.9282 65.3648 19.3962C65.1128 18.8642 64.7535 18.4582 64.2868 18.1782C63.8201 17.8889 63.2741 17.7442 62.6488 17.7442C62.0235 17.7442 61.4775 17.8889 61.0108 18.1782C60.5441 18.4582 60.1801 18.8642 59.9188 19.3962C59.6668 19.9282 59.5408 20.5629 59.5408 21.3002C59.5408 22.0375 59.6668 22.6722 59.9188 23.2042C60.1801 23.7362 60.5441 24.1469 61.0108 24.4362C61.4775 24.7162 62.0235 24.8562 62.6488 24.8562ZM70.6701 26.2002L68.0661 16.4002H69.8581L71.6921 24.2822L73.8201 16.4002H75.6821L77.7401 24.2962L79.5881 16.4002H81.3941L78.7201 26.2002H76.7321L74.7161 18.7802L72.6441 26.2002H70.6701Z" fill="#333333"/>
<defs>
<filter id="filter0_d_17_7253" x="0.626664" y="0.469998" width="130.747" height="42.7467" filterUnits="userSpaceOnUse" color-interpolation-filters="sRGB">
<feFlood flood-opacity="0" result="BackgroundImageFix"/>
<feColorMatrix in="SourceAlpha" type="matrix" values="0 0 0 0 0 0 0 0 0 0 0 0 0 0 0 0 0 0 127 0" result="hardAlpha"/>
<feOffset dy="0.843334"/>
<feGaussianBlur stdDeviation="1.68667"/>
<feComposite in2="hardAlpha" operator="out"/>
<feColorMatrix type="matrix" values="0 0 0 0 0 0 0 0 0 0 0 0 0 0 0 0 0 0 0.25 0"/>
<feBlend mode="normal" in2="BackgroundImageFix" result="effect1_dropShadow_17_7253"/>
<feBlend mode="normal" in="SourceGraphic" in2="effect1_dropShadow_17_7253" result="shape"/>
</filter>
</defs>
</svg>
