<svg width="103" height="47" viewBox="0 0 103 47" fill="none" xmlns="http://www.w3.org/2000/svg">
<g filter="url(#filter0_d_718_2703)">
<rect x="5" y="4" width="93" height="36" rx="18" fill="#FEFFFF"/>
</g>
<path d="M34.7946 30.1076C33.996 29.8427 33.2301 29.5583 32.5059 29.2607C33.7369 30.0365 35.3006 30.7321 36.9673 31.2225C37.699 31.4521 38.4457 31.6313 39.202 31.7587C39.4791 31.8037 39.7317 31.8405 39.9745 31.8634L40.1568 31.8781L40.2311 31.8846C40.7018 31.9321 41.1748 31.9507 41.6477 31.9402C42.1842 31.9356 42.7178 31.8597 43.2343 31.7146L43.3863 31.6664L43.4109 31.6582L43.4861 31.6329C43.6116 31.5871 43.733 31.5308 43.849 31.4645C41.9878 31.8241 38.544 31.3508 34.7946 30.1076Z" fill="#FFDE1B"/>
<path d="M42.0602 12.9062L46.8257 13.3967L48.6534 20.1811H48.7581C48.8053 19.6323 48.8833 19.0865 48.9918 18.5463L50.1076 13.7392L53.9772 14.1405L55.7387 25.5842L52.3424 25.7828L51.6885 19.3613H51.619C51.5671 19.7591 51.4932 20.1537 51.3975 20.5433L49.9989 25.9218L47.6358 26.0599L45.9127 20.795C45.7548 20.2686 45.6424 19.7296 45.5767 19.1839L45.4296 19.179C45.4173 19.694 45.4051 20.2253 45.3756 20.7386L45.0699 26.2103L40.5162 26.4768L42.0602 12.9062ZM56.046 14.3555L61.8087 14.953V17.8139L59.323 17.6684L59.3295 18.6976L61.6011 18.7948V21.4759H59.3443L59.35 22.5148L61.8888 22.4764V25.2335L56.1924 25.567L56.046 14.3555ZM69.6583 19.5223C69.6158 20.9937 69.5945 22.2149 68.8654 23.3715C68.1968 24.4398 67.1586 25.0668 66.1442 25.1289C65.6334 25.1626 65.1217 25.0759 64.6505 24.8757C64.1793 24.6755 63.7617 24.3675 63.4313 23.9764C62.6956 23.1361 62.2305 21.8617 62.2313 20.2302C62.2313 16.8739 64.0427 15.0209 66.2587 15.2563C67.4161 15.3797 68.921 16.3443 69.3746 17.9603L67.2249 19.0065C67.0483 18.521 66.7099 18.2488 66.3192 18.2267C65.4307 18.1777 64.923 19.246 64.9141 20.4272C64.9067 21.4996 65.3783 22.4952 66.1794 22.4813C66.4134 22.4757 66.6384 22.3901 66.8169 22.2386C66.9954 22.0872 67.1166 21.8792 67.1603 21.6492H66.074L66.0952 19.3899L69.6583 19.5223ZM72.1587 21.5609L72.5797 18.955H72.6549C72.681 19.3204 72.7072 19.6964 72.7554 20.0594L72.941 21.556L72.1587 21.5609ZM71.7557 23.593L73.2156 23.5358L73.3595 24.5575L75.2599 24.4455L73.7281 16.1898L71.5612 15.9658L69.3754 24.7938L71.5743 24.6646L71.7557 23.593ZM50.4427 26.7188L52.7609 26.5921L52.9162 32.2019L50.6405 32.5068L50.4427 26.722M53.7884 26.5332L55.9079 26.4139L55.9749 30.0807L57.6408 29.8993L57.6629 31.5651L53.9241 32.067L53.7884 26.5332ZM58.1206 26.288L59.9982 26.1834L60.0211 29.6393L61.4998 29.4759V31.0494L58.1868 31.4916L58.1247 26.2855M61.9788 26.0681L63.6463 25.9741L63.6266 30.7608L61.9804 30.9807V26.0656M66.5497 27.2501C67.0123 27.2125 67.2894 27.5917 67.2853 28.0675C67.2772 28.5808 66.969 28.9666 66.5292 29.0157C66.0895 29.0647 65.7707 28.7394 65.7772 28.213C65.7821 27.7225 66.0813 27.2844 66.5513 27.2468M66.5701 25.7305C65.3113 25.8 64.2315 26.8397 64.2225 28.3372C64.2127 29.8527 65.2623 30.612 66.5113 30.4445C67.7079 30.281 68.6619 29.3181 68.6888 27.9105C68.7142 26.5209 67.7766 25.6635 66.5701 25.7305ZM69.1899 25.6586L70.4528 25.5866L71.5203 27.8566H71.5571C71.5063 27.5047 71.4812 27.1495 71.4819 26.794L71.5105 25.5294L72.6671 25.4649L72.5429 29.569L71.3985 29.7219L70.3531 27.6367H70.3163C70.3563 27.9172 70.376 28.2002 70.3751 28.4835L70.3424 29.8609L69.0975 30.0243L69.1899 25.6586ZM73.2924 28.0291L73.3497 28.0814C73.5467 28.262 73.7845 28.3985 74.0412 28.3691C74.1499 28.3568 74.3248 28.28 74.3314 28.101C74.3379 27.922 74.1932 27.9228 74.0935 27.9064L73.8704 27.877C73.4322 27.8222 73.066 27.5214 73.0865 26.8839C73.1175 25.9112 73.8221 25.3308 74.4875 25.2916C74.8241 25.2677 75.1572 25.3719 75.4202 25.5834L75.0932 26.6109C74.915 26.458 74.7098 26.3436 74.4728 26.3656C74.4102 26.3655 74.35 26.3893 74.3044 26.4322C74.2588 26.475 74.2313 26.5337 74.2276 26.5961C74.2235 26.7449 74.3592 26.7547 74.4434 26.7735L74.6886 26.8258C75.1398 26.9223 75.4537 27.2125 75.4291 27.8721C75.3932 28.7941 74.7393 29.3344 74.0902 29.4252C73.6834 29.4742 73.2712 29.4023 72.905 29.2184L73.2924 28.0291ZM40.6273 27.2664L43.6648 27.0948L44.8983 30.3251L44.9686 30.3186C44.9978 30.0351 45.0472 29.754 45.1165 29.4775L45.8383 26.9721L48.4916 26.8226L49.8297 32.6049L47.4379 32.9253L46.9475 29.6818L46.9001 29.6867C46.8665 29.8966 46.8184 30.1039 46.7562 30.3072L45.8334 33.1476L44.2501 33.3593L43.0992 30.8368C42.9945 30.5885 42.9196 30.3287 42.876 30.0628L42.7812 30.0709C42.7747 30.3268 42.7681 30.59 42.751 30.8466L42.5744 33.5849L39.6914 33.9708L40.6273 27.2664Z" fill="#8D969C"/>
<path d="M42.7204 12.332L47.4858 12.8225L49.3135 19.6069H49.4182C49.4653 19.058 49.5434 18.5122 49.6519 17.9721L50.7677 13.1658L54.6373 13.5671L56.398 25.0108L53.0025 25.2094L52.3486 18.7871H52.2791C52.2269 19.1857 52.1524 19.5812 52.0559 19.9715L50.6574 25.3492L48.2959 25.489L46.5711 20.2241C46.4128 19.6975 46.3004 19.1581 46.2352 18.6121H46.0889C46.0766 19.1271 46.0644 19.6584 46.0349 20.1718L45.7284 25.6435L41.1738 25.9108L42.7204 12.332ZM56.7053 13.7805L62.4697 14.378V17.2389L59.9848 17.091L59.9921 18.1201L62.2629 18.2173V20.8984H60.006L60.0125 21.9365L62.5514 21.8989V24.656L56.8549 24.9895L56.7053 13.7805ZM70.3192 18.9465C70.2767 20.4178 70.2554 21.6439 69.5263 22.7964C68.8577 23.8656 67.8196 24.4909 66.8052 24.553C66.2946 24.5873 65.7832 24.5012 65.312 24.3017C64.8408 24.1022 64.423 23.795 64.0922 23.4046C63.3566 22.5643 62.8906 21.29 62.8914 19.6584C62.8914 16.3022 64.7028 14.4499 66.918 14.6853C68.0771 14.8071 69.5811 15.7725 70.0339 17.3885L67.8842 18.4348C67.7076 17.9443 67.37 17.677 66.9793 17.655C66.0908 17.6051 65.5823 18.6735 65.5742 19.8562C65.5676 20.9279 66.0385 21.9226 66.8395 21.9096C67.0734 21.9037 67.2983 21.8179 67.4767 21.6665C67.6552 21.5151 67.7764 21.3073 67.8204 21.0774H66.7332L66.7545 18.8181L70.3192 18.9465ZM72.818 20.99L73.2382 18.3849H73.3084C73.3354 18.7503 73.3608 19.1255 73.4082 19.4892L73.5954 20.9851L72.818 20.99ZM72.4175 23.0229L73.8774 22.9656L74.0204 23.9858L75.9241 23.8705L74.3923 15.6147L72.2213 15.3883L70.0388 24.2163L72.2368 24.0871L72.4175 23.0229Z" fill="white"/>
<path d="M42.9472 12.1064L47.7127 12.5969L49.5412 19.3813H49.6459C49.6926 18.8324 49.7707 18.2866 49.8796 17.7465L50.9938 12.9418L54.8642 13.3432L56.6249 24.7868L53.2294 24.9855L52.5754 18.5639H52.5068C52.4543 18.9622 52.3801 19.3574 52.2844 19.7475L50.8859 25.1252L48.5228 25.2642L46.7997 19.9993C46.6417 19.4726 46.5294 18.9333 46.4637 18.3874H46.3166C46.3035 18.9032 46.2921 19.4345 46.2626 19.9478L45.9561 25.4195L41.4023 25.686L42.9472 12.1064ZM56.933 13.5549L62.6965 14.1524V17.0133L60.2125 16.8654L60.219 17.8945L62.4906 17.9918V20.6728H60.2362L60.2419 21.7109L62.7816 21.6725V24.4296L57.0851 24.7631L56.933 13.5549ZM70.5453 18.7209C70.5036 20.1922 70.4815 21.4183 69.7532 22.5709C69.0854 23.6392 68.0465 24.2653 67.0312 24.3275C66.5204 24.3616 66.0088 24.2753 65.5374 24.0756C65.066 23.8758 64.6482 23.5681 64.3175 23.1774C63.5818 22.3371 63.1167 21.0627 63.1175 19.4312C63.1175 16.0741 64.9289 14.2227 67.1449 14.4573C68.3023 14.5807 69.808 15.5453 70.2608 17.1613L68.1102 18.2076C67.9337 17.7171 67.5953 17.449 67.2053 17.4277C66.3168 17.3779 65.8084 18.4462 65.8002 19.629C65.7937 20.7006 66.2645 21.6954 67.0656 21.6823C67.2995 21.6768 67.5244 21.5912 67.7029 21.44C67.8813 21.2887 68.0026 21.0808 68.0465 20.851H66.9601L66.9814 18.5909L70.5453 18.7209ZM73.0465 20.7595L73.4675 18.1544H73.5378C73.5648 18.5198 73.5901 18.8958 73.6375 19.2596L73.8247 20.7562L73.0465 20.7595ZM72.646 22.7924L74.1059 22.7352L74.2497 23.7561L76.1494 23.6498L74.6168 15.3875L72.4474 15.1627L70.2624 23.9907L72.4604 23.8615L72.646 22.7924Z" fill="#EE3E33"/>
<path d="M25.0163 14.6652C25.103 13.372 25.546 12.2408 26.3798 11.4029C28.1707 9.60054 31.3243 9.59073 34.5636 11.0531C35.1296 11.3106 35.6794 11.6024 36.2099 11.9269L36.2998 11.98L36.1747 11.9359C36.0113 11.9841 35.8478 12.0397 35.69 12.0993C35.2677 11.8547 34.8451 11.6367 34.4222 11.4454C33.9546 11.2303 33.4745 11.0436 32.9844 10.8863C30.4357 10.0689 28.0939 10.2798 26.6789 11.7037C26.025 12.3576 25.6359 13.2077 25.4823 14.1821C25.4487 14.3987 25.4269 14.617 25.4169 14.836C25.34 16.4242 25.8256 18.2732 26.8155 20.1263C27.0451 20.557 27.301 20.9878 27.583 21.4145C28.2724 22.4531 29.0667 23.418 29.9535 24.2942C31.67 25.9977 33.653 27.3006 35.5936 28.0543C33.4071 26.6764 31.5265 24.8648 30.0679 22.7313C29.9396 22.5417 29.817 22.3504 29.6976 22.1591C27.9427 19.3244 27.2887 16.3752 27.9623 14.1878C28.0007 14.0549 28.0462 13.9242 28.0988 13.7963C28.2328 13.8273 28.3702 13.8649 28.5075 13.9083C29.5521 14.2352 30.6573 14.8998 31.6283 15.8635C31.7918 16.027 31.9496 16.1954 32.0983 16.367C32.0603 16.5522 32.033 16.7394 32.0166 16.9278C31.8048 16.6591 31.5769 16.4036 31.3341 16.1627C30.3949 15.2374 29.3437 14.6006 28.3636 14.2949C27.6737 16.4733 28.4143 19.4919 30.3254 22.361C30.4374 22.5286 30.5526 22.6962 30.6728 22.8629C31.2673 23.6877 31.929 24.4619 32.6509 25.1778C34.15 26.6663 35.8543 27.8475 37.5553 28.6232C38.0338 28.8433 38.5252 29.0344 39.0267 29.1954C38.4822 29.1904 37.9394 29.1357 37.4049 29.0319C34.8252 28.5365 32.0346 26.9573 29.6576 24.5966C28.4003 23.3593 27.3332 21.9426 26.4909 20.3927C26.1531 19.77 25.8626 19.1227 25.622 18.4563C25.3061 17.5913 25.1052 16.6885 25.0245 15.7711C24.9948 15.4032 24.9921 15.0335 25.0163 14.6652Z" fill="#FFDE1B"/>
<path d="M26.0479 14.613C26.0936 13.5553 26.4288 12.6365 27.0884 11.9614C28.657 10.3535 31.6299 10.5276 34.6592 12.1248C34.7189 12.1567 34.7794 12.1845 34.8391 12.218C34.7034 12.2941 32.5135 13.1768 32.0975 15.4877C30.1439 13.6714 27.8086 13.0076 26.822 14.0163C26.6264 14.226 26.4934 14.4862 26.4378 14.7675C26.4346 15.4417 26.5285 16.1129 26.7165 16.7603C26.8762 17.3363 27.0843 17.8976 27.3386 18.4385C26.7165 17.6015 26.3078 16.7399 26.1329 15.9667C26.0698 15.6818 26.0424 15.3902 26.0511 15.0986C26.0511 15.0413 26.0438 14.9833 26.043 14.9277C26.043 14.8223 26.0479 14.7193 26.052 14.6171" fill="#FFDE1B"/>
<path d="M26.8256 15.3831L27.437 14.2012L27.2212 15.5139C26.7986 18.1059 28.0713 21.4466 30.6404 24.4506C30.6404 24.4506 26.452 19.1963 26.452 17.0784C26.4395 16.4914 26.5691 15.9101 26.8296 15.384" fill="#EC1C24"/>
<path d="M37.9347 24.725C37.3066 24.7532 36.6772 24.7231 36.0547 24.6351C37.1816 25.3187 38.5077 25.5984 39.8147 25.428C40.4178 25.371 41.0061 25.208 41.5525 24.9466C41.7502 24.8501 41.9413 24.7409 42.1247 24.6196L42.2563 24.5248L42.3095 24.4855C43.193 23.8891 43.8991 23.065 44.353 22.1004L44.4429 21.9025L44.4568 21.8699L44.5017 21.7693C44.5793 21.5808 44.6456 21.3878 44.7004 21.1914C43.5184 23.1589 40.9575 24.5894 37.9298 24.7218" fill="#FFDE1B"/>
<path d="M31.5504 14.5625C31.6755 14.0712 31.8283 13.5873 32.0081 13.1133C31.4145 13.9549 31.0058 14.9126 30.809 15.9235C30.7027 16.3927 30.6479 16.8721 30.6455 17.3532C30.6455 17.5305 30.652 17.694 30.6659 17.851L30.6798 17.9687L30.6856 18.0161C30.7145 18.3268 30.7711 18.6342 30.8548 18.9348C30.9543 19.3051 31.1127 19.657 31.324 19.977L31.3951 20.0776L31.4073 20.0939L31.4433 20.1438C31.5101 20.2314 31.5839 20.3134 31.664 20.389C31.0248 19.1629 30.9381 16.9453 31.5504 14.5634" fill="#EC1C24"/>
<path d="M50.8757 26.2975L53.1955 26.1667L53.3492 31.7757L51.0752 32.0806L50.8765 26.2975M54.223 26.1087L56.3417 25.9893L56.4095 29.6562L58.0746 29.4739L58.0967 31.1406L54.3587 31.6417L54.223 26.1087ZM58.5552 25.8634L60.4295 25.758L60.4516 29.2132L61.9311 29.0497V30.6232L58.6141 31.0678L58.5528 25.8618M62.406 25.6436L64.0752 25.5495L64.0539 30.3395L62.4093 30.5594V25.6436M66.9794 26.828C67.442 26.7904 67.72 27.1705 67.7151 27.6454C67.7069 28.1587 67.3987 28.5445 66.959 28.5927C66.5192 28.641 66.2012 28.3165 66.2069 27.7901C66.2118 27.2996 66.5118 26.8615 66.9818 26.8239M67.0006 25.3076C65.7418 25.3771 64.6612 26.4168 64.6531 27.9151C64.6441 29.4306 65.6928 30.1908 66.9418 30.0208C68.1393 29.8573 69.0932 28.8952 69.1194 27.4868C69.1455 26.0972 68.208 25.2406 67.0015 25.3076M69.6172 25.2365L70.88 25.1654L71.9484 27.4353H71.9844C71.9344 27.0833 71.9093 26.7282 71.9092 26.3727L71.9443 25.1057L73.1017 25.0411L72.9816 29.1469L71.8372 29.3006L70.7918 27.2154H70.7533C70.7934 27.4959 70.8131 27.7789 70.8122 28.0623L70.7746 29.442L69.5297 29.6055L69.6172 25.2365ZM73.7197 27.6119L73.7761 27.6642C73.9731 27.844 74.2102 27.9813 74.4668 27.9519C74.5763 27.9396 74.7513 27.862 74.7578 27.6846C74.7644 27.5072 74.6197 27.5056 74.5191 27.4901L74.2976 27.4606C73.8587 27.4059 73.4925 27.1051 73.5129 26.4675C73.544 25.4948 74.2486 24.9144 74.9139 24.8744C75.2509 24.8508 75.5843 24.9553 75.8474 25.167L75.5205 26.1945C75.3423 26.0416 75.1371 25.9264 74.9009 25.9493C74.8383 25.9491 74.778 25.973 74.7325 26.0158C74.6869 26.0587 74.6594 26.1173 74.6556 26.1798C74.6499 26.3285 74.7881 26.3375 74.8714 26.358L75.1167 26.4103C75.5679 26.5067 75.8817 26.7977 75.8564 27.4566C75.8213 28.3786 75.1665 28.9181 74.5167 29.0096C74.1098 29.0589 73.6974 28.9866 73.3314 28.802L73.7197 27.6119ZM41.0546 26.8492L44.0912 26.6776L45.3247 29.9079L45.3942 29.9006C45.4234 29.6171 45.4728 29.336 45.5421 29.0595L46.2639 26.5541L48.918 26.4046L50.2577 32.1893L47.866 32.5097L47.3756 29.2663H47.3282C47.2943 29.4762 47.246 29.6835 47.1835 29.8867L46.2615 32.7231L44.6781 32.9356L43.5272 30.4131C43.4233 30.1645 43.3484 29.9048 43.3041 29.639L43.2093 29.648C43.2027 29.9039 43.197 30.1671 43.1798 30.4237L42.9992 33.162L40.1162 33.5479L41.0546 26.8492Z" fill="white"/>
<path d="M51.0128 26.0706L53.3488 25.9388L53.5036 31.5891L51.212 31.8963L51.0128 26.0706ZM54.383 25.8796L56.5173 25.7593L56.5856 29.454L58.2637 29.2696L58.286 30.9493L54.5197 31.4541L54.383 25.8796ZM58.7471 25.6325L60.636 25.5255L60.6574 29.0061L62.1486 28.8414V30.4273L58.808 30.8736L58.7446 25.6301M62.6328 25.4143L64.3126 25.3196L64.2928 30.144L62.6328 30.3672V25.4143ZM69.8953 25.0026L71.1675 24.931L72.2429 27.2176H72.2791C72.229 26.863 72.204 26.5053 72.2042 26.1472L72.2387 24.8701L73.4039 24.8042L73.2787 28.9385L72.1259 29.0925L71.072 26.9928H71.0316C71.072 27.2754 71.0918 27.5605 71.0909 27.8459L71.058 29.2333L69.8039 29.398L69.8953 25.0026ZM74.028 27.3988L74.0849 27.4515C74.2841 27.6334 74.5229 27.7709 74.7823 27.7413C74.8918 27.729 75.068 27.6507 75.0746 27.4712C75.0812 27.2917 74.9354 27.2917 74.8342 27.2761L74.6102 27.2464C74.1688 27.1904 73.7999 26.8882 73.8197 26.246C73.851 25.2661 74.5567 24.6815 75.231 24.642C75.57 24.6182 75.9055 24.7232 76.1706 24.9359L75.8412 25.9701C75.6609 25.817 75.4542 25.7017 75.2162 25.7231C75.1532 25.723 75.0925 25.747 75.0466 25.7901C75.0007 25.8333 74.973 25.8924 74.9692 25.9553C74.9643 26.1052 75.1018 26.1142 75.1858 26.134L75.4328 26.1875C75.8881 26.2839 76.2035 26.577 76.1739 27.2407C76.1376 28.1703 75.4789 28.7129 74.8251 28.8052C74.4151 28.8552 73.9994 28.7831 73.6303 28.5977L74.028 27.3988ZM41.1227 26.6297L44.1825 26.4568L45.4234 29.7101L45.4934 29.7027C45.5232 29.4174 45.573 29.1345 45.6424 28.8562L46.3695 26.3333L49.0464 26.1818L50.3927 32.0099L47.9834 32.3327L47.4894 29.0654L47.4416 29.0703C47.4074 29.2814 47.3587 29.49 47.2959 29.6944L46.3687 32.55L44.7737 32.7633L43.6119 30.2181C43.5069 29.9676 43.4315 29.7056 43.3871 29.4375L43.2916 29.4466C43.2842 29.7043 43.2784 29.9695 43.2611 30.228L43.08 32.9856L40.1758 33.3751L41.1227 26.6297ZM67.2554 25.08C65.9866 25.15 64.8997 26.1974 64.8898 27.7067C64.8807 29.2342 65.938 29.9983 67.1953 29.8287C68.4016 29.664 69.3626 28.694 69.3889 27.2761C69.4161 25.8763 68.4708 25.0142 67.2554 25.0808" fill="#004FA2"/>
<path d="M67.0095 26.9784L67.3708 25.7441L67.7746 26.9188L68.8037 26.837L68.01 27.6029L68.3648 28.6655L67.4484 28.1293L66.3727 29.1552L66.7814 27.7656L65.5938 27.0822L67.0095 26.9792" fill="white"/>
<mask id="mask0_718_2703" style="mask-type:luminance" maskUnits="userSpaceOnUse" x="32" y="12" width="13" height="12">
<path d="M32.3828 18.0966C32.382 19.2462 32.7221 20.3703 33.3602 21.3266C33.9983 22.283 34.9056 23.0286 35.9674 23.4693C37.0293 23.9099 38.1979 24.0258 39.3256 23.8023C40.4533 23.5787 41.4894 23.0258 42.3029 22.2134C43.1163 21.4009 43.6706 20.3656 43.8956 19.2381C44.1205 18.1107 44.0061 16.9419 43.5668 15.8795C43.1275 14.8171 42.383 13.9088 41.4275 13.2696C40.4719 12.6303 39.3483 12.2887 38.1986 12.2881C37.4353 12.2874 36.6794 12.4372 35.974 12.7288C35.2685 13.0204 34.6275 13.4481 34.0874 13.9875C33.5473 14.5269 33.1188 15.1674 32.8263 15.8724C32.5338 16.5775 32.3831 17.3333 32.3828 18.0966Z" fill="white"/>
</mask>
<g mask="url(#mask0_718_2703)">
<path d="M32.3828 12.2881H44.0088V23.905H32.3828V12.2881Z" fill="url(#paint0_radial_718_2703)"/>
</g>
<path d="M41.5399 14.705L42.3957 15.3704L41.4843 15.381L41.3952 16.5254L40.8631 15.3908H39.7188L40.5411 14.6854L39.9926 13.5059L40.9874 14.2791L41.6241 13.7274L41.5424 14.7083" fill="#0065A3"/>
<path d="M42.9694 17.7708L43.1173 18.9446L42.4593 18.0226L41.5463 18.4778L42.0449 17.4397L41.3477 16.4515L42.3285 16.8716L42.7479 16.0068L42.8852 17.0948L43.6764 17.4299L42.9702 17.7708" fill="#0065A3"/>
<path d="M41.6164 21.0609L40.6151 22.1235L41.0148 20.5508L39.9873 19.6958L41.2347 19.6828L41.5723 18.3945L41.909 19.6868L42.9095 19.6811L42.1387 20.4985L42.4853 21.7941L41.6164 21.0585" fill="#0065A3"/>
<path d="M37.3642 21.5107L35.6133 20.8503L37.611 20.3206L37.9633 18.5918L38.6385 20.0468L40.0779 19.6798L39.0366 20.9361L39.7019 22.3919L38.2985 21.863L36.9342 23.5265L37.3633 21.5107" fill="#0065A3"/>
<path d="M35.1177 16.806L35.2215 15.1025L36.3561 16.5387L38.0211 16.1791L37.0157 17.3766L38.026 18.6844L36.3005 18.2054L34.9354 19.8083L35.0539 17.8858L32.8232 17.2834L35.1177 16.806Z" fill="#0065A3"/>
<path d="M38.2464 13.6678L39.403 13.3499L38.9085 14.3684L39.9008 15.4073L38.5799 15.0493L37.9734 16.2647L37.6693 14.7885L35.9307 14.3079L37.4592 13.8861L37.1649 12.5137L38.2505 13.6678" fill="#0065A3"/>
<path d="M76.6603 29.1267H76.5458L76.4518 28.8815H76.2982V29.1267H76.1895V28.5235H76.4518C76.5106 28.5179 76.5693 28.5355 76.6153 28.5725C76.6322 28.5892 76.6455 28.6093 76.6542 28.6313C76.6629 28.6534 76.6669 28.6771 76.666 28.7009C76.6681 28.7361 76.6587 28.7711 76.6392 28.8005C76.6198 28.83 76.5913 28.8524 76.5581 28.8643L76.6603 29.1267ZM76.299 28.7916H76.4347C76.466 28.7934 76.497 28.7848 76.523 28.7671C76.5322 28.7582 76.5396 28.7476 76.5445 28.7357C76.5494 28.7239 76.5518 28.7112 76.5516 28.6984C76.5519 28.6862 76.5495 28.674 76.5446 28.6629C76.5396 28.6517 76.5322 28.6418 76.523 28.6338C76.4997 28.6158 76.4706 28.6071 76.4412 28.6093H76.2965L76.299 28.7916Z" fill="#231F20"/>
<path d="M76.4147 29.415C76.2991 29.4148 76.1862 29.3804 76.0902 29.3161C75.9942 29.2518 75.9194 29.1604 75.8753 29.0536C75.8312 28.9468 75.8197 28.8293 75.8424 28.716C75.865 28.6027 75.9208 28.4986 76.0025 28.417C76.0843 28.3353 76.1884 28.2797 76.3018 28.2573C76.4151 28.2348 76.5326 28.2464 76.6393 28.2907C76.7461 28.3349 76.8373 28.4098 76.9015 28.5059C76.9657 28.602 76.9999 28.715 76.9999 28.8305C76.9999 28.9074 76.9848 28.9834 76.9554 29.0544C76.926 29.1253 76.8828 29.1898 76.8285 29.2441C76.7741 29.2984 76.7096 29.3414 76.6386 29.3707C76.5676 29.4001 76.4915 29.4151 76.4147 29.415ZM76.4147 28.3139C76.3125 28.3139 76.2126 28.3442 76.1277 28.401C76.0427 28.4578 75.9765 28.5384 75.9374 28.6328C75.8983 28.7272 75.8881 28.8311 75.908 28.9313C75.9279 29.0315 75.9771 29.1236 76.0494 29.1958C76.1216 29.2681 76.2137 29.3173 76.3139 29.3372C76.4141 29.3571 76.518 29.3469 76.6124 29.3078C76.7068 29.2687 76.7875 29.2025 76.8442 29.1175C76.901 29.0326 76.9313 28.9327 76.9313 28.8305C76.9313 28.6935 76.8769 28.5621 76.78 28.4652C76.6831 28.3684 76.5517 28.3139 76.4147 28.3139Z" fill="#231F20"/>
<defs>
<filter id="filter0_d_718_2703" x="0.114921" y="0.336191" width="102.77" height="45.7702" filterUnits="userSpaceOnUse" color-interpolation-filters="sRGB">
<feFlood flood-opacity="0" result="BackgroundImageFix"/>
<feColorMatrix in="SourceAlpha" type="matrix" values="0 0 0 0 0 0 0 0 0 0 0 0 0 0 0 0 0 0 127 0" result="hardAlpha"/>
<feOffset dy="1.22127"/>
<feGaussianBlur stdDeviation="2.44254"/>
<feComposite in2="hardAlpha" operator="out"/>
<feColorMatrix type="matrix" values="0 0 0 0 0 0 0 0 0 0 0 0 0 0 0 0 0 0 0.25 0"/>
<feBlend mode="normal" in2="BackgroundImageFix" result="effect1_dropShadow_718_2703"/>
<feBlend mode="normal" in="SourceGraphic" in2="effect1_dropShadow_718_2703" result="shape"/>
</filter>
<radialGradient id="paint0_radial_718_2703" cx="0" cy="0" r="1" gradientUnits="userSpaceOnUse" gradientTransform="translate(35.21 15.5843) scale(13.4203 13.4092)">
<stop stop-color="white"/>
<stop offset="0.05" stop-color="white"/>
<stop offset="0.11" stop-color="#FFFCE9"/>
<stop offset="0.29" stop-color="#FFF3AB"/>
<stop offset="0.47" stop-color="#FFEB78"/>
<stop offset="0.63" stop-color="#FFE650"/>
<stop offset="0.78" stop-color="#FFE133"/>
<stop offset="0.91" stop-color="#FFDF21"/>
<stop offset="1" stop-color="#FFDE1B"/>
</radialGradient>
</defs>
</svg>
