<svg width="132" height="44" viewBox="0 0 132 44" fill="none" xmlns="http://www.w3.org/2000/svg">
<g filter="url(#filter0_d_17_7271)">
<rect x="4" y="3" width="124" height="36" rx="16" fill="#77F0F8"/>
<rect x="4.5" y="3.5" width="123" height="35" rx="15.5" stroke="#333333"/>
</g>
<path d="M29.827 26.4004V16.6004H31.815L34.951 22.9284L38.059 16.6004H40.061V26.4004H38.381V19.4844L35.609 25.0284H34.293L31.507 19.4984V26.4004H29.827ZM45.7597 26.5684C45.0503 26.5684 44.4063 26.4284 43.8277 26.1484C43.2583 25.8684 42.801 25.4391 42.4557 24.8604C42.1197 24.2817 41.9517 23.5537 41.9517 22.6764V16.6004H43.6317V22.6904C43.6317 23.2224 43.7203 23.6611 43.8977 24.0064C44.075 24.3517 44.3223 24.6131 44.6397 24.7904C44.9663 24.9584 45.349 25.0424 45.7877 25.0424C46.2357 25.0424 46.6183 24.9584 46.9357 24.7904C47.2623 24.6131 47.5097 24.3517 47.6777 24.0064C47.855 23.6611 47.9437 23.2224 47.9437 22.6904V16.6004H49.6237V22.6764C49.6237 23.5537 49.451 24.2817 49.1057 24.8604C48.7603 25.4391 48.2937 25.8684 47.7057 26.1484C47.1177 26.4284 46.469 26.5684 45.7597 26.5684ZM51.5106 26.4004V16.6004H53.1906V25.0844H57.5586V26.4004H51.5106ZM59.8629 26.4004V17.9584H56.9789V16.6004H64.4129V17.9584H61.5289V26.4004H59.8629ZM65.3486 26.4704C65.0313 26.4704 64.7746 26.3724 64.5786 26.1764C64.3826 25.9804 64.2846 25.7471 64.2846 25.4764C64.2846 25.1871 64.3826 24.9444 64.5786 24.7484C64.7746 24.5524 65.0313 24.4544 65.3486 24.4544C65.6566 24.4544 65.9086 24.5524 66.1046 24.7484C66.3006 24.9444 66.3986 25.1871 66.3986 25.4764C66.3986 25.7471 66.3006 25.9804 66.1046 26.1764C65.9086 26.3724 65.6566 26.4704 65.3486 26.4704ZM75.8692 26.5684C74.9265 26.5684 74.0912 26.3584 73.3632 25.9384C72.6445 25.5091 72.0798 24.9164 71.6692 24.1604C71.2585 23.3951 71.0532 22.5084 71.0532 21.5004C71.0532 20.5017 71.2585 19.6244 71.6692 18.8684C72.0798 18.1031 72.6445 17.5057 73.3632 17.0764C74.0912 16.6471 74.9265 16.4324 75.8692 16.4324C76.8305 16.4324 77.6752 16.6471 78.4032 17.0764C79.1312 17.5057 79.6958 18.1031 80.0972 18.8684C80.4985 19.6244 80.6992 20.5017 80.6992 21.5004C80.6992 22.5084 80.4985 23.3951 80.0972 24.1604C79.6958 24.9164 79.1312 25.5091 78.4032 25.9384C77.6752 26.3584 76.8305 26.5684 75.8692 26.5684ZM75.8832 25.0564C76.5085 25.0564 77.0545 24.9164 77.5212 24.6364C77.9878 24.3471 78.3472 23.9364 78.5992 23.4044C78.8512 22.8724 78.9772 22.2377 78.9772 21.5004C78.9772 20.7631 78.8512 20.1284 78.5992 19.5964C78.3472 19.0644 77.9878 18.6584 77.5212 18.3784C77.0545 18.0891 76.5085 17.9444 75.8832 17.9444C75.2578 17.9444 74.7118 18.0891 74.2452 18.3784C73.7785 18.6584 73.4145 19.0644 73.1532 19.5964C72.9012 20.1284 72.7752 20.7631 72.7752 21.5004C72.7752 22.2377 72.9012 22.8724 73.1532 23.4044C73.4145 23.9364 73.7785 24.3471 74.2452 24.6364C74.7118 24.9164 75.2578 25.0564 75.8832 25.0564ZM82.3407 26.4004V16.6004H88.5987V17.9584H84.0207V20.8284H87.7587V22.1584H84.0207V26.4004H82.3407ZM96.6339 26.5684C95.9992 26.5684 95.4206 26.4564 94.8979 26.2324C94.3752 25.9991 93.9552 25.6491 93.6379 25.1824C93.3299 24.7064 93.1666 24.1091 93.1479 23.3904H94.7999C94.8092 23.7171 94.8839 24.0157 95.0239 24.2864C95.1732 24.5477 95.3832 24.7577 95.6539 24.9164C95.9246 25.0657 96.2512 25.1404 96.6339 25.1404C96.9979 25.1404 97.3059 25.0704 97.5579 24.9304C97.8192 24.7904 98.0152 24.5991 98.1459 24.3564C98.2766 24.1137 98.3419 23.8431 98.3419 23.5444C98.3419 23.1804 98.2532 22.8817 98.0759 22.6484C97.8986 22.4057 97.6559 22.2237 97.3479 22.1024C97.0399 21.9811 96.6899 21.9204 96.2979 21.9204H95.5699V20.5344H96.2979C96.8112 20.5344 97.2312 20.4177 97.5579 20.1844C97.8846 19.9417 98.0479 19.5917 98.0479 19.1344C98.0479 18.7517 97.9219 18.4437 97.6699 18.2104C97.4272 17.9771 97.0772 17.8604 96.6199 17.8604C96.1439 17.8604 95.7659 18.0004 95.4859 18.2804C95.2152 18.5604 95.0659 18.9057 95.0379 19.3164H93.3859C93.4139 18.7284 93.5632 18.2197 93.8339 17.7904C94.1139 17.3517 94.4919 17.0157 94.9679 16.7824C95.4439 16.5491 95.9992 16.4324 96.6339 16.4324C97.2966 16.4324 97.8566 16.5491 98.3139 16.7824C98.7712 17.0157 99.1166 17.3284 99.3499 17.7204C99.5926 18.1124 99.7139 18.5417 99.7139 19.0084C99.7139 19.3724 99.6439 19.7037 99.5039 20.0024C99.3639 20.3011 99.1726 20.5531 98.9299 20.7584C98.6966 20.9544 98.4212 21.0991 98.1039 21.1924C98.4679 21.2671 98.7899 21.4117 99.0699 21.6264C99.3592 21.8411 99.5832 22.1164 99.7419 22.4524C99.9099 22.7791 99.9939 23.1617 99.9939 23.6004C99.9939 24.1324 99.8632 24.6271 99.6019 25.0844C99.3499 25.5324 98.9719 25.8917 98.4679 26.1624C97.9732 26.4331 97.3619 26.5684 96.6339 26.5684Z" fill="#333333"/>
<defs>
<filter id="filter0_d_17_7271" x="0.626664" y="0.469998" width="130.747" height="42.7467" filterUnits="userSpaceOnUse" color-interpolation-filters="sRGB">
<feFlood flood-opacity="0" result="BackgroundImageFix"/>
<feColorMatrix in="SourceAlpha" type="matrix" values="0 0 0 0 0 0 0 0 0 0 0 0 0 0 0 0 0 0 127 0" result="hardAlpha"/>
<feOffset dy="0.843334"/>
<feGaussianBlur stdDeviation="1.68667"/>
<feComposite in2="hardAlpha" operator="out"/>
<feColorMatrix type="matrix" values="0 0 0 0 0 0 0 0 0 0 0 0 0 0 0 0 0 0 0.25 0"/>
<feBlend mode="normal" in2="BackgroundImageFix" result="effect1_dropShadow_17_7271"/>
<feBlend mode="normal" in="SourceGraphic" in2="effect1_dropShadow_17_7271" result="shape"/>
</filter>
</defs>
</svg>
