<svg width="102" height="47" viewBox="0 0 102 47" fill="none" xmlns="http://www.w3.org/2000/svg">
<g filter="url(#filter0_d_718_2708)">
<path d="M5 22C5 12.0589 13.0589 4 23 4H79C88.9411 4 97 12.0589 97 22C97 31.9411 88.9411 40 79 40H23C13.0589 40 5 31.9411 5 22Z" fill="#FEFFFF"/>
</g>
<path d="M22.1471 25.2487H78.489V30.7652C78.489 32.2479 77.287 33.4499 75.8043 33.4499H24.8318C23.3491 33.4499 22.1471 32.2479 22.1471 30.7652V25.2487Z" fill="#5A86C0" stroke="#0060A9" stroke-width="0.294213"/>
<path d="M39.1422 30.9893L39.8962 26.733H40.8752L41.7082 29.3901L43.4593 26.733H44.4444L43.6904 30.9893H42.8695L43.3742 28.1315L41.8541 30.3934H41.2035L40.4678 28.1315L39.9631 30.9893H39.1422ZM44.5399 30.9893L45.0811 27.9247H45.9019L45.3608 30.9893H44.5399ZM45.6466 27.5234C45.4966 27.5234 45.375 27.4788 45.2817 27.3897C45.1885 27.2964 45.1419 27.1849 45.1419 27.0552C45.1419 26.9174 45.1885 26.8039 45.2817 26.7147C45.375 26.6256 45.4966 26.581 45.6466 26.581C45.7966 26.581 45.9182 26.6256 46.0114 26.7147C46.1087 26.8039 46.1573 26.9174 46.1573 27.0552C46.1573 27.1849 46.1087 27.2964 46.0114 27.3897C45.9141 27.4788 45.7925 27.5234 45.6466 27.5234ZM47.5276 31.0622C47.2763 31.0622 47.0595 31.0014 46.877 30.8798C46.6987 30.7541 46.5629 30.5859 46.4697 30.3751C46.3805 30.1603 46.342 29.9191 46.3541 29.6516C46.3663 29.3921 46.417 29.155 46.5061 28.9402C46.5994 28.7213 46.723 28.5307 46.877 28.3686C47.0351 28.2065 47.2155 28.0808 47.4182 27.9916C47.6209 27.8984 47.8398 27.8518 48.0749 27.8518C48.314 27.8518 48.5086 27.8964 48.6586 27.9855C48.8086 28.0707 48.9201 28.1821 48.993 28.32L49.291 26.6114H50.1118L49.3457 30.9893H48.616L48.5978 30.5697C48.5248 30.6548 48.4377 30.7359 48.3363 30.8129C48.235 30.8899 48.1174 30.9507 47.9837 30.9953C47.8499 31.0399 47.6979 31.0622 47.5276 31.0622ZM47.8682 30.3447C48.0425 30.3447 48.2005 30.3001 48.3424 30.211C48.4843 30.1177 48.5978 29.9941 48.6829 29.8401C48.7721 29.686 48.8207 29.5137 48.8289 29.3232C48.837 29.1692 48.8147 29.0374 48.762 28.928C48.7093 28.8145 48.6302 28.7273 48.5248 28.6665C48.4235 28.6017 48.2999 28.5693 48.1539 28.5693C47.9796 28.5693 47.8215 28.6138 47.6797 28.703C47.5418 28.7882 47.4304 28.9057 47.3452 29.0557C47.2601 29.2057 47.2135 29.3759 47.2054 29.5664C47.1973 29.7164 47.2175 29.8502 47.2662 29.9677C47.3189 30.0853 47.3959 30.1785 47.4972 30.2474C47.5986 30.3123 47.7222 30.3447 47.8682 30.3447ZM51.4823 31.0622C51.231 31.0622 51.0141 31.0014 50.8317 30.8798C50.6533 30.7541 50.5175 30.5859 50.4243 30.3751C50.3351 30.1603 50.2966 29.9191 50.3088 29.6516C50.3209 29.3921 50.3716 29.155 50.4608 28.9402C50.554 28.7213 50.6776 28.5307 50.8317 28.3686C50.9898 28.2065 51.1702 28.0808 51.3728 27.9916C51.5755 27.8984 51.7944 27.8518 52.0295 27.8518C52.2687 27.8518 52.4633 27.8964 52.6132 27.9855C52.7632 28.0707 52.8747 28.1821 52.9477 28.32L53.2456 26.6114H54.0665L53.3003 30.9893H52.5707L52.5524 30.5697C52.4795 30.6548 52.3923 30.7359 52.291 30.8129C52.1896 30.8899 52.0721 30.9507 51.9383 30.9953C51.8046 31.0399 51.6525 31.0622 51.4823 31.0622ZM51.8228 30.3447C51.9971 30.3447 52.1552 30.3001 52.2971 30.211C52.4389 30.1177 52.5524 29.9941 52.6376 29.8401C52.7267 29.686 52.7754 29.5137 52.7835 29.3232C52.7916 29.1692 52.7693 29.0374 52.7166 28.928C52.6639 28.8145 52.5849 28.7273 52.4795 28.6665C52.3781 28.6017 52.2545 28.5693 52.1086 28.5693C51.9343 28.5693 51.7762 28.6138 51.6343 28.703C51.4965 28.7882 51.385 28.9057 51.2999 29.0557C51.2148 29.2057 51.1681 29.3759 51.16 29.5664C51.1519 29.7164 51.1722 29.8502 51.2208 29.9677C51.2735 30.0853 51.3505 30.1785 51.4519 30.2474C51.5532 30.3123 51.6769 30.3447 51.8228 30.3447ZM55.1268 31.0622C54.8917 31.0622 54.7012 31.0257 54.5553 30.9528C54.4134 30.8758 54.308 30.7744 54.2391 30.6488C54.1742 30.519 54.1459 30.3772 54.154 30.2231C54.1621 30.0123 54.2269 29.8299 54.3485 29.6759C54.4701 29.5219 54.6404 29.4023 54.8593 29.3171C55.0822 29.232 55.3417 29.1895 55.6376 29.1895H56.3916C56.4199 29.0395 56.422 28.9158 56.3976 28.8186C56.3774 28.7172 56.3287 28.6422 56.2517 28.5936C56.1747 28.5449 56.0652 28.5206 55.9234 28.5206C55.7734 28.5206 55.6376 28.5551 55.516 28.624C55.3984 28.6888 55.3133 28.7902 55.2606 28.928H54.4641C54.5249 28.7091 54.6303 28.5206 54.7802 28.3625C54.9302 28.2004 55.1126 28.0747 55.3275 27.9855C55.5464 27.8964 55.7855 27.8518 56.045 27.8518C56.3328 27.8518 56.5719 27.9024 56.7625 28.0038C56.957 28.1011 57.0949 28.2409 57.1759 28.4233C57.2611 28.6057 57.2793 28.8287 57.2307 29.0922L56.8962 30.9893H56.1787L56.1909 30.5271C56.1301 30.6042 56.0632 30.6771 55.9902 30.746C55.9213 30.8109 55.8423 30.8676 55.7531 30.9163C55.6639 30.9609 55.5666 30.9953 55.4613 31.0197C55.3599 31.048 55.2484 31.0622 55.1268 31.0622ZM55.4308 30.4299C55.5322 30.4299 55.6295 30.4116 55.7227 30.3751C55.8159 30.3346 55.899 30.2819 55.972 30.217C56.045 30.1481 56.1058 30.0711 56.1544 29.986C56.2071 29.8968 56.2456 29.8036 56.2699 29.7063V29.6941H55.6437C55.5221 29.6941 55.4167 29.7124 55.3275 29.7489C55.2383 29.7813 55.1694 29.8299 55.1207 29.8948C55.0721 29.9556 55.0458 30.0286 55.0417 30.1137C55.0336 30.215 55.066 30.2941 55.139 30.3508C55.212 30.4035 55.3092 30.4299 55.4308 30.4299ZM57.7608 32.3269L58.7276 30.7643H58.5452L57.8642 27.9247H58.7459L59.2201 30.0164L60.418 27.9247H61.2935L58.6243 32.3269H57.7608Z" fill="white"/>
<path d="M22.001 10H78.637V25.4462H22.001V10Z" fill="white" stroke="#0060A9" stroke-width="0.337642"/>
<path d="M32.7986 22.9662C31.7563 22.9662 30.9084 23.6078 30.8096 24.6706H34.7856C34.5553 23.6832 33.8979 22.9662 32.7986 22.9662Z" fill="#2E73B5"/>
<path d="M46.6273 21.5714C46.6273 18.9182 43.6824 17.345 38.4875 17.345L40.8081 10.7695H35.7121C35.0236 11.3966 34.2817 11.988 33.4913 12.5401C32.3486 13.3594 31.2222 14.1919 30.1127 15.0375H34.786C36.1185 15.0375 36.8129 14.6076 37.2438 13.6859H37.9751L36.8129 16.5486H28.3295V15.466C29.0239 14.7818 29.9625 14.0975 30.8449 13.3824C31.7279 12.6676 32.7955 11.7496 33.5585 10.7754H23.0449V11.8301C25.3847 11.9686 27.2983 12.9002 27.2983 14.6818C27.3051 16.5633 25.1726 17.4934 24.2052 17.7003V17.7371C26.0776 18.4456 28.2499 19.3772 28.2499 21.5957C28.2499 22.962 27.3367 24.0314 25.8842 24.6668H28.5388V24.4051C28.6059 21.3304 31.7787 18.4129 36.2289 18.1703V18.8818C33.2058 18.8392 31.4404 20.803 30.9731 23.0219C31.6607 22.5945 32.4093 22.1693 33.6765 22.1693C35.2807 22.1693 36.7346 22.9558 36.9933 24.6657H38.3916L37.5072 22.7404C37.4276 22.5835 37.3748 22.4262 37.56 22.2461L38.358 21.5266C38.5178 21.3914 38.7025 21.2572 38.8369 21.4593L40.323 23.4383C40.6819 23.902 41.121 24.4121 42.0274 24.6657H44.4632C45.7098 24.2662 46.6273 23.1619 46.6273 21.5714ZM59.3962 23.9303V19.4687C58.209 20.4304 56.4897 22.6346 55.5943 23.93L59.3962 23.9303ZM68.7063 17.6882C67.1199 17.6882 66.4942 19.0788 66.4942 20.2202C66.4942 21.7519 67.2317 23.034 68.7816 23.034C69.9611 23.034 70.976 22.2366 70.976 20.9394C71.0878 18.9388 69.9611 17.6882 68.7063 17.6882ZM71.1247 14.6928C71.7423 14.6928 73.1406 14.6428 73.3177 10.7732H68.9462C69.1213 14.6465 70.5067 14.6928 71.1247 14.6928Z" fill="#2E73B5"/>
<path d="M75.6436 10.7764C75.3135 13.5307 73.5351 15.2002 71.1253 15.2002C68.715 15.2002 66.953 13.5307 66.6195 10.7764H65.1109C64.5955 11.2721 63.7975 11.5995 62.8541 11.7579V11.7848C64.8028 11.9317 66.2443 12.8585 66.2764 14.3222C66.3081 16.1354 64.1535 17.0891 61.8071 17.0891C60.618 17.0622 59.3665 16.6859 59.0508 16.4985L58.5129 15.3575C58.4823 15.3169 58.4736 15.2688 58.4884 15.2233C58.5033 15.1779 58.5406 15.1386 58.5925 15.1138L59.0364 14.8312C59.1957 14.6974 59.3219 14.6706 59.4001 14.7511L60.2269 15.7896C60.607 16.2328 61.1847 16.6227 61.9381 16.6227C63.0312 16.6227 63.9026 15.7091 63.9026 14.3796C63.9026 11.9626 61.2725 12.2437 60.4966 12.2437V11.597C61.641 11.5643 62.4616 11.2879 62.9323 10.7764H59.2005V11.041C58.0657 13.0937 56.414 16.0601 53.068 21.665H50.627C52.6841 18.964 55.1837 15.1807 57.1434 11.9733H53.3132C52.675 11.9733 51.449 11.9406 51.2383 12.788H50.7196V10.7764H48.2455L47.7954 11.8153H41.7732L40.7914 14.6475C46.839 14.6475 49.5972 17.5249 49.5972 20.5386C49.6123 21.3462 49.369 22.1444 48.8885 22.8634C48.4073 23.5832 47.704 24.2022 46.8395 24.6666H54.1702L54.1318 24.5714C54.8708 23.4197 58.2816 19.4829 59.7183 17.9085H61.6799V23.9298H63.3143V24.6604H70.0768C70.3764 24.1206 70.5857 23.554 70.6997 22.974L70.6627 22.9424C70.0356 23.4429 69.1882 23.9162 67.8043 23.9162C65.8681 23.9162 64.0979 22.8534 64.1156 20.5243C64.1348 18.6171 65.905 16.9928 68.8177 16.9928C71.3077 16.9928 73.4833 18.3528 73.4272 21.2446C73.3939 22.4448 72.9746 23.6202 72.2064 24.6666H77.5563V23.9482H74.5016V23.5013C75.7785 23.415 76.4584 23.3856 76.527 23.0545C76.5884 22.6763 76.611 22.2952 76.5956 21.9145V15.837C76.5956 14.9569 75.6249 15.2027 74.945 15.4049L74.147 15.6485L73.9617 15.087L77.5645 14.0485V10.7764H75.6436ZM23.237 17.2353C24.1631 16.8627 24.975 15.9675 24.975 14.7015C24.975 13.5557 24.2811 12.6899 23.0599 12.4782V17.1684L23.2375 17.2353H23.237ZM25.3915 22.1221C25.3915 20.9311 24.3032 20.198 23.0518 19.6148V24.6449C24.4817 24.416 25.3915 23.4385 25.3915 22.1221Z" fill="#2E73B5"/>
<path d="M71.1247 15.1979C73.5331 15.1979 75.3129 13.5284 75.643 10.7741H73.3225C73.1406 14.6448 71.7423 14.6915 71.1247 14.6915C70.5067 14.6915 69.1233 14.6411 68.9476 10.7715H66.6189C66.9524 13.5284 68.7303 15.1979 71.1247 15.1979ZM68.8181 16.9838C65.9054 16.9838 64.1352 18.6096 64.116 20.5154C64.0968 22.8449 65.8718 23.9077 67.8046 23.9077C69.1866 23.9077 70.0393 23.4391 70.6631 22.9338L70.7001 22.9654C70.589 23.5477 70.382 24.1168 70.0839 24.6592H72.2054C72.9749 23.6106 73.3942 22.4327 73.4261 21.2302C73.4822 18.3443 71.3066 16.9838 68.8181 16.9838ZM70.9745 20.938C70.9745 22.2349 69.9611 23.0327 68.7797 23.0327C67.2298 23.0327 66.4927 21.7501 66.4927 20.2181C66.4927 19.0774 67.1199 17.6868 68.7048 17.6868C69.9611 17.6868 71.0878 18.9374 70.9745 20.938ZM49.5976 20.536C49.5976 17.5237 46.8399 14.6452 40.7923 14.6452L41.7731 11.8122H47.7938L48.2439 10.7737H40.8048L38.4842 17.3491C43.6824 17.3491 46.6244 18.922 46.6244 21.5756C46.6244 23.1661 45.7064 24.2704 44.4521 24.6698H46.8379C47.7041 24.205 48.4086 23.5851 48.8903 22.864C49.3711 22.1438 49.6139 21.3447 49.5976 20.536ZM40.3148 23.4365L38.8287 21.458C38.6963 21.2559 38.5096 21.3907 38.3498 21.5249L37.5518 22.2444C37.3666 22.4245 37.4194 22.5818 37.499 22.7391L38.3834 24.6639H42.0149C41.1143 24.4096 40.6723 23.9007 40.3148 23.4365ZM74.143 15.6469L74.941 15.4037C75.6209 15.2015 76.5912 14.9568 76.5912 15.8358V21.9071C76.607 22.2878 76.5841 22.669 76.5226 23.047C76.454 23.3792 75.774 23.4123 74.4971 23.4939V23.9459H77.5538V14.0458L73.9607 15.0847L74.143 15.6469ZM28.2499 21.5947C28.2499 19.3758 26.0776 18.4446 24.2052 17.7361V17.6993C25.1726 17.4921 27.3051 16.562 27.3051 14.6793C27.3051 12.8978 25.3895 11.9673 23.0512 11.8276V12.4755C24.2805 12.6872 24.9667 13.5519 24.9667 14.6988C24.9667 15.9666 24.1524 16.8604 23.2297 17.2341L23.0449 17.1658V19.6084C24.3026 20.1927 25.3914 20.9262 25.3914 22.1195C25.3914 23.4358 24.4816 24.4137 23.0449 24.639V24.6647H25.8842C27.3367 24.0326 28.2499 22.961 28.2499 21.5947ZM33.6722 22.168C32.4126 22.168 31.6578 22.5957 30.9678 23.0205C31.439 20.8009 33.2024 18.8367 36.2241 18.8804V18.1694C31.7739 18.4126 28.6011 21.329 28.534 24.4038V24.6658H30.8113C30.9107 23.6074 31.7581 22.9606 32.8003 22.9606C33.9064 22.9606 34.5561 23.678 34.7874 24.6658H36.9899C36.7318 22.9559 35.2773 22.168 33.6717 22.168H33.6722ZM51.242 12.786C51.4541 11.9335 52.6782 11.9713 53.3169 11.9713H57.1476C55.1826 15.1788 52.683 18.962 50.6259 21.6664H53.0679C56.4196 16.0651 58.0651 13.0951 59.2004 11.0423V10.7741H50.7228V12.7857H51.2411L51.242 12.786ZM61.6836 23.929V17.907H59.7234C58.2791 19.4817 54.8731 23.4182 54.137 24.5702L54.1754 24.6654H63.3233V23.9345L61.6841 23.9286L61.6836 23.929ZM59.3962 23.929H55.5957C56.4897 22.631 58.2104 20.4294 59.3981 19.4673L59.3962 23.929ZM60.496 11.595V12.2385C61.2719 12.2385 63.902 11.9559 63.902 14.3743C63.902 15.7039 63.0306 16.6171 61.9375 16.6171C61.1774 16.6171 60.6064 16.2276 60.2263 15.7844L59.4029 14.7506C59.3227 14.6698 59.1965 14.697 59.0387 14.8307L58.5953 15.1133C58.5435 15.1382 58.5062 15.1774 58.4913 15.2228C58.4764 15.2682 58.4849 15.3163 58.5152 15.357L59.0531 16.498C59.3727 16.6854 60.6222 17.0618 61.8098 17.0886C64.1544 17.0886 66.3089 16.135 66.2787 14.3218C66.247 12.8606 64.8055 11.9316 62.8569 11.7843V11.7575C63.8003 11.5994 64.5982 11.2702 65.1136 10.7763H62.9317C62.461 11.2812 61.639 11.5612 60.496 11.5943V11.595ZM28.3295 15.4647V16.5462H36.8133L37.9765 13.682H37.2505C36.8196 14.6051 36.1233 15.0336 34.7922 15.0336H30.1127C31.2232 14.1889 32.3494 13.3563 33.4908 12.5362C34.2807 11.9869 35.0224 11.3984 35.7111 10.7744H33.5614C32.795 11.7483 31.724 12.653 30.8478 13.3814C29.9716 14.1094 29.0234 14.7815 28.3291 15.465L28.3295 15.4647Z" fill="#5A86C0"/>
<path d="M43.364 24.8324C43.738 24.8331 44.1084 24.7769 44.4538 24.667H42.0166C42.4491 24.7832 42.9058 24.8392 43.364 24.8324Z" fill="white"/>
<path d="M30.7119 10.4795V25.0503M38.6655 10.4795V25.0503M46.9924 10.4795V25.0503M54.5707 10.4795V25.0503M61.9028 10.4795V25.0503M69.8569 10.4795V25.0503" stroke="white" stroke-width="0.449815"/>
<path d="M24.1289 12.6877H26.3967L27.5987 19.5626H27.6227V12.6877H29.2936V22.7943H27.1693L25.8237 15.5736H25.7998V22.7895H24.1289V12.6877ZM37.0907 19.5494C37.0907 22.1674 36.1041 22.988 34.6646 22.988C33.225 22.988 32.2384 22.1674 32.2384 19.5494V12.6877H34.1156V19.4079C34.1156 20.2006 34.1156 20.6952 34.6612 20.6952C35.2073 20.6952 35.2073 20.1995 35.2073 19.4079V12.6877H37.0907V19.5494ZM44.313 14.3851H44.289L43.4195 22.787H42.2587L41.3892 14.3855H41.3652V22.7873H39.6253V12.6804H42.358L42.8513 18.1015H42.8753L43.408 12.6829H46.0543V22.7895H44.313V14.3855V14.3851ZM48.5203 12.6873H51.2243C52.5237 12.6873 53.1159 13.4936 53.1159 15.0925C53.1159 16.1957 52.8601 17.271 51.8164 17.54V17.5683C52.9335 17.6899 53.2099 18.7141 53.2099 19.8879C53.2099 21.8543 52.1993 22.7884 50.7022 22.7884H48.5203V12.6877V12.6873ZM50.2603 16.6635H50.5794C51.0088 16.6635 51.2291 16.3515 51.2291 15.6588C51.2291 14.9658 51.0083 14.7247 50.5909 14.7247H50.254L50.2603 16.6635ZM50.2603 20.7526H50.5794C51.0789 20.7526 51.3217 20.4273 51.3217 19.6916C51.3217 18.9567 51.0774 18.6167 50.5794 18.6167H50.2603V20.7526ZM56.2248 12.6877H60.2522V14.8941H58.1054V16.6488H60.2522V18.8563H58.1054V20.582H60.2522V22.7895H56.2253L56.2248 12.6877ZM65.3723 18.5447H65.342V22.7899H63.5383V12.6829H66.1496C67.5191 12.6829 68.2034 13.5741 68.2034 15.5262C68.2034 16.7146 68.0172 17.9736 67.0196 18.3L68.3315 22.7848H66.4159L65.3723 18.5447ZM65.342 16.9314H65.701C66.188 16.9314 66.3152 16.3089 66.3152 15.8562C66.3152 15.1256 66.1304 14.8088 65.5733 14.8088H65.342V16.9314ZM71.7711 19.6773C72.0902 20.3421 72.7001 20.7805 73.2922 20.7805C74.001 20.7805 74.1507 20.3847 74.1507 19.9463C74.1507 18.4605 71.5859 18.7284 71.5859 15.5177C71.5859 13.6068 72.3839 12.4893 73.8714 12.4893C74.7414 12.4893 75.2188 12.7715 75.6944 13.423V15.8426C75.4151 15.1921 74.858 14.782 74.2783 14.782C73.8138 14.782 73.3959 14.9658 73.3959 15.5883C73.3959 16.762 75.8906 16.6779 75.8906 19.7758C75.8906 21.8837 75.0432 22.988 73.4184 22.988C72.8258 22.988 72.2006 22.6764 71.7692 22.1527L71.7711 19.6773Z" fill="white"/>
<defs>
<filter id="filter0_d_718_2708" x="0.114921" y="0.336191" width="101.77" height="45.7702" filterUnits="userSpaceOnUse" color-interpolation-filters="sRGB">
<feFlood flood-opacity="0" result="BackgroundImageFix"/>
<feColorMatrix in="SourceAlpha" type="matrix" values="0 0 0 0 0 0 0 0 0 0 0 0 0 0 0 0 0 0 127 0" result="hardAlpha"/>
<feOffset dy="1.22127"/>
<feGaussianBlur stdDeviation="2.44254"/>
<feComposite in2="hardAlpha" operator="out"/>
<feColorMatrix type="matrix" values="0 0 0 0 0 0 0 0 0 0 0 0 0 0 0 0 0 0 0.25 0"/>
<feBlend mode="normal" in2="BackgroundImageFix" result="effect1_dropShadow_718_2708"/>
<feBlend mode="normal" in="SourceGraphic" in2="effect1_dropShadow_718_2708" result="shape"/>
</filter>
</defs>
</svg>
