<svg width="96" height="47" viewBox="0 0 96 47" fill="none" xmlns="http://www.w3.org/2000/svg">
<g filter="url(#filter0_d_718_2709)">
<path d="M5 22C5 12.0589 13.0589 4 23 4H79C88.9411 4 97 12.0589 97 22C97 31.9411 88.9411 40 79 40H23C13.0589 40 5 31.9411 5 22Z" fill="#FEFFFF"/>
</g>
<path d="M22.1471 25.2506H78.489V30.7671C78.489 32.2498 77.287 33.4518 75.8043 33.4518H24.8318C23.3491 33.4518 22.1471 32.2498 22.1471 30.7671V25.2506Z" fill="#5A86C0" stroke="#0060A9" stroke-width="0.294213"/>
<path d="M39.1422 30.9912L39.8901 26.7349H42.5838L42.4682 27.3855H40.5955L40.4009 28.5165H42.0912L41.9757 29.1488H40.2854L40.0786 30.3406H41.9453L41.8298 30.9912H39.1422ZM43.3296 30.9912L42.7398 27.9267H43.5971L43.968 30.219L45.1476 27.9267H46.0111L44.3329 30.9912H43.3296ZM47.3289 31.0642C47.0492 31.0642 46.808 31.0074 46.6053 30.8939C46.4067 30.7804 46.2547 30.6203 46.1493 30.4136C46.048 30.2068 46.0054 29.9656 46.0216 29.69C46.0297 29.4346 46.0804 29.1975 46.1736 28.9786C46.2709 28.7556 46.4026 28.5611 46.5688 28.3949C46.735 28.2246 46.9296 28.0929 47.1526 27.9997C47.3755 27.9024 47.6228 27.8537 47.8944 27.8537C48.17 27.8537 48.4051 27.9105 48.5997 28.024C48.7943 28.1375 48.9402 28.2915 49.0375 28.4861C49.1348 28.6807 49.1773 28.9056 49.1652 29.161C49.1652 29.2461 49.155 29.3333 49.1348 29.4225C49.1186 29.5076 49.1003 29.5866 49.0801 29.6596H46.5992L46.6844 29.161H48.3504C48.3666 29.0232 48.3524 28.9077 48.3078 28.8144C48.2633 28.7171 48.1943 28.6442 48.1011 28.5955C48.0119 28.5469 47.9065 28.5226 47.7849 28.5226C47.6431 28.5226 47.5073 28.555 47.3775 28.6199C47.2519 28.6807 47.1445 28.7759 47.0553 28.9056C46.9661 29.0353 46.9033 29.1995 46.8668 29.3981L46.8364 29.5745C46.808 29.7326 46.8121 29.8744 46.8485 30.0001C46.8891 30.1217 46.96 30.219 47.0614 30.292C47.1627 30.3609 47.2884 30.3953 47.4383 30.3953C47.5924 30.3953 47.7241 30.3629 47.8336 30.298C47.943 30.2332 48.0322 30.1501 48.1011 30.0487H48.9402C48.847 30.2393 48.7193 30.4115 48.5571 30.5656C48.399 30.7196 48.2146 30.8412 48.0038 30.9304C47.7971 31.0196 47.5721 31.0642 47.3289 31.0642ZM49.5331 30.9912L50.0682 27.9267H50.7918L50.7796 28.4131C50.9012 28.2429 51.0553 28.1071 51.2417 28.0057C51.4323 27.9044 51.6451 27.8537 51.8802 27.8537C52.1437 27.8537 52.3524 27.9105 52.5065 28.024C52.6605 28.1375 52.7639 28.2956 52.8166 28.4982C52.8733 28.7009 52.8774 28.9421 52.8287 29.2218L52.5125 30.9912H51.6978L51.9957 29.3009C52.0362 29.0617 52.018 28.8773 51.941 28.7475C51.864 28.6138 51.716 28.5469 51.4971 28.5469C51.3593 28.5469 51.2316 28.5793 51.114 28.6442C51.0005 28.705 50.9012 28.7942 50.8161 28.9117C50.735 29.0293 50.6783 29.1711 50.6459 29.3373L50.354 30.9912H49.5331ZM53.3102 30.9912L53.8514 27.9267H54.6722L54.1311 30.9912H53.3102ZM54.4168 27.5254C54.2669 27.5254 54.1453 27.4808 54.052 27.3916C53.9588 27.2984 53.9122 27.1869 53.9122 27.0572C53.9122 26.9194 53.9588 26.8059 54.052 26.7167C54.1453 26.6275 54.2669 26.5829 54.4168 26.5829C54.5668 26.5829 54.6884 26.6275 54.7817 26.7167C54.879 26.8059 54.9276 26.9194 54.9276 27.0572C54.9276 27.1869 54.879 27.2984 54.7817 27.3916C54.6844 27.4808 54.5628 27.5254 54.4168 27.5254ZM54.9663 30.9912L55.5014 27.9267H56.225L56.2128 28.4131C56.3344 28.2429 56.4884 28.1071 56.6749 28.0057C56.8654 27.9044 57.0782 27.8537 57.3134 27.8537C57.5768 27.8537 57.7856 27.9105 57.9396 28.024C58.0937 28.1375 58.197 28.2956 58.2497 28.4982C58.3065 28.7009 58.3105 28.9421 58.2619 29.2218L57.9457 30.9912H57.1309L57.4289 29.3009C57.4694 29.0617 57.4512 28.8773 57.3742 28.7475C57.2971 28.6138 57.1492 28.5469 56.9303 28.5469C56.7925 28.5469 56.6648 28.5793 56.5472 28.6442C56.4337 28.705 56.3344 28.7942 56.2493 28.9117C56.1682 29.0293 56.1115 29.1711 56.079 29.3373L55.7872 30.9912H54.9663ZM59.7041 32.4019C59.4325 32.4019 59.1974 32.3694 58.9988 32.3046C58.8001 32.2397 58.6502 32.1424 58.5488 32.0127C58.4434 31.883 58.3948 31.7209 58.4029 31.5263C58.411 31.3601 58.4617 31.2081 58.5549 31.0703C58.6441 30.9324 58.7718 30.8088 58.938 30.6994C59.1042 30.5899 59.3008 30.4946 59.5278 30.4136L59.771 30.821C59.5602 30.8858 59.4082 30.9669 59.3149 31.0642C59.2217 31.1655 59.1731 31.2729 59.169 31.3864C59.165 31.4716 59.1873 31.5445 59.2359 31.6053C59.2886 31.6661 59.3636 31.7107 59.4609 31.7391C59.5622 31.7675 59.6757 31.7817 59.8014 31.7817C60.0041 31.7817 60.1743 31.7432 60.3121 31.6661C60.45 31.5891 60.5209 31.4736 60.5249 31.3196C60.5331 31.2223 60.5027 31.1412 60.4337 31.0763C60.3648 31.0115 60.225 30.9709 60.0142 30.9547C59.8277 30.9426 59.6575 30.9223 59.5034 30.8939C59.3535 30.8615 59.2197 30.825 59.1021 30.7845C58.9886 30.7399 58.8913 30.6912 58.8103 30.6385C58.7333 30.5859 58.6704 30.5311 58.6218 30.4744L58.6461 30.3345L59.4062 29.6535L59.9534 29.842L59.0657 30.5899L59.3697 30.1704C59.4102 30.1987 59.4528 30.2251 59.4974 30.2494C59.546 30.2737 59.6007 30.296 59.6615 30.3163C59.7264 30.3325 59.8054 30.3487 59.8987 30.3649C59.9919 30.3811 60.1074 30.3953 60.2452 30.4075C60.5006 30.4278 60.7053 30.4744 60.8594 30.5473C61.0175 30.6163 61.131 30.7095 61.1999 30.827C61.2688 30.9446 61.2972 31.0865 61.285 31.2527C61.2769 31.4716 61.206 31.6682 61.0722 31.8425C60.9425 32.0168 60.7601 32.1526 60.5249 32.2499C60.2898 32.3512 60.0162 32.4019 59.7041 32.4019ZM60.0993 30.0852C59.8683 30.0852 59.6717 30.0447 59.5095 29.9636C59.3514 29.8785 59.2318 29.763 59.1508 29.617C59.0738 29.4711 59.0393 29.3069 59.0474 29.1245C59.0596 28.8854 59.1285 28.6705 59.2541 28.48C59.3839 28.2895 59.5561 28.1375 59.771 28.024C59.9899 27.9105 60.2311 27.8537 60.4945 27.8537C60.7297 27.8537 60.9263 27.8983 61.0843 27.9875C61.2465 28.0726 61.3661 28.1881 61.4431 28.3341C61.5201 28.4759 61.5525 28.6381 61.5404 28.8205C61.5323 29.0556 61.4634 29.2705 61.3336 29.465C61.208 29.6555 61.0377 29.8076 60.8229 29.9211C60.608 30.0305 60.3669 30.0852 60.0993 30.0852ZM60.2088 29.465C60.3871 29.465 60.5351 29.4144 60.6526 29.313C60.7702 29.2076 60.833 29.0698 60.8411 28.8996C60.8492 28.7617 60.8107 28.6584 60.7256 28.5894C60.6445 28.5205 60.531 28.4861 60.3851 28.4861C60.2067 28.4861 60.0568 28.5388 59.9351 28.6442C59.8176 28.7455 59.7548 28.8813 59.7467 29.0516C59.7385 29.1853 59.7771 29.2887 59.8622 29.3617C59.9514 29.4306 60.0669 29.465 60.2088 29.465ZM60.8898 28.5043L60.8533 27.9267H62.118L62.0268 28.4192L60.8898 28.5043Z" fill="white"/>
<path d="M22.001 10H78.637V25.4462H22.001V10Z" fill="white" stroke="#0060A9" stroke-width="0.337642"/>
<path d="M32.7986 22.9672C31.7563 22.9672 30.9084 23.6088 30.8096 24.6716H34.7856C34.5553 23.6841 33.8979 22.9672 32.7986 22.9672Z" fill="#2E73B5"/>
<path d="M46.6273 21.5714C46.6273 18.9182 43.6824 17.345 38.4875 17.345L40.8081 10.7695H35.7121C35.0236 11.3966 34.2817 11.988 33.4913 12.5401C32.3486 13.3594 31.2222 14.1919 30.1127 15.0375H34.786C36.1185 15.0375 36.8129 14.6076 37.2438 13.6859H37.9751L36.8129 16.5486H28.3295V15.466C29.0239 14.7818 29.9625 14.0975 30.8449 13.3824C31.7279 12.6676 32.7955 11.7496 33.5585 10.7754H23.0449V11.8301C25.3847 11.9686 27.2983 12.9002 27.2983 14.6818C27.3051 16.5633 25.1726 17.4934 24.2052 17.7003V17.7371C26.0776 18.4456 28.2499 19.3772 28.2499 21.5957C28.2499 22.962 27.3367 24.0314 25.8842 24.6668H28.5388V24.4051C28.6059 21.3304 31.7787 18.4129 36.2289 18.1703V18.8818C33.2058 18.8392 31.4404 20.803 30.9731 23.0219C31.6607 22.5945 32.4093 22.1693 33.6765 22.1693C35.2807 22.1693 36.7346 22.9558 36.9933 24.6657H38.3916L37.5072 22.7404C37.4276 22.5835 37.3748 22.4262 37.56 22.2461L38.358 21.5266C38.5178 21.3914 38.7025 21.2572 38.8369 21.4593L40.323 23.4383C40.6819 23.902 41.121 24.4121 42.0274 24.6657H44.4632C45.7098 24.2662 46.6273 23.1619 46.6273 21.5714ZM59.3962 23.9303V19.4687C58.209 20.4304 56.4897 22.6346 55.5943 23.93L59.3962 23.9303ZM68.7063 17.6882C67.1199 17.6882 66.4942 19.0788 66.4942 20.2202C66.4942 21.7519 67.2317 23.034 68.7816 23.034C69.9611 23.034 70.976 22.2366 70.976 20.9394C71.0878 18.9388 69.9611 17.6882 68.7063 17.6882ZM71.1247 14.6928C71.7423 14.6928 73.1406 14.6428 73.3177 10.7732H68.9462C69.1213 14.6465 70.5067 14.6928 71.1247 14.6928Z" fill="#2E73B5"/>
<path d="M75.6436 10.7764C75.3135 13.5307 73.5351 15.2002 71.1253 15.2002C68.715 15.2002 66.953 13.5307 66.6195 10.7764H65.1109C64.5955 11.2721 63.7975 11.5995 62.8541 11.7579V11.7848C64.8028 11.9317 66.2443 12.8585 66.2764 14.3222C66.3081 16.1354 64.1535 17.0891 61.8071 17.0891C60.618 17.0622 59.3665 16.6859 59.0508 16.4985L58.5129 15.3575C58.4823 15.3169 58.4736 15.2688 58.4884 15.2233C58.5033 15.1779 58.5406 15.1386 58.5925 15.1138L59.0364 14.8312C59.1957 14.6974 59.3219 14.6706 59.4001 14.7511L60.2269 15.7896C60.607 16.2328 61.1847 16.6227 61.9381 16.6227C63.0312 16.6227 63.9026 15.7091 63.9026 14.3796C63.9026 11.9626 61.2725 12.2437 60.4966 12.2437V11.597C61.641 11.5643 62.4616 11.2879 62.9323 10.7764H59.2005V11.041C58.0657 13.0937 56.414 16.0601 53.068 21.665H50.627C52.6841 18.964 55.1837 15.1807 57.1434 11.9733H53.3132C52.675 11.9733 51.449 11.9406 51.2383 12.788H50.7196V10.7764H48.2455L47.7954 11.8153H41.7732L40.7914 14.6475C46.839 14.6475 49.5972 17.5249 49.5972 20.5386C49.6123 21.3462 49.369 22.1444 48.8885 22.8634C48.4073 23.5832 47.704 24.2022 46.8395 24.6666H54.1702L54.1318 24.5714C54.8708 23.4197 58.2816 19.4829 59.7183 17.9085H61.6799V23.9298H63.3143V24.6604H70.0768C70.3764 24.1206 70.5857 23.554 70.6997 22.974L70.6627 22.9424C70.0356 23.4429 69.1882 23.9162 67.8043 23.9162C65.8681 23.9162 64.0979 22.8534 64.1156 20.5243C64.1348 18.6171 65.905 16.9928 68.8177 16.9928C71.3077 16.9928 73.4833 18.3528 73.4272 21.2446C73.3939 22.4448 72.9746 23.6202 72.2064 24.6666H77.5563V23.9482H74.5016V23.5013C75.7785 23.415 76.4584 23.3856 76.527 23.0545C76.5884 22.6763 76.611 22.2952 76.5956 21.9145V15.837C76.5956 14.9569 75.6249 15.2027 74.945 15.4049L74.147 15.6485L73.9617 15.087L77.5645 14.0485V10.7764H75.6436ZM23.237 17.2353C24.1631 16.8627 24.975 15.9675 24.975 14.7015C24.975 13.5557 24.2811 12.6899 23.0599 12.4782V17.1684L23.2375 17.2353H23.237ZM25.3915 22.1221C25.3915 20.9311 24.3032 20.198 23.0518 19.6148V24.6449C24.4817 24.416 25.3915 23.4385 25.3915 22.1221Z" fill="#2E73B5"/>
<path d="M71.1247 15.1979C73.5331 15.1979 75.3129 13.5284 75.643 10.7741H73.3225C73.1406 14.6448 71.7423 14.6915 71.1247 14.6915C70.5067 14.6915 69.1233 14.6411 68.9476 10.7715H66.6189C66.9524 13.5284 68.7303 15.1979 71.1247 15.1979ZM68.8181 16.9838C65.9054 16.9838 64.1352 18.6096 64.116 20.5154C64.0968 22.8449 65.8718 23.9077 67.8046 23.9077C69.1866 23.9077 70.0393 23.4391 70.6631 22.9338L70.7001 22.9654C70.589 23.5477 70.382 24.1168 70.0839 24.6592H72.2054C72.9749 23.6106 73.3942 22.4327 73.4261 21.2302C73.4822 18.3443 71.3066 16.9838 68.8181 16.9838ZM70.9745 20.938C70.9745 22.2349 69.9611 23.0327 68.7797 23.0327C67.2298 23.0327 66.4927 21.7501 66.4927 20.2181C66.4927 19.0774 67.1199 17.6868 68.7048 17.6868C69.9611 17.6868 71.0878 18.9374 70.9745 20.938ZM49.5976 20.536C49.5976 17.5237 46.8399 14.6452 40.7923 14.6452L41.7731 11.8122H47.7938L48.2439 10.7737H40.8048L38.4842 17.3491C43.6824 17.3491 46.6244 18.922 46.6244 21.5756C46.6244 23.1661 45.7064 24.2704 44.4521 24.6698H46.8379C47.7041 24.205 48.4086 23.5851 48.8903 22.864C49.3711 22.1438 49.6139 21.3447 49.5976 20.536ZM40.3148 23.4365L38.8287 21.458C38.6963 21.2559 38.5096 21.3907 38.3498 21.5249L37.5518 22.2444C37.3666 22.4245 37.4194 22.5818 37.499 22.7391L38.3834 24.6639H42.0149C41.1143 24.4096 40.6723 23.9007 40.3148 23.4365ZM74.143 15.6469L74.941 15.4037C75.6209 15.2015 76.5912 14.9568 76.5912 15.8358V21.9071C76.607 22.2878 76.5841 22.669 76.5226 23.047C76.454 23.3792 75.774 23.4123 74.4971 23.4939V23.9459H77.5538V14.0458L73.9607 15.0847L74.143 15.6469ZM28.2499 21.5947C28.2499 19.3758 26.0776 18.4446 24.2052 17.7361V17.6993C25.1726 17.4921 27.3051 16.562 27.3051 14.6793C27.3051 12.8978 25.3895 11.9673 23.0512 11.8276V12.4755C24.2805 12.6872 24.9667 13.5519 24.9667 14.6988C24.9667 15.9666 24.1524 16.8604 23.2297 17.2341L23.0449 17.1658V19.6084C24.3026 20.1927 25.3914 20.9262 25.3914 22.1195C25.3914 23.4358 24.4816 24.4137 23.0449 24.639V24.6647H25.8842C27.3367 24.0326 28.2499 22.961 28.2499 21.5947ZM33.6722 22.168C32.4126 22.168 31.6578 22.5957 30.9678 23.0205C31.439 20.8009 33.2024 18.8367 36.2241 18.8804V18.1694C31.7739 18.4126 28.6011 21.329 28.534 24.4038V24.6658H30.8113C30.9107 23.6074 31.7581 22.9606 32.8003 22.9606C33.9064 22.9606 34.5561 23.678 34.7874 24.6658H36.9899C36.7318 22.9559 35.2773 22.168 33.6717 22.168H33.6722ZM51.242 12.786C51.4541 11.9335 52.6782 11.9713 53.3169 11.9713H57.1476C55.1826 15.1788 52.683 18.962 50.6259 21.6664H53.0679C56.4196 16.0651 58.0651 13.0951 59.2004 11.0423V10.7741H50.7228V12.7857H51.2411L51.242 12.786ZM61.6836 23.929V17.907H59.7234C58.2791 19.4817 54.8731 23.4182 54.137 24.5702L54.1754 24.6654H63.3233V23.9345L61.6841 23.9286L61.6836 23.929ZM59.3962 23.929H55.5957C56.4897 22.631 58.2104 20.4294 59.3981 19.4673L59.3962 23.929ZM60.496 11.595V12.2385C61.2719 12.2385 63.902 11.9559 63.902 14.3743C63.902 15.7039 63.0306 16.6171 61.9375 16.6171C61.1774 16.6171 60.6064 16.2276 60.2263 15.7844L59.4029 14.7506C59.3227 14.6698 59.1965 14.697 59.0387 14.8307L58.5953 15.1133C58.5435 15.1382 58.5062 15.1774 58.4913 15.2228C58.4764 15.2682 58.4849 15.3163 58.5152 15.357L59.0531 16.498C59.3727 16.6854 60.6222 17.0618 61.8098 17.0886C64.1544 17.0886 66.3089 16.135 66.2787 14.3218C66.247 12.8606 64.8055 11.9316 62.8569 11.7843V11.7575C63.8003 11.5994 64.5982 11.2702 65.1136 10.7763H62.9317C62.461 11.2812 61.639 11.5612 60.496 11.5943V11.595ZM28.3295 15.4647V16.5462H36.8133L37.9765 13.682H37.2505C36.8196 14.6051 36.1233 15.0336 34.7922 15.0336H30.1127C31.2232 14.1889 32.3494 13.3563 33.4908 12.5362C34.2807 11.9869 35.0224 11.3984 35.7111 10.7744H33.5614C32.795 11.7483 31.724 12.653 30.8478 13.3814C29.9716 14.1094 29.0234 14.7815 28.3291 15.465L28.3295 15.4647Z" fill="#5A86C0"/>
<path d="M43.364 24.8324C43.738 24.8331 44.1084 24.7769 44.4538 24.667H42.0166C42.4491 24.7832 42.9058 24.8392 43.364 24.8324Z" fill="white"/>
<path d="M30.7119 10.4805V25.0513M38.6655 10.4805V25.0513M46.9924 10.4805V25.0513M54.5707 10.4805V25.0513M61.9028 10.4805V25.0513M69.8569 10.4805V25.0513" stroke="white" stroke-width="0.449815"/>
<path d="M24.1289 12.6877H26.3967L27.5987 19.5626H27.6227V12.6877H29.2936V22.7943H27.1693L25.8237 15.5736H25.7998V22.7895H24.1289V12.6877ZM37.0907 19.5494C37.0907 22.1674 36.1041 22.988 34.6646 22.988C33.225 22.988 32.2384 22.1674 32.2384 19.5494V12.6877H34.1156V19.4079C34.1156 20.2006 34.1156 20.6952 34.6612 20.6952C35.2073 20.6952 35.2073 20.1995 35.2073 19.4079V12.6877H37.0907V19.5494ZM44.313 14.3851H44.289L43.4195 22.787H42.2587L41.3892 14.3855H41.3652V22.7873H39.6253V12.6804H42.358L42.8513 18.1015H42.8753L43.408 12.6829H46.0543V22.7895H44.313V14.3855V14.3851ZM48.5203 12.6873H51.2243C52.5237 12.6873 53.1159 13.4936 53.1159 15.0925C53.1159 16.1957 52.8601 17.271 51.8164 17.54V17.5683C52.9335 17.6899 53.2099 18.7141 53.2099 19.8879C53.2099 21.8543 52.1993 22.7884 50.7022 22.7884H48.5203V12.6877V12.6873ZM50.2603 16.6635H50.5794C51.0088 16.6635 51.2291 16.3515 51.2291 15.6588C51.2291 14.9658 51.0083 14.7247 50.5909 14.7247H50.254L50.2603 16.6635ZM50.2603 20.7526H50.5794C51.0789 20.7526 51.3217 20.4273 51.3217 19.6916C51.3217 18.9567 51.0774 18.6167 50.5794 18.6167H50.2603V20.7526ZM56.2248 12.6877H60.2522V14.8941H58.1054V16.6488H60.2522V18.8563H58.1054V20.582H60.2522V22.7895H56.2253L56.2248 12.6877ZM65.3723 18.5447H65.342V22.7899H63.5383V12.6829H66.1496C67.5191 12.6829 68.2034 13.5741 68.2034 15.5262C68.2034 16.7146 68.0172 17.9736 67.0196 18.3L68.3315 22.7848H66.4159L65.3723 18.5447ZM65.342 16.9314H65.701C66.188 16.9314 66.3152 16.3089 66.3152 15.8562C66.3152 15.1256 66.1304 14.8088 65.5733 14.8088H65.342V16.9314ZM71.7711 19.6773C72.0902 20.3421 72.7001 20.7805 73.2922 20.7805C74.001 20.7805 74.1507 20.3847 74.1507 19.9463C74.1507 18.4605 71.5859 18.7284 71.5859 15.5177C71.5859 13.6068 72.3839 12.4893 73.8714 12.4893C74.7414 12.4893 75.2188 12.7715 75.6944 13.423V15.8426C75.4151 15.1921 74.858 14.782 74.2783 14.782C73.8138 14.782 73.3959 14.9658 73.3959 15.5883C73.3959 16.762 75.8906 16.6779 75.8906 19.7758C75.8906 21.8837 75.0432 22.988 73.4184 22.988C72.8258 22.988 72.2006 22.6764 71.7692 22.1527L71.7711 19.6773Z" fill="white"/>
<defs>
<filter id="filter0_d_718_2709" x="0.114921" y="0.336191" width="101.77" height="45.7702" filterUnits="userSpaceOnUse" color-interpolation-filters="sRGB">
<feFlood flood-opacity="0" result="BackgroundImageFix"/>
<feColorMatrix in="SourceAlpha" type="matrix" values="0 0 0 0 0 0 0 0 0 0 0 0 0 0 0 0 0 0 127 0" result="hardAlpha"/>
<feOffset dy="1.22127"/>
<feGaussianBlur stdDeviation="2.44254"/>
<feComposite in2="hardAlpha" operator="out"/>
<feColorMatrix type="matrix" values="0 0 0 0 0 0 0 0 0 0 0 0 0 0 0 0 0 0 0.25 0"/>
<feBlend mode="normal" in2="BackgroundImageFix" result="effect1_dropShadow_718_2709"/>
<feBlend mode="normal" in="SourceGraphic" in2="effect1_dropShadow_718_2709" result="shape"/>
</filter>
</defs>
</svg>
