<svg width="103" height="47" viewBox="0 0 103 47" fill="none" xmlns="http://www.w3.org/2000/svg">
<g filter="url(#filter0_d_718_2701)">
<rect x="5" y="4" width="93" height="36" rx="18" fill="#FEFFFF"/>
</g>
<path d="M25.0127 19.4824H78.1704V33.708H25.0127V19.4824Z" fill="#D40F41"/>
<path d="M25 11H78.1577V18.776H25V11Z" fill="#155095"/>
<path d="M27.7216 31.0379V22.5131H28.9987V29.9247H30.6248V31.0384L27.7216 31.0379ZM38.5033 23.7963C38.5033 22.6826 39.3828 22.3591 40.1654 22.3591C40.9607 22.3591 41.8397 22.6826 41.8397 23.7963V29.7829C41.8397 30.8967 40.9607 31.2201 40.1654 31.2201C39.3823 31.2201 38.5033 30.8967 38.5033 29.7829V23.7963ZM39.7799 29.6749C39.7799 30.1058 39.9123 30.2016 40.1776 30.2016C40.4307 30.2016 40.5631 30.1058 40.5631 29.6749V23.9038C40.5631 23.4723 40.4307 23.3771 40.1776 23.3771C39.9123 23.3771 39.7799 23.4723 39.7799 23.9038V29.6749ZM53.2949 22.5131V23.6263H52.1867V31.0379H50.9089V23.6263H49.7891V22.5131H53.2949ZM64.559 22.5131V23.6263H63.4508V31.0379H62.1742V23.6263H61.0537V22.5131H64.559ZM72.5112 23.7819C72.5112 22.6682 73.3901 22.3453 74.1733 22.3453C74.968 22.3453 75.8475 22.6682 75.8475 23.7819V29.7685C75.8475 30.8828 74.9686 31.2057 74.1733 31.2057C73.3901 31.2057 72.5112 30.8828 72.5112 29.7685V23.7819ZM73.7878 29.661C73.7878 30.0919 73.9207 30.1877 74.1849 30.1877C74.438 30.1877 74.5709 30.0919 74.5709 29.661V23.8894C74.5709 23.4579 74.438 23.3627 74.1849 23.3627C73.9202 23.3627 73.7878 23.4579 73.7878 23.8894V29.661ZM30.0416 12.3899V17.2609H29.4424L28.0888 13.0379H28.0794V17.2609H27.6895V12.3899H28.307L29.6423 16.5592H29.6512V12.3899H30.0416ZM35.0196 17.2609V12.3899H36.7869V12.9293H35.4566V14.4945H36.6922V15.0345H35.4566V16.7215H36.8157V17.2609H35.0196ZM41.2233 12.3899H41.689L42.3354 16.6129H42.3448L43.0332 12.3899H43.5987L44.2207 16.6129H44.2301L44.9285 12.3899H45.3843L44.4771 17.2609H43.9449L43.2941 13.0379H43.2841L42.5907 17.2609H42.059L41.2233 12.3899ZM53.8798 12.3899H54.3217L53.3857 15.4056V17.2609H52.9487V15.4056L52.0271 12.3899H52.5167L53.1863 14.7448L53.8798 12.3899ZM58.9198 15.4803V13.8808C58.9198 12.9094 59.2715 12.2891 59.9981 12.2891C60.7248 12.2891 61.0759 12.9099 61.0759 13.8808V15.4803C61.0759 16.8295 60.7248 17.3623 59.9981 17.3623C59.2715 17.3623 58.9198 16.8295 58.9198 15.4803ZM60.6295 15.5069V13.8609C60.6295 12.8418 60.136 12.8086 59.9981 12.8086C59.8602 12.8086 59.3656 12.8424 59.3656 13.8609V15.5069C59.3656 16.5731 59.5849 16.8428 59.9981 16.8428C60.4113 16.8428 60.6295 16.5731 60.6295 15.5069ZM66.4477 15.0206V17.2604H66.0107V12.3899H67.1931C67.8013 12.3899 68.0156 12.9974 68.0156 13.6044C68.0156 14.1782 67.7924 14.6169 67.3886 14.7182V14.7315C67.7824 14.819 67.9248 15.0085 67.948 15.9865C67.9536 16.1959 68.0012 16.958 68.0671 17.2615H67.6107C67.4883 16.9248 67.5166 16.2901 67.4778 15.6421C67.4451 15.0483 67.1078 15.0212 66.96 15.0212L66.4477 15.0206ZM66.4477 14.4812H67.104C67.4174 14.4812 67.5692 14.0968 67.5692 13.6715C67.5692 13.3203 67.4462 12.9293 67.1089 12.9293H66.4477V14.4812ZM72.8457 17.2609V12.3899H73.2832V14.5288H73.2965L74.4945 12.3899H74.9885L73.7446 14.5892L75.06 17.2609H74.4995L73.2971 14.7177H73.2838V17.2609H72.8457Z" fill="white"/>
<defs>
<filter id="filter0_d_718_2701" x="0.114921" y="0.336191" width="102.77" height="45.7702" filterUnits="userSpaceOnUse" color-interpolation-filters="sRGB">
<feFlood flood-opacity="0" result="BackgroundImageFix"/>
<feColorMatrix in="SourceAlpha" type="matrix" values="0 0 0 0 0 0 0 0 0 0 0 0 0 0 0 0 0 0 127 0" result="hardAlpha"/>
<feOffset dy="1.22127"/>
<feGaussianBlur stdDeviation="2.44254"/>
<feComposite in2="hardAlpha" operator="out"/>
<feColorMatrix type="matrix" values="0 0 0 0 0 0 0 0 0 0 0 0 0 0 0 0 0 0 0.25 0"/>
<feBlend mode="normal" in2="BackgroundImageFix" result="effect1_dropShadow_718_2701"/>
<feBlend mode="normal" in="SourceGraphic" in2="effect1_dropShadow_718_2701" result="shape"/>
</filter>
</defs>
</svg>
