<svg width="132" height="44" viewBox="0 0 132 44" fill="none" xmlns="http://www.w3.org/2000/svg">
<g filter="url(#filter0_d_17_7247)">
<rect x="4" y="3" width="124" height="36" rx="16" fill="#4FB886"/>
<rect x="4.5" y="3.5" width="123" height="35" rx="15.5" stroke="#333333"/>
</g>
<path d="M55.6202 26.3682C54.6775 26.3682 53.8422 26.1582 53.1142 25.7382C52.3955 25.3089 51.8308 24.7162 51.4202 23.9602C51.0095 23.1949 50.8042 22.3082 50.8042 21.3002C50.8042 20.3015 51.0095 19.4242 51.4202 18.6682C51.8308 17.9029 52.3955 17.3055 53.1142 16.8762C53.8422 16.4469 54.6775 16.2322 55.6202 16.2322C56.5815 16.2322 57.4262 16.4469 58.1542 16.8762C58.8822 17.3055 59.4468 17.9029 59.8482 18.6682C60.2495 19.4242 60.4502 20.3015 60.4502 21.3002C60.4502 22.3082 60.2495 23.1949 59.8482 23.9602C59.4468 24.7162 58.8822 25.3089 58.1542 25.7382C57.4262 26.1582 56.5815 26.3682 55.6202 26.3682ZM55.6342 24.8562C56.2595 24.8562 56.8055 24.7162 57.2722 24.4362C57.7388 24.1469 58.0982 23.7362 58.3502 23.2042C58.6022 22.6722 58.7282 22.0375 58.7282 21.3002C58.7282 20.5629 58.6022 19.9282 58.3502 19.3962C58.0982 18.8642 57.7388 18.4582 57.2722 18.1782C56.8055 17.8889 56.2595 17.7442 55.6342 17.7442C55.0088 17.7442 54.4628 17.8889 53.9962 18.1782C53.5295 18.4582 53.1655 18.8642 52.9042 19.3962C52.6522 19.9282 52.5262 20.5629 52.5262 21.3002C52.5262 22.0375 52.6522 22.6722 52.9042 23.2042C53.1655 23.7362 53.5295 24.1469 53.9962 24.4362C54.4628 24.7162 55.0088 24.8562 55.6342 24.8562ZM62.0917 26.2002V16.4002H65.2557C66.3943 16.4002 67.3323 16.6009 68.0697 17.0022C68.8163 17.4035 69.367 17.9729 69.7217 18.7102C70.0857 19.4382 70.2677 20.3062 70.2677 21.3142C70.2677 22.3035 70.0857 23.1669 69.7217 23.9042C69.367 24.6322 68.8163 25.1969 68.0697 25.5982C67.3323 25.9995 66.3943 26.2002 65.2557 26.2002H62.0917ZM63.7717 24.7722H65.1717C66.021 24.7722 66.6883 24.6369 67.1737 24.3662C67.6683 24.0862 68.0183 23.6895 68.2237 23.1762C68.4383 22.6535 68.5457 22.0329 68.5457 21.3142C68.5457 20.5862 68.4383 19.9655 68.2237 19.4522C68.0183 18.9295 67.6683 18.5282 67.1737 18.2482C66.6883 17.9589 66.021 17.8142 65.1717 17.8142H63.7717V24.7722ZM71.9081 26.2002V16.4002H75.0721C76.2107 16.4002 77.1487 16.6009 77.8861 17.0022C78.6327 17.4035 79.1834 17.9729 79.5381 18.7102C79.9021 19.4382 80.0841 20.3062 80.0841 21.3142C80.0841 22.3035 79.9021 23.1669 79.5381 23.9042C79.1834 24.6322 78.6327 25.1969 77.8861 25.5982C77.1487 25.9995 76.2107 26.2002 75.0721 26.2002H71.9081ZM73.5881 24.7722H74.9881C75.8374 24.7722 76.5047 24.6369 76.9901 24.3662C77.4847 24.0862 77.8347 23.6895 78.0401 23.1762C78.2547 22.6535 78.3621 22.0329 78.3621 21.3142C78.3621 20.5862 78.2547 19.9655 78.0401 19.4522C77.8347 18.9295 77.4847 18.5282 76.9901 18.2482C76.5047 17.9589 75.8374 17.8142 74.9881 17.8142H73.5881V24.7722Z" fill="#333333"/>
<defs>
<filter id="filter0_d_17_7247" x="0.626664" y="0.469998" width="130.747" height="42.7467" filterUnits="userSpaceOnUse" color-interpolation-filters="sRGB">
<feFlood flood-opacity="0" result="BackgroundImageFix"/>
<feColorMatrix in="SourceAlpha" type="matrix" values="0 0 0 0 0 0 0 0 0 0 0 0 0 0 0 0 0 0 127 0" result="hardAlpha"/>
<feOffset dy="0.843334"/>
<feGaussianBlur stdDeviation="1.68667"/>
<feComposite in2="hardAlpha" operator="out"/>
<feColorMatrix type="matrix" values="0 0 0 0 0 0 0 0 0 0 0 0 0 0 0 0 0 0 0.25 0"/>
<feBlend mode="normal" in2="BackgroundImageFix" result="effect1_dropShadow_17_7247"/>
<feBlend mode="normal" in="SourceGraphic" in2="effect1_dropShadow_17_7247" result="shape"/>
</filter>
</defs>
</svg>
