<svg width="103" height="47" viewBox="0 0 103 47" fill="none" xmlns="http://www.w3.org/2000/svg">
<g filter="url(#filter0_d_775_2783)">
<rect x="5" y="4" width="93" height="36" rx="18" fill="#007AFF"/>
</g>
<path d="M21.0019 14.6538C20.9932 14.3054 21.2819 13.9922 21.6036 14.0016C23.3305 13.9996 25.0573 14.0012 26.7839 14.0008C27.0095 13.9885 27.2351 14.1187 27.3447 14.3341C27.7424 15.0943 28.1434 15.853 28.5357 16.6165C30.7739 16.6272 33.0126 16.6177 35.2512 16.621C35.4319 16.6251 35.6258 16.5948 35.7913 16.6935C35.9856 16.8036 36.1205 17.0321 36.1183 17.2716C36.1209 18.1465 36.1186 19.0214 36.1194 19.8963C36.9267 19.8971 37.734 19.8951 38.541 19.8971C38.7957 19.8938 39.038 20.0858 39.1124 20.3491C39.1616 20.5034 39.1464 20.6746 39.0898 20.824C38.0889 23.6416 37.0892 26.4595 36.088 29.2767C36.0034 29.551 35.7441 29.7385 35.4784 29.7221C30.9304 29.7221 26.3828 29.7221 21.8349 29.7221C21.6746 29.72 21.5042 29.7405 21.356 29.6586C21.1353 29.5485 20.9883 29.2898 21.0007 29.0257C21.0019 24.2352 21 19.4443 21.0019 14.6538ZM22.2106 15.3109C22.2102 18.6545 22.2113 21.9986 22.2102 25.3422C22.2117 25.4041 22.217 25.4659 22.2208 25.5281C22.276 25.3439 22.344 25.1646 22.4075 24.984C22.957 23.4369 23.5062 21.8893 24.0558 20.3425C24.1393 20.0686 24.3989 19.8795 24.6647 19.8963C28.0799 19.8963 31.4947 19.8963 34.9099 19.8963C34.9099 19.2412 34.9099 18.5862 34.9099 17.9311C32.7431 17.9311 30.5759 17.9311 28.4091 17.9311C28.2987 17.9307 28.1876 17.9369 28.078 17.9193C27.8928 17.884 27.7321 17.7477 27.646 17.5684C27.2552 16.8163 26.8579 16.0679 26.4705 15.3138C25.0505 15.3072 23.6306 15.313 22.2106 15.3109ZM25.0453 21.2064C24.1922 23.608 23.3392 26.01 22.4869 28.412C26.6909 28.412 30.8949 28.412 35.0989 28.412C35.9523 26.0104 36.805 23.6084 37.6577 21.2064C33.4533 21.2064 29.2493 21.2064 25.0453 21.2064Z" fill="white"/>
<path d="M51.8268 26.1793C50.8208 26.1793 49.9293 25.9552 49.1524 25.507C48.3855 25.0488 47.7829 24.4163 47.3446 23.6095C46.9064 22.7928 46.6873 21.8465 46.6873 20.7708C46.6873 19.7051 46.9064 18.7688 47.3446 17.962C47.7829 17.1453 48.3855 16.5078 49.1524 16.0496C49.9293 15.5915 50.8208 15.3624 51.8268 15.3624C52.8527 15.3624 53.7541 15.5915 54.531 16.0496C55.3079 16.5078 55.9105 17.1453 56.3388 17.962C56.7671 18.7688 56.9813 19.7051 56.9813 20.7708C56.9813 21.8465 56.7671 22.7928 56.3388 23.6095C55.9105 24.4163 55.3079 25.0488 54.531 25.507C53.7541 25.9552 52.8527 26.1793 51.8268 26.1793ZM51.8417 24.5657C52.5091 24.5657 53.0918 24.4163 53.5898 24.1175C54.0878 23.8087 54.4713 23.3705 54.7402 22.8027C55.0091 22.235 55.1436 21.5577 55.1436 20.7708C55.1436 19.984 55.0091 19.3067 54.7402 18.7389C54.4713 18.1712 54.0878 17.7379 53.5898 17.4391C53.0918 17.1303 52.5091 16.9759 51.8417 16.9759C51.1744 16.9759 50.5917 17.1303 50.0937 17.4391C49.5957 17.7379 49.2072 18.1712 48.9283 18.7389C48.6594 19.3067 48.5249 19.984 48.5249 20.7708C48.5249 21.5577 48.6594 22.235 48.9283 22.8027C49.2072 23.3705 49.5957 23.8087 50.0937 24.1175C50.5917 24.4163 51.1744 24.5657 51.8417 24.5657ZM58.6733 29.2869V18.47H60.2719L60.4661 19.5606C60.6255 19.3415 60.8147 19.1373 61.0339 18.9481C61.263 18.7489 61.5369 18.5895 61.8556 18.47C62.1843 18.3505 62.5578 18.2907 62.9761 18.2907C63.6833 18.2907 64.3058 18.465 64.8437 18.8136C65.3915 19.1622 65.8198 19.6354 66.1286 20.233C66.4373 20.8206 66.5917 21.493 66.5917 22.2499C66.5917 23.0069 66.4324 23.6842 66.1136 24.2818C65.8049 24.8695 65.3766 25.3327 64.8288 25.6713C64.2909 26.01 63.6734 26.1793 62.9761 26.1793C62.4084 26.1793 61.9104 26.0747 61.4821 25.8655C61.0638 25.6464 60.7251 25.3376 60.4661 24.9392V29.2869H58.6733ZM62.6026 24.6255C63.021 24.6255 63.3945 24.5259 63.7232 24.3267C64.0518 24.1275 64.3058 23.8486 64.4851 23.49C64.6744 23.1314 64.769 22.7181 64.769 22.2499C64.769 21.7718 64.6744 21.3535 64.4851 20.9949C64.3058 20.6364 64.0518 20.3575 63.7232 20.1583C63.3945 19.9591 63.021 19.8595 62.6026 19.8595C62.1743 19.8595 61.7958 19.9591 61.4671 20.1583C61.1484 20.3575 60.8944 20.6364 60.7052 20.9949C60.5259 21.3535 60.4363 21.7669 60.4363 22.235C60.4363 22.7131 60.5259 23.1314 60.7052 23.49C60.8944 23.8386 61.1484 24.1175 61.4671 24.3267C61.7958 24.5259 62.1743 24.6255 62.6026 24.6255ZM71.858 26.1793C71.111 26.1793 70.4536 26.0199 69.8859 25.7012C69.3181 25.3725 68.8749 24.9143 68.5562 24.3267C68.2374 23.739 68.0781 23.0617 68.0781 22.2948C68.0781 21.4979 68.2325 20.8007 68.5412 20.2031C68.86 19.6055 69.3032 19.1373 69.8709 18.7987C70.4486 18.46 71.116 18.2907 71.873 18.2907C72.61 18.2907 73.2525 18.4551 73.8003 18.7837C74.3481 19.1124 74.7714 19.5557 75.0702 20.1134C75.369 20.6613 75.5184 21.2788 75.5184 21.9661C75.5184 22.0657 75.5184 22.1752 75.5184 22.2948C75.5184 22.4143 75.5085 22.5388 75.4886 22.6683H69.363V21.5179H73.7106C73.6907 20.97 73.5065 20.5417 73.1578 20.233C72.8092 19.9142 72.376 19.7549 71.858 19.7549C71.4895 19.7549 71.1508 19.8395 70.8421 20.0089C70.5333 20.1782 70.2893 20.4322 70.11 20.7708C69.9307 21.0995 69.8411 21.5179 69.8411 22.0258V22.4591C69.8411 22.9272 69.9257 23.3306 70.095 23.6693C70.2743 24.0079 70.5134 24.2669 70.8122 24.4462C71.121 24.6155 71.4646 24.7002 71.8431 24.7002C72.2614 24.7002 72.605 24.6105 72.874 24.4312C73.1529 24.252 73.3571 24.0129 73.4865 23.7141H75.3093C75.1698 24.1822 74.9407 24.6056 74.622 24.984C74.3033 25.3526 73.9099 25.6464 73.4417 25.8655C72.9736 26.0747 72.4457 26.1793 71.858 26.1793ZM77.1738 26V18.47H78.7575L78.892 19.725C79.121 19.2867 79.4497 18.9381 79.878 18.6792C80.3063 18.4202 80.8143 18.2907 81.402 18.2907C82.0095 18.2907 82.5275 18.4202 82.9558 18.6792C83.3841 18.9282 83.7128 19.2967 83.9418 19.7848C84.1809 20.2728 84.3004 20.8804 84.3004 21.6075V26H82.5076V21.7718C82.5076 21.1443 82.3681 20.6613 82.0892 20.3226C81.8103 19.984 81.397 19.8146 80.8492 19.8146C80.4906 19.8146 80.1669 19.8993 79.878 20.0686C79.5991 20.238 79.375 20.487 79.2057 20.8156C79.0463 21.1344 78.9667 21.5228 78.9667 21.981V26H77.1738Z" fill="white"/>
<defs>
<filter id="filter0_d_775_2783" x="0.114921" y="0.336191" width="102.77" height="45.7702" filterUnits="userSpaceOnUse" color-interpolation-filters="sRGB">
<feFlood flood-opacity="0" result="BackgroundImageFix"/>
<feColorMatrix in="SourceAlpha" type="matrix" values="0 0 0 0 0 0 0 0 0 0 0 0 0 0 0 0 0 0 127 0" result="hardAlpha"/>
<feOffset dy="1.22127"/>
<feGaussianBlur stdDeviation="2.44254"/>
<feComposite in2="hardAlpha" operator="out"/>
<feColorMatrix type="matrix" values="0 0 0 0 0 0 0 0 0 0 0 0 0 0 0 0 0 0 0.25 0"/>
<feBlend mode="normal" in2="BackgroundImageFix" result="effect1_dropShadow_775_2783"/>
<feBlend mode="normal" in="SourceGraphic" in2="effect1_dropShadow_775_2783" result="shape"/>
</filter>
</defs>
</svg>
