<svg width="102" height="46" viewBox="0 0 102 46" fill="none" xmlns="http://www.w3.org/2000/svg">
<g filter="url(#filter0_d_741_2655)">
<rect x="5" y="4" width="92" height="36" rx="18" fill="#FEFFFF"/>
</g>
<g clip-path="url(#clip0_741_2655)">
<path d="M25.0462 8.99986L25 33.9297L75.9541 34L76.0003 9.07021L25.0462 8.99986Z" fill="#FFD200"/>
<path d="M75.1868 9.66016H25.6738V33.318H75.1868V9.66016Z" fill="#FFE363"/>
<path d="M75.4285 9.51074H25.4688V12.7085H75.4285V9.51074Z" fill="#231F20"/>
<path d="M28.4678 12.0196V10.3105H29.4292L29.8739 11.0034C29.9248 11.0792 29.9727 11.1579 30.018 11.2397C30.0633 11.3214 30.1059 11.4072 30.1457 11.4973C30.1193 11.4132 30.1002 11.3278 30.088 11.2414C30.0761 11.1428 30.0705 11.0439 30.0715 10.9448V10.3105H30.895V12.0196H29.9686L29.4766 11.2859C29.4245 11.2089 29.3763 11.1295 29.3324 11.0478C29.2886 10.9661 29.248 10.8803 29.211 10.7902C29.2357 10.9181 29.2548 11.0366 29.2686 11.1455C29.2824 11.2544 29.2892 11.3599 29.2892 11.4617V12.0196H28.4678Z" fill="white"/>
<path d="M34.9033 12.0196V10.3105H36.8221V10.641H35.7618V10.9803H36.6986V11.3089H35.7618V11.6909H36.855V12.0196H34.9033Z" fill="white"/>
<path d="M41.1417 12.0188L40.4932 10.3098H41.3928L41.5555 10.992C41.5547 10.9997 41.5547 11.0075 41.5555 11.0151C41.6034 11.2034 41.6461 11.3976 41.6831 11.5978C41.6996 11.4699 41.7167 11.3514 41.7346 11.2425C41.7525 11.1336 41.7681 11.0501 41.7819 10.992L41.9569 10.3063H42.8072L42.9781 10.9831C42.989 11.0341 43.0034 11.1151 43.0213 11.2265C43.0392 11.3379 43.0563 11.4592 43.0728 11.5907C43.0948 11.4402 43.1331 11.2562 43.1881 11.0382L43.2045 10.9725L43.3754 10.3027H44.2524L43.6081 12.0188H42.6322L42.4593 11.294C42.4496 11.2573 42.4387 11.194 42.4263 11.1039C42.414 11.0139 42.401 10.9144 42.3872 10.8055C42.3722 10.8849 42.3557 10.9648 42.3378 11.0453C42.3199 11.1258 42.3001 11.2105 42.2781 11.2994L42.1031 12.01L41.1417 12.0188Z" fill="white"/>
<path d="M53.1691 12.0196V11.3463L52.4424 10.3105H53.3544L53.5006 10.6268C53.5267 10.6859 53.5473 10.7382 53.5623 10.7831C53.5765 10.828 53.5875 10.8737 53.5953 10.9199C53.615 10.8268 53.6461 10.7357 53.6879 10.6481L53.8382 10.3141H54.7235L54.0276 11.3178V12.0196H53.1691Z" fill="white"/>
<path d="M58.3937 10.8125C58.3902 10.6446 58.5016 10.4907 58.6778 10.4199C59.2242 10.2442 59.8257 10.2442 60.3721 10.4199C60.549 10.4918 60.6597 10.6473 60.6542 10.816V11.5177C60.6591 11.6863 60.5486 11.8416 60.3721 11.9139C59.8268 12.0914 59.2252 12.0914 58.6798 11.9139C58.5018 11.8427 58.3894 11.687 58.3937 11.5177V10.8125ZM59.2604 10.7503V11.5781C59.2557 11.6249 59.2789 11.6705 59.3222 11.6989C59.385 11.7288 59.4566 11.7418 59.528 11.7363C59.5995 11.7419 59.6711 11.729 59.7339 11.6989C59.7772 11.6705 59.8004 11.6249 59.7957 11.5781V10.7503C59.8 10.7032 59.7759 10.6576 59.7319 10.6295C59.6691 10.5998 59.5974 10.5869 59.526 10.5922C59.4545 10.5858 59.3825 10.5989 59.3201 10.6295C59.2779 10.6586 59.2555 10.7039 59.2604 10.7503Z" fill="white"/>
<path d="M64.6035 12.0187V10.3097H65.8388C66.0821 10.2989 66.3257 10.3298 66.5552 10.4003C66.694 10.4384 66.7891 10.5483 66.792 10.6739V10.7876C66.7961 10.8684 66.7555 10.9463 66.6829 10.9972C66.5756 11.0601 66.4531 11.1008 66.3246 11.1163C66.4527 11.1271 66.5758 11.1649 66.6829 11.2264C66.7566 11.2785 66.7971 11.3575 66.792 11.4396V11.8411C66.7899 11.8786 66.7963 11.9159 66.8105 11.9512C66.8239 11.9791 66.8451 12.0035 66.8723 12.0223H66.0055C65.9833 12.0026 65.9674 11.9781 65.9602 11.9512C65.9493 11.9098 65.9444 11.8676 65.9458 11.8251V11.4858C65.9578 11.4153 65.9197 11.3453 65.8491 11.3081C65.7229 11.2728 65.5903 11.2584 65.4579 11.2655V12.0187H64.6035ZM65.4517 10.999C65.582 11.0026 65.7124 10.99 65.8388 10.9617C65.8997 10.9493 65.9425 10.902 65.9417 10.848V10.7503C65.9436 10.6968 65.904 10.649 65.8449 10.6331C65.7278 10.6045 65.6061 10.5926 65.4847 10.5975H65.4517V10.999Z" fill="white"/>
<path d="M70.7549 12.0194V10.3104H71.6031V11.0512C71.6095 11.0229 71.62 10.9956 71.634 10.9695C71.6482 10.9426 71.6655 10.917 71.6854 10.8931L72.1692 10.3086H73.0792L72.3072 11.0192L73.0813 12.0194H72.1816L71.7698 11.3869L71.5949 11.5397V12.0194H70.7549Z" fill="white"/>
<path d="M69.4802 14.8613C67.3288 14.8613 67.0488 20.8038 67.0488 23.0102C67.0488 24.7583 67.3021 30.7007 69.5811 30.7007C71.6831 30.7007 72.0886 25.4565 72.0886 22.8841C72.0886 20.7825 71.8354 14.8613 69.4802 14.8613ZM69.6058 30.2673C68.3232 30.2548 68.3397 26.7658 68.3397 22.7704C68.3397 18.3291 68.5064 15.1882 69.5749 15.1882C70.5075 15.1882 70.769 18.338 70.769 22.7704C70.7731 26.4904 70.7566 30.2797 69.6079 30.269L69.6058 30.2673Z" fill="#231F20"/>
<path d="M61.1074 15.1338H63.4873V30.1507H64.5002V30.5006H61.3092V30.172H62.3221V15.4607H61.1074V15.1338Z" fill="#231F20"/>
<path d="M49.8584 15.1668H53.0495V15.4955H52.0098V22.0935L54.3403 15.4742H53.453V15.1455H55.7835V15.4955H54.82L52.5924 21.9194L55.6311 30.1553H56.5926V30.4839H54.5421L52.0366 23.6674V30.134H53.0495V30.4839H49.8584V30.1553H50.8713V15.4955H49.8584V15.1668Z" fill="#231F20"/>
<path d="M46.9476 15.1456H47.2338V20.9352H46.855C46.855 20.9352 46.8035 15.1456 44.9568 15.1456C44.0448 15.1456 43.7092 17.0642 43.7092 22.7846C43.7092 29.7503 44.228 30.214 45.033 30.214C46.855 30.214 46.8859 23.1079 46.8859 23.1079H47.3162C47.3162 23.1079 47.5941 30.6901 44.8848 30.6901C41.4302 30.7025 41.5558 14.8613 44.8457 14.8613C46.0809 14.8613 46.1633 15.7354 46.4144 15.7141C46.6656 15.6927 46.9476 15.1456 46.9476 15.1456Z" fill="#231F20"/>
<path d="M36.5922 15.167H39.7565V15.4956H38.7436V30.1341H39.7565V30.5054H36.5654V30.1554H37.5783V15.517H36.5901L36.5922 15.167Z" fill="#231F20"/>
<path d="M33.6801 16.1447C32.8196 15.1125 31.8787 15.1338 31.8787 15.1338H28.8915V15.5371H29.9044V30.1543H28.875V30.5096H32.0661V30.204H31.0367V22.9469C31.0367 22.9469 31.8602 22.9114 32.2514 22.6858C35.1562 20.9626 34.6539 17.3136 33.6801 16.1447ZM32.6652 21.5275C31.9528 22.7249 31.0182 22.533 31.0182 22.533V15.5406C31.0182 15.5406 31.889 15.4962 32.309 15.6721C33.4804 16.1624 33.2704 20.5096 32.6652 21.5257V21.5275Z" fill="#231F20"/>
</g>
<defs>
<filter id="filter0_d_741_2655" x="0.114921" y="0.336191" width="101.77" height="45.7702" filterUnits="userSpaceOnUse" color-interpolation-filters="sRGB">
<feFlood flood-opacity="0" result="BackgroundImageFix"/>
<feColorMatrix in="SourceAlpha" type="matrix" values="0 0 0 0 0 0 0 0 0 0 0 0 0 0 0 0 0 0 127 0" result="hardAlpha"/>
<feOffset dy="1.22127"/>
<feGaussianBlur stdDeviation="2.44254"/>
<feComposite in2="hardAlpha" operator="out"/>
<feColorMatrix type="matrix" values="0 0 0 0 0 0 0 0 0 0 0 0 0 0 0 0 0 0 0.25 0"/>
<feBlend mode="normal" in2="BackgroundImageFix" result="effect1_dropShadow_741_2655"/>
<feBlend mode="normal" in="SourceGraphic" in2="effect1_dropShadow_741_2655" result="shape"/>
</filter>
<clipPath id="clip0_741_2655">
<rect width="51" height="25" fill="white" transform="translate(25 9)"/>
</clipPath>
</defs>
</svg>
