<svg width="98" height="47" viewBox="0 0 98 47" fill="none" xmlns="http://www.w3.org/2000/svg">
<g filter="url(#filter0_d_718_2704)">
<rect y="4" width="93" height="36" rx="18" fill="#FEFFFF"/>
</g>
<path d="M15.8232 25.5371C18.9562 25.5371 21.5117 22.9938 21.5117 19.8486C21.5117 16.7157 18.9684 14.1602 15.8232 14.1602C12.6903 14.1602 10.1348 16.7034 10.1348 19.8486C10.1348 22.9938 12.678 25.5371 15.8232 25.5371Z" fill="#FCF8FA"/>
<path d="M28.1826 25.4394C31.3155 25.4394 33.871 22.8962 33.871 19.751C33.871 16.618 31.3278 14.0625 28.1826 14.0625C25.0496 14.0625 22.4941 16.6057 22.4941 19.751C22.5064 22.8962 25.0496 25.4394 28.1826 25.4394Z" fill="#FCF8FA"/>
<path d="M40.7636 25.4394C43.8966 25.4394 46.4521 22.8962 46.4521 19.751C46.4521 16.618 43.9089 14.0625 40.7636 14.0625C37.6307 14.0625 35.0752 16.6057 35.0752 19.751C35.0752 22.8962 37.6307 25.4394 40.7636 25.4394Z" fill="#FCF8FA"/>
<path d="M53.455 25.5371C56.588 25.5371 59.1435 22.9938 59.1435 19.8486C59.1435 16.7157 56.6003 14.1602 53.455 14.1602C50.3221 14.1602 47.7666 16.7034 47.7666 19.8486C47.7666 22.9938 50.3098 25.5371 53.455 25.5371Z" fill="#FCF8FA"/>
<path d="M65.7041 25.4394C68.837 25.4394 71.3925 22.8962 71.3925 19.751C71.3925 16.618 68.8493 14.0625 65.7041 14.0625C62.5711 14.0625 60.0156 16.6057 60.0156 19.751C60.0156 22.8962 62.5588 25.4394 65.7041 25.4394Z" fill="#FCF8FA"/>
<path fill-rule="evenodd" clip-rule="evenodd" d="M49.4375 26.4219H83.1505V30.1323H49.4375V26.4219Z" fill="#FCF8FA"/>
<path fill-rule="evenodd" clip-rule="evenodd" d="M49.4395 26.4199H83.1524V30.118H49.4395V26.4199Z" stroke="#231815" stroke-width="0.116718"/>
<path fill-rule="evenodd" clip-rule="evenodd" d="M49.4258 26.4199H69.3046V30.1426H49.4258V26.4199Z" fill="#231815"/>
<path fill-rule="evenodd" clip-rule="evenodd" d="M49.4258 26.4199H69.3046V30.1426H49.4258V26.4199Z" stroke="#231815" stroke-width="0.057335" stroke-miterlimit="2.613"/>
<path fill-rule="evenodd" clip-rule="evenodd" d="M50.3457 26.8506H51.9306C52.2746 26.8506 52.5326 26.9243 52.7046 27.084C52.8766 27.2437 52.9626 27.4649 52.9626 27.7598C52.9626 28.0669 52.8643 28.3003 52.6801 28.4601C52.4958 28.6321 52.2009 28.7181 51.82 28.7181H51.304V29.8238H50.3457V26.8506ZM51.304 28.116H51.5375C51.7217 28.116 51.8446 28.0915 51.9306 28.0178C52.0043 27.9563 52.0412 27.8826 52.0412 27.7843C52.0412 27.686 52.0043 27.6123 51.9429 27.5509C51.8815 27.4895 51.7586 27.4526 51.5743 27.4526H51.304V28.116Z" fill="#FCF8FA"/>
<path fill-rule="evenodd" clip-rule="evenodd" d="M53.6641 28.2633C53.6641 27.7719 53.7992 27.4033 54.0818 27.133C54.3644 26.8627 54.7575 26.7275 55.249 26.7275C55.765 26.7275 56.1581 26.8627 56.4407 27.133C56.7233 27.391 56.8584 27.7719 56.8584 28.251C56.8584 28.595 56.797 28.8899 56.6742 29.111C56.5513 29.3322 56.3793 29.5042 56.1459 29.6271C55.9124 29.7499 55.6298 29.8113 55.2858 29.8113C54.9418 29.8113 54.6469 29.7622 54.4258 29.6516C54.1924 29.541 54.0081 29.369 53.8729 29.1479C53.7255 28.8899 53.6641 28.6073 53.6641 28.2633ZM54.6101 28.2633C54.6101 28.5704 54.6715 28.7793 54.7821 28.9145C54.8927 29.0496 55.0524 29.111 55.2613 29.111C55.4701 29.111 55.6175 29.0496 55.7404 28.9145C55.851 28.7916 55.9124 28.5582 55.9124 28.2264C55.9124 27.9439 55.851 27.7473 55.7404 27.6121C55.6298 27.477 55.4701 27.4156 55.2613 27.4156C55.0647 27.4156 54.9172 27.477 54.7944 27.6121C54.6715 27.7473 54.6101 27.9561 54.6101 28.2633Z" fill="#FCF8FA"/>
<path fill-rule="evenodd" clip-rule="evenodd" d="M57.3379 26.8389H58.2348L58.5665 28.4975L59.0457 26.8389H59.9425L60.4217 28.4975L60.7534 26.8389H61.6503L60.9746 29.8121H60.0408L59.5002 27.9323L58.9597 29.8121H58.0259L57.3379 26.8389Z" fill="#FCF8FA"/>
<path fill-rule="evenodd" clip-rule="evenodd" d="M62.4746 26.8389H65.0301V27.4777H63.4329V27.9446H64.9195V28.5466H63.4329V29.1364H65.0793V29.8121H62.4746V26.8389Z" fill="#FCF8FA"/>
<path fill-rule="evenodd" clip-rule="evenodd" d="M65.9268 29.8121V26.8389H67.5117C67.8065 26.8389 68.0277 26.8634 68.1874 26.9126C68.3471 26.9617 68.47 27.0477 68.5683 27.1829C68.6665 27.318 68.7157 27.4777 68.7157 27.662C68.7157 27.8218 68.6788 27.9692 68.6051 28.092C68.5314 28.2149 68.4331 28.3132 68.298 28.3869C68.212 28.4361 68.1014 28.4729 67.9662 28.4975C68.0768 28.5343 68.1628 28.5712 68.212 28.6081C68.2488 28.6326 68.298 28.6818 68.3594 28.7678C68.4331 28.8538 68.47 28.9152 68.4945 28.9521L68.9614 29.8121H67.8802L67.3642 28.9029C67.3028 28.7801 67.2414 28.7063 67.1922 28.6695C67.1185 28.6203 67.0448 28.5958 66.9588 28.5958H66.8728V29.7998H65.9268V29.8121ZM66.8851 28.0429H67.2905C67.3274 28.0429 67.4134 28.0306 67.5485 28.006C67.61 27.9938 67.6591 27.9569 67.7082 27.9078C67.7451 27.8586 67.7697 27.7972 67.7697 27.7358C67.7697 27.6375 67.7328 27.5637 67.6714 27.5146C67.61 27.4655 67.4871 27.4409 67.3151 27.4409H66.8974V28.0429H66.8851Z" fill="#FCF8FA"/>
<path fill-rule="evenodd" clip-rule="evenodd" d="M70.5208 27.1455V28.2758H71.0245C71.3071 28.2758 71.5159 28.2266 71.6511 28.1406C71.7862 28.0546 71.8599 27.9072 71.8599 27.7229C71.8599 27.5263 71.7862 27.3789 71.6511 27.2929C71.5159 27.1946 71.2948 27.1577 70.9999 27.1577H70.5208V27.1455ZM70.1768 26.8506H70.9262C71.1351 26.8506 71.3071 26.8629 71.4422 26.8752C71.5774 26.8874 71.6757 26.9243 71.7617 26.9612C71.9091 27.0349 72.032 27.1455 72.118 27.2683C72.204 27.3912 72.2408 27.5386 72.2408 27.6983C72.2408 27.8458 72.204 27.9809 72.1302 28.116C72.0565 28.2389 71.946 28.3372 71.8231 28.4232C71.7248 28.4723 71.6142 28.5092 71.4914 28.5338C71.3562 28.5583 71.1965 28.5706 70.9999 28.5706H70.5331V29.8115H70.189V26.8506H70.1768Z" fill="#231815"/>
<path fill-rule="evenodd" clip-rule="evenodd" d="M74.6123 29.7764H73.0273V26.8154H73.3836V29.4815H74.6123V29.7764Z" fill="#231815"/>
<path fill-rule="evenodd" clip-rule="evenodd" d="M75.7299 29.7393H75.3613L76.7251 26.7783H77.1428L78.5066 29.7393H78.138L77.7203 28.8178H76.1599L75.7299 29.7393ZM77.5974 28.5352L76.9339 27.0486L76.2828 28.5352H77.5974Z" fill="#231815"/>
<path fill-rule="evenodd" clip-rule="evenodd" d="M80.423 28.7431V29.8242H80.079V28.7308L78.9609 26.8633H79.3541L80.251 28.399L81.1601 26.8633H81.541L80.423 28.7431Z" fill="#231815"/>
<path fill-rule="evenodd" clip-rule="evenodd" d="M82.8683 27.3549C82.8683 27.4532 82.8437 27.5392 82.7946 27.6129C82.7454 27.6989 82.684 27.7603 82.598 27.7972C82.512 27.8463 82.426 27.8709 82.3277 27.8709C82.2294 27.8709 82.1434 27.8463 82.0574 27.7972C81.9714 27.748 81.91 27.6866 81.8608 27.6129C81.8117 27.5269 81.7871 27.4409 81.7871 27.3549C81.7871 27.2689 81.8117 27.1829 81.8608 27.0969C81.91 27.0232 81.9714 26.9494 82.0574 26.9126C82.1434 26.8634 82.2294 26.8389 82.3277 26.8389C82.426 26.8389 82.512 26.8634 82.598 26.9126C82.684 26.9617 82.7454 27.0232 82.7946 27.0969C82.8314 27.1706 82.8683 27.2566 82.8683 27.3549ZM82.7577 27.3549C82.7577 27.2443 82.7209 27.146 82.6349 27.06C82.5488 26.974 82.4506 26.9372 82.3277 26.9372C82.2048 26.9372 82.1066 26.974 82.0205 27.06C81.9345 27.146 81.8977 27.2443 81.8977 27.3549C81.8977 27.4655 81.9345 27.5637 82.0205 27.6497C82.1066 27.7357 82.2048 27.7726 82.3277 27.7726C82.4506 27.7726 82.5488 27.7357 82.6349 27.6497C82.7209 27.5637 82.7577 27.4655 82.7577 27.3549ZM82.082 27.0723H82.34C82.4137 27.0723 82.4628 27.0846 82.4997 27.1092C82.5366 27.1337 82.5488 27.1706 82.5488 27.2197C82.5488 27.2566 82.5366 27.2935 82.512 27.318C82.4874 27.3426 82.4506 27.3672 82.3891 27.3795C82.4137 27.3917 82.426 27.3917 82.4383 27.404C82.4506 27.4163 82.4628 27.4409 82.4874 27.4655C82.4874 27.4655 82.5243 27.5146 82.5857 27.6252H82.4137C82.3646 27.5146 82.3277 27.4532 82.3031 27.4409C82.2908 27.4163 82.2663 27.404 82.2417 27.404H82.2294V27.6252H82.0943V27.0723H82.082ZM82.2171 27.3057H82.2908C82.3277 27.3057 82.3646 27.2935 82.3768 27.2812C82.3891 27.2689 82.4014 27.2566 82.4014 27.232C82.4014 27.2074 82.3891 27.1952 82.3768 27.1829C82.3646 27.1706 82.34 27.1583 82.2908 27.1583H82.2171V27.3057Z" fill="#231815"/>
<path d="M21.6226 19.8113C21.6226 23.018 19.018 25.6227 15.8113 25.6227C12.6046 25.6227 10 23.018 10 19.8113C10 16.6047 12.6046 14 15.8113 14C19.018 13.9878 21.6226 16.5924 21.6226 19.8113Z" fill="#FCF8FA"/>
<path fill-rule="evenodd" clip-rule="evenodd" d="M21.6226 19.8113C21.6226 23.018 19.018 25.6227 15.8113 25.6227C12.6046 25.6227 10 23.018 10 19.8113C10 16.6047 12.6046 14 15.8113 14C19.018 13.9878 21.6226 16.5924 21.6226 19.8113Z" stroke="#231815" stroke-width="0.495538"/>
<path d="M34.0308 19.8113C34.0308 23.018 31.4262 25.6227 28.2195 25.6227C25.0128 25.6227 22.4082 23.018 22.4082 19.8113C22.4082 16.6047 25.0128 14 28.2195 14C31.4262 13.9878 34.0308 16.5924 34.0308 19.8113Z" fill="#FCF8FA"/>
<path fill-rule="evenodd" clip-rule="evenodd" d="M34.0308 19.8113C34.0308 23.018 31.4262 25.6227 28.2195 25.6227C25.0128 25.6227 22.4082 23.018 22.4082 19.8113C22.4082 16.6047 25.0128 14 28.2195 14C31.4262 13.9878 34.0308 16.5924 34.0308 19.8113Z" stroke="#231815" stroke-width="0.495538"/>
<path d="M46.6246 19.8113C46.6246 23.018 44.0199 25.6227 40.8133 25.6227C37.6066 25.6227 35.002 23.018 35.002 19.8113C35.002 16.6047 37.6066 14 40.8133 14C44.0322 13.9878 46.6246 16.5924 46.6246 19.8113Z" fill="#FCF8FA"/>
<path fill-rule="evenodd" clip-rule="evenodd" d="M46.6246 19.8113C46.6246 23.018 44.0199 25.6227 40.8133 25.6227C37.6066 25.6227 35.002 23.018 35.002 19.8113C35.002 16.6047 37.6066 14 40.8133 14C44.0322 13.9878 46.6246 16.5924 46.6246 19.8113Z" stroke="#231815" stroke-width="0.495538"/>
<path d="M59.23 19.8113C59.23 23.018 56.6254 25.6227 53.4187 25.6227C50.2121 25.6227 47.6074 23.018 47.6074 19.8113C47.6074 16.6047 50.2121 14 53.4187 14C56.6254 13.9878 59.23 16.5924 59.23 19.8113Z" fill="#FCF8FA"/>
<path fill-rule="evenodd" clip-rule="evenodd" d="M59.23 19.8113C59.23 23.018 56.6254 25.6227 53.4187 25.6227C50.2121 25.6227 47.6074 23.018 47.6074 19.8113C47.6074 16.6047 50.2121 14 53.4187 14C56.6254 13.9878 59.23 16.5924 59.23 19.8113Z" stroke="#231815" stroke-width="0.495538"/>
<path d="M71.442 19.8113C71.442 23.018 68.8373 25.6227 65.6306 25.6227C62.424 25.6227 59.8193 23.018 59.8193 19.8113C59.8193 16.6047 62.424 14 65.6306 14C68.8373 13.9878 71.442 16.5924 71.442 19.8113Z" fill="#FCF8FA"/>
<path fill-rule="evenodd" clip-rule="evenodd" d="M71.442 19.8113C71.442 23.018 68.8373 25.6227 65.6306 25.6227C62.424 25.6227 59.8193 23.018 59.8193 19.8113C59.8193 16.6047 62.424 14 65.6306 14C68.8373 13.9878 71.442 16.5924 71.442 19.8113Z" stroke="#231815" stroke-width="0.495538"/>
<path d="M77.7459 14.2772L77.7469 14.2772C80.7991 14.2655 83.2801 16.7449 83.2801 19.8113C83.2801 22.865 80.7995 25.3455 77.7459 25.3455C74.6923 25.3455 72.2117 22.865 72.2117 19.8113C72.2117 16.7577 74.6923 14.2772 77.7459 14.2772Z" fill="#FF0000" stroke="black" stroke-width="0.554259"/>
<path d="M13.5391 23.1295C13.1214 19.9105 13.318 18.0676 13.7234 16.4213C14.7554 16.3107 15.4803 16.3844 16.5124 16.3844C18.343 16.4213 19.3381 17.4165 19.3873 18.7188C19.4241 20.0825 18.515 21.0163 16.5984 21.0408H15.4926C15.4926 21.7411 15.5049 22.4415 15.5295 23.1295C14.8169 23.1663 14.2394 23.1418 13.5391 23.1295ZM16.4018 19.4559C16.9178 19.4559 17.4215 19.1611 17.4215 18.5836C17.4215 17.957 16.5984 17.8588 16.1438 17.8588C15.9349 17.8588 15.726 17.8587 15.5295 17.871C15.5295 18.3748 15.4926 18.9645 15.4926 19.4559H16.4018Z" fill="#000022"/>
<path fill-rule="evenodd" clip-rule="evenodd" d="M13.5391 23.1295C13.1214 19.9105 13.318 18.0676 13.7234 16.4213C14.7554 16.3107 15.4803 16.3844 16.5124 16.3844C18.343 16.4213 19.3381 17.4165 19.3873 18.7188C19.4241 20.0825 18.515 21.0163 16.5984 21.0408H15.4926C15.4926 21.7411 15.5049 22.4415 15.5295 23.1295C14.8169 23.1663 14.2394 23.1418 13.5391 23.1295ZM16.4018 19.4559C16.9178 19.4559 17.4215 19.1611 17.4215 18.5836C17.4215 17.957 16.5984 17.8588 16.1438 17.8588C15.9349 17.8588 15.726 17.8587 15.5295 17.871C15.5295 18.3748 15.4926 18.9645 15.4926 19.4559H16.4018Z" stroke="#231815" stroke-width="0.231388"/>
<path d="M31.6473 19.6155C31.6227 21.7287 29.9887 23.1293 28.1703 23.1416C26.2291 23.117 24.7179 21.7041 24.6934 19.6032C24.7179 17.662 26.2414 16.1877 28.1703 16.1631C30.3818 16.1999 31.635 17.9937 31.6473 19.6155ZM26.868 19.6155C26.868 20.4509 27.1383 21.5198 28.1703 21.5198C29.0918 21.5198 29.4726 20.6966 29.4726 19.6155C29.4726 18.7186 29.0918 17.7603 28.1457 17.7848C27.1751 17.7848 26.868 18.7923 26.868 19.6155Z" fill="#000022"/>
<path fill-rule="evenodd" clip-rule="evenodd" d="M31.6473 19.6155C31.6227 21.7287 29.9887 23.1293 28.1703 23.1416C26.2291 23.117 24.7179 21.7041 24.6934 19.6032C24.7179 17.662 26.2414 16.1877 28.1703 16.1631C30.3818 16.1999 31.635 17.9937 31.6473 19.6155ZM26.868 19.6155C26.868 20.4509 27.1383 21.5198 28.1703 21.5198C29.0918 21.5198 29.4726 20.6966 29.4726 19.6155C29.4726 18.7186 29.0918 17.7603 28.1457 17.7848C27.1751 17.7848 26.868 18.7923 26.868 19.6155Z" stroke="#231815" stroke-width="0.227292"/>
<path d="M42.6192 20.4634H42.6438C42.9633 19.0505 43.1721 17.8956 43.0861 16.5441C43.9584 16.5687 43.9953 16.5687 44.6342 16.581C45.0519 18.4608 44.4867 20.8074 43.3687 23.1049C42.6684 23.1295 42.177 23.1049 41.5381 23.1295C41.4029 21.7903 41.1326 20.4511 40.8623 19.0996H40.8378C40.5798 20.4511 40.2972 21.8026 40.162 23.1295C39.4126 23.154 39.3757 23.154 38.5034 23.1295C37.3977 20.832 36.6851 18.5713 37.2257 16.5441C38.012 16.5687 38.0366 16.5441 38.6877 16.5441C38.6017 17.8956 38.7491 19.0505 39.0563 20.4634H39.0686C39.2897 19.0628 39.7197 17.9447 40.076 16.495C40.6043 16.4704 41.1449 16.4704 41.6732 16.495C42.0418 17.9447 42.3981 19.0628 42.6192 20.4634Z" fill="#000022"/>
<path fill-rule="evenodd" clip-rule="evenodd" d="M42.6192 20.4634H42.6438C42.9633 19.0505 43.1721 17.8956 43.0861 16.5441C43.9584 16.5687 43.9953 16.5687 44.6342 16.581C45.0519 18.4608 44.4867 20.8074 43.3687 23.1049C42.6684 23.1295 42.177 23.1049 41.5381 23.1295C41.4029 21.7903 41.1326 20.4511 40.8623 19.0996H40.8378C40.5798 20.4511 40.2972 21.8026 40.162 23.1295C39.4126 23.154 39.3757 23.154 38.5034 23.1295C37.3977 20.832 36.6851 18.5713 37.2257 16.5441C38.012 16.5687 38.0366 16.5441 38.6877 16.5441C38.6017 17.8956 38.7491 19.0505 39.0563 20.4634H39.0686C39.2897 19.0628 39.7197 17.9447 40.076 16.495C40.6043 16.4704 41.1449 16.4704 41.6732 16.495C42.0418 17.9447 42.3981 19.0628 42.6192 20.4634Z" stroke="#231815" stroke-width="0.212958"/>
<path d="M51.1831 22.9692C50.6671 20.8068 50.7408 18.6445 51.1831 16.5435C52.9278 16.3101 54.1932 16.3224 55.9378 16.5435C56.1221 17.035 56.2696 17.5019 56.3556 18.0056C55.2007 17.981 54.1687 17.9319 53.0752 17.9564C53.0752 18.2759 53.0752 18.6076 53.0629 18.927C53.9966 18.9148 54.9181 18.927 55.8518 18.9516C55.8641 19.4676 55.8641 19.9714 55.8518 20.4874C54.9181 20.5119 53.9966 20.5119 53.0629 20.5119C53.0629 20.8682 53.0629 21.2245 53.0752 21.5685C54.2055 21.5808 55.3358 21.5563 56.4662 21.4825C56.417 22.0477 56.3556 22.5023 56.1713 22.9937C54.3775 23.2149 52.9769 23.2026 51.1831 22.9692Z" fill="#000022"/>
<path fill-rule="evenodd" clip-rule="evenodd" d="M51.1831 22.9692C50.6671 20.8068 50.7408 18.6445 51.1831 16.5435C52.9278 16.3101 54.1932 16.3224 55.9378 16.5435C56.1221 17.035 56.2696 17.5019 56.3556 18.0056C55.2007 17.981 54.1687 17.9319 53.0752 17.9564C53.0752 18.2759 53.0752 18.6076 53.0629 18.927C53.9966 18.9148 54.9181 18.927 55.8518 18.9516C55.8641 19.4676 55.8641 19.9714 55.8518 20.4874C54.9181 20.5119 53.9966 20.5119 53.0629 20.5119C53.0629 20.8682 53.0629 21.2245 53.0752 21.5685C54.2055 21.5808 55.3358 21.5563 56.4662 21.4825C56.417 22.0477 56.3556 22.5023 56.1713 22.9937C54.3775 23.2149 52.9769 23.2026 51.1831 22.9692Z" stroke="#231815" stroke-width="0.231388"/>
<path d="M64.8828 20.708C64.8951 21.5188 64.9073 22.342 64.9442 23.1406C64.1947 23.1652 63.691 23.116 63.089 23.0177C62.4133 20.8922 62.5976 18.4719 63.2733 16.4447C64.2685 16.2481 64.8828 16.285 65.8779 16.285C67.9543 16.3341 68.7037 17.1696 68.8143 18.3859C68.8635 19.1353 68.4826 19.7128 67.684 19.9339C68.3966 20.1919 68.974 20.4008 68.8635 21.7031C68.7774 22.5509 68.5563 22.858 68.8143 22.8089C68.802 22.8703 68.7897 22.944 68.7775 23.0054C68.0157 23.1037 67.4997 23.0915 66.7994 23.1283C66.7503 22.9809 66.738 22.6614 66.7625 22.0471C66.7871 21.138 66.6397 20.708 65.5831 20.708H64.8828ZM64.8828 19.3196H65.7674C66.4677 19.3196 66.8363 19.1476 66.8363 18.6685C66.824 18.177 66.4431 17.9313 65.9394 17.9313C65.5954 17.9313 65.2514 17.9313 64.9073 17.9436C64.8951 18.3982 64.8828 18.8528 64.8828 19.3196Z" fill="#000022"/>
<path fill-rule="evenodd" clip-rule="evenodd" d="M64.8828 20.708C64.8951 21.5188 64.9073 22.342 64.9442 23.1406C64.1947 23.1652 63.691 23.116 63.089 23.0177C62.4133 20.8922 62.5976 18.4719 63.2733 16.4447C64.2685 16.2481 64.8828 16.285 65.8779 16.285C67.9543 16.3341 68.7037 17.1696 68.8143 18.3859C68.8635 19.1353 68.4826 19.7128 67.684 19.9339C68.3966 20.1919 68.974 20.4008 68.8635 21.7031C68.7774 22.5509 68.5563 22.858 68.8143 22.8089C68.802 22.8703 68.7897 22.944 68.7775 23.0054C68.0157 23.1037 67.4997 23.0915 66.7994 23.1283C66.7503 22.9809 66.738 22.6614 66.7625 22.0471C66.7871 21.138 66.6397 20.708 65.5831 20.708H64.8828ZM64.8828 19.3196H65.7674C66.4677 19.3196 66.8363 19.1476 66.8363 18.6685C66.824 18.177 66.4431 17.9313 65.9394 17.9313C65.5954 17.9313 65.2514 17.9313 64.9073 17.9436C64.8951 18.3982 64.8828 18.8528 64.8828 19.3196Z" stroke="#231815" stroke-width="0.22934"/>
<path d="M73.1636 21.7045C72.7213 20.2548 72.8073 18.9893 73.1636 17.6379C73.5322 17.6133 73.9131 17.601 74.2817 17.5887C74.81 17.5641 75.154 17.7853 75.0557 18.6453C75.0188 19.0876 74.8345 19.407 74.6748 19.5791C74.9451 19.7019 75.0925 20.1074 75.1294 20.5742C75.2031 21.5448 74.9082 21.8643 74.3062 21.8028C73.9131 21.7783 73.5445 21.7414 73.1636 21.7045ZM73.6919 18.5716C73.6551 18.805 73.6182 19.0385 73.6059 19.2719H73.9499C74.1219 19.2719 74.2448 19.149 74.2694 18.9033C74.3062 18.5716 74.1588 18.5716 73.9745 18.5716H73.6919ZM73.5936 20.0214C73.6059 20.2794 73.6305 20.5374 73.6796 20.7954C73.7902 20.8077 73.9131 20.8077 74.0359 20.8199C74.2325 20.8322 74.3799 20.7708 74.3431 20.4514C74.3185 20.0828 74.1219 20.0459 73.8639 20.0336C73.7779 20.0336 73.6919 20.0336 73.5936 20.0214Z" fill="#FCF8FA"/>
<path d="M75.2891 21.729C75.3136 20.3653 75.7928 18.9647 76.358 17.564C76.6897 17.564 77.0214 17.5518 77.3408 17.5518C77.6111 18.9524 78.0903 20.3653 78.4097 21.7659H77.4391C77.39 21.5816 77.3408 21.3973 77.2917 21.213C76.96 21.213 76.616 21.213 76.2842 21.2007C76.2597 21.385 76.2474 21.5693 76.2474 21.7536C75.9279 21.7536 75.6085 21.7413 75.2891 21.729ZM76.7388 18.8295C76.616 19.3332 76.4931 19.837 76.4071 20.3407H77.0705C76.9477 19.837 76.8371 19.3332 76.7388 18.8295Z" fill="#FCF8FA"/>
<path d="M78.7285 21.7907C78.8022 20.3901 78.8022 18.9895 78.7285 17.5889C79.0234 17.5889 79.3305 17.6012 79.6254 17.6012C79.7605 18.67 79.7974 19.7389 79.7237 20.8078C80.166 20.8078 80.596 20.7955 81.0383 20.7955C81.0014 21.115 80.94 21.4344 80.8663 21.7538C80.1537 21.7784 79.4411 21.7907 78.7285 21.7907Z" fill="#FCF8FA"/>
<path d="M81.126 21.7295C81.4208 20.3289 81.4331 19.0266 81.1383 17.626C81.3717 17.6383 81.6543 17.6628 81.8754 17.6874C82.1703 18.744 82.1703 19.6777 82.0106 20.7221C82.3423 20.7098 82.6249 20.7343 82.9566 20.7221C82.8952 21.0292 82.7477 21.3364 82.6372 21.6435C82.0966 21.6927 81.6666 21.7049 81.126 21.7295Z" fill="#FCF8FA"/>
<defs>
<filter id="filter0_d_718_2704" x="-4.88508" y="0.336191" width="102.77" height="45.7702" filterUnits="userSpaceOnUse" color-interpolation-filters="sRGB">
<feFlood flood-opacity="0" result="BackgroundImageFix"/>
<feColorMatrix in="SourceAlpha" type="matrix" values="0 0 0 0 0 0 0 0 0 0 0 0 0 0 0 0 0 0 127 0" result="hardAlpha"/>
<feOffset dy="1.22127"/>
<feGaussianBlur stdDeviation="2.44254"/>
<feComposite in2="hardAlpha" operator="out"/>
<feColorMatrix type="matrix" values="0 0 0 0 0 0 0 0 0 0 0 0 0 0 0 0 0 0 0.25 0"/>
<feBlend mode="normal" in2="BackgroundImageFix" result="effect1_dropShadow_718_2704"/>
<feBlend mode="normal" in="SourceGraphic" in2="effect1_dropShadow_718_2704" result="shape"/>
</filter>
</defs>
</svg>
