<svg width="132" height="44" viewBox="0 0 132 44" fill="none" xmlns="http://www.w3.org/2000/svg">
<g filter="url(#filter0_d_17_7259)">
<rect x="4" y="3" width="124" height="36" rx="16" fill="#E88F77"/>
<rect x="4.5" y="3.5" width="123" height="35" rx="15.5" stroke="#333333"/>
</g>
<path d="M45.5267 26.2002V16.4002H49.0547C49.8387 16.4002 50.4874 16.5355 51.0007 16.8062C51.514 17.0675 51.8967 17.4222 52.1487 17.8702C52.4007 18.3182 52.5267 18.8315 52.5267 19.4102C52.5267 19.9515 52.4054 20.4509 52.1627 20.9082C51.92 21.3562 51.542 21.7202 51.0287 22.0002C50.5154 22.2709 49.8574 22.4062 49.0547 22.4062H47.2067V26.2002H45.5267ZM47.2067 21.0342H48.9567C49.6194 21.0342 50.0954 20.8895 50.3847 20.6002C50.674 20.3015 50.8187 19.9049 50.8187 19.4102C50.8187 18.8969 50.674 18.4955 50.3847 18.2062C50.0954 17.9169 49.6194 17.7722 48.9567 17.7722H47.2067V21.0342ZM53.9759 26.2002V16.4002H57.4899C58.2646 16.4002 58.9039 16.5355 59.4079 16.8062C59.9213 17.0675 60.2993 17.4222 60.5419 17.8702C60.7939 18.3089 60.9199 18.8082 60.9199 19.3682C60.9199 19.8909 60.7986 20.3762 60.5559 20.8242C60.3133 21.2722 59.9353 21.6315 59.4219 21.9022C58.9086 22.1729 58.2506 22.3082 57.4479 22.3082H55.6559V26.2002H53.9759ZM59.0859 26.2002L57.0279 21.8742H58.8479L61.0039 26.2002H59.0859ZM55.6559 21.0622H57.3779C58.0033 21.0622 58.4606 20.9129 58.7499 20.6142C59.0486 20.3062 59.1979 19.9049 59.1979 19.4102C59.1979 18.9249 59.0533 18.5375 58.7639 18.2482C58.4746 17.9495 58.0126 17.8002 57.3779 17.8002H55.6559V21.0622ZM62.6576 26.2002V16.4002H64.3376V26.2002H62.6576ZM66.308 26.2002V16.4002H68.296L71.432 22.7282L74.54 16.4002H76.542V26.2002H74.862V19.2842L72.09 24.8282H70.774L67.988 19.2982V26.2002H66.308ZM78.5306 26.2002V16.4002H84.8586V17.7582H80.2106V20.5722H84.4386V21.9022H80.2106V24.8422H84.8586V26.2002H78.5306Z" fill="#333333"/>
<defs>
<filter id="filter0_d_17_7259" x="0.626664" y="0.469998" width="130.747" height="42.7467" filterUnits="userSpaceOnUse" color-interpolation-filters="sRGB">
<feFlood flood-opacity="0" result="BackgroundImageFix"/>
<feColorMatrix in="SourceAlpha" type="matrix" values="0 0 0 0 0 0 0 0 0 0 0 0 0 0 0 0 0 0 127 0" result="hardAlpha"/>
<feOffset dy="0.843334"/>
<feGaussianBlur stdDeviation="1.68667"/>
<feComposite in2="hardAlpha" operator="out"/>
<feColorMatrix type="matrix" values="0 0 0 0 0 0 0 0 0 0 0 0 0 0 0 0 0 0 0.25 0"/>
<feBlend mode="normal" in2="BackgroundImageFix" result="effect1_dropShadow_17_7259"/>
<feBlend mode="normal" in="SourceGraphic" in2="effect1_dropShadow_17_7259" result="shape"/>
</filter>
</defs>
</svg>
