<svg width="132" height="44" viewBox="0 0 132 44" fill="none" xmlns="http://www.w3.org/2000/svg">
<g filter="url(#filter0_d_17_7277)">
<rect x="4" y="3" width="124" height="36" rx="16" fill="#FF8903"/>
<rect x="4.5" y="3.5" width="123" height="35" rx="15.5" stroke="#333333"/>
</g>
<path d="M32.3104 26V16.2H35.8244C36.5991 16.2 37.2384 16.3353 37.7424 16.606C38.2557 16.8673 38.6337 17.222 38.8764 17.67C39.1284 18.1087 39.2544 18.608 39.2544 19.168C39.2544 19.6907 39.1331 20.176 38.8904 20.624C38.6477 21.072 38.2697 21.4313 37.7564 21.702C37.2431 21.9727 36.5851 22.108 35.7824 22.108H33.9904V26H32.3104ZM37.4204 26L35.3624 21.674H37.1824L39.3384 26H37.4204ZM33.9904 20.862H35.7124C36.3377 20.862 36.7951 20.7127 37.0844 20.414C37.3831 20.106 37.5324 19.7047 37.5324 19.21C37.5324 18.7247 37.3877 18.3373 37.0984 18.048C36.8091 17.7493 36.3471 17.6 35.7124 17.6H33.9904V20.862ZM40.992 26V16.2H47.32V17.558H42.672V20.372H46.9V21.702H42.672V24.642H47.32V26H40.992ZM49.0858 26V16.2H52.6138C53.3978 16.2 54.0465 16.3353 54.5598 16.606C55.0731 16.8673 55.4558 17.222 55.7078 17.67C55.9598 18.118 56.0858 18.6313 56.0858 19.21C56.0858 19.7513 55.9645 20.2507 55.7218 20.708C55.4791 21.156 55.1011 21.52 54.5878 21.8C54.0745 22.0707 53.4165 22.206 52.6138 22.206H50.7658V26H49.0858ZM50.7658 20.834H52.5158C53.1785 20.834 53.6545 20.6893 53.9438 20.4C54.2331 20.1013 54.3778 19.7047 54.3778 19.21C54.3778 18.6967 54.2331 18.2953 53.9438 18.006C53.6545 17.7167 53.1785 17.572 52.5158 17.572H50.7658V20.834ZM57.535 26V16.2H63.863V17.558H59.215V20.372H63.443V21.702H59.215V24.642H63.863V26H57.535ZM64.9848 26L68.5688 16.2H70.4448L74.0288 26H72.2508L69.4928 18.16L66.7348 26H64.9848ZM66.5808 23.69L67.0288 22.36H71.8588L72.3068 23.69H66.5808ZM76.6061 26V17.558H73.7221V16.2H81.1561V17.558H78.2721V26H76.6061ZM82.5409 26V16.2H88.8689V17.558H84.2209V20.372H88.4489V21.702H84.2209V24.642H88.8689V26H82.5409ZM90.6346 26V16.2H93.7986C94.9373 16.2 95.8753 16.4007 96.6126 16.802C97.3593 17.2033 97.91 17.7727 98.2646 18.51C98.6286 19.238 98.8106 20.106 98.8106 21.114C98.8106 22.1033 98.6286 22.9667 98.2646 23.704C97.91 24.432 97.3593 24.9967 96.6126 25.398C95.8753 25.7993 94.9373 26 93.7986 26H90.6346ZM92.3146 24.572H93.7146C94.564 24.572 95.2313 24.4367 95.7166 24.166C96.2113 23.886 96.5613 23.4893 96.7666 22.976C96.9813 22.4533 97.0886 21.8327 97.0886 21.114C97.0886 20.386 96.9813 19.7653 96.7666 19.252C96.5613 18.7293 96.2113 18.328 95.7166 18.048C95.2313 17.7587 94.564 17.614 93.7146 17.614H92.3146V24.572Z" fill="#333333"/>
<defs>
<filter id="filter0_d_17_7277" x="0.626664" y="0.469998" width="130.747" height="42.7467" filterUnits="userSpaceOnUse" color-interpolation-filters="sRGB">
<feFlood flood-opacity="0" result="BackgroundImageFix"/>
<feColorMatrix in="SourceAlpha" type="matrix" values="0 0 0 0 0 0 0 0 0 0 0 0 0 0 0 0 0 0 127 0" result="hardAlpha"/>
<feOffset dy="0.843334"/>
<feGaussianBlur stdDeviation="1.68667"/>
<feComposite in2="hardAlpha" operator="out"/>
<feColorMatrix type="matrix" values="0 0 0 0 0 0 0 0 0 0 0 0 0 0 0 0 0 0 0.25 0"/>
<feBlend mode="normal" in2="BackgroundImageFix" result="effect1_dropShadow_17_7277"/>
<feBlend mode="normal" in="SourceGraphic" in2="effect1_dropShadow_17_7277" result="shape"/>
</filter>
</defs>
</svg>
