<svg width="132" height="44" viewBox="0 0 132 44" fill="none" xmlns="http://www.w3.org/2000/svg">
<g filter="url(#filter0_d_17_7235)">
<rect x="4" y="3" width="124" height="36" rx="16" fill="black"/>
<rect x="4.5" y="3.5" width="123" height="35" rx="15.5" stroke="#333333"/>
</g>
<path d="M33.4373 26.168C32.728 26.168 32.098 26.042 31.5473 25.79C30.9967 25.538 30.5673 25.1787 30.2593 24.712C29.9513 24.2453 29.7927 23.69 29.7833 23.046H31.5613C31.5613 23.3727 31.636 23.6667 31.7853 23.928C31.944 24.18 32.1587 24.3807 32.4293 24.53C32.7093 24.6793 33.0453 24.754 33.4373 24.754C33.7733 24.754 34.0627 24.7027 34.3053 24.6C34.5573 24.488 34.7487 24.334 34.8793 24.138C35.0193 23.9327 35.0893 23.6947 35.0893 23.424C35.0893 23.116 35.0147 22.864 34.8653 22.668C34.7253 22.4627 34.5293 22.29 34.2773 22.15C34.0253 22.01 33.736 21.8887 33.4093 21.786C33.0827 21.674 32.7373 21.5573 32.3733 21.436C31.5987 21.1747 31.0153 20.8433 30.6233 20.442C30.2313 20.0313 30.0353 19.4853 30.0353 18.804C30.0353 18.2347 30.1707 17.7447 30.4413 17.334C30.712 16.9233 31.09 16.606 31.5753 16.382C32.07 16.1487 32.6393 16.032 33.2833 16.032C33.9367 16.032 34.506 16.1487 34.9913 16.382C35.486 16.6153 35.8733 16.942 36.1533 17.362C36.4427 17.7727 36.592 18.2673 36.6013 18.846H34.8093C34.8 18.6033 34.7347 18.3793 34.6133 18.174C34.492 17.9593 34.3147 17.7867 34.0813 17.656C33.8573 17.516 33.582 17.446 33.2553 17.446C32.9753 17.4367 32.7233 17.4833 32.4993 17.586C32.2847 17.6793 32.112 17.8193 31.9813 18.006C31.86 18.1833 31.7993 18.4073 31.7993 18.678C31.7993 18.9393 31.8553 19.1587 31.9673 19.336C32.0887 19.504 32.2613 19.6487 32.4853 19.77C32.7093 19.882 32.9707 19.9893 33.2693 20.092C33.568 20.1947 33.8947 20.3067 34.2493 20.428C34.7347 20.5867 35.1733 20.7827 35.5653 21.016C35.9667 21.24 36.284 21.534 36.5173 21.898C36.7507 22.262 36.8673 22.7333 36.8673 23.312C36.8673 23.816 36.7367 24.2873 36.4753 24.726C36.214 25.1553 35.8313 25.5053 35.3273 25.776C34.8233 26.0373 34.1933 26.168 33.4373 26.168ZM38.5008 26V16.2H44.8288V17.558H40.1808V20.372H44.4088V21.702H40.1808V24.642H44.8288V26H38.5008ZM53.4686 27.47L49.9826 22.01H51.9146L55.4566 27.47H53.4686ZM51.0606 26.168C50.1179 26.168 49.2826 25.958 48.5546 25.538C47.8359 25.1087 47.2713 24.516 46.8606 23.76C46.4499 22.9947 46.2446 22.108 46.2446 21.1C46.2446 20.1013 46.4499 19.224 46.8606 18.468C47.2713 17.7027 47.8359 17.1053 48.5546 16.676C49.2826 16.2467 50.1179 16.032 51.0606 16.032C52.0219 16.032 52.8666 16.2467 53.5946 16.676C54.3226 17.1053 54.8873 17.7027 55.2886 18.468C55.6899 19.224 55.8906 20.1013 55.8906 21.1C55.8906 22.108 55.6899 22.9947 55.2886 23.76C54.8873 24.516 54.3226 25.1087 53.5946 25.538C52.8666 25.958 52.0219 26.168 51.0606 26.168ZM51.0746 24.656C51.6999 24.656 52.2459 24.516 52.7126 24.236C53.1793 23.9467 53.5386 23.536 53.7906 23.004C54.0426 22.472 54.1686 21.8373 54.1686 21.1C54.1686 20.3627 54.0426 19.728 53.7906 19.196C53.5386 18.664 53.1793 18.258 52.7126 17.978C52.2459 17.6887 51.6999 17.544 51.0746 17.544C50.4493 17.544 49.9033 17.6887 49.4366 17.978C48.9699 18.258 48.6059 18.664 48.3446 19.196C48.0926 19.728 47.9666 20.3627 47.9666 21.1C47.9666 21.8373 48.0926 22.472 48.3446 23.004C48.6059 23.536 48.9699 23.9467 49.4366 24.236C49.9033 24.516 50.4493 24.656 51.0746 24.656ZM61.2421 26.168C60.5328 26.168 59.8888 26.028 59.3101 25.748C58.7408 25.468 58.2834 25.0387 57.9381 24.46C57.6021 23.8813 57.4341 23.1533 57.4341 22.276V16.2H59.1141V22.29C59.1141 22.822 59.2028 23.2607 59.3801 23.606C59.5574 23.9513 59.8048 24.2127 60.1221 24.39C60.4488 24.558 60.8314 24.642 61.2701 24.642C61.7181 24.642 62.1008 24.558 62.4181 24.39C62.7448 24.2127 62.9921 23.9513 63.1601 23.606C63.3374 23.2607 63.4261 22.822 63.4261 22.29V16.2H65.1061V22.276C65.1061 23.1533 64.9334 23.8813 64.5881 24.46C64.2428 25.0387 63.7761 25.468 63.1881 25.748C62.6001 26.028 61.9514 26.168 61.2421 26.168ZM66.993 26V16.2H73.321V17.558H68.673V20.372H72.901V21.702H68.673V24.642H73.321V26H66.993ZM75.0868 26V16.2H76.7668L81.4848 23.284V16.2H83.1648V26H81.4848L76.7668 18.93V26H75.0868ZM89.4896 26.168C88.5189 26.168 87.6789 25.958 86.9696 25.538C86.2696 25.1087 85.7283 24.516 85.3456 23.76C84.9723 22.9947 84.7856 22.1127 84.7856 21.114C84.7856 20.106 84.9723 19.224 85.3456 18.468C85.7283 17.7027 86.2696 17.1053 86.9696 16.676C87.6789 16.2467 88.5189 16.032 89.4896 16.032C90.6563 16.032 91.6083 16.3213 92.3456 16.9C93.0829 17.4693 93.5496 18.2767 93.7456 19.322H91.8976C91.7669 18.7713 91.5009 18.3373 91.0996 18.02C90.6983 17.7027 90.1569 17.544 89.4756 17.544C88.8596 17.544 88.3276 17.6887 87.8796 17.978C87.4409 18.258 87.1003 18.6687 86.8576 19.21C86.6243 19.742 86.5076 20.3767 86.5076 21.114C86.5076 21.8513 86.6243 22.486 86.8576 23.018C87.1003 23.5407 87.4409 23.9467 87.8796 24.236C88.3276 24.516 88.8596 24.656 89.4756 24.656C90.1569 24.656 90.6983 24.5113 91.0996 24.222C91.5009 23.9233 91.7669 23.5127 91.8976 22.99H93.7456C93.5589 23.9793 93.0923 24.7587 92.3456 25.328C91.6083 25.888 90.6563 26.168 89.4896 26.168ZM95.3895 26V16.2H101.718V17.558H97.0695V20.372H101.298V21.702H97.0695V24.642H101.718V26H95.3895Z" fill="white"/>
<defs>
<filter id="filter0_d_17_7235" x="0.626664" y="0.469998" width="130.747" height="42.7467" filterUnits="userSpaceOnUse" color-interpolation-filters="sRGB">
<feFlood flood-opacity="0" result="BackgroundImageFix"/>
<feColorMatrix in="SourceAlpha" type="matrix" values="0 0 0 0 0 0 0 0 0 0 0 0 0 0 0 0 0 0 127 0" result="hardAlpha"/>
<feOffset dy="0.843334"/>
<feGaussianBlur stdDeviation="1.68667"/>
<feComposite in2="hardAlpha" operator="out"/>
<feColorMatrix type="matrix" values="0 0 0 0 0 0 0 0 0 0 0 0 0 0 0 0 0 0 0.25 0"/>
<feBlend mode="normal" in2="BackgroundImageFix" result="effect1_dropShadow_17_7235"/>
<feBlend mode="normal" in="SourceGraphic" in2="effect1_dropShadow_17_7235" result="shape"/>
</filter>
</defs>
</svg>
