<svg width="132" height="44" viewBox="0 0 132 44" fill="none" xmlns="http://www.w3.org/2000/svg">
<g filter="url(#filter0_d_17_7241)">
<rect x="4" y="3" width="124" height="36" rx="16" fill="#D9D9D9"/>
<rect x="4.5" y="3.5" width="123" height="35" rx="15.5" stroke="#333333"/>
</g>
<path d="M54.284 26.168C53.5747 26.168 52.9447 26.042 52.394 25.79C51.8433 25.538 51.414 25.1787 51.106 24.712C50.798 24.2453 50.6393 23.69 50.63 23.046H52.408C52.408 23.3727 52.4827 23.6667 52.632 23.928C52.7907 24.18 53.0053 24.3807 53.276 24.53C53.556 24.6793 53.892 24.754 54.284 24.754C54.62 24.754 54.9093 24.7027 55.152 24.6C55.404 24.488 55.5953 24.334 55.726 24.138C55.866 23.9327 55.936 23.6947 55.936 23.424C55.936 23.116 55.8613 22.864 55.712 22.668C55.572 22.4627 55.376 22.29 55.124 22.15C54.872 22.01 54.5827 21.8887 54.256 21.786C53.9293 21.674 53.584 21.5573 53.22 21.436C52.4453 21.1747 51.862 20.8433 51.47 20.442C51.078 20.0313 50.882 19.4853 50.882 18.804C50.882 18.2347 51.0173 17.7447 51.288 17.334C51.5587 16.9233 51.9367 16.606 52.422 16.382C52.9167 16.1487 53.486 16.032 54.13 16.032C54.7833 16.032 55.3527 16.1487 55.838 16.382C56.3327 16.6153 56.72 16.942 57 17.362C57.2893 17.7727 57.4387 18.2673 57.448 18.846H55.656C55.6467 18.6033 55.5813 18.3793 55.46 18.174C55.3387 17.9593 55.1613 17.7867 54.928 17.656C54.704 17.516 54.4287 17.446 54.102 17.446C53.822 17.4367 53.57 17.4833 53.346 17.586C53.1313 17.6793 52.9587 17.8193 52.828 18.006C52.7067 18.1833 52.646 18.4073 52.646 18.678C52.646 18.9393 52.702 19.1587 52.814 19.336C52.9353 19.504 53.108 19.6487 53.332 19.77C53.556 19.882 53.8173 19.9893 54.116 20.092C54.4147 20.1947 54.7413 20.3067 55.096 20.428C55.5813 20.5867 56.02 20.7827 56.412 21.016C56.8133 21.24 57.1307 21.534 57.364 21.898C57.5973 22.262 57.714 22.7333 57.714 23.312C57.714 23.816 57.5833 24.2873 57.322 24.726C57.0607 25.1553 56.678 25.5053 56.174 25.776C55.67 26.0373 55.04 26.168 54.284 26.168ZM63.0575 26.168C62.3482 26.168 61.7042 26.028 61.1255 25.748C60.5562 25.468 60.0988 25.0387 59.7535 24.46C59.4175 23.8813 59.2495 23.1533 59.2495 22.276V16.2H60.9295V22.29C60.9295 22.822 61.0182 23.2607 61.1955 23.606C61.3728 23.9513 61.6202 24.2127 61.9375 24.39C62.2642 24.558 62.6468 24.642 63.0855 24.642C63.5335 24.642 63.9162 24.558 64.2335 24.39C64.5602 24.2127 64.8075 23.9513 64.9755 23.606C65.1528 23.2607 65.2415 22.822 65.2415 22.29V16.2H66.9215V22.276C66.9215 23.1533 66.7488 23.8813 66.4035 24.46C66.0582 25.0387 65.5915 25.468 65.0035 25.748C64.4155 26.028 63.7668 26.168 63.0575 26.168ZM68.8085 26V16.2H70.7965L73.9325 22.528L77.0405 16.2H79.0425V26H77.3625V19.084L74.5905 24.628H73.2745L70.4885 19.098V26H68.8085Z" fill="#333333"/>
<defs>
<filter id="filter0_d_17_7241" x="0.626664" y="0.469998" width="130.747" height="42.7467" filterUnits="userSpaceOnUse" color-interpolation-filters="sRGB">
<feFlood flood-opacity="0" result="BackgroundImageFix"/>
<feColorMatrix in="SourceAlpha" type="matrix" values="0 0 0 0 0 0 0 0 0 0 0 0 0 0 0 0 0 0 127 0" result="hardAlpha"/>
<feOffset dy="0.843334"/>
<feGaussianBlur stdDeviation="1.68667"/>
<feComposite in2="hardAlpha" operator="out"/>
<feColorMatrix type="matrix" values="0 0 0 0 0 0 0 0 0 0 0 0 0 0 0 0 0 0 0.25 0"/>
<feBlend mode="normal" in2="BackgroundImageFix" result="effect1_dropShadow_17_7241"/>
<feBlend mode="normal" in="SourceGraphic" in2="effect1_dropShadow_17_7241" result="shape"/>
</filter>
</defs>
</svg>
