<svg width="103" height="47" viewBox="0 0 103 47" fill="none" xmlns="http://www.w3.org/2000/svg">
<g filter="url(#filter0_d_718_2699)">
<rect x="5" y="4" width="93" height="36" rx="18" fill="#FEFFFF"/>
</g>
<path d="M59.2747 26.8917H22L26.4081 10.6035H63.6833L59.2747 26.8908V26.8917Z" fill="#00928F"/>
<path d="M60.8352 34.4865H23.5605L27.9686 18.1982H65.2438L60.8352 34.4855V34.4865Z" fill="#00928F"/>
<path d="M75.2293 28.6672H57.0654L62.3596 9H80.5235L75.2293 28.6672Z" fill="#CA3092"/>
<path d="M68.3645 24.9522C66.2721 24.9683 64.2184 24.4685 62.4492 23.5125L64.0133 21.0589C65.339 21.7352 66.9793 22.2354 68.4656 22.2354C70.2456 22.2354 70.8993 21.6767 70.8993 20.7287C70.8993 19.8153 70.2268 19.3425 69.0414 19.3425C68.1246 19.3089 67.2224 19.548 66.4885 20.0193L63.2034 19.0718L63.676 12.9209H73.7686V15.598H66.7816L66.6624 17.236C67.4331 16.9143 68.2685 16.7122 69.6443 16.7122C72.6257 16.7122 74.5896 17.9987 74.5896 20.6352C74.5968 23.3968 72.3005 24.9522 68.3645 24.9522Z" fill="white"/>
<path d="M29.8356 16.7085V22.8339H27.2186V16.708H24.5762V14.7588H32.4802V16.7085H29.8356ZM38.8201 22.8339L38.3083 21.4137H35.4737L34.9619 22.8321H32.1572L35.5836 14.7588H38.226L41.653 22.8339H38.8201ZM37.4989 19.1074C37.1621 18.0697 37.013 17.6281 36.891 17.0887C36.7695 17.6305 36.6205 18.0815 36.2837 19.1074L36.1087 19.6364H37.6733L37.4989 19.1074ZM48.0591 22.8339L45.674 20.0723V22.8339H43.0018V14.7588H45.674V15.7044C45.674 16.3845 45.6596 16.973 45.6326 17.5615C46.0246 17.0301 48.1557 14.7588 48.1557 14.7588H51.3988L47.7726 18.6818L51.7224 22.8396L48.0591 22.8339ZM52.9033 22.8339V14.7588H61.1607V16.648H55.4883V17.7202H58.2798V19.5703H55.4883V20.9626H60.2227V22.8439L52.9033 22.8339Z" fill="white"/>
<path d="M26.822 31.6299L27.7896 26.1676H29.0459L30.115 29.5776L32.3623 26.1676H33.6264L32.6588 31.6299H31.6054L32.2531 27.9624L30.3023 30.8652H29.4673L28.5231 27.9624L27.8755 31.6299H26.822ZM33.7491 31.6299L34.4436 27.6971H35.497L34.8025 31.6299H33.7491ZM35.1693 27.1821C34.9768 27.1821 34.8207 27.1248 34.7011 27.0104C34.5814 26.8907 34.5216 26.7477 34.5216 26.5812C34.5216 26.4043 34.5814 26.2587 34.7011 26.1442C34.8207 26.0298 34.9768 25.9726 35.1693 25.9726C35.3617 25.9726 35.5178 26.0298 35.6374 26.1442C35.7623 26.2587 35.8247 26.4043 35.8247 26.5812C35.8247 26.7477 35.7623 26.8907 35.6374 27.0104C35.5126 27.1248 35.3565 27.1821 35.1693 27.1821ZM37.5833 31.7235C37.2608 31.7235 36.9825 31.6455 36.7484 31.4894C36.5195 31.3282 36.3452 31.1123 36.2255 30.8418C36.1111 30.566 36.0617 30.2565 36.0773 29.9132C36.0929 29.5802 36.1579 29.2759 36.2724 29.0002C36.392 28.7193 36.5507 28.4748 36.7484 28.2667C36.9512 28.0586 37.1827 27.8974 37.4428 27.7829C37.703 27.6633 37.9839 27.6034 38.2856 27.6034C38.5925 27.6034 38.8422 27.6607 39.0347 27.7751C39.2272 27.8844 39.3702 28.0274 39.4639 28.2043L39.8462 26.0116H40.8997L39.9165 31.6299H38.9801L38.9567 31.0915C38.863 31.2007 38.7512 31.3047 38.6211 31.4036C38.4911 31.5024 38.3402 31.5805 38.1685 31.6377C37.9969 31.6949 37.8018 31.7235 37.5833 31.7235ZM38.0203 30.8027C38.244 30.8027 38.4469 30.7455 38.6289 30.6311C38.811 30.5114 38.9567 30.3528 39.0659 30.1551C39.1804 29.9574 39.2428 29.7363 39.2532 29.4918C39.2636 29.2941 39.235 29.1251 39.1674 28.9846C39.0997 28.8389 38.9983 28.7271 38.863 28.6491C38.733 28.5658 38.5743 28.5242 38.387 28.5242C38.1633 28.5242 37.9605 28.5814 37.7784 28.6959C37.6015 28.8051 37.4585 28.956 37.3492 29.1485C37.24 29.3409 37.1801 29.5594 37.1697 29.8039C37.1593 29.9964 37.1853 30.1681 37.2478 30.3189C37.3154 30.4698 37.4142 30.5895 37.5443 30.6779C37.6743 30.7611 37.833 30.8027 38.0203 30.8027ZM42.6584 31.7235C42.3359 31.7235 42.0576 31.6455 41.8235 31.4894C41.5946 31.3282 41.4203 31.1123 41.3007 30.8418C41.1862 30.566 41.1368 30.2565 41.1524 29.9132C41.168 29.5802 41.233 29.2759 41.3475 29.0002C41.4671 28.7193 41.6258 28.4748 41.8235 28.2667C42.0264 28.0586 42.2579 27.8974 42.518 27.7829C42.7781 27.6633 43.059 27.6034 43.3607 27.6034C43.6676 27.6034 43.9173 27.6607 44.1098 27.7751C44.3023 27.8844 44.4454 28.0274 44.539 28.2043L44.9214 26.0116H45.9748L44.9916 31.6299H44.0552L44.0318 31.0915C43.9381 31.2007 43.8263 31.3047 43.6963 31.4036C43.5662 31.5024 43.4153 31.5805 43.2437 31.6377C43.072 31.6949 42.8769 31.7235 42.6584 31.7235ZM43.0954 30.8027C43.3191 30.8027 43.522 30.7455 43.7041 30.6311C43.8861 30.5114 44.0318 30.3528 44.141 30.1551C44.2555 29.9574 44.3179 29.7363 44.3283 29.4918C44.3387 29.2941 44.3101 29.1251 44.2425 28.9846C44.1748 28.8389 44.0734 28.7271 43.9381 28.6491C43.8081 28.5658 43.6494 28.5242 43.4622 28.5242C43.2385 28.5242 43.0356 28.5814 42.8535 28.6959C42.6766 28.8051 42.5336 28.956 42.4243 29.1485C42.3151 29.3409 42.2553 29.5594 42.2449 29.8039C42.2345 29.9964 42.2605 30.1681 42.3229 30.3189C42.3905 30.4698 42.4894 30.5895 42.6194 30.6779C42.7495 30.7611 42.9081 30.8027 43.0954 30.8027ZM47.3356 31.7235C47.0339 31.7235 46.7894 31.6767 46.6021 31.5831C46.42 31.4842 46.2848 31.3542 46.1963 31.1929C46.1131 31.0264 46.0767 30.8444 46.0871 30.6467C46.0975 30.3762 46.1807 30.1421 46.3368 29.9444C46.4928 29.7467 46.7113 29.5932 46.9922 29.484C47.2784 29.3748 47.6113 29.3201 47.9911 29.3201H48.9586C48.9951 29.1277 48.9977 28.969 48.9665 28.8441C48.9404 28.7141 48.878 28.6179 48.7792 28.5554C48.6803 28.493 48.5399 28.4618 48.3578 28.4618C48.1653 28.4618 47.9911 28.506 47.835 28.5944C47.6841 28.6777 47.5749 28.8077 47.5073 28.9846H46.485C46.5631 28.7037 46.6983 28.4618 46.8908 28.2589C47.0833 28.0508 47.3174 27.8896 47.5931 27.7751C47.874 27.6607 48.1809 27.6034 48.5139 27.6034C48.8832 27.6034 49.1901 27.6685 49.4346 27.7985C49.6843 27.9234 49.8612 28.1028 49.9653 28.3369C50.0745 28.571 50.0979 28.8571 50.0355 29.1953L49.6063 31.6299H48.6855L48.7011 31.0368C48.6231 31.1357 48.5373 31.2293 48.4436 31.3178C48.3552 31.401 48.2538 31.4738 48.1393 31.5362C48.0249 31.5935 47.9 31.6377 47.7648 31.6689C47.6347 31.7053 47.4916 31.7235 47.3356 31.7235ZM47.7257 30.912C47.8558 30.912 47.9806 30.8886 48.1003 30.8418C48.2199 30.7897 48.3266 30.7221 48.4202 30.6389C48.5139 30.5504 48.5919 30.4516 48.6543 30.3424C48.722 30.2279 48.7714 30.1083 48.8026 29.9834V29.9678H47.9989C47.8428 29.9678 47.7075 29.9912 47.5931 30.038C47.4786 30.0796 47.3902 30.1421 47.3278 30.2253C47.2654 30.3033 47.2315 30.397 47.2263 30.5062C47.2159 30.6363 47.2576 30.7377 47.3512 30.8105C47.4448 30.8782 47.5697 30.912 47.7257 30.912ZM50.7159 33.3466L51.9566 31.3412H51.7225L50.8485 27.6971H51.98L52.5887 30.3814L54.1259 27.6971H55.2495L51.8239 33.3466H50.7159Z" fill="white"/>
<defs>
<filter id="filter0_d_718_2699" x="0.114921" y="0.336191" width="102.77" height="45.7702" filterUnits="userSpaceOnUse" color-interpolation-filters="sRGB">
<feFlood flood-opacity="0" result="BackgroundImageFix"/>
<feColorMatrix in="SourceAlpha" type="matrix" values="0 0 0 0 0 0 0 0 0 0 0 0 0 0 0 0 0 0 127 0" result="hardAlpha"/>
<feOffset dy="1.22127"/>
<feGaussianBlur stdDeviation="2.44254"/>
<feComposite in2="hardAlpha" operator="out"/>
<feColorMatrix type="matrix" values="0 0 0 0 0 0 0 0 0 0 0 0 0 0 0 0 0 0 0.25 0"/>
<feBlend mode="normal" in2="BackgroundImageFix" result="effect1_dropShadow_718_2699"/>
<feBlend mode="normal" in="SourceGraphic" in2="effect1_dropShadow_718_2699" result="shape"/>
</filter>
</defs>
</svg>
