<svg width="103" height="47" viewBox="0 0 103 47" fill="none" xmlns="http://www.w3.org/2000/svg">
<g filter="url(#filter0_d_718_2705)">
<rect x="5" y="4" width="92.6813" height="36.2036" rx="18.1018" fill="#FEFFFF"/>
</g>
<path d="M27.4339 32.2051L28.3771 26.8374H31.774L31.6283 27.6579H29.2666L29.0212 29.0842H31.1529L31.0072 29.8816H28.8755L28.6148 31.3846H30.9689L30.8232 32.2051H27.4339ZM32.7146 32.2051L31.9708 28.3404H33.052L33.5198 31.2312L35.0074 28.3404H36.0963L33.9799 32.2051H32.7146ZM37.7582 32.2971C37.4055 32.2971 37.1013 32.2255 36.8457 32.0824C36.5952 31.9393 36.4035 31.7373 36.2706 31.4766C36.1428 31.2159 36.0891 30.9117 36.1096 30.5641C36.1198 30.242 36.1837 29.943 36.3013 29.6669C36.4239 29.3858 36.5901 29.1404 36.7997 28.9308C37.0093 28.7161 37.2547 28.55 37.5358 28.4324C37.817 28.3097 38.1288 28.2483 38.4713 28.2483C38.819 28.2483 39.1155 28.3199 39.3608 28.463C39.6062 28.6062 39.7902 28.8004 39.9129 29.0458C40.0356 29.2912 40.0893 29.5749 40.074 29.897C40.074 30.0043 40.0612 30.1142 40.0356 30.2267C40.0152 30.3341 39.9922 30.4337 39.9666 30.5258H36.838L36.9454 29.897H39.0464C39.0669 29.7232 39.049 29.5775 38.9928 29.4599C38.9365 29.3372 38.8496 29.2452 38.732 29.1838C38.6196 29.1225 38.4867 29.0918 38.3333 29.0918C38.1544 29.0918 37.9831 29.1327 37.8195 29.2145C37.6611 29.2912 37.5256 29.4113 37.4131 29.5749C37.3007 29.7385 37.2214 29.9455 37.1754 30.196L37.1371 30.4184C37.1013 30.6178 37.1064 30.7967 37.1524 30.9552C37.2035 31.1085 37.293 31.2312 37.4208 31.3232C37.5486 31.4102 37.7071 31.4536 37.8962 31.4536C38.0905 31.4536 38.2566 31.4127 38.3946 31.3309C38.5327 31.2491 38.6451 31.1443 38.732 31.0165H39.7902C39.6727 31.2568 39.5116 31.4741 39.3072 31.6683C39.1078 31.8626 38.8752 32.0159 38.6094 32.1284C38.3486 32.2409 38.0649 32.2971 37.7582 32.2971ZM40.538 32.2051L41.2128 28.3404H42.1253L42.11 28.9538C42.2633 28.7391 42.4576 28.5678 42.6927 28.44C42.933 28.3122 43.2014 28.2483 43.4979 28.2483C43.8302 28.2483 44.0934 28.3199 44.2877 28.463C44.482 28.6062 44.6123 28.8056 44.6788 29.0612C44.7503 29.3168 44.7555 29.6209 44.6941 29.9737L44.2954 32.2051H43.2678L43.6436 30.0733C43.6947 29.7717 43.6717 29.5391 43.5746 29.3756C43.4774 29.2069 43.2908 29.1225 43.0148 29.1225C42.841 29.1225 42.68 29.1634 42.5317 29.2452C42.3886 29.3219 42.2633 29.4343 42.156 29.5826C42.0537 29.7308 41.9822 29.9098 41.9413 30.1194L41.5732 32.2051H40.538ZM45.3013 32.2051L45.9838 28.3404H47.019L46.3365 32.2051H45.3013ZM46.6969 27.8343C46.5078 27.8343 46.3544 27.778 46.2368 27.6656C46.1193 27.548 46.0605 27.4074 46.0605 27.2438C46.0605 27.07 46.1193 26.9269 46.2368 26.8144C46.3544 26.7019 46.5078 26.6457 46.6969 26.6457C46.8861 26.6457 47.0394 26.7019 47.157 26.8144C47.2797 26.9269 47.341 27.07 47.341 27.2438C47.341 27.4074 47.2797 27.548 47.157 27.6656C47.0343 27.778 46.881 27.8343 46.6969 27.8343ZM47.3899 32.2051L48.0647 28.3404H48.9772L48.9618 28.9538C49.1152 28.7391 49.3094 28.5678 49.5446 28.44C49.7849 28.3122 50.0532 28.2483 50.3497 28.2483C50.682 28.2483 50.9453 28.3199 51.1396 28.463C51.3338 28.6062 51.4642 28.8056 51.5306 29.0612C51.6022 29.3168 51.6073 29.6209 51.546 29.9737L51.1472 32.2051H50.1197L50.4954 30.0733C50.5466 29.7717 50.5236 29.5391 50.4264 29.3756C50.3293 29.2069 50.1427 29.1225 49.8667 29.1225C49.6928 29.1225 49.5318 29.1634 49.3836 29.2452C49.2404 29.3219 49.1152 29.4343 49.0078 29.5826C48.9056 29.7308 48.834 29.9098 48.7931 30.1194L48.4251 32.2051H47.3899ZM53.3647 33.9841C53.0222 33.9841 52.7257 33.9432 52.4752 33.8614C52.2248 33.7796 52.0356 33.6569 51.9078 33.4933C51.7749 33.3297 51.7135 33.1252 51.7238 32.8799C51.734 32.6703 51.7979 32.4786 51.9155 32.3048C52.0279 32.131 52.189 31.975 52.3986 31.837C52.6082 31.699 52.8561 31.5789 53.1424 31.4766L53.4491 31.9904C53.1833 32.0722 52.9916 32.1744 52.874 32.2971C52.7564 32.4249 52.6951 32.5604 52.69 32.7035C52.6848 32.8109 52.713 32.9029 52.7743 32.9796C52.8408 33.0562 52.9353 33.1125 53.058 33.1483C53.1858 33.184 53.329 33.2019 53.4874 33.2019C53.743 33.2019 53.9577 33.1534 54.1316 33.0562C54.3054 32.9591 54.3948 32.8134 54.3999 32.6192C54.4102 32.4965 54.3718 32.3942 54.2849 32.3124C54.198 32.2306 54.0216 32.1795 53.7558 32.1591C53.5207 32.1437 53.306 32.1182 53.1117 32.0824C52.9225 32.0415 52.7539 31.9955 52.6056 31.9444C52.4625 31.8881 52.3398 31.8268 52.2375 31.7603C52.1404 31.6939 52.0612 31.6249 51.9998 31.5533L52.0305 31.3769L52.989 30.5181L53.6791 30.7558L52.5596 31.699L52.943 31.1699C52.9941 31.2057 53.0478 31.2389 53.104 31.2696C53.1654 31.3002 53.2344 31.3284 53.3111 31.3539C53.3929 31.3744 53.4925 31.3948 53.6101 31.4153C53.7277 31.4357 53.8734 31.4536 54.0472 31.4689C54.3693 31.4945 54.6274 31.5533 54.8217 31.6453C55.0211 31.7322 55.1642 31.8498 55.2511 31.998C55.338 32.1463 55.3738 32.3252 55.3584 32.5348C55.3482 32.8109 55.2588 33.0588 55.0901 33.2786C54.9265 33.4984 54.6964 33.6697 54.3999 33.7924C54.1034 33.9202 53.7584 33.9841 53.3647 33.9841ZM53.8632 31.0625C53.5718 31.0625 53.3238 31.0114 53.1194 30.9092C52.92 30.8018 52.7692 30.6561 52.6669 30.4721C52.5698 30.2881 52.5264 30.081 52.5366 29.851C52.5519 29.5494 52.6388 29.2784 52.7973 29.0382C52.9609 28.7979 53.1782 28.6062 53.4491 28.463C53.7251 28.3199 54.0293 28.2483 54.3616 28.2483C54.6581 28.2483 54.906 28.3046 55.1054 28.417C55.3099 28.5244 55.4607 28.6701 55.5578 28.8541C55.6549 29.033 55.6958 29.2375 55.6805 29.4676C55.6703 29.7641 55.5834 30.035 55.4198 30.2804C55.2613 30.5207 55.0466 30.7124 54.7757 30.8555C54.5047 30.9935 54.2006 31.0625 53.8632 31.0625ZM54.0012 30.2804C54.2261 30.2804 54.4127 30.2165 54.561 30.0887C54.7092 29.9558 54.7885 29.782 54.7987 29.5673C54.8089 29.3934 54.7603 29.2631 54.653 29.1762C54.5507 29.0893 54.4076 29.0458 54.2236 29.0458C53.9986 29.0458 53.8095 29.1123 53.6561 29.2452C53.5079 29.373 53.4286 29.5442 53.4184 29.759C53.4082 29.9277 53.4568 30.058 53.5641 30.15C53.6766 30.2369 53.8223 30.2804 54.0012 30.2804ZM54.86 29.0688L54.814 28.3404H56.409L56.294 28.9615L54.86 29.0688Z" fill="white"/>
<a href="https://www.figma.com/design/lrxtUHdUZQgSX2DoIJxUZ2?node-id=28-2728">
<rect fill="black" fill-opacity="0" y="-2.67118" width="29.0594" height="9.98386"/>
</a>
<path d="M59.2747 26.8917H22L26.4081 10.6035H63.6833L59.2747 26.8908V26.8917Z" fill="#00928F"/>
<path d="M60.8352 34.4865H23.5605L27.9686 18.1982H65.2438L60.8352 34.4855V34.4865Z" fill="#00928F"/>
<path d="M75.2293 28.6672H57.0654L62.3596 9H80.5235L75.2293 28.6672Z" fill="#CA3092"/>
<path d="M68.3655 24.9522C66.273 24.9683 64.2194 24.4685 62.4502 23.5125L64.0143 21.0589C65.3399 21.7352 66.9803 22.2354 68.4666 22.2354C70.2466 22.2354 70.9003 21.6767 70.9003 20.7287C70.9003 19.8153 70.2278 19.3425 69.0424 19.3425C68.1255 19.3089 67.2234 19.548 66.4894 20.0193L63.2044 19.0718L63.677 12.9209H73.7696V15.598H66.7826L66.6634 17.236C67.4341 16.9143 68.2694 16.7122 69.6453 16.7122C72.6267 16.7122 74.5906 17.9987 74.5906 20.6352C74.5977 23.3968 72.3015 24.9522 68.3655 24.9522Z" fill="white"/>
<path d="M29.8356 16.7085V22.8339H27.2186V16.708H24.5762V14.7588H32.4802V16.7085H29.8356ZM38.8201 22.8339L38.3083 21.4137H35.4737L34.9619 22.8321H32.1572L35.5836 14.7588H38.226L41.653 22.8339H38.8201ZM37.4989 19.1074C37.1621 18.0697 37.013 17.6281 36.891 17.0887C36.7695 17.6305 36.6205 18.0815 36.2837 19.1074L36.1087 19.6364H37.6733L37.4989 19.1074ZM48.0591 22.8339L45.674 20.0723V22.8339H43.0018V14.7588H45.674V15.7044C45.674 16.3845 45.6596 16.973 45.6326 17.5615C46.0246 17.0301 48.1557 14.7588 48.1557 14.7588H51.3988L47.7726 18.6818L51.7224 22.8396L48.0591 22.8339ZM52.9033 22.8339V14.7588H61.1607V16.648H55.4883V17.7202H58.2798V19.5703H55.4883V20.9626H60.2227V22.8439L52.9033 22.8339Z" fill="white"/>
<path d="M26.9148 31.9355L27.8746 26.4733H31.3314L31.1832 27.3083H28.7798L28.5301 28.7596H30.6994L30.5511 29.5712H28.3818L28.1165 31.1006H30.5121L30.3638 31.9355H26.9148ZM32.2886 31.9355L31.5317 28.0027H32.6319L33.1079 30.9445L34.6217 28.0027H35.7298L33.5761 31.9355H32.2886ZM37.421 32.0292C37.0621 32.0292 36.7525 31.9564 36.4924 31.8107C36.2375 31.665 36.0424 31.4596 35.9072 31.1942C35.7771 30.9289 35.7225 30.6194 35.7433 30.2657C35.7537 29.9379 35.8188 29.6336 35.9384 29.3527C36.0633 29.0666 36.2323 28.8169 36.4456 28.6036C36.6589 28.3851 36.9086 28.216 37.1947 28.0964C37.4808 27.9715 37.7982 27.9091 38.1467 27.9091C38.5005 27.9091 38.8022 27.9819 39.0519 28.1276C39.3016 28.2732 39.4889 28.4709 39.6137 28.7206C39.7386 28.9703 39.7932 29.2591 39.7776 29.5868C39.7776 29.696 39.7646 29.8079 39.7386 29.9223C39.7177 30.0316 39.6943 30.133 39.6683 30.2266H36.4846L36.5939 29.5868H38.7319C38.7528 29.4099 38.7345 29.2617 38.6773 29.142C38.6201 29.0172 38.5317 28.9235 38.412 28.8611C38.2976 28.7987 38.1623 28.7675 38.0062 28.7675C37.8242 28.7675 37.6499 28.8091 37.4834 28.8923C37.3222 28.9703 37.1843 29.0926 37.0699 29.2591C36.9554 29.4255 36.8748 29.6362 36.828 29.8911L36.789 30.1174C36.7525 30.3203 36.7577 30.5024 36.8046 30.6636C36.8566 30.8197 36.9476 30.9445 37.0777 31.0382C37.2077 31.1266 37.369 31.1708 37.5615 31.1708C37.7591 31.1708 37.9282 31.1292 38.0687 31.046C38.2091 30.9627 38.3236 30.8561 38.412 30.7261H39.4889C39.3692 30.9706 39.2053 31.1916 38.9973 31.3893C38.7944 31.587 38.5577 31.7431 38.2872 31.8575C38.0219 31.972 37.7331 32.0292 37.421 32.0292ZM40.2498 31.9355L40.9365 28.0027H41.8651L41.8494 28.627C42.0055 28.4085 42.2032 28.2342 42.4425 28.1042C42.687 27.9741 42.9601 27.9091 43.2618 27.9091C43.6 27.9091 43.8679 27.9819 44.0656 28.1276C44.2632 28.2732 44.3959 28.4761 44.4635 28.7362C44.5363 28.9963 44.5415 29.3059 44.4791 29.6648L44.0734 31.9355H43.0277L43.4101 29.7663C43.4621 29.4593 43.4387 29.2226 43.3399 29.0562C43.241 28.8845 43.0511 28.7987 42.7702 28.7987C42.5933 28.7987 42.4295 28.8403 42.2786 28.9235C42.133 29.0015 42.0055 29.116 41.8963 29.2669C41.7922 29.4177 41.7194 29.5998 41.6778 29.8131L41.3032 31.9355H40.2498ZM45.097 31.9355L45.7915 28.0027H46.8449L46.1505 31.9355H45.097ZM46.5172 27.4877C46.3247 27.4877 46.1687 27.4305 46.049 27.3161C45.9294 27.1964 45.8695 27.0534 45.8695 26.8869C45.8695 26.71 45.9294 26.5644 46.049 26.4499C46.1687 26.3355 46.3247 26.2782 46.5172 26.2782C46.7097 26.2782 46.8658 26.3355 46.9854 26.4499C47.1103 26.5644 47.1727 26.71 47.1727 26.8869C47.1727 27.0534 47.1103 27.1964 46.9854 27.3161C46.8606 27.4305 46.7045 27.4877 46.5172 27.4877ZM47.2224 31.9355L47.909 28.0027H48.8376L48.822 28.627C48.9781 28.4085 49.1758 28.2342 49.4151 28.1042C49.6596 27.9741 49.9327 27.9091 50.2344 27.9091C50.5725 27.9091 50.8404 27.9819 51.0381 28.1276C51.2358 28.2732 51.3685 28.4761 51.4361 28.7362C51.5089 28.9963 51.5141 29.3059 51.4517 29.6648L51.0459 31.9355H50.0003L50.3827 29.7663C50.4347 29.4593 50.4113 29.2226 50.3124 29.0562C50.2136 28.8845 50.0237 28.7987 49.7428 28.7987C49.5659 28.7987 49.4021 28.8403 49.2512 28.9235C49.1055 29.0015 48.9781 29.116 48.8688 29.2669C48.7648 29.4177 48.692 29.5998 48.6504 29.8131L48.2758 31.9355H47.2224ZM53.3025 33.7459C52.954 33.7459 52.6522 33.7043 52.3973 33.621C52.1424 33.5378 51.95 33.413 51.8199 33.2465C51.6847 33.08 51.6222 32.8719 51.6326 32.6222C51.643 32.4089 51.7081 32.2139 51.8277 32.037C51.9422 31.8601 52.106 31.7015 52.3193 31.561C52.5326 31.4205 52.7849 31.2983 53.0762 31.1942L53.3884 31.7171C53.1178 31.8003 52.9228 31.9043 52.8031 32.0292C52.6835 32.1592 52.621 32.2971 52.6158 32.4428C52.6106 32.552 52.6392 32.6456 52.7017 32.7237C52.7693 32.8017 52.8655 32.8589 52.9904 32.8953C53.1204 32.9318 53.2661 32.95 53.4274 32.95C53.6875 32.95 53.906 32.9005 54.0828 32.8017C54.2597 32.7029 54.3507 32.5546 54.3559 32.3569C54.3663 32.2321 54.3273 32.128 54.2389 32.0448C54.1505 31.9616 53.971 31.9095 53.7005 31.8887C53.4612 31.8731 53.2427 31.8471 53.045 31.8107C52.8525 31.7691 52.6809 31.7223 52.53 31.6702C52.3843 31.613 52.2595 31.5506 52.1554 31.483C52.0566 31.4153 51.976 31.3451 51.9135 31.2723L51.9448 31.0928L52.9202 30.2188L53.6224 30.4607L52.4832 31.4205L52.8733 30.8821C52.9254 30.9185 52.98 30.9523 53.0372 30.9836C53.0996 31.0148 53.1699 31.0434 53.2479 31.0694C53.3311 31.0902 53.4326 31.111 53.5522 31.1318C53.6719 31.1526 53.8201 31.1708 53.997 31.1864C54.3247 31.2125 54.5874 31.2723 54.7851 31.3659C54.988 31.4544 55.1337 31.574 55.2221 31.7249C55.3105 31.8757 55.347 32.0578 55.3313 32.2711C55.3209 32.552 55.2299 32.8043 55.0582 33.028C54.8918 33.2517 54.6577 33.426 54.3559 33.5508C54.0542 33.6809 53.7031 33.7459 53.3025 33.7459ZM53.8097 30.7729C53.5132 30.7729 53.2609 30.7209 53.0528 30.6168C52.8499 30.5076 52.6965 30.3593 52.5924 30.172C52.4936 29.9847 52.4494 29.7741 52.4598 29.54C52.4754 29.233 52.5638 28.9573 52.7251 28.7128C52.8915 28.4683 53.1126 28.2732 53.3884 28.1276C53.6693 27.9819 53.9788 27.9091 54.3169 27.9091C54.6187 27.9091 54.871 27.9663 55.0738 28.0808C55.2819 28.19 55.4354 28.3383 55.5342 28.5256C55.6331 28.7076 55.6747 28.9157 55.6591 29.1498C55.6487 29.4515 55.5602 29.7272 55.3938 29.9769C55.2325 30.2214 55.014 30.4165 54.7383 30.5622C54.4626 30.7026 54.1531 30.7729 53.8097 30.7729ZM53.9502 29.9769C54.1791 29.9769 54.369 29.9119 54.5198 29.7819C54.6707 29.6466 54.7513 29.4697 54.7617 29.2512C54.7721 29.0744 54.7227 28.9417 54.6135 28.8533C54.5094 28.7649 54.3637 28.7206 54.1765 28.7206C53.9476 28.7206 53.7551 28.7883 53.599 28.9235C53.4482 29.0536 53.3675 29.2278 53.3571 29.4463C53.3467 29.618 53.3962 29.7507 53.5054 29.8443C53.6198 29.9327 53.7681 29.9769 53.9502 29.9769ZM54.8241 28.744L54.7773 28.0027H56.4004L56.2833 28.6348L54.8241 28.744Z" fill="white"/>
<defs>
<filter id="filter0_d_718_2705" x="0.114921" y="0.336191" width="102.452" height="45.9733" filterUnits="userSpaceOnUse" color-interpolation-filters="sRGB">
<feFlood flood-opacity="0" result="BackgroundImageFix"/>
<feColorMatrix in="SourceAlpha" type="matrix" values="0 0 0 0 0 0 0 0 0 0 0 0 0 0 0 0 0 0 127 0" result="hardAlpha"/>
<feOffset dy="1.22127"/>
<feGaussianBlur stdDeviation="2.44254"/>
<feComposite in2="hardAlpha" operator="out"/>
<feColorMatrix type="matrix" values="0 0 0 0 0 0 0 0 0 0 0 0 0 0 0 0 0 0 0.25 0"/>
<feBlend mode="normal" in2="BackgroundImageFix" result="effect1_dropShadow_718_2705"/>
<feBlend mode="normal" in="SourceGraphic" in2="effect1_dropShadow_718_2705" result="shape"/>
</filter>
</defs>
</svg>
