<svg width="132" height="44" viewBox="0 0 132 44" fill="none" xmlns="http://www.w3.org/2000/svg">
<g filter="url(#filter0_d_829_4350)">
<rect x="4" y="3" width="124" height="36" rx="16" fill="#B71C1C"/>
<rect x="4.5" y="3.5" width="123" height="35" rx="15.5" stroke="#333333"/>
</g>
<path d="M36.836 26L33.238 16.2H35.044L37.858 24.278L40.714 16.2H42.492L38.88 26H36.836ZM43.7284 26V16.2H50.0564V17.558H45.4084V20.372H49.6364V21.702H45.4084V24.642H50.0564V26H43.7284ZM51.8221 26V16.2H55.3361C56.1108 16.2 56.7501 16.3353 57.2541 16.606C57.7675 16.8673 58.1455 17.222 58.3881 17.67C58.6401 18.1087 58.7661 18.608 58.7661 19.168C58.7661 19.6907 58.6448 20.176 58.4021 20.624C58.1595 21.072 57.7815 21.4313 57.2681 21.702C56.7548 21.9727 56.0968 22.108 55.2941 22.108H53.5021V26H51.8221ZM56.9321 26L54.8741 21.674H56.6941L58.8501 26H56.9321ZM53.5021 20.862H55.2241C55.8495 20.862 56.3068 20.7127 56.5961 20.414C56.8948 20.106 57.0441 19.7047 57.0441 19.21C57.0441 18.7247 56.8995 18.3373 56.6101 18.048C56.3208 17.7493 55.8588 17.6 55.2241 17.6H53.5021V20.862ZM62.7858 26V17.558H59.9018V16.2H67.3358V17.558H64.4518V26H62.7858ZM68.7206 26V16.2H70.4006V26H68.7206ZM76.725 26.168C75.7543 26.168 74.9143 25.958 74.205 25.538C73.505 25.1087 72.9636 24.516 72.581 23.76C72.2076 22.9947 72.021 22.1127 72.021 21.114C72.021 20.106 72.2076 19.224 72.581 18.468C72.9636 17.7027 73.505 17.1053 74.205 16.676C74.9143 16.2467 75.7543 16.032 76.725 16.032C77.8916 16.032 78.8436 16.3213 79.581 16.9C80.3183 17.4693 80.785 18.2767 80.981 19.322H79.133C79.0023 18.7713 78.7363 18.3373 78.335 18.02C77.9336 17.7027 77.3923 17.544 76.711 17.544C76.095 17.544 75.563 17.6887 75.115 17.978C74.6763 18.258 74.3356 18.6687 74.093 19.21C73.8596 19.742 73.743 20.3767 73.743 21.114C73.743 21.8513 73.8596 22.486 74.093 23.018C74.3356 23.5407 74.6763 23.9467 75.115 24.236C75.563 24.516 76.095 24.656 76.711 24.656C77.3923 24.656 77.9336 24.5113 78.335 24.222C78.7363 23.9233 79.0023 23.5127 79.133 22.99H80.981C80.7943 23.9793 80.3276 24.7587 79.581 25.328C78.8436 25.888 77.8916 26.168 76.725 26.168ZM81.8441 26L85.4281 16.2H87.3041L90.8881 26H89.1101L86.3521 18.16L83.5941 26H81.8441ZM83.4401 23.69L83.8881 22.36H88.7181L89.1661 23.69H83.4401ZM92.2362 26V16.2H93.9162V24.684H98.2842V26H92.2362Z" fill="white"/>
<defs>
<filter id="filter0_d_829_4350" x="0.626664" y="0.469998" width="130.747" height="42.7467" filterUnits="userSpaceOnUse" color-interpolation-filters="sRGB">
<feFlood flood-opacity="0" result="BackgroundImageFix"/>
<feColorMatrix in="SourceAlpha" type="matrix" values="0 0 0 0 0 0 0 0 0 0 0 0 0 0 0 0 0 0 127 0" result="hardAlpha"/>
<feOffset dy="0.843334"/>
<feGaussianBlur stdDeviation="1.68667"/>
<feComposite in2="hardAlpha" operator="out"/>
<feColorMatrix type="matrix" values="0 0 0 0 0 0 0 0 0 0 0 0 0 0 0 0 0 0 0.25 0"/>
<feBlend mode="normal" in2="BackgroundImageFix" result="effect1_dropShadow_829_4350"/>
<feBlend mode="normal" in="SourceGraphic" in2="effect1_dropShadow_829_4350" result="shape"/>
</filter>
</defs>
</svg>
