<svg width="102" height="47" viewBox="0 0 102 47" fill="none" xmlns="http://www.w3.org/2000/svg">
<g filter="url(#filter0_d_742_2846)">
<rect x="5" y="4" width="92" height="36" rx="18" fill="#FEFFFF"/>
</g>
<path d="M80.9439 9H82.6882C81.6572 9.90942 80.6217 10.8143 79.5921 11.7251C82.0004 11.72 84.4093 11.7223 86.8181 11.7187C86.8798 11.7223 86.9369 11.7456 86.9995 11.7598V11.7776C86.9931 11.7726 86.9798 11.7625 86.973 11.757C85.8566 15.4902 84.7218 19.2175 83.6086 22.9516C83.5839 22.9525 83.5346 22.9543 83.5099 22.9552C82.3002 22.9561 81.0906 22.9552 79.8809 22.9557C80.7076 20.1415 81.5535 17.3333 82.3852 14.5205C80.6829 15.4541 78.9829 16.3919 77.2843 17.3324C76.6851 19.2065 76.1002 21.0852 75.4974 22.958C72.399 22.9511 69.3006 22.9589 66.2021 22.9539C67.5247 21.8036 68.8724 20.6803 70.204 19.5397C73.0141 17.1514 75.8223 14.7609 78.6328 12.3731C78.8783 12.1555 79.1401 11.9558 79.3768 11.7278C78.8472 11.7205 78.318 11.7278 77.7888 11.7237C78.8367 10.812 79.89 9.90576 80.9439 9Z" fill="#7E0C6E"/>
<path d="M16 31.6377C18.0437 24.9985 20.0938 18.3611 22.1425 11.7233C22.3243 11.7223 22.5067 11.7196 22.6886 11.7246C22.8563 11.7365 23.0245 11.7365 23.1926 11.737C23.173 12.0372 23.1456 12.3365 23.1277 12.6368C23.5048 12.6391 23.8818 12.6368 24.2593 12.6382C24.4261 16.7602 24.5801 20.8823 24.7487 25.0044C25.5014 25.0085 26.254 24.9998 27.0067 25.0085C27.2124 24.7225 27.3979 24.4227 27.6003 24.1343C29.256 21.6451 30.9204 19.1617 32.5802 16.6757C32.6753 16.5349 32.7626 16.3892 32.8709 16.2589C32.9805 19.1745 33.0989 22.0897 33.2127 25.0053C34.0645 25.0035 34.9164 25.009 35.7682 25.0021C38.4339 20.8796 41.1041 16.7602 43.7706 12.6382C44.6197 12.6372 45.4684 12.6382 46.3175 12.6377C45.1613 16.455 43.9781 20.2645 42.8141 24.0795C42.3933 24.0836 41.9719 24.0731 41.551 24.0849C41.4943 24.3975 41.4194 24.706 41.355 25.0168C43.4759 25.0168 45.5963 25.0163 47.7168 25.0168C47.821 24.6996 47.932 24.3847 48.0408 24.069C47.6226 24.0676 47.204 24.0694 46.7859 24.068C47.9668 20.2567 49.1522 16.4467 50.3381 12.6372C50.7156 12.6391 51.0935 12.6372 51.471 12.6382C51.5601 12.3329 51.6552 12.0294 51.7429 11.7237C52.1021 11.7237 52.4613 11.7242 52.8209 11.7237C52.7634 12.0276 52.7131 12.3324 52.6564 12.6363C53.0472 12.6404 53.4379 12.635 53.8286 12.6395C52.6692 16.4499 51.5002 20.2581 50.3354 24.0671C49.9579 24.074 49.5804 24.0607 49.2038 24.0726L49.1796 24.0886C49.0562 24.3884 48.9657 24.7014 48.8474 25.0035C50.0072 25.009 51.1671 25.0008 52.3269 25.0076C52.4183 24.701 52.4942 24.3893 52.5737 24.079C52.1688 24.079 51.7644 24.0831 51.3599 24.0772C52.4997 20.4651 53.6211 16.8466 54.765 13.2364C56.0199 17.1587 57.2748 21.0811 58.5279 25.004C59.286 25.004 60.0447 25.0099 60.8028 25.0012C62.0838 20.8723 63.3757 16.7465 64.6635 12.6199C65.0268 12.6217 65.3901 12.6203 65.7539 12.6208C65.8704 12.3233 65.9792 12.023 66.0902 11.7237C69.9084 11.7251 73.7271 11.7214 77.5453 11.7255C76.2428 12.8529 74.9198 13.957 73.6092 15.0753C70.6844 17.5577 67.7592 20.0401 64.8344 22.5225C64.5255 22.7921 64.201 23.0448 63.9017 23.324C63.739 23.8802 63.6051 24.4455 63.4515 25.0044C67.2656 25.0058 71.0802 25.0058 74.8942 25.0044C74.3239 26.8845 73.7481 28.7632 73.1787 30.6437C72.3972 30.6497 71.6153 30.6318 70.8343 30.6524C70.7237 30.9846 70.5903 31.3082 70.4714 31.6377C73.2093 31.6372 75.9476 31.6372 78.6855 31.6372C79.3888 31.6299 80.0921 31.6615 80.7959 31.6455C80.4243 32.9031 80.0455 34.158 79.6666 35.4134H19.7688C20.1504 34.1562 20.5256 32.8967 20.9054 31.6391C19.2703 31.6349 17.6351 31.6377 16 31.6377ZM45.9414 27.267C45.5712 27.3557 45.3989 27.8277 45.5918 28.1458C45.8056 28.5242 46.4084 28.5493 46.6799 28.2239C46.8718 27.9996 46.8613 27.6253 46.6401 27.4247C46.4646 27.2373 46.179 27.2058 45.9414 27.267ZM27.5217 27.442C27.2178 29.2613 26.8806 31.0756 26.573 32.894C27.721 32.894 28.8694 32.8944 30.0178 32.894C30.0635 32.6157 30.117 32.3387 30.1632 32.0609C29.3675 32.0613 28.5719 32.0563 27.7763 32.0636C27.8476 31.5513 27.955 31.045 28.0308 30.5336C28.7556 30.519 29.4809 30.5404 30.2052 30.5226C30.2564 30.2562 30.2989 29.9884 30.3546 29.7224C29.6317 29.7083 28.9078 29.7284 28.1848 29.7128C28.2721 29.2293 28.343 28.7431 28.4403 28.2623C29.2373 28.2751 30.0343 28.2605 30.8313 28.2696C30.8912 27.9959 30.9263 27.7171 30.9853 27.4429C30.7687 27.4196 30.5507 27.4393 30.3336 27.4329C29.3963 27.4393 28.4581 27.421 27.5217 27.442ZM35.8409 29.8636C35.4574 30.3919 35.3231 31.0765 35.4181 31.7168C35.4872 32.1966 35.8134 32.6294 36.2563 32.8272C36.6333 32.9954 37.062 33.0174 37.4659 32.9547C38.1852 32.8318 38.809 32.3328 39.139 31.6889C38.7821 31.6752 38.4247 31.6884 38.0683 31.682C37.9211 31.873 37.7278 32.044 37.4865 32.0974C37.1863 32.1678 36.8197 32.1363 36.6072 31.8881C36.4276 31.703 36.3966 31.4302 36.4226 31.1853C37.3841 31.1898 38.3461 31.1798 39.3076 31.1903C39.4223 30.8466 39.4593 30.4756 39.4018 30.1173C39.3392 29.7197 39.1102 29.3445 38.7665 29.1302C38.4137 28.8925 37.9686 28.8436 37.5541 28.8793C36.875 28.9346 36.2293 29.3034 35.8409 29.8636ZM41.4948 29.5716C41.5017 29.3692 41.5058 29.1667 41.5113 28.9643C41.201 28.9647 40.8907 28.9615 40.5808 28.9661C40.3587 30.2768 40.1192 31.5851 39.9003 32.8963C40.2499 32.8917 40.6 32.8949 40.9501 32.8944C41.0725 32.1929 41.1968 31.4919 41.3211 30.7909C41.3682 30.5254 41.477 30.2621 41.6753 30.0729C41.9404 29.7896 42.3786 29.679 42.7442 29.8125C42.9261 29.8746 43.0408 30.0569 43.0659 30.2416C43.1094 30.4751 43.0586 30.7109 43.0175 30.9408C42.901 31.5915 42.7908 32.2437 42.6716 32.894C43.0202 32.8931 43.3694 32.8953 43.7185 32.8931C43.8584 32.1034 44.0023 31.3141 44.1399 30.524C44.2043 30.0752 44.1714 29.5579 43.8483 29.2088C43.5673 28.8989 43.1144 28.8441 42.7191 28.8774C42.2333 28.9149 41.79 29.1909 41.4948 29.5716ZM49.5 28.9049C49.0841 28.9816 48.7345 29.2481 48.4626 29.5593C48.4717 29.3609 48.474 29.1626 48.4809 28.9643C48.171 28.9652 47.8612 28.9606 47.5518 28.9666C47.3224 30.2754 47.0944 31.5847 46.8659 32.894C47.2168 32.8935 47.5678 32.8953 47.9188 32.8931C48.0326 32.2396 48.1496 31.587 48.2638 30.9339C48.2976 30.7205 48.3442 30.5043 48.4548 30.3156C48.623 30.0309 48.9118 29.8029 49.2477 29.7663C49.4694 29.7407 49.7248 29.7636 49.8916 29.9285C50.089 30.1538 50.0666 30.482 50.0173 30.7575C49.8902 31.4663 49.7755 32.1774 49.6371 32.8839C49.9876 32.9036 50.3408 32.8963 50.6918 32.8871C50.7933 32.2683 50.9116 31.6528 51.0181 31.0354C51.0821 30.6693 51.1735 30.2982 51.1218 29.9249C51.0844 29.5757 50.9194 29.2179 50.6045 29.0378C50.2737 28.8487 49.8674 28.84 49.5 28.9049ZM52.7264 29.2837C52.284 29.6196 52.0404 30.1963 52.1103 30.7475C52.1304 30.9709 52.2447 31.1661 52.369 31.3466C52.1135 31.5819 51.8512 31.8095 51.5944 32.0435C51.5743 32.1034 51.5596 32.1646 51.5505 32.2277C51.6611 32.3515 51.795 32.4521 51.9431 32.5275C51.5724 32.7701 51.264 33.1714 51.2731 33.632C51.2621 33.9368 51.4184 34.2403 51.6762 34.4039C51.9979 34.6205 52.3941 34.679 52.7734 34.6991C53.3127 34.7247 53.8789 34.6315 54.335 34.3276C54.7431 34.0602 55.0081 33.5776 54.972 33.0854C54.9748 32.7756 54.776 32.4882 54.4977 32.3602C53.931 32.0526 53.2432 32.214 52.6651 31.9411C52.7469 31.8374 52.8589 31.7643 52.9558 31.6761C53.6326 31.8328 54.4127 31.6665 54.8824 31.1304C55.2458 30.7374 55.3847 30.1584 55.2508 29.6415C55.4738 29.6297 55.6964 29.6109 55.9194 29.5954C55.9605 29.3856 56.0021 29.1754 56.0336 28.9638C55.7379 28.9643 55.4418 28.9638 55.1461 28.9638C54.8838 28.9524 54.6137 29.0004 54.3606 28.9108C53.7971 28.792 53.1783 28.9213 52.7264 29.2837ZM31.1855 28.9638C31.4354 30.274 31.6877 31.5838 31.9413 32.8935C32.3732 32.8908 32.8055 32.9022 33.2369 32.8876C33.9398 31.5742 34.6668 30.2736 35.3779 28.9647C35.0087 28.9629 34.6399 28.9643 34.2711 28.9638C33.9503 29.5917 33.6235 30.2164 33.305 30.8457C33.1135 31.1857 32.9618 31.5467 32.7603 31.8808C32.593 30.9115 32.4427 29.9386 32.2855 28.9675C31.9189 28.9597 31.552 28.9661 31.1855 28.9638ZM45.4318 28.9807C45.2065 30.2868 44.9648 31.5902 44.7459 32.8972C45.095 32.8908 45.4446 32.8949 45.7942 32.8944C46.0254 31.5842 46.2558 30.274 46.4884 28.9643C46.1374 28.9757 45.775 28.941 45.4318 28.9807Z" fill="#7E0C6E"/>
<path d="M29.9862 11.7496C30.5566 11.7103 31.1292 11.74 31.7004 11.7437C31.6515 12.038 31.6003 12.3318 31.5542 12.6261C31.9321 12.628 32.3096 12.6275 32.6871 12.6266C32.7291 13.2321 32.7803 13.8367 32.8228 14.4422C32.8324 14.5291 32.7606 14.5926 32.7209 14.6616C31.4989 16.5517 30.2751 18.4405 29.054 20.3315C28.9662 20.4549 28.8981 20.5929 28.7958 20.7053C28.7044 18.0159 28.6047 15.327 28.5156 12.6376C28.8753 12.6426 29.2358 12.6325 29.5955 12.6431C29.7408 12.3529 29.8628 12.0499 29.9862 11.7496Z" fill="#7E0C6E"/>
<path d="M38.4763 11.7446C39.085 11.7309 39.6947 11.7464 40.3029 11.725C40.7074 11.719 41.1123 11.7227 41.5167 11.7241C41.5158 12.0261 41.5208 12.3287 41.5135 12.6307C41.8782 12.6486 42.2433 12.6316 42.608 12.6399C41.1305 14.923 39.6485 17.2034 38.1701 19.4861C37.8502 19.965 37.5541 20.46 37.2214 20.9302C37.1268 18.1658 37.0313 15.4019 36.9395 12.638C37.3174 12.6385 37.6953 12.6385 38.0733 12.6376C38.209 12.3405 38.3406 12.0417 38.4763 11.7446Z" fill="#7E0C6E"/>
<path d="M58.3916 11.7255C59.7836 11.7232 61.1756 11.7182 62.5676 11.7223C62.5228 12.023 62.4689 12.3223 62.4205 12.6221C62.8025 12.6216 63.185 12.6225 63.5675 12.6216C62.7728 15.2151 61.9516 17.8017 61.1473 20.3924C60.7492 19.2024 60.3868 18 60.0016 16.8059C59.4655 15.1123 58.9286 13.4186 58.3916 11.7255Z" fill="#7E0C6E"/>
<path d="M79.1895 25.0049C80.423 25.0067 81.6564 25.0031 82.8903 25.0067C82.9122 25.0072 82.9561 25.0081 82.978 25.0081C82.2985 27.2103 81.6249 29.4149 80.9535 31.6194C80.9362 31.6222 80.901 31.6281 80.8836 31.6313C80.4417 31.6418 79.9989 31.6395 79.557 31.6327C79.6452 31.2977 79.7571 30.9696 79.8554 30.6378C79.073 30.6392 78.2902 30.6355 77.5078 30.6396C78.0649 28.76 78.6284 26.8827 79.1895 25.0049Z" fill="#7E0C6E"/>
<path d="M53.5518 29.716C53.7849 29.6584 54.065 29.6575 54.2588 29.8188C54.4836 30.0304 54.4215 30.4097 54.2547 30.6391C54.0257 30.9407 53.5806 31.0102 53.2434 30.869C53.0423 30.7831 52.9596 30.5454 53.0021 30.3416C53.0235 30.04 53.2658 29.79 53.5518 29.716Z" fill="#7E0C6E"/>
<path d="M37.2048 29.8178C37.5151 29.6885 37.9067 29.6807 38.18 29.8991C38.3633 30.0582 38.408 30.3141 38.3852 30.5449C37.7765 30.549 37.1673 30.5435 36.5586 30.5481C36.6596 30.2295 36.8913 29.9444 37.2048 29.8178Z" fill="#7E0C6E"/>
<path d="M52.651 32.831C52.7383 32.7538 52.8539 32.8027 52.9558 32.8105C53.2529 32.8612 53.5782 32.8192 53.8479 32.9773C54.1033 33.1669 54.0124 33.5988 53.7528 33.7437C53.4306 33.9297 53.0349 33.9393 52.6789 33.8666C52.4892 33.8264 52.284 33.7048 52.2621 33.4937C52.2178 33.2149 52.4161 32.9581 52.651 32.831Z" fill="#7E0C6E"/>
<defs>
<filter id="filter0_d_742_2846" x="0.114921" y="0.336191" width="101.77" height="45.7702" filterUnits="userSpaceOnUse" color-interpolation-filters="sRGB">
<feFlood flood-opacity="0" result="BackgroundImageFix"/>
<feColorMatrix in="SourceAlpha" type="matrix" values="0 0 0 0 0 0 0 0 0 0 0 0 0 0 0 0 0 0 127 0" result="hardAlpha"/>
<feOffset dy="1.22127"/>
<feGaussianBlur stdDeviation="2.44254"/>
<feComposite in2="hardAlpha" operator="out"/>
<feColorMatrix type="matrix" values="0 0 0 0 0 0 0 0 0 0 0 0 0 0 0 0 0 0 0.25 0"/>
<feBlend mode="normal" in2="BackgroundImageFix" result="effect1_dropShadow_742_2846"/>
<feBlend mode="normal" in="SourceGraphic" in2="effect1_dropShadow_742_2846" result="shape"/>
</filter>
</defs>
</svg>
