<svg width="102" height="47" viewBox="0 0 102 47" fill="none" xmlns="http://www.w3.org/2000/svg">
<g filter="url(#filter0_d_742_2803)">
<rect x="5" y="4" width="92" height="36" rx="18" fill="#FEFFFF"/>
</g>
<path d="M80.0661 9.00598C80.6301 8.98922 81.1945 9.01383 81.759 9.00598C80.7568 9.90245 79.7378 10.7801 78.734 11.675C78.6989 11.6781 78.6292 11.6844 78.5942 11.6875C81.0626 11.7006 83.5315 11.6996 86 11.7043C84.8898 15.3917 83.7792 19.0787 82.6701 22.7667C81.4448 22.7661 80.2195 22.7661 78.9947 22.7661C79.821 19.9935 80.6426 17.2198 81.471 14.4476C79.7891 15.3629 78.1166 16.2955 76.4383 17.2166C75.8498 19.0661 75.2701 20.9187 74.6768 22.7667C71.6177 22.764 68.5581 22.7698 65.499 22.764C69.2158 19.5992 72.9363 16.439 76.6541 13.2757C77.2699 12.7479 77.8951 12.2305 78.5041 11.6949C77.9831 11.686 77.4621 11.6959 76.9416 11.6896C77.7846 10.9403 78.6481 10.214 79.499 9.47359C79.6901 9.32121 79.8587 9.13584 80.0661 9.00598Z" fill="#7E0C6E"/>
<path d="M22.0585 11.6904C22.4041 11.6988 22.7497 11.6967 23.0953 11.7067C23.0754 12.0025 23.0503 12.2989 23.0298 12.5948C23.4021 12.5953 23.775 12.5948 24.1473 12.5953C24.3096 16.6603 24.4677 20.7253 24.628 24.7898C25.3715 24.7898 26.1151 24.7866 26.8581 24.7918C28.793 21.9165 30.7053 19.0261 32.6381 16.1497C32.7485 19.0297 32.8658 21.9092 32.9753 24.7892C33.8136 24.7887 34.652 24.7903 35.4903 24.7887C37.0036 22.4617 38.508 20.1289 40.0177 17.8002C41.1351 16.0654 42.2688 14.3406 43.3763 12.6C44.2194 12.589 45.0629 12.5968 45.906 12.5958C44.7498 16.3566 43.5962 20.1179 42.4442 23.8797C42.0316 23.8786 41.6195 23.8797 41.2069 23.8791C41.1357 24.1855 41.0739 24.4944 41.0042 24.8013C43.0951 24.8039 45.186 24.8018 47.2769 24.8023C47.38 24.4892 47.4926 24.1797 47.5989 23.8676C47.1863 23.864 46.7737 23.8676 46.3616 23.8655C47.524 20.1074 48.6954 16.3519 49.8621 12.5948C50.236 12.5948 50.6098 12.5968 50.9842 12.5932C51.0717 12.2921 51.1617 11.9915 51.2539 11.6915C51.6063 11.692 51.9592 11.691 52.3122 11.692C52.2567 11.9926 52.2038 12.2942 52.1519 12.5953C52.5368 12.5953 52.9217 12.5942 53.3071 12.5958C52.1598 16.344 51.0204 20.0959 49.8631 23.8409C49.4919 23.887 49.1044 23.8462 48.7268 23.8592C48.6163 24.1692 48.5027 24.4777 48.3969 24.7892C49.5416 24.7887 50.6863 24.7903 51.8309 24.7882C51.9105 24.486 51.9907 24.1839 52.0697 23.8812C51.6707 23.8765 51.2722 23.8807 50.8732 23.8786C51.9891 20.309 53.1123 16.742 54.2271 13.1728C55.4671 17.0446 56.7029 20.9174 57.9434 24.7892C58.6906 24.7856 59.4378 24.7966 60.1851 24.7835C61.446 20.7117 62.7221 16.6446 63.9903 12.5749C64.3516 12.5743 64.713 12.5801 65.0743 12.5712C65.1759 12.2759 65.2911 11.9852 65.3989 11.692C69.1675 11.692 72.9362 11.6904 76.7048 11.693C72.2361 15.4831 67.7689 19.2764 63.3012 23.068C63.2211 23.1282 63.207 23.2319 63.1808 23.3215C63.0556 23.8121 62.9232 24.3001 62.7954 24.7898C66.5567 24.7887 70.318 24.7892 74.0798 24.7892C73.5179 26.6419 72.9482 28.4919 72.39 30.3455C71.6197 30.3518 70.8495 30.3366 70.0792 30.3529C70.0006 30.5791 69.9137 30.8022 69.831 31.0268C72.8084 31.0273 75.7853 31.0268 78.7627 31.0268C78.8328 30.798 78.9035 30.5697 78.9716 30.3403C78.2008 30.3387 77.43 30.3408 76.6592 30.3387C77.1446 28.7008 77.6369 27.065 78.1244 25.4281C78.1977 25.2191 78.2291 24.9908 78.3307 24.795C79.5696 24.7808 80.809 24.7939 82.0485 24.7887C81.3845 26.9843 80.6949 29.1731 80.0445 31.3724C79.5089 32.8993 78.9805 34.4289 78.4448 35.9558H18.9308C19.6717 34.4132 20.4101 32.869 21.1547 31.3279C19.4361 31.3279 17.7181 31.3289 16 31.3268C18.0218 24.7819 20.0393 18.2359 22.0585 11.6904ZM34.4289 26.9896C34.1948 27.0576 34.0205 27.2812 34.0142 27.5258C33.9849 27.8556 34.2786 28.1562 34.6059 28.1526C34.9593 28.1923 35.3379 27.9007 35.2981 27.5263C35.2955 27.1027 34.8002 26.8581 34.4289 26.9896ZM39.2616 27.0021C39.138 27.7153 39.0107 28.4275 38.8908 29.1412C38.7264 28.9118 38.5054 28.7139 38.2289 28.6353C37.6247 28.4646 36.9502 28.6191 36.4575 29.0019C35.9108 29.4161 35.5909 30.0884 35.5532 30.7676C35.5102 31.2912 35.6322 31.8651 36.0229 32.2406C36.3695 32.6009 36.9146 32.6857 37.3901 32.6014C37.7802 32.5354 38.1174 32.3024 38.385 32.0196C38.396 32.1924 38.4038 32.3652 38.408 32.5391C38.7159 32.5391 39.0238 32.5385 39.3322 32.5391C39.6532 30.6932 39.9789 28.8479 40.2994 27.0021C39.9533 27.0011 39.6072 27.0011 39.2616 27.0021ZM44.2602 27.0032C44.1403 27.7179 44.0136 28.4311 43.8884 29.1448C43.7277 28.8993 43.4873 28.7039 43.2014 28.627C42.6202 28.4751 41.9787 28.6154 41.4985 28.972C40.9398 29.3737 40.6063 30.0434 40.5581 30.7236C40.5041 31.2661 40.6251 31.8672 41.0367 32.2532C41.3954 32.6171 41.9541 32.6878 42.4358 32.5893C42.8118 32.5176 43.1349 32.2872 43.3904 32.0102C43.3931 32.1867 43.4009 32.3636 43.4093 32.5401C43.7167 32.538 44.024 32.5391 44.3319 32.5396C44.654 30.6932 44.9781 28.8479 45.3001 27.0021C44.9535 27.0016 44.6068 27 44.2602 27.0032ZM26.4282 32.5401C26.7733 32.5375 27.1184 32.5401 27.4635 32.5385C27.6766 31.3336 27.8892 30.1282 28.1018 28.9233C28.4181 29.8748 28.715 30.8331 29.0391 31.7824C29.3103 31.7782 29.5821 31.7782 29.8539 31.7819C30.4974 30.8362 31.1284 29.8811 31.7725 28.9359C31.5693 30.1382 31.3494 31.3378 31.1394 32.5396C31.4855 32.5385 31.8317 32.538 32.1778 32.5396C32.4967 30.7446 32.8156 28.949 33.1313 27.1534C32.7161 27.1508 32.3003 27.1519 31.8851 27.1524C31.1494 28.2735 30.4105 29.393 29.6711 30.5115C29.3213 29.3936 28.97 28.2751 28.6202 27.1566C28.207 27.1466 27.7934 27.154 27.3802 27.1524C27.0634 28.9485 26.7419 30.7435 26.4282 32.5401ZM46.415 29.0166C46.1186 29.2443 45.9102 29.5706 45.8028 29.9272C46.1385 29.9266 46.4736 29.9287 46.8093 29.9261C46.991 29.4428 47.6408 29.2883 48.0738 29.5072C48.3126 29.6737 48.287 30.0088 48.243 30.2623C47.5963 30.2817 46.9218 30.1822 46.3034 30.4225C45.8798 30.5749 45.4996 30.9315 45.4316 31.3918C45.3619 31.7505 45.4599 32.1631 45.7636 32.3888C46.1285 32.6595 46.626 32.6668 47.0543 32.5778C47.4371 32.5029 47.7586 32.2553 47.9922 31.951C47.9833 32.1442 47.978 32.338 47.9749 32.5317C48.277 32.5333 48.5792 32.5323 48.8813 32.5323C49.0028 31.8426 49.1243 31.1535 49.2463 30.4644C49.3159 30.0895 49.4076 29.6847 49.2505 29.3182C49.0928 28.916 48.6786 28.684 48.2718 28.6065C47.6345 28.495 46.9297 28.6039 46.415 29.0166ZM33.9388 28.6579C33.7099 29.9512 33.4806 31.2446 33.2539 32.5385C33.5995 32.5385 33.9456 32.5401 34.2917 32.538C34.5174 31.2441 34.7494 29.9512 34.9751 28.6573C34.6295 28.6584 34.2844 28.6573 33.9388 28.6579ZM50.104 28.6579C50.392 29.8544 50.6805 31.0509 50.9643 32.249C51.0418 32.2495 51.1204 32.25 51.1989 32.2516C50.7915 32.9093 50.3815 33.5659 49.9788 34.2267C50.3407 34.2294 50.702 34.2267 51.0638 34.2283C52.1907 32.372 53.3191 30.5168 54.4402 28.6573C54.0726 28.6573 53.7056 28.6589 53.338 28.6563C52.8269 29.535 52.3347 30.4246 51.8168 31.2991C51.621 30.4178 51.4178 29.5386 51.2199 28.6579C50.8476 28.6573 50.4758 28.6579 50.104 28.6579Z" fill="#7E0C6E"/>
<path d="M29.8042 11.6924C30.3645 11.6934 30.9248 11.7023 31.4851 11.7039C31.4374 11.9966 31.3882 12.2888 31.3395 12.5815C31.7123 12.5773 32.0851 12.5705 32.458 12.5768C32.4962 13.1942 32.5664 13.811 32.5873 14.4284C31.274 16.4784 29.9461 18.5201 28.6223 20.5639C28.5317 17.9074 28.4359 15.251 28.3438 12.5951C28.7035 12.5936 29.0632 12.5951 29.4224 12.5941C29.5481 12.293 29.6848 11.9961 29.8042 11.6924Z" fill="#7E0C6E"/>
<path d="M38.1693 11.7118C39.1684 11.6972 40.168 11.7019 41.1677 11.6914C41.1692 11.992 41.1671 12.2925 41.1692 12.5936C41.5264 12.5957 41.8835 12.5931 42.2406 12.5952C40.4723 15.326 38.7055 18.0578 36.9288 20.7828C36.8424 18.0531 36.7445 15.3239 36.6523 12.5947C37.0236 12.5952 37.3949 12.5926 37.7666 12.5963C37.9049 12.3035 38.0332 12.0061 38.1693 11.7118Z" fill="#7E0C6E"/>
<path d="M57.8076 11.6924C59.1801 11.6966 60.5525 11.7023 61.925 11.705C61.8784 11.995 61.8223 12.2841 61.7825 12.5758C62.1596 12.5742 62.5371 12.5752 62.9147 12.5747C62.314 14.5195 61.7014 16.4606 61.0966 18.4038C60.8971 19.0118 60.7321 19.6323 60.5112 20.2324C59.6163 17.3838 58.7088 14.5389 57.8076 11.6924Z" fill="#7E0C6E"/>
<path d="M37.5665 29.5013C37.964 29.3982 38.462 29.5563 38.6128 29.9663C38.8228 30.5601 38.541 31.2833 37.9954 31.5933C37.6069 31.7996 37.0324 31.7828 36.7769 31.378C36.3784 30.701 36.7811 29.672 37.5665 29.5013Z" fill="#7E0C6E"/>
<path d="M42.5955 29.4958C42.9913 29.4016 43.4815 29.5744 43.6213 29.9823C43.7888 30.497 43.6061 31.1013 43.1966 31.4516C42.9348 31.692 42.5483 31.7726 42.2069 31.6909C41.9723 31.6354 41.7891 31.4438 41.698 31.227C41.4445 30.5405 41.8467 29.6404 42.5955 29.4958Z" fill="#7E0C6E"/>
<path d="M46.9334 30.9512C47.3115 30.848 47.71 30.9114 48.0975 30.8962C47.9875 31.3162 47.6781 31.7173 47.2351 31.8068C47.0115 31.8503 46.7193 31.8482 46.5768 31.6403C46.4339 31.3612 46.6475 31.0229 46.9334 30.9512Z" fill="#7E0C6E"/>
<defs>
<filter id="filter0_d_742_2803" x="0.114921" y="0.336191" width="101.77" height="45.7702" filterUnits="userSpaceOnUse" color-interpolation-filters="sRGB">
<feFlood flood-opacity="0" result="BackgroundImageFix"/>
<feColorMatrix in="SourceAlpha" type="matrix" values="0 0 0 0 0 0 0 0 0 0 0 0 0 0 0 0 0 0 127 0" result="hardAlpha"/>
<feOffset dy="1.22127"/>
<feGaussianBlur stdDeviation="2.44254"/>
<feComposite in2="hardAlpha" operator="out"/>
<feColorMatrix type="matrix" values="0 0 0 0 0 0 0 0 0 0 0 0 0 0 0 0 0 0 0.25 0"/>
<feBlend mode="normal" in2="BackgroundImageFix" result="effect1_dropShadow_742_2803"/>
<feBlend mode="normal" in="SourceGraphic" in2="effect1_dropShadow_742_2803" result="shape"/>
</filter>
</defs>
</svg>
