<?xml version="1.0" encoding="UTF-8"?><svg xmlns="http://www.w3.org/2000/svg" width="742.62" height="490.8" xmlns:xlink="http://www.w3.org/1999/xlink" viewBox="0 0 742.62 490.8"><defs><style>.ad{fill:url(#u);}.ae{fill:url(#t);}.af{fill:url(#v);}.ag{fill:url(#e);}.ah{fill:url(#d);}.ai{fill:url(#g);}.aj{fill:url(#f);}.ak{fill:url(#p);}.al{fill:url(#o);}.am{fill:url(#s);}.an{fill:url(#q);}.ao{fill:url(#r);}.ap{fill:url(#i);}.aq{fill:url(#h);}.ar{fill:url(#k);}.as{fill:url(#j);}.at{fill:url(#m);}.au{fill:url(#l);}.av{fill:url(#n);}.aw{fill:url(#x);}.ax{fill:url(#w);}.ay{fill:url(#y);}.b`{fill:url(#aa);}.ba{fill:url(#ab);}.bb{fill:url(#a`);}.bc{fill:url(#ac);}.bd{fill:#006846;}.be,.bf{fill:#fff;}.bg{fill:#62b947;}.bh{fill:#5066ad;}.bf{stroke:#006745;stroke-miterlimit:10;stroke-width:6px;}</style><radialGradient id="d" cx="322.76" cy="244.23" fx="322.76" fy="244.23" r="312.32" gradientTransform="translate(0 476) scale(1 -1)" gradientUnits="userSpaceOnUse"><stop offset="0" stop-color="#f8e652"/><stop offset="1" stop-color="#fcdd00"/></radialGradient><radialGradient id="e" cx="234.76" cy="330.95" fx="234.76" fy="330.95" r="18.16" xlink:href="#d"/><radialGradient id="f" cx="236.06" cy="332.6" fx="236.06" fy="332.6" r="18.49" xlink:href="#d"/><radialGradient id="g" cx="322.32" cy="246.89" fx="322.32" fy="246.89" r="312.35" xlink:href="#d"/><radialGradient id="h" cx="322.66" cy="251.09" fx="322.66" fy="251.09" r="312.41" gradientTransform="translate(-.29 485.3) scale(1 -1.02)" xlink:href="#d"/><linearGradient id="i" x1="359.79" y1="410.75" x2="359.79" y2="201.54" gradientTransform="translate(0 476) scale(1 -1)" gradientUnits="userSpaceOnUse"><stop offset="0" stop-color="#8fc740"/><stop offset=".52" stop-color="#009b4c"/><stop offset="1" stop-color="#006846"/></linearGradient><radialGradient id="j" cx="321.35" fx="321.35" r="312.35" xlink:href="#d"/><radialGradient id="k" cx="319.93" fx="319.93" r="312.37" xlink:href="#d"/><radialGradient id="l" cx="318.51" cy="245.65" fx="318.51" fy="245.65" r="312.35" xlink:href="#d"/><radialGradient id="m" cx="318.51" cy="247.07" fx="318.51" fy="247.07" r="312.35" xlink:href="#d"/><radialGradient id="n" cx="107.76" cy="173.95" fx="107.76" fy="173.95" r="47.23" xlink:href="#d"/><radialGradient id="o" cx="110.36" cy="70.65" fx="110.36" fy="70.65" r="51.58" xlink:href="#d"/><radialGradient id="p" cx="241.66" cy="151.8" fx="241.66" fy="151.8" r="58.42" xlink:href="#d"/><radialGradient id="q" cx="258.91" cy="47.45" fx="258.91" fy="47.45" r="16.9" xlink:href="#d"/><radialGradient id="r" cx="324.78" cy="245.58" fx="324.78" fy="245.58" r="311.4" xlink:href="#d"/><radialGradient id="s" cx="324.18" cy="245.65" fx="324.18" fy="245.65" r="312.35" xlink:href="#d"/><radialGradient id="t" cx="556.21" cy="167.4" fx="556.21" fy="167.4" r="26.04" xlink:href="#d"/><radialGradient id="u" cx="552.51" cy="92.15" fx="552.51" fy="92.15" r="23.45" xlink:href="#d"/><radialGradient id="v" cx="294.45" cy="229.61" fx="294.45" fy="229.61" r="287.63" gradientTransform="translate(0 476) scale(1 -1)" gradientUnits="userSpaceOnUse"><stop offset="0" stop-color="#8fc740"/><stop offset=".52" stop-color="#009b4c"/><stop offset="1" stop-color="#006846"/></radialGradient><radialGradient id="w" cy="229.61" fy="229.61" r="287.63" xlink:href="#v"/><radialGradient id="x" cx="290.19" cy="229.61" fx="290.19" fy="229.61" r="287.63" xlink:href="#v"/><radialGradient id="y" cy="229.61" fy="229.61" r="287.63" xlink:href="#v"/><radialGradient id="a`" cy="229.61" fy="229.61" r="287.63" xlink:href="#v"/><radialGradient id="aa" cy="229.61" fy="229.61" r="287.63" xlink:href="#v"/><radialGradient id="ab" cy="229.61" fy="229.61" r="287.63" xlink:href="#v"/><radialGradient id="ac" cx="299.73" cy="153.33" fx="299.73" fy="153.33" r="215.76" gradientTransform="matrix(1, 0, 0, 1, 0, 0)" xlink:href="#d"/></defs><g id="a"/><g id="b"><g id="c"><path d="M608.42,315.46c1.62-4.41,2.57-9.73-.96-34.27-1.62-11.3-3.49-21.67-3.57-22.1-.94-5.19-4.24-9.66-8.92-12.08-1.27-.66-2.66-1.37-6.37-2.31,.04-.04,.08-.07,.12-.11,3.78-4.06,5.34-9.72,4.17-15.14-.94-4.4-23.41-108.31-47.17-156.54-2.6-5.28-7.74-8.83-13.59-9.41l-32.6-3.2c-.56-.05-1.11-.08-1.66-.08-5.24,0-10.23,2.42-13.47,6.63-2.64,3.42-3.83,7.67-3.46,11.86l-.82,2.69-3.42-12.85c-1.87-7.01-7.97-12.06-15.2-12.58l-23.5-1.7c-.41-.03-.82-.04-1.23-.04-4.94,0-9.66,2.15-12.9,5.93-3.51,4.09-4.87,9.6-3.68,14.85,.17,.75,11.24,49.97,15.41,105.04-1.81,2.61-2.92,5.74-3.03,9.13-.59,18.28-1.54,40.2-2.07,44.48-.78,3.86-.18,7.84,1.65,11.3-4.38,2.37-15.85,6.86-42.21,8.92-2.2,.17-4.29,.77-6.19,1.71l-4.81,.99c-5.78,1.19-10.52,5.28-12.55,10.82l-12.09,33.13-9.96-24.83c-2.62-6.53-8.93-10.67-15.77-10.67-1,0-2.01,.09-3.03,.27l-23.68,4.27,1.36-27.89c.03-.38,.04-.77,.04-1.15,0-1.65-.25-3.24-.69-4.75,.62-1.86,.93-3.82,.88-5.81l-.5-18.3s0-.03,0-.04c-.12-5.71-1.46-58.54-6.95-75.14-.09-.27-.18-.53-.28-.79l-29.1-75.2c-2.53-6.55-8.83-10.86-15.85-10.86h-13.5c-6.31,0-12.09,3.49-15.03,9.07l-36.6,69.36c-1.61-8.28-4.12-15.74-5.55-19.64-.48-2.91-1.16-6-2.15-9.18-6.17-19.9-20.92-33.54-41.55-38.43-1.56-.38-5.96-1.29-12.59-1.29h0c-16.32,0-49.12,5.62-85.53,43.19-.56,.56-1.4,1.42-2.27,2.52-4.04,4.93-16.97,21.62-25.33,42.67C.07,174.53,1.88,194.92,7.89,209.81c2.99,9.32,9.98,19.46,21.34,30.95,.04,.04,.07,.07,.11,.11,.65,.64,3.14,3.03,7.33,6.02-9.44,1.56-17.42,3.03-22.61,4.29-7.23,1.75-12.49,8-12.97,15.43-.38,5.83-8.78,143.49,27.73,214.93,2.93,5.74,8.82,9.27,15.13,9.27,.8,0,1.61-.06,2.42-.17l44.7-6.4c2-.29,3.9-.94,5.63-1.88l12.31-2.09c4.6-.78,8.67-3.42,11.27-7.29,2.6-3.87,3.49-8.64,2.47-13.19l-9.54-42.47c11.81-1.59,23.28-3.57,30.85-4.94,.05,.47,.1,.95,.19,1.42l8.9,48.3c1.04,5.62,4.83,10.35,10.09,12.58,2.13,.9,4.38,1.34,6.62,1.34,1.85,0,3.7-.3,5.47-.9,8.04-1.39,48.66-4.02,84.49-5.82,4.57-.23,8.86-2.29,11.89-5.72,.27-.3,.51-.62,.75-.94l.71-.49c4.99-3.42,7.8-9.23,7.36-15.27l-2.9-39.8c-.44-5.98-3.99-11.29-9.35-13.97l-1.01-.5c-2.55-2.45-5.84-4.12-9.49-4.62l-4.16-70.27,5.33-.46c2.09-.18,4.06-.75,5.86-1.61,25.68,63.11,48.92,123.15,50.98,134.15,.29,7.43,5.42,13.9,12.75,15.79l9.38,2.42c2.44,1.61,5.32,2.62,8.4,2.79l19.5,1.1c.32,.02,.64,.03,.96,.03,6.7,0,12.82-3.95,15.55-10.13,.19-.44,19.71-44.67,39.54-91.67,5.85-13.86,10.9-26.01,15.27-36.68,.58,42.88-.89,89.82-8.26,110.34-3.09,8.61,1.18,18.12,9.67,21.52l14.05,5.64c2.1,1.31,4.47,2.17,6.98,2.47l113.5,13.4c.67,.08,1.34,.12,2.01,.12,7.59,0,14.37-5.08,16.4-12.56l12.4-45.8c1.27-4.69,.47-9.69-2.18-13.75-2.66-4.06-6.92-6.79-11.73-7.51l-14.48-2.15,11.39-3.44c3.31-.35,6.48-1.66,9.08-3.83,3.6-3,5.81-7.36,6.09-12.04l2.8-46.5c.33-5.52-2.01-10.62-5.96-13.98,4.32-1.76,7.86-5.27,9.55-9.89Z" style="fill:#fff;"/><polygon points="382.36 273.2 354.66 349.1 359.36 361.2 393.06 271 382.36 273.2" style="fill:url(#d);"/><polygon points="237.26 125.2 218.46 164.9 244.56 163.5 233.76 163.5 239.06 147.9 245.76 163.5 251.06 163.2 237.26 125.2" style="fill:url(#e);"/><path d="M237.26,125.2l13.8,38-5.3,.3-6.7-15.6-5.3,15.6h10.8l-26.1,1.4,18.8-39.7m0-17c-6.54,0-12.54,3.77-15.36,9.72l-18.8,39.7c-2.56,5.41-2.09,11.78,1.25,16.75,3.17,4.72,8.47,7.53,14.11,7.53,.3,0,.61,0,.91-.02l25.82-1.38c.19,0,.38,0,.57,0,.32,0,.64,0,.97-.03l5.3-.3c5.37-.3,10.27-3.13,13.23-7.61s3.62-10.11,1.79-15.16l-13.8-38c-2.34-6.45-8.33-10.86-15.18-11.18-.27-.01-.54-.02-.8-.02h0Z" style="fill:#fff;"/><polygon points="238.56 123.2 219.46 163.6 246.06 162.2 234.96 162.2 240.36 146.3 247.26 162.1 252.66 161.8 238.56 123.2" style="fill:url(#f);"/><path d="M163.76,113.3s8.2,21.6,6,33l-33,3.2-3.9-14.5s-17.4-17.7-46.8,8.5c0,0-17,22-13.8,47.2,0,0-33.7-17,7.5-68.1,0,0,39.7-35.1,49.3,4.3l34.4-3.5,.3-10.1Z" style="fill:url(#g);"/><polygon points="158.56 219.5 168.86 237.2 204.06 234.7 212.56 215.9 264.06 212.3 274.36 230.7 286.46 230.4 285.96 212.1 271.96 212 263.36 193.3 205.86 196.1 195.86 216.6 158.56 219.5" style="fill:url(#h);"/><g><path d="M249.86,0l176.1,10.4c1,.1,1.9,.7,2.3,1.7,5.1,14.8,43.2,123.9,19.9,243.3-.2,1.1-1.6,6.7-2.7,6.9l-160.2,27.4c-1.7,.3-3.1-1.1-3-2.7,1.8-22.3,10.3-153.7-35-283.5-.6-1.8,.8-3.6,2.6-3.5Z" style="fill:#fff;"/><path d="M268.26,28.5l149.3,6.2c.9,0,1.7,.6,2,1.4,4.6,12.4,38,108.5,20,210-.2,.9-.9,1.6-1.8,1.8l-135.3,25.6c-1.4,.3-2.7-.9-2.6-2.3,1.2-18.9,6.4-130.4-33.8-239.8-.5-1.4,.6-2.9,2.2-2.9Z" style="fill:#fff; stroke:#006745; stroke-miterlimit:10; stroke-width:6px;"/><path d="M299.66,39.8l91.9,2.8s-3.5,19.9,23.1,17.4c0,0,23.8,94.4,16,168.2,0,0-22-.7-19.5,17.4l-81.6,13.8s7.5-20.9-17-12.1c0,0,5-96.5-25.2-189.1-.2,.1,28.6,7.9,12.3-18.4Z" style="fill:url(#i);"/><path d="M355.36,59.4h-16.7l4.6,18.1s-15.3,0-37.3-7.5c0,0,16.7,71.3,13.8,79.5l19.9,.7s9.6-15.3,26.6-7c7.8,3.8,13.3,11.1,15.5,19.5,2.4,9.5,3,23.4-8.1,35.4-4,4.3-9.3,7.3-15.1,8-5.5,.7-12.4-.3-18.1-6.9,0,0,16.5-3.5,13.1-19.8-1.2-6-4.9-11.4-10.4-14.4-5-2.7-12-4.1-19,2.7-2.2,2.1-3.6,4.9-4.2,8-2.3,12.6-5,49.1,43.2,48.9l1.7,18.9,14.5-2.1-1.2-19.9s24.5-6.6,35-27c0,0,22.5-37.1-17.2-64.2,0,0-34.6-21.6-59.4-4.1,0,0-2.1-20.6-4.3-22.2,0,0,32.6,15.9,63.7-5.5,2.1-1.5,4-3.4,5.1-5.8,1.6-3.4,2.2-8.2-4.2-11.7l-36-1.2-5.5-20.4Z" style="fill:#006846;"/><path d="M357.56,55.7h-16.7l4.6,18.1s-15.3,0-37.3-7.5c0,0,16.7,71.3,13.8,79.5l19.9,.7s9.6-15.3,26.6-7c7.8,3.8,13.3,11.1,15.5,19.5,2.4,9.5,3,23.4-8.1,35.4-4,4.3-9.3,7.3-15.1,8-5.5,.7-12.4-.3-18.1-6.9,0,0,16.5-3.5,13.1-19.8-1.2-6-4.9-11.4-10.4-14.4-5-2.7-12-4.1-19,2.7-2.2,2.1-3.6,4.9-4.2,8-2.3,12.6-5,49.1,43.2,48.9l1.7,18.9,14.5-2.1-1.2-19.9s24.5-6.6,35-27c0,0,22.5-37.1-17.2-64.2,0,0-34.6-21.6-59.4-4.1,0,0-2.1-20.6-4.3-22.2,0,0,32.6,15.9,63.7-5.5,2.1-1.5,4-3.4,5.1-5.8,1.6-3.4,2.2-8.2-4.2-11.7l-36-1.2-5.5-20.4Z" style="fill:url(#j);"/></g><polygon points="498.76 78.5 490.26 106.4 496.86 127.2 516.76 131.5 498.76 78.5" style="fill:url(#k);"/><path d="M449.56,189.7s-1.4,43.5-2.4,47.3l29.8,2.4,14.7-17-37.8-4.3-4.3-28.4Z" style="fill:url(#l);"/><path d="M484.46,181.4l-3.2-22.9,44.4,5.2s13.8,55.3,12.4,63.4l37.8,4.7-21.8,16.1-37.4-6.1-9.5-58.7-22.7-1.7Z" style="fill:url(#m);"/><polygon points="135.86 251.2 151.06 265.8 150.06 310.3 85.26 319.8 86.26 350 65.86 352.9 64.46 307.5 136.56 297.2 135.86 251.2" style="fill:url(#n);"/><path d="M127.86,343.9l18,8.5s.5,34.5,3.8,41.6c0,0-33.1,6.6-57.2,8.5l13.7,61-19.4,3.3-15.7-66.1,61-9-4.2-47.8Z" style="fill:url(#o);"/><path d="M249.46,243.1l7.1,15.6,.9,41.6-21.8,1.9,6.1,103.1h-11.2l-4.7-116.8,24.1-.9s-1-37.9-.5-44.5Z" style="fill:url(#p);"/><polygon points="254.26 405.1 260.66 408.3 263.56 448.1 257.86 452 254.26 405.1" style="fill:url(#q);"/><path d="M264.96,249.4l-.7,20.2s69.2,166.8,68.5,179.5l16.7,4.3c-.1,0-51.9-137-84.5-204Z" style="fill:url(#r);"/><path d="M470.76,247.6l-19.5,12.4s9.9,144.1-6.4,189.5l17.7,7.1s24.8-50,8.2-209Z" style="fill:url(#s);"/><polygon points="591.36 308.6 565.76 319.6 521.06 312.9 521.06 297.6 591.36 308.6" style="fill:url(#t);"/><polygon points="521.46 375.7 520.36 386.3 560.16 392 584.66 384.6 521.46 375.7" style="fill:url(#u);"/><path d="M129.36,128.6l34.5-3.8s4.7-39-31.5-47.5c0,0-36.6-9.6-82,37.3-.4,.4-.8,.8-1.1,1.2C43.66,122.6,.06,177.8,31.16,216.1c0,0,35.8,39.3,99.3-7.2,0,0,18.8-11.7,28-47.5l-35.5,3.9s-10.1,25.1-33.8,28c-16.9,2-31.6-11.5-30-28.5,.9-9.4,5.7-21.6,18.1-37.3,5.3-6.7,12-12.3,19.8-15.9,11.8-5.5,27.3-7.4,32.3,17Z" style="fill:url(#v);"/><path d="M279.86,141.8l-29.1-75.2h-13.5l-78.1,148-.7,5.7,38-3.2,8.9-20.6,58.2-2.1,8.2,18.1,14.2-.4s-1.4-56.1-6.1-70.3Zm-32.6,20.3h-1.2l-26.1,1.4,18.8-39.7,13.8,38-5.3,.3h0Z" style="fill:url(#w);"/><path d="M436.76,71.2s17.4,76.3,17.4,147.6l38.3,3.2-10.6-62.1,43.6,5,12.8,62.8,38,5.3s-22.7-105.7-45.8-152.6l-32.6-3.2s17.4,46.8,17.4,51.8l-41.2-4.3-13.8-51.8-23.5-1.7Z" style="fill:url(#x);"/><path d="M137.96,250s-95.1,11.7-119.9,17.7c0,0-8.9,138,25.9,206.1l44.7-6.4s-15.6-61-15.6-67.4l60.7-8.2-4.3-48.3-62.1,8.5-1.1-45.1,70.3-9.9,1.4-47Z" style="fill:url(#y);"/><path d="M156.76,247.6s78.8-6.7,92.6-5.7l1.1,45.8-22.7,1.4,4.6,116.4,23.1-.7,3.5,47.5s-85.5,4.3-89.1,6.7l-8.9-48.3,23.8-2.1s-8.9-107.2-5.7-116.7l-22.7,2.5,.4-46.8Z" style="fill:url(#a`);"/><path d="M286.26,240.5l-21.3,.7-.4,8.2s78.1,179.2,82.7,204.4l19.5,1.1s77.7-176,82.3-203.3c0,0-2.8,14.9-57.8,19.2l-31.6,88.7-31.1-77.5-31.6,5.7s-13.5-1.1-12.4-12.4l1.7-34.8Z" style="fill:url(#aa);"/><path d="M468.26,246.5s110,11,118.9,15.6c0,0,7.5,41.5,5.3,47.5l-71-9.9,.4,28.7,66,9.9-2.8,46.5-63.9-7.8-5,36.5,71.3,10.6-12.4,45.8-113.5-13.4s23.1-125.2,6.7-210Z" style="fill:url(#ab);"/><g><circle cx="681.56" cy="417.84" r="55.7" style="fill:#62b947;"/><path d="M681.56,362.14c30.76,0,55.7,24.94,55.7,55.7s-24.94,55.7-55.7,55.7-55.7-24.94-55.7-55.7,24.94-55.7,55.7-55.7m0-5.36c-33.67,0-61.06,27.39-61.06,61.06s27.39,61.06,61.06,61.06,61.06-27.39,61.06-61.06-27.39-61.06-61.06-61.06h0Z" style="fill:#fff;"/><circle cx="681.6" cy="417.78" r="48.73" style="fill:#fff;"/><g><path d="M671.52,443.19c-.36,.14-.63,.34-.82,.61-.19,.26-.28,.54-.28,.86,0,.49,.2,.89,.62,1.22,.43,.35,1.1,.52,1.97,.52s1.69-.18,2.38-.53c.67-.34,1.17-.81,1.48-1.4,.24-.45,.36-1.14,.36-2.07v-.35c-.89,.27-2.12,.51-3.64,.71-.98,.13-1.68,.27-2.07,.42Z" style="fill:#5066ad;"/><path d="M727,417.96c0-8.46-2.32-16.37-6.36-23.14-2.9,3.81-8.5,11.11-8.5,11.11l-10.16,12.2h17.46v10.18h-37.59v-12c5.45-5.45,11.12-11.12,17.19-17.2h-15.17v-10.82h32.06c-8.31-9.57-20.55-15.64-34.22-15.64s-26.17,6.19-34.48,15.94h30.8v10.53h-20.48v5.32h20.39v8.79c-6.83,0-20.22,.02-20.22,.02v4.99h20.12v10.14h-34.61v-34.16c-1.36,2.69-2.69,5.13-3.8,7.48-1.94,5.04-3.01,10.52-3.01,16.24,0,9.68,3.05,18.65,8.22,26.01v-9.25h2.87v1.27c.38-.37,.83-.69,1.33-.95,.8-.41,1.72-.62,2.74-.62,1.13,0,2.08,.22,2.82,.65,.59,.34,1.04,.8,1.36,1.36,1.16-1.33,2.65-2.01,4.41-2.01,1.52,0,2.72,.39,3.55,1.17,.84,.78,1.27,1.98,1.27,3.57v9.34h-3.12v-8.59c0-1.05-.12-1.55-.21-1.79-.13-.32-.37-.58-.72-.78-.37-.21-.81-.31-1.31-.31-.94,0-1.7,.27-2.32,.83-.6,.54-.9,1.45-.9,2.7v7.95h-3.13v-8.85c0-.9-.18-1.58-.53-2.01-.33-.41-.91-.62-1.71-.62-.63,0-1.22,.15-1.76,.45-.53,.29-.9,.71-1.13,1.28-.25,.59-.37,1.47-.37,2.61v6.58c8.3,9.39,20.43,15.32,33.95,15.32s25.17-5.69,33.45-14.76h-.47v-8.64c0-1.01-.23-1.74-.7-2.18-.47-.44-1.15-.67-2.03-.67-.67,0-1.31,.16-1.9,.47-.58,.31-.98,.71-1.23,1.23-.25,.54-.38,1.3-.38,2.28v7.51h-3.13v-18.77h3.13v6.06c1.11-.91,2.46-1.37,4.01-1.37,1.12,0,2.11,.2,2.95,.61,.86,.41,1.48,1,1.86,1.74,.37,.73,.55,1.74,.55,3.09v5.44c5.76-7.6,9.18-17.07,9.18-27.34Zm-48.94,30.54l-.1-.17c-.2-.35-.34-.75-.44-1.19-.78,.55-1.55,.96-2.28,1.21-.88,.3-1.83,.45-2.82,.45-1.67,0-2.98-.38-3.89-1.13-.93-.77-1.41-1.76-1.41-2.96,0-.7,.18-1.35,.53-1.93,.35-.57,.82-1.04,1.38-1.39,.55-.34,1.18-.59,1.86-.77,.5-.12,1.25-.23,2.23-.34,1.8-.19,3.18-.42,4.1-.68,0-.16,0-.27,0-.33,0-.79-.19-1.35-.57-1.65-.57-.45-1.44-.68-2.59-.68-1.09,0-1.89,.17-2.38,.49-.48,.32-.85,.91-1.09,1.76l-.08,.28-3.06-.38,.09-.36c.23-.98,.62-1.79,1.15-2.4,.54-.62,1.32-1.09,2.32-1.42,.98-.32,2.12-.48,3.4-.48s2.32,.14,3.13,.41c.82,.28,1.45,.65,1.85,1.09,.4,.44,.69,1,.84,1.66,.09,.41,.13,1.11,.13,2.13v2.96c0,2.04,.05,3.33,.15,3.86,.1,.5,.29,1,.58,1.46l.32,.51h-3.37Zm11.6-.03c-.71,.13-1.36,.2-1.92,.2-.96,0-1.69-.14-2.23-.42-.56-.29-.96-.68-1.19-1.16-.23-.47-.33-1.37-.33-2.77v-7.21h-1.81v-2.4h1.81v-3.11l3.12-1.7v4.81h2.48v2.4h-2.48v7.33c0,.81,.07,1.03,.1,1.08,.06,.12,.15,.21,.28,.28,.17,.09,.65,.17,1.72,.04l.32-.04,.47,2.6-.33,.06Zm14.22-4.77c-.28,1.58-1,2.84-2.16,3.74-1.14,.89-2.56,1.35-4.22,1.35-2.07,0-3.76-.62-5.03-1.85-1.27-1.23-1.91-3.01-1.91-5.28,0-1.46,.27-2.76,.81-3.86,.55-1.12,1.4-1.98,2.52-2.54,1.1-.55,2.32-.83,3.62-.83,1.64,0,3.01,.38,4.07,1.14,1.07,.77,1.76,1.87,2.06,3.27l.07,.35-3.05,.42-.08-.29c-.21-.8-.57-1.41-1.09-1.81-.52-.4-1.14-.6-1.9-.6-1.16,0-2.07,.36-2.78,1.1-.71,.73-1.07,1.94-1.07,3.58s.35,2.88,1.03,3.61c.69,.73,1.56,1.09,2.68,1.09,.89,0,1.62-.24,2.21-.73,.58-.48,.95-1.24,1.11-2.26l.05-.32,3.09,.36-.06,.35Z" style="fill:#5066ad;"/></g><path d="M631.29,413.63v8.59h-8.16v10.21h-8.15l-.32-10.04h-8.82v-8.29h8.49v-8.33h8.59v7.87h8.38Z" style="fill:#5066ad;"/><path d="M622.92,405.76v7.87h8.38v8.59h-8.16v10.21h-8.15l-.32-10.04h-8.82v-8.29h8.49v-8.33h8.59m3.35-7.35h-18.29v8.33h-8.49v21.99h8.92l.32,10.04h17.75v-10.21h8.16v-22.12h-8.38v-8.04Z" style="fill:#fff;"/></g><path d="M158.46,161.4c-9.2,35.8-28,47.5-28,47.5-63.5,46.5-99.3,7.2-99.3,7.2-3.19-3.92-5.58-8.03-7.32-12.24,1.73,6.1,6.92,14.25,17.48,24.94,0,0,42.68,42.4,103.38-5.32,0,0,14.72-13.58,23.92-49.38l-10.16-12.71Z" style="fill:url(#ac);"/></g></g></svg>