<?xml version="1.0" encoding="UTF-8"?><svg id="uuid-18e30dba-1e2c-4217-b933-9949be1b01f5" xmlns="http://www.w3.org/2000/svg" width="177.88" height="109.28" xmlns:xlink="http://www.w3.org/1999/xlink" viewBox="0 0 177.88 109.28"><defs><linearGradient id="uuid-da9dbf73-d0bd-4a1c-8702-5fc8e892619c" x1="99.03" y1="106.02" x2="99.03" y2="39.94" gradientUnits="userSpaceOnUse"><stop offset="0" stop-color="#d127d5"/><stop offset="1" stop-color="#459de5"/></linearGradient><linearGradient id="uuid-38a28493-cd2b-4839-ac5e-2b48d9131421" x1="155.7" y1="83.45" x2="155.7" y2="37.34" xlink:href="#uuid-da9dbf73-d0bd-4a1c-8702-5fc8e892619c"/><linearGradient id="uuid-c88c1af8-888a-4344-b207-9c4d4edb4d75" x1="40.53" y1="83.45" x2="40.53" y2="37.34" xlink:href="#uuid-da9dbf73-d0bd-4a1c-8702-5fc8e892619c"/><linearGradient id="uuid-ce0fc61a-7ff4-4152-960a-1c7760bdd5a5" x1="16.99" y1="102.46" x2="16.99" y2="37.17" gradientUnits="userSpaceOnUse"><stop offset="0" stop-color="#1bdcef"/><stop offset="1" stop-color="#6ee8f5"/></linearGradient><linearGradient id="uuid-b4b8b26d-0ff1-4cd8-aa5d-1e8b79cf543b" x1="130.05" y1="101.86" x2="130.05" y2="37.18" xlink:href="#uuid-ce0fc61a-7ff4-4152-960a-1c7760bdd5a5"/><linearGradient id="uuid-b6232a8c-1cf6-4b21-96f6-6334488ae461" x1="64.5" y1="92.7" x2="64.5" y2="92.7" xlink:href="#uuid-ce0fc61a-7ff4-4152-960a-1c7760bdd5a5"/><linearGradient id="uuid-c332c3da-08da-4987-a0cf-b3c935734143" x1="63.22" y1="93.34" x2="63.22" y2="93.33" xlink:href="#uuid-ce0fc61a-7ff4-4152-960a-1c7760bdd5a5"/><linearGradient id="uuid-c870608d-c305-4313-9794-b1677a2c0695" x1="62.26" y1="93.02" x2="62.26" y2="93.02" xlink:href="#uuid-ce0fc61a-7ff4-4152-960a-1c7760bdd5a5"/><linearGradient id="uuid-5e374012-cfd0-4c0f-bdcb-415965a10466" x1="74.84" y1="106.01" x2="74.84" y2="36.83" xlink:href="#uuid-ce0fc61a-7ff4-4152-960a-1c7760bdd5a5"/><linearGradient id="uuid-8d8b5ca3-0328-41c4-8b68-30ccafe4a32a" x1="80.19" y1="106.07" x2="80.19" y2="38.88" gradientUnits="userSpaceOnUse"><stop offset="0" stop-color="#1bdcef"/><stop offset="1" stop-color="#0095c7"/></linearGradient><linearGradient id="uuid-73d7393f-9e93-4d04-9f7b-b17481ff10a9" x1="85.41" y1="97.38" x2="93.64" y2="97.38" xlink:href="#uuid-ce0fc61a-7ff4-4152-960a-1c7760bdd5a5"/><linearGradient id="uuid-a795f3ca-ed40-4d2f-b062-bef8205eb2ce" x1="22.19" y1="105.8" x2="22.19" y2="37.16" xlink:href="#uuid-8d8b5ca3-0328-41c4-8b68-30ccafe4a32a"/><linearGradient id="uuid-3c021082-be24-40cb-b0f5-6f5fc50c6994" x1="135.42" y1="105.77" x2="135.42" y2="37.17" xlink:href="#uuid-8d8b5ca3-0328-41c4-8b68-30ccafe4a32a"/><linearGradient id="uuid-eb014051-dee2-4337-8627-a116c37bb120" x1="93.63" y1="97.88" x2="93.63" y2="97.81" xlink:href="#uuid-ce0fc61a-7ff4-4152-960a-1c7760bdd5a5"/><linearGradient id="uuid-5d7b31a3-26cc-43bd-bc2c-6c43851b2881" x1="140.06" y1="83.45" x2="140.06" y2="66.36" gradientUnits="userSpaceOnUse"><stop offset="0" stop-color="#953acf"/><stop offset="1" stop-color="#5448c5"/></linearGradient><linearGradient id="uuid-8c8f65d7-37a0-4e67-99ba-27aee0a18dd9" x1="26.94" y1="83.45" x2="26.94" y2="66.36" xlink:href="#uuid-5d7b31a3-26cc-43bd-bc2c-6c43851b2881"/><linearGradient id="uuid-bb34b458-d9d5-467b-82b9-4d0f910c77dd" x1="145.11" y1="54.23" x2="145.11" y2="37.7" gradientUnits="userSpaceOnUse"><stop offset="0" stop-color="#2548ba"/><stop offset="1" stop-color="#113ab1"/></linearGradient><linearGradient id="uuid-2bd99485-081a-4444-a5da-a2bb499f951d" x1="32.31" y1="54.26" x2="32.31" y2="37.43" xlink:href="#uuid-bb34b458-d9d5-467b-82b9-4d0f910c77dd"/><linearGradient id="uuid-7d88112d-f71f-4797-b9ab-262b6c7220bb" x1="69.27" y1="53.07" x2="100.54" y2="53.07" xlink:href="#uuid-bb34b458-d9d5-467b-82b9-4d0f910c77dd"/><linearGradient id="uuid-d625a260-3260-4c4a-a75b-54a15b59a888" x1="67.68" y1="65.72" x2="86.95" y2="65.72" xlink:href="#uuid-ce0fc61a-7ff4-4152-960a-1c7760bdd5a5"/></defs><g id="uuid-9cfc2562-4e62-4a92-ab20-4b039a13bd2e"><path d="m177.77,57v-.05s-.01-.05-.01-.05l-.04-.37v-.11s-.02-.18-.02-.18c-.17-3.11-.93-6.23-2.31-9.54v-.03s-.02-.03-.02-.03c-.61-1.4-1.34-2.69-2.18-3.88,1.74-.8,2.93-2.4,2.93-4.25,0-2.65-2.44-4.8-5.46-4.8-2.11,0-3.94,1.06-4.85,2.6-1.29-.71-2.64-1.33-4.05-1.82h-.03s-.03-.02-.03-.02c-3.19-1.05-5.94-1.59-8.65-1.7l-1.02-.09h-.1s-.1-.01-.1-.01h-.07s-.38-.02-.38-.02h-.07s-.08-.01-.08-.01h-.06s-.08-.02-.08-.02h-.08s-.21-.03-.21-.03h-.22s-7.23.09-7.23.09c-1.03,0-2.06-.02-3.1-.03-1.01-.01-2.02-.02-3.03-.02.37-.26.71-.56,1.03-.9,3.32-3.55,2.87-10.42,2.43-17.06-.15-2.35-.35-5.28-.14-6.22l.09-.41v-.42c.02-1.97-.71-3.8-2.04-5.14-1.39-1.39-3.29-2.16-5.37-2.16-.31,0-.63.02-.95.05h-.05s-.05.01-.05.01c-3.06.42-5.27,2.33-6.08,5.25-.39,1.4-.41,2.84-.35,4.2h-2.12c.05-3.31-.5-8.51-6.22-9.43h-.03s-.03,0-.03,0c-.39-.06-.78-.09-1.18-.09h0c-2.13,0-4.14.81-5.52,2.21-.34.34-.62.72-.87,1.11C106.99,1.33,102.94,0,98.61,0c-4.95,0-9.39,1.68-12.18,4.62-.46.48-.85.99-1.21,1.52-.24-.31-.49-.62-.76-.91-2.99-3.24-7.55-5.1-12.52-5.1-5.31,0-9.75,2.06-12.53,5.46C56.68,2.23,51.56.3,48.19.12c-.58-.05-1.16-.08-1.74-.08h0c-4.88,0-9.58,1.95-12.89,5.35-2.9,2.98-4.47,6.82-4.42,10.84,0,.09,0,.18,0,.27v.06c0,.21,0,.42,0,.63,0,.09,0,.19,0,.27-.12,4.48,1.31,8.36,4.15,11.28,1.73,1.78,3.97,3.14,6.5,4.03l-1.56-.1-.12-.02-.14-.02h-.14s0-.01,0-.01h-.07s-.19-.02-.19-.02h-.19s-3.42.04-3.42.04l-3.29.03h-.06s-.06,0-.06,0h-.09s-.03,0-.03,0h-.03s-.13,0-.13,0h-.05c-.99,0-1.98-.02-2.97-.03-1.62-.02-3.3-.04-4.96-.04-.9,0-1.79,0-2.68.02-2.55.05-4.77.48-6.8,1.33-4.69,1.64-8.3,4.7-10.72,9.1C.05,46.73-.02,50.51.07,54.07c.06,2.22.03,4.52,0,6.75-.01,1.01-.02,2.03-.03,3.04v11.29s-.01,4.84-.01,4.84v4.25c-.01,3.71-.02,7.42-.03,11.14,0,2.1.4,4.14,1.22,6.05l.05.11.06.11c.03.05.05.11.08.16.14.3.34.75.67,1.23,2.69,3.93,7.03,6.18,11.91,6.18,1.79,0,3.57-.31,5.31-.92.29-.03.58-.09.85-.18,5.03-1.59,8.55-6.39,8.57-11.67.01-3.17.01-6.34.02-9.52v-.08s1.44,0,1.44,0c2.93,0,8.82-.01,8.82-.01h.23s.23-.03.23-.03c.61-.07,5.5-.67,8.97-1.74.37,1.03.78,2.04,1.24,3.04,1.65,3.55,3.58,6.5,5.91,9.01l.06.07.07.07c9.21,9.02,19.64,11.31,25.19,11.86.63.11,1.75.16,4.86.16,1.96,0,3.84-.02,3.84-.02h.24s.24-.03.24-.03c.49-.06,4.82-.65,7.2-1.29,6.2-1.67,11.65-4.72,16.23-9.02.15.6.32,1.19.54,1.78l.02.06.11.28c1.4,4.24,6.13,7.62,11.36,8.09h.13s.24.04.24.04h.11s.11.02.11.02h.09s.17.01.17.01h.17s.67-.02.67-.02l.91-.02h.06s.06,0,.06,0h.1s.07,0,.07,0h.1s.1-.02.1-.02c1.26-.13,2.46-.39,3.6-.75.45-.03.88-.12,1.3-.28,5.2-1.99,8.32-6.52,8.34-12.12.01-3.03.01-6.07.02-9.1h.74s.81,0,.81,0h.77s8.09,0,8.09,0h.18s.18-.02.18-.02c3.81-.34,8.79-1.09,13.49-3.84,4.6-2.7,7.86-6.51,9.69-11.32.83-2.19,1.42-4.57,1.79-7.26v-.03s0-.03,0-.03c.32-2.6.38-5.01.18-7.38Z" style="fill:#fff;"/><path d="m77.02,25.5c0-.79,0-1.59.01-2.38,0-.03,0-.06,0-.09-.05-.05-.1-.15-.15-.15-3.33,0-6.66,0-10.06,0,0,1.32.02,2.59,0,3.86-.03,1.66-1.14,2.88-2.79,3.1l-.57.03s-.09,0-.14,0c-.09,0-.17-.01-.26-.02-1.71-.16-2.99-1.38-2.99-3.2-.02-4.1-.21-8.21.13-12.3.01-.08.02-.17.03-.25.01-.07.02-.15.04-.22,0-.03,0-.06,0-.09.43-5.41,4.66-9.3,10.45-9.66,3.26-.21,6.36.27,9.04,2.23,3.09,2.26,4.04,5.59,4.15,9.18.11,3.59.04,7.18.02,10.77,0,2.05-1.13,3.38-2.96,3.53-.19,0-.38.01-.57.02-1.85-.06-3.08-1.15-3.28-2.9-.02-.14-.04-.27-.06-.41,0-.31-.02-.63-.03-.94,0-.03,0-.07,0-.1Zm-.03-10.12s.02-.02.02-.03c0-.02-.02-.04-.03-.07-.19-3.13-1.99-4.86-5.08-4.88-2.92-.02-4.81,1.73-5.01,4.64,0,0-.02.02-.02.02,0,.02.01.04.02.06,0,.61.01,1.22.02,1.82.13.02.27.04.4.06,3.11,0,6.22,0,9.33,0,.11-.02.22-.03.33-.05.02-.34.05-.69.07-1.03-.01-.14-.02-.28-.04-.41,0-.05,0-.1,0-.14Z" style="fill:#00d7ed;"/><path d="m87.2,12.98c0-.08,0-.15,0-.23.02-.22.04-.43.06-.65.16-4.02,3.24-7.01,7.97-7.73.67-.1,1.34-.17,2.01-.26.09,0,.18-.02.26-.03,3.58-.1,7.02.37,9.85,2.8.94.81,1.11,2.01.78,3.22-.32,1.2-1.11,1.92-2.34,2.16-.27.02-.54.04-.81.07-.05,0-.1,0-.15,0-.08,0-.17,0-.25,0-2.3-1.02-4.45-2.52-7.15-2.22-1.32.15-2.7.23-3.27,1.76-.07.19-.03.41-.04.62,0,0-.02.02-.01.03,0,.02.02.04.03.05.83,1.33,2.24,1.22,3.5,1.25,2.5.07,4.99.15,7.38,1,3.03,1.08,4.31,3.18,4.32,7,0,.03,0,.06,0,.1,0,.08,0,.15,0,.23,0,.03,0,.06,0,.09-.14,4.14-3.33,7.13-8.17,7.66-.66.07-1.32.11-1.98.17-.03,0-.06,0-.09,0-.08,0-.15,0-.23,0-.03,0-.06,0-.09,0-.39,0-.79.01-1.18.02-.14,0-.28,0-.42-.01-.13,0-.26,0-.39,0-.08,0-.16,0-.25,0-3.16-.22-6.14-.92-8.55-3.14-1.09-1-1.4-2.25-.95-3.64.38-1.16,1.2-1.88,2.45-2.01.03,0,.07-.01.1-.02.05,0,.09-.01.14-.02.03,0,.06,0,.1,0,.99,0,1.83.41,2.6.98,2.03,1.51,4.34,1.98,6.81,1.86.03,0,.06,0,.09,0,.05,0,.1,0,.14-.01.11-.02.22-.03.33-.05.51-.14,1.04-.24,1.52-.44.77-.33,1.14-.96,1.11-1.81-.03-.8-.61-1.07-1.26-1.22-.58-.14-1.17-.2-1.76-.3-.03,0-.07,0-.1,0-.07,0-.14-.01-.21-.02-.04,0-.07,0-.11-.01-.1,0-.2,0-.3-.01-.06,0-.11,0-.17,0-.16,0-.31-.01-.47-.02-.43-.01-.87-.03-1.3-.04-.07,0-.14,0-.2,0-.04,0-.08,0-.11,0-.07,0-.14,0-.21-.01-.03,0-.06,0-.1,0-3.01-.25-5.99-.58-7.91-3.38-.65-.94-.86-2.04-.97-3.16,0-.06-.02-.12-.03-.18,0-.08,0-.15-.01-.23,0-.06,0-.11,0-.17Z" style="fill:#00d7ed;"/><path d="m132.87,29.85c-1.96-.17-3.17-1.5-3.19-3.48-.01-2.05-.04-4.1-.07-6.15-.06-.02-.12-.03-.18-.05-.15,0-.31,0-.46,0-.03,0-.07,0-.1,0-3.12.02-6.24.03-9.36.05-.02.09-.03.17-.05.26,0,1.88,0,3.77,0,5.65,0,.08,0,.17-.01.25-.07,2.05-1.21,3.34-3.04,3.44-.27,0-.54.01-.81.02-1.69-.25-2.91-1.21-2.93-2.91-.09-6.62-.08-13.24.02-19.85.03-1.59,1.2-2.52,2.83-2.73.03,0,.06,0,.1-.01.1-.01.2-.02.3-.04.03,0,.06,0,.09,0,.08,0,.15,0,.23,0,.03,0,.06,0,.09,0,.07,0,.15.02.22.03.03,0,.07.01.1.02,1.58.14,2.74,1.54,2.79,3.36,0,.03,0,.06,0,.09v6.03h10.28c0-2.24-.11-4.47.04-6.69.11-1.63,1.17-2.6,2.84-2.8.03,0,.07,0,.1-.01.23,0,.46,0,.69,0,.04,0,.07,0,.11.01,1.74.13,3,1.35,3.01,3.25.06,6.35.05,12.69,0,19.04-.01,1.79-1.21,2.98-2.86,3.19-.27,0-.54.02-.81.02Z" style="fill:#00d7ed;"/><path d="m47.8,4.12c3.46.44,6.58,1.6,8.77,4.46,1.1,1.44.81,3.64-.45,4.64-1.48,1.18-3.62.99-4.94-.42-2.44-2.63-5.67-3.15-8.37-1.36-2.41,1.59-3.45,5.58-2.22,8.46,1.94,4.5,7.53,5.28,10.63,1.49,1.43-1.75,3.72-2.08,5.24-.77,1.49,1.3,1.38,3.69-.12,5.39-2.44,2.79-5.63,3.81-9.18,4.06-.06,0-.11,0-.17,0-.08,0-.15,0-.23,0-.03,0-.06,0-.1,0-.05,0-.09,0-.14,0-.04,0-.07,0-.11.01-.12,0-.24,0-.37,0-.04,0-.07,0-.11-.01-.05,0-.09,0-.14,0-.03,0-.07,0-.1,0-.13,0-.26,0-.38,0-.06.02-.12.03-.18.05-3.27-.3-6.19-1.38-8.54-3.78-2.39-2.43-3.44-5.39-3.57-8.73,0,0,.02-.02.02-.03,0-.02-.01-.04-.02-.06,0-.29,0-.58,0-.87,0,0,.02-.02.02-.02,0-.02-.01-.04-.02-.06,0-.08,0-.16,0-.23,0,0,.03-.02.02-.02,0-.02-.01-.04-.02-.06,0-.05.01-.11.02-.16,0-.03.01-.07.02-.1,0-.07,0-.14.01-.21,0-.03,0-.06,0-.09.23-5.98,4.71-10.56,11.27-11.48.89-.13,1.8-.11,2.7-.17.03,0,.06,0,.09,0,.07,0,.15,0,.22.01.14.02.28.04.41.06Z" style="fill:#00d7ed;"/><path d="m112.58,48.26c-2.01-2.18-4.18-4.17-6.73-5.7-1.55-1.04-3.17-1.96-4.92-2.62-.13.04-.26.08-.39.12-.63.21-1.26.43-1.89.63-5.26,1.7-9.72,4.54-12.84,9.21-.77,1.16-1.57,2.33-1.84,3.74,0,.03,0,.06.01.09.19-.02.37-.04.56-.07.02,0,.04,0,.07,0,.32-.01.64-.03.96-.04.03,0,.05,0,.08,0,.08,0,.16.02.24.02.08,0,.15.01.23.02.22.01.43.02.65.04.03-.01.05-.01.07,0,.06,0,.11,0,.17.01.13.01.25.02.38.03.96.21,1.93.42,2.89.62,3.01.85,5.47,2.55,7.51,4.89.13-.13.26-.27.39-.41-.13.14-.26.27-.39.41,1.75,2.14,2.78,4.63,3.48,7.28.77-.61,1.54-1.23,2.3-1.83-.76.61-1.53,1.22-2.3,1.83.45,2.25.63,4.52.51,6.81h0c-.02.26-.04.53-.06.79,0,0,0,0,0,0-.29,1.34-.58,2.69-.87,4.03.03,0,.06-.02.09-.02.09-.02.19-.03.28-.04-.1,0-.19.02-.28.04-.03,0-.06.02-.09.02-2.1,5.67-5.93,9.41-11.92,10.78-.13.34-.27.69-.4,1.03,2.02.97,3.57,2.4,4.46,4.49.3-.21.59-.42.93-.66.17-.12.35-.25.56-.39-.2.14-.38.27-.56.39-.34.24-.64.45-.93.66l.33.85c.02.06.04.13.07.19.03.2.07.4.1.61.02.09.03.19.05.28l.04.84c.01.1.03.21.04.31,0,.08,0,.16,0,.24.01.03.01.05,0,.08,0,.13,0,.27,0,.4-.02.13-.03.26-.05.39-.39,3.35-2.21,5.59-5.29,6.86-.05.03-.11.05-.16.08,0,0,0,0,0,0-.02.22.05.37.29.39.07,0,.13,0,.2-.01.07,0,.14,0,.22,0,.09-.01.19-.02.28-.04.02-.01.04-.02.06-.01.06,0,.11,0,.17-.01,0,0,.04,0,.03,0,2.26-.18,4.47-.58,6.67-1.17,5.88-1.58,10.99-4.49,15.29-8.78,1.04-1.04,2.54-2.03,2.61-3.5.2-4.23.06-8.48.06-12.72,0-3.46,0-6.92,0-10.37,0-3.94,0-7.87,0-11.81,0-1.98-.11-3.96.05-5.93.12-1.48-.6-2.44-1.48-3.4Zm-3.28,23.8c.22-.11.51-.07,1.22-.13-.66.35-.88.47-1.11.58-.24-.12-.26-.38-.12-.45Zm-7.1,15.85c-.11.02-.17.05-.2.08.03-.04.09-.07.2-.08h0Zm.06.35c-.03-.16-.04-.26-.06-.35.24.01.3.09.06.35Zm6.85-5.73c.1-.07.23-.1.44-.05,0,0,0,0,0,0-.21-.05-.34-.02-.44.05Zm.44-.05s0,0,0,0c0,0,0,0,0,0,0,0,0,.01,0,.02,0,0,0-.01,0-.02Zm.03.07s0,0,0,.01c0,0,0,0,0-.01Zm.02-.03s.04.03,0,0h0Z" style="fill:url(#uuid-da9dbf73-d0bd-4a1c-8702-5fc8e892619c);"/><path d="m173.62,57.91c-.02-.2-.04-.39-.07-.59,0-.1-.01-.19-.02-.29-.16-2.86-.91-5.58-2.01-8.21-.42.09-.81.23-1.18.41-.18.09-.36.19-.54.29.17-.11.35-.2.54-.29.37-.18.76-.32,1.18-.41-.95-2.19-2.27-4.13-4.05-5.75-.03-.03-.06-.06-.09-.09,0-.02-.01-.04-.04-.04-2.09-1.82-4.45-3.18-7.07-4.08-2.49-.82-5.03-1.41-7.67-1.51.13.04.25.09.53.19-.29.12-.45.19-.61.26-5.74,2.55-9.27,6.82-10.23,13.1.03,0,.05-.01.08-.02-.03,0-.05.01-.08.02l-.16,3.34c2.77.14,5.57-.28,8.31.42h0c2.32.78,3.83,2.24,4.1,4.77,1.37-.89,2.75-1.77,4.12-2.66-1.37.89-2.74,1.77-4.12,2.66,0,.14,0,.29,0,.43,0,.02.02.05.03.07,0,0-.01.02-.02.03,0,.07.02.14.02.22,0,.14,0,.29-.01.43,0,.07-.02.14-.02.21h.01s-.02.02-.02.02c-.16,3.39-2.74,5.46-6.9,5.52-1.73.03-3.46.02-5.19.03-.36,1.1-.07,2.22-.08,3.33v2.58c-.27.01-.47.02-.69.03.02.19.03.31.05.48-.13-.04-.23-.08-.35-.12-.2.17-.41.34-.66.55-.51-.63-.74.75-1.26.17-.61.11-1.2.22-1.78.33,0,.05,0,.09,0,.14,0,.09,0,.17,0,.26,0,2.61,0,5.21,0,7.82,0,.13,0,.26,0,.39,0,.02.02.04.02.06,0,0-.02.02-.02.02,0,.35,0,.69,0,1.04,2.1,0,4.2-.01,6.3-.02,2.7,0,5.41,0,8.11,0,0,0,0,0,0,0,4.15-.37,8.16-1.17,11.82-3.31,3.74-2.19,6.43-5.22,7.98-9.29.79-2.07,1.26-4.2,1.56-6.39.27-2.18.35-4.36.17-6.54Zm-4.06-8.23c-.17.11-.34.23-.5.35.17-.12.33-.24.5-.35Zm-28.86,31.81s-.09-.07-.16-.13c.07-.05.14-.13.16-.12.06.03.09.09.14.14-.05.04-.1.1-.14.1Z" style="fill:url(#uuid-38a28493-cd2b-4839-ac5e-2b48d9131421);"/><path d="m56.33,45.17c-.71-.76-1.42-1.51-2.14-2.27-2.1-1.84-4.44-3.23-7.12-4.05-2.4-.9-4.89-1.34-7.43-1.51,0,.03,0,.06,0,.09.07.01.14.02.42.06-6.1,2.58-9.84,6.87-10.88,13.31,1.84-1.19,3.67-2.38,5.51-3.57-1.84,1.19-3.67,2.38-5.51,3.57l-.17,3.43c2.69.11,5.4-.27,8.07.36h0c2.38.69,3.97,2.1,4.33,4.66.29,4.59-2.04,6.99-6.9,7.08-1.73.03-3.46.02-5.19.03-.36,1.15.03,2.34-.11,3.58-.26-.05-.48-.1-.72-.15-.08.15-.16.3-.29.55-.1-.25-.15-.4-.23-.6-.41.31-.44,1.39-1.29.67-.29.11-.47.3-.5.64-.18-.09-.33-.16-.53-.26-.22.55-.65.45-1.08.35,0,.11,0,.22,0,.32.02.02.02.05,0,.07,0,.27,0,.54,0,.81,0,.05,0,.1,0,.15,0,.06,0,.11,0,.17,0,.16,0,.31,0,.47,0,1.09,0,2.18,0,3.27,0,.08,0,.17,0,.25,0,.48,0,.95,0,1.43,0,.05,0,.11,0,.16v.48c0,.05,0,.11,0,.16,0,.05,0,.11,0,.16,0,.05,0,.11,0,.16,0,.27,0,.53,0,.8,0,.05,0,.11,0,.16,0,.05,0,.11,0,.16,0,.16,0,.32,0,.48,0,.43,0,.85,0,1.28.33-.15.66-.3.99-.45-.33.15-.66.31-.99.45,0,.45,0,.9,0,1.36,1.81,0,3.61-.01,5.42-.02,2.93,0,5.86-.02,8.8-.02l.03-.02s.03.02.03.02c3.17-.21,6.28-.74,9.26-1.93-.61-2.09-.75-4.22-1.04-6.33,0-.02-.02-.03-.02-.05,0,0,.01-.01.02-.02-.02-.16-.03-.33-.05-.49,0-.02,0-.04,0-.06,0-.09,0-.18-.01-.26-.02-.07-.03-.13-.05-.2,0-.46,0-.92-.01-1.39.04-1.57.08-3.14.12-4.72,0-.08.01-.15.02-.23,0-.13.01-.26.02-.39.02-.19.04-.38.07-.57,0-.07.02-.14.03-.21.62-4.47,1.66-8.82,3.73-12.88,1.49-2.86,3.19-5.58,5.46-7.91.21-.22.12-.43-.04-.6Z" style="fill:url(#uuid-c88c1af8-888a-4344-b207-9c4d4edb4d75);"/><path d="m30.15,37.25c-3.55-.03-7.09-.12-10.64-.06-1.85.03-3.7.32-5.43,1.07-3.83,1.31-6.71,3.76-8.65,7.29-1.55,2.82-1.6,5.87-1.51,8.99.09,3.3,0,6.61-.03,9.92,0,0,0,0,0,0,0,5.37,0,10.74-.01,16.12,0,5.13-.01,10.26-.03,15.39,0,1.55.29,3.04.9,4.47,7.71,5.53,9.33-1.95,9.35-2.75.02-.74.15-1.48.15-2.21,0-3.24-.05-6.47-.05-9.71,0-3.15.03-6.29.04-9.44,0-3,.02-6,.03-9-.01-3.25-.02-6.49-.04-9.74h0v-.8c-.28-4.4.53-8.51,3.24-12.12h0c3.23-4.19,7.62-6.39,12.7-7.41Zm-16.09,20.32c-.15,0-.29.02-.41.08.12-.06.26-.09.41-.08Z" style="fill:url(#uuid-ce0fc61a-7ff4-4152-960a-1c7760bdd5a5);"/><path d="m143.19,37.25c-3.63-.03-7.26-.1-10.89-.05-1.62.02-3.24.32-4.78.91-3.04.93-5.52,2.69-7.51,5.15-2.46,3.03-3.13,6.55-3.05,10.36.09,4.27-.02,8.55-.04,12.83,0,5.53,0,11.06,0,16.6,0,4.41-.03,8.82,0,13.24.01,1.28.28,2.55.77,3.76,7.39,4.9,9.39-1.58,9.46-2.36.12-1.33.18-2.65.16-3.99-.04-4.47.02-8.95.04-13.42,0-.17-.05-.33-.07-.5.02-.41.07-.82.07-1.23,0-3.74.01-7.48.01-11.22,0-2.98,0-5.96,0-8.94-.01-.24-.02-.48-.03-.72-.84.4-1.48,1.04-2.1,1.7.62-.66,1.26-1.29,2.1-1.7-.08-3.14-.22-6.28,1.06-9.25.61-1.41,1.41-2.73,2.33-3.97h0c3.2-4.04,7.51-6.16,12.46-7.18Zm-23.88,62.16c-.06-.06-.13-.11-.13-.15,0-.05.06-.1.09-.15.05.04.12.08.15.13.01.02-.06.09-.11.17Zm-.24-17.26c.22-.07.35-.11.55-.18-.1.45-.28.28-.55.18Zm.88,17.21s-.1-.06-.15-.09c.04-.05.08-.12.13-.15.02-.01.09.06.17.11-.06.06-.11.13-.15.13Zm.91-17.5h-.27s0-.07,0-.1h.27s0,.07,0,.1Zm1.08-.25s-.05-.08-.07-.12c.07-.04.15-.08.22-.12.02.03.04.06.06.1l-.21.14Zm.7-.29s-.03-.02-.03-.02c0-.02.02-.04.03-.06.02.01.04.03.05.04-.02.02-.03.03-.05.04Zm.31-.37s0-.07,0-.11h.29s0,.06,0,.09c-.1,0-.19.01-.29.02Zm.86-.01s-.02-.09-.04-.13c.08-.03.17-.05.25-.08.01.05.03.1.04.15-.08.02-.17.04-.25.06Zm1.85-.72c-.1.04-.11.04,0,0h0Zm.17-.07c-.38.06-.33.05,0,0h0Zm.57-.17s-.03-.04-.05-.05c.05-.04.09-.09.14-.13.02.02.03.04.05.05-.05.04-.09.09-.14.13Z" style="fill:url(#uuid-b4b8b26d-0ff1-4cd8-aa5d-1e8b79cf543b);"/><path d="m137.69,81.93c0,.13,0,.26,0,.39,0,.03,0,.06,0,.08,0,.35,0,.69,0,1.04,0,4.36,0,8.72-.02,13.08-.01,3.91-2.15,7.01-5.77,8.4-.13.05-.3-.01-.45-.02,1.66-.92,3.19-2,4.11-3.73.71-1.34,1.22-2.76,1.23-4.29.03-8.52.03-17.04.05-25.56.28-.19.56-.38.84-.57,0,.05.01.1.02.15v2.82s-.01.09-.01.14c0,.09,0,.17,0,.26,0,2.61,0,5.21,0,7.82Z" style="fill:#8bedf6;"/><polygon points="64.5 92.7 64.49 92.7 64.49 92.7 64.5 92.7" style="fill:url(#uuid-b6232a8c-1cf6-4b21-96f6-6334488ae461);"/><polygon points="63.22 93.34 63.22 93.33 63.22 93.33 63.22 93.34" style="fill:url(#uuid-c332c3da-08da-4987-a0cf-b3c935734143);"/><polygon points="62.26 93.02 62.26 93.02 62.26 93.02 62.26 93.02" style="fill:url(#uuid-c870608d-c305-4313-9794-b1677a2c0695);"/><path d="m87.26,36.87c-.05,0-.11,0-.16,0-.05,0-.1,0-.15,0-5.11-.21-10.11.42-14.95,2.11-3.37,1.12-6.45,2.76-9.28,4.9-5.13,3.86-8.66,8.87-10.75,14.91-.63,1.56-1.02,3.18-1.33,4.83-.63,3.36-.98,6.74-.68,10.17.19,4.65,1.2,9.11,3.17,13.35,1.35,2.91,3.02,5.61,5.21,7.97,13.11,12.83,28.93,10.94,29.01,10.64-1.37-1.9-24.02-17.88-24.93-20.05-1.2-2.55-2.04-5.22-2.45-8.01-.23-1.56-.34-3.13-.5-4.69-.35.08-.69.15-1.05.2.35-.05.7-.13,1.05-.2-.15-6,1.27-11.62,4.09-16.91,0,0,0,0,0,0,.06-.1.13-.21.19-.31l.27-.41c1.68-2.99,3.91-5.55,6.4-7.89l.24-.21c.24-.2.48-.4.71-.61.02-.02.05-.05.08-.07.08-.08.17-.15.25-.23.01-.13.03-.26.05-.43-.02.17-.03.3-.05.43,4.38-3.54,9.37-5.79,14.87-6.94q.05-.27,0,0c.13-.03.26-.06.39-.09h.23c.11-.03.22-.04.32-.06l.23-.04c.32,0,.64,0,.95,0,2.6-.48,5.21-.42,7.82-.11,1.1.13,2.21.23,3.31.35-4.02-1.66-8.24-2.37-12.56-2.59Z" style="fill:url(#uuid-5e374012-cfd0-4c0f-bdcb-415965a10466);"/><path d="m170.85,38.82c0,.21-.02.42-.02.63,0,0,0,0,0,0-.06.26.17.71-.24.72-.37,0-.28-.46-.28-.72,0-.82-.19-1.66.25-2.73.56.89.98,1.56,1.45,2.31.33-.57.6-1.07.91-1.56.07-.11.28-.26.36-.23.13.05.3.23.3.36.03.84.01,1.69.01,2.68-.91-.48-.27-1.32-.62-1.89-.32.51-.63.99-1,1.58-.36-.57-.65-1.02-.97-1.53-.06.15-.09.23-.13.32-.02.01-.02.03-.01.04Z" style="fill:#ab46d9;"/><path d="m167.7,37.11h2.26c-.12.75-.74.29-1.07.65,0,.6,0,1.31,0,2.02,0,.2-.02.42-.26.39-.11-.01-.24-.25-.27-.4-.05-.27,0-.56-.02-.83-.05-.67.42-1.72-1.1-1.3.09-.24.13-.35.17-.47.09-.02.19-.04.28-.06Z" style="fill:#ab46d9;"/><path d="m88.14,105.62c-.02.22.05.37.29.39-.42.02-.83.04-1.25.05.06-.11.11-.22.17-.33.07,0,.14,0,.21,0,.03,0,.05,0,.08-.01.17-.04.34-.08.51-.11Z" style="fill:#ab46d9;"/><path d="m87.34,105.74c-.06.11-.11.22-.17.33-.36-.02-.73-.04-1.09-.07.35-.1.71-.2,1.06-.3.07.01.13.03.2.04Z" style="fill:#7672df;"/><path d="m96.75,20.12c.43.01.87.03,1.3.04-.43-.01-.87-.03-1.3-.04Z" style="fill:#6be8f4;"/><path d="m132.87,29.85c.27,0,.54-.02.81-.02-.27,0-.54.02-.81.02Z" style="fill:#8bedf6;"/><path d="m115.62,29.85c.27,0,.54-.01.81-.02-.27,0-.54.01-.81.02Z" style="fill:#8bedf6;"/><path d="m105,12.34c.27-.02.54-.04.81-.07-.27.02-.54.04-.81.07Z" style="fill:#8bedf6;"/><path d="m87.26,12.1c-.02.22-.04.43-.06.65.02-.22.04-.43.06-.65Z" style="fill:#6be8f4;"/><path d="m47.09,67.34c.02-.19.04-.38.07-.57-.02.19-.04.38-.07.57Z" style="fill:#9558dc;"/><path d="m173.62,57.91c-.02-.2-.04-.39-.07-.59.02.2.04.39.07.59Z" style="fill:#9558dc;"/><path d="m80.38,29.85c.19,0,.38-.01.57-.02-.19,0-.38.01-.57.02Z" style="fill:#8bedf6;"/><path d="m63.45,29.86c.19,0,.38-.02.57-.03-.19,0-.38.02-.57.03Z" style="fill:#8bedf6;"/><path d="m47.8,4.12c-.14-.02-.28-.04-.41-.06.14.02.28.04.41.06Z" style="fill:#8bedf6;"/><path d="m77.04,26.55c.02.14.04.27.06.41-.02-.14-.04-.27-.06-.41Z" style="fill:#8bedf6;"/><path d="m97.16,30.08c.14,0,.28,0,.42.01-.14,0-.28,0-.42-.01Z" style="fill:#8bedf6;"/><path d="m99.81,24c-.11.02-.22.03-.33.05.11-.02.22-.03.33-.05Z" style="fill:#8bedf6;"/><path d="m167.7,37.11c-.09.02-.19.04-.28.06.09-.02.19-.04.28-.06Z" style="fill:#9558dc;"/><path d="m63.05,29.84c.09,0,.17.01.26.02-.09,0-.17-.01-.26-.02Z" style="fill:#8bedf6;"/><path d="m119.47,26.4c0-.08,0-.17.01-.25,0,.08,0,.17-.01.25Z" style="fill:#8bedf6;"/><path d="m88.63,106.01c.07,0,.14,0,.22,0-.07,0-.14,0-.22,0Z" style="fill:#ab46d9;"/><path d="m119.48,20.49c.02-.09.03-.17.05-.26-.02.09-.03.17-.05.26Z" style="fill:#8bedf6;"/><path d="m97.51,4.09c-.09,0-.18.02-.26.03.09,0,.18-.02.26-.03Z" style="fill:#8bedf6;"/><path d="m104.59,12.34c.08,0,.17,0,.25,0-.08,0-.17,0-.25,0Z" style="fill:#8bedf6;"/><path d="m96.53,30.06c.08,0,.16,0,.25,0-.08,0-.16,0-.25,0Z" style="fill:#8bedf6;"/><path d="m60.21,14.09c-.01.08-.02.17-.03.25.01-.08.02-.17.03-.25Z" style="fill:#8bedf6;"/><path d="m47.05,67.95c0-.08.01-.15.02-.23,0,.08-.01.15-.02.23Z" style="fill:#9558dc;"/><path d="m87.26,36.87c-.05,0-.11,0-.16,0,.05,0,.11,0,.16,0Z" style="fill:#6be8f4;"/><path d="m87.21,13.38c0,.06.02.12.03.18,0-.06-.02-.12-.03-.18Z" style="fill:#6be8f4;"/><path d="m87.2,12.98c0,.06,0,.11,0,.17,0-.06,0-.11,0-.17Z" style="fill:#6be8f4;"/><path d="m46.99,30.07c.06,0,.11,0,.17,0-.06,0-.11,0-.17,0Z" style="fill:#8bedf6;"/><path d="m98.52,20.18c.06,0,.11,0,.17,0-.06,0-.11,0-.17,0Z" style="fill:#8bedf6;"/><path d="m46.99,74.26c-.02-.07-.03-.13-.05-.2.02.07.03.13.05.2Z" style="fill:#ab46d9;"/><path d="m129.44,20.18c.06.02.12.03.18.05-.06-.02-.12-.03-.18-.05Z" style="fill:#8bedf6;"/><path d="m125.76,105.72c.06,0,.12.01.17.02-.06,0-.12-.01-.17-.02Z" style="fill:#6be8f4;"/><path d="m127.84,105.72h.17c-.06,0-.11,0-.17,0Z" style="fill:#8bedf6;"/><path d="m82.31,106.03c.05,0,.11,0,.16.01-.05,0-.11,0-.16-.01Z" style="fill:#6be8f4;"/><path d="m45.15,30.13c.06-.02.12-.03.18-.05-.06.02-.12.03-.18.05Z" style="fill:#8bedf6;"/><path d="m46.42,30.1s.07,0,.11-.01c-.04,0-.07,0-.11.01Z" style="fill:#8bedf6;"/><path d="m77.02,25.5s0,.07,0,.1c0-.02-.02-.04-.03-.07,0,0,.01-.02.02-.03Z" style="fill:#8bedf6;"/><path d="m45.95,30.1s.07,0,.11.01c-.04,0-.07,0-.11-.01Z" style="fill:#8bedf6;"/><path d="m47.06,75.14s-.02-.03-.02-.05c0,0,.01-.01.02-.02.01.02.02.04,0,.07Z" style="fill:#ab46d9;"/><path d="m99.33,24.06s-.06,0-.09,0c.03,0,.06,0,.09,0Z" style="fill:#8bedf6;"/><path d="m77.02,23.03s0,.06,0,.09c0-.02-.02-.04-.02-.06,0,0,.01-.02.02-.03Z" style="fill:#8bedf6;"/><path d="m109.32,22.25s0-.06,0-.09c0,.02.02.04.02.06,0,0-.01.02-.02.03Z" style="fill:#8bedf6;"/><path d="m89.83,21.22s-.06,0-.1,0c.03,0,.06,0,.1,0Z" style="fill:#6be8f4;"/><path d="m89.59,21.25s-.07.01-.1.02c.03,0,.07-.01.1-.02Z" style="fill:#6be8f4;"/><path d="m47,74.58s0-.04,0-.06c0,0,.02.03.02.03l-.02.03Z" style="fill:#ab46d9;"/><polygon points="38.78 83.41 38.81 83.39 38.84 83.4 38.81 83.42 38.78 83.41" style="fill:#ab46d9;"/><polygon points="152.1 83.44 152.09 83.44 152.09 83.47 152.1 83.44" style="fill:#ab46d9;"/><path d="m128.88,20.19s.07,0,.1,0c-.03,0-.07,0-.1,0Z" style="fill:#8bedf6;"/><path d="m99.31,20.22s.07,0,.1,0c-.03,0-.07,0-.1,0Z" style="fill:#8bedf6;"/><path d="m99,20.2s.07,0,.11.01c-.04,0-.07,0-.11-.01Z" style="fill:#8bedf6;"/><path d="m47.17,4.06s-.06,0-.09,0c.03,0,.06,0,.09,0Z" style="fill:#8bedf6;"/><path d="m46.67,30.08s.06,0,.1,0c-.03,0-.06,0-.1,0Z" style="fill:#8bedf6;"/><path d="m96.43,20.11s.08,0,.11,0c-.04,0-.08,0-.11,0Z" style="fill:#6be8f4;"/><path d="m96.12,20.1s.06,0,.1,0c-.03,0-.06,0-.1,0Z" style="fill:#6be8f4;"/><path d="m33.04,17.53s.02.04.02.06c0,0-.01.02-.02.03,0-.03,0-.06,0-.08Z" style="fill:#3de1f1;"/><path d="m98.76,30.08s.06,0,.09,0c-.03,0-.06,0-.09,0Z" style="fill:#8bedf6;"/><path d="m33.04,16.57s.02.04.02.06c0,0-.01.02-.02.02,0-.03,0-.06,0-.08Z" style="fill:#3de1f1;"/><path d="m33.05,16.26s.02.04.02.06c0,0-.02.02-.02.02,0-.03,0-.06,0-.08Z" style="fill:#3de1f1;"/><path d="m33.08,15.99s-.01.07-.02.1c0-.03.01-.07.02-.1Z" style="fill:#3de1f1;"/><path d="m33.1,15.7s0,.06,0,.09c0-.02-.01-.04-.01-.06,0,0,.01-.02.02-.03Z" style="fill:#3de1f1;"/><path d="m99.08,30.07s.06,0,.09,0c-.03,0-.06,0-.09,0Z" style="fill:#8bedf6;"/><path d="m30.55,37.23s-.06,0-.08,0c.03,0,.06,0,.08,0Z" style="fill:#8bedf6;"/><path d="m37.33,37.17s-.05,0-.08,0c.03,0,.05,0,.08,0Z" style="fill:#8bedf6;"/><path d="m109.33,21.93s0-.06,0-.1c0,.03,0,.06,0,.1Z" style="fill:#8bedf6;"/><path d="m37.66,37.22s-.06,0-.1-.01c.03,0,.06,0,.1.01Z" style="fill:#8bedf6;"/><path d="m60.26,13.78s0,.06,0,.09c0-.02-.01-.04-.01-.06,0,0,.01-.02.02-.03Z" style="fill:#8bedf6;"/><path d="m150.54,37.18s-.05,0-.08,0c.03,0,.05,0,.08,0Z" style="fill:#8bedf6;"/><path d="m150.78,37.21s-.06-.01-.1-.02c.03,0,.06.01.1.02Z" style="fill:#8bedf6;"/><path d="m94.14,12.58s-.02-.03-.03-.05c0,0,0-.02.01-.03,0,.02.02.03.02.05,0,0,0,.02,0,.03Z" style="fill:#8bedf6;"/><path d="m151.49,37.23h-.04s-.03,0-.03,0c.02,0,.05,0,.07,0Z" style="fill:#8bedf6;"/><path d="m119.47,7.81s0-.06,0-.09c0,.02.02.04.02.06,0,0-.01.02-.02.03Z" style="fill:#8bedf6;"/><path d="m133.53,4.35s-.07,0-.11-.01c.04,0,.07,0,.11.01Z" style="fill:#8bedf6;"/><path d="m132.73,4.34s-.07,0-.1.01c.03,0,.07,0,.1-.01Z" style="fill:#8bedf6;"/><path d="m116.67,4.35s-.07-.01-.1-.02c.03,0,.07.01.1.02Z" style="fill:#6be8f4;"/><path d="m117.71,100.12s.03.07.05.11c-.02-.04-.03-.07-.05-.11Z" style="fill:#3de1f1;"/><path d="m18.15,104.97s.07-.03.1-.04c-.03.01-.07.03-.1.04Z" style="fill:#8bedf6;"/><path d="m116.35,4.31s-.06,0-.09,0c.03,0,.06,0,.09,0Z" style="fill:#6be8f4;"/><path d="m116.03,4.3s-.06,0-.09,0c.03,0,.06,0,.09,0Z" style="fill:#6be8f4;"/><path d="m170.85,38.82s0-.03.01-.04c.01.02,0,.03-.01.04Z" style="fill:#9558dc;"/><path d="m115.63,4.34s-.06,0-.1.01c.03,0,.06,0,.1-.01Z" style="fill:#6be8f4;"/><path d="m170.83,39.45s0,0,0,0c0,0,0,0,0,0Z" style="fill:#9558dc;"/><path d="m126.16,105.76s.06,0,.1,0c-.03,0-.06,0-.1,0Z" style="fill:#6be8f4;"/><path d="m167.48,43.07s-.06-.06-.09-.09c.03.03.06.06.09.09Z" style="fill:#5d88e2;"/><path d="m89.13,105.97s.04-.02.06-.01c0,0-.03.02-.03.02h-.03Z" style="fill:#ab46d9;"/><polygon points="89.36 105.94 89.39 105.94 89.38 105.96 89.36 105.94" style="fill:#ab46d9;"/><path d="m82.7,106.07s.06,0,.1,0c-.03,0-.06,0-.1,0Z" style="fill:#6be8f4;"/><path d="m45.71,30.08s.07,0,.1,0c-.03,0-.07,0-.1,0Z" style="fill:#8bedf6;"/><path d="m99.83,39.46c-1.1-.12-2.21-.22-3.31-.35-2.61-.3-5.22-.36-7.82.11-.32,0-.64,0-.95,0-.08.01-.16.02-.23.04-.11.02-.22.03-.32.05-.08,0-.16,0-.23.01-.13.03-.26.06-.39.09-5.5,1.14-10.49,3.4-14.87,6.94-.08.08-.17.15-.25.23-.03.02-.05.05-.08.07-.24.2-.48.4-.71.61-.08.07-.16.14-.24.21-2.49,2.34-4.72,4.9-6.4,7.89-.09.14-.18.27-.27.41-.06.1-.13.21-.19.31-2.83,5.28-4.25,10.9-4.09,16.91.16,1.57.27,3.14.5,4.69.41,2.79,1.26,5.46,2.45,8.01.91,2.17,2.13,4.18,3.5,6.08-.08.29,10.66,13.95,16.4,14.27.05,0,.11,0,.16.01.08,0,.15.01.23.02.03,0,.06,0,.1,0,1.1-.02,2.19-.04,3.29-.07.35-.1.71-.2,1.06-.3.32-.14.65-.28.97-.42h.01c.08-.08.17-.15.25-.22,4.27-2.1,5.63-8.54,2.67-12.27-.93-1.17-2.02-2.04-3.31-2.72-.04-.02-.07-.04-.11-.07-.12-.04-.25-.07-.37-.11-.14-.07-.29-.13-.43-.2-.18-.04-.35-.08-.53-.11-.06-.02-.11-.04-.17-.05h0c-.09-.03-.17-.05-.26-.07-.16-.02-.31-.04-.47-.06-.07,0-.14-.02-.21-.02-.03,0-.07,0-.1,0-.18,0-.36-.02-.55-.02-.37-.02-.75-.04-1.12-.06-.1,0-.21-.01-.31-.02-.06,0-.12,0-.17,0-.13-.01-.26-.02-.38-.04-.06,0-.12-.01-.17-.02-.85-.14-1.7-.27-2.55-.41-5.27-1.39-8.8-4.71-10.84-9.7-.67-2.01-1.21-4.04-1.23-6.18-.21-2.33-.01-4.63.42-6.91,1.74-9.16,6.57-16.23,14.42-21.24,1.29-.82,2.61-1.63,4.1-2.1.85-.35,1.71-.69,2.56-1.04-.13-.12-.2-.24-.25-.35.05.12.13.23.25.35,1.08-.21,2.07-.8,3.21-.71.05-.01.1-.03.15-.04.36-.39.82-.36,1.28-.28,2.2-.37,4.4-.7,6.64-.53.13-.04.26-.08.39-.12-.37-.16-.74-.32-1.1-.48Zm-39.52,54.71c-.07.06-.13.11-.2.17-.03-.11-.08-.22-.07-.33.02-.12.1-.23.27-.62v.78Zm1.95-1.16c-.02.29-.04.58-.06.87-.15-.33-.55-.73.06-.87Zm.33.79c.21-.16.42-.31.62-.47-.14.21-.28.42-.42.62-.07-.05-.14-.11-.2-.16Zm2.2-.85c-.26.08-.28-.09-.29-.27.17,0,.32.02.29.27Zm.03-.29c.04-.24.06-.38.1-.64.26.3.3.44-.1.64Zm.96-9.56c.05.05.08.07.08.08,0,0-.05-.04-.08-.08h0Zm-.74,1.58c-.13-.37-.17-.5-.22-.63-.45-.03-.19.5-.57.65-.02-.18-.11-.36-.05-.47.09-.16.28-.26.43-.38,0,0,.12.13.18.2h.32c-.02.12-.04.24-.1.63Zm.76-1.58s.05,0,.07.01c-.01,0-.04,0-.07-.01Z" style="fill:url(#uuid-8d8b5ca3-0328-41c4-8b68-30ccafe4a32a);"/><path d="m85.41,89.39c.48-.06.95-.12,1.43-.18.16.58.71.36,1.07.53.08.03.16.06.24.08.13.05.27.11.4.16,2.02.97,3.57,2.4,4.46,4.49.11.28.22.57.33.85.02.06.04.13.07.19.03.2.07.4.1.61.02.09.03.19.05.28.01.28.02.56.04.84.01.1.03.21.04.31,0,.08,0,.16,0,.24,0,0-.02.02-.02.02,0,.02.01.04.02.05,0,.13,0,.27,0,.4-.02.13-.03.26-.05.39-.39,3.35-2.21,5.59-5.29,6.86-.05,0-.1.01-.16.02-.01-.09-.02-.18-.03-.27,0,0,.01,0,.01,0,.08-.07.17-.14.25-.21,4.27-2.1,5.63-8.54,2.67-12.27-.93-1.17-2.02-2.04-3.31-2.72-.04-.02-.07-.04-.11-.07-.12-.04-.25-.07-.37-.11-.14-.07-.29-.13-.43-.2-.18-.04-.35-.08-.53-.11-.06-.02-.11-.04-.17-.05,0,0,0,0,0,0-.09-.02-.17-.05-.26-.07-.16-.02-.31-.04-.47-.06Z" style="fill:url(#uuid-73d7393f-9e93-4d04-9f7b-b17481ff10a9);"/><path d="m62.26,93.02c-.02.29-.04.59-.06.88-.15-.33-.55-.74.07-.87,0,0,0,0,0,0Z" style="fill:#3de1f1;"/><path d="m64.82,84.08c-.45-.03-.19.5-.57.65-.02-.18-.11-.36-.05-.47.09-.16.28-.26.43-.38,0,0,.12.13.18.2h0Z" style="fill:#00c0de;"/><path d="m88.12,105.28c.01.09.02.18.03.27,0,.02,0,.04,0,.07,0,0,0,0,0,0-.17.04-.34.08-.51.11-.03,0-.05,0-.08.01-.07,0-.14,0-.21,0-.07-.01-.13-.03-.2-.04.32-.14.65-.28.97-.42Z" style="fill:#6be8f4;"/><path d="m63.22,93.33c-.14.21-.28.42-.43.64-.07-.05-.14-.11-.2-.16.21-.16.42-.32.64-.48,0,0,0,0,0,0Z" style="fill:#3de1f1;"/><path d="m60.31,93.39v.78c-.07.06-.13.11-.2.17-.03-.11-.08-.22-.07-.33.02-.12.1-.23.27-.62Z" style="fill:#3de1f1;"/><path d="m64.81,92.68c.04-.24.06-.38.1-.64.26.3.3.44-.1.64Z" style="fill:#3de1f1;"/><path d="m64.81,84.08h.32,0c-.02.12-.04.24-.1.63-.13-.37-.17-.5-.22-.63h0Z" style="fill:#00c0de;"/><path d="m83.43,89.27c.37.02.75.04,1.12.06-.37-.02-.75-.04-1.12-.06Z" style="fill:#8bedf6;"/><path d="m64.49,92.7c.17,0,.33.01.29.27-.26.08-.28-.09-.29-.27,0,0,0,0,0,0Z" style="fill:#3de1f1;"/><path d="m65.77,83.12c.1.02.2.03,0,0,.15.14.07.07,0,0h0Z" style="fill:#00c0de;"/><path d="m86.83,89.69c.14.07.29.13.43.2-.14-.07-.29-.13-.43-.2Z" style="fill:#6be8f4;"/><path d="m88.38,105.07c-.08.07-.17.14-.25.21.08-.07.17-.14.25-.21Z" style="fill:#6be8f4;"/><path d="m85.88,89.45c.09.02.17.05.26.07-.09-.02-.17-.05-.26-.07Z" style="fill:#6be8f4;"/><path d="m86.14,89.53c.06.02.11.04.17.05-.06-.02-.11-.04-.17-.05Z" style="fill:#6be8f4;"/><path d="m82.94,89.25h.17c-.06,0-.12,0-.17,0Z" style="fill:#8bedf6;"/><path d="m82.39,89.2c.06,0,.12.01.17.02-.06,0-.12-.01-.17-.02Z" style="fill:#8bedf6;"/><path d="m85.1,89.36s.07,0,.1,0c-.03,0-.07,0-.1,0Z" style="fill:#8bedf6;"/><path d="m87.64,90s.07.04.11.07c-.04-.02-.07-.04-.11-.07Z" style="fill:#6be8f4;"/><path d="m77.03,15.95c-.01-.14-.02-.28-.04-.41.01.14.02.28.04.41Z" style="fill:#6be8f4;"/><path d="m66.9,16.97c.13.02.27.04.4.06-.13-.02-.27-.04-.4-.06Z" style="fill:#8bedf6;"/><path d="m76.63,17.03c.11-.02.22-.03.33-.05-.11.02-.22.03-.33.05Z" style="fill:#8bedf6;"/><path d="m66.89,15.06s0,.06,0,.09c0-.02-.01-.04-.02-.06,0,0,.01-.02.02-.02Z" style="fill:#6be8f4;"/><path d="m76.98,15.39s0-.06,0-.1c.01.02.02.04.03.07,0,0-.01.02-.02.03Z" style="fill:#6be8f4;"/><path d="m39.65,37.34c-.66-.04-1.33-.08-1.99-.12-.03,0-.06,0-.1-.01-.07-.01-.15-.02-.22-.03-.03,0-.05,0-.08,0-2.24.02-4.47.04-6.71.07-.03,0-.06,0-.08,0-.1,0-.21.01-.31.02-5.08,1.02-9.47,3.22-12.7,7.41-2.71,3.61-3.52,7.71-3.23,12.12,0,.27,0,.54,0,.8.01,3.25.02,6.49.04,9.74,0,3-.02,6-.03,9-.02,3.15-.04,6.29-.04,9.44,0,3.24.05,6.47.05,9.71,0,.74-.13,1.47-.15,2.21-.02.8-1.54,7.71-9.35,2.75.15.31.27.64.47.92,2.78,4.05,8.01,5.51,12.95,3.62.03-.01.07-.03.1-.04.05-.01.1-.03.15-.04,2.43-1.32,4.21-3.16,4.96-5.9.43-1.57.34-3.17.36-4.75.05-4.1.02-8.2.02-12.3,0-3.57,0-7.14.01-10.71-.02-2.18-.04-4.36-.06-6.54,0-.32,0-.64,0-.96,0-.48-.01-.95-.02-1.43.02-1.36.05-2.72.07-4.07-.07-2.13-.27-4.27.25-6.37,0-.16,0-.33,0-.49-1.1.35-2.11.86-3.06,1.43.95-.57,1.96-1.08,3.06-1.43,1.01-4.78,3.69-8.37,7.77-11,1.52-.98,3.15-1.72,4.88-2.24.19-.06.4-.02.61-.02.8-.22,1.6-.44,2.41-.67,0-.03,0-.06,0-.09ZM7.93,100.04c-.03.1-.05.2-.11.39-.16-.3-.12-.39.11-.39Zm0,0c0-.19.07-.29.36-.14-.17.06-.27.1-.36.14Zm1.64-.43s0,0,0,.02c0,0,0-.01,0-.02Zm-.04.1s0,0,0,0h0s0,0,0,0Zm-.92.27s-.02.03-.04.06c0,0,0,0,0,0,.02-.02.03-.05.04-.06Zm-.1.1s.03-.02.05-.03c-.04.08-.07.15,0,0-.02.01-.03.02-.05.03Zm0,0c-.05.03-.04.02,0,0h0Zm.07-.04c.12-.05.07-.03,0,0h0Zm.94-.31c-.01.09-.02.19-.06.46-.18-.33-.24-.45.06-.46Zm.03-.03c.11-.09.06-.05,0,0h0Zm.16.53c-.05,0-.1,0-.15,0,0-.02,0-.05,0-.07.05,0,.1,0,.15,0v.07Zm2.05-.83s0,0,0,0c.02-.03.03-.07.04-.08,0,.01-.01.03-.04.08Zm-1.41,0c.06.22.09.33.14.52-.35-.12-.37-.23-.14-.52Zm.6.34c-.06-.07-.13-.13-.12-.16.02-.06.09-.1.14-.14.04.05.1.09.1.14,0,.04-.07.09-.12.16Zm.75-.32s-.03,0,0,0h0Zm.04-.01s0,0,0,.01c0,0,0,0,0-.01-.02,0-.03,0-.04.01.01,0,.03,0,.04-.01Zm.08-.06s0,0,0,0h0Zm7.02-45.2c.44-.31.89-.62,1.36-.92-.46.3-.91.61-1.36.92Z" style="fill:url(#uuid-a795f3ca-ed40-4d2f-b062-bef8205eb2ce);"/><path d="m10.5,99.92c-.35-.12-.37-.23-.14-.52.06.22.09.33.14.52Z" style="fill:#3de1f1;"/><path d="m23.69,63.73c0,.32,0,.64,0,.96,0-.32,0-.64,0-.96Z" style="fill:#3de1f1;"/><path d="m10.97,99.73c-.06-.07-.13-.13-.12-.16.02-.06.09-.1.14-.14.04.05.1.09.1.14,0,.04-.07.09-.12.16Z" style="fill:#3de1f1;"/><path d="m7.94,100.04c0-.2.07-.29.37-.14-.17.06-.27.1-.37.14,0,0,0,0,0,0Z" style="fill:#3de1f1;"/><path d="m7.93,100.04c-.03.1-.05.2-.11.4-.16-.3-.12-.39.11-.39,0,0,0,0,0,0Z" style="fill:#3de1f1;"/><path d="m9.53,99.72c-.01.09-.02.19-.06.46-.18-.33-.24-.45.06-.46h0Z" style="fill:#3de1f1;"/><path d="m9.53,99.72c.04-.1.08-.2,0,0,.16-.13.08-.06,0,0,0,0,0,0,0,0Z" style="fill:#3de1f1;"/><path d="m8.57,100.04c-.04.08-.07.16,0,0-.15.08-.07.04,0,0,0,0,0,0,0,0Z" style="fill:#3de1f1;"/><path d="m8.57,100.04c.05-.07.1-.15,0,0,.15-.07.07-.03,0,0,0,0,0,0,0,0Z" style="fill:#3de1f1;"/><path d="m11.77,99.4c.04-.08.07-.16,0,0,.14-.09.07-.04,0,0,0,0,0,0,0,0Z" style="fill:#3de1f1;"/><path d="m11.77,99.4c-.04.05-.09.11,0,0-.13.04-.06.02,0,0,0,0,0,0,0,0Z" style="fill:#3de1f1;"/><path d="m9.58,100.15h.15s0,.06,0,.08c-.05,0-.1,0-.15,0v-.07Z" style="fill:#3de1f1;"/><path d="m152.62,37.34c-.38-.03-.75-.07-1.13-.1h-.04s-.03,0-.03,0c-.21,0-.43-.01-.64-.02-.03,0-.06-.01-.1-.02-.05,0-.1-.01-.14-.02-.03,0-.05,0-.08,0-2.42.03-4.84.06-7.27.09-4.94,1.02-9.26,3.14-12.46,7.18-.92,1.24-1.72,2.56-2.33,3.97-1.29,2.97-1.15,6.12-1.06,9.25.01.24.02.48.03.72,0,2.98,0,5.96,0,8.94,0,3.74,0,7.48-.01,11.22,0,.41-.04.82-.07,1.23.03.17.07.33.07.5-.02,4.47-.09,8.95-.04,13.42.01,1.34-.04,2.66-.16,3.99-.07.78-2.22,6.69-9.46,2.36,0,.03.01.05.02.08.02.04.03.07.05.11.83,2.75,4.37,5.17,8,5.49.06,0,.12.01.17.02.08,0,.15.02.23.02.03,0,.06,0,.1,0,.53-.01,1.06-.03,1.58-.04.06,0,.11,0,.17,0,1.18-.13,2.33-.38,3.43-.81,1.66-.92,3.19-2,4.11-3.73.71-1.34,1.22-2.76,1.23-4.29.03-8.52.03-17.04.05-25.56-.01-3.03-.02-6.07-.03-9.1.01-1.33.02-2.65.03-3.98-.01-1.68-.02-3.36-.03-5.03h0c.05-.3.11-.59.16-.89-.05-.04-.1-.09-.15-.13.07-.03.14-.07.21-.1.03-.16.06-.32.09-.49.39-2.9,1.68-5.4,3.53-7.6,2.48-2.93,5.64-4.86,9.32-5.96.12-.04.27,0,.41,0,.74.04,1.39-.57,2.16-.26.16-.07.32-.14.61-.26-.28-.1-.4-.14-.53-.19Z" style="fill:url(#uuid-3c021082-be24-40cb-b0f5-6f5fc50c6994);"/><path d="m136.8,62.22c.01-1.33.02-2.65.03-3.98.28-.14.56-.27.84-.41,0,2.84.01,5.69.02,8.53,0,1.46-.02,2.93-.02,4.39-.28.19-.56.38-.84.57-.01-3.03-.02-6.07-.03-9.1Z" style="fill:#6be8f4;"/><path d="m102.2,87.91c.24.01.3.09.06.35-.03-.16-.04-.26-.06-.35,0,0,0,0,0,0Z" style="fill:#ab46d9;"/><path d="m109.55,82.49c.07.05.15.1,0,0,.07.15.03.08,0,0,0,0,0,0,0,0Z" style="fill:#ab46d9;"/><path d="m93.59,98.68c.02-.13.03-.26.05-.39-.02.13-.03.26-.05.39Z" style="fill:#7672df;"/><path d="m93.63,97.56c-.01-.1-.03-.21-.04-.31.01.1.03.21.04.31Z" style="fill:#7672df;"/><path d="m93.55,96.41c-.02-.09-.03-.19-.05-.28.02.09.03.19.05.28Z" style="fill:#ab46d9;"/><path d="m93.4,95.52c-.02-.06-.04-.13-.07-.19.02.06.04.13.07.19Z" style="fill:#ab46d9;"/><path d="m88.14,105.62s0-.04,0-.07c.05,0,.1-.01.16-.02-.05.03-.11.05-.16.08Z" style="fill:#ab46d9;"/><path d="m93.64,97.88s-.02-.03-.02-.05c0,0,.01-.02.02-.02.01.03.01.05,0,.08Z" style="fill:url(#uuid-eb014051-dee2-4337-8627-a116c37bb120);"/><path d="m142.46,66.38c-1.59,0-3.18-.02-4.76-.02,0,1.46-.02,2.93-.02,4.39,0,.05.01.1.02.15,0,.94,0,11.6,0,12.54h4.77c0-.87-.08-12.88-.08-13.74.01-1.11-.28-2.23.08-3.33Zm-2.12,4.14c.07,0,.11.01.15.02-.04,0-.09-.01-.15-.02Zm.23-.03s.02,0,0,0h0Zm-.04,0s-.03,0-.05,0c.02,0,.03,0,.05,0Zm.02.05s.04,0,0,0h0Z" style="fill:url(#uuid-5d7b31a3-26cc-43bd-bc2c-6c43851b2881);"/><path d="m154.57,60.6c0-.14,0-.29.01-.43,0,.14,0,.29-.01.43Z" style="fill:#8bedf6;"/><path d="m137.68,74.12c0-.09,0-.17,0-.26,0,.09,0,.17,0,.26Z" style="fill:#7672df;"/><path d="m154.56,59.95s0-.07,0-.1c0,.02.02.05.03.07,0,0-.01.02-.02.03Z" style="fill:#8bedf6;"/><polygon points="154.54 60.83 154.54 60.81 154.56 60.82 154.54 60.83" style="fill:#8bedf6;"/><path d="m140.54,81.36c.07-.05.14-.13.16-.12.06.03.09.09.14.14-.05.04-.1.1-.14.1-.04,0-.09-.07-.16-.13Z" style="fill:#9558dc;"/><path d="m137.68,82.41s0-.06,0-.08c0,.02.02.04.02.06,0,0-.02.02-.02.02Z" style="fill:#9558dc;"/><path d="m24.57,66.36c1.59,0,3.18.01,4.76.02v17.05l-4.77.02c0-.13-.01-12.56-.02-12.7,0-1.46.02-2.93.03-4.39Zm2.57,3.84l.14.14c.04-.05.08-.1.11-.16-.04-.04-.09-.08-.13-.11-.04.04-.09.09-.13.13Z" style="fill:url(#uuid-8c8f65d7-37a0-4e67-99ba-27aee0a18dd9);"/><path d="m24.56,73.14c0-.16,0-.31,0-.47,0,.16,0,.31,0,.47Z" style="fill:#2047b8;"/><path d="m24.56,80.81c0-.16,0-.32,0-.48,0,.16,0,.32,0,.48Z" style="fill:#7672df;"/><path d="m24.56,76.66c0-.08,0-.17,0-.25,0,.08,0,.17,0,.25Z" style="fill:#7672df;"/><path d="m24.57,72.51s0-.1,0-.15c0,.05,0,.1,0,.15Z" style="fill:#2047b8;"/><path d="m24.56,78.26c0-.05,0-.11,0-.16,0,.05,0,.11,0,.16Z" style="fill:#7672df;"/><path d="m24.57,78.9c0-.05,0-.11,0-.16,0,.05,0,.11,0,.16Z" style="fill:#7672df;"/><path d="m24.57,79.21c0-.05,0-.11,0-.16,0,.05,0,.11,0,.16Z" style="fill:#7672df;"/><path d="m24.57,80.17c0-.05,0-.11,0-.16,0,.05,0,.11,0,.16Z" style="fill:#7672df;"/><path d="m24.57,71.55s0-.05,0-.07c.02.02.02.05,0,.07Z" style="fill:#2047b8;"/><path d="m87.9,89.75c-.36-.17-.91.04-1.07-.53.7-.08,1.4-.17,2.11-.25-.13.34-.27.69-.4,1.03-.13-.05-.27-.11-.4-.16.04-.09.09-.17.13-.26-.1-.04-.21-.08-.31-.12-.02.1-.04.2-.06.29Z" style="fill:#9558dc;"/><path d="m110.53,71.93c-.66.35-.88.47-1.11.58-.24-.12-.26-.38-.12-.45.22-.11.51-.07,1.22-.13Z" style="fill:#9558dc;"/><path d="m119.63,81.98c-.1.45-.28.28-.55.18.22-.07.35-.11.55-.18Z" style="fill:#6be8f4;"/><path d="m119.31,99.41c-.06-.06-.13-.11-.13-.15,0-.05.06-.1.09-.15.05.04.12.08.15.13.01.02-.06.09-.11.17Z" style="fill:#00d7ed;"/><path d="m120.11,99.23c-.06.06-.11.13-.15.13-.05,0-.1-.06-.15-.09.04-.05.08-.12.13-.15.02-.01.09.06.17.11Z" style="fill:#00d7ed;"/><path d="m120.87,81.86h-.27s0-.07,0-.1h.27s0,.07,0,.1Z" style="fill:#6be8f4;"/><path d="m124.07,80.88c-.08.02-.17.04-.25.06-.01-.04-.02-.09-.04-.13.08-.03.17-.05.25-.08.01.05.03.1.04.15Z" style="fill:#6be8f4;"/><path d="m121.88,81.49l.22-.12s.04.06.06.1c-.07.05-.14.1-.21.14-.02-.04-.05-.08-.07-.12Z" style="fill:#6be8f4;"/><path d="m122.95,80.85h.29s0,.06,0,.09c-.1,0-.19.01-.29.02,0-.04,0-.07,0-.11Z" style="fill:#6be8f4;"/><path d="m126.54,79.85s-.09.09-.14.13c-.02-.02-.03-.04-.05-.05.05-.04.09-.09.14-.13.02.02.03.04.05.05Z" style="fill:#6be8f4;"/><path d="m125.84,80.15c-.38.06-.33.05,0,0-.31.12-.36.14,0,0Z" style="fill:#6be8f4;"/><path d="m122.7,81.29s-.03.03-.05.04c0,0-.03-.02-.03-.02,0-.02.02-.04.03-.06.02.01.04.03.05.04Z" style="fill:#6be8f4;"/><path d="m142.14,54.23c-1.49,0-2.98,0-4.46,0,.03-.61.06-1.22.08-1.83.01-.05.03-.11.04-.16,0-.11.02-.21.03-.32.73-3.65,2.32-6.84,5.03-9.44,2.16-2.07,4.73-3.44,7.52-4.44.74.04,1.39-.57,2.16-.26-5.74,2.55-9.27,6.82-10.23,13.1-.05,1.11-.11,2.23-.16,3.34Z" style="fill:url(#uuid-bb34b458-d9d5-467b-82b9-4d0f910c77dd);"/><path d="m150.37,38.05c-2.79,1-5.36,2.37-7.52,4.44-2.71,2.6-4.3,5.79-5.03,9.44-.24-.11-.48-.21-.71-.32.39-2.9,1.68-5.4,3.53-7.6,2.48-2.93,5.64-4.86,9.32-5.96.12-.04.27,0,.41,0Z" style="fill:#459ce5;"/><path d="m137.12,51.6c.24.11.48.21.71.32,0,.11-.02.21-.03.32-.01.05-.03.11-.04.16-.03.61-.06,1.22-.08,1.83,0,1.2,0,2.4-.01,3.59-.28.14-.56.27-.84.41,0-1.68-.02-3.36-.03-5.03.05-.3.11-.59.16-.89.02-.08.04-.16.07-.23.03-.16.06-.32.09-.49Z" style="fill:#3de1f1;"/><path d="m137.03,52.09c-.02.08-.04.16-.07.23-.05-.04-.1-.09-.15-.13.07-.03.14-.07.21-.1Z" style="fill:#00c0de;"/><path d="m71.44,46.58s-.05.05-.08.07c.03-.02.05-.05.08-.07Z" style="fill:#6be8f4;"/><path d="m28.96,54.26c-1.34,0-2.69,0-4.03,0-.12,0-.25-.02-.37-.03.09-.8.18-1.59.27-2.39,1.33-7.11,5.8-11.41,12.43-13.75.8-.22,1.6-.44,2.41-.67.07.01.14.02.42.06-6.1,2.58-9.84,6.87-10.88,13.31-.06,1.14-.11,2.29-.17,3.43,0,0,0,.02,0,.02-.02-.02-.05-.02-.07,0Z" style="fill:url(#uuid-2bd99485-081a-4444-a5da-a2bb499f951d);"/><path d="m101.73,74.14s0,0,0,0c0,0,0,0,0,0Z" style="fill:#8bedf6;"/><path d="m101.79,73.35s0,0,0,0c0,0,0,0,0,0Z" style="fill:#8bedf6;"/><path d="m87.41,53.75c-.13-.01-.25-.02-.38-.03.13.01.25.02.38.03Z" style="fill:#8bedf6;"/><path d="m86.14,53.67c-.08,0-.15-.01-.23-.02.08,0,.15.01.23.02Z" style="fill:#8bedf6;"/><path d="m85.67,53.63s-.05,0-.08,0c.03,0,.05,0,.08,0Z" style="fill:#8bedf6;"/><path d="m83.91,53.68s.05-.02.08-.03c0,.03,0,.06.01.09-.03-.02-.06-.04-.09-.05Z" style="fill:#8bedf6;"/><path d="m86.86,53.71s-.05,0-.08,0c.03-.01.05-.01.08,0Z" style="fill:#8bedf6;"/><path d="m84.62,53.66h-.03s-.03,0-.03,0c.02,0,.05,0,.07,0Z" style="fill:#8bedf6;"/><path d="m87.18,38.76c.04-.08.08-.16,0,0,.15-.09.08-.04,0,0,0,0,0,0,0,0Z" style="fill:#6be8f4;"/><path d="m87.5,38.12c.07.05.15.1,0,0,.07.16.04.08,0,0,0,0,0,0,0,0Z" style="fill:#6be8f4;"/><path d="m87.99,42.37c-.22.09-.43.19-.65.28-.02,0-.05.02-.07.03-.1.06-.21.11-.31.17-.08-.06-.17-.12-.25-.18.85-.35,1.71-.69,2.56-1.04,1.08-.21,2.07-.8,3.21-.71-1.44.46-2.88.91-4.31,1.37-.03-.04-.05-.08-.12-.17-.02.13-.03.19-.04.25Z" style="fill:#3de1f1;"/><path d="m93.9,40.59c-.43.09-.85.19-1.28.28.36-.39.82-.36,1.28-.28Z" style="fill:#3de1f1;"/><path d="m87.55,105.75s.05,0,.08-.01c-.03,0-.05,0-.08.01Z" style="fill:#7672df;"/><path d="m93.9,40.59c-.43.09-.85.19-1.28.28-.05.01-.1.03-.15.04-1.44.46-2.88.91-4.31,1.37-.05.03-.11.06-.16.09l-.65.28s-.04.03-.07.03c-.1.06-.21.11-.31.17-3.45,1.64-6.52,3.81-9.2,6.52-3.7,3.82-6.43,8.21-7.82,13.38-.3,1.11-.68,2.21-.67,3.39.49-1.74,1.13-3.42,2.07-4.97,2.13-3.51,5.3-5.67,9.16-6.91,1-.17,2-.34,3-.52.03,0,.07-.01.1-.02.1-.01.21-.02.31-.03.03-.01.05-.02.08-.03.27-1.41,1.07-2.59,1.84-3.74,3.11-4.67,7.57-7.51,12.84-9.21.63-.2,1.26-.42,1.89-.63-2.24-.17-4.45.16-6.64.53Z" style="fill:url(#uuid-7d88112d-f71f-4797-b9ab-262b6c7220bb);"/><path d="m71.43,81.94c-1.83-2.87-2.53-6.09-2.75-9.44,0,0,0,0,0,0-.05-2.15.18-4.27.58-6.37-.01-1.18.37-2.28.67-3.39,1.39-5.17,4.12-9.55,7.82-13.38,2.69-2.71,5.75-4.89,9.2-6.52-.08-.06-.17-.12-.25-.18-1.48.47-2.81,1.27-4.1,2.1-7.85,5.01-12.68,12.08-14.42,21.24-.44,2.29-.63,4.59-.42,6.91.03,2.14.57,4.17,1.23,6.18,2.04,4.99,5.57,8.31,10.84,9.7-.23-.18-.44-.43-.71-.52-3.33-1.19-5.83-3.39-7.7-6.32Z" style="fill:url(#uuid-d625a260-3260-4c4a-a75b-54a15b59a888);"/><path d="m83.49,53.73s.07-.01.1-.02c-.03,0-.07.01-.1.02Z" style="fill:#8bedf6;"/><path d="m87.9,89.75c.02-.1.04-.2.06-.29.1.04.21.08.31.12-.04.09-.09.17-.13.26-.08-.03-.16-.06-.24-.08Z" style="fill:#ab46d9;"/><path d="m23.71,94.24c-.02,1.58.07,3.18-.36,4.75-.74,2.75-2.53,4.59-4.96,5.9.12,0,.26.02.37-.01,3.33-1.06,5.76-4.36,5.78-7.87.01-4.52.01-9.05.02-13.57,0-.45,0-.9,0-1.36,0-.43,0-.85,0-1.28,0-.16,0-.32,0-.48,0-.05,0-.11,0-.16,0-.05,0-.11,0-.16,0-.27,0-.53,0-.8,0-.05,0-.11,0-.16,0-.05,0-.11,0-.16,0-.05,0-.11,0-.16,0-.16,0-.32,0-.48,0-.05,0-.11,0-.16,0-.48,0-.95,0-1.43,0-.08,0-.17,0-.25,0-1.09,0-2.18,0-3.27,0-.16,0-.31,0-.47,0-.06,0-.11,0-.17,0-.05,0-.1,0-.15,0-.27,0-.54,0-.81,0-.02,0-.05,0-.07,0-.11,0-.22,0-.32,0-.13-.02-.27-.02-.4-.26.16-.53.32-.79.48,0,3.57,0,7.14-.01,10.71,0,4.1.03,8.2-.02,12.3Z" style="fill:#3de1f1;"/><path d="m23.69,63.73c0,.32,0,.64,0,.96.02,2.18.04,4.36.06,6.54.26-.16.53-.32.79-.48,0-1.46.02-2.93.03-4.39,0-2.84-.01-5.69-.02-8.53-.27.13-.54.26-.8.4-.02,1.36-.05,2.72-.07,4.07,0,.48.01.95.02,1.43Z" style="fill:#3de1f1;"/><path d="m36.64,38.13c-1.73.52-3.36,1.26-4.88,2.24-4.08,2.62-6.76,6.22-7.77,11,0,.16,0,.33,0,.49-.51,2.11-.32,4.24-.25,6.37.27-.13.54-.26.8-.4,0-1.17.01-2.33.02-3.5,0-.03-.01-.06-.02-.09.09-.8.18-1.59.27-2.39,1.33-7.11,5.8-11.41,12.43-13.75-.2,0-.42-.03-.61.02Z" style="fill:#3de1f1;"/><path d="m140.34,70.52c.35.04.3.03,0,0,.3-.04.35-.05,0,0Z" style="fill:#2047b8;"/><path d="m24.56,54.33s-.01-.06-.02-.09c.12,0,.25.02.37.03-.12.02-.24.05-.36.07Z" style="fill:#8bedf6;"/><path d="m28.96,54.26s.05-.02.07,0c-.02,0-.05,0-.07,0Z" style="fill:#8bedf6;"/><path d="m27.14,70.19s.09-.09.13-.13c.04.04.09.08.13.11-.04.05-.08.1-.11.16l-.14-.14Z" style="fill:#9558dc;"/><path d="m137.76,52.41c.01-.05.03-.11.04-.16-.01.06-.03.11-.04.16Z" style="fill:#459ce5;"/><path d="m87.99,42.37c.01-.06.02-.12.04-.25.06.09.09.13.12.17-.05.03-.11.06-.16.09Z" style="fill:#6be8f4;"/><path d="m87.27,42.68s.05-.02.07-.03c-.02.02-.04.03-.07.03Z" style="fill:#6be8f4;"/><path d="m78.24,51.13c.1.07.21.13,0,0,.13.2.07.1,0,0h0Z" style="fill:#2047b8;"/><path d="m78.88,51.21c-.08-.06-.17-.13,0,0-.09-.19-.04-.09,0,0,0,0,0,0,0,0Z" style="fill:#2047b8;"/><path d="m80.16,53.44c-.07-.05-.15-.1,0,0-.07-.15-.03-.07,0,0,0,0,0,0,0,0Z" style="fill:#2047b8;"/></g></svg>