<?xml version="1.0" encoding="UTF-8"?>
<svg id="Layer_2" xmlns="http://www.w3.org/2000/svg" viewBox="0 0 817 296.9">
  <g id="Layer_1-2" data-name="Layer_1">
    <path d="M58.1,11.03c0-3.42,2.74-6.16,6.16-6.16s6.16,2.74,6.16,6.16v12.89h17.57v-12.89c0-3.42,2.74-6.16,6.16-6.16s6.16,2.74,6.16,6.16v36.85c0,3.42-2.74,6.16-6.16,6.16s-6.16-2.74-6.16-6.16v-14.03h-17.57v14.03c0,3.42-2.74,6.16-6.16,6.16s-6.16-2.74-6.16-6.16V11.03Z" style="fill: #df1d37;"/>
    <path d="M130.09,4.41c15.86,0,25.21,9.93,25.21,24.99s-9.58,25.1-25.44,25.1-25.21-9.93-25.21-25.1c.11-15.06,9.58-24.99,25.44-24.99ZM130.09,44.8c6.5,0,11.52-4.56,11.52-15.4s-5.02-15.4-11.52-15.4-11.52,4.45-11.52,15.4,4.91,15.4,11.52,15.4Z" style="fill: #df1d37;"/>
    <path d="M184.06,4.41c15.86,0,25.21,9.93,25.21,24.99s-9.58,25.1-25.44,25.1-25.21-9.93-25.21-25.1c0-15.06,9.58-24.99,25.44-24.99ZM183.94,44.8c6.5,0,11.52-4.56,11.52-15.4s-5.02-15.4-11.52-15.4-11.52,4.45-11.52,15.4,5.02,15.4,11.52,15.4Z" style="fill: #df1d37;"/>
    <path d="M261.07,11.03c0-3.42,2.74-6.16,6.16-6.16s6.16,2.74,6.16,6.16v36.85c0,3.42-2.74,6.16-6.16,6.16s-6.16-2.74-6.16-6.16V11.03Z" style="fill: #df1d37;"/>
    <path d="M232.09,4.3c7.19,0,18.03,2.97,18.03,9.93,0,3.08-2.51,5.25-5.59,5.25-5.36,0-5.36-5.82-12.78-5.82-4.11,0-6.62,1.94-6.62,4.11,0,2.4,1.25,4.11,6.05,5.13l7.76,1.71c9.7,2.05,13.69,7.07,13.69,14.26,0,8.1-5.13,15.74-20.19,15.74-9.58,0-20.19-2.74-20.19-10.15,0-3.19,2.62-5.25,5.82-5.25,5.36,0,6.27,5.13,13.92,5.13,5.13,0,7.87-1.48,7.87-4.56,0-2.28-1.25-3.76-5.82-4.68l-7.87-1.71c-8.9-1.94-13.35-6.39-13.35-14.26.11-8.44,7.07-14.83,19.28-14.83Z" style="fill: #df1d37;"/>
    <path d="M284.34,10.8c0-3.54,1.94-5.36,5.36-5.36h23.5c2.62,0,4.91,2.28,4.91,5.02s-2.28,4.91-4.91,4.91h-16.77v9.36h13.8c2.62,0,4.79,2.17,4.79,4.79s-2.17,4.79-4.79,4.79h-13.8v9.36h18.03c2.62,0,4.91,2.28,4.91,4.91s-2.28,5.02-4.91,5.02h-24.76c-3.54,0-5.36-1.94-5.36-5.36V10.8h0Z" style="fill: #df1d37;"/>
    <path d="M326.21,10.8c0-3.54,1.94-5.36,5.36-5.36h15.63c10.95,0,17.8,5.25,17.8,14.72,0,6.39-3.19,11.07-8.56,13.58v.11l6.05,11.52c.46.8.68,1.71.68,2.74,0,3.19-2.62,5.82-5.93,5.82-2.28,0-4.22-1.25-5.25-3.19l-7.19-13.8h-6.39v10.84c0,3.42-2.74,6.16-6.16,6.16s-6.16-2.74-6.16-6.16V10.8h.11ZM344.69,27.35c4.11,0,7.87-1.14,7.87-6.39s-3.65-6.5-7.87-6.5h-6.16v13.01h6.16v-.11Z" style="fill: #df1d37;"/>
    <path d="M604.2,274.6h5.6v-5.7c0-2.1,1.7-3.9,3.9-3.9s3.9,1.8,3.9,3.9v5.7h5.6c2,0,3.7,1.6,3.7,3.7s-1.7,3.7-3.7,3.7h-5.6v6c0,2.1-1.7,3.9-3.9,3.9s-3.9-1.8-3.9-3.9v-6h-5.6c-2,0-3.7-1.6-3.7-3.7s1.7-3.7,3.7-3.7Z" style="fill: #989a99;"/>
    <path d="M633.9,259.7c0-3,1.6-4.6,4.6-4.6h12.1c9.4,0,15.9,5.1,15.9,14.1s-6.3,14.2-15.9,14.2h-6.3v7.7c0,2.9-2.3,5.2-5.2,5.2s-5.2-2.3-5.2-5.2v-31.4h0ZM649.1,275.5c4.2,0,7.2-1.6,7.2-6.1s-3-6.3-7.1-6.3h-4.9v12.4h4.8Z" style="fill: #989a99;"/>
    <path d="M672.6,259.9c0-2.9,2.3-5.2,5.2-5.2s5.2,2.3,5.2,5.2v27.6h14.3c2.3,0,4.2,1.9,4.2,4.2s-1.9,4.3-4.2,4.3h-20.1c-3,0-4.6-1.6-4.6-4.6v-31.5h0Z" style="fill: #989a99;"/>
    <path d="M706.3,259.9c0-2.9,2.3-5.2,5.2-5.2s5.2,2.3,5.2,5.2v20.9c0,4.5,1.9,7.5,6.7,7.5s6.6-3.1,6.6-7.5v-20.9c0-2.8,2.3-5.1,5.1-5.1s5.2,2.3,5.2,5.1v20.6c0,9.4-4.4,16.4-16.9,16.4s-17.1-6.9-17.1-16.4v-20.6Z" style="fill: #989a99;"/>
    <path d="M763.5,254.1c6.1,0,15.3,2.5,15.3,8.4,0,2.6-2.1,4.5-4.7,4.5-4.6,0-4.6-4.9-10.9-4.9-3.5,0-5.6,1.6-5.6,3.5,0,2,1,3.5,5.1,4.3l6.6,1.4c8.3,1.8,11.6,6,11.6,12.1,0,6.9-4.4,13.4-17.1,13.4-8.1,0-17.1-2.3-17.1-8.6,0-2.7,2.2-4.5,4.9-4.5,4.6,0,5.3,4.3,11.8,4.3,4.3,0,6.7-1.3,6.7-3.9,0-1.9-1-3.2-4.9-4l-6.7-1.4c-7.6-1.6-11.3-5.4-11.3-12.1,0-7,5.9-12.5,16.3-12.5Z" style="fill: #989a99;"/>
    <path d="M696.6,67c-50.3,0-91.2,39.9-91.2,89.2s40.8,89.2,91.2,89.2,91.2-39.9,91.2-89.2-40.9-89.2-91.2-89.2ZM695.7,207.8c-28,0-50.7-23.1-50.7-51.6s22.7-51.6,50.7-51.6,50.7,23.1,50.7,51.6c.1,28.5-22.7,51.6-50.7,51.6Z" style="fill: #018ea9;"/>
    <path d="M393.2,31.6h25.3c3.5,0,6.3,2.8,6.3,6.3v31.2c0,2.7,2.2,4.9,4.9,4.9h27.8c3.5,0,6.3,2.8,6.3,6.3v18.3c0,3.5-2.8,6.3-6.3,6.3h-25.8c-3.5,0-6.3,2.8-6.3,6.3v73.7c0,8.4,6.8,15.2,15.2,15.2h9.5c3.5,0,6.3,2.8,6.3,6.3v25.2c0,3.5-2.8,6.3-6.3,6.3h-29.3c-18.7,0-33.8-15.1-33.8-33.8v-90.6c0-3.5-2.8-6.3-6.3-6.3h-27.5c-3.5,0-6.3-2.8-6.3-6.3v-20.6c0-3.5,2.8-6.3,6.3-6.3h28.4c2.7,0,4.8-2.1,4.9-4.8l.4-31.4c0-3.5,2.8-6.2,6.3-6.2Z" style="fill: #018ea9;"/>
    <path d="M513.1,74h-21.5c-3.5,0-6.3,2.8-6.3,6.3v20.6c0,3.5,2.8,6.3,6.3,6.3h20.7l17-17.2-16.2-16Z" style="fill: #018ea9;"/>
    <path d="M563.3,55.7v-17.8c0-3.5-2.8-6.3-6.3-6.3h-25.3c-3.4,0-6.3,2.8-6.3,6.2l-.3,20.2,18.2,18,20-20.3Z" style="fill: #018ea9;"/>
    <path d="M525.4,122.1v82c0,18.7,15.1,33.8,33.8,33.8h29.2c3.5,0,6.3-2.8,6.3-6.3v-25.2c0-3.5-2.8-6.3-6.3-6.3h-9.5c-8.4,0-15.2-6.8-15.2-15.2v-60.9l-20.3-20.1-18,18.2Z" style="fill: #018ea9;"/>
    <path d="M596,74h-23l-15.6,15.8,15.3,15.1h23.3c3.5,0,6.3-2.8,6.3-6.3v-18.3c0-3.5-2.9-6.3-6.3-6.3Z" style="fill: #018ea9;"/>
    <path d="M808.2,284.5c1.2-.7,1.8-1.9,1.8-3.5,0-2.6-1.8-4.1-4.7-4.1h-4.3v11.6h2.4v-3.2h2.1l2.3,3.2h3l-2.6-4ZM805.4,282.8h-1.8v-3.4h1.8c2.2,0,2.2,1.3,2.2,1.7s0,1.7-2.2,1.7Z" style="fill: #989a99;"/>
    <path d="M805.5,294.3c-6.3,0-11.5-5.1-11.5-11.5s5.1-11.5,11.5-11.5,11.5,5.1,11.5,11.5-5.2,11.5-11.5,11.5ZM805.5,274.8c-4.4,0-8,3.6-8,8s3.6,8,8,8,8-3.6,8-8-3.6-8-8-8Z" style="fill: #989a99;"/>
    <path d="M252.8,67c-50.3,0-91.2,39.9-91.2,89.2,0,19.4,6.3,37.3,17.1,51.9h-89.9c-47-4.6-47-44.7-47-44.7V0H1.1L0,152.3c-.1,14.2,3.1,28.2,9.6,40.8,24.9,47.6,76.3,52.3,76.3,52.3h156l7.1-.1c1.3.1,2.5.1,3.8.1,50.3,0,91.2-39.9,91.2-89.2s-40.8-89.2-91.2-89.2ZM252,207.8c-28,0-50.7-23.1-50.7-51.6s22.7-51.6,50.7-51.6,50.7,23.1,50.7,51.6-22.7,51.6-50.7,51.6Z" style="fill: #018ea9;"/>
  </g>
</svg>