<svg xmlns="http://www.w3.org/2000/svg" xmlns:xlink="http://www.w3.org/1999/xlink" viewBox="0 0 346.76 93.02"><defs><radialGradient id="radial-gradient" cx="313" cy="453.38" r="26.02" gradientTransform="translate(0 -409.29)" gradientUnits="userSpaceOnUse"><stop offset="0" stop-color="#e42f43"/><stop offset="1" stop-color="#da2d3f"/></radialGradient><linearGradient id="linear-gradient" x1="313" y1="479.42" x2="313" y2="427.34" gradientTransform="translate(0 -409.29)" gradientUnits="userSpaceOnUse"><stop offset="0" stop-color="#8f1a26"/><stop offset="0.04" stop-color="#8f1a26" stop-opacity="0.83"/><stop offset="0.1" stop-color="#8f1a26" stop-opacity="0.61"/><stop offset="0.16" stop-color="#8f1a26" stop-opacity="0.42"/><stop offset="0.24" stop-color="#8f1a26" stop-opacity="0.26"/><stop offset="0.32" stop-color="#8f1a26" stop-opacity="0.14"/><stop offset="0.43" stop-color="#8f1a26" stop-opacity="0.06"/><stop offset="0.58" stop-color="#8f1a26" stop-opacity="0.01"/><stop offset="1" stop-color="#8f1a26" stop-opacity="0"/></linearGradient><radialGradient id="radial-gradient-2" cx="255.66" cy="453.12" r="26.06" gradientTransform="translate(0 -409.29)" gradientUnits="userSpaceOnUse"><stop offset="0" stop-color="#fff"/><stop offset="0.7" stop-color="#fdfdfd"/><stop offset="0.95" stop-color="#f6f6f6"/><stop offset="1" stop-color="#f4f4f4"/></radialGradient><linearGradient id="linear-gradient-2" x1="255.66" y1="479.19" x2="255.66" y2="427.11" gradientTransform="translate(0 -409.29)" gradientUnits="userSpaceOnUse"><stop offset="0" stop-color="#939392"/><stop offset="0.04" stop-color="#939392" stop-opacity="0.8"/><stop offset="0.1" stop-color="#939392" stop-opacity="0.59"/><stop offset="0.17" stop-color="#939392" stop-opacity="0.4"/><stop offset="0.24" stop-color="#939392" stop-opacity="0.25"/><stop offset="0.33" stop-color="#939392" stop-opacity="0.14"/><stop offset="0.43" stop-color="#939392" stop-opacity="0.06"/><stop offset="0.58" stop-color="#939392" stop-opacity="0.01"/><stop offset="1" stop-color="#939392" stop-opacity="0"/></linearGradient><radialGradient id="radial-gradient-3" cx="198.36" cy="49.15" r="26.04" gradientTransform="matrix(1, 0, 0, -1, 0, 96.03)" xlink:href="#radial-gradient-2"/><linearGradient id="linear-gradient-3" x1="198.36" y1="479.19" x2="198.36" y2="427.11" xlink:href="#linear-gradient-2"/><radialGradient id="radial-gradient-4" cx="141" cy="49.15" r="26.04" gradientTransform="matrix(1, 0, 0, -1, 0, 96.03)" xlink:href="#radial-gradient-2"/><linearGradient id="linear-gradient-4" x1="141" y1="479.19" x2="141" y2="427.11" xlink:href="#linear-gradient-2"/><radialGradient id="radial-gradient-5" cx="83.4" cy="49.15" r="26.04" gradientTransform="matrix(1, 0, 0, -1, 0, 96.03)" xlink:href="#radial-gradient-2"/><linearGradient id="linear-gradient-5" x1="83.4" y1="479.19" x2="83.4" y2="427.11" xlink:href="#linear-gradient-2"/><radialGradient id="radial-gradient-6" cx="26" cy="49.15" r="26.06" gradientTransform="matrix(1, 0, 0, -1, 0, 96.03)" xlink:href="#radial-gradient-2"/><linearGradient id="linear-gradient-6" x1="26" y1="479.19" x2="26" y2="427.11" xlink:href="#linear-gradient-2"/></defs><g id="Layer_2" data-name="Layer 2"><g id="Layer_1-2" data-name="Layer 1"><g id="Layer_2-2" data-name="Layer 2"><g id="Layer_1-2-2" data-name="Layer 1-2"><path d="M313,18h0a26,26,0,0,1,26,26h0a26,26,0,0,1-26,26h0a26,26,0,0,1-26-26h0A26,26,0,0,1,313,18Z" style="fill:url(#radial-gradient)"/><path d="M313,18h0a26,26,0,0,1,26,26h0a26,26,0,0,1-26,26h0a26,26,0,0,1-26-26h0A26,26,0,0,1,313,18Z" style="fill:url(#linear-gradient)"/><path d="M255.66,17.83h0a26,26,0,0,1,26,26h0a26,26,0,0,1-26,26h0a26,26,0,0,1-26-26h0A26,26,0,0,1,255.66,17.83Z" style="fill:url(#radial-gradient-2)"/><path d="M255.66,17.83h0a26,26,0,0,1,26,26h0a26,26,0,0,1-26,26h0a26,26,0,0,1-26-26h0A26,26,0,0,1,255.66,17.83Z" style="fill:url(#linear-gradient-2)"/><path d="M198.36,17.83h0a26,26,0,0,1,26,26h0a26,26,0,0,1-26,26h0a26,26,0,0,1-26-26h0A26,26,0,0,1,198.36,17.83Z" style="fill:url(#radial-gradient-3)"/><path d="M198.36,17.83h0a26,26,0,0,1,26,26h0a26,26,0,0,1-26,26h0a26,26,0,0,1-26-26h0A26,26,0,0,1,198.36,17.83Z" style="fill:url(#linear-gradient-3)"/><path d="M141,17.83h0a26,26,0,0,1,26,26h0a26,26,0,0,1-26,26h0a26,26,0,0,1-26-26h0A26,26,0,0,1,141,17.83Z" style="fill:url(#radial-gradient-4)"/><path d="M141,17.83h0a26,26,0,0,1,26,26h0a26,26,0,0,1-26,26h0a26,26,0,0,1-26-26h0A26,26,0,0,1,141,17.83Z" style="fill:url(#linear-gradient-4)"/><path d="M83.4,17.83h0a26,26,0,0,1,26,26h0a26,26,0,0,1-26,26h0a26,26,0,0,1-26-26h0A26,26,0,0,1,83.4,17.83Z" style="fill:url(#radial-gradient-5)"/><path d="M83.4,17.83h0a26,26,0,0,1,26,26h0a26,26,0,0,1-26,26h0a26,26,0,0,1-26-26h0A26,26,0,0,1,83.4,17.83Z" style="fill:url(#linear-gradient-5)"/><path d="M26,17.83h0a26,26,0,0,1,26,26h0a26,26,0,0,1-26,26h0a26,26,0,0,1-26-26H0A26,26,0,0,1,26,17.83Z" style="fill:url(#radial-gradient-6)"/><path d="M26,17.83h0a26,26,0,0,1,26,26h0a26,26,0,0,1-26,26h0a26,26,0,0,1-26-26H0A26,26,0,0,1,26,17.83Z" style="fill:url(#linear-gradient-6)"/><path d="M338.37,76.83h-55V92.46h55Z" style="fill:#fff"/><path d="M203.26,76.46V93H338.93V76.46ZM337.65,91.79H285.54V77.73h52.11Z" style="fill:#101820"/><path d="M207.14,78.78h6.38a4.32,4.32,0,0,1,3.12,1,3.61,3.61,0,0,1,.79,1.3,4.27,4.27,0,0,1-.92,4.46,5,5,0,0,1-3.46,1.06H211v4.62h-3.9V78.78Zm3.85,5.3h.94a2.45,2.45,0,0,0,1.56-.39,1.26,1.26,0,0,0,.45-1,1.4,1.4,0,0,0-.1-.54,1.56,1.56,0,0,0-.29-.46,2,2,0,0,0-1.46-.41H211v2.8Z" style="fill:#fff;fill-rule:evenodd"/><path d="M220.43,84.66a5.71,5.71,0,0,1,.31-2.56,5.81,5.81,0,0,1,1.37-2.17,5.59,5.59,0,0,1,2.17-1.38,5.72,5.72,0,0,1,2.56-.32,6.36,6.36,0,0,1,2.56.35,5.86,5.86,0,0,1,3.9,6,7.86,7.86,0,0,1-.73,3.57,5.4,5.4,0,0,1-2.12,2.17,7,7,0,0,1-3.45.78,8,8,0,0,1-3.48-.67,5.33,5.33,0,0,1-2.24-2.12,7,7,0,0,1-.85-3.63Zm3.84,0a4.11,4.11,0,0,0,.7,2.7,2.42,2.42,0,0,0,.85.63,2.51,2.51,0,0,0,1.05.19,2.46,2.46,0,0,0,1-.18,2.71,2.71,0,0,0,.87-.62,4.6,4.6,0,0,0,.69-2.89,3.9,3.9,0,0,0-.71-2.57,2.44,2.44,0,0,0-.87-.62,2.15,2.15,0,0,0-1-.19,2.29,2.29,0,0,0-1,.2,2.14,2.14,0,0,0-.83.63,4.1,4.1,0,0,0-.7,2.72Z" style="fill:#fff;fill-rule:evenodd"/><path d="M235.82,78.72h3.64l1.31,6.94,1.88-6.94h3.64l1.92,6.94,1.31-6.94h3.63l-2.7,12.42h-3.8l-2.18-7.82-2.17,7.82h-3.76Z" style="fill:#fff;fill-rule:evenodd"/><path d="M256.65,78.72h10.29v2.66H260.5v2h6v2.5h-6v2.5h6.63V91.2H256.65Z" style="fill:#fff;fill-rule:evenodd"/><path d="M270.5,91.15V78.72h6.39a8.59,8.59,0,0,1,2.72.31,2.82,2.82,0,0,1,1.52,1.13,3.46,3.46,0,0,1,.58,2,3.59,3.59,0,0,1-.44,1.78,3.81,3.81,0,0,1-1.21,1.22,5.32,5.32,0,0,1-1.35.49,3.37,3.37,0,0,1,1,.46,3.76,3.76,0,0,1,.61.65,5.91,5.91,0,0,1,.54.77l1.86,3.61h-4.29l-2-3.8a2.92,2.92,0,0,0-.7-1,1.66,1.66,0,0,0-.94-.29h-.34v5Zm3.85-7.4H276c.34,0,.67-.09,1-.16a1.11,1.11,0,0,0,.86-1.12,1.06,1.06,0,0,0-.09-.5,1,1,0,0,0-.29-.42,2.31,2.31,0,0,0-1.43-.32h-1.69v2.52Z" style="fill:#fff;fill-rule:evenodd"/><path d="M290.65,80v4.7h2a4.56,4.56,0,0,0,2.53-.57,2.23,2.23,0,0,0,.63-.77,2.17,2.17,0,0,0,.18-1,2,2,0,0,0-.82-1.81,4.72,4.72,0,0,0-2.63-.57Zm-1.39-1.21h3a12.87,12.87,0,0,1,2.06.11,4.5,4.5,0,0,1,1.33.43,3.83,3.83,0,0,1,1.43,1.28,3.25,3.25,0,0,1,.47,1.72,3.36,3.36,0,0,1-1.7,3,4.57,4.57,0,0,1-1.34.48,11.16,11.16,0,0,1-2,.15h-1.86v5.16h-1.39Z" style="fill:#101820;fill-rule:evenodd"/><path d="M306.65,91h-6.4V78.63h1.4V89.78h5Z" style="fill:#101820;fill-rule:evenodd"/><path d="M310.3,90.82h-1.47l5.49-12.34H316l5.44,12.34H320l-1.69-3.88H312l-1.69,3.88Zm7.49-5-2.68-6.19-2.68,6.2Z" style="fill:#101820;fill-rule:evenodd"/><path d="M329.35,86.66V91.2H328V86.65l-4.51-7.79h1.59l3.59,6.41,3.65-6.41h1.54Z" style="fill:#101820;fill-rule:evenodd"/><path d="M339.23,64.48a3.77,3.77,0,0,1,.85-1.23,3.88,3.88,0,0,1,2.77-1.11,3.42,3.42,0,0,1,1.48.28,3.93,3.93,0,0,1,1.27.83A3.78,3.78,0,0,1,346.76,66a4.12,4.12,0,0,1-.31,1.55,3.81,3.81,0,0,1-2.09,2.06,4,4,0,0,1-4.25-.81,3.65,3.65,0,0,1-.85-1.25,4,4,0,0,1,0-3.09Zm.64,2.87a3.23,3.23,0,0,0,.68,1,3.09,3.09,0,0,0,1,.71,3.74,3.74,0,0,0,1.28.25,3.62,3.62,0,0,0,1.26-.25,3.71,3.71,0,0,0,1-.71A3,3,0,0,0,346,66a3.06,3.06,0,0,0-.92-2.31,3,3,0,0,0-1-.73,3.11,3.11,0,0,0-3.52.69,3,3,0,0,0-.68,1,4,4,0,0,0,0,2.68Zm3.22-3.6a1.8,1.8,0,0,1,1.21.33,1.21,1.21,0,0,1,.39,1,1.06,1.06,0,0,1-.08.49,1.22,1.22,0,0,1-.27.41,1.86,1.86,0,0,1-.85.34l1.3,2H344l-1.24-2H342v2h-.71V63.75Zm-.31,2h.45a1.24,1.24,0,0,0,.38-.09.73.73,0,0,0,.27-.22A.89.89,0,0,0,344,65a.57.57,0,0,0-.08-.34.47.47,0,0,0-.24-.24.75.75,0,0,0-.32-.1H342v1.45Z" style="fill:#101820"/><path d="M291.23,52.9c-2.07-6.7-1.62-12.6,0-18.81,1.72-.1,3.44-.18,5.16-.25,2.45-.1,4,.91,3.6,4.88a7.44,7.44,0,0,1-1.76,4.3c1.26.58,1.94,2.46,2.11,4.64.36,4.49-1,6-3.84,5.71C294.75,53.24,293,53,291.23,52.9Zm2.42-14.52a28.7,28.7,0,0,0-.39,3.21h1.6c.77,0,1.34-.56,1.46-1.71.16-1.52-.54-1.55-1.35-1.54Zm-.41,6.73a30.85,30.85,0,0,0,.39,3.58l1.65.08c.93,0,1.57-.24,1.43-1.72-.14-1.73-1-1.87-2.25-1.91Z" style="fill:#fff"/><path d="M301.09,53c.09-6.34,2.32-12.78,4.91-19.28l4.58-.06c1.23,6.49,3.46,13,4.92,19.53H311c-.23-.86-.46-1.72-.68-2.58h-4.69c-.09.85-.15,1.7-.19,2.55Zm6.73-13.45c-.6,2.33-1.13,4.65-1.53,7h3.07c-.58-2.34-1.12-4.66-1.54-7Z" style="fill:#fff"/><path d="M317,53.32a180.83,180.83,0,0,0,0-19.48h4.17a74.23,74.23,0,0,1,.46,14.9l6.09-.08a45.23,45.23,0,0,1-.83,4.45C323.65,53.22,320.32,53.29,317,53.32Z" style="fill:#fff"/><path d="M328.09,53a44.91,44.91,0,0,0,.08-19c1.07.06,2.36.2,3.43.28a32.75,32.75,0,0,1,.63,14h4.38a29.88,29.88,0,0,1-1.5,4.29C332.58,52.87,330.65,52.89,328.09,53Z" style="fill:#fff"/><path d="M28.72,28.29c-1.33,0-2.55,0-3.72-.07a58.57,58.57,0,0,0-9.27.23h-.28l-.08.28C13.7,35.45,12.43,43.87,14.51,60v.4h.74c1.61,0,3.11.09,4.63.09,1.36,0,2.74,0,4.23-.13h.4V60c-.08-3.1-.08-6.21-.08-9.26h4.71c4.8-.06,8.39-1.3,10.69-3.69a10.16,10.16,0,0,0,2.6-7.47C42.16,32.74,36.91,28.46,28.72,28.29ZM32.43,38.9a3.32,3.32,0,0,1-.22,1.28,3.44,3.44,0,0,1-.7,1.1,4.83,4.83,0,0,1-3.36,1.24H24.36c0-1.19.05-2.48.08-3.74,0-1,0-1.9.07-2.79H27C28.65,36,32.43,36.22,32.43,38.9Z" style="fill:#101820"/><path d="M83.52,27.3A16.33,16.33,0,0,0,68.29,37.38,16,16,0,0,0,67,43.67c.12,9.63,7,16.7,16.49,16.81A16.53,16.53,0,0,0,100,44v-.2h0A16.57,16.57,0,0,0,83.52,27.3Zm-5.6,16.41c0-3.9,1.45-8.06,5.53-8.08h.2a4.52,4.52,0,0,1,3.28,1.3c1.42,1.39,2.28,3.93,2.28,6.78,0,3.13-.74,8.39-5.64,8.41C78.32,52.12,77.92,45.67,77.92,43.71Z" style="fill:#101820"/><path d="M158.82,29.28h-.3c-2.53-.08-3-.09-5.65-.15h-1.94v.42a57,57,0,0,1-1.66,16.35c-.69-3.87-1.61-7.38-2.57-11.06-.46-1.79-.94-3.63-1.42-5.6l-.07-.27h-.28a71.21,71.21,0,0,0-7.45,0h-.29l-.07.27c-.6,2.48-1.26,4.76-1.89,7-.93,3.23-1.81,6.3-2.45,9.69a57.18,57.18,0,0,1-1.35-16.44v-.41h-7.49l-.08.3c-2.15,8.13-.26,17.9,6,30.76l.11.21h.23c2.07,0,3.13.07,4.15.07s1.86,0,3.54-.06h.34V60c.55-5.6,1.67-11.37,2.77-17,1.12,5.59,2.25,11.36,2.81,17v.36h.36c1.58-.07,3-.07,4.42-.07h4.23l.1-.22c5.57-11.5,7.65-22.32,5.87-30.45Z" style="fill:#101820"/><path d="M195.94,52.25V48.17c4.14,0,8.35,0,12.51-.1h.4V40.15h-.42c-4.1-.1-8.31-.14-12.5-.11V36.38c3.28,0,6.45,0,9.8.14l5,.11h.5l-.08-.49a36.33,36.33,0,0,0-1.93-6.87l-.09-.24h-.25a78.13,78.13,0,0,0-22.13,0h-.32l-.06.29a67.54,67.54,0,0,0,0,29.94l.07.28h.28a92.22,92.22,0,0,0,11.86.85,87.41,87.41,0,0,0,11.32-.8h.25l.09-.23a25.29,25.29,0,0,0,1.41-7.09v-.48h-.49C206.13,52.17,201,52.31,195.94,52.25Z" style="fill:#101820"/><path d="M270.43,53.38c.45-5.64-1.77-7.08-4.65-8.2A6.87,6.87,0,0,0,270.23,38c-.57-6.6-5.14-9.91-14-10.12h-1.72a46.57,46.57,0,0,0-10.41.76h-.24l-.07.23c-3.48,10.34-3.8,21.51-.86,30.66l.07.24h.25a39.08,39.08,0,0,0,7,.6h2.07V59.9c-.17-3.56-.23-7.21-.28-10.74V49h2.75c2,0,3.29.36,4,1.12.9.93,1,2.54,1,4.68A20.6,20.6,0,0,0,260,60l.1.32h.33c1-.07,2-.1,2.93-.13a55.23,55.23,0,0,0,6.3-.42h.3l.3-1.73-.57.1h0a8.48,8.48,0,0,1,.2-1.14,27.68,27.68,0,0,0,.63-3.6Zm-10.21-14.1a2.34,2.34,0,0,1-.11.87,2.31,2.31,0,0,1-.45.75c-.65.66-1.94,1-4,1H252c0-1.77,0-3.6.09-5.57,1.45,0,2.92-.06,4.35-.06C258.78,36.28,260.18,37.38,260.22,39.28Z" style="fill:#101820"/><path d="M.9.33H2.46V5H8.31V.33H9.87V11.72H8.31V6.39H2.46v5.33H.9Z"/><path d="M23.12,2a6.28,6.28,0,0,1,1.13,3.87A6.78,6.78,0,0,1,23,10.07a5.15,5.15,0,0,1-4.34,2,5.21,5.21,0,0,1-4.13-1.73A6.62,6.62,0,0,1,13.19,6.1a6.65,6.65,0,0,1,1.11-4A5,5,0,0,1,18.66,0,5.18,5.18,0,0,1,23.12,2ZM21.76,9.22a6.28,6.28,0,0,0,.91-3.37,4.78,4.78,0,0,0-1.05-3.23,3.58,3.58,0,0,0-2.87-1.23,3.73,3.73,0,0,0-2.89,1.22,5.14,5.14,0,0,0-1.11,3.58,5.3,5.3,0,0,0,1,3.19,3.57,3.57,0,0,0,3.1,1.3A3.25,3.25,0,0,0,21.76,9.22Z"/><path d="M36.89,2A6.33,6.33,0,0,1,38,5.83a6.73,6.73,0,0,1-1.3,4.24,5.15,5.15,0,0,1-4.33,2,5.21,5.21,0,0,1-4.13-1.73A6.57,6.57,0,0,1,26.9,6.1,6.73,6.73,0,0,1,28,2.15,5,5,0,0,1,32.42,0,5.21,5.21,0,0,1,36.89,2ZM35.53,9.22a6.37,6.37,0,0,0,.91-3.37,4.81,4.81,0,0,0-1-3.23,3.59,3.59,0,0,0-2.88-1.23,3.72,3.72,0,0,0-2.88,1.22,5.15,5.15,0,0,0-1.12,3.58,5.3,5.3,0,0,0,1,3.19,3.6,3.6,0,0,0,3.11,1.3A3.24,3.24,0,0,0,35.53,9.22Z"/><path d="M42.28,8a3.16,3.16,0,0,0,.44,1.58,2.88,2.88,0,0,0,2.61,1.13,4.61,4.61,0,0,0,1.52-.25,1.75,1.75,0,0,0,1.33-1.72,1.48,1.48,0,0,0-.56-1.32,5.48,5.48,0,0,0-1.79-.68l-1.5-.35a7,7,0,0,1-2.07-.75,2.42,2.42,0,0,1-1-2.13,3.3,3.3,0,0,1,1-2.52,4,4,0,0,1,2.93-1,4.93,4.93,0,0,1,3,.87,3.14,3.14,0,0,1,1.22,2.76H47.9a2.8,2.8,0,0,0-.48-1.4,2.65,2.65,0,0,0-2.29-.89,2.56,2.56,0,0,0-1.88.57,1.8,1.8,0,0,0-.58,1.33,1.34,1.34,0,0,0,.68,1.23,10.54,10.54,0,0,0,2,.62l1.54.36a4.71,4.71,0,0,1,1.73.72,2.75,2.75,0,0,1,1,2.32,2.91,2.91,0,0,1-1.34,2.71,6,6,0,0,1-3.12.81A4.62,4.62,0,0,1,42,11a3.7,3.7,0,0,1-1.17-3Z"/><path d="M53.62.33h1.56V11.72H53.62Z"/><path d="M59.25.33h8.26v1.4H60.75V5.18H67V6.5H60.75v3.86h6.88v1.36H59.25Z"/><path d="M71.29.33h5.18a5.1,5.1,0,0,1,2.11.38A2.69,2.69,0,0,1,80.15,3.4a3.09,3.09,0,0,1-.42,1.68,3.09,3.09,0,0,1-1.18,1,2.24,2.24,0,0,1,1,.72,2.48,2.48,0,0,1,.38,1.43V9.76a4.86,4.86,0,0,0,.11,1,1,1,0,0,0,.5.69v.26H78.7a1.07,1.07,0,0,1-.13-.38,4.8,4.8,0,0,0-.08-.9l-.09-1.9A1.62,1.62,0,0,0,77.6,7a3.26,3.26,0,0,0-1.35-.2H72.83v4.9H71.29Zm5,5.22A2.87,2.87,0,0,0,78,5.11a1.79,1.79,0,0,0,.62-1.56,1.7,1.7,0,0,0-.86-1.66,2.75,2.75,0,0,0-1.23-.23h-3.7V5.55Z"/><path d="M89.81.33h1.54v10h5.72v1.39H89.81Z"/><path d="M109.44,2a6.28,6.28,0,0,1,1.13,3.87,6.78,6.78,0,0,1-1.29,4.24,5.77,5.77,0,0,1-8.14.56l-.33-.31a6.57,6.57,0,0,1-1.34-4.24,6.73,6.73,0,0,1,1.14-3.95A5,5,0,0,1,105,0,5.21,5.21,0,0,1,109.44,2Zm-1.36,7.26A6.27,6.27,0,0,0,109,5.85a4.81,4.81,0,0,0-1-3.23,3.58,3.58,0,0,0-2.87-1.23,3.73,3.73,0,0,0-2.89,1.22,5.15,5.15,0,0,0-1.12,3.58,5.3,5.3,0,0,0,1,3.19,3.6,3.6,0,0,0,3.11,1.3A3.22,3.22,0,0,0,108.08,9.22Z"/><path d="M122.1.33V1.69h-3.84v10h-1.55v-10h-3.84V.33Z"/><path d="M133.22.33V1.69h-3.84v10h-1.56v-10H124V.33Z"/><path d="M136.19.33h8.27v1.4H137.7V5.18H144V6.5h-6.3v3.86h6.88v1.36h-8.39Z"/><path d="M148.24.33h5.18a5.1,5.1,0,0,1,2.11.38A2.69,2.69,0,0,1,157.1,3.4a3.09,3.09,0,0,1-.42,1.68,3.09,3.09,0,0,1-1.18,1,2.24,2.24,0,0,1,1,.72,2.48,2.48,0,0,1,.38,1.43l.05,1.53a4.86,4.86,0,0,0,.11,1,1,1,0,0,0,.5.69v.26h-1.9a1.29,1.29,0,0,1-.12-.38,6.84,6.84,0,0,1-.08-.9l-.09-1.9a1.6,1.6,0,0,0-.81-1.5,3.26,3.26,0,0,0-1.35-.2h-3.41v4.89h-1.54Zm5,5.22a2.89,2.89,0,0,0,1.67-.44,1.78,1.78,0,0,0,.61-1.56,1.68,1.68,0,0,0-.85-1.66,2.75,2.75,0,0,0-1.23-.23h-3.67V5.55Z"/><path d="M159.78.33h1.79l3.28,5.47L168.12.33h1.82l-4.32,6.8v4.59h-1.54V7.13Z"/></g></g><polygon points="6.95 77.82 7.07 91.6 142.02 91.6 159.8 77.91 6.95 77.82"/><polygon points="178.96 91.61 167.25 91.61 185.31 77.69 197.02 77.69 178.96 91.61"/><polygon points="160.88 91.59 149.55 91.59 167.38 77.67 178.68 77.67 160.88 91.59"/><path d="M61.21,84.62a2,2,0,0,0,.55-2.53,2.13,2.13,0,0,0-2.13-1c-1.8,0-5.45,0-5.45,0l.07,7.72s3.8,0,5.71,0a2.91,2.91,0,0,0,1-.23,1.89,1.89,0,0,0,1.3-1.8A2.09,2.09,0,0,0,61.21,84.62Z" style="fill:#fff"/><path d="M56.15,84.06V82.59c1,0,2,0,2.92,0a.71.71,0,0,1,.73.72c0,.4-.29.71-.82.73C58.06,84.08,57.13,84.06,56.15,84.06Z"/><path d="M32.71,89.09a8,8,0,0,1-2.05-.29c-1.85-.48-2.79-1.86-2.75-4a3.59,3.59,0,0,1,2.83-3.7,8,8,0,0,1,3.95,0,3.5,3.5,0,0,1,2.78,3.4c0,.28,0,.57,0,.86a3.41,3.41,0,0,1-2.76,3.4A7.37,7.37,0,0,1,32.71,89.09ZM35.26,85a2.56,2.56,0,1,0-5.11,0,2.56,2.56,0,1,0,5.11,0Z" style="fill:#fff"/><path d="M15.53,88.81V81.1s3.47,0,4.84,0c2.65,0,3.92,1.56,3.71,4.29-.18,2.41-1.38,3.42-3.8,3.43Zm2.12-1.45c.72,0,1.37,0,2,0,1.53,0,2.13-.59,2.23-2.12a5.14,5.14,0,0,0,0-1,1.67,1.67,0,0,0-1.59-1.61,25.23,25.23,0,0,0-2.62,0Z" style="fill:#fff"/><path d="M77.53,81.17h7.11c0,.41,0,1.47,0,1.47l-5,0v1.47h4.7v1.45H79.67v1.75h5v1.44H77.53Z" style="fill:#fff"/><path d="M121.33,81.14h2.57l3.37,7.64H125l-.7-1.43h-3.46l-.67,1.43H118Z" style="fill:#fff"/><path d="M41.5,81.16h2.13c0,1.15,0,2.25,0,3.35,0,.46,0,.93,0,1.4a1.64,1.64,0,0,0,1.85,1.66c1.17,0,1.86-.46,2-1.53s0-2.08.06-3.12V81.17h2a4.61,4.61,0,0,1,.1.72c0,1.4,0,2.8,0,4.2a2.5,2.5,0,0,1-2.19,2.75,7.4,7.4,0,0,1-3.74,0,2.49,2.49,0,0,1-2.15-2.68C41.48,84.51,41.5,82.87,41.5,81.16Z" style="fill:#fff"/><path d="M98.11,86.06l0,2.71H96V81.11s3.55,0,4.91,0c.22,0,.43,0,.65,0a2.5,2.5,0,0,1,1.86,4,2.17,2.17,0,0,1-1.95.93Zm0-3.48v2c1,0,1.86.06,2.74,0,.6,0,.85-.46.82-1.06s-.29-.92-.84-1C100,82.55,99.07,82.58,98.13,82.58Z" style="fill:#fff"/><path d="M129.37,81.15h2.41l2,3.25,2-3.25h2.48c-.89,1.31-1.65,2.56-2.54,3.72a3.85,3.85,0,0,0-.88,2.88,7.32,7.32,0,0,1-.05,1h-2a10,10,0,0,1,0-1.34,3.24,3.24,0,0,0-.72-2.29c-.77-1-1.47-2.12-2.19-3.19C129.67,81.71,129.55,81.46,129.37,81.15Z" style="fill:#fff"/><polygon points="110.08 87.33 114.76 87.34 114.76 88.75 108.05 88.75 108.05 81.2 110.08 81.2 110.08 87.33" style="fill:#fff"/><path d="M68.7,87.33h4.72v1.43H66.69V81.18h2Z" style="fill:#fff"/><path d="M56.15,87.35V85.59c1.09,0,2.11,0,3.14,0a.81.81,0,0,1,.79.86.83.83,0,0,1-.88.88C58.2,87.38,57.21,87.35,56.15,87.35Z"/><path d="M35.26,85a2.56,2.56,0,1,1-2.58-2.56A2.45,2.45,0,0,1,35.26,85Z"/><path d="M17.65,87.36V82.65a25.23,25.23,0,0,1,2.62,0,1.67,1.67,0,0,1,1.59,1.61,5.14,5.14,0,0,1,0,1c-.1,1.53-.7,2.1-2.23,2.12C19,87.37,18.37,87.36,17.65,87.36Z"/><path d="M121.5,85.72l1.09-2.82,1.19,2.82Z"/><path d="M98.13,82.58c.94,0,1.83,0,2.72,0,.55,0,.81.41.84,1s-.22,1-.82,1.06c-.88.07-1.78,0-2.74,0Z"/><path d="M140.67,82.7a1.82,1.82,0,0,1,.4-.58,1.79,1.79,0,0,1,.59-.39,2,2,0,0,1,.72-.13,1.66,1.66,0,0,1,.69.13,1.73,1.73,0,0,1,.6.39,1.82,1.82,0,0,1,.55,1.3,1.83,1.83,0,0,1-.15.73,1.86,1.86,0,0,1-.4.6,2,2,0,0,1-.58.38,1.93,1.93,0,0,1-1.42,0,2,2,0,0,1-.58-.38,1.67,1.67,0,0,1-.4-.59,1.85,1.85,0,0,1,0-1.46Zm.3,1.35a1.56,1.56,0,0,0,.32.47,1.49,1.49,0,0,0,.47.33,1.58,1.58,0,0,0,.61.12,1.52,1.52,0,0,0,.59-.12,1.43,1.43,0,0,0,.47-.33,1.86,1.86,0,0,0,.32-.47,1.67,1.67,0,0,0,.11-.63,1.43,1.43,0,0,0-.43-1.08A1.48,1.48,0,0,0,143,82a1.43,1.43,0,0,0-.58-.12,1.58,1.58,0,0,0-.61.12,1.29,1.29,0,0,0-.47.33,1.56,1.56,0,0,0-.32.47,1.94,1.94,0,0,0,0,1.26Zm1.52-1.7a1,1,0,0,1,.57.16.55.55,0,0,1,.18.47.37.37,0,0,1,0,.23.35.35,0,0,1-.12.19.77.77,0,0,1-.4.16l.61,1h-.37l-.59-1H142v1h-.34V82.35Zm-.15,1h.21a.48.48,0,0,0,.18,0,.32.32,0,0,0,.13-.1.46.46,0,0,0,0-.2.32.32,0,0,0,0-.16.2.2,0,0,0-.11-.11.44.44,0,0,0-.15-.05H142v.7Z" style="fill:#fff"/></g></g></svg>