<svg xmlns="http://www.w3.org/2000/svg" viewBox="0 0 1205.4 623.15"><title>US_IN_middayquickdraw</title><g id="Layer_2" data-name="Layer 2"><g id="Layer_1-2" data-name="Layer 1"><path d="M1202.52,217.9a14,14,0,0,0-12.47-5.44l-61.8,6a14,14,0,0,0-11.74,9l-16.31,43.11L1088.35,233a14,14,0,0,0-10.26-9.44,14,14,0,0,0,3.63-19.51l-63.91-92.55,66-89.16A14,14,0,0,0,1071.65,0l-70.8,4.8a14,14,0,0,0-9.79,5l-22.61,27,.54-12a14,14,0,0,0-15.54-14.55l-59.4,6.6A14,14,0,0,0,881.6,30.42l-.09,3.63a14.28,14.28,0,0,0-3.68-2.31c-3.25-1.4-80-33.61-140.81,8.21-3.86,2.26-20.32,12.65-34.49,33.14A125,125,0,0,0,685,110.69l1.46-61a14,14,0,0,0-15.17-14.28l-64.2,5.4a14,14,0,0,0-12.75,12.56,14,14,0,0,0-14.22-9l-58.8,4.8A14,14,0,0,0,508.5,62.89l-2.92,132.25a19.64,19.64,0,0,1-14.16,8.36c-.55.07-2.4.24-3.05-.28-1.1-.9-2-3.65-2.25-5.52L489.69,69a14,14,0,0,0-14.83-14.37l-60,3.6A14,14,0,0,0,401.7,72l-1.21,77.14c-5.63-21.78-16-40.71-30.85-56.1-29-30-73-44.66-124-41.29-35.36,2.32-67.34,14.66-93.49,35.93a14,14,0,0,0-14,1.39,225,225,0,0,0-26.49,23.5c-.21-.22-.41-.45-.63-.66a14,14,0,0,0-19-.31,195.35,195.35,0,0,0-15.8,16.5l-.22-.24a14,14,0,0,0-18.57-1.34C55.12,128.3.1,171.32,0,231c-.06,35.68,19.26,68.76,57.43,98.31a14,14,0,0,0,20.42-3.62c1.58,1.32,3.18,2.63,4.83,3.93a14,14,0,0,0-.55,13.68L92,362.52l-20.42.38a14,14,0,0,0-6.43,26.3l63.2,34.4a14,14,0,0,0,8.8,1.54l13.26-2L188,446.72c-29.5,62.59-37.7,121-20.76,144.06l0,0c.2.27.43.52.64.77s.63.78,1,1.15c18.79,21.74,51.62,28.69,55.7,29.48a38.88,38.88,0,0,0,8.6.95c19.5,0,42.43-13.85,69.73-42a435.29,435.29,0,0,0,36.4-43.35l13.48,8A13.85,13.85,0,0,0,351,552a14,14,0,0,0,11.29,14.21l69.1,13.6a14,14,0,0,0,7.81-.72A14,14,0,0,0,453,590.8c.38,0,.78,0,1.17,0l10.8-.9a14,14,0,0,0,9.36-4.71,14,14,0,0,0,10,3.22l10.5-.8a14,14,0,0,0,10.31-5.8h0a14,14,0,0,0,10,4.23c.38,0,.76,0,1.14,0l9.8-.8a14,14,0,0,0,10.44-6.1c.07.07.12.15.19.22a14,14,0,0,0,10,4.23c.38,0,.76,0,1.14,0l9.8-.8a14,14,0,0,0,10.66-6.43c.16.19.31.38.48.56a14,14,0,0,0,10,4.22c.38,0,.77,0,1.15,0l9.7-.8a14,14,0,0,0,10.89-6.8c.23.28.47.55.73.81a13.93,13.93,0,0,0,11.17,4.19l9.8-.8a14,14,0,0,0,11.83-8.7,13.92,13.92,0,0,0,12,6.85c.36,0,.72,0,1.08,0L681,573.05c12.9-1,23.18-5.31,29.9-11.93,6.62,5.64,15.7,8.8,26.36,8.8,1.38,0,2.78-.06,4.21-.16,9.66-.76,17.93-3.64,24.59-8.39a14,14,0,0,0,10,4.23c.36,0,.73,0,1.09,0l46.1-3.6a14.59,14.59,0,0,0,2.83-.53c.45,0,.92.07,1.38.07s.73,0,1.09,0l46.1-3.6a14.15,14.15,0,0,0,6.74-2.35,72,72,0,0,0,16.43,1.84c1.78,0,3.58-.06,5.38-.18h.13a53.68,53.68,0,0,0,22.49-6.51,14,14,0,0,0,8,2.55c.36,0,.73,0,1.09,0l48.6-3.8a14,14,0,0,0,10.62-6.3c.1.11.19.23.29.33a14,14,0,0,0,10.1,4.31c.35,0,.71,0,1.06,0l19.7-1.5a14,14,0,0,0,11.74-8.31,13.7,13.7,0,0,0,1.61,2,14,14,0,0,0,10.09,4.3c.36,0,.73,0,1.09,0l48.6-3.8A14,14,0,0,0,1111.3,528l1.8-15.31a14,14,0,0,0-3.22-10.69l1.16-10a14,14,0,0,0,4.46-8.7l1.8-15.3a14,14,0,0,0-15-15.6l-47.5,3.7a13.78,13.78,0,0,0-1.82.28l-.55,0-19.8,1.5a14,14,0,0,0-10.53,6.11l-1.15,1.7a14,14,0,0,0-12.52-5.91l-19.8,1.5c-.22,0-.43.06-.65.09h-.58l-47.5,3.7a14,14,0,0,0-8.31,3.6,60.67,60.67,0,0,0-23.66-2.4c-14.2,1.08-25.55,6.16-32.83,14.69a33.33,33.33,0,0,0-7.87,24.84,28.91,28.91,0,0,0,2,8.78L865,515l3.22-27.46a14,14,0,0,0-15-15.59l-19.7,1.5a14,14,0,0,0-12.84,12.32l-3.91,33.08-3.2.25,3.22-27.46a14,14,0,0,0-15-15.59l-19.7,1.5a14.08,14.08,0,0,0-4.59,1.15,14.24,14.24,0,0,0-4.33-.35l-19.4,1.5a14,14,0,0,0-8.65,3.89,14,14,0,0,0-9.23-2.59l-19.7,1.5a14,14,0,0,0-10.53,6.13c-6-3.06-13.61-4.24-22.59-3.53l-30.9,2.4a14,14,0,0,0-12.65,11.27,14,14,0,0,0-13.31-7.07l-9.8.81a14,14,0,0,0-10.94,6.87c-.25-.31-.52-.61-.8-.9a14,14,0,0,0-11.18-4.17l-9.6.8a13.45,13.45,0,0,0-3,.59,14,14,0,0,0-3.55-.2l-41,3.2a13.85,13.85,0,0,0-3.35.69,13.64,13.64,0,0,0-3-.08l-9.8.8a13.6,13.6,0,0,0-3,.59,14.19,14.19,0,0,0-3.63-.2l-10.3.8a14,14,0,0,0-8.92,4.16,14,14,0,0,0-6-2.59c44.65-11.06,78.48-31,101-59.71a136.45,136.45,0,0,0,14.35-22.47L602.6,476.3a14,14,0,0,0,14,14.3c.42,0,.85,0,1.28-.06l58.8-5.4a14,14,0,0,0,12.72-13.67l.28-14.8,12.25,19.56a14,14,0,0,0,13.25,6.5l109.2-10.8a14,14,0,0,0,11.86-9.37l3.06-8.87,50-4.75,2.81,7.43a14,14,0,0,0,14.56,8.95l57-6A13.95,13.95,0,0,0,976.17,446l1.09,3a14,14,0,0,0,13.13,9.17c.37,0,.74,0,1.11,0l45.6-3.6a14,14,0,0,0,12.58-11l1.79-8.19.84,3.93a14,14,0,0,0,14.41,11l46.8-2.4a14,14,0,0,0,12.37-9l78.6-207.5A14,14,0,0,0,1202.52,217.9ZM166.14,368.7a14,14,0,0,0-4.72-5.15L145.22,353a11.12,11.12,0,0,0,1.16.06,14,14,0,0,0,9.56-3.8c22.71,12.1,49.78,18.58,78.85,18.58.73,0,1.48,0,2.22,0A355.28,355.28,0,0,0,210.64,405l-37.1-22.52Z" style="fill:#fff"/><path d="M66,137.6s-117,90,0,180.6C66,318.1-25.8,250.4,66,137.6Z" style="fill:#492365"/><path d="M101.4,122s-128.4,115.2,0,204C101.4,325.9-3.6,249.8,101.4,122Z" style="fill:#492365"/><path d="M146.4,100.4s-166.2,120,0,238.7C146.4,339.1,8.4,228.8,146.4,100.4Z" style="fill:#492365"/><path d="M342.1,321.7c-2.5-1-4.8-1.8-6.5-2.4-.3.3-.6.5-.9.8A46.44,46.44,0,0,1,342.1,321.7Z" style="fill:none"/><path d="M367.2,334.9l1.9-.2a81.64,81.64,0,0,0-27-13.1C350.4,324.9,361.8,329.9,367.2,334.9Z" style="fill:#492365"/><path d="M376.9,261.8a170.2,170.2,0,0,0,13.6-52.2C400.8,106.9,329.9,60.2,246.6,65.7c-79.3,5.2-134.5,65-143.9,143.9-11.5,96,57.5,149.4,143.9,143.9,1.7-.1,3.3-.2,5-.4A81.81,81.81,0,0,1,318,319.4a83.56,83.56,0,0,1,14.3,1.3c.3-.3.6-.5.9-.8,1.7.6,4,1.4,6.5,2.4a82.6,82.6,0,0,1,27,13.1l31.7-3.4,36-73.8.6-2.4Zm-126.1,5.9a60,60,0,1,1,60-60A60,60,0,0,1,250.8,267.7Z" style="fill:#492365"/><polygon points="334.2 518.5 345 501.3 398.9 533.3 392.9 513.3 434.1 566.1 365 552.5 386.9 549.7 334.2 518.5" style="fill:#e84c38"/><path d="M321.8,332.5s52.4,6.4,58,52c0,0,7.8,57.2-50.4,143,0,0-63.6,90-102,81,0,0-33-6-49.2-26.4,0,0,27,29.4,84-30,0,0,94.2-97.2,85.2-184.2C347.4,367.9,346.6,339.1,321.8,332.5Z" style="fill:#492365"/><ellipse cx="248.99" cy="455.82" rx="32.7" ry="10.2" transform="translate(-269.49 425.08) rotate(-57.96)" style="fill:#492365"/><path d="M94.6,336.9l20,39.2-42.8.8L135,411.3l18.4-2.8,90,56.4s8.4-2,11.2-16.8L163,392.5l-9.2-17.2Z" style="fill:#e84c38"/><path d="M301.9,377.6c-20-12.5-55.3,23.7-79.7,62.7s-41.5,86.6-21.5,99.1a16.75,16.75,0,0,0,9,2.5c20.4,0,49.6-31.6,70.7-65.2C304.7,437.7,321.8,390.1,301.9,377.6Zm-19.8,64.3a67.9,67.9,0,0,1-5.2,12.1c-2.6,4.8-5.5,9.8-8.8,15a259.59,259.59,0,0,1-21.7,29.9,50.66,50.66,0,0,1-12.5,10.6c-14.4,8.3-19.1.9-20-9.7a43.7,43.7,0,0,1,3.9-21.4,242.68,242.68,0,0,1,16.5-30.5c13.1-21,25.9-35.7,36.3-45.1a16.3,16.3,0,0,1,8.3-4.1C287.8,397.4,293.9,405,282.1,441.9Z" style="fill:#492365"/><path d="M602.9,323.7C573.7,230.2,457.3,253,457.3,253L396.5,376.2l-3.2,123.1C645.7,499.3,602.9,323.7,602.9,323.7Zm-67.8,43c-3.6,67.8-70.2,65.4-70.2,65.4l3-119.4C541.7,308.5,535.1,366.7,535.1,366.7Z" style="fill:#e84c38"/><path d="M891.4,253.4l-44.4,3L773.8,444.8l-27-45s48.6-40.2,23.4-92.4c0,0-5.4-54-149.4-30l-4.2,199.2,58.8-5.4,1.2-61.8,37.2,59.4L823,458l6-17.4,69.6-6.6,6.6,17.4,57-6ZM718.1,341.5c-2.4,34.8-40.2,33.6-40.2,33.6l1.8-55.2C721.7,316.3,718.1,341.5,718.1,341.5Zm129.5,55.8,18-49.2,19.8,45.6Z" style="fill:#e84c38"/><polygon points="919.6 251.6 980.8 245 1006 321.1 1035.4 240.8 1075 237.2 1099 313.3 1129.6 232.4 1191.4 226.4 1112.8 433.9 1066 436.3 1051.6 369.1 1036 440.5 990.4 444.1 919.6 251.6" style="fill:#e84c38"/><path d="M415.7,72.2l60-3.6-3.6,129.6s1.2,21.6,21,19.2a33.12,33.12,0,0,0,26.4-18.6l3-135.6,58.8-4.8s13.8,173.4-30,190.8c0,0-39.6-23.4-128.4-9,0,0-10.2-11.4-9-53.4Z" style="fill:#492365"/><polygon points="608.3 54.8 672.5 49.4 667.7 249.8 604.7 253.4 608.3 54.8" style="fill:#492365"/><polygon points="895.6 30.8 955 24.2 952.6 77.6 1001.8 18.8 1072.6 14 1000.6 111.2 1070.2 212 1000 219.2 952.6 153.2 949.6 224 890.2 229.4 895.6 30.8" style="fill:#492365"/><path d="M754.7,156.2h0c-2.1-15.6.6-84.6,87-57.3l30.6-54.3s-72.6-31.2-127.8,7.2c0,0-65.4,35.4-47.4,127.8,0,0,32.4,115.8,173.4,36.6L842.3,167C842.2,167,788.3,218,754.7,156.2Z" style="fill:#492365"/><path d="M453,576.8,446.1,520l9.8-.8,2.9,29.3c.6,7.1.9,12.4,1.1,16.8h.2c1.4-4.9,2.7-9.9,5-17.1l10.3-30.6,10.6-.8,2.7,28.7c.6,7.1,1,12.4,1.1,17.2h.2c1.4-5.6,2.8-11.1,4.6-17l9.8-30.3,10.3-.8-20.9,59-10.5.8-3-27.4a177.14,177.14,0,0,1-1.1-17.8h-.3c-1.5,6-2.8,11.4-4.9,17.8l-10.2,28.9Z" style="fill:#492365"/><path d="M531.2,513.4,525,571.2l-9.8.8,6.2-57.8Z" style="fill:#492365"/><path d="M552.1,520.4l-15.6,1.2,1-8.8,41-3.2-1,8.8-15.7,1.2-5.2,49.1-9.8.8Z" style="fill:#492365"/><path d="M594.7,508.4l-2.5,23.3,22.9-1.8,2.5-23.3,9.8-.8-6.2,57.8-9.8.8,2.8-25.6-22.9,1.8-2.7,25.6-9.7.8,6.2-57.8Z" style="fill:#492365"/><path d="M705.7,538.1c1,13.1-10.9,19.8-25.8,21l-33.7,2.6,7.1-60.1,30.9-2.4c13.8-1.1,21.3,3.5,22,12.5.5,6.8-3.1,12.2-9.3,15.4C702.2,528.9,705.3,532.7,705.7,538.1Zm-19.5,1c-.2-2.6-2.6-3.7-5.1-3.5l-12.7,1-1.1,9.4,12.7-1C683.8,544.8,686.4,542.8,686.2,539.1ZM671,514.3l-1.1,8.9,10-.8c4.5-.4,6.4-2.5,6.1-5.7-.2-2.5-2.2-3.5-5.5-3.2Z" style="fill:#492365"/><path d="M713.2,536a26.92,26.92,0,0,1,.2-6.3l3.9-33.1,19.7-1.5-3.8,32.7a22.59,22.59,0,0,0-.2,4.4c.4,5.3,3.5,7.6,8.5,7.3,5.7-.4,8.5-4,9.6-13l3.8-32.7,19.4-1.5-4,33.9c-2.1,18-12,28.2-29.9,29.6C724.4,557,714.2,549.3,713.2,536Z" style="fill:#492365"/><path d="M783.2,491.5l19.7-1.5-5.2,44.4,26.4-2.1L822.2,548l-46.1,3.6Z" style="fill:#492365"/><path d="M834.6,487.4l19.7-1.5-5.2,44.4,26.4-2.1-1.9,15.7-46.1,3.6Z" style="fill:#492365"/><path d="M876.6,539l6.4-15.3a38.8,38.8,0,0,0,20.1,4c5.1-.4,7.7-2,7.5-4.1-.5-6.3-28-.5-29.4-18.8-1.1-13.4,9.4-23.1,27.8-24.5,8.7-.7,16.6.5,22.3,3.4l-6,15.1a29.66,29.66,0,0,0-16.4-3.1c-5.8.5-8.4,2.6-8.3,4.6.5,6.5,28,.2,29.5,18.5,1,13.2-9.6,23-27.8,24.4C891.9,543.9,882.5,542.1,876.6,539Z" style="fill:#492365"/><path d="M958.5,492.9l-.8,7,24.7-1.9-1.7,14.6-24.8,1.9-.9,7.9,29.3-2.3-1.8,15.3-48.6,3.8,7.1-60.1,47.5-3.7-1.8,15.3Z" style="fill:#492365"/><path d="M1026.8,510.4l-2.5,21.8-19.7,1.5,2.6-22.1-17.5-36.3,19.8-1.5,9.5,19.8,14.7-21.7,19.8-1.5Z" style="fill:#492365"/><path d="M1073.4,483.9l-.8,7,24.7-1.9-1.7,14.6-24.8,1.9-.9,7.9,29.3-2.3-1.8,15.3-48.6,3.8,7.1-60.1,47.5-3.7-1.8,15.3Z" style="fill:#492365"/></g></g></svg>