<svg version="1.1" id="Layer_1" xmlns="http://www.w3.org/2000/svg" xlink="http://www.w3.org/1999/xlink" x="0px" y="0px" viewBox="20.147 0.005 247.723 140.725" style="enable-background:new 0 0 288 140.51;" space="preserve" enable-background="20.147 0.005 247.723 140.725" >
<title>logo-pick10</title>
<rect x="73.839" y="-53.384" transform="matrix(0.0016 -1 1 0.0016 73.4127 214.2594)" style="fill:#FFD200;" width="140.33" height="247.5"/>
<rect x="23.42" y="3.72" style="fill:#FFE363;" width="240.5" height="133.17"/>
<rect x="22.42" y="2.88" style="fill:#231F20;" width="242.67" height="18"/>
<path style="fill:#FFFFFF;" d="M36.99,17V7.38h4.67l2.16,3.9c0.247,0.427,0.48,0.87,0.7,1.33s0.427,0.943,0.62,1.45
	c-0.128-0.473-0.221-0.954-0.28-1.44c-0.058-0.555-0.085-1.112-0.08-1.67V7.38h4V17h-4.5l-2.39-4.13
	c-0.253-0.433-0.487-0.88-0.7-1.34c-0.213-0.46-0.41-0.943-0.59-1.45c0.12,0.72,0.213,1.387,0.28,2c0.067,0.613,0.1,1.207,0.1,1.78
	V17H36.99z"/>
<path style="fill:#FFFFFF;" d="M68.25,17V7.38h9.32v1.86h-5.15v1.91h4.55V13h-4.55v2.15h5.31V17H68.25z"/>
<path style="fill:#FFFFFF;" d="M98.55,17L95.4,7.38h4.37l0.79,3.84c-0.004,0.043-0.004,0.087,0,0.13
	c0.233,1.06,0.44,2.153,0.62,3.28c0.08-0.72,0.163-1.387,0.25-2c0.087-0.613,0.163-1.083,0.23-1.41l0.85-3.86h4.13l0.83,3.81
	c0.053,0.287,0.123,0.743,0.21,1.37c0.087,0.627,0.17,1.31,0.25,2.05c0.107-0.847,0.293-1.883,0.56-3.11l0.08-0.37l0.83-3.77h4.26
	L110.53,17h-4.74l-0.84-4.08c-0.047-0.207-0.1-0.563-0.16-1.07c-0.06-0.507-0.123-1.067-0.19-1.68
	c-0.073,0.447-0.153,0.897-0.24,1.35s-0.183,0.93-0.29,1.43l-0.85,4L98.55,17z"/>
<path style="fill:#FFFFFF;" d="M156.97,17v-3.79l-3.53-5.83h4.43l0.71,1.78c0.127,0.333,0.227,0.627,0.3,0.88
	c0.069,0.253,0.122,0.51,0.16,0.77c0.096-0.524,0.247-1.037,0.45-1.53l0,0l0.73-1.88h4.3l-3.38,5.65V17H156.97z"/>
<path style="fill:#FFFFFF;" d="M182.35,10.21c-0.017-0.945,0.524-1.811,1.38-2.21c2.654-0.989,5.576-0.989,8.23,0
	c0.859,0.405,1.397,1.28,1.37,2.23v3.95c0.024,0.949-0.513,1.823-1.37,2.23c-2.649,0.999-5.571,0.999-8.22,0
	c-0.865-0.401-1.411-1.277-1.39-2.23L182.35,10.21z M186.56,9.86v4.66c-0.023,0.263,0.09,0.52,0.3,0.68
	c0.305,0.168,0.653,0.241,1,0.21c0.347,0.032,0.695-0.041,1-0.21c0.21-0.16,0.323-0.417,0.3-0.68V9.86
	c0.021-0.265-0.096-0.522-0.31-0.68c-0.305-0.167-0.653-0.24-1-0.21c-0.347-0.036-0.697,0.038-1,0.21
	C186.645,9.344,186.536,9.599,186.56,9.86L186.56,9.86z"/>
<path style="fill:#FFFFFF;" d="M212.51,17V7.38h6c1.182-0.061,2.365,0.113,3.48,0.51c0.674,0.214,1.136,0.833,1.15,1.54v0.64
	c0.02,0.455-0.177,0.893-0.53,1.18c-0.521,0.354-1.116,0.583-1.74,0.67c0.622,0.061,1.22,0.274,1.74,0.62
	c0.358,0.293,0.555,0.738,0.53,1.2V16c-0.01,0.211,0.021,0.421,0.09,0.62c0.065,0.157,0.168,0.294,0.3,0.4h-4.21
	c-0.108-0.111-0.185-0.249-0.22-0.4c-0.053-0.233-0.077-0.471-0.07-0.71V14c0.058-0.397-0.127-0.791-0.47-1
	c-0.613-0.199-1.257-0.28-1.9-0.24V17H212.51z M216.63,11.26c0.633,0.02,1.266-0.051,1.88-0.21c0.296-0.07,0.504-0.336,0.5-0.64
	V9.86c0.009-0.301-0.183-0.57-0.47-0.66c-0.569-0.161-1.16-0.228-1.75-0.2h-0.16V11.26z"/>
<path style="fill:#FFFFFF;" d="M242.39,17V7.38h4.12v4.17c0.031-0.159,0.082-0.313,0.15-0.46c0.069-0.151,0.153-0.295,0.25-0.43
	l2.35-3.29h4.42l-3.75,4l3.76,5.63h-4.37l-2-3.56l-0.85,0.86V17H242.39z"/>
<path style="fill:#231F20;" d="M236.2,33c-10.45,0-11.81,33.45-11.81,45.87c0,9.84,1.23,43.29,12.3,43.29
	c10.21,0,12.18-29.52,12.18-44C248.87,66.33,247.64,33,236.2,33z M236.81,119.72c-6.23-0.07-6.15-19.71-6.15-42.2
	c0-25,0.81-42.68,6-42.68c4.53,0,5.8,17.73,5.8,42.68c0.02,20.94-0.06,42.27-5.64,42.21L236.81,119.72z"/>
<polygon style="fill:#231F20;" points="195.53,34.53 207.09,34.53 207.09,119.06 212.01,119.06 212.01,121.03 196.51,121.03 
	196.51,119.18 201.43,119.18 201.43,36.37 195.53,36.37 "/>
<polygon style="fill:#231F20;" points="140.89,34.72 156.39,34.72 156.39,36.57 151.34,36.57 151.34,73.71 162.66,36.45 
	158.35,36.45 158.35,34.6 169.67,34.6 169.67,36.57 164.99,36.57 154.17,72.73 168.93,119.09 173.6,119.09 173.6,120.94 
	163.64,120.94 151.47,82.57 151.47,118.97 156.39,118.97 156.39,120.94 140.89,120.94 140.89,119.09 145.81,119.09 145.81,36.57 
	140.89,36.57 "/>
<path style="fill:#231F20;" d="M126.75,34.6h1.39v32.59h-1.84c0,0-0.25-32.59-9.22-32.59c-4.43,0-6.06,10.8-6.06,43
	c0,39.21,2.52,41.82,6.43,41.82c8.85,0,9-40,9-40h2.09c0,0,1.35,42.68-11.81,42.68c-16.78,0.07-16.17-89.1-0.19-89.1
	c6,0,6.4,4.92,7.62,4.8S126.75,34.6,126.75,34.6z"/>
<polygon style="fill:#231F20;" points="76.45,34.72 91.82,34.72 91.82,36.57 86.9,36.57 86.9,118.97 91.82,118.97 91.82,121.06 
	76.32,121.06 76.32,119.09 81.24,119.09 81.24,36.69 76.44,36.69 "/>
<path style="fill:#231F20;" d="M62.31,40.22c-4.18-5.81-8.75-5.69-8.75-5.69H39.05v2.27h4.92v82.28h-5v2h15.5v-1.72h-5V78.51
	c0,0,4-0.2,5.9-1.47C69.48,67.34,67.04,46.8,62.31,40.22z M57.38,70.52c-3.46,6.74-8,5.66-8,5.66V36.82c0,0,4.23-0.25,6.27,0.74
	c5.69,2.76,4.67,27.23,1.73,32.95L57.38,70.52z"/>
</svg>
