<svg xmlns="http://www.w3.org/2000/svg" xmlns:xlink="http://www.w3.org/1999/xlink" viewBox="0 0 199.62 125.82"><defs><style>.cls-1{fill:#fff;}.cls-2{fill:url(#radial-gradient);}.cls-3{fill:url(#radial-gradient-2);}.cls-4{fill:url(#linear-gradient);}.cls-5{fill:url(#radial-gradient-3);}.cls-6{fill:url(#linear-gradient-2);}.cls-7{fill:url(#linear-gradient-3);}.cls-8{fill:#0077a3;}.cls-9{fill:url(#linear-gradient-4);}.cls-10{fill:url(#linear-gradient-5);}.cls-11{fill:url(#linear-gradient-6);}.cls-12{fill:url(#linear-gradient-7);}.cls-13{fill:url(#linear-gradient-8);}.cls-14{fill:url(#linear-gradient-9);}.cls-15{fill:#00bcf2;}.cls-16{fill:url(#linear-gradient-10);}.cls-17{fill:url(#linear-gradient-11);}.cls-18{fill:#59d0f6;}.cls-19{fill:url(#linear-gradient-12);}.cls-20{fill:#01bcf1;}.cls-21{fill:#fa9d0f;}.cls-22{fill:#05bdf1;}.cls-23{fill:#01bbf1;}</style><radialGradient id="radial-gradient" cx="105.42" cy="50.46" r="48.38" gradientUnits="userSpaceOnUse"><stop offset="0.65" stop-color="#fef100"/><stop offset="1" stop-color="#ffd600"/></radialGradient><radialGradient id="radial-gradient-2" cx="105.42" cy="50.46" r="48.38" gradientUnits="userSpaceOnUse"><stop offset="0.66" stop-color="#ab8b00"/><stop offset="0.75" stop-color="#dcad09" stop-opacity="0"/></radialGradient><linearGradient id="linear-gradient" x1="94.31" y1="80.96" x2="116.52" y2="19.95" gradientUnits="userSpaceOnUse"><stop offset="0" stop-color="#dd5d1b"/><stop offset="0.04" stop-color="#e1691c"/><stop offset="0.13" stop-color="#ea7f1f"/><stop offset="0.24" stop-color="#f19121"/><stop offset="0.38" stop-color="#f69d23"/><stop offset="0.56" stop-color="#f8a424"/><stop offset="1" stop-color="#f9a624"/></linearGradient><radialGradient id="radial-gradient-3" cx="105.42" cy="50.46" r="32.45" gradientUnits="userSpaceOnUse"><stop offset="0" stop-color="#ffca09"/><stop offset="1" stop-color="#ffca09" stop-opacity="0"/></radialGradient><linearGradient id="linear-gradient-2" x1="93.81" y1="40.65" x2="113.59" y2="20.88" gradientUnits="userSpaceOnUse"><stop offset="0" stop-color="#ffd033" stop-opacity="0"/><stop offset="1" stop-color="#ffd033"/></linearGradient><linearGradient id="linear-gradient-3" x1="77.9" y1="50.68" x2="135.34" y2="50.68" gradientUnits="userSpaceOnUse"><stop offset="0" stop-color="#c15911"/><stop offset="0.02" stop-color="#c15d10"/><stop offset="0.11" stop-color="#c3680d"/><stop offset="0.2" stop-color="#c36c0c"/><stop offset="0.26" stop-color="#c25f0f"/><stop offset="0.32" stop-color="#c15911"/><stop offset="0.37" stop-color="#c25f0f"/><stop offset="0.5" stop-color="#c3690d"/><stop offset="0.67" stop-color="#c36c0c"/><stop offset="0.71" stop-color="#be5e0f"/><stop offset="0.76" stop-color="#ba5211"/><stop offset="0.83" stop-color="#b84b13"/><stop offset="1" stop-color="#b74913"/></linearGradient><linearGradient id="linear-gradient-4" x1="95.52" y1="17.75" x2="95.19" y2="15.87" gradientUnits="userSpaceOnUse"><stop offset="0" stop-color="#00c9f1"/><stop offset="1" stop-color="#0076a0"/></linearGradient><linearGradient id="linear-gradient-5" x1="89.64" y1="42.61" x2="92.25" y2="42.05" gradientUnits="userSpaceOnUse"><stop offset="0" stop-color="#0076a0"/><stop offset="1" stop-color="#00c9f1"/></linearGradient><linearGradient id="linear-gradient-6" x1="119.47" y1="62.96" x2="118.98" y2="60.23" xlink:href="#linear-gradient-5"/><linearGradient id="linear-gradient-7" x1="139.93" y1="48.3" x2="141.67" y2="47.93" xlink:href="#linear-gradient-4"/><linearGradient id="linear-gradient-8" x1="107.89" y1="29.21" x2="109.39" y2="28.89" xlink:href="#linear-gradient-4"/><linearGradient id="linear-gradient-9" x1="125.35" y1="41.66" x2="125.08" y2="40.13" xlink:href="#linear-gradient-4"/><linearGradient id="linear-gradient-10" x1="100.81" y1="43.69" x2="96.26" y2="17.9" gradientUnits="userSpaceOnUse"><stop offset="0.28" stop-color="#7fd9f8"/><stop offset="0.33" stop-color="#73d7f8"/><stop offset="0.55" stop-color="#42d0f7"/><stop offset="0.74" stop-color="#1ecaf6"/><stop offset="0.9" stop-color="#08c7f5"/><stop offset="1" stop-color="#00c6f5"/></linearGradient><linearGradient id="linear-gradient-11" x1="124.81" y1="44.67" x2="124.46" y2="42.71" gradientUnits="userSpaceOnUse"><stop offset="0" stop-color="#0accf6"/><stop offset="1" stop-color="#7fd9f8"/></linearGradient><linearGradient id="linear-gradient-12" x1="96.18" y1="19.89" x2="95.85" y2="18.06" gradientUnits="userSpaceOnUse"><stop offset="0" stop-color="#23cef6"/><stop offset="0.2" stop-color="#48d4f7"/><stop offset="0.44" stop-color="#6edbf8"/><stop offset="0.66" stop-color="#89dff9"/><stop offset="0.85" stop-color="#99e2fa"/><stop offset="1" stop-color="#9fe3fa"/></linearGradient></defs><g id="Layer_2" data-name="Layer 2"><g id="Layer_1-2" data-name="Layer 1"><path class="cls-1" d="M155.38,40.71a2.05,2.05,0,0,0-2-.76c-6.44-1.23-10.07-2.85-10.8-4.84s.88-5.26,4.84-10.16a2.05,2.05,0,0,0,.72-1l.06-.16a2,2,0,0,0-3.13-2.3c-6.38,1.5-10.36,1.49-11.83,0s-1.34-5.16.28-11.25A1.94,1.94,0,0,0,133.74,9V8.82A2,2,0,0,0,129.94,8c-5.22,4-8.86,5.58-10.82,4.79s-3.32-4.17-4.32-10.4a2,2,0,0,0-.26-1.2L114.45,1a2,2,0,0,0-3.79.78c-3.16,5.74-5.83,8.69-7.94,8.77S98,8.13,94.54,2.84a2,2,0,0,0-.73-1l-.14-.11A2,2,0,0,0,90.52,4c-.54,6.53-1.78,10.32-3.68,11.25s-5.32-.32-10.61-3.75a2.12,2.12,0,0,0-1.08-.61l-.17,0a2,2,0,0,0-2,3.35c2.15,6.19,2.56,10.14,1.2,11.77s-5,1.87-11.22.89a2.06,2.06,0,0,0-1.23-.12l-.17,0a2,2,0,0,0-.42,3.86c4.48,4.77,6.47,8.22,5.89,10.26s-3.8,3.74-9.89,5.38a2.1,2.1,0,0,0-1.17.39l-.14.1a2,2,0,0,0,1.17,3.69c6.05,2.54,9.26,4.89,9.56,7s-2,5-6.84,8.94a2,2,0,0,0-.92.83l-.09.15a2,2,0,0,0,2.58,2.9c6.55-.15,10.44.69,11.57,2.48s.24,5.33-2.62,11a2.1,2.1,0,0,0-.5,1.21,2,2,0,0,0,3.52,1.69c5.93-2.79,9.82-3.61,11.58-2.43S87.27,88.92,87,95.21a2.1,2.1,0,0,0,0,1.24l.05.16a2,2,0,0,0,3.88,0c4.28-5,7.5-7.3,9.59-6.93s4.11,3.38,6.38,9.27a2,2,0,0,0,.51,1.12l.11.13a2,2,0,0,0,1.53.68,2.1,2.1,0,0,0,1-.29,2.07,2.07,0,0,0,1-1.94c1.89-6.28,3.88-9.72,5.94-10.24s5.13,1.42,9.6,5.88a2.1,2.1,0,0,0,.92.82l.16.07a2,2,0,0,0,2.61-2.87c-.82-6.5-.4-10.46,1.27-11.76s5.27-.8,11.16,1.46a2,2,0,0,0,1.17.37h.18a2,2,0,0,0,1.22-3.68c-3.4-5.6-4.62-9.39-3.63-11.26s4.49-2.87,10.79-3.21a2.06,2.06,0,0,0,1.22-.13l.16-.07a2,2,0,0,0-.38-3.86c-5.38-3.74-8-6.7-7.9-8.81s2.94-4.45,8.56-7.32a2.12,2.12,0,0,0,1.07-.62l.11-.13A2.05,2.05,0,0,0,155.38,40.71Zm-1.74,1.37-.1,0c-12.85,6.47-13.66,11.36-.79,20.15l.24,0-.16.07-.08,0c-14.37.68-17.11,4.82-8.92,18.08l.22.08h-.17a.35.35,0,0,1,0-.08c-13.41-5.22-17.59-2.56-15.51,12.89l.17.17-.15-.07s0-.07,0-.1c-10.12-10.22-15-9.49-19.4,5.47,0,.07,0,.14.08.22l-.11-.13,0-.09c-5.1-13.46-9.87-14.78-20-2.9A1.93,1.93,0,0,1,89,96l0-.17.06-.07c.82-14.36-3-17.52-17-10.76a2.12,2.12,0,0,0-.11.21V85l.1,0c6.58-12.79,4.37-17.23-11.2-16.77l-.19.15.09-.15h.1c11.22-9,11-13.95-3.41-19.87l-.24.06.14-.1.1,0c13.91-3.66,15.72-8.27,5-19.54l-.24,0,.17,0,.07.07C76.47,31.12,80,27.65,74.76,13l-.2-.13.16,0,0,.1c12,7.89,16.67,6.15,17.84-9.39l-.13-.2.14.1s0,.07,0,.1c7.78,12.1,12.73,12.41,20.12-1.31a2,2,0,0,0,0-.24l.09.15,0,.09c2.19,14.22,6.58,16.5,18.92,7L131.7,9V9.2l-.07.06c-3.79,13.88-.71,17.76,14.43,14.07.06-.06.1-.12.16-.19l-.06.17-.1,0c-9.1,11.14-7.86,15.94,7.47,18.73l.22-.11Z"/><path class="cls-2" d="M71.81,85.2c6.74-13,4.56-17.46-11.19-17l-.09.15C72,59.25,71.8,54.28,57.21,48.31l-.14.1c14.16-3.68,16-8.29,5.13-19.67l-.17,0c14.44,2.4,18-1.05,12.69-15.89l-.16,0c12.2,8.06,16.88,6.36,18-9.36l-.14-.1c7.87,12.33,12.84,12.69,20.3-1.2L112.68,2c2.18,14.47,6.57,16.81,19,7.16V9c-3.9,14.1-.84,18,14.47,14.28l.06-.17c-9.3,11.3-8.1,16.13,7.41,18.94l.12-.13c-13.09,6.54-14,11.44-.93,20.31l.16-.07c-14.62.66-17.41,4.78-9.11,18.18h.17c-13.62-5.35-17.84-2.71-15.71,12.91l.15.07c-10.26-10.43-15.19-9.74-19.6,5.39l.11.13c-5.13-13.7-9.92-15.08-20.1-3.05L89,96c.88-14.6-2.93-17.81-17.13-11"/><path class="cls-3" d="M71.81,85.2c6.74-13,4.56-17.46-11.19-17l-.09.15C72,59.25,71.8,54.28,57.21,48.31l-.14.1c14.16-3.68,16-8.29,5.13-19.67l-.17,0c14.44,2.4,18-1.05,12.69-15.89l-.16,0c12.2,8.06,16.88,6.36,18-9.36l-.14-.1c7.87,12.33,12.84,12.69,20.3-1.2L112.68,2c2.18,14.47,6.57,16.81,19,7.16V9c-3.9,14.1-.84,18,14.47,14.28l.06-.17c-9.3,11.3-8.1,16.13,7.41,18.94l.12-.13c-13.09,6.54-14,11.44-.93,20.31l.16-.07c-14.62.66-17.41,4.78-9.11,18.18h.17c-13.62-5.35-17.84-2.71-15.71,12.91l.15.07c-10.26-10.43-15.19-9.74-19.6,5.39l.11.13c-5.13-13.7-9.92-15.08-20.1-3.05L89,96c.88-14.6-2.93-17.81-17.13-11"/><circle class="cls-4" cx="105.42" cy="50.46" r="32.45"/><circle class="cls-5" cx="105.42" cy="50.46" r="32.45"/><ellipse class="cls-6" cx="103.7" cy="30.77" rx="17.57" ry="9.06"/><path class="cls-7" d="M93.23,70.68,83.74,26.3a32.55,32.55,0,0,0-5.84,6.92c6.83,8.85,12.61,22.59,12.78,41.85,0,0,18.61-9.91,41-5.64A32,32,0,0,0,135.34,63Z"/><polygon class="cls-8" points="82.7 21.44 84.47 17.91 106.06 13.96 112.32 42.52 139.4 37.62 143.86 58.06 142.13 61.75 93.24 70.7 82.7 21.44"/><polygon class="cls-9" points="105.18 16.01 106.02 13.96 84.39 17.91 87.17 19.23 105.18 16.01"/><polygon class="cls-10" points="87.17 19.23 84.39 17.91 95 67.28 96.99 64.35 87.17 19.23"/><polygon class="cls-11" points="141.71 56.23 96.99 64.35 95 67.28 143.86 58.26 141.71 56.23"/><polygon class="cls-12" points="139.36 37.62 138.04 39.4 141.71 56.23 143.86 58.26 139.36 37.62"/><polygon class="cls-13" points="106.02 13.96 105.18 16.01 111.07 44.18 112.28 42.52 106.02 13.96"/><polygon class="cls-14" points="112.28 42.52 111.07 44.18 111.14 44.17 138.04 39.4 139.36 37.62 112.28 42.52"/><polygon class="cls-15" points="96.99 64.35 141.71 56.23 138.04 39.4 111.07 44.18 105.18 16.01 87.17 19.23 96.99 64.35"/><path class="cls-16" d="M108.73,37.49l-4.56-21-16.63,3L93.21,45C95.71,42.12,101.17,37.09,108.73,37.49Z"/><path class="cls-17" d="M137.9,40.5l0-.16-26.8,4.8C111.9,47.24,136.58,43.56,137.9,40.5Z"/><path class="cls-18" d="M97.48,63.78,140.8,56C140.29,53.61,96.78,60.06,97.48,63.78Z"/><path class="cls-19" d="M104.17,16.59l-16.63,3C87.74,21.94,105.18,19,104.17,16.59Z"/><path class="cls-20" d="M30.44,119.14c0-.76,0-1.52,0-2.27,0-.23,0-.31-.27-.3-.87,0-1.73,0-2.59,0-.17,0-.3,0-.3.23,0,1.42,0,2.84,0,4.26a.9.9,0,0,0,1.05,1c.27,0,.53,0,.79-.06.09,0,.24-.11.24.07s.1.33-.11.42a3.64,3.64,0,0,1-2.27.35,1.15,1.15,0,0,1-1-1,3.45,3.45,0,0,1-.07-.72c0-1.4,0-2.8,0-4.21,0-.24-.06-.34-.31-.31a3.11,3.11,0,0,1-.61,0c-.11,0-.27.07-.31-.07a2,2,0,0,1,0-.55s.07,0,.12,0a1.47,1.47,0,0,1,.21,0c.3,0,.71.14.89-.07s0-.6.05-.9a7.21,7.21,0,0,0,0-.93c0-.18.05-.26.24-.25s.74-.13,1,.06,0,.61.07.92,0,.6,0,.9.07.27.28.27c.87,0,1.75,0,2.62,0,.22,0,.3-.05.29-.28,0-.53,0-1.06,0-1.59,0-.21.05-.29.27-.28a6.94,6.94,0,0,0,.79,0c.19,0,.23.06.23.23,0,.54,0,1.09,0,1.63,0,.23.07.29.29.28.48,0,1,0,1.45,0,.29,0,.23.18.23.34s.06.36-.23.35H32c-.2,0-.26.06-.25.26,0,1.33,0,2.67,0,4,0,.93.35,1.23,1.27,1.2.2,0,.38-.05.58-.06s.23-.08.25.08.09.33-.12.42a3.69,3.69,0,0,1-2.24.35,1.25,1.25,0,0,1-1.05-1.37c-.05-.75,0-1.52,0-2.29Z"/><path class="cls-20" d="M49.5,121c.55-1.26,1-2.45,1.52-3.66.23-.61.15-.75-.46-1l-.2-.06c-.18,0-.11-.2-.11-.31s.1-.15.21-.15h2.1c.1,0,.24,0,.24.15s0,.27-.16.32a1.75,1.75,0,0,0-1.06,1.1c-.9,2.06-1.68,4.16-2.66,6.19a5.94,5.94,0,0,1-1.06,1.6,1.58,1.58,0,0,1-1.66.51,1,1,0,0,1-.64-.49.78.78,0,0,1,.15-.89.7.7,0,0,1,.86-.1,1.47,1.47,0,0,1,.56.6c.09.14.17.18.3.06a7,7,0,0,0,1.34-2.19c0-.1,0-.19-.07-.29q-1.1-2.59-2.16-5.21a1.34,1.34,0,0,0-1-.86c-.22-.06-.22-.19-.22-.35s.16-.17.28-.17h2.63c.14,0,.28,0,.26.2s0,.32-.24.32a.78.78,0,0,0-.3.07c-.2.06-.3.16-.2.38C48.36,118.22,48.92,119.58,49.5,121Z"/><path class="cls-20" d="M17.23,116.87v4.37c0,.7.13.87.82,1,.21,0,.21.14.22.3s-.11.19-.25.19H15.13c-.14,0-.24,0-.24-.19s0-.26.23-.29c.72-.08.82-.17.82-.89V114c0-1-.18-1.17-1.11-1.33-.2,0-.3-.07-.29-.3s.18-.19.31-.2c.68-.05,1.35-.07,2-.13.27,0,.36.06.36.34C17.22,113.83,17.23,115.35,17.23,116.87Z"/><path class="cls-21" d="M3,119.2a4,4,0,0,0,.54,2.06,1.89,1.89,0,0,0,3,.31,4.31,4.31,0,0,0,.39-.48c.11-.17.18-.26.4-.12s.19.23.07.41a3.15,3.15,0,0,1-4.72.79,4,4,0,0,1,1-6.26,2.78,2.78,0,0,1,2.88.33,1.51,1.51,0,0,1,.49,1.67.67.67,0,0,1-.82.45.72.72,0,0,1-.69-.73,3,3,0,0,1,.13-.78c.08-.3,0-.47-.34-.57A1.54,1.54,0,0,0,3.5,117,4.39,4.39,0,0,0,3,119.2Z"/><path class="cls-20" d="M42.18,116.89a3.75,3.75,0,0,1,.83-.78,2.34,2.34,0,0,1,.92-.38,1,1,0,0,1,1.06.41,1.2,1.2,0,0,1,0,1.24.7.7,0,0,1-.83.23.62.62,0,0,1-.5-.62,1.46,1.46,0,0,1,0-.3c0-.17,0-.2-.16-.19A1.6,1.6,0,0,0,42.2,118v3.14c0,.92.12,1.07,1,1.14.23,0,.29.11.28.31s-.06.18-.19.18H40.07c-.16,0-.21-.06-.2-.2s0-.27.16-.28l.28,0a.58.58,0,0,0,.58-.64c0-1.41,0-2.83,0-4.25a.87.87,0,0,0-.8-.91c-.16,0-.29,0-.29-.28s.16-.23.31-.24c.6,0,1.19-.06,1.79-.12.25,0,.32.08.31.32A4.87,4.87,0,0,0,42.18,116.89Z"/><path class="cls-21" d="M14.33,122.31c0-.18-.14-.14-.25-.15-.76,0-.94-.23-.93-1,0-1.13,0-2.25,0-3.39a1.79,1.79,0,0,0-1.09-1.86,3.44,3.44,0,0,0-3.31.38,1.35,1.35,0,0,0-.58.8.74.74,0,0,0,.28.86.77.77,0,0,0,.87,0,.67.67,0,0,0,.32-.77c0-.16-.06-.31-.1-.47a.24.24,0,0,1,.12-.29,1.35,1.35,0,0,1,2.13.88,6.66,6.66,0,0,1,.06.79.34.34,0,0,1-.26.38c-.5.18-1,.37-1.49.54a7.16,7.16,0,0,0-1.46.61,1.87,1.87,0,0,0-.78,2,1.61,1.61,0,0,0,1.48,1.24,2.71,2.71,0,0,0,2-.56l.49-.42c.4.81.77,1,1.59.95a6.56,6.56,0,0,0,.7-.18C14.37,122.61,14.33,122.46,14.33,122.31Zm-2.49-1.06a.28.28,0,0,1-.07.19,1.81,1.81,0,0,1-1.49.71c-.8-.05-1.2-.69-1-1.54a1.58,1.58,0,0,1,.67-.89,6.77,6.77,0,0,1,1.86-.77Z"/><path class="cls-20" d="M24.94,118.37a3.06,3.06,0,0,0-2.29-2.54,3.22,3.22,0,0,0-3.55,1,3.83,3.83,0,0,0-.7,3.55,3.06,3.06,0,0,0,2.36,2.43,3.22,3.22,0,0,0,3.32-.93,3.85,3.85,0,0,0,.94-2.67A4.89,4.89,0,0,0,24.94,118.37Zm-1.74,2.92a1.64,1.64,0,0,1-3.09,0,5.05,5.05,0,0,1-.38-2.52,3.65,3.65,0,0,1,.39-1.62,1.66,1.66,0,0,1,1.61-1,1.61,1.61,0,0,1,1.47,1.08,4.75,4.75,0,0,1,.36,2A4.8,4.8,0,0,1,23.2,121.29Z"/><path class="cls-20" d="M39.51,121c-.27-.18-.32,0-.4.17a2,2,0,0,1-2,1,2.08,2.08,0,0,1-1.82-1.55,5.67,5.67,0,0,1-.21-1.22c0-.23.06-.29.28-.29h2c.68,0,1.36,0,2,0,.21,0,.29,0,.28-.27s0-.57-.06-.86a2.48,2.48,0,0,0-1.35-2,3.07,3.07,0,0,0-3.75.87,4.09,4.09,0,0,0-.74,3.23,3.13,3.13,0,0,0,2.41,2.77,3.21,3.21,0,0,0,3.5-1.43C39.75,121.19,39.74,121.09,39.51,121ZM35,118.33a2.52,2.52,0,0,1,.69-1.67,1.36,1.36,0,0,1,2.33.57,4.41,4.41,0,0,1,.16,1.08c0,.19-.07.21-.22.21H35.24C35.11,118.51,35,118.51,35,118.33Z"/><path class="cls-20" d="M53.17,116.76a.63.63,0,0,1,.32.08.6.6,0,0,1,.25.25.63.63,0,0,1,.09.33.68.68,0,0,1-.09.33.64.64,0,0,1-.25.24.62.62,0,0,1-.32.09.63.63,0,0,1-.33-.09.64.64,0,0,1-.25-.24.68.68,0,0,1-.09-.33.63.63,0,0,1,.09-.33.6.6,0,0,1,.25-.25A.64.64,0,0,1,53.17,116.76Zm0,.11a.55.55,0,0,0-.28.07.48.48,0,0,0-.2.2.57.57,0,0,0-.08.28.53.53,0,0,0,.08.27.45.45,0,0,0,.2.21.55.55,0,0,0,.28.07.54.54,0,0,0,.27-.07.45.45,0,0,0,.2-.21.53.53,0,0,0,.08-.27.57.57,0,0,0-.08-.28.48.48,0,0,0-.2-.2A.54.54,0,0,0,53.17,116.87Zm-.3.91v-.71h.25l.18,0a.16.16,0,0,1,.09.07.2.2,0,0,1,0,.11.17.17,0,0,1-.05.13.26.26,0,0,1-.15.07l.06,0,.11.14.08.14h-.14l-.06-.11a.49.49,0,0,0-.12-.16.12.12,0,0,0-.09,0H53v.3Zm.12-.4h.14a.24.24,0,0,0,.14,0,.1.1,0,0,0,0-.08s0,0,0,0a.08.08,0,0,0,0,0H53Z"/><path class="cls-22" d="M118.68,99.91a.64.64,0,0,1-.18-.83,2.47,2.47,0,0,1,.86-.74s.41.36.53.61,0,.32-.3.41A5.38,5.38,0,0,0,118.68,99.91Zm0-.67.1.09.81-.41c-.19-.1-.39-.26-.43-.22A3.56,3.56,0,0,0,118.69,99.24Z"/><path class="cls-22" d="M113.08,94.71h-.72a3.64,3.64,0,0,1-.57,0c-.34-.09-.61-.3-.5-.68a.52.52,0,0,1,.71-.39l.1.59.64-.12.33.65Z"/><path class="cls-1" d="M197.21,77.56H195.6l-5.21,0h0a2.75,2.75,0,0,0-1.56.46,2.4,2.4,0,0,0-1.37-.43h-7a2.44,2.44,0,0,0-1.8.8,6.66,6.66,0,0,0-2.06-.94,9.33,9.33,0,0,0-2.31-.3,7.56,7.56,0,0,0-.83,0v0l.57-3.71a2.86,2.86,0,0,0,0-.42,2.41,2.41,0,0,0-2.41-2.41h-7a2.41,2.41,0,0,0-2.39,2l-.9,5.9a5.69,5.69,0,0,0-1.13-.64,7.71,7.71,0,0,0-3.09-.68,6.57,6.57,0,0,0-2.56.51,2.49,2.49,0,0,0-.87-.16h-6.89a2.4,2.4,0,0,0-2.23,1.5,7.12,7.12,0,0,0-3.22-1.48,22.83,22.83,0,0,0-4.69-.49,25.85,25.85,0,0,0-4.66.44,7.24,7.24,0,0,0-2.3.82,6.58,6.58,0,0,0-4.94-7.17,15.77,15.77,0,0,0-4.09-.6c-1.33,0-2.78,0-4.56,0h-6.31a2.41,2.41,0,0,0-2.39,2l-1.26,8.24-.6,3.86h-.08a2.62,2.62,0,0,0-.87.16,6.48,6.48,0,0,0-1.64-.28h-.52a6.31,6.31,0,0,0-3.53,1,2.34,2.34,0,0,0-.27.2,2.4,2.4,0,0,0-1.87,0,1.33,1.33,0,0,0-.24.11,5.41,5.41,0,0,0-.6-2.27,5.55,5.55,0,0,0-3.42-2.73,5.81,5.81,0,0,0-1.49-.2,5.52,5.52,0,0,0-4.38,2.13h-.38c-.73,0-1.46,0-2.16,0l-1.33,0-.28,0,.19-.67c.11-.36.21-.73.31-1.08,0-.17.09-.34.14-.51a2.41,2.41,0,0,0-2.32-3.06H73.67a2.41,2.41,0,0,0-1.34.41A2.37,2.37,0,0,0,71,77.58H65.46c.14-.93.29-1.88.42-2.79l.21-1.4a2.4,2.4,0,0,0-1.59-2.64,2.6,2.6,0,0,0-.94-.18H57.05a2.74,2.74,0,0,0-1.72.57,2.39,2.39,0,0,0-1.52-.54h-6.7a2.77,2.77,0,0,0-1.53.44,2.7,2.7,0,0,0-1.18,1.89c-.16,1.06-.33,2.1-.5,3.2-.06.4-.12.79-.19,1.19a2.56,2.56,0,0,0,.13,1.23,2.35,2.35,0,0,0-.43.9,7.34,7.34,0,0,0-3.83-1.89,23.16,23.16,0,0,0-4.35-.42v0a25.49,25.49,0,0,0-4.54.42,7.85,7.85,0,0,0-2.65,1c0-.07,0-.13,0-.19A6.85,6.85,0,0,0,27,73.89a6.73,6.73,0,0,0-3.7-2.65,14.92,14.92,0,0,0-4.12-.65c-1.38,0-2.84,0-4.74,0H8.53A2.76,2.76,0,0,0,5.72,73c-.14,1.09-.32,2.21-.48,3.29l-.1.61c-.3,1.93-.59,3.86-.89,5.79l-1.2,7.76c-.92,6-1.85,12-2.67,17.39l-.24,1.67c0,.25-.08.5-.11.76A2.39,2.39,0,0,0,1.74,113h0a2.44,2.44,0,0,0,.86.15H6.44c3,0,6.12,0,9.2-.11a8.66,8.66,0,0,0,5.6-2.13,6.86,6.86,0,0,0,.65-.67A5.65,5.65,0,0,0,23.61,112a7.37,7.37,0,0,0,4.27,1.39,8.06,8.06,0,0,0,2.92-.57,2.53,2.53,0,0,0,1,.22h6.94a2.44,2.44,0,0,0,1.16-.3,2.36,2.36,0,0,0,1.14.29H48a2.4,2.4,0,0,0,1.5-.53,2.69,2.69,0,0,0,.77.4h0a2.48,2.48,0,0,0,.89.16h4.66c-.14.94-.28,1.89-.43,2.87-.07.43-.13.87-.2,1.3A2.42,2.42,0,0,0,57.59,120H62.8c1.38,0,2.51,0,3.57,0a6.78,6.78,0,0,0,6.11-3.84,14.49,14.49,0,0,0,1.08-2.65c.5-1.69,1-3.39,1.49-5.09a2.48,2.48,0,0,0,1,.35h.08c.13,0,.31,0,.55,0H95.58a3.11,3.11,0,0,0,2-.78l1-.91c.52-.48,1-.93,1.5-1.33a23.64,23.64,0,0,1,2.46-1.73c-.18,1.17-.36,2.32-.53,3.46-.1.63-.19,1.25-.29,1.9,0,.3-.09.59-.13.9A2.39,2.39,0,0,0,104,113.1h7.66c1.8,0,3.65,0,5.49-.09a8.86,8.86,0,0,0,5.4-1.91,8.27,8.27,0,0,0,1-1,5.77,5.77,0,0,0,1.09,1.38,7,7,0,0,0,3.33,1.6,23,23,0,0,0,4.69.48,25.39,25.39,0,0,0,4.56-.43,7.89,7.89,0,0,0,2.83-1.09c0,.08.11.15.17.23a2.43,2.43,0,0,0,1.83.84H149a2.42,2.42,0,0,0,2.37-2l0-.16q0-.21.09-.48l.42-2.76c.16-1,.31-2.09.47-3.14l.48-3.1c.32-2.1.65-4.23,1-6.38h4.95l-2.33,15.21a2.41,2.41,0,0,0,2.38,2.78h6.92a2.43,2.43,0,0,0,.89-.17,7.26,7.26,0,0,0,3.08.76h.33a9,9,0,0,0,2.13-.24l-.14.9-.44,2.92a2.41,2.41,0,0,0,1.86,2.71,2.64,2.64,0,0,0,.69.09H179c1.4,0,2.54,0,3.6,0a7.63,7.63,0,0,0,3.11-.68,6.35,6.35,0,0,0,2.63-2.3,11.87,11.87,0,0,0,1.43-2.92c.87-2.83,1.71-5.72,2.51-8.51l.61-2.08,2.55-8.79c1-3.32,2-6.75,2.94-10.12.25-.86.52-1.73.78-2.57l.36-1.21a2.33,2.33,0,0,0,.11-.7V80A2.41,2.41,0,0,0,197.21,77.56Z"/><path class="cls-23" d="M197.21,80.16c-.39,1.27-.78,2.53-1.15,3.8q-2.76,9.47-5.5,18.92c-1,3.52-2,7.05-3.1,10.55a9.24,9.24,0,0,1-1.15,2.31,4.3,4.3,0,0,1-3.76,1.89c-2.8,0-5.59,0-8.38,0l-.18,0c.27-1.73.53-3.45.8-5.25h.51c1.16,0,2.32,0,3.47,0,1.35,0,1.9-.56,1.94-1.92s0-2.5,0-3.76c0-2.42-.07-4.84-.1-7.27,0-3.86-.07-7.73-.12-11.6,0-2.42-.06-4.84-.09-7.27V80h7c-.65,7.37-1.05,14.73-2.24,22,.68.12.67.12.76-.47.78-5.54,1.75-11,3-16.5.36-1.56.68-3.13,1-4.7.05-.22.1-.38.39-.37l6.84,0Z"/><path class="cls-23" d="M2.41,110.64c.12-.81.23-1.61.36-2.41q1.32-8.7,2.66-17.4,1.05-6.76,2.09-13.54c.21-1.32.41-2.63.59-4,0-.29.15-.37.43-.37,3.53,0,7.06,0,10.6,0a12.54,12.54,0,0,1,3.44.54,4.12,4.12,0,0,1,3.08,4.58c-.15,1.84-.44,3.66-.71,5.49-.51,3.5-1.06,7-1.6,10.5-.58,3.69-1.12,7.38-1.74,11.07a6,6,0,0,1-6.06,5.39c-4.31.15-8.63.09-12.95.12C2.56,110.69,2.51,110.66,2.41,110.64Zm9-6.09c.23,0,.38,0,.54,0,1.52,0,1.85-.3,2.09-1.81q.84-5.34,1.64-10.69.7-4.6,1.39-9.21c.14-.91.27-1.81.35-2.72.05-.57-.19-.83-.76-.92s-.88-.07-1.35-.1Z"/><path class="cls-23" d="M166,109.35l-.25,1.32h-6.92q2.9-18.87,5.78-37.67h7l-1.22,8,.71-.47a5.73,5.73,0,0,1,4.84-.73,3.79,3.79,0,0,1,2.9,4.24c-.3,2.37-.67,4.73-1,7.1q-.84,5.58-1.71,11.16c-.26,1.63-.49,3.27-.9,4.87a6.89,6.89,0,0,1-1.21,2.42,4.69,4.69,0,0,1-4.19,1.7A5,5,0,0,1,166,109.35Zm.84-5.71c0,1.07.31,1.41,1.06,1.29a.9.9,0,0,0,.77-.76c.19-.85.34-1.72.48-2.59q.9-5.7,1.77-11.39c.19-1.19.36-2.38.52-3.57a.78.78,0,0,0-.56-.94.88.88,0,0,0-1.14.46,3.1,3.1,0,0,0-.3,1q-1,6.33-2,12.67Z"/><path class="cls-23" d="M114.91,91.82c-.47-.34-.91-.62-1.3-.95-.09-.07-.1-.33,0-.47a2.55,2.55,0,0,0-.4-2.7,1.55,1.55,0,0,0-.35-.33c-1.47-1-3-1.94-4.83-1.83,0,0,0,0-.12-.06q1-6.23,1.93-12.5h.52c3.43,0,6.87,0,10.31,0a13.44,13.44,0,0,1,3.45.5,4.22,4.22,0,0,1,3.19,4.92c-.35,2.86-.79,5.71-1.21,8.57-.55,3.67-1.13,7.35-1.7,11-.4,2.54-.71,5.09-1.25,7.59a5.94,5.94,0,0,1-6,5c-2.36.1-4.72.08-7.08.1-1.79,0-3.59,0-5.39,0H104c.14-1,.28-1.87.42-2.78q.41-2.67.83-5.32c0-.28.06-.71.23-.78a2.14,2.14,0,0,1,1.37-.32,10.51,10.51,0,0,0,3.58.09,3,3,0,0,1,1.62.27,5.45,5.45,0,0,0,1.28.31l-.34,2.33a1.92,1.92,0,0,0,2.46-1,4.2,4.2,0,0,0,3.13-.52,1.88,1.88,0,0,1,.64-.16,2.74,2.74,0,0,0,2.46-2,11.83,11.83,0,0,0,.54-1.47,2.7,2.7,0,0,0-2.11-3.17.88.88,0,0,1-.36-.21c-.83-.74-1.64-1.49-2.47-2.22a.56.56,0,0,1-.21-.61q.93-6,1.85-12.07c0-.14,0-.29,0-.43.08-1.16-.17-1.43-1.32-1.47-.74,0-.75,0-.86.68q-.9,5.81-1.79,11.6C115,91.51,115,91.62,114.91,91.82Z"/><path class="cls-23" d="M38.76,110.67H31.82l.14-1.25a12.34,12.34,0,0,1-1.37.9,5.21,5.21,0,0,1-5.6-.25,3.63,3.63,0,0,1-1.42-3.72c.33-2.55.73-5.1,1.08-7.66a5.14,5.14,0,0,1,3.21-4.18c2.14-1,4.27-2,6.41-3a.8.8,0,0,0,.54-.69c.21-1.45.45-2.89.67-4.33a3.75,3.75,0,0,0,0-.67.79.79,0,0,0-.67-.82.77.77,0,0,0-.95.47,16.72,16.72,0,0,0-.5,2.09c-.17,1-.29,1.9-.43,2.87H26c.21-1.5.39-3,.64-4.48a23.26,23.26,0,0,1,.59-2.57,4.71,4.71,0,0,1,3.93-3.52,21.47,21.47,0,0,1,8,0c2.87.57,4,2.28,3.55,5.19-.75,5.33-1.61,10.65-2.42,16l-1.38,9.08C38.83,110.31,38.79,110.48,38.76,110.67Zm-4.94-13.2-1.46.7a1.45,1.45,0,0,0-.82,1.17c-.11.76-.25,1.51-.36,2.27s-.23,1.56-.26,2.34a.86.86,0,0,0,1.3.84,1.45,1.45,0,0,0,.55-.89c.24-1.19.41-2.39.61-3.59C33.52,99.39,33.66,98.48,33.82,97.47Z"/><path class="cls-23" d="M135,99.44h7c-.14.89-.25,1.76-.4,2.62-.28,1.61-.54,3.23-.87,4.83a4.55,4.55,0,0,1-3.91,3.84,21.37,21.37,0,0,1-8.32,0c-1.74-.36-3-1.3-3.24-3.2a9.81,9.81,0,0,1,0-2.54c.62-4.35,1.28-8.69,1.94-13,.37-2.44.75-4.88,1.18-7.31a9.82,9.82,0,0,1,.68-2.09,4.26,4.26,0,0,1,3.34-2.61,21.69,21.69,0,0,1,8.42,0c2.56.54,3.52,2.08,3.27,4.63-.3,3-.79,5.94-1.21,8.91-.14,1-.3,2-.46,3h-8.93c-.16.94-.32,1.85-.46,2.76-.26,1.6-.52,3.2-.77,4.79a4.46,4.46,0,0,0,0,.63.83.83,0,0,0,.74,1,.85.85,0,0,0,1.11-.65c.23-1,.39-2.11.57-3.17C134.79,101.06,134.89,100.27,135,99.44ZM136.33,91c.1-.72.19-1.4.29-2.08.14-.92.29-1.83.42-2.75a.89.89,0,0,0-.53-1.11.91.91,0,0,0-1.17.38,2.48,2.48,0,0,0-.29.8c-.18,1-.33,2.09-.49,3.14-.08.53-.15,1.06-.23,1.62Z"/><path class="cls-23" d="M57.59,117.63c.25-1.68.51-3.33.74-5,0-.32.22-.29.43-.29,1.21,0,2.41,0,3.62,0s1.91-.59,1.92-1.89c0-2.31,0-4.62-.07-6.93,0-1.54,0-3.08,0-4.62,0-3.93-.08-7.86-.11-11.8,0-2.35,0-4.71,0-7.11H71c-.65,7.36-1,14.73-2.24,22a.86.86,0,0,0,.21,0h.5A220.24,220.24,0,0,1,73.67,80H80.8c-.16.54-.29,1.06-.44,1.57Q75.8,97.2,71.25,112.86a11.82,11.82,0,0,1-.91,2.21,4.4,4.4,0,0,1-4,2.54C63.43,117.67,60.54,117.63,57.59,117.63Z"/><path class="cls-23" d="M76.32,106.39l.53-1.85c1,.28,2,.59,2.93.81a13,13,0,0,0,7.4-.13,8.15,8.15,0,0,0,3-1.79.73.73,0,0,0,.23-.39,8.42,8.42,0,0,0-2.1-5.54c-.06.29-.1.5-.16.7a5.19,5.19,0,0,1-3.75,3.53,5.63,5.63,0,0,1-1,.21.8.8,0,0,0-.82.78c0,.27.43.61.84.72.56.15,1.11.37,1.68.53a1.15,1.15,0,0,0,.68,0,5.06,5.06,0,0,0,3.64-3.33.89.89,0,0,1,.09-.16,1.7,1.7,0,0,1-.24,2.34,6.93,6.93,0,0,1-4.69,2c-.75.08-1.51.07-2.26.1-.26,0-.57-.06-.47.46L77,104.11l.13-.59,1.69.44.36-2-1.4-.59.24-.83,1.39.37L80,99.1l-1.73.82c.06-.49.14-.91.84-1l-.49-.13c0-.43.14-.64.58-.58a1.35,1.35,0,0,0,1.7-1,3.7,3.7,0,0,1,.48-.83l-2.15.25.45-1.69H84L82.76,96.3l2.15.54c.27-.4.56-.79.81-1.22a.83.83,0,0,0-.2-1.23A11.76,11.76,0,0,0,81.43,92l-.85-.3c.14-.5.26-1,.43-1.47,0-.12.26-.22.41-.24.85-.13,1.71-.24,2.57-.34.44,0,.68-.23.68-.7a7.42,7.42,0,0,1,.06-1.32l.19.4a17.5,17.5,0,0,0,3.83,5.43,1.92,1.92,0,0,0,1.22.58l3.46.18c.28,0,.7,0,.65-.36a1.15,1.15,0,0,0-.61-.79c-.8-.26-1.66-.36-2.48-.57-1.19-.31-1.15-.34-1.35-1.55A16.08,16.08,0,0,0,89,88.5a4.52,4.52,0,0,0-4.72-2.82c-.64,0-1.28.06-1.94.09-.06-.37.1-.49.44-.5,1.41,0,2.82-.11,4.23-.07a1.34,1.34,0,0,0,1.33-.71,3.15,3.15,0,0,1,3.49-1.32,3,3,0,0,1,2.06,3.93.68.68,0,0,0,.2.87c.24.21.44.46.66.69l0,.13c-.48,0-1-.05-1.45-.1a1,1,0,0,0-1.05.68c0,.15-.09.3-.14.46-.19.55-.23.56-.72.28a.63.63,0,0,0-.45,0c-.1,0-.18.12-.26.2s-.54.29-.43.71.09.81.65.91,1.15.29,1.73.4c.13,0,.29-.11.44-.17-.11-.15-.19-.38-.33-.41-.55-.14-1.11-.21-1.68-.32a6.17,6.17,0,0,1,5.33-.85c-.24-.58-.67-.71-2-.59a4.31,4.31,0,0,1,3.17-1.25l.1-.78c1.5,1.09,3,.17,4.49.16a2.82,2.82,0,0,0-2-.56,4.26,4.26,0,0,1,2.66-.57,4.46,4.46,0,0,1,2.46.92l.14-.8c.73.52,1.41,1,2.11,1.48a2.07,2.07,0,0,0,.92.35c.22,0,.64-.14.67-.28a.94.94,0,0,0-.24-.79,6.76,6.76,0,0,0-1.35-.57,2.24,2.24,0,0,0-.46,0v-.17a7.45,7.45,0,0,1,1.25,0,8.85,8.85,0,0,1,2,.5,1.42,1.42,0,0,1,1,1.75l.12,0,.53-.65c.51.47.37,1.06-.52,1.86a4.07,4.07,0,0,0,.13.5,1,1,0,0,0,.22.41A47.73,47.73,0,0,1,119,97.29a1.47,1.47,0,0,0,.73.31,1.32,1.32,0,0,1,.84,2,2.71,2.71,0,0,0-.35.82,1.58,1.58,0,0,1-2,.89l-.31-.16c.18.56-.2.68-.55.8-.2.06-.41.07-.61.13a.67.67,0,0,1-.94-.44,2.19,2.19,0,0,0-1.65-1.2c-.3-.07-.65.14-1,.14a1.14,1.14,0,0,1-.72-.2,1.49,1.49,0,0,0-1.07-.29c-.9.05-1.8.1-2.69.12a2.62,2.62,0,0,1-1-.1,2.48,2.48,0,0,0-1.72,0,19.37,19.37,0,0,0-7.29,3.87c-.9.72-1.72,1.54-2.58,2.3a.72.72,0,0,1-.46.18H76.69A2.94,2.94,0,0,1,76.32,106.39ZM92.64,84.11l.06.15a3.18,3.18,0,0,1,.47,2.28c.19-.09.37-.13.37-.18a2.6,2.6,0,0,0-.79-2.16l-.11-.09,0-.07,0,.06Zm20.43,10.61a.84.84,0,0,0-.06-1.35,1.72,1.72,0,0,0-1.77-.06.9.9,0,0,0-.21,1.46,1.43,1.43,0,0,0,2-.06Zm.78-1.07-.06-.07v.12a1.38,1.38,0,0,1-1,1.74,3.48,3.48,0,0,1-1.54.08,1.62,1.62,0,0,1-1.18-1.13l-.75.71c.94.75,1.87,1.47,2.76,2.21a2,2,0,0,0,1.73.72s0,0,.08.06l.07.63c.82-.71,1.59-1.35,2.33-2a.75.75,0,0,0,0-1.12C115.5,94.91,114.67,94.29,113.85,93.65Zm-26.8,1.77.31.26a14.91,14.91,0,0,1,4.52,5.47,3.93,3.93,0,0,0,.6.92,2.27,2.27,0,0,0,2.52.86,7.75,7.75,0,0,0,1.47-.58,37.16,37.16,0,0,1,6.42-2.67c1-.27,1.94-.51,2.84-.74L105.14,97l-.26-.1-4.57-1.48a2,2,0,0,0-1.6-.08,8.15,8.15,0,0,1-2.25.37s0,0-.09-.07v-.48c-.67,0-1.32,0-2,0A13.86,13.86,0,0,1,89.73,95,3.87,3.87,0,0,0,87.05,95.42Zm7.38-3,0,.1c.94,0,1.89,0,2.83,0a1.06,1.06,0,0,1,.51.06c.85.55,1.7,1.13,2.57,1.72l-.4.38,5.35,1.77a4.44,4.44,0,0,1,.3-.65.48.48,0,0,0-.11-.74c-.33-.29-.62-.62-1-1l2.88-2.55,1,1,1.91-1.43-.06-.12a1,1,0,0,0-.35.09,3,3,0,0,1-2.24.19,6.12,6.12,0,0,0-1.18-.22,29.67,29.67,0,0,0-7.53.37C97.46,91.75,96,92.12,94.43,92.44ZM83.56,99c-.42-.1-.79-.22-1.17-.27-1.25-.2-1-.5-1.53.82s-.88,2.73-1.29,4.1c0,.18,0,.49.06.56a1.12,1.12,0,0,0,1.67-.54c.19-.49.39-1,.62-1.45C82.44,101.13,83,100.08,83.56,99Zm31.54,0,3.37,1.82c.37.2,1.25-.1,1.26-.47a2.25,2.25,0,0,1,.45-1,.82.82,0,0,0-.64-1.25,3.45,3.45,0,0,1-1-.5,10.22,10.22,0,0,1-.89-.71Zm-7.68-2.78,2-1.89c-.64-.66-1.24-1.3-1.87-1.91a.42.42,0,0,0-.43,0c-.65.56-1.28,1.14-2,1.78Zm-9.08-2.37.09,0c-.1-.12-.29-.23-.3-.36,0-.52-.41-.49-.72-.47-1,.06-1.91.17-3,.26a5.17,5.17,0,0,0,.62.79,2.57,2.57,0,0,0,2.31.51c.22,0,.48-.17.56.18l-.88.47.07.15c.41-.1.84-.18,1.24-.32a.34.34,0,0,0,.19-.54A3.22,3.22,0,0,1,98.34,93.85Zm7.58,2.83,6,2,.07-.14-3.57-2.62L107.23,97l-1.17-1.3Zm-22.33,3.84c2.31-.64,3.67-2.75,2.71-4.1A11.77,11.77,0,0,0,83.59,100.52Zm22.52-3.21a2.92,2.92,0,0,0,2.46,2c1.06.07,2.13.1,3.33.15-.14-.15-.21-.29-.31-.33C109.79,98.52,108,97.93,106.11,97.31Zm-15.56-8-.14-1.79-.54,0a.61.61,0,0,0,0-.22,7.75,7.75,0,0,0-.51-.76.44.44,0,0,0-.28.07,2.36,2.36,0,0,0,0,.92c.32.85.69,1.68,1,2.52.51-.08.88-1,1.62-.23v-.57Zm-9,8.78,1.16.25c1.18.27,1.18.27,1.76-.81,0,0,0-.06,0-.17-.66-.16-1.33-.32-2-.46a.34.34,0,0,0-.31.14C82,97.37,81.77,97.72,81.54,98.1Zm31-5.45c-.46-.29-.8-.53-1.16-.73a.38.38,0,0,0-.34,0c-.68.43-1.35.88-2,1.28l1,1.11C110.36,93,110.89,92.64,112.55,92.65Zm-3-1.85-2.87-2.18-.2-.13C106.55,90,108.31,91.67,109.52,90.8Zm-21.1-5.63,0,.18a11.92,11.92,0,0,0,4.9,2.1l.14-.43c-.81-.23-1.6-.4-2.34-.69s-1.44-.68-2.16-1A2.53,2.53,0,0,0,88.42,85.17ZM101.56,89a23.62,23.62,0,0,1,2.23,1,1.85,1.85,0,0,0,1.8.32A7.34,7.34,0,0,0,101.56,89Zm12.78,10.89a10.94,10.94,0,0,1,1.71,1.16,1,1,0,0,0,1.33.19C116.44,100.48,115.67,99.53,114.34,99.91Zm-.86.17V98.59c-.69-.06-1.07.21-1.06.73S112.8,100.12,113.48,100.08Zm-14-10.75a23.88,23.88,0,0,1,2.27,1,1.54,1.54,0,0,0,1.39.13A8.17,8.17,0,0,0,99.48,89.33Zm-5.64,1.56a11.68,11.68,0,0,1,1.7.48,2,2,0,0,0,1.6-.07A6.68,6.68,0,0,0,93.84,90.89ZM82.37,103.32l-.33,1h2.31C83.73,103.85,82.82,104.26,82.37,103.32Zm8.77-16a5.19,5.19,0,0,0,2.89,1c-.22-.19-.35-.39-.52-.44C92.73,87.69,91.94,87.53,91.14,87.35Zm7,2.92a1.13,1.13,0,0,0,1.68.43A2,2,0,0,0,98.17,90.27Zm11.46-.12c.18,0,.42.12.56,0A1.22,1.22,0,0,0,111,89.1ZM114,99.6l.67-.23a1.25,1.25,0,0,0-.38-.23C114.1,99.1,113.87,99.13,114,99.6Z"/><path class="cls-23" d="M149,110.67h-6.92c1.57-10.25,3.13-20.46,4.7-30.69h6.89l-.15,1.33.74-.61a4.53,4.53,0,0,1,5-.59,3.34,3.34,0,0,1,2,3.41,39.66,39.66,0,0,1-.44,4.06c-.23,1.7-.51,3.39-.77,5.1h-6.2c.12-.86.24-1.69.37-2.52.15-1.06.31-2.13.46-3.19a1.81,1.81,0,0,0,0-.52c0-.37-.13-.7-.56-.79a.89.89,0,0,0-1.09.49,9.4,9.4,0,0,0-.49,1.8c-.85,5.42-1.67,10.84-2.5,16.26l-.9,5.9C149.09,110.29,149.05,110.48,149,110.67Z"/><path class="cls-23" d="M63.71,73c-.22,1.49-.44,3-.67,4.46q-.9,5.82-1.81,11.64-1,6.45-2,12.88c-.43,2.75-.86,5.51-1.27,8.27,0,.24-.06.42-.38.42H51.17a1.56,1.56,0,0,1-.2-.06l.36-2.41q1-6.48,2-13,1.05-6.8,2.09-13.59.65-4.16,1.27-8.32c0-.24.09-.37.37-.37h6.5A.71.71,0,0,1,63.71,73Z"/><path class="cls-23" d="M45.75,80h7Q50.37,95.32,48,110.66H41.06C42.62,100.43,44.18,90.23,45.75,80Z"/><path class="cls-23" d="M46.09,77.66c.24-1.51.47-3,.69-4.41,0-.32.26-.27.46-.27l5.44,0h1.13c-.23,1.51-.46,3-.7,4.41a.4.4,0,0,1-.27.24Z"/><path class="cls-20" d="M193.56,106.73a2.45,2.45,0,0,1,1.16.3,2.23,2.23,0,0,1,.88.87,2.39,2.39,0,0,1,.31,1.18,2.33,2.33,0,0,1-.31,1.17,2,2,0,0,1-.87.87,2.33,2.33,0,0,1-1.17.31,2.38,2.38,0,0,1-1.17-.31,2.14,2.14,0,0,1-.87-.87,2.33,2.33,0,0,1-.31-1.17,2.41,2.41,0,0,1,.32-1.18,2.23,2.23,0,0,1,.88-.87A2.41,2.41,0,0,1,193.56,106.73Zm0,.39a2,2,0,0,0-1,.25,1.77,1.77,0,0,0-.73.73,1.93,1.93,0,0,0-.27,1,2,2,0,0,0,.26,1,1.81,1.81,0,0,0,.73.72,1.88,1.88,0,0,0,1,.26,1.92,1.92,0,0,0,1-.26,1.87,1.87,0,0,0,.73-.72,2,2,0,0,0,.25-1,1.92,1.92,0,0,0-.26-1,1.83,1.83,0,0,0-.73-.73A2,2,0,0,0,193.56,107.12Zm-1,3.26v-2.53h.87a2.44,2.44,0,0,1,.65.07.59.59,0,0,1,.31.25.63.63,0,0,1,.12.37.65.65,0,0,1-.2.48.76.76,0,0,1-.52.23.55.55,0,0,1,.21.14,2.18,2.18,0,0,1,.38.5l.31.49h-.5l-.23-.4a2,2,0,0,0-.42-.59.62.62,0,0,0-.33-.08h-.24v1.07Zm.41-1.42h.5a.8.8,0,0,0,.48-.11.33.33,0,0,0,.13-.28.36.36,0,0,0-.06-.2.35.35,0,0,0-.18-.13,1.19,1.19,0,0,0-.41,0h-.46Z"/></g></g></svg>