<svg xmlns="http://www.w3.org/2000/svg" xmlns:xlink="http://www.w3.org/1999/xlink" viewBox="0 0 205.3 133.58"><defs><style>.cls-1{fill:#fff;}.cls-2{fill:url(#radial-gradient);}.cls-3{fill:url(#radial-gradient-2);}.cls-4{fill:url(#linear-gradient);}.cls-5{fill:url(#radial-gradient-3);}.cls-6{fill:url(#linear-gradient-2);}.cls-7{fill:url(#linear-gradient-3);}.cls-8{fill:#0077a3;}.cls-9{fill:url(#linear-gradient-4);}.cls-10{fill:url(#linear-gradient-5);}.cls-11{fill:url(#linear-gradient-6);}.cls-12{fill:url(#linear-gradient-7);}.cls-13{fill:url(#linear-gradient-8);}.cls-14{fill:url(#linear-gradient-9);}.cls-15{fill:#00bcf2;}.cls-16{fill:url(#linear-gradient-10);}.cls-17{fill:url(#linear-gradient-11);}.cls-18{fill:#59d0f6;}.cls-19{fill:url(#linear-gradient-12);}.cls-20{fill:#01bbf1;}.cls-21{fill:#01bcf1;}.cls-22{fill:#fa9d0f;}</style><radialGradient id="radial-gradient" cx="98.69" cy="51.35" r="49.23" gradientUnits="userSpaceOnUse"><stop offset="0.65" stop-color="#fef100"/><stop offset="1" stop-color="#ffd600"/></radialGradient><radialGradient id="radial-gradient-2" cx="98.69" cy="51.35" r="49.23" gradientUnits="userSpaceOnUse"><stop offset="0.66" stop-color="#ab8b00"/><stop offset="0.75" stop-color="#dcad09" stop-opacity="0"/></radialGradient><linearGradient id="linear-gradient" x1="87.39" y1="82.39" x2="109.98" y2="20.3" gradientUnits="userSpaceOnUse"><stop offset="0" stop-color="#dd5d1b"/><stop offset="0.04" stop-color="#e1691c"/><stop offset="0.13" stop-color="#ea7f1f"/><stop offset="0.24" stop-color="#f19121"/><stop offset="0.38" stop-color="#f69d23"/><stop offset="0.56" stop-color="#f8a424"/><stop offset="1" stop-color="#f9a624"/></linearGradient><radialGradient id="radial-gradient-3" cx="98.69" cy="51.35" r="33.03" gradientUnits="userSpaceOnUse"><stop offset="0" stop-color="#ffca09"/><stop offset="1" stop-color="#ffca09" stop-opacity="0"/></radialGradient><linearGradient id="linear-gradient-2" x1="86.88" y1="41.37" x2="107.01" y2="21.24" gradientUnits="userSpaceOnUse"><stop offset="0" stop-color="#ffd033" stop-opacity="0"/><stop offset="1" stop-color="#ffd033"/></linearGradient><linearGradient id="linear-gradient-3" x1="70.68" y1="51.58" x2="129.14" y2="51.58" gradientUnits="userSpaceOnUse"><stop offset="0" stop-color="#c15911"/><stop offset="0.02" stop-color="#c15d10"/><stop offset="0.11" stop-color="#c3680d"/><stop offset="0.2" stop-color="#c36c0c"/><stop offset="0.26" stop-color="#c25f0f"/><stop offset="0.32" stop-color="#c15911"/><stop offset="0.37" stop-color="#c25f0f"/><stop offset="0.5" stop-color="#c3690d"/><stop offset="0.67" stop-color="#c36c0c"/><stop offset="0.71" stop-color="#be5e0f"/><stop offset="0.76" stop-color="#ba5211"/><stop offset="0.83" stop-color="#b84b13"/><stop offset="1" stop-color="#b74913"/></linearGradient><linearGradient id="linear-gradient-4" x1="88.62" y1="18.07" x2="88.28" y2="16.15" gradientUnits="userSpaceOnUse"><stop offset="0" stop-color="#00c9f1"/><stop offset="1" stop-color="#0076a0"/></linearGradient><linearGradient id="linear-gradient-5" x1="82.63" y1="43.36" x2="85.29" y2="42.79" gradientUnits="userSpaceOnUse"><stop offset="0" stop-color="#0076a0"/><stop offset="1" stop-color="#00c9f1"/></linearGradient><linearGradient id="linear-gradient-6" x1="112.99" y1="64.08" x2="112.5" y2="61.3" xlink:href="#linear-gradient-5"/><linearGradient id="linear-gradient-7" x1="133.81" y1="49.15" x2="135.58" y2="48.78" xlink:href="#linear-gradient-4"/><linearGradient id="linear-gradient-8" x1="101.2" y1="29.73" x2="102.73" y2="29.4" xlink:href="#linear-gradient-4"/><linearGradient id="linear-gradient-9" x1="118.97" y1="42.4" x2="118.7" y2="40.84" xlink:href="#linear-gradient-4"/><linearGradient id="linear-gradient-10" x1="94" y1="44.46" x2="89.37" y2="18.21" gradientUnits="userSpaceOnUse"><stop offset="0.28" stop-color="#7fd9f8"/><stop offset="0.33" stop-color="#73d7f8"/><stop offset="0.55" stop-color="#42d0f7"/><stop offset="0.74" stop-color="#1ecaf6"/><stop offset="0.9" stop-color="#08c7f5"/><stop offset="1" stop-color="#00c6f5"/></linearGradient><linearGradient id="linear-gradient-11" x1="118.42" y1="45.46" x2="118.07" y2="43.46" gradientUnits="userSpaceOnUse"><stop offset="0" stop-color="#0accf6"/><stop offset="1" stop-color="#7fd9f8"/></linearGradient><linearGradient id="linear-gradient-12" x1="89.28" y1="20.24" x2="88.96" y2="18.38" gradientUnits="userSpaceOnUse"><stop offset="0" stop-color="#23cef6"/><stop offset="0.2" stop-color="#48d4f7"/><stop offset="0.44" stop-color="#6edbf8"/><stop offset="0.66" stop-color="#89dff9"/><stop offset="0.85" stop-color="#99e2fa"/><stop offset="1" stop-color="#9fe3fa"/></linearGradient></defs><g id="Layer_2" data-name="Layer 2"><g id="Layer_1-2" data-name="Layer 1"><path class="cls-1" d="M149.54,41.43a2.09,2.09,0,0,0-2.07-.77c-6.55-1.25-10.25-2.91-11-4.93s.89-5.35,4.92-10.34a2.12,2.12,0,0,0,.74-1l.05-.17A2.08,2.08,0,0,0,139,21.86c-6.49,1.53-10.54,1.52-12,0s-1.36-5.25.29-11.45a2.1,2.1,0,0,0,.26-1.23l0-.18a2.08,2.08,0,0,0-3.86-.84c-5.31,4-9,5.68-11,4.87s-3.38-4.24-4.39-10.58A2,2,0,0,0,108,1.2L107.88,1a2.08,2.08,0,0,0-3.86.8c-3.21,5.85-5.93,8.85-8.08,8.93s-4.82-2.5-8.32-7.88a2,2,0,0,0-.74-1l-.14-.11a2.08,2.08,0,0,0-3.21,2.3c-.55,6.65-1.81,10.5-3.75,11.45S74.37,15.19,69,11.7a2.1,2.1,0,0,0-1.09-.62l-.17,0a2.08,2.08,0,0,0-2,3.41c2.2,6.3,2.61,10.32,1.23,12s-5.08,1.9-11.42.91a2,2,0,0,0-1.25-.13l-.17,0a2.08,2.08,0,0,0-.44,3.92c4.57,4.86,6.59,8.37,6,10.44s-3.86,3.81-10.06,5.48a2.06,2.06,0,0,0-1.19.39l-.15.1a2.09,2.09,0,0,0-.66,2.57,2.06,2.06,0,0,0,1.86,1.19c6.15,2.59,9.42,5,9.73,7.11s-2,5-7,9.09a2.12,2.12,0,0,0-.93.85l-.09.15a2.08,2.08,0,0,0,2.62,2.95c6.67-.15,10.63.7,11.78,2.53s.24,5.42-2.67,11.14a2.13,2.13,0,1,0,3.07,3c6-2.84,10-3.68,11.79-2.47s2.42,4.85,2.1,11.26a2.05,2.05,0,0,0,0,1.25l.06.17a2.07,2.07,0,0,0,3.94,0c4.36-5,7.64-7.43,9.76-7.06s4.19,3.45,6.5,9.44a2,2,0,0,0,.51,1.14l.12.13a2.05,2.05,0,0,0,1.55.69,2,2,0,0,0,1.07-.3,2.07,2.07,0,0,0,1-2c1.92-6.38,4-9.89,6-10.41s5.23,1.44,9.77,6a2.07,2.07,0,0,0,.94.84l.16.07A2.07,2.07,0,0,0,124,94c-.84-6.62-.41-10.65,1.29-12s5.36-.81,11.36,1.49a2.08,2.08,0,0,0,1.19.38H138a2.07,2.07,0,0,0,2-1.69,2,2,0,0,0-.8-2.05c-3.46-5.71-4.7-9.56-3.69-11.47s4.57-2.92,11-3.26a2.08,2.08,0,0,0,1.25-.14l.16-.07a2.08,2.08,0,0,0-.39-3.93c-5.48-3.8-8.18-6.81-8-9s3-4.53,8.71-7.45a2,2,0,0,0,1.08-.64l.12-.13A2.08,2.08,0,0,0,149.54,41.43Zm-1.78,1.39-.1,0c-13.07,6.59-13.9,11.56-.81,20.5h.25l-.16.07-.09-.06c-14.62.7-17.4,4.91-9.07,18.41l.23.08h-.18l-.05-.08c-13.65-5.31-17.9-2.6-15.78,13.11l.17.18-.16-.08s0-.06,0-.1c-10.31-10.4-15.29-9.65-19.75,5.57l.09.23-.12-.13,0-.1c-5.18-13.69-10-15-20.31-3a2.18,2.18,0,0,1,0,.25l-.05-.17.06-.08c.84-14.62-3.06-17.82-17.35-11,0,.07-.07.14-.11.22l0-.18.09,0C71.3,73.48,69.05,69,53.2,69.43l-.19.15.09-.15h.1c11.42-9.16,11.2-14.2-3.47-20.23l-.24.07.14-.11.1,0c14.15-3.72,16-8.41,5.05-19.88l-.24,0,.17,0,.07.08c14.45,2.35,18-1.18,12.71-16.11l-.21-.14.17,0,0,.1c12.24,8,17,6.26,18.16-9.55l-.14-.21.14.11v.1C93.56,16,98.6,16.28,106.12,2.32c0-.08,0-.16,0-.24l.09.15,0,.09c2.22,14.47,6.7,16.8,19.25,7.1l.06-.23,0,.17-.08.06c-3.85,14.13-.71,18.07,14.69,14.32.06-.06.1-.12.16-.19l-.06.17-.1,0c-9.26,11.34-8,16.22,7.6,19.06a1.51,1.51,0,0,0,.22-.11Z"/><path class="cls-2" d="M64.48,86.71c6.86-13.22,4.65-17.77-11.38-17.28l-.09.15c11.64-9.28,11.47-14.34-3.38-20.42l-.14.11c14.41-3.74,16.31-8.44,5.22-20l-.17,0c14.69,2.44,18.33-1.07,12.91-16.17l-.17,0c12.42,8.21,17.19,6.48,18.37-9.51l-.14-.11c8,12.55,13.07,12.91,20.66-1.22l-.09-.15c2.22,14.72,6.69,17.1,19.37,7.28l0-.17c-4,14.35-.85,18.34,14.73,14.53l.06-.17C130.76,35.05,132,40,147.76,42.82l.12-.13c-13.32,6.66-14.2,11.64-.94,20.67l.16-.07c-14.87.67-17.71,4.86-9.27,18.5H138c-13.86-5.44-18.16-2.76-16,13.13l.16.08c-10.44-10.61-15.46-9.92-20,5.49l.12.13c-5.23-13.94-10.1-15.35-20.46-3.1l.05.17c.9-14.87-3-18.13-17.43-11.16"/><path class="cls-3" d="M64.48,86.71c6.86-13.22,4.65-17.77-11.38-17.28l-.09.15c11.64-9.28,11.47-14.34-3.38-20.42l-.14.11c14.41-3.74,16.31-8.44,5.22-20l-.17,0c14.69,2.44,18.33-1.07,12.91-16.17l-.17,0c12.42,8.21,17.19,6.48,18.37-9.51l-.14-.11c8,12.55,13.07,12.91,20.66-1.22l-.09-.15c2.22,14.72,6.69,17.1,19.37,7.28l0-.17c-4,14.35-.85,18.34,14.73,14.53l.06-.17C130.76,35.05,132,40,147.76,42.82l.12-.13c-13.32,6.66-14.2,11.64-.94,20.67l.16-.07c-14.87.67-17.71,4.86-9.27,18.5H138c-13.86-5.44-18.16-2.76-16,13.13l.16.08c-10.44-10.61-15.46-9.92-20,5.49l.12.13c-5.23-13.94-10.1-15.35-20.46-3.1l.05.17c.9-14.87-3-18.13-17.43-11.16"/><circle class="cls-4" cx="98.69" cy="51.35" r="33.03"/><circle class="cls-5" cx="98.69" cy="51.35" r="33.03"/><ellipse class="cls-6" cx="96.94" cy="31.31" rx="17.89" ry="9.22"/><path class="cls-7" d="M86.29,71.93,76.62,26.76a33.48,33.48,0,0,0-5.94,7.05c6.95,9,12.84,23,13,42.58,0,0,18.94-10.08,41.76-5.73a32.87,32.87,0,0,0,3.69-6.58Z"/><polygon class="cls-8" points="75.57 21.82 77.37 18.22 99.34 14.21 105.72 43.27 133.28 38.28 137.81 59.09 136.05 62.84 86.29 71.95 75.57 21.82"/><polygon class="cls-9" points="98.45 16.29 99.3 14.21 77.29 18.23 80.11 19.57 98.45 16.29"/><polygon class="cls-10" points="80.11 19.57 77.29 18.23 88.09 68.47 90.11 65.49 80.11 19.57"/><polygon class="cls-11" points="135.62 57.22 90.11 65.49 88.09 68.47 137.81 59.29 135.62 57.22"/><polygon class="cls-12" points="133.23 38.28 131.89 40.1 135.62 57.22 137.81 59.29 133.23 38.28"/><polygon class="cls-13" points="99.3 14.21 98.45 16.29 104.44 44.96 105.67 43.27 99.3 14.21"/><polygon class="cls-14" points="105.67 43.27 104.44 44.96 104.52 44.95 131.89 40.1 133.23 38.28 105.67 43.27"/><polygon class="cls-15" points="90.11 65.49 135.62 57.22 131.89 40.1 104.44 44.96 98.45 16.29 80.11 19.57 90.11 65.49"/><path class="cls-16" d="M102.06,38.15,97.42,16.79l-16.93,3.1,5.77,25.93C88.81,42.86,94.36,37.75,102.06,38.15Z"/><path class="cls-17" d="M131.74,41.22l0-.16-27.27,4.88C105.28,48.07,130.4,44.33,131.74,41.22Z"/><path class="cls-18" d="M90.61,64.9,134.7,57C134.18,54.55,89.89,61.12,90.61,64.9Z"/><path class="cls-19" d="M97.42,16.89,80.49,20C80.7,22.33,98.45,19.29,97.42,16.89Z"/><path class="cls-1" d="M205.18,102.06a17.16,17.16,0,0,0-11.25-15,21.29,21.29,0,0,0-2.37-.8,24.2,24.2,0,0,0,4.55-1.84A15,15,0,0,0,201.44,80a6.88,6.88,0,0,0,1.48-4.29,4.45,4.45,0,0,0-1-2.8A3.79,3.79,0,0,0,199,71.61a3.9,3.9,0,0,0-1.12.17l-.19,0c-.76.12-1.53.26-2.28.39-1.68.3-3.27.58-4.88.76a53,53,0,0,1-6.35.35c-1.67,0-3.42-.06-5.36-.18l-6.09-.42-2.77-.2-1.37-.09-.64,0h-.17a2.4,2.4,0,0,0-1.2.32,3.19,3.19,0,0,0-1.84-1l-.17,0-.37-.12a49,49,0,0,0-11.64-1.79c-1,0-2.09-.07-3.14-.07v0a77.85,77.85,0,0,0-8.67.5A93.57,93.57,0,0,0,127.1,72.8a123.54,123.54,0,0,0-24.65,9.8l-.55.31-.18.1a2.45,2.45,0,0,0-1.22,1.93,17,17,0,0,0-4,1A8.7,8.7,0,0,0,92,89.71V88.22a2.44,2.44,0,0,0-2.45-2.44H87.08V78.69a2.45,2.45,0,0,0-2.45-2.45h-4a2.44,2.44,0,0,0-2.43,2.17l0,.23q0,.17,0,.27c-.06.42-.12.83-.17,1.23a18.79,18.79,0,0,1-.4,2.33c-.71,2.73-1.57,3.42-2.81,3.7a2.44,2.44,0,0,0-1.39.86,6.47,6.47,0,0,0-1.46-1,9.91,9.91,0,0,0-4.33-1,9.72,9.72,0,0,0-5.22,1.47,2.42,2.42,0,0,0-1.74-.72H51.15a2.44,2.44,0,0,0-2.44,2.45v4.2a2.44,2.44,0,0,0,2.44,2.44h.52c0,2.3,0,4.46,0,6.52a2.36,2.36,0,0,0-.84-.15h-2.1V94.81a19.35,19.35,0,0,0-.14-2.31,7.91,7.91,0,0,0-4.2-6.12A12.12,12.12,0,0,0,39.51,85c-.76-.06-1.46-.09-2.13-.09a15.31,15.31,0,0,0-6,1.11,8.3,8.3,0,0,0-.9.43V77.88A2.45,2.45,0,0,0,28,75.43H2.45A2.45,2.45,0,0,0,0,77.88v4.6a2.45,2.45,0,0,0,2.39,2.44H4v.11c0,7.27,0,13.84,0,20.56v.11l-.77,0-.82,0A2.45,2.45,0,0,0,0,108.21v4.59a2.45,2.45,0,0,0,2.45,2.45H18.26a2.44,2.44,0,0,0,2.45-2.45v-4.68a2.45,2.45,0,0,0-2.45-2.45H16.54v-.8a2.41,2.41,0,0,0,1.25.34h3.37a2.44,2.44,0,0,0,2.44-2.44V94.42a2.4,2.4,0,0,0,.84.15h1.5a7.16,7.16,0,0,0,.13,1,6,6,0,0,0,2,3.52l.22.18a7.53,7.53,0,0,0-2.9,4.33,12.4,12.4,0,0,0,.1,6.43,9.17,9.17,0,0,0,1.46,3,7.27,7.27,0,0,0,2.82,2.27,9.75,9.75,0,0,0,4.06.92,9.63,9.63,0,0,0,5.77-2l.21-.16a6.69,6.69,0,0,0,2,1.43c-1.58.41-3.16.77-4.73,1.09A92.86,92.86,0,0,1,22,118.42c-1.18,0-2.33.07-3.41.07-2.2,0-4.22-.09-6.18-.28l-.31,0-.81-.07H10.26a2.45,2.45,0,0,0-2.44,2.64v.11h0a2.44,2.44,0,0,0,2,2.23,109.09,109.09,0,0,0,18.84,1.67,102.9,102.9,0,0,0,19.43-1.85,107.62,107.62,0,0,0,19-5.56,2.46,2.46,0,0,0,1.55-2.13H76.6a2.46,2.46,0,0,0,1.93-.94,6.89,6.89,0,0,0,1.47,1,8.92,8.92,0,0,0,4,1h.48A8.93,8.93,0,0,0,89.46,115a7.64,7.64,0,0,0,2.28-2.2A7.63,7.63,0,0,0,95,115.44a9,9,0,0,0,3.65.76,9.93,9.93,0,0,0,6.13-2.14,7.06,7.06,0,0,0,4.86,2.09l.61,0a7.88,7.88,0,0,0,4.74-1.41l.15-.12a2.42,2.42,0,0,0,1.86.86h2.76a2.65,2.65,0,0,0,1.79-.78,13.31,13.31,0,0,0,5.92,1.42A12.75,12.75,0,0,0,129,116a11.58,11.58,0,0,0,5.51-2.07,9.35,9.35,0,0,0-.65,3.7,10.9,10.9,0,0,0,.86,3.9,8.06,8.06,0,0,0,10.74,4.35,8.19,8.19,0,0,0,2.84-2.09,16.61,16.61,0,0,0,3.23-5.86c1-3.06,2.05-6.18,3-9.2.24-.73.47-1.47.71-2.2l.1-.29c1.13-3.49,2.3-7.09,3.42-10.65a1.34,1.34,0,0,1,.29-.59.65.65,0,0,1,.32-.05h0a2.49,2.49,0,0,0,1.49-.49,2.43,2.43,0,0,0,1-2V88.27a2.45,2.45,0,0,0-2.45-2.45h-9a2.42,2.42,0,0,0-.81.14,2.48,2.48,0,0,0-.82-.14H136.47a2.4,2.4,0,0,0-1.16-.29h-2.87A2.45,2.45,0,0,0,131,86a12.41,12.41,0,0,0-1.64-.6c.77-.21,1.54-.41,2.3-.59A62,62,0,0,1,146,83.05c.92,0,1.84,0,2.75.07A61.62,61.62,0,0,1,160,84.77l2.39.6,1.13.29a2.55,2.55,0,0,0,.61.08,2.87,2.87,0,0,0,.58-.07l-.67,11.63a2.48,2.48,0,0,0,1.5,2.4,9.39,9.39,0,0,0-4.51,8,14.18,14.18,0,0,0,1,5.8,13.56,13.56,0,0,0,3.42,4.85,18,18,0,0,0,7.65,4,30.74,30.74,0,0,0,8.28,1.07c.84,0,1.72,0,2.6-.09a28.11,28.11,0,0,0,10.71-2.7,18.73,18.73,0,0,0,8.6-8.13A18.09,18.09,0,0,0,205.18,102.06Z"/><path class="cls-20" d="M2.45,77.88H28V92.12H24.44c-.09-.93-.12-1.86-.28-2.77a27.08,27.08,0,0,0-.86-3.69,4.12,4.12,0,0,0-3.79-3c-1.78-.14-3.57-.13-5.39-.19v9.89c1.9.34,3.25-.77,3.49-2.87.09-.84.13-1.68.19-2.54l.24,0h3.12v15.91H17.79c-.06-.82-.1-1.63-.17-2.44a8.7,8.7,0,0,0-.22-1.24C17,97.42,15.93,96.74,14.09,97v.51q0,4.09,0,8.21a7,7,0,0,0,.09,1.12,1.28,1.28,0,0,0,1.31,1.26c.91.06,1.82,0,2.76,0v4.68H2.45v-4.59c.87,0,1.75,0,2.63-.11A1.18,1.18,0,0,0,6.27,107a7.22,7.22,0,0,0,.13-1.4V85.05c0-.34,0-.69,0-1-.09-.93-.45-1.37-1.38-1.47s-1.69-.06-2.53-.07Z"/><path class="cls-20" d="M173.25,112.46a8.32,8.32,0,0,0,3.62,1.89,8.19,8.19,0,0,0,9.68-5.2,12.91,12.91,0,0,0,.31-9c-1.79-5.52-7.29-5.9-10.58-4.08a9.52,9.52,0,0,0-1.45,1,1.63,1.63,0,0,1-1.18.43c-2.18,0-4.37,0-6.55,0h-.59c.43-7.55.86-15,1.29-22.62l2,.14c3,.2,5.91.42,8.87.61a66.63,66.63,0,0,0,12.15-.18c2.44-.28,4.86-.77,7.28-1.17a2,2,0,0,0,.43-.07c1-.36,1.9.4,1.93,1.64a4.53,4.53,0,0,1-1,2.8A12.72,12.72,0,0,1,195,82.27a23.7,23.7,0,0,1-9.36,2.57,59.78,59.78,0,0,1-9.36-.37l-1.36-.12-.27,5.58c.67-.31,1.27-.62,1.89-.88a18.35,18.35,0,0,1,6.34-1.26A24.42,24.42,0,0,1,193,89.34a14.71,14.71,0,0,1,9.74,13,15.59,15.59,0,0,1-1.6,9.1,16.25,16.25,0,0,1-7.52,7.07,25.8,25.8,0,0,1-9.79,2.46,30.22,30.22,0,0,1-10.07-.9,15.57,15.57,0,0,1-6.64-3.48,11,11,0,0,1-3.64-8.78,7,7,0,0,1,6.48-7,8.16,8.16,0,0,1,5.29.93,5.56,5.56,0,0,1,2.92,5,9.08,9.08,0,0,1-.16,1.94,4.27,4.27,0,0,1-3.27,3.39C174.28,112.19,173.79,112.31,173.25,112.46Z"/><path class="cls-20" d="M51.15,92.47v-4.2H60.6v3.51c.67-.78,1.26-1.6,2-2.3a7.45,7.45,0,0,1,8.23-1.25,5,5,0,0,1,2.48,3.4,19,19,0,0,1,.51,5v9.64c0,1.93.36,2.29,2.26,2.3h.55v4.21H64.7v-4.18c.39,0,.76,0,1.13-.09a1.14,1.14,0,0,0,1.08-1,7.07,7.07,0,0,0,.11-1.21c0-3.25,0-6.49,0-9.74A10.42,10.42,0,0,0,66.62,94a2.24,2.24,0,0,0-1.94-1.71,2.66,2.66,0,0,0-2.63,1,5.2,5.2,0,0,0-1,2.73C61,97,61,97.91,61,98.84c0,2.47,0,5,0,7.43v.34c0,1.5.42,1.91,1.92,2l.33,0v4.2H51.16v-4.19c.56,0,1.11,0,1.65-.08a1.16,1.16,0,0,0,1.22-1.1,5.42,5.42,0,0,0,.09-1.06q0-5.85,0-11.69a5.32,5.32,0,0,0-.07-1,1.25,1.25,0,0,0-1.39-1.21C52.18,92.44,51.69,92.47,51.15,92.47Z"/><path class="cls-20" d="M139.83,119.6a2.08,2.08,0,0,0,3.12.76,6.76,6.76,0,0,0,2.33-3.12c.09-.2.14-.4.23-.59a4.76,4.76,0,0,0,.11-3.83c-2-5.8-3.87-11.65-5.8-17.47a17.28,17.28,0,0,0-.67-1.68,1.77,1.77,0,0,0-1.87-1.12c-.24,0-.49,0-.76,0V88.26H148.8v4.26c-.13,0-.26,0-.4,0a9.75,9.75,0,0,0-1.08,0c-1,.15-1.29.51-1,1.49.85,2.64,1.75,5.25,2.63,7.88.21.63.43,1.26.68,2,.2-.6.36-1.1.51-1.59.84-2.73,1.68-5.45,2.5-8.18.38-1.28.09-1.62-1.24-1.65h-1V88.27h9V92.5s-.06,0-.08,0a2.88,2.88,0,0,0-2.95,2.34q-1.73,5.48-3.52,10.92c-1.23,3.8-2.44,7.59-3.73,11.37a14.45,14.45,0,0,1-2.74,5,5.63,5.63,0,0,1-9.49-1.57,7.49,7.49,0,0,1-.06-6.08,3.38,3.38,0,0,1,4.64-1.77,3.07,3.07,0,0,1,1.66,2.45,4.67,4.67,0,0,1-.43,3C142.2,119.28,141.35,119.67,139.83,119.6Z"/><path class="cls-20" d="M48.35,103.73h2.49c0,.79,0,1.57,0,2.34a25.55,25.55,0,0,1-.46,3.82c-.67,2.82-2.66,4-5.53,3.82a4.65,4.65,0,0,1-4.53-3.6,20.77,20.77,0,0,1-2.17,2.13,6.91,6.91,0,0,1-7.36.83,5.45,5.45,0,0,1-2.94-3.71,9.86,9.86,0,0,1-.08-5.17,5.46,5.46,0,0,1,3.75-3.87c1.55-.57,3.16-1,4.74-1.5a12.93,12.93,0,0,0,1.23-.46,3.59,3.59,0,0,0,2.39-3.9c-.13-2.63-2.1-4.07-4.94-3.73a3.67,3.67,0,0,0-2.09.89s.07.1.1.11a2.76,2.76,0,0,1,2.16,3.06,3.16,3.16,0,0,1-3,3.23,3.39,3.39,0,0,1-3.61-2.89,6.05,6.05,0,0,1,3.83-6.87,14.81,14.81,0,0,1,7-.84,9.81,9.81,0,0,1,3.92,1.11,5.46,5.46,0,0,1,2.94,4.29,14.76,14.76,0,0,1,.12,2c0,3.57,0,7.14,0,10.71a9.27,9.27,0,0,0,.17,1.75c.12.64.44.93.9.92s.8-.29.86-1c.09-.93.09-1.88.12-2.82C48.36,104.21,48.35,104,48.35,103.73Zm-8.59-3-.7.46c-1.11.72-2.25,1.42-3.35,2.18a2.8,2.8,0,0,0-1.23,2.47,2.45,2.45,0,0,0,3,2.59,2.65,2.65,0,0,0,2.08-2.26C40,104.37,39.65,102.58,39.76,100.69Z"/><path class="cls-20" d="M97.79,91.61a6.73,6.73,0,0,1,1.2.61A3.36,3.36,0,0,1,96.75,98a3.31,3.31,0,0,1-3.29-2.8,5.94,5.94,0,0,1,3.88-7A14.07,14.07,0,0,1,107,88a5.66,5.66,0,0,1,4.21,5.81c.06,4,0,8.08,0,12.12a7.24,7.24,0,0,0,.22,1.54.81.81,0,0,0,.84.69.8.8,0,0,0,.81-.71,10.91,10.91,0,0,0,.16-1.5c0-.73,0-1.47,0-2.24h2.39s0,0,0,.06a23.46,23.46,0,0,1-.37,6c-.76,2.86-2.72,4-5.61,3.88a4.57,4.57,0,0,1-4.43-3.43,1.38,1.38,0,0,0-.1-.22c-.47.53-.9,1.08-1.4,1.56A7.27,7.27,0,0,1,96,113.2a5.56,5.56,0,0,1-3.09-3.53,9.86,9.86,0,0,1-.17-5.49,5.43,5.43,0,0,1,3.76-3.86c1.65-.61,3.35-1.07,5-1.6a12.08,12.08,0,0,0,1.18-.47c1.82-.83,2.38-2.33,2-4.44a3.6,3.6,0,0,0-3.55-3.11,4.91,4.91,0,0,0-2.93.58C98.09,91.38,98,91.5,97.79,91.61Zm7,9.21-.15-.09c-1.36.91-2.76,1.76-4.08,2.74a2.73,2.73,0,0,0-1,3,2.49,2.49,0,0,0,1.67,1.91,2.32,2.32,0,0,0,2.44-.63,3.05,3.05,0,0,0,1-2.09C104.68,104,104.69,102.43,104.75,100.82Z"/><path class="cls-20" d="M120.49,111.26c-.18.55-.34,1-.51,1.51,0,.11-.18.27-.27.27-.9,0-1.79,0-2.71,0v-9.14h3.09a24.67,24.67,0,0,0,1.42,2.71,5.35,5.35,0,0,0,5.64,2.46,2.09,2.09,0,0,0,1.93-2.29,1.58,1.58,0,0,0-.93-1.5c-.73-.34-1.5-.61-2.26-.9-1.76-.69-3.57-1.25-5.26-2.07-3.32-1.62-4.14-4.78-3.84-7.78A7.55,7.55,0,0,1,120,88.85a9.36,9.36,0,0,1,5.65-1.57A10.82,10.82,0,0,1,131.37,89l.61.37.46-1.36h2.87v7.86c-.92,0-1.81,0-2.7,0-.13,0-.28-.19-.36-.33a8,8,0,0,0-2.68-3,5.36,5.36,0,0,0-4-.83,2.12,2.12,0,0,0-.7,3.87c1.08.54,2.24.94,3.37,1.39a35.07,35.07,0,0,1,4.21,1.66,7.24,7.24,0,0,1,3.84,7.29c-.24,4.16-3.22,7.22-7.62,7.73a11.34,11.34,0,0,1-7.63-2Z"/><path class="cls-20" d="M87.87,101.18h3.26s.05,0,.05.08a37.07,37.07,0,0,1-.29,7.06,6.47,6.47,0,0,1-2.74,4.6,6.78,6.78,0,0,1-4,.9,6.63,6.63,0,0,1-3-.68A5.47,5.47,0,0,1,78.4,109,26.53,26.53,0,0,1,78,104.8c0-3.91,0-7.83,0-11.74v-.59h-2.7V88.56c2.92-.66,4-2.93,4.65-5.47a37.6,37.6,0,0,0,.62-3.8c0-.2,0-.39.07-.6h4v9.53H89.5v4.21H84.69a1.56,1.56,0,0,0,0,.22c0,4.6,0,9.19,0,13.79a5.87,5.87,0,0,0,.36,1.75,1.13,1.13,0,0,0,1.18.78,1.09,1.09,0,0,0,1.16-.8,18,18,0,0,0,.47-2.82c.08-1.23,0-2.48,0-3.72Z"/><path class="cls-20" d="M66.24,115.07a101.74,101.74,0,0,1-56,5.61v-.13h.94c.34,0,.68.07,1,.1a74.53,74.53,0,0,0,9.91.21A95.49,95.49,0,0,0,37.58,119a103.45,103.45,0,0,0,13.73-3.82,3.36,3.36,0,0,1,1.13-.2h13.8Z"/><path class="cls-20" d="M164.15,83.29c-1.2-.3-2.38-.62-3.56-.9a64,64,0,0,0-11.77-1.72,62.61,62.61,0,0,0-17.73,1.75A104.17,104.17,0,0,0,112.48,89a.53.53,0,0,1-.79-.21,8.85,8.85,0,0,0-5.81-3.27c-1-.17-1.93-.25-2.94-.37l.63-.36a121.1,121.1,0,0,1,24.17-9.62,90.18,90.18,0,0,1,13.31-2.59,72.62,72.62,0,0,1,11.42-.42,47.17,47.17,0,0,1,11.07,1.7,6.45,6.45,0,0,0,.75.22c.48.09.63.34.58.84-.25,2.73-.46,5.45-.68,8.18C164.18,83.15,164.16,83.21,164.15,83.29Z"/><path class="cls-21" d="M103,125.31c0-.94,0-1.88,0-2.81,0-.28-.06-.38-.34-.37q-1.61,0-3.21,0c-.2,0-.36,0-.36.28,0,1.76-.06,3.52.06,5.28a1.12,1.12,0,0,0,1.3,1.2c.33,0,.65-.06,1-.07.1,0,.29-.15.29.08s.13.41-.13.52a4.5,4.5,0,0,1-2.82.43,1.44,1.44,0,0,1-1.21-1.25,4.43,4.43,0,0,1-.08-.9c0-1.73,0-3.46,0-5.2,0-.29-.08-.42-.38-.38a4.82,4.82,0,0,1-.76,0c-.13,0-.34.09-.38-.09a2.15,2.15,0,0,1,0-.67s.09-.06.14-.06a1.13,1.13,0,0,1,.26,0c.38,0,.88.17,1.1-.09s.06-.73.07-1.11a11,11,0,0,0,0-1.15c0-.22.06-.32.29-.31.41,0,.93-.16,1.2.07s.06.76.09,1.14,0,.74,0,1.12.08.33.34.33c1.08,0,2.17,0,3.25,0,.27,0,.37-.06.36-.35,0-.65,0-1.31,0-2,0-.26,0-.36.33-.35a6.41,6.41,0,0,0,1,0c.23,0,.29.07.29.29,0,.67,0,1.34,0,2,0,.29.09.36.36.34.59,0,1.2,0,1.79,0,.36,0,.29.22.29.42s.07.44-.29.43h-1.83c-.25,0-.32.07-.3.31,0,1.65,0,3.31,0,5,0,1.16.43,1.53,1.57,1.49.25,0,.48-.06.73-.07s.28-.1.3.1.11.4-.15.52a4.57,4.57,0,0,1-2.77.43,1.55,1.55,0,0,1-1.29-1.7c-.06-.93,0-1.88-.05-2.83Z"/><path class="cls-21" d="M126.54,127.65c.68-1.56,1.3-3,1.88-4.53.28-.75.18-.93-.57-1.19l-.24-.07c-.23-.06-.15-.24-.15-.39s.13-.19.26-.19h2.6c.13,0,.3,0,.3.19s0,.33-.2.4a2.16,2.16,0,0,0-1.31,1.36c-1.11,2.56-2.08,5.15-3.29,7.66a7.49,7.49,0,0,1-1.31,2,2,2,0,0,1-2.05.64,1.23,1.23,0,0,1-.8-.61,1,1,0,0,1,.19-1.11.88.88,0,0,1,1.07-.12,1.88,1.88,0,0,1,.69.74c.1.17.2.23.36.07a8.39,8.39,0,0,0,1.66-2.7c.06-.13,0-.24-.09-.36-.89-2.15-1.79-4.3-2.67-6.45a1.67,1.67,0,0,0-1.18-1.07c-.27-.07-.27-.23-.27-.43s.2-.2.34-.2H125c.17,0,.35,0,.33.24s0,.39-.3.39a1.31,1.31,0,0,0-.38.09c-.24.07-.36.2-.24.48C125.13,124.17,125.82,125.86,126.54,127.65Z"/><path class="cls-21" d="M86.61,122.5v5.41c0,.86.16,1.08,1,1.24.26,0,.26.17.28.37s-.13.23-.31.23H84c-.18,0-.31,0-.31-.23s0-.33.29-.36c.9-.1,1-.21,1-1.11v-9.16c0-1.17-.21-1.44-1.37-1.65-.24,0-.37-.08-.36-.37s.23-.23.39-.25c.84-.06,1.67-.08,2.51-.16.33,0,.45.08.45.42C86.6,118.74,86.61,120.62,86.61,122.5Z"/><path class="cls-22" d="M69,125.38a4.89,4.89,0,0,0,.66,2.56,2.34,2.34,0,0,0,3.71.37,4.65,4.65,0,0,0,.49-.59c.13-.2.22-.32.49-.15s.23.29.09.51a3.9,3.9,0,0,1-5.84,1,4.9,4.9,0,0,1,1.28-7.75,3.46,3.46,0,0,1,3.56.41,1.89,1.89,0,0,1,.61,2.07.83.83,0,0,1-1,.55.89.89,0,0,1-.86-.89,4,4,0,0,1,.16-1,.53.53,0,0,0-.42-.71,1.9,1.9,0,0,0-2.29.93A5.19,5.19,0,0,0,69,125.38Z"/><path class="cls-21" d="M117.48,122.52a4.77,4.77,0,0,1,1-1,2.92,2.92,0,0,1,1.14-.46,1.23,1.23,0,0,1,1.32.5,1.48,1.48,0,0,1,0,1.53.85.85,0,0,1-1,.29.76.76,0,0,1-.62-.77,2.17,2.17,0,0,1,0-.37c.06-.22,0-.25-.2-.23a2,2,0,0,0-1.61,1.79v3.88c0,1.14.14,1.33,1.3,1.41.28,0,.36.13.34.39s-.07.22-.23.22h-4c-.19,0-.26-.07-.25-.25s0-.33.2-.34.23,0,.35,0a.72.72,0,0,0,.72-.8q0-2.61,0-5.25a1.07,1.07,0,0,0-1-1.12c-.21,0-.37,0-.37-.35s.21-.29.39-.3c.74,0,1.48-.07,2.21-.15.32,0,.41.1.39.39A5.1,5.1,0,0,0,117.48,122.52Z"/><path class="cls-22" d="M83,129.23c0-.23-.17-.17-.3-.18-.94-.06-1.17-.29-1.16-1.24,0-1.4.06-2.79.06-4.19a2.2,2.2,0,0,0-1.34-2.31,4.24,4.24,0,0,0-4.1.48,1.63,1.63,0,0,0-.72,1,.94.94,0,0,0,.35,1.07,1,1,0,0,0,1.08,0,.84.84,0,0,0,.39-1,5.23,5.23,0,0,0-.12-.57.28.28,0,0,1,.15-.36A1.67,1.67,0,0,1,80,123c0,.32,0,.65.07,1a.43.43,0,0,1-.32.48c-.62.21-1.22.44-1.85.66a8.35,8.35,0,0,0-1.8.75,2.3,2.3,0,0,0-1,2.54A2,2,0,0,0,76.92,130a3.33,3.33,0,0,0,2.48-.69l.6-.52c.5,1,1,1.3,2,1.18a6.84,6.84,0,0,0,.86-.23C83.08,129.61,83,129.42,83,129.23ZM80,127.92a.33.33,0,0,1-.09.23A2.21,2.21,0,0,1,78,129c-1-.06-1.48-.85-1.19-1.9a1.94,1.94,0,0,1,.82-1.1,7.82,7.82,0,0,1,2.31-1Z"/><path class="cls-21" d="M96.15,124.36a3.79,3.79,0,0,0-2.83-3.15,4,4,0,0,0-4.4,1.26,4.74,4.74,0,0,0-.86,4.38,3.81,3.81,0,0,0,2.93,3,4,4,0,0,0,4.09-1.16,4.81,4.81,0,0,0,1.17-3.3A6.12,6.12,0,0,0,96.15,124.36ZM94,128a2,2,0,0,1-2.21,1.36,2,2,0,0,1-1.61-1.3,6.28,6.28,0,0,1-.48-3.11,4.65,4.65,0,0,1,.49-2,2.05,2.05,0,0,1,2-1.2A2,2,0,0,1,94,123a5.91,5.91,0,0,1,.45,2.5A5.83,5.83,0,0,1,94,128Z"/><path class="cls-21" d="M114.17,127.55c-.33-.22-.39,0-.49.21a2.42,2.42,0,0,1-2.54,1.27,2.58,2.58,0,0,1-2.25-1.92,7.6,7.6,0,0,1-.26-1.5c0-.29.07-.36.35-.36.82,0,1.64,0,2.47,0s1.67,0,2.51,0c.26,0,.36-.06.34-.33s0-.71-.07-1.07a3.09,3.09,0,0,0-1.67-2.47,3.83,3.83,0,0,0-4.65,1.09,5.06,5.06,0,0,0-.91,4,3.85,3.85,0,0,0,3,3.42,4,4,0,0,0,4.33-1.76C114.48,127.85,114.46,127.72,114.17,127.55Zm-5.54-3.24a3.16,3.16,0,0,1,.85-2.07,1.69,1.69,0,0,1,2.89.7,6.2,6.2,0,0,1,.2,1.34c0,.24-.08.26-.27.26h-3.41C108.73,124.53,108.6,124.53,108.63,124.31Z"/><path class="cls-21" d="M131.07,122.36a.9.9,0,0,1,.41.11.72.72,0,0,1,.3.3.82.82,0,0,1,0,.82.72.72,0,0,1-.3.3.82.82,0,0,1-.82,0,.72.72,0,0,1-.3-.3.82.82,0,0,1,0-.82.81.81,0,0,1,.31-.3A.83.83,0,0,1,131.07,122.36Zm0,.14a.8.8,0,0,0-.33.08.65.65,0,0,0-.26.26.69.69,0,0,0,0,.68.6.6,0,0,0,.25.25.69.69,0,0,0,.68,0,.63.63,0,0,0,.26-.25.69.69,0,0,0,.09-.34.7.7,0,0,0-.1-.34.63.63,0,0,0-.25-.26A.81.81,0,0,0,131.07,122.5Zm-.36,1.13v-.88H131a.61.61,0,0,1,.22,0,.18.18,0,0,1,.11.08.2.2,0,0,1,0,.13.23.23,0,0,1-.07.17.25.25,0,0,1-.18.08l.08.05.13.17.1.17h-.17l-.08-.14a.62.62,0,0,0-.15-.2.16.16,0,0,0-.11,0h-.08v.37Zm.15-.49H131a.32.32,0,0,0,.17,0,.12.12,0,0,0,0-.1.19.19,0,0,0,0-.07.09.09,0,0,0-.06,0l-.14,0h-.16Z"/></g></g></svg>