<svg xmlns="http://www.w3.org/2000/svg" xmlns:xlink="http://www.w3.org/1999/xlink" viewBox="0 0 629.15 299.96"><defs><style>.cls-1{fill:#ffde1b;}.cls-2{fill:#8d969c;}.cls-3{fill:#fff;}.cls-4{fill:#ec1c24;}.cls-5{fill:#004fa2;}.cls-6{fill:#00adee;}.cls-7{fill:#f7971d;}.cls-8{fill:#ee3e33;}.cls-9{fill:url(#radial-gradient);}.cls-10{fill:url(#radial-gradient-2);}.cls-11{fill:url(#linear-gradient);}.cls-12{fill:url(#radial-gradient-3);}.cls-13{fill:url(#linear-gradient-2);}.cls-14{fill:url(#linear-gradient-3);}.cls-15{fill:#0077a3;}.cls-16{fill:url(#linear-gradient-4);}.cls-17{fill:url(#linear-gradient-5);}.cls-18{fill:url(#linear-gradient-6);}.cls-19{fill:url(#linear-gradient-7);}.cls-20{fill:url(#linear-gradient-8);}.cls-21{fill:url(#linear-gradient-9);}.cls-22{fill:#00bcf2;}.cls-23{fill:url(#linear-gradient-10);}.cls-24{fill:url(#linear-gradient-11);}.cls-25{fill:#59d0f6;}.cls-26{fill:url(#linear-gradient-12);}.cls-27{fill:#fee000;}</style><radialGradient id="radial-gradient" cx="159.55" cy="99.53" r="94.83" gradientUnits="userSpaceOnUse"><stop offset="0.65" stop-color="#fef100"/><stop offset="1" stop-color="#ffd600"/></radialGradient><radialGradient id="radial-gradient-2" cx="159.55" cy="99.53" r="94.83" gradientUnits="userSpaceOnUse"><stop offset="0.66" stop-color="#ab8b00"/><stop offset="0.75" stop-color="#dcad09" stop-opacity="0"/></radialGradient><linearGradient id="linear-gradient" x1="137.79" y1="159.33" x2="181.31" y2="39.74" gradientUnits="userSpaceOnUse"><stop offset="0" stop-color="#dd5d1b"/><stop offset="0.04" stop-color="#e1691c"/><stop offset="0.13" stop-color="#ea7f1f"/><stop offset="0.24" stop-color="#f19121"/><stop offset="0.38" stop-color="#f69d23"/><stop offset="0.56" stop-color="#f8a424"/><stop offset="1" stop-color="#f9a624"/></linearGradient><radialGradient id="radial-gradient-3" cx="159.55" cy="99.53" r="63.62" gradientUnits="userSpaceOnUse"><stop offset="0" stop-color="#ffca09"/><stop offset="1" stop-color="#ffca09" stop-opacity="0"/></radialGradient><linearGradient id="linear-gradient-2" x1="136.81" y1="80.32" x2="175.58" y2="41.55" gradientUnits="userSpaceOnUse"><stop offset="0" stop-color="#ffd033" stop-opacity="0"/><stop offset="1" stop-color="#ffd033"/></linearGradient><linearGradient id="linear-gradient-3" x1="105.61" y1="99.98" x2="218.22" y2="99.98" gradientUnits="userSpaceOnUse"><stop offset="0" stop-color="#c15911"/><stop offset="0.02" stop-color="#c15d10"/><stop offset="0.11" stop-color="#c3680d"/><stop offset="0.2" stop-color="#c36c0c"/><stop offset="0.26" stop-color="#c25f0f"/><stop offset="0.32" stop-color="#c15911"/><stop offset="0.37" stop-color="#c25f0f"/><stop offset="0.5" stop-color="#c3690d"/><stop offset="0.67" stop-color="#c36c0c"/><stop offset="0.71" stop-color="#be5e0f"/><stop offset="0.76" stop-color="#ba5211"/><stop offset="0.83" stop-color="#b84b13"/><stop offset="1" stop-color="#b74913"/></linearGradient><linearGradient id="linear-gradient-4" x1="140.16" y1="35.43" x2="139.51" y2="31.74" gradientUnits="userSpaceOnUse"><stop offset="0" stop-color="#00c9f1"/><stop offset="1" stop-color="#0076a0"/></linearGradient><linearGradient id="linear-gradient-5" x1="128.63" y1="84.15" x2="133.74" y2="83.06" gradientUnits="userSpaceOnUse"><stop offset="0" stop-color="#0076a0"/><stop offset="1" stop-color="#00c9f1"/></linearGradient><linearGradient id="linear-gradient-6" x1="187.09" y1="124.05" x2="186.15" y2="118.7" xlink:href="#linear-gradient-5"/><linearGradient id="linear-gradient-7" x1="227.21" y1="95.3" x2="230.61" y2="94.58" xlink:href="#linear-gradient-4"/><linearGradient id="linear-gradient-8" x1="164.4" y1="57.89" x2="167.34" y2="57.27" xlink:href="#linear-gradient-4"/><linearGradient id="linear-gradient-9" x1="198.63" y1="82.3" x2="198.1" y2="79.3" xlink:href="#linear-gradient-4"/><linearGradient id="linear-gradient-10" x1="150.53" y1="86.27" x2="141.61" y2="35.71" gradientUnits="userSpaceOnUse"><stop offset="0.28" stop-color="#7fd9f8"/><stop offset="0.33" stop-color="#73d7f8"/><stop offset="0.55" stop-color="#42d0f7"/><stop offset="0.74" stop-color="#1ecaf6"/><stop offset="0.9" stop-color="#08c7f5"/><stop offset="1" stop-color="#00c6f5"/></linearGradient><linearGradient id="linear-gradient-11" x1="197.57" y1="88.2" x2="196.89" y2="84.34" gradientUnits="userSpaceOnUse"><stop offset="0" stop-color="#0accf6"/><stop offset="1" stop-color="#7fd9f8"/></linearGradient><linearGradient id="linear-gradient-12" x1="141.44" y1="39.61" x2="140.81" y2="36.03" gradientUnits="userSpaceOnUse"><stop offset="0" stop-color="#23cef6"/><stop offset="0.2" stop-color="#48d4f7"/><stop offset="0.44" stop-color="#6edbf8"/><stop offset="0.66" stop-color="#89dff9"/><stop offset="0.85" stop-color="#99e2fa"/><stop offset="1" stop-color="#9fe3fa"/></linearGradient></defs><g id="Layer_2" data-name="Layer 2"><g id="Layer_1-2" data-name="Layer 1"><path class="cls-1" d="M119.82,252.69c-9.77-3.24-19.14-6.72-28-10.36,15.06,9.49,34.19,18,54.58,24a205.22,205.22,0,0,0,27.34,6.56c3.39.55,6.48,1,9.45,1.28l2.23.18.91.08a139.27,139.27,0,0,0,17.33.68,73.68,73.68,0,0,0,19.41-2.76l1.86-.59.3-.1.92-.31a27.94,27.94,0,0,0,4.44-2.06c-22.77,4.4-64.9-1.39-110.77-16.6"/><path class="cls-2" d="M208.71,42.26l4.62.48L216,44.53l1.4-1.38L267,48.26l22.36,83h1.28a180,180,0,0,1,2.86-20l13.65-58.81,47.34,4.91,21.55,140-41.55,2.43-8-78.56h-.85a131,131,0,0,1-2.71,14.46l-17.11,65.8-28.91,1.69-21.08-64.41a117.19,117.19,0,0,1-4.11-19.71l-1.8-.06c-.15,6.3-.3,12.8-.66,19.08L245.53,205l-55.71,3.26ZM379.81,60l70.5,7.31v35l-30.41-1.78.08,12.59,27.79,1.19v32.8H420.16l.07,12.71,31.06-.47v33.73l-69.69,4.08L379.81,60M546.34,123.2c-.52,18-.78,32.94-9.7,47.09-8.18,13.07-20.88,20.74-33.29,21.5a40,40,0,0,1-33.19-14.1c-9-10.28-14.69-25.87-14.68-45.83,0-41.06,22.16-63.73,49.27-60.85,14.16,1.51,32.57,13.31,38.12,33.08l-26.3,12.8c-2.16-5.94-6.3-9.27-11.08-9.54-10.87-.6-17.08,12.47-17.19,26.92-.09,13.12,5.68,25.3,15.48,25.13a12.51,12.51,0,0,0,12-10.18H502.49l.26-27.64Zm30.59,24.94,5.15-31.88H583c.32,4.47.64,9.07,1.23,13.51l2.27,18.31ZM572,173l17.86-.7,1.76,12.5,23.25-1.37-18.74-101-26.51-2.74-26.74,108,26.9-1.58ZM311.26,211.24l28.36-1.55,1.9,68.63-27.84,3.73-2.42-70.77M352.19,209l25.93-1.46.82,44.86,20.38-2.22.27,20.38-45.74,6.14L352.19,209m53-3,23-1.28.28,42.28,18.09-2v19.25L406,269.63l-.76-63.69m47.15-2.66,20.4-1.15-.24,58.56-20.14,2.69V203.25m55.9,14.49c5.66-.46,9.05,4.18,9,10-.1,6.28-3.87,11-9.25,11.6s-9.28-3.38-9.2-9.82c.06-6,3.72-11.36,9.47-11.82m.23-18.55C493.16,200,480,212.72,479.84,231c-.12,18.54,12.72,27.83,28,25.78,14.64-2,26.31-13.78,26.64-31,.31-17-11.16-27.49-25.92-26.67m32.05-.88,15.45-.88,13.06,27.77h.45a89.71,89.71,0,0,1-.92-13l.35-15.47,14.15-.79-1.52,50.21-14,1.87-12.79-25.51h-.45a72,72,0,0,1,.72,10.36l-.4,16.85-15.23,2Zm50.19,29,.7.64c2.41,2.21,5.32,3.88,8.46,3.52,1.33-.15,3.47-1.09,3.55-3.28s-1.69-2.18-2.91-2.38l-2.73-.36c-5.36-.67-9.84-4.35-9.59-12.15.38-11.9,9-19,17.14-19.48a16.4,16.4,0,0,1,11.41,3.57l-4,12.57c-2.18-1.87-4.69-3.27-7.59-3a3,3,0,0,0-3,2.82c0,1.82,1.61,1.94,2.64,2.17l3,.64c5.52,1.18,9.36,4.73,9.06,12.8-.44,11.28-8.44,17.89-16.38,19a25.5,25.5,0,0,1-14.5-2.53Zm-399.62-9.33,37.16-2.1,15.09,39.52.86-.08A73.64,73.64,0,0,1,246.1,245l8.83-30.65,32.46-1.83,16.37,70.74-29.26,3.92-6-39.68-.58.06a56.08,56.08,0,0,1-1.76,7.59l-11.29,34.75-19.37,2.59-14.08-30.86a41.43,41.43,0,0,1-2.73-9.47l-1.16.1c-.08,3.13-.16,6.35-.37,9.49L215,295.24,179.73,300Z"/><path class="cls-3" d="M216.79,35.23l58.3,6,22.36,83h1.28a180,180,0,0,1,2.86-20l13.65-58.8,47.34,4.91,21.54,140-41.54,2.43-8-78.57h-.85A131.62,131.62,0,0,1,331,128.69l-17.11,65.79L285,196.19l-21.1-64.41a116.32,116.32,0,0,1-4.11-19.72H258c-.15,6.3-.3,12.8-.66,19.08l-3.75,66.94-55.72,3.27ZM387.88,53l70.52,7.31v35L428,93.45l.09,12.59,27.78,1.19V140H428.26l.08,12.7,31.06-.46V186l-69.69,4.08L387.88,53m166.55,63.2c-.52,18-.78,33-9.7,47.1-8.18,13.08-20.88,20.73-33.29,21.49a40,40,0,0,1-33.19-14.05c-9-10.28-14.7-25.87-14.69-45.83,0-41.06,22.16-63.72,49.26-60.84,14.18,1.49,32.58,13.3,38.12,33.07l-26.3,12.8c-2.16-6-6.29-9.27-11.07-9.54-10.87-.61-17.09,12.46-17.19,26.93-.08,13.11,5.68,25.28,15.48,25.12a12.53,12.53,0,0,0,12-10.18h-13.3l.26-27.64Zm30.57,25,5.14-31.87H591c.33,4.47.64,9.06,1.22,13.51l2.29,18.3ZM580.1,166l17.86-.7,1.75,12.48L623,176.39l-18.74-101L577.7,72.62l-26.7,108L577.89,179Z"/><path class="cls-1" d="M.2,63.77C1.26,48,6.68,34.11,16.88,23.86,38.79,1.81,77.37,1.69,117,19.58a189.14,189.14,0,0,1,20.14,10.69l1.1.65-1.53-.54c-2,.59-4,1.27-5.93,2q-7.75-4.49-15.51-8a157.63,157.63,0,0,0-17.59-6.84c-31.18-10-59.83-7.42-77.14,10-8,8-12.76,18.4-14.64,30.32a74,74,0,0,0-.8,8c-.94,19.43,5,42.05,17.11,64.72,2.81,5.27,5.94,10.54,9.39,15.76a221.66,221.66,0,0,0,29,35.23c21,20.84,45.26,36.78,69,46A231.07,231.07,0,0,1,62,162.45c-1.57-2.32-3.07-4.66-4.53-7C36,120.77,28,84.69,36.24,57.93a48.5,48.5,0,0,1,1.67-4.79c1.64.38,3.32.84,5,1.37,12.78,4,26.3,12.13,38.18,23.92,2,2,3.93,4.06,5.75,6.16a59.06,59.06,0,0,0-1,6.86,104.31,104.31,0,0,0-8.35-9.36C66,70.77,53.14,63,41.15,59.24c-8.44,26.65.62,63.58,24,98.68,1.37,2.05,2.78,4.1,4.25,6.14a225.31,225.31,0,0,0,24.2,28.32c18.34,18.21,39.19,32.66,60,42.15a158.44,158.44,0,0,0,18,7,109.23,109.23,0,0,1-19.84-2c-31.56-6.06-65.7-25.38-94.78-54.26a218.21,218.21,0,0,1-38.74-51.43A171.69,171.69,0,0,1,7.61,110.15,128.84,128.84,0,0,1,.3,77.3,92.58,92.58,0,0,1,.2,63.77"/><path class="cls-1" d="M12.82,63.13C13.38,50.19,17.48,39,25.55,30.69c19.19-19.67,55.56-17.54,92.62,2,.73.39,1.47.73,2.2,1.14-1.66.93-28.45,11.73-33.54,40-23.9-22.22-52.47-30.34-64.54-18A18.87,18.87,0,0,0,17.59,65,85.92,85.92,0,0,0,21,89.4a129,129,0,0,0,7.61,20.53C21,99.69,16,89.15,13.86,79.69a43,43,0,0,1-1-10.62c0-.7-.09-1.41-.1-2.09,0-1.29.06-2.55.11-3.8"/><path class="cls-4" d="M22.33,72.56,29.81,58.1,27.17,74.16C22,105.87,37.57,146.74,69,183.49c0,0-51.24-64.28-51.24-90.19a44.59,44.59,0,0,1,4.62-20.73"/><path class="cls-3" d="M316.56,206.08l28.38-1.6,1.88,68.62L319,276.83l-2.43-70.75m40.94-2.31,25.92-1.46.83,44.86,20.37-2.23.27,20.39-45.73,6.13-1.66-67.69m53-3,22.93-1.29.27,42.27,18.1-2V259l-40.58,5.44-.75-63.69m47.14-2.67L478,196.93l-.26,58.6-20.12,2.69V198.08m55.91,14.49c5.66-.46,9.06,4.19,9,10-.1,6.28-3.87,11-9.25,11.59s-9.27-3.38-9.2-9.82c.06-6,3.73-11.36,9.48-11.82m.23-18.55c-15.4.85-28.62,13.57-28.72,31.9-.11,18.54,12.72,27.84,28,25.76,14.65-2,26.32-13.77,26.64-31,.32-17-11.15-27.48-25.91-26.66m32-.87,15.45-.87L574.36,220h.44a92.62,92.62,0,0,1-.92-13l.43-15.5,14.16-.79L587,240.94l-14,1.88-12.79-25.51h-.47a72,72,0,0,1,.72,10.36L560,244.55l-15.23,2ZM596,222.16l.69.64c2.41,2.2,5.31,3.88,8.45,3.52,1.34-.15,3.48-1.1,3.56-3.27s-1.69-2.19-2.92-2.38l-2.71-.36c-5.37-.67-9.85-4.35-9.6-12.15.38-11.9,9-19,17.14-19.49a16.44,16.44,0,0,1,11.42,3.58l-4,12.57c-2.18-1.87-4.69-3.28-7.58-3a3,3,0,0,0-3,2.82c-.07,1.82,1.62,1.93,2.64,2.18l3,.64c5.52,1.18,9.36,4.74,9,12.8-.43,11.28-8.44,17.88-16.39,19a25.34,25.34,0,0,1-14.5-2.54Zm-399.62-9.33,37.15-2.1,15.09,39.52.85-.09a73.64,73.64,0,0,1,1.81-10.29l8.83-30.65,32.47-1.83L309,278.16l-29.26,3.92-6-39.68h-.58a56.11,56.11,0,0,1-1.77,7.59l-11.28,34.7-19.37,2.6-14.08-30.86a42.61,42.61,0,0,1-2.73-9.47l-1.16.11c-.08,3.13-.15,6.35-.36,9.49l-2.21,33.5-35.27,4.72Z"/><path class="cls-5" d="M318.88,203.56l28.37-1.6,1.88,68.62-27.83,3.73-2.42-70.75m40.93-2.32,25.92-1.46.83,44.87,20.38-2.24.27,20.4-45.74,6.13-1.66-67.7m53-3,22.94-1.3.26,42.27,18.11-2v19.26l-40.57,5.42-.77-63.68M460,195.59l20.4-1.15L480.16,253,460,255.74V195.59m88.2-5,15.45-.87,13.06,27.77h.44a92.61,92.61,0,0,1-.91-13l.42-15.51,14.15-.8-1.52,50.21-14,1.87-12.8-25.5H562a72,72,0,0,1,.72,10.36l-.4,16.85-15.23,2Zm50.19,29.1.69.64c2.42,2.21,5.32,3.88,8.47,3.52,1.33-.15,3.47-1.1,3.55-3.28s-1.69-2.18-2.92-2.37l-2.72-.36c-5.36-.68-9.84-4.35-9.6-12.15.38-11.9,8.95-19,17.14-19.48a16.45,16.45,0,0,1,11.41,3.57l-4,12.56c-2.19-1.86-4.7-3.26-7.59-3a3,3,0,0,0-3,2.82c-.06,1.82,1.61,1.93,2.63,2.17l3,.65c5.53,1.17,9.36,4.73,9,12.79-.44,11.29-8.44,17.88-16.38,19a25.36,25.36,0,0,1-14.51-2.52Zm-399.62-9.34,37.16-2.1L251,247.76l.85-.09a74.73,74.73,0,0,1,1.81-10.28l8.83-30.64L295,204.91l16.35,70.78-29.26,3.92-6-39.68-.58.06a57.51,57.51,0,0,1-1.77,7.58l-11.26,34.68-19.37,2.59L229,253.93a42.17,42.17,0,0,1-2.73-9.48l-1.16.11c-.09,3.13-.16,6.35-.37,9.49l-2.2,33.49-35.27,4.73Zm317.37-18.82c-15.41.85-28.61,13.57-28.73,31.9-.11,18.55,12.73,27.83,28,25.77,14.65-2,26.32-13.78,26.64-31,.33-17-11.15-27.47-25.91-26.66"/><path class="cls-3" d="M513.94,214.42l4.42-15.1,4.94,14.37,12.59-1-9.71,9.37,4.34,13-11.21-6.56-13.16,12.55,5-17-14.53-8.36,17.32-1.26"/><path class="cls-6" d="M501.92,38c0-3.18,0-6.31,0-9.44,0-.91-.19-1.25-1.12-1.34-3.43-.31-6.81-.72-10.24-1.13-.63-.08-1.18-.2-1.14.81.12,6-.23,12.07.13,18.19.19,2.94,1.43,4.26,4.19,4.48,1.05.07,2.11,0,3.16,0,.29,0,.95-.45.95.36,0,.61.43,1.43-.39,1.8a13.51,13.51,0,0,1-9.09.85c-2.28-.63-3.5-2.35-3.93-4.78a15.64,15.64,0,0,1-.27-3.15c0-6,0-12.09.07-18,0-1-.23-1.42-1.21-1.47a14.61,14.61,0,0,1-2.5-.28c-.42-.07-1.11.14-1.21-.45a8.71,8.71,0,0,1,0-2.34c0-.1.31-.18.48-.17s.55.08.85.1c1.23.07,2.82.88,3.58.15s.2-2.46.22-3.77,0-2.61,0-3.87c0-.73.18-1.06.94-.86,1.32.27,3-.15,3.86.73s.22,2.52.24,3.87,0,2.51,0,3.76c-.05.91.28,1.17,1.09,1.21,3.47.38,6.95.75,10.37,1.21.85.1,1.2-.08,1.17-1-.09-2.19,0-4.33-.06-6.52,0-.86.19-1.17,1-1a23.2,23.2,0,0,0,3.1.37c.72.05.92.39.92,1.1,0,2.17,0,4.4,0,6.57,0,.95.26,1.25,1.16,1.29,1.9.14,3.8.47,5.66.61,1.15.1.93.79.94,1.45s.24,1.46-.89,1.32c-1.94-.28-3.89-.42-5.83-.65-.81-.08-1,.15-1,.95,0,5.48,0,11,.07,16.61.06,3.92,1.37,5.31,5,5.43.76,0,1.52-.06,2.28,0,.33,0,.94-.26,1,.44s.38,1.36-.45,1.72a13.24,13.24,0,0,1-8.83.82c-2.64-.76-4.12-2.87-4.19-6.14s-.09-6.55-.12-9.78Z"/><path class="cls-6" d="M577.49,53.52c2.11-4.56,4-8.81,5.74-13.1.86-2.12.55-2.71-1.92-3.77l-.8-.32c-.76-.26-.48-.77-.53-1.21-.08-.61.42-.49.83-.42,2.83.31,5.62.66,8.45,1,.41.07,1,0,1,.67,0,.47.13,1-.58,1.13-2.16.38-3.27,1.74-4.1,3.56C582.2,48.3,579.22,56,575.41,63.37a20.49,20.49,0,0,1-4.17,5.9,6.5,6.5,0,0,1-6.79,1.53,4.48,4.48,0,0,1-2.66-2.1,2.75,2.75,0,0,1,4.06-3.58,7.49,7.49,0,0,1,2.36,2.49c.36.53.66.76,1.2.29a22.9,22.9,0,0,0,5.3-8c.18-.39-.15-.79-.3-1.15-3.07-6.92-6.22-13.85-9.25-20.79a6.49,6.49,0,0,0-3.95-3.72c-.94-.33-.94-.82-.93-1.44,0-.8.65-.54,1.1-.46,3.57.42,7.14.88,10.66,1.3.59.08,1.1.07,1.12.86s0,1.19-.94,1a3.51,3.51,0,0,0-1.21.1c-.79.12-1.15.45-.77,1.36C572.57,42.42,575,47.81,577.49,53.52Z"/><path class="cls-6" d="M449.38,21.85c-.08,6.34-.16,12.72-.19,19.1,0,3.12.5,4,3.3,4.74.88.22.86.71.88,1.43,0,.88-.45.81-1,.75-4-.37-8-.69-12-1-.59-.07-1.05-.08-1-1,0-.73.08-1.22,1-1.24,3-.09,3.39-.52,3.44-3.75.16-10.92.26-21.7.41-32.33,0-4-.67-5.11-4.51-6.34-.85-.26-1.28-.5-1.21-1.48s.79-.67,1.31-.63c2.79.22,5.59.54,8.38.71,1.12.09,1.49.46,1.46,1.63C449.49,8.88,449.42,15.32,449.38,21.85Z"/><path class="cls-7" d="M392.68,25.85a22.76,22.76,0,0,0,1.95,10.08c2.7,5.45,8.2,6.74,11.85,2.84a12.06,12.06,0,0,0,1.57-2.06c.44-.74.71-1.13,1.56-.37s.69,1.2.25,1.94c-4.34,7.38-13.17,8.27-18.77,1.6-2.8-3.37-3.73-7.58-4.12-12-.67-8.06,2.91-15.27,8.78-17a10.62,10.62,0,0,1,11.31,3.2,8.36,8.36,0,0,1,1.81,7.92,2.34,2.34,0,0,1-3.27,1.61A3.61,3.61,0,0,1,403,20a14.07,14.07,0,0,1,.58-3.49,2.21,2.21,0,0,0-1.28-2.81c-2.9-1.51-5.7-.7-7.4,2.36C393.21,18.9,392.84,22.34,392.68,25.85Z"/><path class="cls-6" d="M548,34.56a12.13,12.13,0,0,1,3.23-2.68,8.87,8.87,0,0,1,3.59-1.07A4.36,4.36,0,0,1,559,37.47c-.8,1.09-2,1.05-3.28.61a2.77,2.77,0,0,1-2-2.52,3.4,3.4,0,0,1,.1-1.16c.18-.62-.07-.77-.69-.74A5.44,5.44,0,0,0,548,38.8l.18,12.29c0,3.68.52,4.27,4.25,4.76.95.14,1.14.5,1.12,1.3-.05.54-.24.67-.72.67-4.35-.26-8.71-.53-13.11-.75-.61,0-.85-.28-.81-.87s-.13-1.09.66-1.08a8,8,0,0,0,1.09,0c1.59-.16,2.31-.83,2.3-2.41,0-5.6-.12-11.17-.21-16.75a3.89,3.89,0,0,0-3.29-3.84c-.65-.17-1.17-.28-1.19-1.19s.64-.84,1.26-.86c2.39.1,4.73.23,7.12.28,1,0,1.29.46,1.26,1.36S548,33.34,548,34.56Z"/><path class="cls-7" d="M437.51,44.91c0-.82-.58-.7-1-.76-3-.5-3.7-1.41-3.63-4.81.12-5,.31-9.92.35-14.83,0-3.55-.89-6.92-4.15-8.71-4.51-2.43-9-2.75-13.17-.13a5.1,5.1,0,0,0-2.38,3.16,4.16,4.16,0,0,0,1,4,2.87,2.87,0,0,0,3.52.42c1.22-.57,1.52-1.83,1.3-3.28-.11-.7-.22-1.45-.37-2.15s0-1,.51-1.2c2.84-1.43,7.54-.61,8.39,5a34.11,34.11,0,0,1,.17,3.49,1.3,1.3,0,0,1-1,1.56c-2,.52-3.95,1.09-6,1.62a21.49,21.49,0,0,0-5.88,2c-2.74,1.59-4,5-3.31,9a7.49,7.49,0,0,0,5.84,6.25,9,9,0,0,0,8-1.75c.69-.56,1.29-1.12,2-1.68,1.51,3.83,3,5,6.25,4.88.91-.07,1.83-.42,2.75-.58S437.5,45.54,437.51,44.91Zm-9.77-5.75a1.27,1.27,0,0,1-.29.82c-1.63,1.84-3.52,3-6,2.58-3.21-.53-4.76-3.66-3.74-7.37a6.17,6.17,0,0,1,2.73-3.66A21.52,21.52,0,0,1,427.91,29C427.84,32.41,427.77,35.78,427.74,39.16Z"/><path class="cls-6" d="M479.46,31.85c-1-5.48-3.77-9.6-8.75-11.65-5.27-2.19-10.2-1.78-13.9,2.54-3.45,4.07-4.07,9.34-2.91,15s4.23,9.78,9.21,11.57,9.39,1,12.95-3c2.68-2.94,3.62-6.77,3.69-10.92A17.33,17.33,0,0,0,479.46,31.85Zm-6.79,11.66c-1.48,3.43-3.76,4.79-7,4.12-2.56-.51-4.06-2.53-5.06-5a24.65,24.65,0,0,1-1.42-11.09,15.59,15.59,0,0,1,1.63-6.76c1.39-2.52,3.37-3.85,6.29-3.34s4.6,2.41,5.66,5.18a23,23,0,0,1,1.35,8.61A20.91,20.91,0,0,1,472.67,43.51Z"/><path class="cls-6" d="M537.55,48.7c-1-.72-1.22,0-1.55.55a7.12,7.12,0,0,1-7.92,3.51c-3.74-.69-6-3.11-7.11-6.7a27.23,27.23,0,0,1-.86-4.89c-.1-1,.25-1.12,1.09-1.05,2.61.26,5.17.47,7.78.68s5.25.42,7.85.67c.8.07,1.15-.1,1-.94-.13-1.11-.09-2.22-.3-3.33a11,11,0,0,0-5.3-8.11c-5-2.91-11.17-2.16-14.54,1.9-2.86,3.52-3.52,7.77-2.85,12.56.84,5.87,4.33,10.28,9.52,11.8,5.51,1.58,10.56-.22,13.5-4.74C538.49,49.74,538.43,49.34,537.55,48.7ZM520.1,37c.25-2.43.78-4.71,2.63-6.35,3.12-2.7,7.69-1.12,9,3.09a20.65,20.65,0,0,1,.67,4.26c.07.71-.27.79-.86.73-1.76-.19-3.57-.34-5.34-.48s-3.58-.35-5.35-.5C520.43,37.79,520.05,37.69,520.1,37Z"/><path class="cls-6" d="M591.08,40a3.39,3.39,0,0,1,1.61.42,3,3,0,0,1,1.22,1.21,3.33,3.33,0,0,1,.44,1.64,3.42,3.42,0,0,1-.43,1.63,3.13,3.13,0,0,1-1.21,1.21,3.3,3.3,0,0,1-3.26,0,3.06,3.06,0,0,1-1.21-1.21,3.26,3.26,0,0,1,0-3.27,3,3,0,0,1,1.23-1.21A3.36,3.36,0,0,1,591.08,40Zm0,.54a2.82,2.82,0,0,0-1.34.35,2.57,2.57,0,0,0-1,1,2.85,2.85,0,0,0-.37,1.37,2.81,2.81,0,0,0,.37,1.36,2.58,2.58,0,0,0,1,1,2.77,2.77,0,0,0,1.36.36,2.73,2.73,0,0,0,1.35-.36,2.54,2.54,0,0,0,1-1,2.78,2.78,0,0,0,.35-1.36,2.83,2.83,0,0,0-.36-1.37,2.61,2.61,0,0,0-1-1A2.88,2.88,0,0,0,591.08,40.49ZM589.64,45V41.51h1.21a2.8,2.8,0,0,1,.9.1.82.82,0,0,1,.44.34.89.89,0,0,1,.17.51,1,1,0,0,1-.28.67,1.13,1.13,0,0,1-.73.33,1.09,1.09,0,0,1,.3.18,4.33,4.33,0,0,1,.52.7l.43.69h-.69l-.32-.56a2.85,2.85,0,0,0-.59-.82.74.74,0,0,0-.46-.12h-.33V45Zm.57-2h.69a1.08,1.08,0,0,0,.67-.15.48.48,0,0,0,.18-.39.54.54,0,0,0-.08-.28.55.55,0,0,0-.24-.18,1.54,1.54,0,0,0-.57-.07h-.65Z"/><path class="cls-8" d="M318,42.69l-13.63,58.78a177.65,177.65,0,0,0-2.86,20h-1.28l-22.37-83-51.43-5.29a16.67,16.67,0,0,1,.39,3.59c0,6.57-3.75,11.89-8.38,11.89a5.81,5.81,0,0,1-.72,0l-17.06,150,55.71-3.26,3.75-66.94c.36-6.28.5-12.78.66-19.09h1.8A117.3,117.3,0,0,0,266.69,129l21.08,64.41,28.91-1.7L333.79,126a133.8,133.8,0,0,0,2.72-14.48h.84l8,78.56,41.54-2.43-21.54-140Z"/><polygon class="cls-8" points="431.07 137.27 458.65 137.27 458.65 104.47 430.86 103.28 430.78 90.69 461.17 92.5 461.17 57.5 390.66 50.19 392.52 187.31 462.21 183.23 462.21 149.5 431.14 149.97 431.07 137.27"/><path class="cls-8" d="M513.59,111.8l-.26,27.65h13.29a12.51,12.51,0,0,1-12,10.17c-9.8.16-15.56-12-15.48-25.12.1-14.47,6.32-27.54,17.19-26.93,4.77.26,8.91,3.54,11.07,9.54l26.31-12.8c-5.54-19.77-24-31.57-38.12-33.08-27.11-2.87-49.27,19.78-49.27,60.85,0,20,5.68,35.55,14.68,45.83A40,40,0,0,0,514.2,182c12.42-.76,25.13-8.42,33.3-21.49,8.91-14.1,9.18-29.1,9.69-47.1Z"/><path class="cls-8" d="M607,72.61l-26.54-2.75-26.73,108,26.89-1.58,2.27-13.08,17.86-.7L602.51,175l23.24-1.3Zm-19.21,65.72,5.15-31.87h.86c.33,4.47.64,9.07,1.22,13.52l2.29,18.31Z"/><path class="cls-3" d="M257.5,80.44a4,4,0,0,0-4-1.5c-12.62-2.4-19.74-5.59-21.17-9.49s1.71-10.3,9.48-19.92a4,4,0,0,0,1.42-2l.1-.32a4,4,0,0,0-6.12-4.5c-12.5,2.94-20.3,2.92-23.2-.06s-2.62-10.11.56-22.06a4,4,0,0,0,.49-2.37l0-.33a4,4,0,0,0-7.42-1.63c-10.23,7.77-17.36,10.93-21.22,9.38S179.9,17.5,178,5.3a4.12,4.12,0,0,0-.51-2.37l-.17-.29a4,4,0,0,0-7.45,1.53c-6.18,11.26-11.41,17-15.56,17.2s-9.27-4.81-16-15.17a4,4,0,0,0-1.43-2l-.28-.2a4,4,0,0,0-6.17,4.43c-1.07,12.81-3.5,20.22-7.22,22s-10.43-.63-20.81-7.35a4,4,0,0,0-2.1-1.2l-.33-.07a4,4,0,0,0-3.84,6.56c4.23,12.13,5,19.89,2.37,23.07s-9.79,3.67-22,1.76A4,4,0,0,0,74,53l-.33.07a4,4,0,0,0-.84,7.56C81.65,70,85.53,76.79,84.4,80.78S77,88.12,65,91.33a4,4,0,0,0-2.3.76l-.27.2a4,4,0,0,0,2.3,7.24c11.84,5,18.14,9.57,18.73,13.68s-3.82,9.72-13.41,17.52a4,4,0,0,0-1.8,1.63l-.17.29a4,4,0,0,0,5.05,5.68c12.84-.28,20.47,1.36,22.68,4.87s.47,10.44-5.13,21.46a4.08,4.08,0,0,0-1,2.38,4,4,0,0,0,6.9,3.31c11.62-5.47,19.26-7.08,22.71-4.77s4.67,9.35,4,21.69a3.92,3.92,0,0,0,0,2.42l.1.33a4,4,0,0,0,7.6,0c8.39-9.73,14.71-14.31,18.8-13.59s8.07,6.63,12.52,18.17a4,4,0,0,0,1,2.21l.23.25a4,4,0,0,0,7-3.05c3.7-12.3,7.62-19.05,11.64-20.06s10.08,2.78,18.83,11.51a3.94,3.94,0,0,0,1.81,1.61l.31.14a4,4,0,0,0,5.12-5.61c-1.62-12.75-.79-20.51,2.47-23.07s10.34-1.56,21.88,2.86a4,4,0,0,0,2.31.74h.35a4,4,0,0,0,2.38-7.21c-6.66-11-9-18.41-7.11-22.08s8.8-5.63,21.15-6.29a4,4,0,0,0,2.4-.26l.31-.14a4,4,0,0,0-.74-7.56c-10.56-7.33-15.76-13.14-15.49-17.28S244,92.64,255,87a4,4,0,0,0,2.1-1.23l.22-.25A4,4,0,0,0,257.5,80.44Zm-3.41,2.67-.2,0c-25.18,12.68-26.78,22.27-1.56,39.49l.48,0-.31.14-.17-.11c-28.16,1.34-33.52,9.45-17.48,35.44l.44.17H235l-.1-.17c-26.28-10.23-34.47-5-30.39,25.27l.33.33-.31-.14c0-.06,0-.13,0-.19-19.85-20-29.46-18.59-38,10.72.05.15.11.29.17.44l-.23-.25.06-.19c-10-26.37-19.35-29-39.12-5.68,0,.16,0,.31,0,.47l-.11-.32.13-.15c1.61-28.15-5.89-34.33-33.42-21.09-.07.14-.14.27-.21.42l0-.34.18-.08c12.92-25.07,8.58-33.77-21.95-32.87l-.37.3.17-.3h.2c22-17.65,21.57-27.35-6.69-39l-.45.12.27-.2.18.08C92.52,88.23,96.07,79.19,75,57.1L74.51,57l.33-.07.14.14c27.83,4.54,34.76-2.27,24.47-31l-.39-.26.33.07.06.19c23.58,15.47,32.68,12.06,35-18.4l-.25-.39.27.2c0,.06,0,.13,0,.19C149.68,31.39,159.38,32,173.87,5.09c0-.15-.05-.3-.07-.46l.17.29-.1.17C178.16,33,186.77,37.45,211,18.78l.12-.46,0,.34-.16.12c-7.42,27.21-1.37,34.81,28.3,27.58.11-.12.2-.24.3-.36l-.1.32-.2,0C221.41,68.2,223.84,77.6,253.89,83.08l.42-.22Z"/><path class="cls-9" d="M93.67,167.65c13.21-25.46,9-34.23-21.94-33.29l-.17.3C94,116.78,93.66,107,65.06,95.33l-.27.2c27.76-7.21,31.42-16.25,10-38.57l-.33.07c28.29,4.7,35.32-2.06,24.88-31.15l-.33-.07C123,41.62,132.16,38.29,134.45,7.48l-.27-.2C149.61,31.45,159.34,32.14,174,4.92l-.17-.29c4.27,28.36,12.87,32.95,37.31,14l0-.34c-7.63,27.65-1.64,35.34,28.38,28l.1-.32c-18.22,22.14-15.87,31.61,14.54,37.11l.22-.25c-25.65,12.82-27.36,22.43-1.81,39.82l.31-.14c-28.65,1.28-34.12,9.36-17.86,35.64h.34c-26.69-10.48-35-5.33-30.81,25.29l.31.14c-20.12-20.43-29.78-19.09-38.43,10.58l.23.25c-10.08-26.85-19.45-29.56-39.42-6l.11.32c1.72-28.62-5.74-34.91-33.58-21.48"/><path class="cls-10" d="M93.67,167.65c13.21-25.46,9-34.23-21.94-33.29l-.17.3C94,116.78,93.66,107,65.06,95.33l-.27.2c27.76-7.21,31.42-16.25,10-38.57l-.33.07c28.29,4.7,35.32-2.06,24.88-31.15l-.33-.07C123,41.62,132.16,38.29,134.45,7.48l-.27-.2C149.61,31.45,159.34,32.14,174,4.92l-.17-.29c4.27,28.36,12.87,32.95,37.31,14l0-.34c-7.63,27.65-1.64,35.34,28.38,28l.1-.32c-18.22,22.14-15.87,31.61,14.54,37.11l.22-.25c-25.65,12.82-27.36,22.43-1.81,39.82l.31-.14c-28.65,1.28-34.12,9.36-17.86,35.64h.34c-26.69-10.48-35-5.33-30.81,25.29l.31.14c-20.12-20.43-29.78-19.09-38.43,10.58l.23.25c-10.08-26.85-19.45-29.56-39.42-6l.11.32c1.72-28.62-5.74-34.91-33.58-21.48"/><circle class="cls-11" cx="159.55" cy="99.53" r="63.62"/><circle class="cls-12" cx="159.55" cy="99.53" r="63.62"/><ellipse class="cls-13" cx="156.19" cy="60.94" rx="34.45" ry="17.77"/><path class="cls-14" d="M135.67,139.18l-18.62-87a64.23,64.23,0,0,0-11.44,13.58c13.39,17.35,24.72,44.28,25.06,82,0,0,36.48-19.43,80.43-11.05a63.65,63.65,0,0,0,7.12-12.66Z"/><polygon class="cls-15" points="115.02 42.66 118.49 35.73 160.81 28 173.09 83.97 226.18 74.37 234.92 114.45 231.52 121.67 135.68 139.22 115.02 42.66"/><polygon class="cls-16" points="159.09 32.01 160.73 28 118.34 35.74 123.78 38.32 159.09 32.01"/><polygon class="cls-17" points="123.78 38.32 118.34 35.74 139.14 132.51 143.04 126.78 123.78 38.32"/><polygon class="cls-18" points="230.69 110.85 143.04 126.78 139.14 132.51 234.92 114.84 230.69 110.85"/><polygon class="cls-19" points="226.1 74.37 223.51 77.87 230.69 110.85 234.92 114.84 226.1 74.37"/><polygon class="cls-20" points="160.73 28 159.09 32.01 170.63 87.23 173.01 83.97 160.73 28"/><polygon class="cls-21" points="173.01 83.97 170.63 87.23 170.78 87.21 223.51 77.87 226.1 74.37 173.01 83.97"/><polygon class="cls-22" points="143.04 126.78 230.69 110.85 223.51 77.87 170.63 87.23 159.09 32.01 123.78 38.32 143.04 126.78"/><path class="cls-23" d="M166.05,74.11,157.12,33l-32.61,6,11.11,50C140.53,83.19,151.22,73.34,166.05,74.11Z"/><path class="cls-24" d="M223.22,80l-.05-.31-52.53,9.41C172.26,93.22,220.64,86,223.22,80Z"/><path class="cls-25" d="M144,125.65l84.93-15.28C227.91,105.71,142.61,118.35,144,125.65Z"/><path class="cls-26" d="M157.12,33.16l-32.61,6C124.9,43.64,159.09,37.78,157.12,33.16Z"/><path class="cls-27" d="M219.9,34.48a3.41,3.41,0,0,1,1.61.43,3,3,0,0,1,1.22,1.21,3.33,3.33,0,0,1,.44,1.64,3.42,3.42,0,0,1-.43,1.63,3.13,3.13,0,0,1-1.21,1.21,3.3,3.3,0,0,1-3.26,0,3,3,0,0,1-1.21-1.21,3.26,3.26,0,0,1,0-3.27,3,3,0,0,1,1.23-1.21A3.38,3.38,0,0,1,219.9,34.48Zm0,.55a2.89,2.89,0,0,0-1.35.35,2.61,2.61,0,0,0-1,1,2.85,2.85,0,0,0-.37,1.37,2.74,2.74,0,0,0,.37,1.35,2.61,2.61,0,0,0,1,1,2.77,2.77,0,0,0,1.36.36,2.73,2.73,0,0,0,1.35-.36,2.54,2.54,0,0,0,1-1,2.73,2.73,0,0,0,.36-1.35,2.83,2.83,0,0,0-.36-1.37,2.61,2.61,0,0,0-1-1A2.88,2.88,0,0,0,219.9,35Zm-1.44,4.54V36.05h1.21a3.25,3.25,0,0,1,.9.09.93.93,0,0,1,.44.34.91.91,0,0,1-.11,1.19,1.08,1.08,0,0,1-.73.32,1.41,1.41,0,0,1,.3.19,4.33,4.33,0,0,1,.52.7l.43.69h-.7l-.31-.56a2.85,2.85,0,0,0-.59-.82.76.76,0,0,0-.46-.12H219v1.5Zm.57-2h.69a1.08,1.08,0,0,0,.67-.15.48.48,0,0,0,.18-.39.51.51,0,0,0-.08-.28.57.57,0,0,0-.24-.19,1.87,1.87,0,0,0-.57-.06H219Z"/><path class="cls-5" d="M625.2,227.4a4,4,0,0,1,1.94.51,3.67,3.67,0,0,1,1.48,1.47,4,4,0,0,1,.53,2,4.08,4.08,0,0,1-.52,2,3.66,3.66,0,0,1-1.46,1.46,4,4,0,0,1-3.94,0,3.66,3.66,0,0,1-1.46-1.46,4,4,0,0,1-.52-2,3.92,3.92,0,0,1,.53-2,3.67,3.67,0,0,1,1.48-1.47A4,4,0,0,1,625.2,227.4Zm0,.66a3.37,3.37,0,0,0-1.62.42,3,3,0,0,0-1.23,1.23,3.25,3.25,0,0,0-.45,1.65,3.3,3.3,0,0,0,.44,1.63,3.11,3.11,0,0,0,1.22,1.22,3.28,3.28,0,0,0,3.28,0,3.11,3.11,0,0,0,1.22-1.22,3.29,3.29,0,0,0,.43-1.63,3.34,3.34,0,0,0-.44-1.65,3.1,3.1,0,0,0-1.23-1.23A3.43,3.43,0,0,0,625.2,228.06Zm-1.73,5.48v-4.25h1.46a3.46,3.46,0,0,1,1.08.12,1.12,1.12,0,0,1,.73,1,1.13,1.13,0,0,1-.33.81,1.31,1.31,0,0,1-.88.39,1.23,1.23,0,0,1,.36.22,5,5,0,0,1,.63.85l.52.83h-.84l-.38-.67a3.27,3.27,0,0,0-.71-1,.88.88,0,0,0-.55-.15h-.41v1.81Zm.68-2.39H625a1.36,1.36,0,0,0,.82-.18.6.6,0,0,0,.22-.47.58.58,0,0,0-.11-.34.59.59,0,0,0-.29-.22,2,2,0,0,0-.69-.08h-.78Z"/></g></g></svg>