<svg width="813" height="382" viewBox="0 0 813 382" fill="none" xmlns="http://www.w3.org/2000/svg">
<path d="M490.69 109.51L486.84 114.72L497.51 163.69L503.79 169.62L490.69 109.51Z" fill="url(#paint0_linear_26_19)"/>
<path d="M550.783 118.607C550.109 117.718 549.198 117.039 548.156 116.646C547.114 116.253 545.982 116.162 544.89 116.385C526.163 112.811 515.606 108.067 513.508 102.282C511.441 96.6572 516.045 86.9586 527.571 72.666C528.554 71.9271 529.286 70.9033 529.669 69.7334L529.829 69.253C530.215 68.0639 530.217 66.783 529.835 65.5924C529.453 64.4019 528.706 63.3625 527.7 62.6219C526.695 61.8814 525.482 61.4775 524.234 61.4676C522.986 61.4578 521.767 61.8425 520.75 62.5671C502.192 66.931 490.626 66.911 486.331 62.4871C482.036 58.0632 482.436 47.4738 487.16 29.6981C487.757 28.6261 488.011 27.3965 487.889 26.175L487.839 25.6646C487.705 24.4267 487.185 23.2624 486.355 22.336C485.525 21.4095 484.425 20.7678 483.211 20.5013C481.997 20.2348 480.73 20.357 479.59 20.8506C478.449 21.3442 477.491 22.1844 476.852 23.2525C461.641 34.8026 451.054 39.4968 445.34 37.2048C439.787 34.9728 435.682 25.054 432.786 6.90805C432.896 5.68682 432.632 4.46085 432.027 3.39495L431.777 2.97458C431.152 1.89174 430.203 1.03351 429.064 0.521602C427.925 0.00969735 426.655 -0.129886 425.432 0.122649C424.21 0.375185 423.098 1.00702 422.254 1.92853C421.41 2.85004 420.877 4.01445 420.73 5.25659C411.561 21.9913 403.801 30.5789 397.648 30.8091C391.655 31.0093 383.895 23.6528 373.887 8.25924C373.492 7.09274 372.75 6.07595 371.759 5.34667L371.35 5.0464C370.341 4.30771 369.125 3.90712 367.875 3.90177C366.626 3.89642 365.406 4.28657 364.391 5.0166C363.376 5.74663 362.616 6.77925 362.221 7.96721C361.826 9.15517 361.816 10.4378 362.191 11.6322C360.613 30.649 357.007 41.6587 351.484 44.4111C346.12 47.0434 336.012 43.4703 320.621 33.4815C319.788 32.5778 318.696 31.9553 317.495 31.6999L317.005 31.5898C315.784 31.3267 314.511 31.4567 313.367 31.9612C312.224 32.4657 311.269 33.319 310.638 34.3995C310.007 35.4799 309.732 36.7324 309.854 37.9783C309.975 39.2243 310.485 40.4002 311.312 41.3384C317.585 59.3543 318.773 70.9045 314.828 75.6387C310.883 80.3728 300.315 81.1035 282.197 78.251C281.075 77.7622 279.829 77.6362 278.631 77.8906L278.132 77.9907C276.908 78.2466 275.796 78.8835 274.955 79.8105C274.113 80.7375 273.586 81.9071 273.447 83.1524C273.309 84.3977 273.567 85.6549 274.184 86.7447C274.801 87.8345 275.746 88.701 276.884 89.2206C289.938 103.133 295.701 113.242 294.023 119.117C292.385 124.882 282.976 130.017 265.268 134.801C264.044 134.812 262.854 135.204 261.862 135.922L261.452 136.222C260.442 136.956 259.687 137.99 259.297 139.178C258.907 140.366 258.901 141.647 259.279 142.839C259.658 144.031 260.401 145.073 261.405 145.816C262.408 146.56 263.62 146.968 264.868 146.982C282.437 154.378 291.786 161.214 292.665 167.32C293.514 173.245 286.991 181.772 272.759 193.342C271.642 193.851 270.713 194.699 270.102 195.765L269.842 196.195C269.217 197.279 268.948 198.533 269.075 199.779C269.202 201.024 269.717 202.198 270.548 203.134C271.378 204.069 272.482 204.718 273.702 204.989C274.922 205.26 276.196 205.139 277.343 204.642C296.39 204.222 307.706 206.644 310.982 211.889C314.159 216.953 311.672 227.402 303.372 243.787C302.252 244.952 301.641 246.515 301.672 248.132C301.703 249.749 302.374 251.288 303.536 252.41C304.699 253.531 306.259 254.144 307.873 254.113C309.487 254.082 311.022 253.41 312.141 252.244C329.37 244.107 340.697 241.715 345.81 245.148C350.804 248.491 352.742 259.04 351.803 277.397C351.437 278.566 351.437 279.82 351.803 280.99L351.953 281.47C352.334 282.664 353.081 283.707 354.089 284.449C355.096 285.192 356.312 285.597 357.562 285.605C358.813 285.614 360.034 285.227 361.052 284.499C362.07 283.77 362.832 282.738 363.229 281.55C375.674 267.077 385.053 260.281 391.116 261.342C397.009 262.343 403.101 271.211 409.683 288.366C409.827 289.585 410.339 290.731 411.152 291.649L411.491 292.019C412.324 292.952 413.43 293.598 414.65 293.864C415.871 294.13 417.144 294.004 418.289 293.502C419.433 293.001 420.391 292.15 421.024 291.072C421.658 289.993 421.936 288.742 421.819 287.495C427.312 269.209 433.125 259.181 439.098 257.669C444.891 256.208 454.08 261.803 467.064 274.784C467.689 275.843 468.629 276.679 469.751 277.176L470.21 277.387C471.35 277.898 472.622 278.035 473.844 277.78C475.067 277.525 476.178 276.889 477.019 275.964C477.86 275.039 478.388 273.872 478.529 272.629C478.669 271.385 478.415 270.129 477.801 269.039C475.404 250.092 476.643 238.562 481.477 234.749C486.311 230.936 496.808 232.437 513.938 239.003C514.934 239.718 516.128 240.103 517.354 240.104H517.873C519.121 240.104 520.337 239.71 521.348 238.977C522.359 238.245 523.115 237.211 523.506 236.024C523.898 234.837 523.906 233.556 523.529 232.364C523.153 231.172 522.411 230.129 521.409 229.384C511.531 213.05 507.975 202.02 510.851 196.565C513.728 191.11 523.916 188.198 542.224 187.217C543.427 187.457 544.675 187.321 545.799 186.827L546.259 186.617C547.401 186.11 548.355 185.256 548.984 184.174C549.613 183.093 549.886 181.84 549.763 180.595C549.64 179.349 549.128 178.174 548.3 177.237C547.472 176.3 546.369 175.649 545.15 175.377C529.499 164.487 521.768 155.849 522.178 149.704C522.577 143.699 530.718 136.692 547.038 128.375C548.241 128.109 549.331 127.472 550.154 126.554L550.484 126.183C551.406 125.153 551.941 123.832 551.995 122.449C552.05 121.066 551.621 119.707 550.783 118.607ZM545.729 122.61H545.44C508.085 141.467 505.708 155.709 543.133 181.312H543.832L543.362 181.522L543.133 181.352C501.343 183.354 493.393 195.364 517.164 234.038L517.823 234.289H517.324C517.264 234.198 517.224 234.118 517.164 234.038C478.211 218.835 466.036 226.602 472.088 271.591L472.588 272.092L472.128 271.882C472.123 271.785 472.123 271.688 472.128 271.591C442.684 241.815 428.431 243.957 415.696 287.536L415.956 288.186L415.616 287.806C415.648 287.717 415.674 287.627 415.696 287.536C400.884 248.331 387.001 244.498 357.686 279.088C357.686 279.328 357.686 279.548 357.686 279.789L357.526 279.308L357.726 279.088C360.103 237.241 348.977 228.043 308.146 247.73L307.826 248.361L307.886 247.861L308.146 247.73C327.303 210.468 320.871 197.546 275.585 198.877L275.036 199.318L275.296 198.887H275.585C308.216 172.654 307.547 158.231 265.667 140.986L264.988 141.166L265.397 140.876L265.667 140.986C306.118 130.327 311.392 116.885 280.11 84.0461L279.411 83.936L279.91 83.8359L280.11 84.0461C321.39 90.792 331.668 80.6731 316.406 37.9154L315.747 37.4049L316.246 37.515L316.336 37.7853C351.294 60.8056 364.818 55.7211 368.273 10.4412C368.154 10.241 368.024 10.0608 367.894 9.85064L368.303 10.1509V10.4412C390.926 45.7023 405.319 46.583 426.813 6.60778C426.813 6.37758 426.733 6.15738 426.703 5.91717L426.953 6.35756L426.813 6.60778C433.095 48.0143 445.88 54.7102 481.737 26.9958L481.916 26.3152L481.966 26.8156L481.737 26.9958C470.75 67.4314 479.739 78.7314 523.686 68.0319L524.125 67.4815L523.966 67.9619L523.686 68.0319C497.208 100.481 500.824 114.463 545.4 122.6L546.019 122.28L545.729 122.61Z" fill="white"/>
<path d="M307.757 248.241C327.363 210.408 321.041 197.366 275.226 198.767L274.966 199.198C308.236 172.634 307.757 158.161 265.328 140.746L264.918 141.036C306.089 130.327 311.532 116.885 279.84 83.7058L279.341 83.8059C321.29 90.812 331.738 80.7432 316.246 37.515L315.747 37.4049C351.254 60.8957 364.858 55.9613 368.254 10.1509L367.844 9.85064C390.737 45.7823 405.169 46.8232 426.873 6.35756L426.613 5.91717C432.936 48.0743 445.71 54.9004 481.947 26.7756L481.897 26.2751C470.56 67.3714 479.48 78.8115 524.006 67.8918L524.166 67.4114C497.138 100.33 500.614 114.453 545.73 122.58L546.059 122.21C508.015 141.226 505.478 155.549 543.363 181.402L543.832 181.192C501.333 183.133 493.213 195.144 517.344 234.178H517.843C478.251 218.595 465.966 226.261 472.148 271.772L472.608 271.982C442.754 241.605 428.421 243.597 415.597 287.696L415.936 288.076C400.994 248.191 387.091 244.187 357.467 279.218L357.626 279.699C360.183 237.151 349.107 227.813 307.826 247.77" fill="url(#paint1_radial_26_19)"/>
<path d="M307.757 248.241C327.363 210.408 321.041 197.366 275.226 198.767L274.966 199.198C308.236 172.634 307.757 158.161 265.328 140.746L264.918 141.036C306.089 130.327 311.532 116.885 279.84 83.7058L279.341 83.8059C321.29 90.812 331.738 80.7432 316.246 37.515L315.747 37.4049C351.254 60.8957 364.858 55.9613 368.254 10.1509L367.844 9.85064C390.737 45.7823 405.169 46.8232 426.873 6.35756L426.613 5.91717C432.936 48.0743 445.71 54.9004 481.947 26.7756L481.897 26.2751C470.56 67.3714 479.48 78.8115 524.006 67.8918L524.166 67.4114C497.138 100.33 500.614 114.453 545.73 122.58L546.059 122.21C508.015 141.226 505.478 155.549 543.363 181.402L543.832 181.192C501.333 183.133 493.213 195.144 517.344 234.178H517.843C478.251 218.595 465.966 226.261 472.148 271.772L472.608 271.982C442.754 241.605 428.421 243.597 415.597 287.696L415.936 288.076C400.994 248.191 387.091 244.187 357.467 279.218L357.626 279.699C360.183 237.151 349.107 227.813 307.826 247.77" fill="url(#paint2_radial_26_19)"/>
<path d="M405.499 241.555C457.616 241.555 499.865 199.217 499.865 146.992C499.865 94.7656 457.616 52.4282 405.499 52.4282C353.382 52.4282 311.133 94.7656 311.133 146.992C311.133 199.217 353.382 241.555 405.499 241.555Z" fill="url(#paint3_linear_26_19)"/>
<path d="M405.499 241.555C457.616 241.555 499.865 199.217 499.865 146.992C499.865 94.7656 457.616 52.4282 405.499 52.4282C353.382 52.4282 311.133 94.7656 311.133 146.992C311.133 199.217 353.382 241.555 405.499 241.555Z" fill="url(#paint4_radial_26_19)"/>
<path d="M400.515 116.034C428.741 116.034 451.623 104.209 451.623 89.621C451.623 75.0333 428.741 63.2077 400.515 63.2077C372.288 63.2077 349.406 75.0333 349.406 89.621C349.406 104.209 372.288 116.034 400.515 116.034Z" fill="url(#paint5_linear_26_19)"/>
<path d="M370.061 205.934L342.455 76.5995C335.883 82.499 330.168 89.2907 325.475 96.7773C345.331 122.56 362.141 162.595 362.65 218.705C362.65 218.705 416.755 189.829 481.956 202.28C486.188 196.43 489.737 190.114 492.534 183.454L370.061 205.934Z" fill="url(#paint6_linear_26_19)"/>
<path d="M339.448 62.447L344.592 52.1479L407.366 40.6578L425.584 123.861L504.329 109.579L517.294 169.171L512.26 179.901L370.091 205.994L339.448 62.447Z" fill="#0077A3"/>
<path d="M404.819 46.6231L407.256 40.6578L344.362 52.168L352.433 56.0013L404.819 46.6231Z" fill="url(#paint7_linear_26_19)"/>
<path d="M352.433 56.0013L344.362 52.168L375.215 196.005L380.998 187.487L352.433 56.0013Z" fill="url(#paint8_linear_26_19)"/>
<path d="M511.021 163.806L380.998 187.487L375.215 196.005L517.294 169.742L511.021 163.806Z" fill="url(#paint9_linear_26_19)"/>
<path d="M407.257 40.6578L404.82 46.6231L421.939 128.715L425.465 123.861L407.257 40.6578Z" fill="url(#paint10_linear_26_19)"/>
<path d="M425.465 123.861L421.939 128.715L422.159 128.675L500.365 114.793L504.21 109.579L425.465 123.861Z" fill="url(#paint11_linear_26_19)"/>
<path d="M380.998 187.487L511.021 163.806L500.364 114.793L421.939 128.715L404.819 46.6231L352.433 56.0013L380.998 187.487Z" fill="#00BCF2"/>
<path d="M415.137 109.198L401.893 48.0143L353.521 56.8721L369.991 131.138C377.283 122.69 393.143 108.067 415.137 109.198Z" fill="url(#paint12_linear_26_19)"/>
<path d="M499.945 117.986L499.855 117.526L421.949 131.538C424.356 137.613 496.11 126.894 499.945 117.986Z" fill="url(#paint13_linear_26_19)"/>
<path d="M382.407 185.806L508.405 163.116C506.897 156.18 380.369 174.966 382.407 185.806Z" fill="#59D0F6"/>
<path d="M401.893 48.3246L353.521 57.1824C354.091 63.9083 404.819 55.2006 401.893 48.3246Z" fill="url(#paint14_linear_26_19)"/>
<g clip-path="url(#clip0_26_19)">
<path d="M793.329 344.048H664.378V380.62H793.329V344.048Z" fill="white"/>
<path d="M476.555 343.183V382H794.642V343.183H476.555ZM791.641 379.145H669.466V346.154H791.641V379.145Z" fill="#101820"/>
<path fill-rule="evenodd" clip-rule="evenodd" d="M485.652 348.728H500.611C503.262 348.519 505.89 349.36 507.926 351.068C508.748 351.943 509.378 352.979 509.778 354.11C510.445 355.874 510.596 357.792 510.214 359.639C509.832 361.486 508.933 363.188 507.621 364.545C505.332 366.372 502.431 367.259 499.509 367.025H494.702V377.835H485.559V348.728H485.652ZM494.679 361.129H496.883C498.17 361.244 499.459 360.923 500.54 360.216C500.883 359.931 501.156 359.571 501.337 359.164C501.506 358.755 501.594 358.318 501.595 357.877C501.599 357.444 501.52 357.015 501.361 356.613C501.194 356.22 500.964 355.857 500.681 355.537C499.71 354.781 498.481 354.436 497.258 354.577H494.702V361.129H494.679Z" fill="white"/>
<path fill-rule="evenodd" clip-rule="evenodd" d="M516.811 362.369C516.593 360.343 516.841 358.294 517.538 356.379C518.216 354.469 519.314 352.734 520.75 351.302C522.178 349.853 523.918 348.749 525.838 348.073C527.758 347.381 529.808 347.126 531.84 347.324C533.876 347.184 535.919 347.463 537.842 348.143C540.701 349.153 543.147 351.076 544.8 353.614C546.453 356.153 547.222 359.164 546.986 362.182C547.079 365.062 546.493 367.923 545.274 370.535C544.144 372.671 542.418 374.435 540.304 375.612C537.809 376.902 535.023 377.53 532.215 377.437C529.412 377.53 526.624 376.994 524.056 375.87C521.854 374.769 520.027 373.043 518.804 370.909C517.383 368.31 516.694 365.375 516.811 362.416V362.369ZM525.814 362.369C525.607 364.601 526.187 366.836 527.456 368.687C527.997 369.325 528.679 369.83 529.449 370.161C530.224 370.494 531.066 370.646 531.91 370.605C532.713 370.629 533.511 370.486 534.255 370.184C535.034 369.857 535.73 369.361 536.295 368.733C537.569 366.72 538.137 364.342 537.912 361.971C538.077 359.835 537.488 357.708 536.248 355.958C535.684 355.33 534.987 354.835 534.208 354.507C533.468 354.191 532.668 354.039 531.863 354.063C531.058 354.055 530.259 354.214 529.519 354.531C528.763 354.863 528.096 355.368 527.573 356.005C526.294 357.868 525.713 360.121 525.932 362.369H525.814Z" fill="white"/>
<path fill-rule="evenodd" clip-rule="evenodd" d="M552.895 348.471H561.429L564.5 364.709L568.908 348.471H577.442L581.944 364.709L585.015 348.471H593.526L587.195 377.531H578.286L573.175 359.234L568.087 377.531H559.272L552.895 348.471Z" fill="white"/>
<path fill-rule="evenodd" clip-rule="evenodd" d="M601.731 348.471H625.857V354.694H610.758V359.374H624.825V365.224H610.758V371.073H626.302V377.671H601.731V348.471Z" fill="white"/>
<path fill-rule="evenodd" clip-rule="evenodd" d="M634.204 377.554V348.471H649.185C651.336 348.384 653.487 348.628 655.563 349.196C657.02 349.641 658.279 350.575 659.126 351.84C660.05 353.223 660.525 354.857 660.486 356.52C660.536 357.929 660.203 359.326 659.522 360.562C658.841 361.797 657.837 362.826 656.618 363.539C655.628 364.082 654.561 364.469 653.452 364.685C655.001 365.028 656.356 365.96 657.227 367.283C657.697 367.849 658.12 368.451 658.493 369.084L662.854 377.531H652.796L648.107 368.64C647.731 367.753 647.172 366.956 646.466 366.3C645.817 365.857 645.048 365.62 644.262 365.621H643.465V377.32L634.204 377.554ZM643.23 360.24H647.099C647.889 360.174 648.672 360.049 649.443 359.865C650.021 359.743 650.536 359.42 650.897 358.953C651.265 358.46 651.463 357.86 651.46 357.245C651.483 356.844 651.411 356.443 651.249 356.075C651.111 355.694 650.877 355.356 650.569 355.092C649.529 354.461 648.307 354.197 647.099 354.344H643.136V360.24H643.23Z" fill="white"/>
<path fill-rule="evenodd" clip-rule="evenodd" d="M681.446 351.583V362.58H686.136C688.201 362.728 690.265 362.264 692.067 361.246C692.711 360.774 693.223 360.146 693.556 359.421C693.888 358.697 694.029 357.899 693.966 357.105C694.043 356.293 693.907 355.475 693.569 354.732C693.232 353.989 692.706 353.347 692.044 352.869C690.162 351.837 688.019 351.374 685.878 351.536L681.446 351.583ZM678.188 348.728H685.221C686.835 348.708 688.448 348.794 690.051 348.985C691.134 349.167 692.184 349.506 693.169 349.992C694.523 350.69 695.677 351.72 696.522 352.986C697.258 354.199 697.64 355.593 697.624 357.011C697.662 358.432 697.311 359.837 696.609 361.074C695.907 362.311 694.879 363.333 693.638 364.03C692.661 364.576 691.599 364.956 690.496 365.153C688.947 365.411 687.378 365.528 685.807 365.504H681.446V377.578H678.188V348.728Z" fill="#101820"/>
<path fill-rule="evenodd" clip-rule="evenodd" d="M718.959 377.133H703.954V348.26H707.236V374.466H718.959V377.133Z" fill="#101820"/>
<path fill-rule="evenodd" clip-rule="evenodd" d="M727.517 376.806H724.07L736.942 347.932H740.881L753.612 376.806H750.259L746.297 367.727H731.503L727.47 376.806H727.517ZM745.078 365.107L738.794 350.623L732.511 365.107H745.078Z" fill="#101820"/>
<path fill-rule="evenodd" clip-rule="evenodd" d="M772.181 367.049V377.671H769.016V367.025L758.395 348.728H762.123L770.54 363.726L779.097 348.728H782.708L772.181 367.049Z" fill="#101820"/>
<path d="M733.848 206.538C750.015 206.538 765.52 212.948 776.952 224.356C788.384 235.765 794.806 251.239 794.806 267.373C794.806 275.362 793.23 283.273 790.166 290.654C787.103 298.034 782.612 304.741 776.952 310.39C771.291 316.039 764.571 320.52 757.176 323.577C749.78 326.634 741.853 328.208 733.848 328.208C717.681 328.208 702.175 321.799 690.744 310.39C679.312 298.981 672.889 283.507 672.889 267.373C672.889 251.239 679.312 235.765 690.744 224.356C702.175 212.948 717.681 206.538 733.848 206.538Z" fill="url(#paint15_radial_26_19)"/>
<path d="M733.848 207.71C749.457 207.71 764.437 213.801 775.596 224.664L776.125 225.186C787.336 236.375 793.635 251.55 793.635 267.373C793.635 274.963 792.184 282.481 789.362 289.524L789.084 290.204C786.174 297.217 781.95 303.608 776.641 309.038L776.125 309.561C770.746 314.928 764.393 319.22 757.406 322.209L756.728 322.494C749.474 325.493 741.7 327.036 733.848 327.036C718.238 327.036 703.258 320.945 692.099 310.081L691.571 309.561C680.359 298.371 674.061 283.196 674.061 267.373L674.065 266.632C674.255 251.324 680.337 236.672 691.049 225.713L691.571 225.186C702.783 213.996 717.991 207.71 733.848 207.71Z" fill="url(#paint16_linear_26_19)" stroke="black" stroke-width="2.34294"/>
<path d="M599.411 206C615.578 206 631.083 212.409 642.515 223.818C653.947 235.227 660.369 250.7 660.369 266.835C660.369 282.969 653.947 298.443 642.515 309.852C631.083 321.26 615.578 327.67 599.411 327.67C583.244 327.67 567.738 321.26 556.306 309.852C544.875 298.443 538.452 282.969 538.452 266.835C538.452 250.7 544.875 235.227 556.306 223.818C567.738 212.409 583.244 206 599.411 206Z" fill="url(#paint17_radial_26_19)"/>
<path d="M599.411 206C615.578 206 631.083 212.409 642.515 223.818C653.947 235.227 660.369 250.7 660.369 266.835C660.369 282.969 653.947 298.443 642.515 309.852C631.083 321.26 615.578 327.67 599.411 327.67C583.244 327.67 567.738 321.26 556.306 309.852C544.875 298.443 538.452 282.969 538.452 266.835C538.452 250.7 544.875 235.227 556.306 223.818C567.738 212.409 583.244 206 599.411 206Z" fill="url(#paint18_linear_26_19)"/>
<path d="M465.067 206C481.234 206 496.74 212.409 508.171 223.818C519.603 235.227 526.026 250.7 526.026 266.835C526.026 282.969 519.603 298.443 508.171 309.852C496.74 321.26 481.234 327.67 465.067 327.67C448.9 327.67 433.395 321.26 421.963 309.852C410.531 298.443 404.109 282.969 404.109 266.835C404.109 250.7 410.531 235.227 421.963 223.818C433.395 212.409 448.9 206 465.067 206Z" fill="url(#paint19_radial_26_19)"/>
<path d="M465.067 206C481.234 206 496.74 212.409 508.171 223.818C519.603 235.227 526.026 250.7 526.026 266.835C526.026 282.969 519.603 298.443 508.171 309.852C496.74 321.26 481.234 327.67 465.067 327.67C448.9 327.67 433.395 321.26 421.963 309.852C410.531 298.443 404.109 282.969 404.109 266.835C404.109 250.7 410.531 235.227 421.963 223.818C433.395 212.409 448.9 206 465.067 206Z" fill="url(#paint20_linear_26_19)"/>
<path d="M330.583 206C346.751 206 362.256 212.409 373.688 223.818C385.12 235.227 391.542 250.7 391.542 266.835C391.542 282.969 385.12 298.443 373.688 309.852C362.256 321.26 346.751 327.67 330.583 327.67C314.416 327.67 298.911 321.26 287.479 309.852C276.047 298.443 269.625 282.969 269.625 266.835C269.625 250.7 276.047 235.227 287.479 223.818C298.911 212.409 314.416 206 330.583 206Z" fill="url(#paint21_radial_26_19)"/>
<path d="M330.583 206C346.751 206 362.256 212.409 373.688 223.818C385.12 235.227 391.542 250.7 391.542 266.835C391.542 282.969 385.12 298.443 373.688 309.852C362.256 321.26 346.751 327.67 330.583 327.67C314.416 327.67 298.911 321.26 287.479 309.852C276.047 298.443 269.625 282.969 269.625 266.835C269.625 250.7 276.047 235.227 287.479 223.818C298.911 212.409 314.416 206 330.583 206Z" fill="url(#paint22_linear_26_19)"/>
<path d="M195.536 206C211.704 206 227.209 212.409 238.641 223.818C250.073 235.227 256.495 250.7 256.495 266.835C256.495 282.969 250.073 298.443 238.641 309.852C227.209 321.26 211.704 327.67 195.536 327.67C187.531 327.67 179.604 326.096 172.209 323.039C164.813 319.982 158.093 315.501 152.432 309.852C141 298.443 134.578 282.969 134.578 266.835C134.578 250.7 141 235.227 152.432 223.818C163.864 212.409 179.369 206 195.536 206Z" fill="url(#paint23_radial_26_19)"/>
<path d="M195.536 206C211.704 206 227.209 212.409 238.641 223.818C250.073 235.227 256.495 250.7 256.495 266.835C256.495 282.969 250.073 298.443 238.641 309.852C227.209 321.26 211.704 327.67 195.536 327.67C187.531 327.67 179.604 326.096 172.209 323.039C164.813 319.982 158.093 315.501 152.432 309.852C141 298.443 134.578 282.969 134.578 266.835C134.578 250.7 141 235.227 152.432 223.818C163.864 212.409 179.369 206 195.536 206Z" fill="url(#paint24_linear_26_19)"/>
<path d="M60.9586 206C77.1258 206 92.6309 212.409 104.063 223.818C115.495 235.227 121.917 250.7 121.917 266.835C121.917 282.969 115.495 298.443 104.063 309.852C92.6309 321.26 77.1258 327.67 60.9586 327.67C44.7914 327.67 29.2863 321.26 17.8544 309.852C6.4224 298.443 0 282.969 0 266.835C0 250.7 6.4224 235.227 17.8544 223.818C29.2863 212.409 44.7914 206 60.9586 206Z" fill="url(#paint25_radial_26_19)"/>
<path d="M60.9586 206C77.1258 206 92.6309 212.409 104.063 223.818C115.495 235.227 121.917 250.7 121.917 266.835C121.917 282.969 115.495 298.443 104.063 309.852C92.6309 321.26 77.1258 327.67 60.9586 327.67C44.7914 327.67 29.2863 321.26 17.8544 309.852C6.4224 298.443 0 282.969 0 266.835C0 250.7 6.4224 235.227 17.8544 223.818C29.2863 212.409 44.7914 206 60.9586 206Z" fill="url(#paint26_linear_26_19)"/>
<path d="M795.345 315.152C795.816 314.072 796.493 313.095 797.338 312.274C798.186 311.456 799.18 310.805 800.269 310.355C801.404 309.908 802.613 309.678 803.833 309.677C805.022 309.659 806.202 309.882 807.303 310.332C808.412 310.78 809.424 311.44 810.28 312.274C811.151 313.113 811.841 314.121 812.309 315.235C812.777 316.349 813.012 317.547 813 318.755C812.995 320 812.748 321.231 812.273 322.382C811.804 323.483 811.127 324.483 810.28 325.33C809.447 326.148 808.459 326.793 807.373 327.225C805.117 328.136 802.595 328.136 800.339 327.225C799.248 326.79 798.253 326.146 797.409 325.33C796.542 324.509 795.863 323.511 795.416 322.405C794.935 321.26 794.688 320.031 794.688 318.79C794.688 317.549 794.935 316.32 795.416 315.175L795.345 315.152ZM796.846 321.867C797.225 322.74 797.766 323.534 798.44 324.207C799.103 324.911 799.9 325.476 800.785 325.868C801.737 326.259 802.757 326.458 803.786 326.453C804.8 326.458 805.805 326.259 806.74 325.868C807.618 325.464 808.413 324.901 809.085 324.207C809.744 323.522 810.283 322.731 810.679 321.867C811.051 320.872 811.241 319.818 811.242 318.755C811.243 317.708 811.053 316.669 810.679 315.69C810.283 314.826 809.744 314.035 809.085 313.35C808.418 312.639 807.622 312.059 806.74 311.642C805.825 311.234 804.835 311.019 803.833 311.01C802.802 311.013 801.782 311.22 800.832 311.619C799.943 311.994 799.144 312.552 798.487 313.257C797.813 313.929 797.272 314.723 796.893 315.596C796.17 317.624 796.17 319.839 796.893 321.867H796.846ZM804.395 313.444C805.401 313.377 806.4 313.649 807.232 314.216C807.555 314.509 807.805 314.873 807.964 315.279C808.122 315.685 808.185 316.122 808.147 316.556C808.182 316.948 808.117 317.342 807.959 317.702C807.831 318.07 807.614 318.399 807.326 318.662C806.749 319.107 806.059 319.382 805.333 319.457L808.381 324.137H806.529L803.622 319.457H801.84V324.137H800.175V313.444H804.395ZM803.669 318.123H804.724C805.03 318.101 805.331 318.03 805.615 317.913C805.864 317.795 806.081 317.618 806.248 317.398C806.407 317.095 806.488 316.757 806.482 316.415C806.505 316.137 806.439 315.859 806.295 315.62C806.17 315.379 805.973 315.183 805.732 315.058C805.498 314.935 805.244 314.856 804.982 314.824H801.84V318.311L803.669 318.123Z" fill="#101820"/>
<path d="M682.807 288.057C677.953 272.38 679.008 258.575 682.807 244.045C686.839 243.811 690.872 243.624 694.904 243.46C700.649 243.226 704.283 245.589 703.345 254.878C703.111 258.614 701.662 262.171 699.218 265.01C702.173 266.367 703.767 270.766 704.165 275.867C705.01 286.372 701.821 289.905 695.162 289.227C691.059 288.852 686.956 288.408 682.807 288.057ZM688.48 254.083C688.034 256.567 687.729 259.075 687.566 261.594H691.317C693.123 261.594 694.459 260.283 694.74 257.593C695.115 254.036 693.474 253.966 691.575 253.989L688.48 254.083ZM687.519 269.83C687.659 272.637 687.964 275.434 688.433 278.206L692.302 278.394C694.482 278.394 695.983 277.832 695.655 274.369C695.326 270.321 693.31 269.994 690.379 269.9L687.519 269.83Z" fill="white"/>
<path d="M705.924 288.408C706.135 273.574 711.363 258.505 717.436 243.296L728.174 243.156C731.058 258.341 736.286 273.574 739.709 288.852H729.158C728.619 286.84 728.08 284.828 727.564 282.816H716.568C716.357 284.805 716.216 286.793 716.123 288.782L705.924 288.408ZM721.703 256.938C720.296 262.389 719.053 267.818 718.116 273.316H725.313C723.953 267.771 722.687 262.342 721.703 256.938Z" fill="white"/>
<path d="M743.226 289.04C744.048 273.85 744.048 258.627 743.226 243.437H753.003C754.534 254.992 754.895 266.672 754.081 278.3L768.36 278.113C767.888 281.614 767.238 285.089 766.414 288.525C758.817 288.806 751.01 288.969 743.226 289.04Z" fill="white"/>
<path d="M769.227 288.408C772.466 273.772 772.53 258.614 769.415 243.952C771.923 244.092 774.948 244.42 777.456 244.607C780.323 255.33 780.827 266.545 778.934 277.481H789.203C788.291 280.912 787.115 284.268 785.686 287.519C779.754 287.893 775.229 288.033 769.227 288.408Z" fill="white"/>
<path d="M67.3361 230.474C64.2178 230.474 61.3575 230.474 58.6143 230.311C51.3665 229.94 44.1008 230.12 36.8803 230.849H36.2238L36.0362 231.504C32.1208 247.227 29.1432 266.835 34.0199 304.623V305.559H35.7549C39.5296 305.559 43.0465 305.769 46.6102 305.769C49.7988 305.769 53.0343 305.769 56.5277 305.465H57.4655V304.529C57.278 297.276 57.278 289.999 57.278 282.863H68.3208C79.5747 282.722 87.9917 279.821 93.3842 274.229C95.5219 271.872 97.163 269.11 98.2102 266.107C99.2574 263.105 99.6892 259.923 99.48 256.75C98.847 240.886 86.5381 230.872 67.3361 230.474ZM76.0344 255.3C76.0636 256.322 75.8883 257.34 75.5186 258.295C75.141 259.249 74.5839 260.123 73.8774 260.868C71.7262 262.816 68.9028 263.856 65.9997 263.77H57.1138C57.1138 260.985 57.2311 257.967 57.3014 255.019C57.3014 252.679 57.3014 250.573 57.4655 248.491H63.3035C67.172 248.421 76.0344 249.029 76.0344 255.3Z" fill="#101820"/>
<path d="M195.818 228.158C188.189 228.091 180.713 230.301 174.351 234.503C167.989 238.705 163.03 244.709 160.11 251.743C158.126 256.398 157.097 261.402 157.086 266.46C157.367 288.993 173.498 305.535 195.748 305.793C200.877 305.793 205.955 304.777 210.688 302.804C215.421 300.831 219.714 297.941 223.319 294.299C226.924 290.658 229.769 286.339 231.689 281.592C233.609 276.846 234.565 271.766 234.503 266.648C234.423 256.444 230.318 246.683 223.077 239.478C215.836 232.274 206.042 228.207 195.818 228.158ZM182.688 266.554C182.688 257.429 186.088 247.695 195.654 247.648H196.123C197.543 247.62 198.954 247.875 200.274 248.397C201.595 248.919 202.798 249.699 203.813 250.69C207.142 253.943 209.158 259.886 209.158 266.554C209.158 273.878 207.423 286.185 195.935 286.232C183.626 286.232 182.688 271.14 182.688 266.554Z" fill="#101820"/>
<path d="M372.363 232.791H371.66C365.728 232.604 364.626 232.58 358.413 232.44H353.865V233.423C354.426 246.295 353.115 259.181 349.973 271.678C348.355 262.623 346.198 254.411 343.947 245.8C342.869 241.612 341.743 237.307 340.618 232.697L340.454 232.065H339.797C333.979 231.761 328.149 231.761 322.33 232.065H321.65L321.486 232.697C320.079 238.5 318.532 243.835 317.055 249.076C314.874 256.633 312.811 263.817 311.311 271.748C308.397 259.147 307.331 246.19 308.146 233.282V232.323H290.585L290.397 233.025C285.356 252.047 289.788 274.907 304.465 304.997L304.723 305.488H305.262C310.115 305.488 312.6 305.652 314.992 305.652C317.383 305.652 319.353 305.652 323.291 305.512H324.089V304.716C325.378 291.613 328.004 278.113 330.583 264.94C333.209 278.019 335.858 291.52 337.171 304.716V305.559H338.015C341.72 305.395 345.049 305.395 348.378 305.395H358.296L358.53 304.88C371.589 277.972 376.466 252.656 372.293 233.633L372.363 232.791Z" fill="#101820"/>
<path d="M459.393 286.536V276.99C469.1 276.99 478.97 276.99 488.724 276.756H489.662V258.224H488.677C479.064 257.99 469.193 257.897 459.37 257.967V249.403C467.06 249.403 474.492 249.403 482.346 249.731L494.069 249.988H495.242L495.054 248.842C494.078 243.348 492.562 237.964 490.529 232.767L490.318 232.206H489.732C472.524 229.749 455.054 229.749 437.847 232.206H437.096L436.956 232.884C431.704 255.942 431.704 279.881 436.956 302.938L437.12 303.593H437.776C446.991 304.864 456.28 305.528 465.583 305.582C474.461 305.544 483.328 304.919 492.123 303.71H492.709L492.92 303.172C494.815 297.829 495.928 292.242 496.226 286.583V285.46H495.077C483.284 286.349 471.257 286.676 459.393 286.536Z" fill="#101820"/>
<path d="M634.04 289.18C635.095 275.984 629.89 272.614 623.138 269.994C626.523 268.753 629.392 266.412 631.284 263.349C633.176 260.285 633.981 256.676 633.571 253.1C632.235 237.658 621.52 229.913 600.747 229.421H596.714C588.538 229.123 580.354 229.719 572.308 231.2H571.745L571.581 231.738C563.422 255.931 562.671 282.067 569.564 303.476L569.729 304.038H570.315C575.732 304.997 581.225 305.466 586.727 305.442H591.58V304.436C591.181 296.106 591.041 287.566 590.923 279.306V279.072H597.371C602.06 279.072 605.085 279.914 606.749 281.693C608.859 283.869 609.094 287.636 609.094 292.643C608.745 296.663 608.903 300.712 609.563 304.693L609.797 305.442H610.571C612.915 305.278 615.26 305.208 617.44 305.137C622.379 305.091 627.31 304.763 632.211 304.155H632.914L633.618 300.107L632.281 300.341C632.381 299.443 632.537 298.552 632.75 297.674C633.43 294.902 633.924 292.088 634.227 289.25L634.04 289.18ZM610.102 256.189C610.145 256.878 610.058 257.568 609.844 258.224C609.613 258.874 609.254 259.47 608.789 259.979C607.265 261.524 604.24 262.319 599.411 262.319H590.83C590.83 258.178 590.83 253.896 591.041 249.286C594.44 249.286 597.887 249.146 601.239 249.146C606.726 249.169 610.008 251.743 610.102 256.189Z" fill="#101820"/>
</g>
<defs>
<linearGradient id="paint0_linear_26_19" x1="492.35" y1="140.61" x2="497.39" y2="139.54" gradientUnits="userSpaceOnUse">
<stop stop-color="#00C9F1"/>
<stop offset="1" stop-color="#0076A0"/>
</linearGradient>
<radialGradient id="paint1_radial_26_19" cx="0" cy="0" r="1" gradientUnits="userSpaceOnUse" gradientTransform="translate(405.499 146.992) scale(140.67 140.964)">
<stop offset="0.65" stop-color="#FEF100"/>
<stop offset="1" stop-color="#FFD600"/>
</radialGradient>
<radialGradient id="paint2_radial_26_19" cx="0" cy="0" r="1" gradientUnits="userSpaceOnUse" gradientTransform="translate(405.499 146.992) scale(140.67 140.964)">
<stop offset="0.66" stop-color="#AB8B00"/>
<stop offset="0.75" stop-color="#DCAD09" stop-opacity="0"/>
</radialGradient>
<linearGradient id="paint3_linear_26_19" x1="373.208" y1="235.88" x2="438.018" y2="58.1901" gradientUnits="userSpaceOnUse">
<stop stop-color="#DD5D1B"/>
<stop offset="0.04" stop-color="#E1691C"/>
<stop offset="0.13" stop-color="#EA7F1F"/>
<stop offset="0.24" stop-color="#F19121"/>
<stop offset="0.38" stop-color="#F69D23"/>
<stop offset="0.56" stop-color="#F8A424"/>
<stop offset="1" stop-color="#F9A624"/>
</linearGradient>
<radialGradient id="paint4_radial_26_19" cx="0" cy="0" r="1" gradientUnits="userSpaceOnUse" gradientTransform="translate(405.499 146.992) scale(94.3662 94.5634)">
<stop stop-color="#FFCA09"/>
<stop offset="1" stop-color="#FFCA09" stop-opacity="0"/>
</radialGradient>
<linearGradient id="paint5_linear_26_19" x1="371.759" y1="118.436" x2="429.39" y2="60.9259" gradientUnits="userSpaceOnUse">
<stop stop-color="#FFD033" stop-opacity="0"/>
<stop offset="1" stop-color="#FFD033"/>
</linearGradient>
<linearGradient id="paint6_linear_26_19" x1="325.485" y1="147.652" x2="492.524" y2="147.652" gradientUnits="userSpaceOnUse">
<stop stop-color="#C15911"/>
<stop offset="0.02" stop-color="#C15D10"/>
<stop offset="0.11" stop-color="#C3680D"/>
<stop offset="0.2" stop-color="#C36C0C"/>
<stop offset="0.26" stop-color="#C25F0F"/>
<stop offset="0.32" stop-color="#C15911"/>
<stop offset="0.37" stop-color="#C25F0F"/>
<stop offset="0.5" stop-color="#C3690D"/>
<stop offset="0.67" stop-color="#C36C0C"/>
<stop offset="0.71" stop-color="#BE5E0F"/>
<stop offset="0.76" stop-color="#BA5211"/>
<stop offset="0.83" stop-color="#B84B13"/>
<stop offset="1" stop-color="#B74913"/>
</linearGradient>
<linearGradient id="paint7_linear_26_19" x1="376.733" y1="51.7075" x2="375.771" y2="46.2234" gradientUnits="userSpaceOnUse">
<stop stop-color="#00C9F1"/>
<stop offset="1" stop-color="#0076A0"/>
</linearGradient>
<linearGradient id="paint8_linear_26_19" x1="359.624" y1="124.121" x2="367.216" y2="122.516" gradientUnits="userSpaceOnUse">
<stop stop-color="#0076A0"/>
<stop offset="1" stop-color="#00C9F1"/>
</linearGradient>
<linearGradient id="paint9_linear_26_19" x1="446.349" y1="183.434" x2="444.945" y2="175.488" gradientUnits="userSpaceOnUse">
<stop stop-color="#0076A0"/>
<stop offset="1" stop-color="#00C9F1"/>
</linearGradient>
<linearGradient id="paint10_linear_26_19" x1="412.69" y1="85.087" x2="417.046" y2="84.1698" gradientUnits="userSpaceOnUse">
<stop stop-color="#00C9F1"/>
<stop offset="1" stop-color="#0076A0"/>
</linearGradient>
<linearGradient id="paint11_linear_26_19" x1="463.469" y1="121.369" x2="462.677" y2="116.916" gradientUnits="userSpaceOnUse">
<stop stop-color="#00C9F1"/>
<stop offset="1" stop-color="#0076A0"/>
</linearGradient>
<linearGradient id="paint12_linear_26_19" x1="392.105" y1="127.274" x2="378.827" y2="52.1374" gradientUnits="userSpaceOnUse">
<stop offset="0.28" stop-color="#7FD9F8"/>
<stop offset="0.33" stop-color="#73D7F8"/>
<stop offset="0.55" stop-color="#42D0F7"/>
<stop offset="0.74" stop-color="#1ECAF6"/>
<stop offset="0.9" stop-color="#08C7F5"/>
<stop offset="1" stop-color="#00C6F5"/>
</linearGradient>
<linearGradient id="paint13_linear_26_19" x1="461.891" y1="130.147" x2="460.878" y2="124.412" gradientUnits="userSpaceOnUse">
<stop stop-color="#0ACCF6"/>
<stop offset="1" stop-color="#7FD9F8"/>
</linearGradient>
<linearGradient id="paint14_linear_26_19" x1="378.631" y1="57.923" x2="377.688" y2="52.599" gradientUnits="userSpaceOnUse">
<stop stop-color="#23CEF6"/>
<stop offset="0.2" stop-color="#48D4F7"/>
<stop offset="0.44" stop-color="#6EDBF8"/>
<stop offset="0.66" stop-color="#89DFF9"/>
<stop offset="0.85" stop-color="#99E2FA"/>
<stop offset="1" stop-color="#9FE3FA"/>
</linearGradient>
<radialGradient id="paint15_radial_26_19" cx="0" cy="0" r="1" gradientUnits="userSpaceOnUse" gradientTransform="translate(733.754 267.467) scale(61.0524 60.9285)">
<stop stop-color="#E42F43"/>
<stop offset="1" stop-color="#DA2D3F"/>
</radialGradient>
<linearGradient id="paint16_linear_26_19" x1="733.754" y1="328.395" x2="733.754" y2="206.538" gradientUnits="userSpaceOnUse">
<stop stop-color="#8F1A26"/>
<stop offset="0.04" stop-color="#8F1A26" stop-opacity="0.83"/>
<stop offset="0.1" stop-color="#8F1A26" stop-opacity="0.61"/>
<stop offset="0.16" stop-color="#8F1A26" stop-opacity="0.42"/>
<stop offset="0.24" stop-color="#8F1A26" stop-opacity="0.26"/>
<stop offset="0.32" stop-color="#8F1A26" stop-opacity="0.14"/>
<stop offset="0.43" stop-color="#8F1A26" stop-opacity="0.06"/>
<stop offset="0.58" stop-color="#8F1A26" stop-opacity="0.01"/>
<stop offset="1" stop-color="#8F1A26" stop-opacity="0"/>
</linearGradient>
<radialGradient id="paint17_radial_26_19" cx="0" cy="0" r="1" gradientUnits="userSpaceOnUse" gradientTransform="translate(599.411 266.928) scale(61.0524 60.9285)">
<stop stop-color="white"/>
<stop offset="0.7" stop-color="#FDFDFD"/>
<stop offset="0.95" stop-color="#F6F6F6"/>
<stop offset="1" stop-color="#F4F4F4"/>
</radialGradient>
<linearGradient id="paint18_linear_26_19" x1="599.411" y1="327.857" x2="599.411" y2="206" gradientUnits="userSpaceOnUse">
<stop stop-color="#939392"/>
<stop offset="0.04" stop-color="#939392" stop-opacity="0.8"/>
<stop offset="0.1" stop-color="#939392" stop-opacity="0.59"/>
<stop offset="0.17" stop-color="#939392" stop-opacity="0.4"/>
<stop offset="0.24" stop-color="#939392" stop-opacity="0.25"/>
<stop offset="0.33" stop-color="#939392" stop-opacity="0.14"/>
<stop offset="0.43" stop-color="#939392" stop-opacity="0.06"/>
<stop offset="0.58" stop-color="#939392" stop-opacity="0.01"/>
<stop offset="1" stop-color="#939392" stop-opacity="0"/>
</linearGradient>
<radialGradient id="paint19_radial_26_19" cx="0" cy="0" r="1" gradientUnits="userSpaceOnUse" gradientTransform="translate(465.067 266.928) scale(61.0524 60.9285)">
<stop stop-color="white"/>
<stop offset="0.7" stop-color="#FDFDFD"/>
<stop offset="0.95" stop-color="#F6F6F6"/>
<stop offset="1" stop-color="#F4F4F4"/>
</radialGradient>
<linearGradient id="paint20_linear_26_19" x1="465.067" y1="327.857" x2="465.067" y2="206" gradientUnits="userSpaceOnUse">
<stop stop-color="#939392"/>
<stop offset="0.04" stop-color="#939392" stop-opacity="0.8"/>
<stop offset="0.1" stop-color="#939392" stop-opacity="0.59"/>
<stop offset="0.17" stop-color="#939392" stop-opacity="0.4"/>
<stop offset="0.24" stop-color="#939392" stop-opacity="0.25"/>
<stop offset="0.33" stop-color="#939392" stop-opacity="0.14"/>
<stop offset="0.43" stop-color="#939392" stop-opacity="0.06"/>
<stop offset="0.58" stop-color="#939392" stop-opacity="0.01"/>
<stop offset="1" stop-color="#939392" stop-opacity="0"/>
</linearGradient>
<radialGradient id="paint21_radial_26_19" cx="0" cy="0" r="1" gradientUnits="userSpaceOnUse" gradientTransform="translate(330.583 266.928) scale(61.0524 60.9285)">
<stop stop-color="white"/>
<stop offset="0.7" stop-color="#FDFDFD"/>
<stop offset="0.95" stop-color="#F6F6F6"/>
<stop offset="1" stop-color="#F4F4F4"/>
</radialGradient>
<linearGradient id="paint22_linear_26_19" x1="330.583" y1="327.857" x2="330.583" y2="206" gradientUnits="userSpaceOnUse">
<stop stop-color="#939392"/>
<stop offset="0.04" stop-color="#939392" stop-opacity="0.8"/>
<stop offset="0.1" stop-color="#939392" stop-opacity="0.59"/>
<stop offset="0.17" stop-color="#939392" stop-opacity="0.4"/>
<stop offset="0.24" stop-color="#939392" stop-opacity="0.25"/>
<stop offset="0.33" stop-color="#939392" stop-opacity="0.14"/>
<stop offset="0.43" stop-color="#939392" stop-opacity="0.06"/>
<stop offset="0.58" stop-color="#939392" stop-opacity="0.01"/>
<stop offset="1" stop-color="#939392" stop-opacity="0"/>
</linearGradient>
<radialGradient id="paint23_radial_26_19" cx="0" cy="0" r="1" gradientUnits="userSpaceOnUse" gradientTransform="translate(195.536 266.928) scale(61.0524 60.9285)">
<stop stop-color="white"/>
<stop offset="0.7" stop-color="#FDFDFD"/>
<stop offset="0.95" stop-color="#F6F6F6"/>
<stop offset="1" stop-color="#F4F4F4"/>
</radialGradient>
<linearGradient id="paint24_linear_26_19" x1="195.536" y1="327.857" x2="195.536" y2="206" gradientUnits="userSpaceOnUse">
<stop stop-color="#939392"/>
<stop offset="0.04" stop-color="#939392" stop-opacity="0.8"/>
<stop offset="0.1" stop-color="#939392" stop-opacity="0.59"/>
<stop offset="0.17" stop-color="#939392" stop-opacity="0.4"/>
<stop offset="0.24" stop-color="#939392" stop-opacity="0.25"/>
<stop offset="0.33" stop-color="#939392" stop-opacity="0.14"/>
<stop offset="0.43" stop-color="#939392" stop-opacity="0.06"/>
<stop offset="0.58" stop-color="#939392" stop-opacity="0.01"/>
<stop offset="1" stop-color="#939392" stop-opacity="0"/>
</linearGradient>
<radialGradient id="paint25_radial_26_19" cx="0" cy="0" r="1" gradientUnits="userSpaceOnUse" gradientTransform="translate(61.0524 266.928) scale(61.0524 60.9285)">
<stop stop-color="white"/>
<stop offset="0.7" stop-color="#FDFDFD"/>
<stop offset="0.95" stop-color="#F6F6F6"/>
<stop offset="1" stop-color="#F4F4F4"/>
</radialGradient>
<linearGradient id="paint26_linear_26_19" x1="61.0524" y1="327.857" x2="61.0524" y2="206" gradientUnits="userSpaceOnUse">
<stop stop-color="#939392"/>
<stop offset="0.04" stop-color="#939392" stop-opacity="0.8"/>
<stop offset="0.1" stop-color="#939392" stop-opacity="0.59"/>
<stop offset="0.17" stop-color="#939392" stop-opacity="0.4"/>
<stop offset="0.24" stop-color="#939392" stop-opacity="0.25"/>
<stop offset="0.33" stop-color="#939392" stop-opacity="0.14"/>
<stop offset="0.43" stop-color="#939392" stop-opacity="0.06"/>
<stop offset="0.58" stop-color="#939392" stop-opacity="0.01"/>
<stop offset="1" stop-color="#939392" stop-opacity="0"/>
</linearGradient>
<clipPath id="clip0_26_19">
<rect width="813" height="176" fill="white" transform="translate(0 206)"/>
</clipPath>
</defs>
</svg>
