<svg version="1.1" id="Layer_1" xmlns="http://www.w3.org/2000/svg" xlink="http://www.w3.org/1999/xlink" x="0px" y="0px" viewBox="302.3 131 816 816" enable-background="302.3 131 816 816" space="preserve">
<circle id="XMLID_48_" fill="#563281" cx="710.3" cy="539" r="408"/>
<path id="XMLID_5_" fill="#411B61" d="M497.8,497.9l67.5,18.1l26-18l17,44l33-33l55,13l33-21l21,36l21-1l22,36l64-64l49,7l9,52
	l-271,368c0,0-194-16-306-242L497.8,497.9z"/>
<g id="XMLID_39_">
	<path id="XMLID_40_" fill="#FFFFFF" d="M933.7,503.2v12.3h-3.9v-12.3h-4.6V500h13.2v3.2H933.7z"/>
	<path id="XMLID_46_" fill="#FFFFFF" d="M953.6,515.5l0-10.1l-3.7,8.5h-2.6l-3.7-8.5v10.1h-3.5V500h4.3l4.2,9.2l4.2-9.2h4.3v15.5
		H953.6z"/>
</g>
<g id="XMLID_1_">
	<path id="XMLID_3_" fill="#FFFFFF" d="M609,583.9h-19c-1.8,0-3.3-1.5-3.3-3.3v-83.1c0-1.8,1.5-3.3,3.3-3.3h19
		c1.8,0,3.3,1.5,3.3,3.3v83.1C612.3,582.4,610.8,583.9,609,583.9z"/>
	<path id="XMLID_2_" fill="#FFFFFF" d="M807.9,578.6l-29.2-47.4l23.1-19c1.4-1.1,1.6-3.2,0.5-4.6l-9.8-12c-1.1-1.4-3.2-1.6-4.5-0.5
		l-38.5,31.6v-30.4c0-1.8-1.5-2.4-3.3-2.4h-19c-1.8,0-2.7,0.6-2.7,2.4v83.1c0,1.8,0.9,3.6,2.7,3.6h19c1.8,0,3.3-1.8,3.3-3.6v-24.1
		l10.2-8.4l19.1,32.6c1.1,1.8,3.3,5,7.3,4.9l20.6-0.5C808.3,582.8,808.9,580.4,807.9,578.6z"/>
	<path id="XMLID_8_" fill="#FFFFFF" d="M707.6,522.9l-10.5,7.1c-1.3,0.9-3,0.8-4.1-0.2c-6.1-5.2-25.1-19.5-35.5-7.3
		c-1.5,1.8-2.6,4-3.2,6.3c-2,7.3-5.5,26.6,12.3,30.1c3.3,0.6,6.8,0.5,10.1-0.2c5.5-1.2,15.7-3.8,21.9-7.8c1.4-0.9,3.3-0.7,4.3,0.7
		l7.3,9.7c1,1.3,0.9,3.2-0.2,4.4c-4.6,5-17,16.7-31.7,17.5c-18.7,1-25.8-2.5-25.8-2.5s-28.5-10.1-26.2-43.3
		c1.9-28.5,18.1-36.9,22.7-38.7c0.8-0.3,1.6-0.7,2.5-1c6.8-3,38.7-14.6,57.3,20.9C709.4,520.2,709,522,707.6,522.9z"/>
	<path id="XMLID_4_" fill="#FFFFFF" d="M851.5,510.1l4.1,9.1c0.9,1.9,3,2.9,5,2.3c9.5-2.9,35-9.6,34.4,0.8c0,0,1.3,6.9-6,6.9
		c-4,0-8.3-0.1-11.4-0.1c-2.3,0-4.3,1.8-4.3,4.2V545c0,2.3,1.9,4.2,4.2,4.2h12c2.4,0,4.8,0.9,6.4,2.8c1.5,1.7,1.8,3.8-0.2,6.3
		c-1.9,2.4-5.3,3-8.1,3.3c-2.9,0.3-5.8,0-8.6-0.8l-20.1-5.5c-1.7-0.5-3.5,0.2-4.5,1.7l-5.3,7.6c-1.2,1.7-1,3.9,0.5,5.4
		c6.3,6.2,24.6,20.5,52.5,11.8c30.7-9.5,19.8-35,13-43c-1.2-1.4-1.4-3.5-0.3-5.1c3.9-5.8,10.6-19.4-3.6-31.7
		c-17.3-14.9-46.1-6.9-58.7,3.2C851.2,506.3,850.7,508.4,851.5,510.1z"/>
	<path id="XMLID_37_" fill="#FFFFFF" d="M556.4,499.6c-3-1.3-6-2.1-8.3-2.7c-2.8-0.7-5.7-0.9-8.5-0.9h-39.7c-1.1,0-2,0.8-1.9,1.9
		c0.2,11.7,1,71.5,1.1,83c0,1.1,0.9,2.2,1.9,2.2h19.9c1.1,0,2.6-1.5,2.6-2.5v-20.1c0-1.1,0.6-2,1.7-1.9c23.4,0.6,32.8-3.5,32.8-3.5
		c10.2-4.4,14-15.6,15.4-24.2C575.4,517.7,568.5,504.8,556.4,499.6z M548.3,530.5c0,3-2.5,5.5-5.5,5.5h-14c-3,0-5.5-2.5-5.5-5.5v-9
		c0-3,2.5-5.5,5.5-5.5h14c3,0,5.5,2.5,5.5,5.5V530.5z"/>
</g>
</svg>
