<svg version="1.1" id="Layer_1" xmlns="http://www.w3.org/2000/svg" xlink="http://www.w3.org/1999/xlink" x="0px" y="0px" viewBox="302.3 131 816 816" enable-background="302.3 131 816 816" space="preserve">
<g id="XMLID_16_">
	<circle id="XMLID_15_" fill="#8BB331" cx="710.3" cy="539" r="408"/>
	<path id="XMLID_1_" fill="#6F8A30" d="M465,516.2L323.6,654.4c0,0,59.5,207.6,253.2,263.5l335.8-338.2l-10.3-35.2l13.7-25.9
		l-58.6-18l-46.9,49.4L788,503.8L748.6,542L731,505.6l-24.9,17.6l-54-10.3l-37.6,29.8L578,502l-71.6,69.2l-21.9,0.6l43.7-49.2
		l-45.5-13.4L465,516.2z"/>
	<g id="XMLID_2_">
		<path id="XMLID_3_" fill="#FFFFFF" d="M521.2,503.9c6.4,2.7,11.9,6.4,16.4,11l-13.1,15.6c-2.9-3.6-6.4-6.4-10.4-8.5
			c-4-2.1-8.1-3.1-12.1-3.1c-4.7,0-8.9,1.1-12.7,3.4c-3.8,2.3-6.7,5.4-8.9,9.3c-2.2,3.9-3.2,8.3-3.2,13.2c0,4.9,1.1,9.4,3.2,13.4
			c2.2,4,5.1,7.1,8.9,9.4s8,3.5,12.7,3.5c3.7,0,7.6-0.9,11.7-2.8c4-1.9,7.7-4.4,10.8-7.7l13.3,14c-4.9,4.9-10.6,8.9-17.2,11.9
			c-6.6,3-13.2,4.5-19.7,4.5c-8.8,0-16.8-2-24-6c-7.1-4-12.8-9.5-16.9-16.5c-4.1-7-6.1-14.8-6.1-23.4c0-8.5,2.1-16.2,6.3-23
			c4.2-6.8,9.9-12.2,17.2-16.2c7.3-4,15.4-6,24.3-6C508.2,499.8,514.8,501.2,521.2,503.9z"/>
		<path id="XMLID_5_" fill="#FFFFFF" d="M567.4,573.4l-6.5,16.4h-23.4l38.5-89.3h23.4l37.6,89.3h-24.2l-6.4-16.4H567.4z
			 M587.1,523.2l-13,33h25.8L587.1,523.2z"/>
		<path id="XMLID_8_" fill="#FFFFFF" d="M698.2,502.2c6.2,1.8,11.7,4.2,16.4,7.3l-8.6,17.7c-4.7-2.7-9.7-5-15-6.7
			c-5.3-1.7-9.8-2.6-13.5-2.6c-3,0-5.4,0.6-7.2,1.7s-2.7,2.7-2.7,4.8c0,2.8,1.4,5,4.1,6.5c2.8,1.5,7.1,3.1,13.1,4.8
			c6.2,1.8,11.3,3.6,15.3,5.4s7.4,4.5,10.3,8c2.9,3.6,4.4,8.3,4.4,14.3c0,5.8-1.6,10.7-4.7,14.9c-3.2,4.1-7.4,7.2-12.8,9.3
			s-11.5,3.1-18.2,3.1c-7.4,0-14.7-1.3-21.9-3.8c-7.2-2.6-13.5-6-18.9-10.4l8.8-17.5c4.5,3.9,9.9,7.1,16,9.6
			c6.1,2.5,11.6,3.8,16.3,3.8c3.7,0,6.5-0.7,8.6-2s3.1-3.3,3.1-5.8c0-2.9-1.4-5.1-4.3-6.6s-7.3-3.1-13.3-4.7
			c-6.1-1.7-11.1-3.4-15.1-5.1s-7.4-4.3-10.2-7.8c-2.8-3.5-4.3-8.1-4.3-13.8c0-5.4,1.5-10.2,4.4-14.2c2.9-4,7.1-7.2,12.5-9.4
			c5.4-2.2,11.6-3.3,18.7-3.3C685.7,499.5,692,500.4,698.2,502.2z"/>
		<path id="XMLID_10_" fill="#FFFFFF" d="M786.8,589.9v-34.7h-37v34.7h-22.7v-89.3h22.7v36.8h37v-36.8h22.7v89.3H786.8z"/>
		<path id="XMLID_12_" fill="#FFFFFF" d="M878,518.5V533h8c6.7,0,12.6,1.1,17.8,3.4c5.1,2.2,9.1,5.4,11.9,9.5
			c2.8,4.1,4.2,8.8,4.2,14.1c0,6.2-1.5,11.7-4.4,16.3c-2.9,4.6-7.1,8.2-12.4,10.7c-5.4,2.6-11.6,3.8-18.8,3.8
			c-5.8,0-11.8-1-18.1-3.1c-6.3-2-11.7-4.7-16.4-8l9-17.2c3.3,3.6,6.9,6.3,10.8,8.2c3.9,1.9,7.9,2.8,11.9,2.8c4.4,0,7.8-1,10.2-3.1
			c2.4-2.1,3.6-5.1,3.6-8.9c0-3.5-1.2-6.2-3.6-8.2c-2.4-2-5.8-2.9-10.2-2.9c-3.3,0-7.6,0.1-12.8,0.2c-5.2,0.1-9,0.3-11.5,0.4v-50.4
			h58.6v18H878z"/>
	</g>
</g>
<g id="XMLID_39_">
	<path id="XMLID_40_" fill="#FFFFFF" d="M941,503.2v12.3h-3.9v-12.3h-4.6V500h13.2v3.2H941z"/>
	<path id="XMLID_46_" fill="#FFFFFF" d="M960.9,515.5l0-10.1l-3.7,8.5h-2.6l-3.7-8.5v10.1h-3.5V500h4.3l4.2,9.2l4.2-9.2h4.3v15.5
		H960.9z"/>
</g>
</svg>
