<svg xmlns="http://www.w3.org/2000/svg" xmlns:xlink="http://www.w3.org/1999/xlink" viewBox="0 0 473.19 473.42"><defs><style>.cls-1{fill:#01a5db;}.cls-2{fill:url(#linear-gradient);}.cls-3{fill:#fff;}</style><linearGradient id="linear-gradient" x1="223.85" y1="-103.94" x2="223.85" y2="288.09" gradientTransform="matrix(1, 0, 0, -1, 0, 474)" gradientUnits="userSpaceOnUse"><stop offset="0.17" stop-color="#d7ecf7"/><stop offset="0.6" stop-color="#81c2ea"/><stop offset="0.66" stop-color="#76bae3"/><stop offset="0.77" stop-color="#58a6d0"/><stop offset="0.9" stop-color="#2785b2"/><stop offset="0.91" stop-color="#2483b0"/></linearGradient></defs><g id="Layer_2" data-name="Layer 2"><g id="Layer_1-2" data-name="Layer 1"><path class="cls-1" d="M237,0h-1.4A240.8,240.8,0,0,0,205,2.16C75.68,19.63-15.32,139.09,2.15,268.42a236.74,236.74,0,0,0,234.28,205,241.26,241.26,0,0,0,32-2.16C398,453.59,488.66,334.26,471,204.72A236.72,236.72,0,0,0,238.49,0Z"/><path class="cls-2" d="M439.51,232.82a26.75,26.75,0,0,0,8.19-19.92c0-16.33-12-27-26.37-27a26.17,26.17,0,0,0-19.49,8.38c-.46.43-.9.9-1.34,1.37s-.91.9-1.34,1.37-.91.9-1.34,1.38-.91.9-1.34,1.37-.91.9-1.34,1.37-.91.9-1.35,1.38-.91.9-1.34,1.37-.91.9-1.34,1.37-.91.9-1.34,1.38l-.11.09a22.86,22.86,0,0,0-5.89-12.21c-5.4-5.53-13.57-7.82-24.06-7.82H341l-18.48,19.23-7.18-18c-.39-1.11-.7-1.19-1.62-1.19H300.07l-28.18,28.84s3.59-6.28,3.59-11.64c0-5.2-1.62-9.38-4.39-12.23-3.55-3.55-9.18-5-17.74-5H231l-9.23,9.61a26.78,26.78,0,0,0-37.55-4.8,26.47,26.47,0,0,0-3.09,2.8l-32.21,33-.19.17h-.54V186.7H134.48l-10.71,12.36h0a25.79,25.79,0,0,0-23-13.15,26.14,26.14,0,0,0-19.49,8.38l-31.11,31.8a19.55,19.55,0,0,1-2.29.14,14.28,14.28,0,0,1-1.85-.16L70,202c-3.85-10-12.18-16.1-22.9-16.1A25.28,25.28,0,0,0,28,194c-.47.44-.92.9-1.35,1.37s-.91.9-1.34,1.38-.91.89-1.34,1.37-.91.9-1.34,1.37-.91.9-1.34,1.38-.91.89-1.35,1.37-.91.9-1.34,1.37-.91.9-1.34,1.38-.91.89-1.34,1.37-.91.9-1.34,1.37-.91.9-1.35,1.38-.91.89-1.34,1.37-.91.9-1.34,1.37-.91.9-1.34,1.38-.91.89-1.34,1.37-.91.9-1.34,1.37-.92.9-1.35,1.38-.91.89-1.34,1.37-.91.9-1.34,1.37-.91.9-1.34,1.37c-.23.22-.43.45-.65.67C-7.49,350.88,89.11,462.3,217.69,472.69L395,290.48v-14C394.51,277.42,439.07,233.29,439.51,232.82Z"/><path class="cls-3" d="M442.41,186.07h6.83v1.57h-2.37v6.12h-2.1v-6.12h-2.36Zm8.38,0h2.75l1.79,4.67,1.73-4.67h2.77v7.69h-1.9V188l-2.16,5.76h-.86L452.69,188v5.76h-1.92Z"/><path class="cls-3" d="M362,257.47h14v19h19v14H376v19H362v-19H343v-14H362Z"/><path class="cls-3" d="M438.09,391.41a55.09,55.09,0,0,0,9.83,1.25c3.74,0,5.7-1,5.7-2.93,0-1.63-1.47-2.17-5.1-3l-3.59-.87c-7.65-1.85-12.32-4.62-12.32-11.13,0-7.33,6.52-10.58,15.31-10.58a33,33,0,0,1,13.24,2.77l-1.57,6.62-4.4-.44c-2.39-.21-5.26-.43-7.27-.43-4.07,0-6,.27-6,1.84,0,1.2,1.35,1.8,4.72,2.61l3.36.81c9.18,2.23,13,4.62,13,11.08,0,7.76-6.08,12.21-15,12.21a34.25,34.25,0,0,1-16.06-4.13l2.27-6.4Z"/><path class="cls-3" d="M71.12,227.42c-5,6.94-15,12.38-24.67,12.38-15.68,0-25.21-11.8-25.21-26.9,0-16.73,11.33-27,25.82-27,10.72,0,19,6.08,22.9,16.1l-8.48,5.6-7.32-5.52c-3.16-2.37-5.09-3.23-7.94-3.23-6.33,0-10.64,5.68-10.64,13.72,0,8.68,4.93,13.65,12.33,13.65a22.45,22.45,0,0,0,9.86-2.51l8.33-3.87Z"/><path class="cls-3" d="M100.77,239.8c-14.34,0-26.37-10.57-26.37-26.9s12-27,26.37-27,26.36,10.66,26.36,27S115.14,239.8,100.77,239.8Zm0-40.16c-7.71,0-12,5-12,13.26s4.32,13.18,12,13.18,12-4.9,12-13.18S108.51,199.64,100.77,199.64Z"/><path class="cls-3" d="M134.48,186.71H148.2v40.71h25.06V239H134.48Z"/><path class="cls-3" d="M200.63,239.8c-14.34,0-26.37-10.57-26.37-26.9s12-27,26.37-27S227,196.56,227,212.9,215,239.8,200.63,239.8Zm0-40.16c-7.71,0-12,5-12,13.26s4.32,13.18,12,13.18,12-4.9,12-13.18S208.34,199.64,200.63,199.64Z"/><path class="cls-3" d="M244.77,239H231V186.71h22.35c8.56,0,14.19,1.41,17.74,5,2.77,2.85,4.39,7,4.39,12.23A19.1,19.1,0,0,1,267,220.12L278.49,239H264.84a2.08,2.08,0,0,1-2.31-1.35l-7.76-13.55c-.85-1.42-1-1.58-2.47-1.58h-7.53Zm12.9-27.6a2.76,2.76,0,0,0,2.78-1.42,11.57,11.57,0,0,0,1.15-5.36,7.23,7.23,0,0,0-1.46-4.66c-1.23-1.18-3.16-1.5-6.55-1.5h-8.82V211.4Z"/><path class="cls-3" d="M300.07,186.71h13.7c.92,0,1.23.07,1.62,1.18L335.69,239H322.58c-.92,0-1.31-.16-1.69-1.19l-2.78-7.49H297.68l-2.47,7.49c-.31,1-.69,1.19-1.62,1.19H281ZM307.39,200c-.54,2.84-2.08,7.65-4.54,14.91l-1.39,4.42H314L312.41,215c-2.86-7.73-4.32-12-4.94-14.91Z"/><path class="cls-3" d="M341,239V186.71h18.66c10.49,0,18.66,2.28,24.06,7.81,4.08,4.18,6.47,10.33,6.47,18.38s-2.42,14.1-6.42,18.3c-5.4,5.53-13.57,7.82-24.06,7.82Zm18.28-12.08c5.93,0,10.1-.63,12.87-3.15,2.39-2.13,3.78-5.52,3.78-10.89s-1.39-8.84-3.78-11c-2.77-2.52-6.94-3.15-12.87-3.15h-4.51v28.16Z"/><path class="cls-3" d="M421.33,239.8C407,239.8,395,229.23,395,212.9s12-27,26.37-27,26.37,10.66,26.37,27S435.67,239.8,421.33,239.8Zm0-40.16c-7.71,0-12,5-12,13.26s4.32,13.18,12,13.18,12-4.9,12-13.18S429,199.64,421.33,199.64Z"/><path class="cls-3" d="M79.13,260.11H92.86v40.71h25v11.6H79.13Z"/><path class="cls-3" d="M145.28,313.21c-14.34,0-26.37-10.57-26.37-26.91s12-27,26.37-27,26.37,10.65,26.37,27S159.62,313.21,145.28,313.21Zm0-40.16c-7.71,0-12,5-12,13.25s4.32,13.18,12,13.18,12-4.89,12-13.18S153,273.05,145.28,273.05Z"/><path class="cls-3" d="M190.14,271.71H173v-11.6h48v11.6H203.87v40.71H190.14Z"/><path class="cls-3" d="M243.64,271.71H226.53v-11.6h48v11.6H257.37v40.71H243.64Z"/><path class="cls-3" d="M302.24,313.21c-14.34,0-26.37-10.57-26.37-26.91s12-27,26.37-27,26.37,10.65,26.37,27S316.58,313.21,302.24,313.21Zm0-40.16c-7.71,0-12,5-12,13.25s4.31,13.18,12,13.18,12-4.89,12-13.18S310,273.05,302.24,273.05Z"/></g></g></svg>