<svg width="604" height="286" viewBox="0 0 604 286" fill="none" xmlns="http://www.w3.org/2000/svg">
<path d="M90.1538 211.273C117.962 229.891 147.79 241.329 180.298 243.127V237.636C149.088 233.889 119.14 224.627 90.1538 211.273Z" fill="#FDB927"/>
<path d="M200.072 34.8828L181.514 194.751L233.377 191.897L240.038 110.058L265.256 189.994L291.507 187.835L312.36 117.196L320.925 185.711L362.32 182.603L341.384 49.1571L297.135 46.7778L277.627 120.527L256.216 42.0191L200.072 34.8828Z" fill="#808080"/>
<path d="M364.223 50.8223L365.273 182.741L432.598 177.392L432.499 150.026H403.238L403 135.991L429.408 135.752V105.063L403.238 104.826L402.763 91.7413L432.263 92.6924L431.785 58.1972L364.223 50.8223Z" fill="#808080"/>
<path d="M499.211 104.037L522.764 89.7628C517.272 80.978 513.739 71.7226 498.973 64.5463C490.198 59.7859 474.674 58.1692 464.002 64.7832C448.52 73.0374 438.735 91.0042 438.784 107.606C437.729 124.27 438.377 141.13 446.873 155.186C460.99 178.639 481.22 179.346 500.758 172.315C509.933 168.421 523.14 155.593 523.477 137.344L524.905 111.651L484.462 110.698L484.223 135.202L496.832 135.44C496.115 141.267 494.169 145.29 483.033 145.907C478.735 145.465 468.102 143.895 468.522 129.969L469.473 106.535C469.713 101.384 476.836 93.3067 485.888 93.5704C491.224 93.7222 496.066 96.2267 499.211 104.037Z" fill="#808080"/>
<path d="M547.919 67.4922L523.386 170.416L547.405 168.84L550.041 156.024H566.885L568.745 167.164L590.523 165.515L573.549 68.9555L547.919 67.4922ZM560.221 101.544L565.273 133.397L554.069 133.177L560.221 101.544Z" fill="#808080"/>
<path d="M208.145 29.499L189.589 189.368L241.451 186.513L248.113 104.675L273.33 184.609L299.581 182.452L320.434 111.813L328.998 180.328L370.393 177.217L349.458 43.7716L305.209 41.394L285.7 115.143L264.289 36.6353L208.145 29.499Z" fill="white"/>
<path d="M372.298 45.4385L373.347 177.358L440.674 172.008L440.576 144.643H411.313L411.076 130.607L437.482 130.368V99.6791L411.313 99.4405L410.838 86.3559L440.337 87.3086L439.862 52.8134L372.298 45.4385Z" fill="white"/>
<path d="M507.285 98.6539L530.838 84.3796C525.345 75.5948 521.813 66.3378 507.048 59.1631C498.272 54.4011 482.748 52.7859 472.076 59.4C456.593 67.6542 446.809 85.621 446.859 102.223C445.805 118.886 446.45 135.747 454.948 149.803C469.066 173.256 489.293 173.963 508.832 166.932C518.009 163.037 531.213 150.21 531.552 131.959L532.979 106.267L492.535 105.315L492.298 129.819L504.907 130.057C504.188 135.882 502.243 139.907 491.109 140.524C486.811 140.082 476.175 138.512 476.596 124.585L477.549 101.152C477.787 96.0009 484.91 87.9235 493.964 88.1855C499.298 88.339 504.142 90.8435 507.285 98.6539Z" fill="white"/>
<path d="M555.992 62.1074L531.46 165.032L555.48 163.457L558.116 150.641H574.959L576.819 161.78L598.598 160.13L581.623 63.5724L555.992 62.1074ZM568.294 96.1588L573.348 128.014L562.144 127.794L568.294 96.1588Z" fill="white"/>
<path d="M212.184 26.8057L193.626 186.676L245.489 183.821L252.15 101.983L277.368 181.917L303.619 179.76L324.473 109.121L333.037 177.636L374.432 174.526L353.497 41.08L309.247 38.7023L289.739 112.451L268.328 33.9436L212.184 26.8057Z" fill="#EE1D25"/>
<path d="M376.335 42.7461L377.385 174.667L444.71 169.318L444.612 141.952H415.351L415.112 127.915L441.52 127.678V96.9884L415.351 96.7498L414.875 83.6651L444.375 84.6179L443.898 50.121L376.335 42.7461Z" fill="#EE1D25"/>
<path d="M511.323 95.9617L534.876 81.6874C529.383 72.9025 525.851 63.6455 511.084 56.4692C502.309 51.7089 486.785 50.0937 476.113 56.7078C460.631 64.962 450.847 82.9288 450.895 99.5306C449.841 116.194 450.488 133.053 458.984 147.11C473.102 170.563 493.331 171.271 512.869 164.24C522.045 160.345 535.251 147.518 535.588 129.267L537.016 103.573L496.573 102.622L496.334 127.126L508.943 127.365C508.226 133.19 506.28 137.214 495.146 137.832C490.846 137.39 480.213 135.82 480.633 121.892L481.584 98.4594C481.825 93.3087 488.948 85.2313 498.001 85.4933C503.335 85.6468 508.177 88.1513 511.323 95.9617Z" fill="#EE1D25"/>
<path d="M560.03 59.417L535.498 162.342L559.517 160.767L562.153 147.951H578.997L580.857 159.09L602.635 157.44L585.661 60.8819L560.03 59.417ZM572.333 93.4684L577.385 125.324L566.181 125.104L572.333 93.4684Z" fill="#EE1D25"/>
<path d="M223.279 94.5406C223.279 132.775 192.71 163.77 155.001 163.77C117.294 163.77 86.7246 132.775 86.7246 94.5406C86.7246 56.3062 117.294 25.3115 155.001 25.3115C192.71 25.3115 223.279 56.3062 223.279 94.5406Z" fill="#FDB927"/>
<path d="M223.279 94.5406C223.279 132.775 192.71 163.77 155.001 163.77C117.294 163.77 86.7246 132.775 86.7246 94.5406C86.7246 56.3062 117.294 25.3115 155.001 25.3115C192.71 25.3115 223.279 56.3062 223.279 94.5406Z" fill="url(#paint0_radial_1049_4425)"/>
<path d="M227.317 91.8491C227.317 130.084 196.748 161.078 159.039 161.078C121.33 161.078 90.7607 130.084 90.7607 91.8491C90.7607 53.6147 121.33 22.6201 159.039 22.6201C196.748 22.6201 227.317 53.6147 227.317 91.8491Z" fill="url(#paint1_radial_1049_4425)"/>
<path d="M147.343 96.0222L129.915 87.2808L112.028 101.899L118.609 81.516L93.0806 67.9442L121.114 68.8185L126.913 50.3262L134.242 68.6416L154.279 68.5882L140.026 79.5321L147.343 96.0222Z" fill="#214489"/>
<path d="M179.153 62.4581L164.093 56.8252L153.436 68.867L153.973 51.1205L137.713 40.3334L154.804 39.067L156.433 26.0908L165.306 38.9953L179.155 38.7133L170.992 48.6026L179.153 62.4581Z" fill="#214489"/>
<path d="M208.523 68.2293L198.711 66.6525L195.427 77.6799L190.208 64.9807L179.302 62.5029L189.137 56.4695L187.822 43.6719L195.789 52.6419L203.564 47.2542L200.971 58.7888L208.523 68.2293Z" fill="#214489"/>
<path d="M208.068 110.425L201.295 98.1383L190.995 99.4915L198.325 90.6483L194.823 78.2511L202.752 84.0592L209.549 75.9902L209.346 88.2439L218.531 93.8101L208.498 95.5554L208.068 110.425Z" fill="#214489"/>
<path d="M158.325 142.348L145.616 132.704L124.28 148.525L133.943 127.505L114.449 113.132L140.722 113.719L147.202 96.0664L153.361 113.105L169.913 113.559L155.647 123.799L158.325 142.348Z" fill="#214489"/>
<path d="M206.477 118.616L192.805 116.273L190.896 100.132L183.625 114.997L169.803 113.515L178.981 125.043L172.347 140.268L185.292 132.53L194.452 142.511L193.835 127.109L206.477 118.616Z" fill="#214489"/>
<path d="M134.722 174.556C177.785 195.806 219.942 173.141 232.178 133.855C211.324 166.509 160.648 178.223 134.722 174.556Z" fill="#FDB927"/>
<path d="M85.5318 64.4956C89.9601 50.6368 103.305 32.8486 117.891 28.2935C113.044 25.3002 87.4923 4.98749 46.5783 11.75C9.66204 20.2145 13.5814 62.2415 18.9541 79.2371C19.3412 69.0708 18.255 55.227 24.547 47.1563C27.6571 43.649 46.5432 35.6451 83.5646 62.8705C86.5246 65.0262 77.1875 57.8532 85.5318 64.4956Z" fill="#FDB927"/>
<path d="M78.9652 73.8358C67.6993 63.284 55.0201 55.1716 39.3443 49.0314C20.5633 130.095 92.6622 191.31 138.617 222.135C100.381 215.157 1.59543 149.208 2.6733 56.9069C2.44638 50.6099 6.72617 4.51669 57.0107 3C89.3669 3.65573 103.019 10.9405 116.249 17.0841" stroke="#FDB927" stroke-width="4.92217"/>
<path d="M77.3075 75.6463L82.3314 80.2548L83.728 74.6102L80.3442 71.7637L78.1885 73.3688L77.1006 74.5067L77.3075 75.6463Z" fill="#FDB927"/>
<path d="M115.005 19.2115C118.674 21.2254 122.271 23.2543 125.724 25.3149L133.335 23.6581C127.838 20.6831 121.082 16.4317 117.012 14.7314L115.419 16.6169L115.005 19.2115Z" fill="#FDB927"/>
<path d="M124.01 220.354C132.917 224.074 150.173 228.237 164.083 227.431C149.565 224.429 145.971 224.546 134.937 216.707L128.569 217.471L124.01 220.354Z" fill="#FDB927"/>
<path d="M30.0885 51.5713C22.9905 75.5781 28.2464 103.428 41.2726 134.834C26.2175 109.147 4.46651 83.8407 30.0885 51.5713Z" fill="#EE1D25"/>
<path d="M82.6971 38.3145C67.2666 66.244 63.7743 94.6157 78.1404 123.65C70.2315 95.2047 72.9496 66.7596 82.6971 38.3145Z" fill="#EE1D25"/>
<path d="M595.54 185.497L591.517 196.761L585.082 194.025C579.813 192.774 579.207 199.006 582.023 199.496L588.299 201.105C592.155 202.346 593.621 205.294 594.414 207.22C596.228 213.597 594.684 216.245 593.93 219.769C591.436 226.505 586.722 229.405 580.897 230.389C573.586 231.475 569.893 230.025 565.452 229.101L570.439 215.586C571.35 219.086 575.463 219.19 576.554 219.447C578.988 220.069 580.929 219.085 581.863 217.838C583.213 215.499 581.681 213.867 580.255 213.333L573.175 211.885C568.912 210.749 567.718 205.566 566.98 202.473C566.508 198.36 566.998 194.704 569.112 191.177C570.776 188.03 572.726 185.926 575.663 183.695C578.361 181.901 583.156 181.187 586.851 181.796C592.817 183.031 593.139 184.264 595.54 185.497Z" fill="#808080"/>
<path d="M183.745 203.402L172.573 285.027L208.323 280.33L209.195 238.163L227.506 277.268L246.11 274.911L259.109 233.514L265.64 272.303L292.916 268.226L277.702 200.019L246.075 200.484L234.926 242.508L220.678 201.851L183.745 203.402Z" fill="#808080"/>
<path d="M300.059 198.849L328.329 196.812L329.287 263.101L302.739 266.91L300.059 198.849Z" fill="#808080"/>
<path d="M339.629 195.993L365.4 194.6L365.665 238.143L385.562 236.144L385.486 255.708L339.965 262.162L339.629 195.993Z" fill="#808080"/>
<path d="M436.648 191.22L456.247 189.687L456.465 246.118L436.648 249.208V191.22Z" fill="#808080"/>
<path d="M512.834 225.632C505.805 240.03 489.575 246.989 476.584 241.176C463.593 235.365 458.759 218.982 465.788 204.584C472.818 190.186 489.049 183.228 502.04 189.04C515.032 194.853 519.864 211.236 512.834 225.632Z" fill="#808080"/>
<path d="M391.491 193.799L413.357 192.499L413.582 233.146L430.466 231.281L430.401 249.541L391.776 255.568L391.491 193.799Z" fill="#808080"/>
<path d="M521.104 185.617L520.708 237.637L534.781 235.74L535.255 208.543L546.798 233.684L561.661 232.735L562.767 183.562L548.695 184.352L549.249 212.18L536.204 184.748L521.104 185.617Z" fill="#808080"/>
<path d="M600.896 180.435L596.873 191.697L590.436 188.963C585.169 187.711 584.563 193.943 587.379 194.434L593.655 196.042C597.511 197.283 598.977 200.232 599.77 202.156C601.582 208.533 600.04 211.182 599.286 214.706C596.792 221.44 592.076 224.34 586.253 225.326C578.94 226.411 575.249 224.963 570.808 224.038L575.795 210.523C576.706 214.024 580.819 214.126 581.91 214.384C584.344 215.007 586.285 214.022 587.219 212.776C588.569 210.435 587.037 208.805 585.609 208.271L578.53 206.822C574.268 205.686 573.073 200.504 572.336 197.41C571.862 193.296 572.353 189.642 574.468 186.113C576.132 182.967 578.081 180.863 581.019 178.631C583.717 176.839 588.511 176.125 592.206 176.734C598.171 177.967 598.494 179.202 600.896 180.435Z" fill="white"/>
<path d="M188.808 198.634L177.634 280.259L213.384 275.562L214.257 233.395L232.569 272.499L251.171 270.143L264.173 228.745L270.702 267.533L297.977 263.459L282.763 195.249L251.136 195.715L239.987 237.74L225.74 197.083L188.808 198.634Z" fill="white"/>
<path d="M304.827 194.08L333.098 192.041L334.054 258.332L307.508 262.141L304.827 194.08Z" fill="white"/>
<path d="M344.399 190.051L370.168 188.658L370.435 232.202L390.331 230.205L390.254 249.767L344.735 256.222L344.399 190.051Z" fill="white"/>
<path d="M442.317 185.553L461.914 184.02L462.135 240.449L442.317 243.539V185.553Z" fill="white"/>
<path d="M518.504 219.964C511.475 234.36 495.243 241.32 482.252 235.508C469.261 229.695 464.429 213.312 471.459 198.914C478.488 184.518 494.718 177.558 507.709 183.371C520.7 189.183 525.534 205.566 518.504 219.964Z" fill="white"/>
<path d="M397.139 188.149L419.006 186.85L419.232 227.498L436.114 225.633L436.049 243.893L397.424 249.92L397.139 188.149Z" fill="white"/>
<path d="M526.753 180.556L526.357 232.574L540.428 230.677L540.904 203.481L552.445 228.621L567.308 227.673L568.414 178.5L554.342 179.291L554.896 207.119L541.851 179.686L526.753 180.556Z" fill="white"/>
<path d="M603.335 178.302L599.312 189.566L592.877 186.83C587.608 185.58 587.002 191.81 589.82 192.301L596.095 193.909C599.951 195.152 601.416 198.101 602.209 200.024C604.023 206.402 602.479 209.049 601.727 212.575C599.232 219.309 594.517 222.209 588.694 223.194C581.381 224.28 577.69 222.83 573.247 221.907L578.235 208.39C579.146 211.891 583.258 211.994 584.349 212.253C586.785 212.874 588.724 211.889 589.658 210.643C591.008 208.304 589.478 206.672 588.05 206.138L580.97 204.69C576.707 203.555 575.512 198.371 574.775 195.277C574.303 191.165 574.793 187.51 576.909 183.981C578.571 180.835 580.521 178.731 583.458 176.5C586.156 174.706 590.951 173.992 594.647 174.601C600.612 175.836 600.934 177.069 603.335 178.302Z" fill="#33337A"/>
<path d="M191.542 196.209L180.368 277.832L216.118 273.136L216.99 230.968L235.302 270.073L253.905 267.717L266.906 226.319L273.435 265.107L300.71 261.031L285.497 192.823L253.87 193.289L242.721 235.312L228.473 194.657L191.542 196.209Z" fill="#33337A"/>
<path d="M307.854 192.238L336.126 190.201L337.082 256.492L310.534 260.299L307.854 192.238Z" fill="#33337A"/>
<path d="M347.425 188.797L373.195 187.403L373.461 230.947L393.358 228.948L393.281 248.512L347.76 254.967L347.425 188.797Z" fill="#33337A"/>
<path d="M444.445 184.025L464.042 182.491L464.26 238.923L444.445 242.013V184.025Z" fill="#33337A"/>
<path d="M520.63 218.438C513.6 232.834 497.37 239.794 484.379 233.981C471.388 228.169 466.554 211.786 473.584 197.388C480.615 182.992 496.845 176.033 509.836 181.844C522.827 187.657 527.659 204.041 520.63 218.438Z" fill="#33337A"/>
<path d="M399.286 186.309L421.154 185.009L421.379 225.656L438.261 223.792L438.49 242.346L399.571 248.079L399.286 186.309Z" fill="#33337A"/>
<path d="M528.899 178.422L528.505 230.442L542.576 228.545L543.051 201.349L554.592 226.489L569.456 225.539L570.562 176.366L556.489 177.157L557.043 204.985L543.999 177.553L528.899 178.422Z" fill="#33337A"/>
<path d="M499.236 187.744L495.048 200.954L477.006 202.566L491.504 211.264L487.638 227.373L499.88 216.42L511.158 221.574L506.97 209.654L516.958 199.988L504.714 200.632L499.236 187.744Z" fill="white"/>
<defs>
<radialGradient id="paint0_radial_1049_4425" cx="0" cy="0" r="1" gradientUnits="userSpaceOnUse" gradientTransform="translate(127.509 72.3491) rotate(71.5231) scale(72.532 77.8694)">
<stop stop-color="#FFF6D5"/>
<stop offset="1" stop-color="#FFF6D5" stop-opacity="0"/>
</radialGradient>
<radialGradient id="paint1_radial_1049_4425" cx="0" cy="0" r="1" gradientUnits="userSpaceOnUse" gradientTransform="translate(132.633 72.5793) rotate(75) scale(29.3497 35.2953)">
<stop stop-color="#FFF6D5"/>
<stop offset="1" stop-color="#FFF6D5" stop-opacity="0"/>
</radialGradient>
</defs>
</svg>
