<svg xmlns="http://www.w3.org/2000/svg" viewBox="0 0 640 132" enable-background="0 0 640 132" >
  <title>
    Play-4
  </title>
  <g fill="#007cc3">
    <path d="M46 36.47h4.53c7.84 0 17.59.52 17.59 10.81 0 10.63-9.05 12-17.41 12H46zM0 132h46V92.43h24.33c26.64 0 43.35-16.74 43.35-43.58 0-32.6-22.63-48.29-53.27-48.29H0zM126.74.56h47.7v89.26h40V132h-87.7zM278.54 84.41l8.71-40.09H289c.87 5.58 1.74 11.33 3.13 16.91l5.57 23.19zM270 115.62h36l4.4 16.38h50.49L314.06.56h-52.75L215.7 132h50.48z"/>
    <g>
      <path d="M395 .56l14.61 34.34H411c1.39-4.18 2.61-8.37 4.36-12.38l9.4-22h53.62l-44.92 74.82V132H386.8V75.34L341 .56zM546.44 51.12a52.18 52.18 0 0 0 7.31-11l1 .7a33.22 33.22 0 0 0-2.09 10.81v19.7l-23.16 1.22v-.7zm-60.41 56l66.67-1.39L551 132h45.27L595 105.68l17.76 1.39v-37l-16.53 1.22V.56h-56.4l-53.83 72z"/>
    </g>
    <path d="M620.57 9.9h2.92c2.62 0 3.7.57 3.7 2.27s-.91 2.53-3.53 2.53h-3.09zm0 7.59h2.27l4.05 7.72h4l-4.36-7.9c2.35-.22 4.36-1.53 4.36-4.84 0-3.93-2.48-5.37-7-5.37H617v18.12h3.57zm2.88 14.88C632.2 32.37 640 26 640 16.19S632.2 0 623.44 0s-16.56 6.37-16.56 16.19 7.81 16.18 16.56 16.18zm12.29-16.19c0 7.46-5.49 12.79-12.29 12.79s-12.29-5.32-12.29-12.79 5.4-12.78 12.28-12.78 12.29 5.33 12.29 12.79z"/>
  </g>
</svg>
