<?xml version="1.0" encoding="UTF-8"?>
<svg id="Layer_2" xmlns="http://www.w3.org/2000/svg" viewBox="0 0 621.7 132">
  <g id="Layer_1-2" data-name="Layer_1">
    <path d="M45.5,37.2h4.4c7.7,0,17.4.6,17.4,10.7s-9,11.9-17.3,11.9h-4.7v-22.6h.2ZM0,131.7h45.5v-39.2h24.2c26.3,0,42.9-16.6,42.9-43S90.1,1.8,59.8,1.8H0v130h0v-.1Z" style="fill: #007cc3;"/>
    <path d="M121.5,1.6h47.2v88.2h39.6v41.7h-86.9V1.6h.1Z" style="fill: #007cc3;"/>
    <path d="M271.8,84.5l8.6-39.6h1.7c.9,5.6,1.7,11.2,3.1,16.7l5.6,22.9h-19ZM263.3,115.4h35.7l4.3,16.2h50L307.1,1.6h-52.2l-45.2,130h50l3.9-16.2h-.3Z" style="fill: #007cc3;"/>
    <path d="M375.4,1.6l14.4,34h1.4c1.4-4.1,2.6-8.3,4.3-12.3l9.3-21.7h53l-44.5,73.9v56h-46.2v-56L322,1.6h53.5-.1Z" style="fill: #007cc3;"/>
    <path d="M602.5,9.9h2.9c2.6,0,3.7.6,3.7,2.3s-.9,2.4-3.4,2.4h-3v-4.7h-.2ZM602.5,17.3h2.3l4,7.6h3.9l-4.3-7.9c2.3-.1,4.3-1.6,4.3-4.7s-2.4-5.3-7-5.3h-6.7v17.9h3.6v-7.6h-.1ZM605.3,32.1c8.7,0,16.4-6.3,16.4-16s-7.7-16.1-16.4-16.1-16.4,6.3-16.4,16,7.7,16,16.4,16v.1ZM617.5,16.1c0,7.4-5.4,12.6-12.2,12.6s-12.2-5.3-12.2-12.6,5.3-12.6,12.2-12.6,12.2,5.3,12.2,12.6Z" style="fill: #007cc3;"/>
    <path d="M487.7,1.9h86.5v35.5h-54.5c-.4,4-1.3,9.2-4,14.7h1.1c2.7-2.9,7.6-6.7,19.9-6.7s24.9,3.4,34,12c7.4,7,11.4,17.6,11.4,28s-2.9,19.9-13.3,30c-9.3,9-25,16.6-47.3,16.6s-21.2-1.7-30.3-3.9c-6.9-1.6-13.6-3.6-20.9-6.4l5.1-34.6c11.9,6.1,26.3,10.7,37.6,10.7s9.2,0,15.2-2.4c7-3,7.9-8,7.9-10.2,0-3.4-1.6-7.9-8-10.7-5.3-2.3-11.4-3-18.2-3s-19.9,1-33.2,5.6L487.8,1.9h-.1,0Z" style="fill: #007cc3;"/>
  </g>
</svg>