<svg version="1.1" id="Layer_1" xmlns="http://www.w3.org/2000/svg" xlink="http://www.w3.org/1999/xlink" x="0px" y="0px" viewBox="956.875 -161.5 2026.31702 883.1" enable-background="956.875 -161.5 2026.31702 883.1" space="preserve">
<g>
	<path fill="#A3CD39" d="M1693.6-5.2c0.4-0.3-0.6-0.3-0.9-0.5l-1,0c-28.1-41.3-67.9-62.3-109.6-69.5c-34.9,0.2-56.5,15.6-66.3,41.4
		c-6,15.8-2.2,23.1,15.4,23.4c12.6,0.3,19.1-10.3,26.7-8.7c8.6,1.7,6.6,15.7,22.5,20.7c3.9,1.2,8.7,2.6,13.5,3.2
		c1-0.1,1.9-0.2,2.9-0.2c2.7-0.1,5.3-0.2,8-0.2c5.7,0,11.6,0.4,17.4,1c5.1,0.6,10.3,1.4,15.4,2.5c14.7,2.1,30,3.7,43.7,4.9
		c0.1,0,0.3,0,0.4,0V13c4.8,0.6,10,3,13.5-1.5C1699.6,5.8,1696.9-0.4,1693.6-5.2z"/>
	<path fill="#FFFFFF" d="M2943.9,346c-39.7-55.8-102.8-89.1-169-89.1c-10,0-20.1,0.8-30.1,2.2c-4,0.6-7.8,1.2-11.3,1.7
		c-11.5,1.8-19.8,3.1-25.3,3.1c-3,0-4-0.4-4.1-0.4l0,0c-2.1-2.8-1.7-18.4-1.2-33.5c0.2-5.4,0.4-11.3,0.5-17.9
		c0.4-17.2,2.1-18.5,13.7-19.7c19.1-1.9,38.2-4,57.3-6.1c25-2.7,50.8-5.6,76.2-7.9c28.6-2.6,48.1-5.3,58.7-18.4
		c9.6-11.9,9.7-29.4,6.5-55.5c-1.1-9.2-2.1-18.8-3.1-29.4c-2.2-23.8-18.6-37.5-45-37.5c-2.6,0-5.2,0.1-8,0.4
		c-103.4,9.8-193,24-274,43.5c-24.7,6-26.6,25.2-28.2,42.2c-0.2,1.9-0.4,3.8-0.6,5.8c-8.4,78.5-13.1,159-13.8,239.3
		c-0.1,8.5,2.7,15,5.3,21.3l0.5,1.1c5.5,13.2,16.3,20.4,26.8,27.4c1.5,1,3.1,2.1,4.6,3.1c2,1.4,4,2.8,5.9,4.3
		c8.6,6.4,18.3,13.6,30.5,14.4c3,0.2,5.9,0.4,8.7,0.4c4.3,0,10.7-0.4,17.7-3.5c31-13.9,60.1-20.7,88.9-20.7c7.3,0,14.7,0.4,22,1.3
		c24.5,2.9,43.7,15.3,52.5,33.8c8.7,18.3,6.3,40.5-6.6,60.9c-21.8,34.6-55.7,54.2-109.8,63.7c-10.9,1.9-21.5,2.9-32.2,2.9
		c-22.6,0-43.7-4.2-68-9.1l-12.4-2.5c-4.6-0.9-9.9-2-15.1-2c-12.7,0-21.6,6.6-25,18.5c-8.7,30.5-4.3,66,11.3,90.5
		c11.2,17.7,27.6,28.7,47.2,31.8c10.4,1.7,21,4.2,31.3,6.7c17.5,4.2,35.6,8.5,52.8,8.5c1.9,0,3.7-0.1,5.6-0.2h0.6
		c140.1,0,244.1-67.9,285.3-186.2C2993.9,471.1,2983.8,402.1,2943.9,346z M2962.1,532.1c-40,115.1-139.2,179.7-276.7,179.5
		c-27.1,1.6-57.5-10.1-87.9-15c-48.1-7.7-62.4-68.1-50.5-109.7c4.3-14.8,18.2-11.5,29.7-9.3c41.6,8.2,72.5,16.1,115.1,8.6
		c47.4-8.3,89.6-25.6,116.5-68.2c31.2-49.5,5.1-103-53.1-110c-40.7-4.9-78.9,3.4-116.1,20.1c-7.1,3.2-13.9,2.8-21.6,2.2
		c-11.6-0.8-21.2-9.9-31.4-16.9c-11.3-7.8-22.8-14-27.8-26.2c-2.7-6.4-5.1-11.6-5-18.5c0.8-79.6,5.3-159.1,13.8-238.3
		c2.2-20.1,1.3-34.6,21.2-39.3c89.7-21.6,180.8-34.6,272.6-43.3c23.5-2.2,40.1,6.2,42.1,28.1c0.9,9.9,1.9,19.8,3.1,29.7
		c6.4,52.9-2.7,57.9-56.2,62.8c-44.6,4-89,9.6-133.6,14c-19.4,1.9-22.3,10.4-22.7,29.4c-1.5,70.2-7.6,66.1,52.8,57.2
		C2890.1,247.6,3011.1,391.1,2962.1,532.1z"/>
	<path fill="#92BE37" d="M2746.3,269c-60.4,9-54.3,13-52.8-57.2c0.4-19,3.3-27.5,22.7-29.4c44.5-4.4,89-10,133.6-14
		c53.5-4.8,62.7-9.8,56.2-62.8c-1.2-9.9-2.2-19.8-3.1-29.7c-2-21.8-18.6-30.3-42.1-28.1c-91.8,8.7-182.8,21.7-272.6,43.3
		c-19.8,4.8-19,19.2-21.2,39.3c-8.5,79.2-13,158.7-13.8,238.3c-0.1,6.9,2.3,12.1,5,18.5c5.1,12.1,16.5,18.4,27.8,26.2
		c10.2,7,19.8,16.1,31.4,16.9c7.7,0.5,14.5,1,21.6-2.2c37.3-16.7,75.4-25,116.1-20.1c58.2,7,84.4,60.5,53.1,110
		c-26.9,42.6-69.1,59.9-116.5,68.2c-42.6,7.5-73.5-0.4-115.1-8.6c-11.6-2.3-25.5-5.5-29.7,9.3c-11.9,41.6,2.3,102,50.5,109.7
		c30.3,4.8,60.7,16.6,87.9,15c137.5,0.3,236.6-64.4,276.7-179.5C3011.1,391.1,2890.1,247.6,2746.3,269z"/>
	<path fill="#FFFFFF" d="M1141.4,156.6c-1.4-41-14.2-54.2-52.5-54.2c-2,0-4.1,0-6.2,0.1c-2.3,0.1-4.5,0.1-6.6,0.1
		c-14.5,0-18.8-2.1-19.7-15.9c-2.5-36.7,2.8-39.4,23.4-43.6c10.1-2.1,21-3.1,33.4-3.1c13.3,0,26.5,1.1,40.5,2.3
		c2.5,0.2,5,0.3,7.5,0.3c42.7,0,79.7-30.9,87.9-73.4c2-10.4,0.8-18.8-3.6-25.2c-4-5.8-10.2-9.4-18.6-10.9
		c-27.5-4.7-63.8-10.2-100.7-10.2c-35,0-67.6,4.8-99.6,14.7c-38.9,12-60.3,34.7-67.1,71.3c-3.5,18.5-3.5,39.7,0,59.6
		c17,97.8,16,184,9,291.4l-0.1,0.8l0.1,0.8c0.8,9,0.4,18.2,0,28c-0.6,13-1.2,26.5,1.4,40.2c1.3,7.2,5.4,29.1,30.7,29.1
		c2.8,0,5.7-0.2,9.1-0.7c43.1-6.4,71.6-39.2,71-81.6c-0.6-46.5-1.6-96.4-4.6-147.3c-0.3-4.2-0.9-8.4-1.5-12.5
		c-0.6-4.2-1.6-11.1-1.1-13.9c0.9-0.2,2.7-0.5,6.4-0.5c2.5,0,5.2,0.1,7.9,0.3c3.2,0.1,6.4,0.3,9.6,0.3h1.9
		c10.8-0.2,24.3-1.6,33-10.8C1141,182.7,1141.8,168.9,1141.4,156.6z M1099.1,192.8c-13.1,0.3-28.1-2.8-33.3,3.3
		c-5.2,6-0.4,21,0.3,33.7c2.9,48.9,4,97.9,4.7,146.8c0.5,38.2-25.3,66-62.5,71.6c-17.4,2.6-25.2-2.6-28.5-20.3
		c-4.1-22.3,0.8-45-1.2-67.3c7.1-108,7.8-195.9-9.1-293.7c-3.1-17.9-3.4-37.9,0-56.1c6.5-34.5,27.1-53.3,60.2-63.6
		c67.2-20.8,128.2-15.8,195.6-4.2c13.7,2.4,16.5,11.9,14.1,24.3c-7.7,39.7-44,68.5-84.8,65c-25.8-2.2-51.2-4.4-76.8,1
		c-28.4,5.9-33.9,16.3-31.4,54.1c1.7,25.6,17.8,25.6,36.6,25.1c38.4-1.1,47.2,7.3,48.4,44.5C1132.3,183.2,1125.7,192.2,1099.1,192.8
		z"/>
	<path fill="#4358A6" d="M1083,112.5c-18.8,0.5-34.9,0.5-36.6-25.1c-2.5-37.8,2.9-48.2,31.4-54.1c25.6-5.3,51-3.2,76.8-1
		c40.8,3.5,77.1-25.3,84.8-65c2.4-12.4-0.4-22-14.1-24.3c-67.4-11.6-128.4-16.6-195.6,4.2c-33.1,10.2-53.8,29-60.2,63.6
		c-3.4,18.2-3.1,38.2,0,56.1c17,97.8,16.2,185.7,9.1,293.7c2.1,22.3-2.9,45,1.2,67.3c3.3,17.7,11.1,22.9,28.5,20.3
		c37.2-5.6,63-33.4,62.5-71.6c-0.7-49-1.8-98-4.7-146.8c-0.8-12.7-5.5-27.7-0.3-33.7c5.2-6,20.2-3,33.3-3.3
		c26.6-0.5,33.2-9.6,32.3-35.8C1130.1,119.8,1121.4,111.4,1083,112.5z"/>
	<path fill="none" d="M2251.1,194.5c0.2-8,0.5-15.3,4.3-21.7c-3.4,0.7-6.7,0.9-9.5,0.9c-3.3,0-6.8-0.2-10.4-0.5
		c-3.4-0.2-7.1-0.5-10.9-0.5c-1.2,0-2.2-0.1-3.1-0.1c-1.7,0-3.3,0-5,0.1c-1.8,0-3.5,0.1-5.2,0.1c-8.6,0-18.4-1.1-26.2-9
		c-5-5.1-5-12.2-4.9-18.5c0-0.3,0-0.7,0-1c-3.7,0.3-9.7,2.7-11.7,3.5c-9.8,3.9-15.7,9.9-17.4,17.8c-0.2,0.7-0.4,1.9,3.4,3.1
		c6,1.9,12.3,3.5,18.4,5.1c7.1,1.9,14.4,3.8,21.6,6.1c24.3,7.9,43.8,21.2,57.1,37.7c-0.6-5-0.8-10-0.5-15
		C2250.9,199.7,2251,197,2251.1,194.5z"/>
	<path fill="none" d="M1911.7,266.1c-2-1.1-3.9-1.6-5.8-1.6c-5.1,0-9.4,3.9-11.6,6.2c-18.5,19.7-26.5,42.3-23.8,67.1
		c1.6,14.9,7.9,17.9,13.1,18.9c1.5,0.3,2.9,0.4,4.3,0.4c6.9,0,13-3.6,18.2-10.7c10.7-14.7,16.3-31.6,16.6-50.1
		C1923.2,280.8,1921.5,271.5,1911.7,266.1z"/>
	<path fill="none" d="M1252.1,259.7c-2.1-1.4-4.2-2-6.2-2c-3.4,0-7.4,1.7-12.3,5.3c-19.1,14.1-30.7,33.5-34.4,57.6
		c-2.4,15.4,2.4,20.2,6.8,22.6c3.2,1.8,6.2,2.6,9.4,2.6c7.1,0,13.5-4.6,17.6-8.4c14.5-13.4,23.2-31.4,28.1-58.3
		C1260.7,269.4,1258,263.5,1252.1,259.7z"/>
	<path fill="#4358A6" d="M2449.2,163.1c-11.2,0.3-17.4-2.1-26.8,4.4c-8.9,6.1-9.6,23.8-11.2,33.3c-7.6,45-31,78.4-60.5,113.9
		c-7.2,8.7-15.9,20.9-28.2,16.5c-12.4-4.4-8-18.8-7.3-29c2.7-35.6,6.8-71,9.5-106.6c0.6-7.4,3.1-15.8,0.9-21.4
		c-0.8-2,0.4-2.3-3.1-3.9c-12.9-2.3-21.5-1.8-31.2-0.5c-10.8,1.4-17.3-1-22.3,2.6c-9.2,6.6-7.3,14.3-8.3,30.8
		c-0.6,11,1.1,22.9,5.3,33c15.9,38.5,5.3,61.2-8.8,85.5c-1.5,2.7-3.1,5.4-4.7,8c-0.4,0.6-0.7,1.2-1.1,1.8
		c-15.9,27-11.7,48.1,5.9,68.9c18.7,22.1,47.3,32.1,76.3,19c18-8.1,47.7-25.9,67.3-36.5c1.5,12.5-18.8,37.3-22.7,44.2
		c-15.7,27.4-25.4,44.5-31.5,76.3c-3.3,17.4-0.5,31.3,8.7,45.8c11.9,18.6,30.2,18.8,47.7,5.3c15.9-12.3,20.6-29.3,25.2-48.3
		c26.3-108.3,37.4-189.2,54.5-299.1c1-6.7,10.3-38.2,4.1-43.3C2480.4,158.8,2458.3,162.9,2449.2,163.1z"/>
	<path fill="#FFFFFF" d="M1257.5,251.3c-10.7-6.9-20.8-3-29.8,3.6c-21.6,16-34.3,37.7-38.3,64.1c-2,12.6-0.7,25.9,11.8,32.8
		c14,7.8,27.6,3.1,38.6-7.2c19.1-17.6,27.1-40.9,31.3-64.8C1270.8,267.7,1267.4,257.7,1257.5,251.3z M1233,337.5
		c-4.1,3.8-10.5,8.4-17.6,8.4c-3.1,0-6.2-0.9-9.4-2.6c-4.4-2.4-9.2-7.2-6.8-22.6c3.7-24.1,15.3-43.5,34.4-57.6
		c4.9-3.6,8.9-5.3,12.3-5.3c2.1,0,4.1,0.7,6.2,2c5.9,3.8,8.6,9.7,9,19.5C1256.2,306,1247.5,324,1233,337.5z"/>
	<path fill="#4358A6" d="M1350.2,321.9c6.4-37.6,16.3-74.5,22.6-112.2c4.7-28.2,6.9-33.4-20.8-34.1c-11-0.3-33-4.7-43.4-2.1
		c-6,1.5-7.7,10.4-14.1,10.6c-17.1,0.4-20.4-4.5-37.2-10.2c-15.6-5.3-42.6-0.1-57.7,7.9c-60.5,31.9-80.5,79.3-86.4,132.1
		c-0.5,91,66.9,137.5,136.7,102.6c21.9-10.9,30.6-17.2,49.9,2.5c15.7,16.1,53.4,17,63.1,5c8.4-10.4,12.2-58.9,3.3-65.2
		C1352.3,349,1347.9,335.2,1350.2,321.9z M1239.8,344.8c-11.1,10.2-24.7,14.9-38.6,7.2c-12.5-6.9-13.8-20.2-11.8-32.8
		c4.1-26.4,16.7-48.1,38.3-64.1c9-6.7,19.1-10.6,29.8-3.6c9.9,6.4,13.3,16.3,13.6,28.6C1266.9,303.9,1258.9,327.2,1239.8,344.8z"/>
	<path fill="#4358A6" d="M2013.9,224.9c0-7.5-0.1-14.9,0-22.4c0.5-41.4-1.9-42.4-42.2-35.6c-12.2,2.1-27.9,3.6-35.4,18.1
		c-3,5.9-12-2.1-18.9-3.6c-50.8-10.8-85.7,12.8-111.4,52.2c-34.4,52.6-45.1,110.3-14.3,167.3c30.3,56,123.2,52.3,146.9,12.8
		c12.8-11.2,21.2-24.9,37.7-4.3c13.3,16.5,38.3,19.3,57,10.4c17.1-8.1,21.5-7.6,7.5-18.9c-18.5-14.9-24.2-37.7-28.7-59
		C2004.1,303.6,2014.7,262.9,2013.9,224.9z M1932.8,296.4c-0.4,20.5-6.5,39.3-18.5,55.8c-7.8,10.8-18.8,16.8-32.4,14.2
		c-14.8-2.8-19.8-15.1-21.2-27.6c-3.2-28.9,6.8-54,26.4-75c7.7-8.2,18.4-12.6,29.4-6.5C1931.8,265.8,1933.2,280.9,1932.8,296.4z"/>
	<path fill="#4358A6" d="M2247.5,318.6c8.7-15.5,13.6-32.7,13.2-48.9c-0.9-35.5-27.4-66.4-69.6-80.2c-13.1-4.3-26.7-7.1-39.9-11.2
		c-6.6-2.1-11.9-6.8-10.2-14.7c2.9-13,12.8-20.7,23.5-24.9c3.9-1.6,10.2-3.9,15.2-4.2c1.2-0.1,9.5,0.3,9.7,2
		c1.2,7.9-0.9,17,2.4,20.4c8.2,8.3,20.3,5.4,32.6,5.9c15.1,0.2,27,3.1,34.7-2.2c6-4.1,4.9-11.1,5.5-19c0.6-8.9,2.3-19.1-1.8-32.2
		c-9.1-29.4-31.3-43.7-59.8-47.6c-49.8-6.8-91.4,11.2-124.1,48.9c-42.6,49.1-25.1,113.9,35.4,134.8c16.1,5.6,32.7,9.8,48.9,15.1
		c6.9,2.3,14.7,4.9,14.8,14.2c0.1,9.9-7.5,14.5-15.3,17.1c-6.8,2.3-14.2,3.3-21.4,3.8c-30.3,2.2-60-0.7-87.9-14.4
		c-8.7-4.3-18.5-8.6-22.1-5c-2.9,2.9-0.4,12.3-0.7,20c-0.9,29,11.7,49.9,36.3,62.3c42.1,21.3,85.9,23.6,129.8,6.3
		c20-7.8,37.2-24.1,48.8-43.3C2246.3,320.6,2246.9,319.6,2247.5,318.6z"/>
	<path fill="#4358A6" d="M2020.2,284.8c0.3-3.3,0.5-6.6,0.8-9.8C2020.1,278.1,2020,281.4,2020.2,284.8z"/>
	<path fill="#4358A6" d="M1682.2,34.1c-0.3-0.2-0.7-0.3-1-0.5c-14.5-7.1-29-12.4-43.7-15.6c-5.8-0.8-11.6-1.7-17.1-2.8
		c-7.2-0.8-14.5-0.9-21.7-0.6c-1,0.2-2,0.4-3.1,0.4h-0.5l-0.8-0.1c-0.1,0-0.3,0-0.4-0.1c-17.3,1.4-34.6,5.9-52,14
		c-32.6,15.3-51.1,50.8-47.5,86.1c2.2,21.8,13.7,28.6,31.6,15.7c6.7-4.8,12.2-21,18.8-23.6c6.3-2.4,9.5,11.5,22.2,11.8
		c5.8,0.1,11.4-2.8,12.5-9.5c1-6,1.2-21.8,4.2-23s8.7,12.4,13,14.3c12.5,3.2,21.7-2.8,31.1-8.2c17.9-10.4,35.8-20.9,53.7-31.4
		c4-2.4,9.6-3.5,12.4-7.1h-11.6V34.1H1682.2z"/>
	<path fill="#4358A6" d="M1682.2,34.1v20.1h11.6c1-1.3,1.7-2.9,1.8-5.1C1695.8,40.7,1688.5,37.2,1682.2,34.1z"/>
	<path fill="#4358A6" d="M1948.4,111.4c0.7-25.6-8-47.5-26.9-65.4c-24.3-23.1-54.6-27.8-84-30.4c-29.2,0.9-55.3,6.4-79.4,19.6
		c-0.5,0.3-1,0.6-1.4,0.8v0c-10.9,6.2-12.5,11.3-2.7,17.1h0c2.3,1.4,5.3,2.9,8.8,4.5c21,9.1,38.5,24.6,58.8,35.1
		c33.8,17.6,21.6,2,41.2-3.3c5.6-1.5-0.3,19.3,1.9,28.6c0.3,1.4,16.3,2,20.9,0.8c6-1.6,13.7-13.9,18-11.8c3.2,1.5,3.9,16.6,7,19.8
		c7.5,8.3,16.2,13.4,28,10.4C1951.2,134,1948.1,122.1,1948.4,111.4z"/>
	<path fill="#DE1761" d="M1883.9-98c-46.6-9.2-124.2,45.4-139.1,94.4h0.1c-1.1,3.6-1.9,7.2-2.2,10.7c-1.3,11.4,1.7,16,13.9,12.3
		c0.3-0.1,0.6-0.2,0.8-0.2c19.5-5.7,55.3-14.7,72.6-23.7c8.7-4.6,8-8.9,13.3-14.9c1.7-1.9,3.7,8.1,6.5,7.9
		c12.1-1.1,27.1-6.7,35.7-14.1c5.3-4.5,1.8-11.3,7.2-13.6c5.9-2.6,9.4,4.3,16.9,4.7c9.4,0.5,26.3-1,28-12.5
		C1937.4-66.6,1907.9-93.2,1883.9-98z"/>
	<path fill="#4358A6" d="M1620.4,15.3c5.5,1,11.3,1.9,17.1,2.8C1631.8,16.8,1626.1,15.9,1620.4,15.3z"/>
	<path fill="#4358A6" d="M1595.1,15.1h0.5c1.1,0,2.1-0.2,3.1-0.4c-1.6,0.1-3.2,0.1-4.8,0.2c0.1,0,0.3,0,0.4,0.1L1595.1,15.1z"/>
	<path fill="#4358A6" d="M1595.3,5.1c0.7,0.1,1.3-0.1,2-0.3c-1,0.1-1.9,0.1-2.9,0.2C1594.7,5,1595,5.1,1595.3,5.1z"/>
	<path fill="#FFFFFF" d="M1637.8,8c-5.1-1.1-10.2-1.9-15.3-2.5C1627.5,6.4,1632.6,7.3,1637.8,8z"/>
	<path fill="#00A0B5" d="M1721.6-113.3c-16.1-26.2-39.5-40.6-70.7-39.1c-14.4,0.7-26.4,7.8-16.8,24.1c3.8,6.3,19.5,12.6,19.1,20
		c-0.6,11.9-6.7,20,17.3,23.1c7.2,0.9-3.5,10.9-1.6,18.5c3.2,12.6,18.2,29.9,26.2,39.1c5.3,6,8.9,15,12.3,22.3h-0.5
		c3.6,7.7,7.2,13.5,12.8,12.2c6.2-1.5,10-6,12.6-11.8h0.4c4.4-10.6,4.5-25.4,6.4-36.4c0.4-2.4,0.4-4.9,0.7-7.9
		C1737.4-71.4,1733.7-93.6,1721.6-113.3z"/>
	<path fill="#4358A6" d="M1709.1,57.8c-8.2,7.6-12,17.7-15.8,27.8c-16,42.2-15.2,86.2-14.1,130.3c2,81.9,11.3,164-11.7,244.8
		c-5.4,19,8,15.7,19,12.7c57.3-15.6,80.4-56.4,72.5-120.6c-11.6-94.4-35.7-187.7-26.7-283.9c1.2-5.5,1.5-11-2-14.7h-16.9
		C1711.8,55.3,1710.4,56.6,1709.1,57.8z"/>
	<path fill="#4358A6" d="M1713.2,54.3l16.8-0.1c-0.9-1-2.1-1.9-3.6-2.6C1721.3,49.2,1717,51.3,1713.2,54.3z"/>
	<path fill="#FFFFFF" d="M2493.2,156.3c-4.2-3.4-10.1-4.9-19.2-4.9c-5.7,0-11.7,0.6-17.1,1.1c-3.1,0.3-5.9,0.6-8,0.6
		c-0.7,0-1.3,0-1.9,0c-1.7,0-3.3-0.1-4.9-0.1c-1.6-0.1-3.1-0.1-4.5-0.1c-6.1,0-12.8,0.8-20.9,6.3c-11,7.6-13.1,23.3-14.7,34.8
		c-0.2,1.9-0.5,3.6-0.7,5.1c-6.9,40.9-27.5,72.1-58.3,109.2l-1.7,2.1c-4.1,5-9.6,11.7-13.7,11.7c-0.5,0-1.1-0.1-1.8-0.3
		c-1.9-0.7-2.6-2.2-1.3-13.1c0.2-2,0.5-3.9,0.6-5.8c1.4-17.9,3.1-36.2,4.8-53.8c1.7-17.3,3.4-35.2,4.7-52.8c0.2-2,0.5-4,0.8-6
		c0.9-6.1,1.9-13-0.4-19.2c-1-5.7-4.8-8.2-8.4-9.9l-1.2-0.5l-1.3-0.2c-6.6-1.2-12.6-1.7-18.5-1.7c-5.9,0-11.2,0.6-15.7,1.1
		c-2.8,0.4-5.2,0.4-7.2,0.4h-4.3c-2.1,0-4.4,0.1-6.7,0.5c2.4-4.9,2.6-10.3,2.7-14.7c0-1.2,0.1-2.5,0.2-3.8l0.3-3.4
		c0.7-8.5,1.6-19.2-2.5-32.4c-9.5-30.9-33-49.8-68-54.6c-7.3-1-14.6-1.5-21.7-1.5c-42.9,0-80.4,18.1-111.3,53.8
		c-22.6,26-30.9,57.9-23,87.4c7.9,29.2,30.7,52.3,62.7,63.3c9.2,3.2,18.6,6,27.7,8.6c7.1,2.1,14.3,4.2,21.3,6.5
		c7.9,2.6,7.9,3.5,8,4.8c0,1.7,0,4.7-8.5,7.5c-5,1.7-11.1,2.7-19,3.3c-5.8,0.4-11.5,0.6-16.9,0.6c-25.1,0-46.7-4.6-65.9-14
		c-9.3-4.5-16.3-7.4-22.5-7.4c-5.6,0-9.1,2.3-11,4.3c-1.7,1.7-2.8,3.7-3.4,5.9c-0.3,3.3-0.6,6.5-0.8,9.8c0.1,1.3,0.2,2.6,0.3,3.9
		c0.2,2.5,0.4,5.1,0.4,7.2c-1,32.5,13.5,57.2,41.8,71.5c24.8,12.5,50.3,18.9,76,18.9l0,0c20.6,0,41.4-4.1,61.9-12.1
		c11.6-4.6,22.3-11.7,31.8-20.4c-3,18.5,2.7,36,17.3,53.2c15.5,18.3,36,28.4,57.7,28.4c10.2,0,20.4-2.3,30.3-6.7
		c11.7-5.3,27.4-14.1,43-22.8c-2.4,3.6-4.6,6.8-6,8.8c-2.3,3.3-4.1,5.9-5.2,7.8c-15.7,27.5-26.1,45.7-32.6,79.4
		c-3.8,19.8-0.7,36.2,10.1,53.1c8,12.5,19.5,19.4,32.3,19.4l0,0c9.8,0,20.1-4,29.9-11.6c19.4-15,24.6-36.5,28.8-53.8
		c23.2-95.5,34.4-168.6,48.7-261.1c1.9-12.6,3.9-25.5,6-38.9c0.2-1.2,0.7-3.4,1.4-6.2C2499.3,180.2,2502.3,163.7,2493.2,156.3z
		 M2196.9,364.9c-43.9,17.2-87.7,14.9-129.8-6.3c-24.6-12.4-37.2-33.3-36.3-62.3c0.2-7.7-2.2-17.1,0.7-20c3.6-3.6,13.4,0.7,22.1,5
		c27.9,13.7,57.5,16.6,87.9,14.4c7.2-0.5,14.6-1.5,21.4-3.8c7.8-2.6,15.4-7.1,15.3-17.1c-0.1-9.3-7.9-11.9-14.8-14.2
		c-16.2-5.3-32.8-9.6-48.9-15.1c-60.5-20.8-78-85.6-35.4-134.8c32.7-37.7,74.3-55.7,124.1-48.9c28.5,3.9,50.7,18.2,59.8,47.6
		c4,13.1,2.4,23.3,1.8,32.2c-0.6,7.9,0.5,14.9-5.5,19c-7.7,5.3-19.6,2.4-34.7,2.2c-12.3-0.5-24.4,2.4-32.6-5.9
		c-3.4-3.4-1.3-12.5-2.4-20.4c-0.3-1.7-8.5-2.1-9.7-2c-5,0.3-11.3,2.7-15.2,4.2c-10.7,4.2-20.6,11.9-23.5,24.9
		c-1.7,7.9,3.6,12.7,10.2,14.7c13.2,4.1,26.7,6.9,39.9,11.2c42.2,13.8,68.8,44.6,69.6,80.2c0.4,16.3-4.5,33.4-13.2,48.9
		c-0.6,1-1.2,2-1.8,3C2234.2,340.8,2216.9,357,2196.9,364.9z M2251.3,217.7c-13.3-16.5-32.8-29.8-57.1-37.7
		c-7.2-2.3-14.5-4.3-21.6-6.1c-6.1-1.6-12.4-3.2-18.4-5.1c-3.8-1.2-3.6-2.4-3.4-3.1c1.8-7.9,7.6-13.9,17.4-17.8
		c2-0.8,8.1-3.2,11.7-3.5c0,0.3,0,0.7,0,1c0,6.3-0.1,13.4,4.9,18.5c7.8,7.9,17.6,9,26.2,9c1.7,0,3.4,0,5.2-0.1c1.6,0,3.3-0.1,5-0.1
		c1,0,1.9,0,3.1,0.1c3.9,0.1,7.5,0.3,10.9,0.5c3.7,0.2,7.1,0.5,10.4,0.5c2.9,0,6.2-0.2,9.5-0.9c-3.7,6.4-4,13.7-4.3,21.7
		c-0.1,2.5-0.1,5.2-0.3,8.2C2250.4,207.7,2250.7,212.7,2251.3,217.7z M2482.9,207.4c-17.1,109.9-28.3,190.8-54.5,299.1
		c-4.6,19-9.4,36-25.2,48.3c-17.4,13.5-35.8,13.3-47.7-5.3c-9.3-14.5-12.1-28.4-8.7-45.8c6.1-31.8,15.8-48.9,31.5-76.3
		c3.9-6.9,24.3-31.7,22.7-44.2c-19.6,10.6-49.3,28.3-67.3,36.5c-29,13.1-57.6,3.1-76.3-19c-17.6-20.7-21.8-41.9-5.9-68.9
		c0.4-0.6,0.7-1.2,1.1-1.8c1.7-2.6,3.3-5.3,4.7-8c14.2-24.3,24.7-47,8.8-85.5c-4.2-10.1-5.9-22-5.3-33c1-16.5-0.9-24.2,8.3-30.8
		c5-3.6,11.5-1.2,22.3-2.6c9.7-1.2,18.3-1.8,31.2,0.5c3.6,1.6,2.3,1.9,3.1,3.9c2.2,5.5-0.3,13.9-0.9,21.4
		c-2.8,35.6-6.8,71-9.5,106.6c-0.8,10.2-5.1,24.6,7.3,29c12.3,4.4,21-7.9,28.2-16.5c29.5-35.5,52.9-68.9,60.5-113.9
		c1.6-9.5,2.4-27.2,11.2-33.3c9.3-6.4,15.6-4.1,26.8-4.4c9.1-0.3,31.2-4.3,37.7,0.9C2493.2,169.1,2483.9,200.7,2482.9,207.4z"/>
	<path fill="#FFFFFF" d="M2046.6,392.9c-15.5-12.6-20.8-32.4-25.2-53.3c-3.7-17.6-3.1-36.3-1.7-54.9c-0.2-3.4-0.1-6.8,0.8-9.8
		c0.2-1.7,0.3-3.5,0.5-5.2c1.3-14.8,2.7-30.2,2.4-44.9v-7.1c0-5.1,0-10.1,0-15.2c0.3-21,0-34.3-7.9-42.3c-5.8-5.9-13.5-6.6-18.8-6.6
		c-7,0-16,1.4-27.1,3.3l-2.6,0.4c-11.1,1.8-27.4,4.5-37.2,18.4c-0.4-0.2-0.8-0.4-1.1-0.5c-2.9-1.4-6.1-2.9-9.6-3.7
		c-8.9-1.9-17.6-2.8-25.8-2.8c-38,0-70.3,20-96,59.3c-19.7,30.1-30.8,60.4-33.4,90.1c-2.2-14.9-4.6-29.8-6.9-44.4
		c-10.6-66.4-21.6-135-15.3-203.4c1.4-6.8,1-12.1-0.5-16.2h0.2c3.5,6.1,11.1,10.2,19.2,13.6c10.8,4.7,20.7,11.3,31.2,18.3
		c8.4,5.6,17,11.3,26.3,16.2c12.7,6.6,20,9.2,26,9.2c4.8,0,8.3-1.7,10.8-3.6c-0.3,4.5-0.3,9,0.6,12.9c2,8.4,11.1,9.1,21.8,9.1
		c4.9,0,8.7-0.4,11.2-1c3.7-1,6.9-3.4,9.8-6c1,4.4,2.2,8.2,4.8,11c8.8,9.7,18.1,14.4,28.6,14.4c2.9,0,6-0.4,9-1.2
		c18-4.6,17.5-21,17.3-29.8c0-1.7-0.1-3.4-0.1-5.1c0.8-28.4-9.2-52.6-29.6-72.1c-26.6-25.4-59.9-30.2-89-32.8l-0.6-0.1h-0.6
		c-5.3,0.2-10.4,0.5-15.3,1c4.4-1.7,8.4-3.4,11.8-5.2c4.4-2.3,7.3-4.8,9.3-7.1c1.5,0.9,3.3,1.4,5.5,1.4h0.6h0.4
		c14.5-1.3,30.8-7.8,40.6-16c3.6-3,5.2-6.6,6.1-9.6c2.6,1.4,6.2,2.9,10.6,3.2c1.1,0.1,2.4,0.1,3.7,0.1c19.5,0,32.3-7.8,34.3-20.8
		l0.1-0.8v-0.8c-0.3-25.1-34.3-54.1-60.8-59.4c-4-0.8-8.3-1.2-12.8-1.2c-43.7,0-99.3,37.3-124.7,77.6c0.3-3.2,0.7-6.2,1.1-8.9
		c0.3-2,0.5-4,0.6-6.2c0-0.8,0.2-3.4,0.2-3.4l-0.1-0.9c-2.2-22.5-6.1-46.3-19.4-67.9c-17.6-28.6-43.2-43.7-74.1-43.7
		c-1.6,0-3.3,0-4.9,0.1c-13.2,0.6-22.8,5.5-27.2,13.6c-2.7,5.1-4.5,13.6,2.5,25.3c2.6,4.3,7,7.5,11.2,10.6c1.9,1.4,4.9,3.6,6.2,5
		c-0.1,1.2-0.3,2.3-0.4,3.4c-0.7,5.5-1.7,12.2,3.1,18.5c3,3.9,7.5,6.6,14.3,8.4c-1.3,3.6-2.2,8-1,12.7c1.4,5.3,4.2,10.9,7.7,16.6
		c-23.2-19.1-51.3-31.8-83.2-37.3l-0.9-0.2h-0.9c-47.2,0.3-67,26-75.3,47.6c-2.8,7.3-5.9,18,0,26.8c6.5,9.7,20,10,24.4,10.1h0.7
		c9.1,0,15.6-3.8,20.4-6.6c1.1-0.6,2.4-1.4,3.4-1.9c0.4,0.6,0.9,1.5,1.3,2.2c2.4,4.1,6.1,10.4,13.9,14.8
		c-11.4,2.6-22.6,6.5-33.6,11.6c-36,16.9-57.4,55.5-53.2,96.1c2.9,28.1,18.8,31.2,25.5,31.2c6.7,0,14-2.8,21.8-8.3
		c4.8-3.4,8.2-9,11.4-14.4c0.9-1.5,2.1-3.5,3.3-5.2c3.9,4,10.2,9.5,20.2,9.7h0.6c11.4,0,20.2-7.2,22-17.8c0.1-0.8,0.3-1.8,0.4-2.9
		c0.8,0.6,1.7,1.2,2.7,1.6l0.8,0.4l0.9,0.2c3.1,0.8,6.3,1.2,9.5,1.2c11.2,0,19.9-5.1,27.6-9.6l1.5-0.9c12.4-7.2,24.8-14.5,37.2-21.7
		l16.5-9.7c1-0.6,2.1-1,3.2-1.5c-2.2,4.6-4,9.3-5.7,13.7c-16.9,44.7-15.8,92.2-14.8,134c0.4,15.3,1,30.8,1.6,45.9
		c2.6,64.8,5.4,131.7-12.9,196c-1,3.4-3.9,13.7,1.8,21.3c2.2,3,6.5,6.5,14.4,6.5c4.8,0,9.9-1.3,15-2.7
		c54.2-14.8,81.5-50.9,81.3-107.3c3.1,10.1,7.3,20.1,12.6,29.9c16.1,29.8,49.4,47.5,89,47.5c33,0,61.3-12.6,74.4-32.9
		c1.5-1.3,2.8-2.6,4.2-3.9c3.4-3.2,8-7.6,9.9-7.6c0.9,0,3.7,1.4,8.1,6.9c9.7,12.1,25.2,19.1,42.4,19.1c9.3,0,18.5-2.1,26.7-5.9
		c2.1-1,4-1.8,5.7-2.6c8.3-3.7,14.8-6.7,15.8-14.5C2059.5,403.4,2052.7,397.8,2046.6,392.9z M1838.1,16.9c29.1,2.5,59.1,7.2,83,30
		c18.6,17.8,27.2,39.3,26.6,64.6c-0.3,10.6,2.8,22.4-9.7,25.5c-11.7,3-20.4-2.1-27.7-10.3c-2.9-3.3-3.7-18.1-6.9-19.6
		c-4.3-2.1-11.9,10-17.8,11.7c-4.5,1.2-20.2,0.7-20.6-0.8c-2.2-9.1,3.6-29.7-1.9-28.2c-19.3,5.3-7.2,20.6-40.7,3.3
		c-20.1-10.4-37.4-25.8-58.1-34.7c-3.6-1.6-6.6-3.1-8.9-4.5c-9.5-5.8-7.9-10.7,2.7-16.9c0.5-0.3,0.9-0.5,1.4-0.8
		C1783.5,23.2,1809.3,17.7,1838.1,16.9z M1743.8,5.1c0.4-3.4,1.2-6.9,2.2-10.4c14.7-47.6,90.9-101,136.7-92
		c23.6,4.7,52.6,30.6,52.8,49.7c-1.7,11.2-18.3,12.7-27.5,12.2c-7.4-0.4-10.9-7-16.6-4.6c-5.3,2.3-1.9,8.9-7.1,13.3
		c-8.5,7.2-23.2,12.6-35.1,13.7c-2.8,0.3-4.7-9.6-6.4-7.7c-5.2,5.8-4.5,10.1-13.1,14.5c-16.9,8.8-52.2,17.4-71.4,23.1
		c-0.3,0.1-0.6,0.2-0.8,0.2C1745.5,20.6,1742.5,16.2,1743.8,5.1z M1653.5-107.8c0.4-7.4-15.1-13.5-18.9-19.8
		c-9.6-16.2,2.3-23.2,16.6-23.9c31-1.5,54,12.8,70.1,38.8c12,19.6,15.8,41.6,17.9,63.6c-0.2,2.9-0.3,5.4-0.7,7.8
		c-1.9,10.9-2,25.7-6.3,36c-2.4,5.8-6.2,10.3-12.4,11.8c-5.4,1.3-8.8-4.3-12.4-11.8c-3.5-7.3-7-16.4-12.4-22.5
		c-8-9.1-22.8-26.2-26-38.8c-2-7.6,8.7-17.5,1.6-18.4C1646.9-88.1,1652.9-95.9,1653.5-107.8z M1558.1-19.1
		c-7.6-1.5-14.1,8.9-26.6,8.7c-17.5-0.4-21.3-7.6-15.3-23.3c9.9-25.7,31.3-41,66-41.2c41.7,7.2,81.9,28.4,109.9,69.7
		c0.2,0.2,0.3,0.5,0.5,0.7c3.2,4.7,6.6,10.5,2.2,16c-3.5,4.3-8.5,2-13.1,1.4c-0.3,0-0.6-0.1-0.9-0.1c-13.6-1.3-28.9-2.8-43.5-4.9
		c-5.2-0.8-10.4-1.6-15.3-2.5c-5.8-0.7-11.6-1-17.3-1c-2.7,0-5.3,0.1-8,0.2c-0.7,0.2-1.3,0.4-2,0.3c-0.3,0-0.6-0.1-0.9-0.1
		c-4.6-0.6-9.5-1.9-13.4-3.2C1564.7-3.6,1566.7-17.3,1558.1-19.1z M1680.8,61.1c-17.9,10.5-35.8,21-53.7,31.4
		c-9.3,5.4-18.6,11.4-31.1,8.2c-4.2-2-10-15.5-13-14.3c-3,1.2-3.2,17.1-4.2,23c-1.1,6.6-6.7,9.6-12.5,9.5
		c-12.7-0.3-15.9-14.2-22.2-11.8c-6.7,2.6-12.1,18.7-18.8,23.6c-17.9,12.8-29.3,6.1-31.6-15.7c-3.6-35.4,15-70.8,47.5-86.1
		c17.4-8.1,34.7-12.7,52-14c1.6-0.1,3.2-0.2,4.8-0.2c0.1,0,0.1,0,0.2,0c6.8-0.3,13.7-0.2,20.6,0.5c0.3,0.1,0.6,0.1,0.8,0.2
		c5.7,0.6,11.4,1.5,17.1,2.8c14.6,3.2,29.2,8.4,43.7,15.6c0.3,0.2,0.7,0.3,1,0.5c6.3,3.1,13.6,6.6,13.3,15c-0.1,2.2-0.7,3.8-1.8,5.1
		C1690.4,57.6,1684.9,58.7,1680.8,61.1z M1685.9,473.2c-11.1,3-24.4,6.3-19-12.7c23-80.8,13.7-162.9,11.7-244.8
		c-1.1-44-1.9-88,14.1-130.3c3.8-10.2,7.7-20.2,15.8-27.8c1.3-1.2,2.7-2.5,4.2-3.6c3.8-3,8.1-5,13.3-2.6c1.5,0.7,2.7,1.6,3.6,2.6
		c3.5,3.7,3.3,9.2,2,14.7c-8.9,96.3,15.1,189.6,26.7,283.9C1766.3,416.8,1743.2,457.6,1685.9,473.2z M2032.8,419.6
		c-18.7,8.9-43.7,6.2-57-10.4c-16.5-20.6-24.9-6.9-37.7,4.3c-23.7,39.5-116.6,43.2-146.9-12.8c-30.8-57-20.1-114.7,14.3-167.3
		c25.7-39.4,60.6-63,111.4-52.2c6.9,1.5,15.9,9.5,18.9,3.6c7.5-14.5,23.2-16.1,35.4-18.1c40.2-6.8,42.7-5.8,42.2,35.6
		c-0.1,7.5,0,14.9,0,22.4c0.8,38-9.8,78.7-1.7,117c4.5,21.3,10.2,44.1,28.7,59C2054.3,412,2049.9,411.4,2032.8,419.6z"/>
	<path fill="#FFFFFF" d="M1916.5,257.3c-11-6.1-21.7-1.8-29.4,6.5c-19.6,21-29.6,46.1-26.4,75c1.4,12.6,6.4,24.9,21.2,27.6
		c13.6,2.6,24.5-3.5,32.4-14.2c12-16.5,18.2-35.3,18.5-55.8C1933.2,280.9,1931.8,265.8,1916.5,257.3z M1922.8,296.2
		c-0.3,18.6-5.9,35.4-16.6,50.1c-5.2,7.1-11.3,10.7-18.2,10.7c-1.4,0-2.8-0.1-4.3-0.4c-5.2-1-11.5-4-13.1-18.9
		c-2.7-24.8,5.3-47.4,23.8-67.1c2.2-2.3,6.5-6.2,11.6-6.2c1.9,0,3.8,0.5,5.8,1.6C1921.5,271.5,1923.2,280.8,1922.8,296.2z"/>
	<path fill="#FFFFFF" d="M1664.4,392.1l-14.2,7c-3.9,1.9-16.1,7-25.2,7c-6.2,0-7.6-1.8-8-6c2.6-49.3,6.4-105.3,8.4-112.5
		c2.4-8.8-3.9-30.2-16.7-46.9c-13.8-17.9-32.1-27.4-53.1-27.4c-23.5,0-49.7,12-78.2,35.7v-26.5h-83L1377.5,358
		c-1.4-3.1-3.2-5.4-5.6-7c-12.2-8.7-13.2-19.6-11.9-27.2c3.1-18.5,7.2-37.3,11.2-55.4c4-18.5,8.2-37.6,11.4-56.8l0.6-3.5
		c2.7-16.1,4.4-25.8-2-33.6c-6.2-7.5-17.2-8.4-28.9-8.6c-3.3-0.1-8.1-0.6-13.2-1.2c-7-0.8-15-1.7-21.9-1.7c-4.4,0-7.9,0.4-10.9,1.1
		c-6.1,1.5-9.6,5.8-11.9,8.7c-0.4,0.5-0.9,1.1-1.3,1.6h-0.6c-8.3,0-11.8-1.5-18.7-4.5c-3.4-1.5-7.7-3.3-13.2-5.2
		c-5.2-1.8-11.5-2.7-18.5-2.7c-15.4,0-34.4,4.5-47.1,11.2c-72.4,38.1-87,98.1-91.7,139.8l-0.1,0.5v0.5
		c-0.2,39.7,12.1,74.1,34.6,96.8c17.9,18,40.7,27.5,65.9,27.5c16.8,0,33.8-4.3,50.6-12.6l3.8-1.9c8.4-4.3,14.5-7.3,19-7.3
		c2.8,0,7,1.1,15.5,9.8c11.7,11.9,30.8,16.2,44.9,16.2c13.1,0,24-3.3,30.6-9.3l-7.3,58.5h87.9l1.2-8.6
		c8.5-62.9,35.6-162.7,72.1-162.7c2,0,4.1,0.3,6.3,0.9c-5.4,27.4-19.4,114.9,11.9,154.1c10.6,13.4,25.1,20.1,43.1,20.1
		c1.2,0,2.4,0,3.6-0.1c1.1,0.1,3,0.2,5.4,0.2c11.5,0,33.3-2.6,50.4-19.9c15-15.3,22.4-38,22-67.7L1664.4,392.1z M1362.8,424.1
		c-9.8,12.1-47.4,11.1-63.1-5c-19.2-19.7-28-13.4-49.9-2.5C1180,451.4,1112.6,405,1113.1,314c5.9-52.8,25.9-100.2,86.4-132.1
		c15.1-8,42.2-13.2,57.7-7.9c16.7,5.7,20.1,10.6,37.2,10.2c6.4-0.2,8.1-9.1,14.1-10.6c10.5-2.6,32.4,1.8,43.4,2.1
		c27.6,0.6,25.5,5.8,20.8,34.1c-6.3,37.6-16.3,74.6-22.6,112.2c-2.2,13.3,2.1,27.1,16,37C1375,365.2,1371.2,413.7,1362.8,424.1z
		 M1587.1,485.3c-87.9,5.3-47.4-170.1-47.4-170.1c-72-38.9-99.7,166.4-99.7,166.4h-67.9l31.2-249.3h64.2v38.9
		c113.7-109.7,151.7,0.9,148.3,13.7c-3.3,12.1-8.7,115.3-8.7,115.3c2.5,30.2,47.7,7.8,47.7,7.8
		C1655.9,494,1587.1,485.3,1587.1,485.3z"/>
	<path fill="#4358A6" d="M1607,400.2c0,0,5.5-103.2,8.7-115.3c3.4-12.8-34.6-123.4-148.3-13.7v-38.9h-64.2l-31.1,249.2h67.9
		c0,0,27.7-205.3,99.7-166.4c0,0-40.5,175.4,47.4,170.1c0,0,68.9,8.7,67.6-77.3C1654.7,408,1609.5,430.4,1607,400.2z"/>
</g>
</svg>
