<svg width="444" height="224" viewBox="0 0 444 224" fill="none" xmlns="http://www.w3.org/2000/svg">
<path d="M105.51 72.0088H142.498V133.515H152.281V155.903H103.769V134.219H114.254V94.75H105.614C104.868 94.6058 104.012 93.9489 103.838 93.6719C103.775 93.5386 103.698 93.3244 103.676 93.2471C103.644 93.1212 103.631 93.0195 103.628 92.9971C103.62 92.9284 103.617 92.8722 103.616 92.8574C103.613 92.8145 103.611 92.7738 103.611 92.751C103.609 92.6982 103.609 92.6313 103.608 92.5596C103.606 92.4122 103.604 92.2017 103.603 91.9414C103.601 91.4186 103.6 90.6738 103.599 89.7852C103.597 88.0055 103.597 85.6402 103.589 83.2832C103.582 80.9244 103.568 78.583 103.542 76.8516C103.538 76.5491 103.531 76.2673 103.526 76.0088H101.081L103.898 72.71C104.075 72.5028 104.624 71.9665 105.51 72.0088Z" fill="#004785" stroke="#FDB825" stroke-width="4"/>
<path d="M229.261 73.7786H229.229C229.217 74.5981 229.2 75.6413 229.182 76.845C229.134 79.9064 229.071 84.0074 229.008 88.1155C228.881 96.3174 228.756 104.498 228.755 104.566V106.566H205.419L205.383 104.603C205.3 100.026 204.381 96.922 203.178 94.8157C201.986 92.7289 200.459 91.5189 198.963 90.803C197.442 90.075 195.903 89.8365 194.722 89.7883C194.136 89.7645 193.654 89.7887 193.327 89.8167C193.164 89.8306 193.042 89.8454 192.966 89.8557C192.928 89.8609 192.902 89.8644 192.889 89.8665C192.887 89.8667 192.886 89.8663 192.885 89.8665L192.883 89.8674H192.884C192.881 89.8679 192.88 89.8683 192.879 89.8684V89.8674L192.678 89.9045L192.465 89.8977C189.301 89.7905 187.068 90.9018 185.398 92.6135C183.669 94.3872 182.472 96.8877 181.67 99.5852C180.873 102.263 180.509 104.987 180.347 107.064C180.266 108.096 180.236 108.956 180.227 109.553C180.222 109.851 180.222 110.083 180.224 110.237C180.224 110.313 180.225 110.371 180.226 110.407C180.226 110.426 180.226 110.439 180.227 110.447V110.453L180.228 110.461V110.471C180.492 122.85 184.39 127.991 187.671 130.184C189.362 131.314 191.036 131.767 192.288 131.938C192.913 132.023 193.426 132.036 193.77 132.03C193.941 132.026 194.069 132.019 194.146 132.013C194.184 132.01 194.21 132.006 194.222 132.005H194.223L194.449 131.975L194.685 131.999C197.229 132.26 198.954 131.697 200.169 130.857C201.419 129.992 202.31 128.707 202.935 127.256C203.559 125.805 203.875 124.286 204.031 123.103C204.108 122.518 204.144 122.03 204.16 121.695C204.168 121.528 204.172 121.4 204.174 121.318C204.175 121.277 204.175 121.247 204.175 121.23V121.217L204.152 119.195H230.639L230.505 121.321C229.957 129.997 227.449 135.816 224.983 139.51C223.755 141.35 222.548 142.646 221.625 143.496C221.164 143.921 220.773 144.235 220.486 144.449C220.371 144.536 220.271 144.604 220.191 144.659C203.98 160.792 184.792 156.268 173.84 151.471H173.838C166.302 148.164 160.01 142.403 156.358 134.947V134.946C147.034 116.059 153.581 95.0423 159.188 84.5686L159.727 83.5881C162.412 78.752 166.478 74.7972 171.388 72.2698L171.393 72.2668L171.957 71.9827C183.765 66.124 193.034 67.1167 199.437 69.7864C202.035 70.8701 204.125 72.2131 205.694 73.4319V69.7786H227.261V70.6917C228.217 70.718 229.118 71.2026 229.261 71.718V73.7786Z" fill="#004785" stroke="#FDB825" stroke-width="4"/>
<path d="M269.954 100.441L277.467 93.8896H274.334V71.8916H324.249V94.124H313.653L299.302 104.389L317.426 133.045H328.458V155.982H280.999V133.397H286.262L278.585 121.758L270.148 129.252V133.201H278.178V155.943H231.42V133.201H241.71V61.6494H231.576V39.417H233.576C233.68 39.4171 242.273 39.4561 250.832 39.4951C255.12 39.5147 259.403 39.5342 262.613 39.5488C264.219 39.5562 265.556 39.5621 266.492 39.5664C266.96 39.5685 267.327 39.5701 267.578 39.5713C267.703 39.5719 267.8 39.5729 267.864 39.5732H267.963L269.954 39.583V100.441Z" fill="#004785" stroke="#FDB825" stroke-width="4"/>
<path d="M4.01562 42.7427L69.8867 43.2515L69.8857 43.2524C75.6095 43.2938 81.2884 44.6574 86.3281 47.5005L87.168 47.9907C95.7036 53.1424 99.6924 60.8907 101.287 68.5747C102.909 76.3877 102.079 84.2079 101.092 89.438C100.953 91.6738 100.444 94.853 98.9697 98.5269C97.2241 104.771 92.6471 108.934 87.0938 111.664C81.5278 114.399 74.8132 115.789 68.4434 116.458C62.0507 117.13 55.8733 117.088 51.3066 116.88C49.1029 116.78 47.2664 116.64 45.9512 116.522V132.458H62.7119V155.904H2.31152V132.81H16.4609V65.4839H2V42.7271L4.01562 42.7427ZM45.7568 93.2153H60.5352C60.5502 93.2149 60.5765 93.2139 60.6133 93.2124C60.6871 93.2093 60.8037 93.2028 60.9561 93.1919C61.2612 93.17 61.7099 93.1286 62.2578 93.0493C63.3616 92.8896 64.8307 92.5833 66.3301 92.0044C69.3364 90.8437 72.1824 88.7246 72.8906 84.6958L72.9033 84.6226L72.9219 84.5493L72.9229 84.5474C72.9243 84.5416 72.927 84.5305 72.9307 84.5151C72.938 84.4845 72.9498 84.4353 72.9648 84.3687C72.995 84.2347 73.0391 84.0307 73.0898 83.7671C73.1915 83.2389 73.319 82.4744 73.4209 81.5522C73.6264 79.6924 73.7165 77.263 73.3037 74.856C72.8903 72.446 71.9977 70.1951 70.3555 68.5151C68.7507 66.8737 66.2422 65.5833 62.1963 65.4038C62.1879 65.4036 62.1767 65.4042 62.1631 65.4038C62.128 65.4029 62.0758 65.4008 62.0078 65.3989C61.8718 65.3952 61.672 65.3902 61.418 65.3833C60.91 65.3696 60.184 65.3499 59.3135 65.3267C57.5722 65.2802 55.2514 65.2193 52.9336 65.1606C50.6152 65.102 48.3019 65.0459 46.5742 65.0093C46.2838 65.0031 46.0104 64.9986 45.7568 64.9937V93.2153Z" fill="#004785" stroke="#FDB825" stroke-width="4"/>
<path d="M126.778 27.6143C137.929 27.6143 146.962 36.681 146.923 47.834L146.916 48.3545C146.641 59.2654 137.757 68.0527 126.778 68.0527C115.665 68.0527 106.634 59.0249 106.634 47.834C106.634 36.6833 115.625 27.6143 126.778 27.6143ZM110.82 48.457C111.408 54.5361 113.058 58.4611 115.204 60.9238C117.646 63.7261 120.788 64.7025 123.939 64.7451C127.103 64.7879 130.25 63.8873 132.623 62.9609C132.931 62.8406 133.226 62.7183 133.505 62.5996C125.446 63.4158 119.687 59.7854 115.865 55.7119C113.701 53.4047 112.153 50.9535 111.147 49.082C111.031 48.8658 110.922 48.657 110.82 48.457ZM128.116 38.5039C126.902 37.6124 125.929 37.491 125.184 37.6514C124.428 37.814 123.821 38.2854 123.383 38.7549C126.221 38.5173 128.57 39.5278 130.254 40.6602C129.479 39.6781 128.766 38.9813 128.116 38.5039ZM130.966 31.5146C134.605 32.8607 137.005 34.4589 138.564 35.8652C137.014 33.6869 134.895 32.5441 132.91 31.9482C132.237 31.7461 131.579 31.6085 130.966 31.5146Z" fill="#FDB825" stroke="#FDB825"/>
<path d="M110.606 45.554C110.607 45.5558 110.608 45.5586 110.61 45.5627C110.613 45.5714 110.618 45.5856 110.625 45.6038C110.638 45.64 110.66 45.6943 110.688 45.7659C110.745 45.9096 110.831 46.1222 110.948 46.3918C111.182 46.9313 111.539 47.6998 112.028 48.6086C113.006 50.4284 114.507 52.8022 116.595 55.0286C120.762 59.4697 127.253 63.3159 136.678 61.0413L137.051 61.9573L137.049 61.9583C137.048 61.9589 137.047 61.9602 137.045 61.9612C137.042 61.9633 137.036 61.9661 137.03 61.97C137.017 61.9777 136.997 61.9888 136.972 62.0032C136.922 62.0321 136.848 62.0742 136.752 62.1272C136.561 62.2333 136.282 62.3839 135.927 62.5637C135.218 62.9232 134.206 63.4012 132.987 63.8762C130.556 64.8234 127.272 65.7724 123.927 65.7297C120.569 65.6868 117.125 64.6414 114.451 61.5754C111.789 58.5237 109.95 53.5383 109.635 45.7415L110.599 45.554C110.606 45.5516 110.606 45.551 110.606 45.551V45.554Z" fill="#221E20" stroke="#FDB825"/>
<path d="M129.067 30.3396C130.151 30.3711 131.629 30.5193 133.197 30.99C136.349 31.9363 139.874 34.1939 141.254 39.3708L140.326 39.6609C140.306 39.668 140.302 39.6702 140.301 39.6707V39.6716C140.301 39.6707 140.3 39.6686 140.299 39.6658C140.297 39.6591 140.292 39.6472 140.285 39.6306C140.271 39.5972 140.247 39.5441 140.212 39.4734C140.143 39.3315 140.029 39.1179 139.856 38.8494C139.51 38.3123 138.926 37.5519 137.992 36.6941C136.124 34.9802 132.837 32.864 127.196 31.3757L127.262 30.3962L127.324 30.8923C127.269 30.4445 127.263 30.4005 127.263 30.3962L127.264 30.3953H127.266C127.268 30.395 127.271 30.3947 127.274 30.3943C127.28 30.3935 127.29 30.3926 127.301 30.3914C127.324 30.3889 127.357 30.3855 127.4 30.3816C127.485 30.3738 127.608 30.3641 127.764 30.3552C128.077 30.3376 128.524 30.3239 129.067 30.3396Z" fill="#221E20" stroke="#FDB825"/>
<path d="M124.943 36.6729C126.015 36.4421 127.278 36.6676 128.686 37.6973C130.079 38.7167 131.629 40.5325 133.332 43.5166L132.506 44.0527L132.495 44.0615L132.494 44.0596C132.493 44.0578 132.49 44.0542 132.486 44.0498C132.48 44.041 132.469 44.0271 132.455 44.0088C132.426 43.9714 132.381 43.9148 132.321 43.8428C132.202 43.6987 132.022 43.4917 131.785 43.2461C131.311 42.7539 130.614 42.1107 129.724 41.5088C127.943 40.3047 125.419 39.2816 122.357 39.9111L121.327 40.123L121.813 39.1904L122.257 39.4219C121.814 39.1907 121.813 39.1898 121.813 39.1895L121.814 39.1885L121.815 39.1865C121.816 39.1849 121.818 39.1831 121.819 39.1807C121.822 39.1755 121.825 39.1678 121.83 39.1592C121.84 39.142 121.853 39.1183 121.87 39.0889C121.905 39.0297 121.955 38.9469 122.021 38.8477C122.151 38.6498 122.345 38.3825 122.602 38.1016C123.109 37.5452 123.894 36.8989 124.943 36.6729Z" fill="white" stroke="#FDB825"/>
<path d="M170.55 0.5C179.792 0.500227 187.303 8.0423 187.303 17.3154L187.298 17.749C187.068 26.8226 179.648 34.1306 170.55 34.1309C161.307 34.1309 153.796 26.5887 153.796 17.3154C153.796 8.04216 161.307 0.5 170.55 0.5ZM157.526 18.2549C158.043 23.0061 159.369 26.0936 161.069 28.0469C163.062 30.3361 165.629 31.1347 168.213 31.1699C170.809 31.2053 173.397 30.4677 175.355 29.708C175.408 29.6877 175.459 29.6649 175.511 29.6445C169.149 30.0729 164.567 27.1423 161.498 23.8691C159.704 21.9555 158.421 19.9227 157.588 18.3721C157.567 18.3329 157.547 18.2935 157.526 18.2549ZM171.6 9.64258C170.609 8.9168 169.829 8.82308 169.245 8.94727C168.735 9.05565 168.31 9.3436 167.979 9.66016C169.975 9.54501 171.669 10.1671 172.971 10.9414C172.48 10.3759 172.022 9.95237 171.6 9.64258ZM174.934 4.04883C177.032 4.91243 178.579 5.87082 179.712 6.77344C178.514 5.41262 177.02 4.65206 175.608 4.22754C175.381 4.1591 175.155 4.10067 174.934 4.04883Z" fill="#FDB825" stroke="#FDB825"/>
<path d="M157.301 15.3877C157.302 15.3891 157.302 15.3915 157.303 15.3945L157.367 15.5605C157.413 15.6782 157.484 15.8521 157.58 16.0732C157.771 16.5159 158.064 17.1468 158.464 17.8936C159.266 19.3891 160.497 21.3398 162.212 23.1699C165.633 26.8185 170.966 29.9819 178.736 28.1367L179.107 29.0527L179.105 29.0537C179.104 29.0542 179.103 29.0549 179.102 29.0557C179.099 29.0575 179.094 29.0602 179.088 29.0635C179.077 29.07 179.061 29.0798 179.041 29.0918C178.998 29.1159 178.936 29.1504 178.857 29.1943C178.698 29.2822 178.466 29.4071 178.172 29.5557C177.584 29.8529 176.744 30.2473 175.734 30.6396C173.72 31.4218 170.993 32.2078 168.213 32.1699C165.421 32.1317 162.549 31.26 160.321 28.7041C158.105 26.1621 156.585 22.0216 156.33 15.5742L157.3 15.3857L157.301 15.3877Z" fill="#221E20" stroke="#FDB825"/>
<path d="M172.46 2.72656C173.362 2.75313 174.592 2.87693 175.897 3.26953C178.523 4.05939 181.462 5.94546 182.609 10.2617L181.674 10.5537C181.656 10.5606 181.656 10.5614 181.656 10.5615L181.655 10.5596C181.653 10.5548 181.65 10.5453 181.644 10.5322C181.633 10.5061 181.614 10.4639 181.586 10.4072C181.53 10.293 181.438 10.1193 181.296 9.90039C181.014 9.46293 180.537 8.84045 179.77 8.13672C178.239 6.73085 175.536 4.98671 170.889 3.75293L170.957 2.77344L171.017 3.26953C170.957 2.77945 170.956 2.77257 170.957 2.77246H170.959C170.961 2.77226 170.964 2.7718 170.966 2.77148C170.972 2.77085 170.98 2.77058 170.99 2.76953C171.009 2.76744 171.037 2.76398 171.073 2.76074C171.144 2.75424 171.247 2.74654 171.376 2.73926C171.637 2.72466 172.009 2.71326 172.46 2.72656Z" fill="#221E20" stroke="#FDB825"/>
<path d="M169.036 7.95532C169.948 7.7585 171.014 7.95503 172.19 8.81958C173.353 9.67398 174.64 11.189 176.051 13.6643L175.213 14.2063V14.2073L175.212 14.2053C175.211 14.2039 175.209 14.2016 175.207 14.1985C175.202 14.1915 175.193 14.1803 175.182 14.1653C175.158 14.1351 175.122 14.0893 175.073 14.0305C174.976 13.9126 174.829 13.742 174.636 13.5403C174.249 13.1362 173.68 12.6086 172.953 12.1145C171.499 11.1259 169.443 10.2899 166.947 10.802L165.922 11.012L166.402 10.0823L166.847 10.3118L166.403 10.0813L166.404 10.0784C166.405 10.077 166.406 10.0754 166.407 10.0735C166.41 10.0689 166.413 10.0623 166.417 10.0549C166.425 10.0401 166.437 10.0195 166.451 9.99438C166.48 9.94421 166.522 9.87463 166.577 9.79126C166.686 9.62468 166.848 9.39978 167.062 9.16333C167.486 8.69613 168.146 8.14736 169.036 7.95532Z" fill="white" stroke="#FDB825"/>
<path d="M214.321 10.0466C221.066 10.0467 226.514 15.5123 226.475 22.2449L226.471 22.5593C226.305 29.1446 220.925 34.444 214.321 34.4441C207.612 34.4441 202.167 28.975 202.167 22.2449C202.167 15.5149 207.612 10.0466 214.321 10.0466ZM205.196 23.6443C205.617 26.627 206.51 28.5988 207.622 29.8728C209.024 31.4801 210.828 32.0446 212.657 32.0701C214.205 32.0916 215.752 31.7233 217.036 31.2839C212.854 31.2918 209.797 29.2812 207.71 27.0574C206.619 25.8936 205.79 24.6699 205.196 23.6443ZM214.991 16.864C214.31 16.3629 213.791 16.3113 213.417 16.3914C213.219 16.4335 213.038 16.5158 212.876 16.6218C213.816 16.635 214.655 16.8623 215.374 17.1833C215.241 17.0621 215.114 16.9548 214.991 16.864Z" fill="#FDB825" stroke="#FDB825"/>
<path d="M204.93 20.8242C204.931 20.8251 204.931 20.8268 204.932 20.8291C204.934 20.8337 204.936 20.8414 204.94 20.8516C204.948 20.8721 204.96 20.9038 204.976 20.9453C205.009 21.0285 205.06 21.152 205.128 21.3096C205.265 21.6249 205.475 22.0752 205.761 22.6084C206.336 23.6767 207.215 25.0686 208.439 26.373C210.876 28.9706 214.659 31.2142 220.168 29.8975L220.54 30.8135L220.285 30.3838L220.539 30.8135L220.538 30.8145L220.536 30.8154C220.533 30.8168 220.53 30.819 220.526 30.8213C220.518 30.8261 220.505 30.833 220.49 30.8418C220.459 30.8595 220.414 30.8851 220.356 30.917C220.24 30.9808 220.073 31.0712 219.86 31.1787C219.434 31.3937 218.827 31.6793 218.096 31.9629C216.642 32.5273 214.665 33.0974 212.643 33.0693C210.608 33.041 208.502 32.4039 206.868 30.5303C205.347 28.7869 204.286 26.0324 204.005 21.8652L203.959 21.0137L204.923 20.8262L204.93 20.8232V20.8242Z" fill="#221E20" stroke="#FDB825"/>
<path d="M215.676 11.6604C216.334 11.6803 217.233 11.7704 218.187 12.0579C220.111 12.6374 222.271 14.025 223.106 17.1877L222.171 17.4788C222.158 17.4839 222.154 17.4852 222.153 17.4856C222.152 17.4828 222.149 17.4786 222.147 17.4729C222.14 17.4563 222.128 17.4277 222.109 17.3889C222.071 17.3113 222.006 17.1912 221.908 17.0383C221.711 16.7329 221.375 16.2943 220.833 15.7961C219.749 14.801 217.827 13.5548 214.504 12.6731L214.572 11.6936L214.632 12.1897V12.1887L214.573 11.6936H214.575C214.576 11.6934 214.578 11.6929 214.581 11.6926C214.585 11.6921 214.591 11.6914 214.598 11.6907C214.613 11.6891 214.633 11.6872 214.66 11.6848C214.713 11.68 214.789 11.6735 214.884 11.6682C215.075 11.6577 215.347 11.6505 215.676 11.6604Z" fill="#221E20" stroke="#FDB825"/>
<path d="M217.542 20.1143L218.38 19.5723C217.369 17.7912 216.436 16.6866 215.578 16.0576C214.705 15.4182 213.897 15.2636 213.194 15.4131C212.513 15.5579 212.009 15.9712 211.691 16.3164C211.529 16.4919 211.407 16.6594 211.324 16.7832C211.282 16.845 211.25 16.8967 211.228 16.9346C211.217 16.9536 211.208 16.9699 211.202 16.9814C211.199 16.987 211.196 16.9915 211.194 16.9951C211.193 16.997 211.192 16.9987 211.191 17L211.19 17.002V17.0029C211.193 17.0049 211.228 17.024 211.631 17.2373L211.189 17.0029L210.696 17.9375L211.731 17.7275C213.488 17.3713 214.93 17.9537 215.955 18.6484C216.467 18.996 216.869 19.3671 217.141 19.6514C217.277 19.7929 217.379 19.9121 217.447 19.9941C217.481 20.0351 217.506 20.0673 217.522 20.0879C217.53 20.0981 217.535 20.1059 217.539 20.1104C217.54 20.1122 217.541 20.1135 217.542 20.1143ZM217.542 20.1143H217.542V20.1152L217.542 20.1143Z" fill="white" stroke="#FDB825"/>
<path d="M385.665 67.4834C401.573 67.4834 415.125 72.4364 424.707 80.9766C434.292 89.5204 439.875 101.63 439.875 115.873C439.875 126.936 436.564 136.427 430.182 143.758C438.936 151.265 443.5 161.538 443.5 173.858C443.5 188.481 437.521 200.906 427.261 209.667C417.007 218.424 402.502 223.5 385.469 223.5C369.619 223.5 357.301 219.447 348.465 211.167C339.909 203.15 334.684 191.231 332.622 175.383L332.432 173.837L331.652 167.028L331.588 166.472H375.617L375.706 166.859L376.795 171.585L376.937 172.181C377.072 172.772 377.19 173.356 377.305 173.907L377.619 175.326C377.918 176.663 378.183 177.759 378.474 178.665C378.862 179.872 379.28 180.684 379.842 181.253C380.395 181.812 381.131 182.179 382.244 182.404C383.368 182.632 384.84 182.709 386.833 182.709C390.229 182.709 392.414 182.113 393.761 180.849C395.1 179.593 395.727 177.567 395.727 174.405C395.727 170.956 394.898 168.565 393.242 167.024C391.578 165.476 388.981 164.693 385.236 164.693H366.845V126.329H385.236C388.452 126.329 390.477 125.734 391.72 124.438C392.969 123.137 393.544 121.007 393.544 117.634C393.544 113.053 392.669 110.723 391.452 109.519C390.243 108.322 388.58 108.118 386.639 108.118C384.407 108.118 383.042 108.238 382.037 109.36C381.52 109.937 381.066 110.815 380.679 112.178C380.293 113.539 379.983 115.351 379.731 117.765L379.185 123.239L379.14 123.69H334.814L334.846 123.16L335.236 116.665L335.337 115.194C336.508 100.105 341.406 88.2989 349.709 80.1992C358.283 71.8359 370.426 67.4834 385.665 67.4834Z" fill="#004785" stroke="#FDB825"/>
<path d="M385.742 73.7043C400.145 73.7043 412.178 77.9889 420.617 85.4299C429.061 92.8754 433.873 103.452 433.873 115.951C433.873 128.969 428.829 138.295 420.671 144.501C430.772 150.477 437.42 160.029 437.42 173.936C437.42 186.661 432.201 197.552 423.084 205.252C413.973 212.948 400.999 217.436 385.509 217.436C369.511 217.436 358.497 212.994 351.113 205.184C343.743 197.388 340.057 186.308 338.551 173.171L338.487 172.615H370.862L370.951 173.003C371.502 175.414 371.921 177.589 372.468 179.544C373.012 181.49 373.669 183.156 374.663 184.519C376.618 187.199 379.99 188.852 386.912 188.852C392.319 188.852 396.048 187.381 398.43 184.898C400.815 182.41 401.925 178.827 401.925 174.445C401.925 169.665 400.578 165.727 397.869 162.985C395.162 160.244 391.027 158.629 385.313 158.629H373.004V132.471H385.313C390.52 132.471 394.088 131.004 396.362 128.48C398.645 125.946 399.703 122.262 399.703 117.673C399.703 112.966 398.832 109.063 396.802 106.347C394.792 103.658 391.585 102.053 386.717 102.053C381.815 102.053 378.87 103.482 377.004 106.003C375.104 108.57 374.254 112.35 373.768 117.214L373.723 117.664H341.322L341.355 117.134C342.159 103.992 345.994 93.1223 353.294 85.5364C360.601 77.9428 371.317 73.7044 385.742 73.7043Z" fill="#FDB825" stroke="#FDB825"/>
</svg>
