<svg version="1.1" id="Layer_1" xmlns="http://www.w3.org/2000/svg" xlink="http://www.w3.org/1999/xlink" x="0px" y="0px" viewBox="95.9 100.7 1126.3 567.4" enable-background="95.9 100.7 1126.3 567.4" space="preserve">
<g>
	<g>
		<path fill="#004785" d="M356.1,287.3h90v157.2h25.1v47H357v-45.2h26.9V335.2h-27.3C356.5,335.2,356.7,286.6,356.1,287.3z"/>
		<path fill="#004785" d="M668.7,281.6h-50.2v16.1c0,0-31.5-40.5-90.8-10.3c-11.7,6-21.4,15.4-27.8,26.9
			c-14.3,25.2-32.1,78.9-8.5,126.5c8.8,17.9,24,31.8,42.3,39.8c27.5,12,74.2,22.7,113.6-16.7c0,0,21.9-13.4,24.6-56h-57.3
			c0,0,0.4,35.8-30,32.7c0,0-40.3,5.4-41.7-60c0,0-1.8-59.1,36.7-57.8c0,0,37.2-6.7,38.1,42.6h49.7
			C667.4,365.3,668.7,281.1,668.7,281.6z"/>
		<path fill="#004785" d="M684.9,204v46.6h26v193.1h-26.4v47.9h109.7v-47.9h-20.6v-17.5l27.8-24.6l28.2,42.6h-17.9v47.5h111.5v-48.4
			h-26l-50.6-79.7l42.1-30h23.7v-46.6H794.6V333h16.6l-38.1,33.1V204.4C773.1,204.4,685.3,204,684.9,204z"/>
		<path fill="#004785" d="M334.7,348.3c3.7-9.1,4.9-16.9,5.2-22.2c5-26.1,8.3-77.6-35.3-102.1c-12.1-6.8-25.8-10.1-39.7-10.2
			l-169-1.3v47.9H133v182.3H96.7v48.8h144.7v-49.7h-43v-51.5C198.4,390.3,319.1,405.4,334.7,348.3z M197.9,341.5v-82.4
			c-0.2-0.2,47.5,1.1,47.5,1.1c45.9,2,32.3,55.3,32.3,55.3c-4.5,25.5-36.7,26-36.7,26H197.9z"/>
	</g>
	<g>
		<path fill="#FDB825" d="M410.9,170c-27.9,0-50.4,22.6-50.4,50.4c0,27.9,22.6,50.4,50.4,50.4c27.9,0,50.4-22.6,50.4-50.4
			C461.4,192.6,438.8,170,410.9,170z M426.6,210c0,0-10.7-14.5-27.3-11.1C399.4,198.9,409.4,179.8,426.6,210z M368.2,215
			c0,0,18.9,52.3,68.4,40.4C436.6,255.5,371.4,294.1,368.2,215z M412.3,177.1c0,0,27.7-3.4,34.5,22
			C446.8,199.1,441.6,184.8,412.3,177.1z"/>
		<path fill="#221E20" d="M368.2,215c3.2,79.1,68.4,40.4,68.4,40.4C387.1,267.3,368.2,215,368.2,215z"/>
		<path fill="#221E20" d="M412.3,177.1c29.3,7.7,34.5,22,34.5,22C440,173.7,412.3,177.1,412.3,177.1z"/>
		<path fill="#FFFFFF" d="M426.6,210c-17.3-30.2-27.3-11.1-27.3-11.1C415.9,195.5,426.6,210,426.6,210z"/>
	</g>
	<g>
		<path fill="#FDB825" d="M523.2,100.7c-23,0-41.7,18.7-41.7,41.7c0,23,18.7,41.7,41.7,41.7c23,0,41.7-18.7,41.7-41.7
			C564.9,119.4,546.2,100.7,523.2,100.7z M536.2,133.7c0,0-8.8-12-22.5-9.2C513.7,124.5,521.9,108.8,536.2,133.7z M488,137.9
			c0,0,15.6,43.2,56.5,33.4C544.4,171.3,490.6,203.2,488,137.9z M524.4,106.5c0,0,22.9-2.8,28.5,18.2
			C552.9,124.7,548.6,112.9,524.4,106.5z"/>
		<path fill="#221E20" d="M488,137.9c2.6,65.3,56.5,33.4,56.5,33.4C503.5,181,488,137.9,488,137.9z"/>
		<path fill="#221E20" d="M524.4,106.5c24.2,6.4,28.5,18.2,28.5,18.2C547.3,103.7,524.4,106.5,524.4,106.5z"/>
		<path fill="#FFFFFF" d="M536.2,133.7c-14.3-25-22.5-9.2-22.5-9.2C527.4,121.7,536.2,133.7,536.2,133.7z"/>
	</g>
	<g>
		<path fill="#FDB825" d="M635.5,125.1c-16.5,0-29.9,13.4-29.9,29.9c0,16.5,13.4,29.9,29.9,29.9c16.5,0,29.9-13.4,29.9-29.9
			C665.5,138.5,652.1,125.1,635.5,125.1z M644.8,148.8c0,0-6.3-8.6-16.2-6.6C628.7,142.2,634.6,130.9,644.8,148.8z M610.2,151.8
			c0,0,11.2,31,40.6,24C650.8,175.8,612.1,198.7,610.2,151.8z M636.3,129.3c0,0,16.5-2,20.5,13.1
			C656.8,142.4,653.7,133.9,636.3,129.3z"/>
		<path fill="#221E20" d="M610.2,151.8c1.9,46.9,40.6,24,40.6,24C621.4,182.8,610.2,151.8,610.2,151.8z"/>
		<path fill="#221E20" d="M636.3,129.3c17.4,4.6,20.5,13.1,20.5,13.1C652.8,127.3,636.3,129.3,636.3,129.3z"/>
		<path fill="#FFFFFF" d="M644.8,148.8c-10.2-17.9-16.2-6.6-16.2-6.6C638.5,140.2,644.8,148.8,644.8,148.8z"/>
	</g>
	<path fill="#004785" d="M966.6,398.9"/>
	<path fill="#004785" d="M1074.6,668.1c-80.9,0-125-41.2-134.8-125.8l-2-17.4h110.5l2.8,12.1c0.5,2,0.9,4,1.3,5.9
		c4.5,20.4,5.2,23.5,25.7,23.5c17.6,0,24.1-6.1,24.1-22.5c0-18-8.7-26.1-28.2-26.1h-45.9v-95.5h45.9c16.7,0,22.6-6.1,22.6-23.5
		c0-23.6-9-25.6-19-25.6c-11.3,0-16.4,1-19,25.8l-1.4,14H946l1-16.6c4.9-80.3,50.4-124.5,128.1-124.5c81.1,0,137.8,50.3,137.8,122.4
		c0,28.5-8.7,52.8-25.4,71.4c22.8,19,34.7,45.2,34.7,76.8C1222.2,616.5,1161.5,668.1,1074.6,668.1z"/>
	<path fill="#FDB825" d="M1206.6,542.7c0,64.3-52.9,109.9-131.9,109.9c-81.6,0-111.5-45.1-119.2-112h80.6
		c5.6,24.4,6.3,41.5,42.2,41.5c28.2,0,39.8-15.3,39.8-38.1c0-24.9-14.1-41.7-43.9-41.7h-30.3V438h30.3c27.2,0,38.2-15.3,38.2-39.1
		c0-24.3-9-41.2-34.6-41.2c-25.7,0-32,15-34.5,39.9h-80.6c4.1-66.8,39.1-109.8,112.6-109.8c73.4,0,122.2,43.5,122.2,106.7
		c0,33.7-13.4,57.5-34.9,73.1C1189.1,482.6,1206.6,506.9,1206.6,542.7z"/>
</g>
</svg>
