<svg width="556" height="232" viewBox="0 0 556 232" fill="none" xmlns="http://www.w3.org/2000/svg">
<path d="M283.636 3.2583V27.6362H268.107V49.6323H274.468V65.2495H241.231L241.079 62.4097V62.4028C241.079 62.3982 241.078 62.3911 241.078 62.3823C241.077 62.3649 241.076 62.3391 241.074 62.3062C241.071 62.2402 241.065 62.1438 241.059 62.022C241.047 61.7781 241.031 61.4304 241.012 61.0122C240.975 60.1768 240.93 59.0525 240.9 57.9087C240.871 56.7749 240.855 55.5797 240.879 54.6187C240.89 54.1472 240.913 53.6658 240.96 53.2524C240.982 53.0529 241.019 52.7885 241.087 52.5161C241.121 52.38 241.178 52.1784 241.273 51.9536C241.353 51.7665 241.549 51.3429 241.956 50.937L242.106 50.7964C242.455 50.4918 242.791 50.3357 242.939 50.271C243.151 50.1789 243.34 50.1224 243.467 50.0884C243.721 50.0202 243.968 49.98 244.156 49.9536C244.545 49.8989 245.001 49.8624 245.449 49.8364C246.362 49.7835 247.5 49.7584 248.584 49.7485C249.015 49.7446 249.443 49.7445 249.854 49.7446V17.8247H248.831V26.7798H232.959V3.2583H283.636Z" fill="#004785" stroke="#FDB825" stroke-width="6"/>
<path d="M310.917 34.3318C310.851 34.3015 310.474 34.1497 309.516 34.2957C307.724 34.5872 306.472 35.6205 305.601 36.7322C305.167 37.2866 304.857 37.8252 304.66 38.2205C304.634 38.2718 304.612 38.3208 304.59 38.366V50.5281H307.487V50.2166H311.155V35.2917L311.163 35.2019C311.163 35.1986 311.163 35.1944 311.163 35.1902C311.163 35.1471 311.162 35.0681 311.152 34.9695C311.129 34.7482 311.077 34.5578 311.014 34.4373C310.973 34.3574 310.954 34.3494 310.917 34.3318ZM305.488 20.5671C307.371 19.8811 309.798 19.3751 312.927 19.1521C319.259 18.7008 323.392 21.5205 325.838 24.4675C327.029 25.9019 327.812 27.3486 328.299 28.4304C328.545 28.9752 328.72 29.4397 328.837 29.78C328.896 29.9506 328.941 30.0918 328.973 30.197C328.989 30.2495 329.001 30.2934 329.011 30.3279C329.016 30.3451 329.02 30.3603 329.024 30.3728C329.026 30.3789 329.027 30.3844 329.029 30.3894C329.029 30.3918 329.03 30.3941 329.031 30.3962C329.031 30.3973 329.032 30.3996 329.032 30.4001C329.028 30.4026 328.927 30.4305 326.134 31.1775L329.033 30.4031L329.134 30.7839V50.8005H333.817V65.2498H307.487V65.1326H281.89V50.5281H286.728V17.2791H280.875V6.25854C280.875 5.25024 281.362 4.54679 281.704 4.18823C282.027 3.84853 282.354 3.66592 282.508 3.58667C282.824 3.42435 283.097 3.35658 283.174 3.33765C283.378 3.2878 283.547 3.26897 283.597 3.26343C283.735 3.24809 283.869 3.2417 283.953 3.23804C284.141 3.22977 284.381 3.22515 284.642 3.22241C285.176 3.21682 285.923 3.21789 286.797 3.22339C288.552 3.23442 290.886 3.26351 293.211 3.29761C297.886 3.36613 302.443 3.4519 302.488 3.45288H305.488V20.5671Z" fill="#004785" stroke="#FDB825" stroke-width="6"/>
<path d="M342.957 20.583C347.506 18.8221 354.005 17.7231 361.838 20.1777C370.388 22.8573 373.531 29.7254 374.528 35.4043C375.025 38.2347 375.021 40.8771 374.897 42.7969C374.835 43.7629 374.742 44.5638 374.66 45.1367C374.619 45.4228 374.58 45.6566 374.549 45.8301C374.533 45.9154 374.518 45.9951 374.504 46.0635C374.502 46.0711 374.5 46.0795 374.498 46.0889H375.439L374.032 50.085C372.669 53.9571 370.644 57.7775 367.211 60.6367C363.837 63.4458 359.382 65.0971 353.552 65.2754L352.983 65.2881C346.556 65.3784 341.496 62.7093 338.127 60.1367C336.436 58.8453 335.132 57.5502 334.245 56.5713C333.8 56.0805 333.457 55.6644 333.218 55.3623C333.098 55.2111 333.004 55.0874 332.936 54.9971C332.903 54.952 332.876 54.9149 332.855 54.8867C332.845 54.8729 332.837 54.8611 332.83 54.8516C332.826 54.8467 332.823 54.8416 332.82 54.8379C332.819 54.8362 332.818 54.8344 332.817 54.833L332.815 54.8311L335.265 53.0996L332.814 54.8291L332.627 54.5645L332.502 54.2666C328.038 43.6955 328.502 36.3222 330.572 31.3936C331.59 28.9694 332.946 27.2682 334.085 26.1553C334.653 25.6003 335.166 25.191 335.559 24.9092C335.72 24.7937 335.862 24.6999 335.979 24.625C336.063 24.5528 336.165 24.4648 336.287 24.3662C336.621 24.0948 337.098 23.7303 337.709 23.3164C338.928 22.4902 340.697 21.4575 342.957 20.583ZM348.083 48.5068C348.549 49.031 349.103 49.4191 349.676 49.7217C350.408 50.1089 351.156 50.3398 351.733 50.4717C352.016 50.5363 352.245 50.5743 352.39 50.5947C352.446 50.6025 352.489 50.6071 352.517 50.6104C354.841 50.7276 356.146 49.9374 356.882 49.2646C357.169 49.0016 357.39 48.7347 357.553 48.5068H348.083ZM352.558 50.6152C352.558 50.6152 352.556 50.6145 352.552 50.6143C352.551 50.6142 352.55 50.6144 352.549 50.6143C352.555 50.6149 352.558 50.6152 352.558 50.6152Z" fill="#004785" stroke="#FDB825" stroke-width="6"/>
<path d="M201.465 4.5C218.824 4.50003 232.943 18.3191 233.417 35.5723L233.43 36.3965C233.429 54.0293 219.1 68.291 201.465 68.291C183.791 68.291 169.5 53.9906 169.5 36.3955C169.5 18.7622 183.829 4.5 201.465 4.5ZM174.426 32.6816L173.456 32.8721C173.976 45.6261 177.001 53.7263 181.329 58.6602C185.669 63.6076 191.257 65.3035 196.731 65.3779C202.194 65.4522 207.571 63.9142 211.564 62.3711C213.565 61.5983 215.226 60.8211 216.389 60.2363C216.97 59.944 217.427 59.6993 217.739 59.5273C217.896 59.4414 218.016 59.3728 218.098 59.3262C218.138 59.3028 218.17 59.2848 218.191 59.2725C218.202 59.2664 218.21 59.262 218.216 59.2588C218.218 59.2573 218.22 59.2558 218.222 59.2549L218.224 59.2539C218.224 59.2536 218.225 59.2532 217.971 58.8232L218.225 59.2529L217.854 58.3369C202.134 62.081 191.304 55.6911 184.372 48.3418C180.901 44.6614 178.412 40.7421 176.79 37.7402C175.98 36.2402 175.386 34.971 174.997 34.0791C174.803 33.6334 174.659 33.2819 174.564 33.043C174.517 32.9236 174.482 32.8324 174.459 32.7715C174.448 32.7411 174.439 32.7181 174.434 32.7031C174.431 32.6957 174.429 32.69 174.428 32.6865C174.427 32.6848 174.426 32.6834 174.426 32.6826V32.6816ZM204.397 19.9561C202.14 18.3072 200.153 17.9657 198.493 18.3164C196.855 18.6625 195.618 19.6649 194.802 20.5479C194.391 20.9923 194.079 21.4157 193.868 21.7275C193.763 21.8834 193.683 22.012 193.628 22.1016C193.601 22.1451 193.579 22.1822 193.567 22.2021C193.561 22.2132 193.558 22.2168 193.558 22.2168C193.558 22.2162 193.56 22.2146 193.562 22.2119C193.563 22.2096 193.567 22.2043 193.572 22.1973C193.575 22.1929 193.589 22.1745 193.608 22.1533C193.62 22.1414 193.653 22.1109 193.675 22.0938C193.706 22.0734 193.789 22.0376 193.874 22.0146L193.973 22.9951C194.003 22.9918 194.037 22.9838 194.071 22.9746L194.073 22.9844C199.246 21.9296 203.499 23.6583 206.481 25.6738C207.973 26.6816 209.139 27.7569 209.932 28.5801C210.327 28.9911 210.629 29.3382 210.831 29.5811C210.932 29.7025 211.008 29.7983 211.058 29.8623C211.083 29.8943 211.101 29.9188 211.113 29.9346C211.119 29.9422 211.123 29.9476 211.126 29.9512C211.127 29.953 211.128 29.9544 211.129 29.9551V29.9561L211.14 29.9473L211.966 29.4102C209.169 24.5328 206.641 21.5948 204.397 19.9561ZM205.192 7.93066C204.307 7.90496 203.579 7.92762 203.07 7.95605C202.816 7.97027 202.617 7.98557 202.479 7.99805C202.411 8.00429 202.358 8.00977 202.321 8.01367C202.303 8.01561 202.289 8.01743 202.279 8.01855C202.274 8.01912 202.27 8.0192 202.268 8.01953C202.266 8.01967 202.265 8.02041 202.265 8.02051H202.263L202.196 9C211.552 11.4546 217.037 14.9532 220.17 17.8076C221.737 19.2356 222.719 20.5057 223.304 21.4092C223.596 21.8611 223.788 22.2217 223.905 22.4639C223.964 22.585 224.003 22.6752 224.025 22.7314C224.032 22.7469 224.036 22.759 224.039 22.7676C224.04 22.7718 224.042 22.7761 224.043 22.7803L224.142 23.1504H224.525C224.651 23.1344 224.859 23.0231 224.933 22.9404C224.969 22.8802 225.011 22.7754 225.02 22.7334C225.031 22.6637 225.025 22.6074 225.023 22.5957C225.019 22.5591 225.012 22.5301 225.01 22.5225C225.004 22.4997 224.998 22.4789 224.993 22.4658C224.993 22.4645 224.992 22.4633 224.991 22.4619C222.739 14.1382 217.042 10.513 211.929 8.98633C209.374 8.22343 206.962 7.98204 205.192 7.93066Z" fill="#FDB825" stroke="#FDB825"/>
<path d="M174.616 35.6509C174.963 36.3892 175.392 37.2569 175.91 38.2153C177.56 41.2693 180.097 45.2666 183.644 49.0278C190.224 56.0049 200.296 62.1753 214.583 59.9937C213.626 60.4395 212.485 60.9425 211.199 61.439C207.26 62.9597 202.016 64.4492 196.731 64.3774C191.458 64.3058 186.17 62.6823 182.065 58.0005C178.263 53.6646 175.426 46.6471 174.616 35.6509Z" fill="#221E20" stroke="#FDB825"/>
<path d="M205.624 8.94995C207.279 9.02666 209.407 9.27754 211.643 9.94507C215.62 11.1327 219.932 13.6278 222.545 18.8074C222.064 18.2634 221.497 17.6784 220.829 17.0691C217.949 14.4407 213.225 11.3516 205.624 8.94995Z" fill="#221E20" stroke="#FDB825"/>
<path d="M198.686 19.2944C200.023 19.0125 201.729 19.2512 203.802 20.7632C205.257 21.8243 206.885 23.509 208.674 26.063C208.181 25.6594 207.636 25.2472 207.041 24.8452C204.138 22.8828 200.024 21.1437 195.028 21.811C195.168 21.6282 195.333 21.4293 195.521 21.2261C196.261 20.4235 197.327 19.5811 198.686 19.2944Z" fill="white" stroke="#FDB825"/>
<path d="M178.046 86.2385H240.658V188.643H257.046V227.285H174.479V189.811H192.038V125.466H178.206C176.267 124.965 174.57 123.133 174.385 122.651C174.331 122.461 174.268 122.168 174.251 122.067C174.227 121.907 174.218 121.779 174.216 121.753C174.21 121.668 174.207 121.599 174.206 121.579C174.204 121.523 174.204 121.468 174.203 121.433C174.202 121.353 174.201 121.248 174.2 121.13C174.199 120.889 174.199 120.541 174.198 120.109C174.198 119.241 174.2 118.002 174.201 116.524C174.204 113.563 174.206 109.624 174.197 105.701C174.187 101.774 174.164 97.8802 174.118 95.0012C174.114 94.737 174.108 94.4826 174.104 94.2385H168.222L175.069 87.4075C175.53 86.9474 176.569 86.1783 178.046 86.2385Z" fill="#004785" stroke="#FDB825" stroke-width="8"/>
<path d="M289.059 86.2739C308.996 76.4245 324.71 78.0656 335.604 82.5815C339.467 84.183 342.666 86.1227 345.192 87.9624V82.5005H381.931V84.5874C383.16 84.5459 384.553 84.9466 385.924 86.269C385.928 86.3637 385.931 86.4785 385.931 86.5005V90.5005H385.866C385.846 91.7554 385.823 93.2675 385.796 94.9722C385.715 100.073 385.608 106.899 385.501 113.732C385.394 120.565 385.286 127.406 385.205 132.536C385.165 135.101 385.132 137.238 385.108 138.733C385.097 139.48 385.087 140.067 385.081 140.466C385.078 140.666 385.076 140.82 385.074 140.922C385.073 140.974 385.073 141.012 385.072 141.039C385.072 141.052 385.071 141.062 385.071 141.069V141.088C385.071 141.096 383.358 142.752 381.072 142.809V145.012H344.68L344.607 141.085C344.47 133.56 342.95 128.518 341.008 125.138C339.087 121.796 336.638 119.871 334.242 118.732C331.796 117.569 329.311 117.184 327.391 117.106C326.441 117.068 325.66 117.105 325.135 117.15C324.873 117.172 324.678 117.197 324.561 117.212C324.502 117.22 324.464 117.226 324.446 117.229C324.443 117.23 324.44 117.229 324.438 117.229L324.04 117.301L323.615 117.287C318.5 117.112 314.933 118.89 312.262 121.613C309.47 124.458 307.508 128.505 306.181 132.941C304.865 137.338 304.26 141.822 303.99 145.251C303.856 146.955 303.807 148.372 303.791 149.353C303.783 149.843 303.784 150.223 303.786 150.474C303.787 150.6 303.788 150.693 303.789 150.751C303.79 150.78 303.791 150.8 303.791 150.812V150.822L303.792 150.838V150.857L303.816 151.807C304.425 171.576 310.769 179.689 315.943 183.131C318.674 184.948 321.381 185.677 323.405 185.952C324.416 186.089 325.241 186.112 325.788 186.102C326.061 186.097 326.262 186.084 326.379 186.075C326.437 186.07 326.474 186.066 326.488 186.065H326.491L326.928 186.006L327.396 186.054C331.533 186.476 334.269 185.566 336.164 184.263C338.127 182.914 339.55 180.893 340.562 178.555C341.574 176.217 342.09 173.755 342.345 171.824C342.471 170.871 342.529 170.078 342.556 169.536C342.569 169.266 342.575 169.06 342.577 168.93C342.578 168.866 342.578 168.82 342.578 168.794C342.578 168.79 342.578 168.785 342.578 168.782L342.531 164.735H388.26L387.99 168.988C387.068 183.542 382.825 193.349 378.622 199.604C376.53 202.718 374.472 204.917 372.889 206.367C372.098 207.091 371.426 207.628 370.928 207.999C370.749 208.131 370.592 208.241 370.461 208.332C343.046 235.412 310.579 227.822 292.192 219.791V219.792C279.432 214.257 268.83 204.539 262.613 192.006V192.005C246.369 159.257 258.705 122.767 268.255 105.871L268.261 105.86L268.7 105.103C273.311 97.3199 279.989 90.8846 288.105 86.7524L288.106 86.7515L289.059 86.2739ZM324.44 117.229H324.443C324.445 117.229 324.448 117.228 324.45 117.228C324.452 117.228 324.454 117.227 324.454 117.227L324.453 117.226L324.44 117.229Z" fill="#004785" stroke="#FDB825" stroke-width="8"/>
<path d="M392.466 32C392.631 32.0001 407.04 32.0687 421.379 32.1367C428.559 32.1708 435.729 32.2049 441.102 32.2305C443.788 32.2432 446.025 32.2533 447.589 32.2607C448.371 32.2645 448.985 32.2675 449.402 32.2695C449.611 32.2705 449.772 32.271 449.879 32.2715C449.932 32.2717 449.973 32.2723 450 32.2725H450.043C450.047 32.2746 451.735 33.9811 451.802 36.2725H454.021V132.828L464.164 124.025H460.067V85.9658H544.938V124.298H526.726L503.389 140.901L533.222 187.786H552V227.286H471.228V188.37H479.474L467.725 170.685L454.371 182.491V188.059H467.833V227.286H388.192V188.059H405.439V70.332H388.466V32H392.466Z" fill="#004785" stroke="#FDB825" stroke-width="8"/>
<path d="M8.0293 37.5291L118.34 38.3464L118.339 38.3474C127.72 38.3896 137.061 40.6184 145.368 45.074L146.169 45.5125L146.175 45.5154L146.895 45.9255C161.876 54.613 168.828 67.9125 171.576 81.0593C174.316 94.1689 172.922 107.263 171.256 116.005C171.017 119.829 170.154 125.104 167.68 131.272C164.694 141.9 156.858 148.942 147.466 153.529C138.055 158.125 126.731 160.45 116.033 161.568C105.289 162.691 94.9127 162.62 87.2471 162.275C83.9261 162.126 81.101 161.921 78.959 161.74V186.89H107.014V227.286H4.58496V187.474H28.2705V76.7566H4V37.4998L8.0293 37.5291ZM78.6855 121.554H102.691C102.714 121.554 102.756 121.553 102.814 121.551C102.932 121.546 103.121 121.536 103.369 121.518C103.868 121.483 104.604 121.416 105.506 121.287C107.324 121.026 109.736 120.527 112.19 119.586C117.119 117.696 121.636 114.307 122.76 107.924L122.787 107.77L122.826 107.619C122.828 107.611 122.832 107.594 122.838 107.571C122.85 107.523 122.868 107.444 122.893 107.336C122.942 107.119 123.015 106.788 123.099 106.357C123.267 105.494 123.482 104.24 123.652 102.727C123.997 99.6703 124.149 95.6987 123.479 91.78C122.807 87.8567 121.362 84.2575 118.742 81.5896C116.196 78.9969 112.165 76.8971 105.523 76.5974C105.509 76.597 105.489 76.5972 105.464 76.5964C105.405 76.5947 105.317 76.5919 105.203 76.5886C104.975 76.5821 104.641 76.5724 104.216 76.5603C103.365 76.5361 102.15 76.5024 100.692 76.4617C97.7769 76.3802 93.8921 76.2728 90.0127 76.1707C86.1317 76.0685 82.262 75.9717 79.375 75.9099C79.1381 75.9048 78.9081 75.8998 78.6855 75.8953V121.554ZM122.824 107.626V107.624L122.825 107.622L122.824 107.626Z" fill="#004785" stroke="#FDB825" stroke-width="8"/>
</svg>
