<svg version="1.1" id="Layer_1" xmlns="http://www.w3.org/2000/svg" xlink="http://www.w3.org/1999/xlink" x="0px" y="0px" viewBox="116.1 204.3 1383.9 534.2" enable-background="116.1 204.3 1383.9 534.2" space="preserve">
<g>
	<path fill="#004785" d="M551.5,396.8h150.6v263h42v78.7H553v-75.7h45V477h-45.7C552.2,477,552.6,395.7,551.5,396.8z"/>
	<path fill="#004785" d="M1074.4,387.2h-83.9v27c0,0-52.7-67.8-151.9-17.2c-19.6,10-35.7,25.8-46.6,45
		c-23.8,42.2-53.6,132-14.2,211.6c14.8,29.9,40.1,53.2,70.7,66.5c45.9,20.1,124.1,37.9,190-28c0,0,36.7-22.5,41.2-93.7h-95.9
		c0,0,0.7,59.9-50.2,54.7c0,0-67.4,9-69.7-100.4c0,0-3-98.9,61.4-96.7c0,0,62.2-11.2,63.7,71.2h83.2
		C1072.2,527.3,1074.4,386.5,1074.4,387.2z"/>
	<path fill="#004785" d="M1101.4,257.5v77.9h43.5v322.9h-44.2v80.2h183.6v-80.2h-34.5v-29.2l46.5-41.2l47.2,71.2h-30v79.4H1500
		v-80.9h-43.5l-84.7-133.4l70.4-50.2h39.7v-77.9h-197v77.2h27.7l-63.7,55.4V258.2C1249,258.2,1102.1,257.5,1101.4,257.5z"/>
	<path fill="#004785" d="M750.6,330.3c-1.2,1.2,0,23.6,0,23.6h70.2v-24.7h-16.3V232h14v25.3h25.8v-47.2H729.8v45h25.3v-23h18v97.5
		C773,329.5,751.7,329.2,750.6,330.3z"/>
	<path fill="#004785" d="M852.6,210.1v20.6h15v100.8h-12.4v22.1h55.1v-22.1H898V291c0,0,4.9-14.2,19.1-16.5
		c14.2-2.2,13.1,10.5,13.1,10.5v45.7h-9.4v23.2h52.1v-21.7h-12v-58.1c0,0-6.7-25.1-33.3-23.2c-26.6,1.9-27.3,12-27.3,12v-52.3
		C900.2,210.6,852.6,209.7,852.6,210.1z"/>
	<path fill="#004785" d="M1050.1,253.2c-36.3-11.4-59.4,10.3-59.4,10.3s-28.1,15.4-6.4,66.9c0,0,16.9,24,45.3,23.6
		c28.5-0.4,40.3-15.4,46.8-33.9h-27c0,0-4.9,12.5-21.4,11.6c0,0-20.4-1.5-21.7-20.8h71C1077.4,310.8,1086.4,264.6,1050.1,253.2z
		 M1006.5,285c24.3-24.3,39.9,0,39.9,0H1006.5z"/>
	<path fill="#FDB825" d="M641.4,204.3c-45.9,0-83.2,37.2-83.2,83.2c0,45.9,37.2,83.2,83.2,83.2c45.9,0,83.2-37.2,83.2-83.2
		C724.5,241.5,687.3,204.3,641.4,204.3z M667.2,270.2c0,0-17.6-24-45-18.4C622.3,251.8,638.7,220.4,667.2,270.2z M570.9,278.4
		c0,0,31.1,86.2,112.8,66.7C683.7,345.1,576.2,408.8,570.9,278.4z M643.6,215.9c0,0,45.7-5.6,56.9,36.3
		C700.6,252.2,691.9,228.6,643.6,215.9z"/>
	<path fill="#221E20" d="M570.9,278.4c5.2,130.4,112.8,66.7,112.8,66.7C602,364.6,570.9,278.4,570.9,278.4z"/>
	<path fill="#221E20" d="M643.6,215.9c48.3,12.7,56.9,36.3,56.9,36.3C689.3,210.3,643.6,215.9,643.6,215.9z"/>
	<path fill="#FFFFFF" d="M667.2,270.2c-28.5-49.8-45-18.4-45-18.4C649.6,246.2,667.2,270.2,667.2,270.2z"/>
	<path fill="#004785" d="M515.6,498.9c6.2-15.3,8.2-28.2,8.7-37.2c8.4-43.6,13.9-129.8-59.1-170.8c-20.2-11.3-43.2-17-66.4-17.1
		l-282.7-2.1v80.2h62.2v304.9h-60.7v81.7h242v-83.2h-71.9v-86.2C287.7,569.1,489.6,594.3,515.6,498.9z M287,487.5V349.6
		c-0.4-0.4,79.4,1.9,79.4,1.9c76.8,3.4,53.9,92.5,53.9,92.5c-7.5,42.7-61.4,43.5-61.4,43.5H287z"/>
	<path fill="#004785" d="M523.8,443.8"/>
</g>
</svg>
