<svg xmlns="http://www.w3.org/2000/svg" viewBox="0 0 213.34 132.03"><title>US_AZ_tripletwist</title><g id="Layer_2" data-name="Layer 2"><g id="Layer_1-2" data-name="Layer 1"><path d="M62.2,120.8c-3.8,6.8-10.9,7.7-17.2,10.4-3.4,1.5-5.3.5-7.1-2.4-5.2-8.5-10.6-16.9-15.9-25.4l-1.4-2.1c-2.4.7-4.7,1.4-7.1,2.2-2.8.9-4.8.2-6.2-2.5-1.8-3.4-3.7-6.8-5.5-10.2C-.1,87.2.7,85.3,4.7,84.1c3.8-1.2,7.7-2.1,11.8-3.2-.7-12.8-1.3-25.7-2-38.5-3.2-.9-6.4-.8-9.5-.9-3.4-.1-5.1-1.6-5-5.1.1-3.7,0-7.5,0-11.2s1.5-5,5.1-4.7C18,21.7,31.2,22,43.8,24.8c6,1.3,11.6,1.1,17.4,1.3,6.5.2,12.3,2.9,18.7,5.1.8-6-2.1-13.5,7.5-15.2-2.6-4.3-3.5-8.1-2.2-12.3C86,1,87.4-.4,90.1.1c6.2,1,12.3,2.1,18.4,3.3a3.75,3.75,0,0,1,3.2,4.4c-.1,1.4-.1,3-.8,4-3.2,4.7-.5,9.6-.7,14.9,3.3-.2,6.4-.3,9.4-.5,7.2-.4,14.3-.5,20.9,2.8a2.42,2.42,0,0,0,2.7-.2c6-3.6,12.7-1.8,19-1.4,2.9.2,4.6,3.9,7.2,5.6.3-.2.6-.3.6-.5,2.5-6.2,7.1-8.5,13.7-8.9,7.8-.5,15.6-2,23.4-3,5-.6,6.5.8,6.2,5.7-.2,2.9-.3,5.7-.5,8.6-.1,1,.2,2.3-.7,2.8-4.3,2.5-2.9,6.6-3,10.3-.1,2.6-.2,5.2-.5,7.9-.2,2.4-.6,4.7,1.4,6.6,1,.9.7,2.4.6,3.6-.4,5.1.1,10.3-1.5,15.2a2.46,2.46,0,0,0,1.1,2.9c3,2.3,2.9,4.8,1,7.8a94.16,94.16,0,0,0-4.9,8.8c-1.5,3.1-3.7,3.8-6.8,2.7-2.3-.8-4.7-1.4-7.2-2.1-5.4,8.8-10.7,17.4-16,26-3.3,5.4-3.4,5.4-9.1,3.4-1.2-.4-2.3-.8-3.5-1.3-4.5-1.8-8.7-3.4-13.9-1.1-4,1.8-8.8,1-12.9-.5-7.3-2.7-14.9-2.3-22.4-2.9a111.38,111.38,0,0,0-21.6.3c-.2,0-.5.1-.7.1-5.7-2.4-11.1.6-16.6,1.4-4.8.7-8.6.4-11.4-3.9A7.75,7.75,0,0,0,62.2,120.8Z" style="fill:#162b4c"/><path d="M106.8,90.5c-.3-.2-.5-.9-1-.4-.1.1.2.7.3,1.1,3.3,9,2.5,18,.6,27.1-.4,1.8-.1,2.6,1.8,2.6a122.39,122.39,0,0,1,16.1.7c1.2-1.4.5-2.7.7-3.9,2-9.2-.1-14.7-7.6-19.9C114.1,95.3,110.4,92.9,106.8,90.5Z" style="fill:#162b4c"/><path d="M71.6,100.5c-3.5-6.2-6.5-11.6-9.6-17-.7-1.2-1.1-2.6-2.8-2.7a45.39,45.39,0,0,0-13.2.5c7.9,13.7,15.7,27.1,23.4,40.5a2,2,0,0,0,2.4,1.2c3.4-.6,6.8-1.1,10.4-1.7.6-5-.6-9.8-.3-15.5,3,4.8,5.5,8.9,8,13,.6,1,1,2.3,2.7,2.2,3.1-.2,6.1-.3,9.4-.5-1.8-10.8-3.6-20.9-5.2-31.1-1.6-9.6-1.6-9.7-11.4-9a3.37,3.37,0,0,0-1.2.4c.8,6.2,3.2,12.1,3.7,19.3-2.4-3.6-4.2-6.4-6-9.1-3.6-5.4-4-5.6-10.7-4.2C70.7,91.1,72.5,95.2,71.6,100.5Z" style="fill:#162b4c"/><path d="M206.7,64.3H189.6c.1-2.6-.4-4.9.6-7,4.8-.3,9.5-.6,14.5-1-.1-3.8,1-7.3.4-10.6H189.2c.1-2.6.3-5,.4-7.6,5.5-.7,10.8-1.3,16.1-2,1.4-.2,3.3.2,3.3-2.1V24.2c-10,1.4-19.9,2.7-29.8,4.1-1.8.2-2,1.4-2,2.9,0,3.5-.1,7-.1,10.5V75.3c9.6.8,19.2,1.5,28.9,2.3C206.2,73,206.5,69,206.7,64.3Z" style="fill:#162b4c"/><path d="M72.6,54.8c5.4-3.2,6.9-7.8,5.9-13.3C77.4,35.7,73.6,32.3,68,31c-6.4-1.6-12.8-1.2-19.6,0,.5,14.5.9,28.7,1.4,43.4l11.6-.6V61.1a71.16,71.16,0,0,1,6.8,10.4c.6,1,1,2.3,2.6,2.3H83.5C79.7,67.2,76.3,61.1,72.6,54.8Z" style="fill:#162b4c"/><path d="M43.9,28.2c-13.3-1.3-26.4-2.7-39.7-4V37.3c4.7,1,9.4.1,14,1.4.7,13,1.4,25.9,2.1,39.1,5.2-.8,10-1.6,15.1-2.4-.7-12-1.4-23.6-2.1-35.4H43.9Z" style="fill:#162b4c"/><path d="M130.5,111.2c-.8,2.3-.5,4.7-.9,7s.5,3.6,2.8,4.3a41.86,41.86,0,0,0,13.6,2.4c5.9-.1,9.9-2.9,12.3-8.2s.4-9.7-3.2-13.6a36.82,36.82,0,0,0-8-6.1c-1.7-1-2.9-2.6-2.1-4.7s2.7-2.3,4.6-2.2c3,.1,5.6,1.7,8.5,2.6,1.5-3.2,3.3-6,4.1-9.3-6.4-3.3-15.7-5.1-22.3-4.4-10.1,1-14.4,10.2-8.8,18.5a33.66,33.66,0,0,0,4.7,5.3,66.52,66.52,0,0,0,5.9,4.6c1.7,1.3,2.9,3,2,5.2s-3.1,1.7-4.9,1.2C136,113,133.3,112.1,130.5,111.2Z" style="fill:#162b4c"/><path d="M208.7,88.2c-1.1-.4-2-.8-3-1.1a133,133,0,0,0-31.3-5.2c-7-.4-9.2,1.7-10.2,8.9,3.8.7,7.7,1.4,11.8,2.1-5.9,10.3-11.6,20.2-17.5,30.4,4.4,1.6,8.4,3,12.7,4.6,5.9-9.6,11.8-19,17.5-28.5,1.2-2,2.3-2.9,4.7-1.9a73.63,73.63,0,0,0,8.7,2.5C204.4,96,206.5,92.2,208.7,88.2Z" style="fill:#162b4c"/><path d="M11.3,100.1C13.8,99.3,16,99,18,98c3.5-1.7,5.2-.4,7,2.7,5.5,9.2,11.3,18.2,17.1,27.3,4.3-1.6,8.4-3.1,12.6-4.6C48.6,113.1,42.8,103.2,36.8,93c3.7-.8,6.9-1.5,10.3-2.2a51.18,51.18,0,0,1-3-5.5c-1.1-2.9-3-3.7-6.1-3.3-9.8,1-19.7,2.3-29.3,5-1.3.3-2.7.3-3.7,1.7C7,92.4,9.1,96.1,11.3,100.1Z" style="fill:#162b4c"/><path d="M126.4,59.3c4.4-.8,8.4-1.8,11.7-4.4,5.2-4.1,6.2-9.7,5-15.8-1.1-5.2-4.9-7.6-9.8-8.5-6.8-1.3-13.6-.4-20.7-.1.4,14.7.9,29,1.3,43.3h12.5Z" style="fill:#162b4c"/><path d="M160.8,61.3V31H147.2V73.8h25.1v-12C168.4,61.7,164.7,61.5,160.8,61.3Z" style="fill:#162b4c"/><path d="M103.6,31.2c-5.9-.5-11.3-.9-16.7-1.3a1.82,1.82,0,0,0-2.1.9c-3.7,6.4-1.9,17.8,4,22.7,4.5,3.7,9.5,6.8,15.2,10.8-2.5-6-3.4-11.3-2.8-16.7S102.8,36.8,103.6,31.2Z" style="fill:#162b4c"/><path d="M87.4,56.3c4.7,18.4,16.5,30.6,32.2,39.4C117,76,102.6,66,87.4,56.3Z" style="fill:#162b4c"/><path d="M100.8,14.8c7-4.4,7-4.4,6.4-7.8-5.9-1-11.9-2.1-18-3.2-.2,2-1.2,3.3-.4,4.9,2.8.5,5.6,1.1,9.2,1.8-2.1,1.1-3.3,1.7-4.5,2.3s-2.3.9-1.9,2.7c.3,1.6,1.3,1.9,2.6,2.1a9,9,0,0,1,2.2.6c1.3.5,2.8,1.1,2.2,2.8-.5,1.5-2,1.7-3.5,1.4-2.4-.4-4.2-1.9-6-3.6-1.7,1.2-3.5,1.7-4.7,3.2,3.9,5,11.3,7.8,17,5.2,4.8-2.2,5.9-7.4,2.1-10.5C102.7,16,101.7,15.5,100.8,14.8Z" style="fill:#162b4c"/><path d="M71.6,100.5c.9-5.4-.9-9.5-.6-13.7,6.7-1.3,7.1-1.2,10.7,4.2,1.8,2.8,3.7,5.5,6,9.1C87.2,92.9,84.9,87,84,80.8a8.4,8.4,0,0,1,1.2-.4c9.8-.7,9.9-.6,11.4,9,1.7,10.2,3.4,20.4,5.2,31.1-3.3.2-6.4.3-9.4.5-1.6.1-2.1-1.2-2.7-2.2-2.5-4.1-5-8.2-8-13-.3,5.7.9,10.5.3,15.5-3.5.6-6.9,1.1-10.4,1.7a2.09,2.09,0,0,1-2.4-1.2C61.5,108.4,53.7,95,45.8,81.3A45.63,45.63,0,0,1,59,80.8c1.7.1,2.2,1.5,2.8,2.7C65,88.9,68.1,94.3,71.6,100.5Z" style="fill:#a0cb3a"/><path d="M206.7,64.3c-.3,4.7-.5,8.7-.7,13.2-9.7-.8-19.3-1.6-28.9-2.3V41.6c0-3.5.1-7,.1-10.5,0-1.5.2-2.7,2-2.9,9.9-1.3,19.7-2.7,29.8-4.1v9.8c0,2.3-2,1.9-3.3,2.1-5.3.7-10.6,1.3-16.1,2-.1,2.6-.3,4.9-.4,7.6h15.9c.6,3.4-.5,6.9-.4,10.6-5,.3-9.7.7-14.5,1-1,2.2-.5,4.4-.6,7C195.3,64.3,200.8,64.3,206.7,64.3Z" style="fill:#f07d25"/><path d="M72.6,54.8c3.6,6.4,7.1,12.4,10.8,19H70.7c-1.6,0-2-1.3-2.6-2.3a71.16,71.16,0,0,0-6.8-10.4V73.8c-4,.2-7.5.4-11.6.6-.5-14.7-.9-28.9-1.4-43.4,6.8-1.2,13.2-1.6,19.6,0,5.5,1.4,9.4,4.7,10.5,10.5C79.6,47,78,51.6,72.6,54.8ZM61,48.1c3-.3,5.4-1.2,5.5-4.4.1-3.5-2.7-3.9-5.5-4.3A36.17,36.17,0,0,0,61,48.1Z" style="fill:#f07d25"/><path d="M43.9,28.2V40H33.3c.7,11.8,1.4,23.4,2.1,35.4-5.1.8-9.8,1.6-15.1,2.4-.7-13.2-1.4-26.1-2.1-39.1-4.6-1.3-9.3-.4-14-1.4V24.2C17.5,25.5,30.6,26.8,43.9,28.2Z" style="fill:#f07d25"/><path d="M130.5,111.2c2.8.9,5.5,1.8,8.3,2.6,1.8.5,3.9,1,4.9-1.2s-.3-3.8-2-5.2c-1.9-1.6-4.1-2.9-5.9-4.6a33.66,33.66,0,0,1-4.7-5.3c-5.7-8.3-1.3-17.5,8.8-18.5,6.6-.7,15.9,1.1,22.3,4.4-.8,3.2-2.6,6.1-4.1,9.3-2.9-1-5.5-2.6-8.5-2.6-2-.1-3.9,0-4.6,2.2s.5,3.7,2.1,4.7a36.82,36.82,0,0,1,8,6.1c3.6,4,5.6,8.3,3.2,13.6s-6.4,8.1-12.3,8.2a42.33,42.33,0,0,1-13.6-2.4c-2.3-.7-3.2-2-2.8-4.3S129.6,113.5,130.5,111.2Z" style="fill:#a0cb3a"/><path d="M208.7,88.2,202.2,100a79.56,79.56,0,0,1-8.7-2.5c-2.4-1-3.5-.1-4.7,1.9-5.7,9.5-11.5,18.9-17.5,28.5-4.3-1.5-8.3-3-12.7-4.6,5.9-10.2,11.5-20.1,17.5-30.4-4.2-.7-8-1.4-11.8-2.1,1-7.2,3.2-9.3,10.2-8.9a133,133,0,0,1,31.3,5.2C206.6,87.4,207.5,87.8,208.7,88.2Z" style="fill:#a0cb3a"/><path d="M11.3,100.1C9.1,96.1,7,92.4,5,88.7c1-1.4,2.4-1.3,3.7-1.7,9.6-2.7,19.5-4,29.5-5.1,3-.3,4.9.4,6.1,3.3a51.18,51.18,0,0,0,3,5.5c-3.5.7-6.6,1.4-10.3,2.2,6,10.2,11.9,20.2,17.9,30.4-4.3,1.6-8.3,3-12.6,4.6-5.8-9.2-11.6-18.2-17.1-27.3-1.8-3.1-3.5-4.4-7-2.7A62.09,62.09,0,0,1,11.3,100.1Z" style="fill:#a0cb3a"/><path d="M126.4,59.3V73.7H113.9c-.4-14.3-.9-28.5-1.3-43.3,7.1-.3,13.9-1.2,20.7.1,4.9.9,8.7,3.3,9.8,8.5,1.2,6.1.2,11.7-5,15.8C134.7,57.5,130.8,58.5,126.4,59.3Zm-.4-11c2.8-.7,5.3-1.4,5.3-4.7s-2.6-3.8-5.3-4.1A28.84,28.84,0,0,0,126,48.3Z" style="fill:#f07d25"/><path d="M160.8,61.3c3.9.2,7.6.4,11.5.5v12H147.2V31h13.6Z" style="fill:#f07d25"/><path d="M103.6,31.2c-.8,5.7-1.8,11-2.4,16.5s.3,10.6,2.8,16.7c-5.7-4-10.7-7.1-15.2-10.8-6-4.9-7.7-16.3-4-22.7a1.82,1.82,0,0,1,2.1-.9C92.3,30.3,97.8,30.7,103.6,31.2Z" style="fill:#f07d25"/><path d="M106.8,90.5c3.6,2.4,7.3,4.8,10.9,7.3,7.5,5.2,9.6,10.7,7.6,19.9-.3,1.2.5,2.5-.7,3.9-5.2-.7-10.6-.6-16.1-.7-1.9,0-2.2-.8-1.8-2.6,1.9-9.1,2.7-18.1-.6-27.1A4.62,4.62,0,0,1,106.8,90.5Z" style="fill:#a0cb3a"/><path d="M87.4,56.3C102.6,66,117,76,119.6,95.7,103.9,86.9,92.1,74.7,87.4,56.3Z" style="fill:#f4bf18"/><path d="M100.8,14.8a27.5,27.5,0,0,1,2.8,1.9c3.8,3.1,2.6,8.3-2.1,10.5-5.7,2.7-13.1-.2-17-5.2,1.2-1.5,3-2,4.7-3.2,1.7,1.7,3.5,3.2,6,3.6,1.5.2,2.9.1,3.5-1.4.6-1.8-.9-2.3-2.2-2.8a7.94,7.94,0,0,0-2.2-.6c-1.4-.1-2.3-.5-2.6-2.1-.3-1.8.8-2.1,1.9-2.7s2.4-1.3,4.5-2.3c-3.6-.7-6.4-1.3-9.2-1.8-.8-1.6.3-3,.4-4.8,6.1,1.1,12,2.1,18,3.2C107.8,10.5,107.8,10.5,100.8,14.8Z" style="fill:#f4bf18"/><path d="M106.1,91.2c-.1-.4-.4-1-.3-1.1.5-.4.7.2,1,.4A4.62,4.62,0,0,0,106.1,91.2Z" style="fill:#a0cb3a"/><path d="M61,48.1a31.69,31.69,0,0,1,0-8.7c2.8.5,5.6.9,5.5,4.3C66.5,46.9,64,47.9,61,48.1Z" style="fill:#162b4c"/><path d="M126,48.3a32.41,32.41,0,0,1,0-8.8c2.7.3,5.3.8,5.3,4.1S128.8,47.6,126,48.3Z" style="fill:#162b4c"/></g></g></svg>