<svg width="1024" height="1024" viewBox="0 0 1024 1024" fill="none" xmlns="http://www.w3.org/2000/svg">
<path d="M0 232C0 103.87 103.87 0 232 0H792C920.13 0 1024 103.87 1024 232V792C1024 920.13 920.13 1024 792 1024H232C103.87 1024 0 920.13 0 792V232Z" fill="url(#paint0_linear_2025_119)"/>
<mask id="path-2-inside-1_2025_119" fill="white">
<path d="M715.753 185.298C724.734 183.642 734.057 189.067 738.146 197.024C740.698 202.236 741.566 208.252 740.606 213.977C740.108 217.327 738.828 220.476 737.655 223.626C734.362 232.416 730.729 241.083 727.736 249.98C732.308 255.718 735.421 262.431 738.437 269.072C748.079 291.136 749.801 316.131 745.442 339.668C744.055 347.361 742.156 354.949 740.307 362.544C745.285 362.345 750.269 362.011 755.261 362.225C757.465 362.339 759.335 360.966 761.256 360.07C764.698 358.236 768.545 357.346 772.356 356.63C790.553 353.267 808.743 349.817 826.96 346.561C835.657 344.996 845.001 348.531 850.647 355.301C857.111 362.946 860.758 373.134 859.755 383.175C859.108 390.514 855.732 397.332 851.35 403.15C838.28 420.294 824.812 437.14 811.735 454.277C821.357 469.011 830.587 483.986 840.08 498.798C843.862 504.578 844.517 511.768 843.969 518.495C854.75 526.857 862.478 539.059 865.359 552.399C866.788 558.699 866.781 565.205 866.681 571.627C865.898 592.546 857.984 613.062 844.949 629.389C848.512 637.104 853.938 643.88 856.803 651.937C860.016 661.536 857.578 672.324 852.074 680.608C845.042 691.836 832.974 699.615 819.954 701.812C755.935 712.962 691.846 723.714 627.791 734.65C557.144 746.66 486.513 758.784 415.888 770.922C360.715 780.344 305.57 789.972 250.368 799.23C241.97 801.008 233.003 799.692 225.537 795.441C214.87 789.403 207.888 777.884 206.459 765.824C205.315 757.646 207.498 749.561 208.521 741.497C213.335 710.166 218.938 678.964 223.759 647.634C211.672 643.766 200.223 637.629 190.772 629.11C173.607 613.957 162.863 592.432 158.922 570.047C154.329 543.489 158.184 515.862 168.181 490.953C177.668 467.252 191.91 445.473 209.723 427.204C234.561 401.598 267.782 383.216 303.593 379.704C306.288 379.334 309.688 380.06 311.664 377.719C322.416 363.036 335.443 350.144 349.188 338.276C370.819 319.844 394.776 304.2 420.161 291.451C444.203 279.598 469.296 269.878 494.959 262.154C500.832 260.404 506.763 258.819 512.73 257.405C516.691 251.205 520.445 244.847 525.202 239.2C540.427 220.542 560.963 206.228 583.739 198.413C612.075 189.133 643.399 191.451 671.053 202.003C672.447 202.793 673.927 201.954 675.236 201.398C683.108 197.786 691.17 194.608 699.128 191.173C704.54 188.897 709.922 186.309 715.753 185.3V185.298ZM717.139 201.631C701.886 207.711 686.648 213.848 671.267 219.614C670.208 220.318 669.126 219.57 668.124 219.244C650.852 212.702 632.178 209.474 613.712 210.952C600.159 212.097 586.762 215.738 574.68 222.038C556.625 231.416 541.473 246.023 530.75 263.259C528.332 267.091 526.582 271.294 524.314 275.212C506.395 277.054 488.994 282.209 472.184 288.516C433.474 302.489 396.696 322.258 364.646 348.176C356.234 355.159 347.702 362.106 340.392 370.269C344.509 368.562 348.264 366.139 352.224 364.125C376.066 351.247 401.04 340.474 426.746 331.899C453 323.196 480.254 317.201 507.888 315.423C507.931 320.771 507.931 326.118 507.945 331.466C472.406 335.974 437.903 348.462 407.683 367.696C397.55 374.452 387.574 381.584 378.919 390.187C391.69 386.39 404.418 382.344 417.453 379.515C435.181 375.404 453.242 372.809 471.389 371.5C487.231 370.554 503.224 370.149 518.996 372.246C524.024 372.794 528.254 375.794 532.499 378.289C537.697 381.313 540.676 386.724 544.893 390.827C551.385 397.902 559.2 403.563 567.3 408.653C557.865 410.979 548.129 411.861 538.693 414.178C536.602 414.732 534.725 415.806 532.82 416.78C531.22 417.768 529.3 417.05 527.573 416.987C523.804 416.354 520.064 417.271 516.352 417.805C507.79 419.169 499.272 420.777 490.718 422.15C486.204 422.953 481.381 423.458 477.549 426.209C473.354 429.424 470.288 433.804 467.004 437.877C464.778 435.609 462.624 433.141 459.751 431.677C455.057 429.175 449.476 428.94 444.348 429.978C434.649 431.912 424.872 433.475 415.151 435.304C411.204 435.98 408.48 439.188 406.02 442.067C402.166 433.689 397.45 425.563 390.881 419.006C381.551 409.037 369.299 402.111 356.301 398.15C344.114 394.388 331.229 393.307 318.521 393.89C302.258 394.665 286.167 398.427 271.12 404.627C248.458 414.298 228.569 429.92 212.839 448.799C197.267 467.55 185.499 489.573 179.297 513.18C175.67 527.324 173.666 542 174.668 556.62C175.792 572.277 180.192 587.9 188.684 601.198C200.595 620.019 220.918 632.913 242.77 636.688C242.321 641.452 241.319 646.138 240.586 650.867C235.005 684.16 229.486 717.467 223.663 750.725C222.696 757.039 222.249 763.652 224.161 769.845C226.508 778.228 234.842 785.801 244.001 783.867C349.44 765.884 454.809 747.453 560.271 729.569C625.265 718.462 690.307 707.611 755.279 696.39C762.405 695.274 768.725 691.697 774.649 687.765C778.86 690.111 783.716 691.938 788.609 690.958C797.59 689.515 806.535 687.794 815.509 686.307C823.345 685.105 830.612 680.938 835.789 674.972C839.7 670.393 842.395 664.398 841.692 658.276C841.457 655.048 839.538 652.338 838.087 649.566C833.755 641.644 829.22 633.851 824.839 625.964C839.174 615.276 847.089 597.861 849.592 580.504C851.533 566.133 850.836 550.199 841.827 538.144C838.235 532.79 832.633 529.312 826.752 526.966C829.447 520.63 829.951 513.051 826.191 507.027C815.22 489.406 803.913 471.991 792.89 454.4C808.755 433.764 824.846 413.299 840.811 392.741C846.088 385.786 845.717 375.284 840.27 368.536C837.489 365.13 832.995 362.726 828.537 363.63C810.035 367.107 791.44 370.114 772.988 373.868C765.976 375.426 761.823 382.025 759.178 388.184C756.077 382.146 749.237 378.029 742.404 378.826C730.279 380.441 718.298 382.907 706.209 384.721C712.581 376.679 718.005 367.847 721.924 358.354C732.598 331.71 732.839 300.756 721.134 274.397C718.112 266.994 713.581 260.381 709.38 253.627C714.336 240.764 719.982 228.178 725.366 215.492C726.653 212.428 727.527 208.872 726.311 205.643C725.025 202.039 720.665 200.246 717.145 201.625L717.139 201.631Z"/>
</mask>
<path d="M715.753 185.298C724.734 183.642 734.057 189.067 738.146 197.024C740.698 202.236 741.566 208.252 740.606 213.977C740.108 217.327 738.828 220.476 737.655 223.626C734.362 232.416 730.729 241.083 727.736 249.98C732.308 255.718 735.421 262.431 738.437 269.072C748.079 291.136 749.801 316.131 745.442 339.668C744.055 347.361 742.156 354.949 740.307 362.544C745.285 362.345 750.269 362.011 755.261 362.225C757.465 362.339 759.335 360.966 761.256 360.07C764.698 358.236 768.545 357.346 772.356 356.63C790.553 353.267 808.743 349.817 826.96 346.561C835.657 344.996 845.001 348.531 850.647 355.301C857.111 362.946 860.758 373.134 859.755 383.175C859.108 390.514 855.732 397.332 851.35 403.15C838.28 420.294 824.812 437.14 811.735 454.277C821.357 469.011 830.587 483.986 840.08 498.798C843.862 504.578 844.517 511.768 843.969 518.495C854.75 526.857 862.478 539.059 865.359 552.399C866.788 558.699 866.781 565.205 866.681 571.627C865.898 592.546 857.984 613.062 844.949 629.389C848.512 637.104 853.938 643.88 856.803 651.937C860.016 661.536 857.578 672.324 852.074 680.608C845.042 691.836 832.974 699.615 819.954 701.812C755.935 712.962 691.846 723.714 627.791 734.65C557.144 746.66 486.513 758.784 415.888 770.922C360.715 780.344 305.57 789.972 250.368 799.23C241.97 801.008 233.003 799.692 225.537 795.441C214.87 789.403 207.888 777.884 206.459 765.824C205.315 757.646 207.498 749.561 208.521 741.497C213.335 710.166 218.938 678.964 223.759 647.634C211.672 643.766 200.223 637.629 190.772 629.11C173.607 613.957 162.863 592.432 158.922 570.047C154.329 543.489 158.184 515.862 168.181 490.953C177.668 467.252 191.91 445.473 209.723 427.204C234.561 401.598 267.782 383.216 303.593 379.704C306.288 379.334 309.688 380.06 311.664 377.719C322.416 363.036 335.443 350.144 349.188 338.276C370.819 319.844 394.776 304.2 420.161 291.451C444.203 279.598 469.296 269.878 494.959 262.154C500.832 260.404 506.763 258.819 512.73 257.405C516.691 251.205 520.445 244.847 525.202 239.2C540.427 220.542 560.963 206.228 583.739 198.413C612.075 189.133 643.399 191.451 671.053 202.003C672.447 202.793 673.927 201.954 675.236 201.398C683.108 197.786 691.17 194.608 699.128 191.173C704.54 188.897 709.922 186.309 715.753 185.3V185.298ZM717.139 201.631C701.886 207.711 686.648 213.848 671.267 219.614C670.208 220.318 669.126 219.57 668.124 219.244C650.852 212.702 632.178 209.474 613.712 210.952C600.159 212.097 586.762 215.738 574.68 222.038C556.625 231.416 541.473 246.023 530.75 263.259C528.332 267.091 526.582 271.294 524.314 275.212C506.395 277.054 488.994 282.209 472.184 288.516C433.474 302.489 396.696 322.258 364.646 348.176C356.234 355.159 347.702 362.106 340.392 370.269C344.509 368.562 348.264 366.139 352.224 364.125C376.066 351.247 401.04 340.474 426.746 331.899C453 323.196 480.254 317.201 507.888 315.423C507.931 320.771 507.931 326.118 507.945 331.466C472.406 335.974 437.903 348.462 407.683 367.696C397.55 374.452 387.574 381.584 378.919 390.187C391.69 386.39 404.418 382.344 417.453 379.515C435.181 375.404 453.242 372.809 471.389 371.5C487.231 370.554 503.224 370.149 518.996 372.246C524.024 372.794 528.254 375.794 532.499 378.289C537.697 381.313 540.676 386.724 544.893 390.827C551.385 397.902 559.2 403.563 567.3 408.653C557.865 410.979 548.129 411.861 538.693 414.178C536.602 414.732 534.725 415.806 532.82 416.78C531.22 417.768 529.3 417.05 527.573 416.987C523.804 416.354 520.064 417.271 516.352 417.805C507.79 419.169 499.272 420.777 490.718 422.15C486.204 422.953 481.381 423.458 477.549 426.209C473.354 429.424 470.288 433.804 467.004 437.877C464.778 435.609 462.624 433.141 459.751 431.677C455.057 429.175 449.476 428.94 444.348 429.978C434.649 431.912 424.872 433.475 415.151 435.304C411.204 435.98 408.48 439.188 406.02 442.067C402.166 433.689 397.45 425.563 390.881 419.006C381.551 409.037 369.299 402.111 356.301 398.15C344.114 394.388 331.229 393.307 318.521 393.89C302.258 394.665 286.167 398.427 271.12 404.627C248.458 414.298 228.569 429.92 212.839 448.799C197.267 467.55 185.499 489.573 179.297 513.18C175.67 527.324 173.666 542 174.668 556.62C175.792 572.277 180.192 587.9 188.684 601.198C200.595 620.019 220.918 632.913 242.77 636.688C242.321 641.452 241.319 646.138 240.586 650.867C235.005 684.16 229.486 717.467 223.663 750.725C222.696 757.039 222.249 763.652 224.161 769.845C226.508 778.228 234.842 785.801 244.001 783.867C349.44 765.884 454.809 747.453 560.271 729.569C625.265 718.462 690.307 707.611 755.279 696.39C762.405 695.274 768.725 691.697 774.649 687.765C778.86 690.111 783.716 691.938 788.609 690.958C797.59 689.515 806.535 687.794 815.509 686.307C823.345 685.105 830.612 680.938 835.789 674.972C839.7 670.393 842.395 664.398 841.692 658.276C841.457 655.048 839.538 652.338 838.087 649.566C833.755 641.644 829.22 633.851 824.839 625.964C839.174 615.276 847.089 597.861 849.592 580.504C851.533 566.133 850.836 550.199 841.827 538.144C838.235 532.79 832.633 529.312 826.752 526.966C829.447 520.63 829.951 513.051 826.191 507.027C815.22 489.406 803.913 471.991 792.89 454.4C808.755 433.764 824.846 413.299 840.811 392.741C846.088 385.786 845.717 375.284 840.27 368.536C837.489 365.13 832.995 362.726 828.537 363.63C810.035 367.107 791.44 370.114 772.988 373.868C765.976 375.426 761.823 382.025 759.178 388.184C756.077 382.146 749.237 378.029 742.404 378.826C730.279 380.441 718.298 382.907 706.209 384.721C712.581 376.679 718.005 367.847 721.924 358.354C732.598 331.71 732.839 300.756 721.134 274.397C718.112 266.994 713.581 260.381 709.38 253.627C714.336 240.764 719.982 228.178 725.366 215.492C726.653 212.428 727.527 208.872 726.311 205.643C725.025 202.039 720.665 200.246 717.145 201.625L717.139 201.631Z" fill="#CCCCCC" stroke="#CCCCCC" stroke-width="32.2068" mask="url(#path-2-inside-1_2025_119)"/>
<path d="M600.874 238.881C614.527 235.204 629.047 235.383 642.814 238.362C642.672 239.841 642.423 241.321 641.919 242.722C637.303 256.729 632.86 270.816 627.775 284.661C623.537 284.845 619.2 284.646 615.089 285.848C611.101 286.879 607.481 288.906 604.026 291.082C594.177 282.946 584.3 274.841 574.835 266.257C572.111 263.889 569.246 261.65 566.928 258.854C576.521 249.753 588.055 242.429 600.875 238.879L600.874 238.881Z" fill="#00FF57"/>
<path d="M651.602 241.523C656.765 242.568 661.429 245.207 666.038 247.66C674.635 252.375 682.081 259.038 687.869 266.939C695.128 276.61 700.327 287.866 702.666 299.741C688.046 302.287 673.413 304.705 658.791 307.243C657.234 307.499 655.663 307.599 654.099 307.684C652.186 303.304 650.081 298.894 646.704 295.439C644.051 292.403 640.509 290.397 637.431 287.851C642.337 272.471 646.874 256.968 651.602 241.523Z" fill="#00FF57"/>
<path d="M546.12 343.468C536.483 317.69 541.838 286.837 560.269 266.259C569.378 273.81 577.606 282.357 586.409 290.264C589.736 293.271 593.114 296.23 596.335 299.366C594.834 302.936 592.73 306.271 591.82 310.075C590.683 314.213 590.931 318.551 591.102 322.796C577.187 329.658 563.185 336.349 549.119 342.905C548.159 343.119 547.035 344.256 546.118 343.466L546.12 343.468Z" fill="#00FF57"/>
<path d="M693.261 310.959C696.945 310.261 700.607 309.281 704.376 309.174C704.296 316.513 704.916 323.936 703.537 331.203C700.152 350.858 688.882 368.662 673.714 381.405C665.465 370.355 657.623 359.007 649.821 347.628C648.2 345.246 646.479 342.935 645.1 340.404C650.347 334.402 653.682 326.858 654.956 319.007C667.691 316.14 680.449 313.418 693.262 310.957L693.261 310.959Z" fill="#00FF57"/>
<path d="M549.929 352.293C564.762 345.431 580.059 339.635 595.19 333.47C600.31 340.873 608.103 346.555 616.957 348.496C623.249 349.691 629.862 348.98 635.807 346.604C643.373 355.372 650.051 364.851 657.161 373.975C660.29 378.091 663.475 382.166 666.419 386.426C653.222 395.193 637.307 399.617 621.5 399.411C591.322 398.814 562.572 379.614 549.929 352.293Z" fill="#00FF57"/>
<path d="M779.348 391.838C793.243 389.612 807.06 386.917 820.968 384.763C811.866 396.362 802.765 407.951 793.819 419.655C791.927 421.604 790.157 423.659 788.721 425.977C781.439 436.138 773.361 445.695 766.144 455.9C775.153 469.872 784.625 483.56 793.826 497.412C798.121 503.806 802.75 509.991 806.689 516.626C792.326 518.603 778.082 521.313 763.746 523.474C752.419 507.689 741.823 491.39 730.447 475.632C728.954 488.261 726.935 500.812 725.043 513.383C724.083 519.022 723.67 524.761 722.306 530.322C710.593 532.107 698.961 534.41 687.213 535.975C693.492 491.987 700.019 448.035 706.455 404.068C718.395 402.098 730.333 400.094 742.279 398.16C739.903 415.51 736.932 432.775 734.484 450.119C743.643 438.301 752.17 426.013 761.222 414.109C765.218 408.627 769.129 403.058 773.531 397.881C775.088 395.605 776.255 392.342 779.347 391.836L779.348 391.838Z" fill="#00FF57"/>
<path d="M641.448 414.438C657.198 410.258 674.94 411.402 689.012 420.092C682.598 430.487 676.703 441.19 670.269 451.571C663.82 447.582 656.083 445.413 648.495 446.501C637.594 447.929 627.902 454.956 622.228 464.242C616.916 472.661 613.623 482.651 614.385 492.685C614.947 499.944 619.064 507.362 625.997 510.249C633.286 513.171 641.549 511.912 648.666 509.09C654.582 506.892 659.717 503.152 664.936 499.682C669.211 507.333 673.135 515.162 677.408 522.813C678.098 523.645 677.729 524.69 676.967 525.33C667.644 534.489 656.055 541.366 643.461 544.899C632.653 547.765 621.062 548.938 610.125 546.03C599.858 543.363 590.073 537.341 584.534 528.09C578.163 517.793 576.655 505.271 577.565 493.396C580.324 457.485 606.718 424.393 641.449 414.437L641.448 414.438Z" fill="#00FF57"/>
<path d="M279.396 424.317C293.547 418.265 308.841 414.747 324.258 414.575C336.795 414.418 349.53 416.971 360.608 422.973C373.274 429.906 383.023 441.639 388.128 455.087C392.501 466.357 393.796 478.631 392.8 490.634C390.943 516.461 380.448 541.192 365.04 561.822C371.845 571.008 379.318 579.677 386.144 588.843C371.631 590.962 357.267 594.021 342.712 595.905C341.318 594.048 339.875 592.236 338.267 590.573C325.993 599.27 313.18 607.341 299.321 613.284C303.501 607.838 308.459 603.044 312.597 597.57C302.008 602.134 291.022 605.911 279.588 607.646C265.117 609.999 249.901 610.937 235.799 606.138C221.833 601.509 210.4 590.615 204.007 577.481C197.473 564.04 195.908 548.654 197.237 533.912C199.498 508.334 210.882 484.186 226.99 464.432C240.919 447.131 258.917 433.03 279.396 424.318V424.317ZM273.885 468.617C254.115 483.386 241.765 507.292 240.322 531.839C239.98 542.335 242.732 553.421 249.936 561.334C256.28 568.466 265.835 572.121 275.25 572.449C288.248 572.748 301.404 569.377 312.383 562.345C302.868 549.111 292.822 536.276 283.15 523.164C298.268 520.646 313.407 518.25 328.474 515.469C333.225 520.375 336.887 526.185 341.509 531.198C347.731 518.683 350.782 504.561 350.014 490.596C349.104 480.378 345.662 469.733 337.797 462.735C330.558 456.099 320.368 453.69 310.761 454.167C297.314 454.855 284.536 460.595 273.885 468.615V468.617Z" fill="#00FF57"/>
<path d="M542.311 433.126C553.461 430.801 564.753 429.222 575.973 427.273C574.039 442.946 571.237 458.496 568.976 474.127C564.589 502.066 560.386 530.033 555.799 557.944C544.621 559.921 533.449 561.96 522.207 563.568C523.927 549.566 526.452 535.694 528.543 521.749C531.687 501.597 534.765 481.438 537.838 461.279C539.389 451.899 540.491 442.456 542.311 433.128V433.126Z" fill="#00FF57"/>
<path d="M488.403 442.457C499.765 440.281 511.199 438.511 522.599 436.52C519.022 461.393 515.011 486.203 511.484 511.091C509.45 524.53 507.517 538.617 499.844 550.201C491.873 562.218 478.519 569.315 465.128 573.652C453.858 577.058 442.068 579.177 430.257 578.808C423.032 578.601 415.53 576.788 409.878 572.067C405.419 568.44 402.262 563.135 401.743 557.362C400.492 548.51 402.653 539.728 403.884 531.01C406.686 512.756 409.431 494.496 412.14 476.234C413.392 469.053 413.883 461.742 415.525 454.639C427.201 452.79 438.813 450.551 450.496 448.723C445.932 476.378 441.694 504.082 437.334 531.765C436.58 536.565 436.851 542.132 440.356 545.851C443.108 548.596 447.331 548.19 450.888 548.02C458.418 547.501 466.51 544.685 470.89 538.164C475.669 531.089 476.486 522.357 477.666 514.136C481.4 490.265 484.678 466.33 488.404 442.459L488.403 442.457Z" fill="#00FF57"/>
<path d="M795.037 538.909C800.925 537.942 807.117 538.177 812.758 540.268C819.428 542.699 824.796 548.239 827.285 554.858C829.938 561.472 830.087 568.76 829.382 575.758C828.102 587.1 823.673 598.25 815.986 606.768C811.2 612.115 805.284 616.445 798.721 619.339C805.456 632.808 812.935 645.877 819.627 659.366C808.272 661.415 796.943 663.646 785.538 665.424C779.466 652.838 773.236 640.322 767.476 627.588C764.752 627.68 762.092 628.278 759.419 628.697C757.201 642.848 754.761 656.97 752.984 671.184C742.581 673.338 732.049 674.739 721.597 676.631C726.816 644.305 732.248 612.015 736.459 579.54C737.859 569.008 739.622 558.535 741.01 548.003C747.544 546.375 754.299 545.77 760.927 544.526C772.297 542.656 783.669 540.757 795.038 538.909H795.037ZM768.983 568.604C766.784 580.415 765.278 592.34 763.521 604.222C770.668 603.099 778.077 602.622 784.782 599.665C794.446 595.619 800.589 584.12 797.767 573.888C796.92 570.276 793.756 567.437 790.137 566.806C783.012 565.831 776.022 567.993 768.983 568.605V568.604Z" fill="#F3FFDD"/>
<path d="M651.585 562.738C676.423 558.742 701.154 554.091 726.014 550.266C724.6 560.073 723.397 569.921 721.527 579.656C707.121 582.166 692.678 584.477 678.257 586.917C677.305 593.949 675.982 600.933 675.099 607.979C688.291 605.718 701.517 603.663 714.7 601.352C712.993 610.767 711.721 620.253 710.05 629.682C696.796 631.973 683.462 633.856 670.256 636.458C669.673 643.321 667.988 650.033 667.355 656.887C682.053 654.504 696.708 651.889 711.427 649.683C710.084 659.46 708.81 669.253 706.968 678.953C681.739 683.39 656.417 687.308 631.23 692.008C637.921 648.901 644.727 605.816 651.582 562.74L651.585 562.738Z" fill="#F3FFDD"/>
<path d="M551.754 579.659C580.588 574.375 609.559 569.832 638.463 564.954C637.105 574.916 635.534 584.851 633.864 594.77C627.365 595.66 620.907 596.811 614.437 597.856C611.672 598.318 608.848 598.567 606.181 599.484C603.145 620.533 599.476 641.48 596.133 662.479C594.178 674.319 592.429 686.193 590.182 697.976C579.686 700.038 569.126 701.745 558.581 703.466C564.192 670.685 569.305 637.818 574.36 604.944C565.244 606.273 556.163 607.831 547.112 609.496C548.533 599.534 549.928 589.556 551.756 579.659H551.754Z" fill="#F3FFDD"/>
<path d="M457.556 595.495C485.515 590.958 513.404 586.03 541.321 581.244C539.658 591.313 538.178 601.411 536.635 611.494C528.023 613.052 519.384 614.46 510.743 615.839C505.573 648.479 500.141 681.075 494.794 713.678C484.312 715.512 473.839 717.439 463.293 718.861C468.306 686.385 473.625 653.953 478.808 621.506C470.154 622.884 461.529 624.42 452.903 625.943C453.544 619.307 454.808 612.759 455.712 606.153C456.303 602.598 456.537 598.964 457.554 595.494L457.556 595.495Z" fill="#F3FFDD"/>
<path d="M400.021 604.148C408.918 602.904 418.183 604.218 426.303 608.079C436.513 613.078 443.824 623.098 446.305 634.106C449.526 647.083 447.379 660.694 443.738 673.343C437.778 693.758 424.865 712.289 406.947 723.944C394.929 731.93 380.722 737.028 366.187 737.006C355.613 737.205 344.926 733.074 337.523 725.465C330.867 718.51 327.29 709.06 326.253 699.595C323.885 671.962 335.227 643.711 355.521 624.909C367.688 613.582 383.36 605.702 400.02 604.145L400.021 604.148ZM392.278 634.091C383.646 635.769 376.229 641.273 370.689 647.936C362.846 657.656 358.424 670.101 358.302 682.595C358.267 688.476 359.013 694.747 362.597 699.633C365.512 703.779 370.405 706.296 375.44 706.545C382.317 706.894 389.177 704.356 394.567 700.152C404.159 692.693 410.581 681.643 413.305 669.881C414.656 663.78 415.666 657.445 414.586 651.223C413.903 646.409 412.133 641.538 408.498 638.161C404.318 634.008 397.904 632.828 392.278 634.093V634.091Z" fill="#F3FFDD"/>
<path d="M264.627 627.979C275.187 626.307 285.739 624.537 296.263 622.667C291.3 655.334 285.888 687.93 280.548 720.541C293.596 718.578 306.603 716.345 319.63 714.24C318.301 724.003 316.586 733.716 315.136 743.465C291.407 747.738 267.621 751.656 243.835 755.603C250.974 713.094 258.043 670.571 264.627 627.977V627.979Z" fill="#F3FFDD"/>
<defs>
<linearGradient id="paint0_linear_2025_119" x1="34" y1="100.5" x2="885.5" y2="987.5" gradientUnits="userSpaceOnUse">
<stop/>
<stop offset="1" stop-color="#464646"/>
</linearGradient>
</defs>
</svg>
