<svg width="9108" height="1135" viewBox="0 0 9108 1135" fill="none" xmlns="http://www.w3.org/2000/svg">
<g filter="url(#filter0_dd_1022_4853)">
<rect x="7801.44" y="111" width="1091.22" height="703" rx="125.91" fill="white"/>
<rect x="7798.82" y="108.377" width="1096.47" height="708.246" rx="128.534" stroke="#D6DCE5" stroke-width="5.24627"/>
<path d="M8242.75 670.034V642.242C8242.91 639.911 8242.57 637.572 8241.76 635.381C8240.94 633.19 8239.67 631.198 8238.03 629.536C8236.39 627.875 8234.41 626.583 8232.23 625.747C8230.04 624.911 8227.71 624.549 8225.38 624.687C8222.31 624.486 8219.25 625.111 8216.52 626.496C8213.78 627.881 8211.46 629.976 8209.81 632.561C8208.31 630.053 8206.15 627.998 8203.58 626.612C8201 625.226 8198.1 624.561 8195.18 624.687C8192.63 624.558 8190.09 625.097 8187.82 626.251C8185.54 627.405 8183.61 629.133 8182.21 631.264V625.798H8172.57V670.034H8182.3V645.531C8182.08 644.015 8182.21 642.47 8182.66 641.008C8183.12 639.546 8183.89 638.204 8184.93 637.078C8185.97 635.952 8187.24 635.07 8188.66 634.498C8190.08 633.925 8191.61 633.675 8193.14 633.765C8199.53 633.765 8202.77 637.934 8202.77 645.438V670.034H8212.5V645.531C8212.3 644.018 8212.44 642.48 8212.9 641.026C8213.36 639.571 8214.13 638.236 8215.17 637.114C8216.2 635.991 8217.47 635.11 8218.88 634.532C8220.29 633.953 8221.81 633.691 8223.34 633.765C8229.92 633.765 8233.06 637.934 8233.06 645.438V670.034H8242.75ZM8296.94 647.939V625.845H8287.21V631.218C8285.58 629.11 8283.47 627.422 8281.05 626.294C8278.63 625.166 8275.98 624.631 8273.32 624.733C8267.17 624.733 8261.28 627.173 8256.94 631.516C8252.6 635.86 8250.16 641.751 8250.16 647.893C8250.16 654.035 8252.6 659.926 8256.94 664.27C8261.28 668.613 8267.17 671.053 8273.32 671.053C8275.98 671.155 8278.63 670.62 8281.05 669.492C8283.47 668.364 8285.58 666.676 8287.21 664.568V669.941H8296.85L8296.94 647.939ZM8261.13 647.939C8261.29 645.333 8262.2 642.828 8263.76 640.734C8265.32 638.639 8267.46 637.046 8269.91 636.151C8272.36 635.256 8275.02 635.098 8277.57 635.697C8280.11 636.295 8282.42 637.623 8284.21 639.519C8286.01 641.414 8287.21 643.793 8287.67 646.363C8288.14 648.933 8287.83 651.582 8286.81 653.983C8285.78 656.385 8284.08 658.434 8281.9 659.878C8279.73 661.323 8277.18 662.1 8274.57 662.113C8272.72 662.156 8270.89 661.814 8269.19 661.109C8267.48 660.403 8265.95 659.349 8264.67 658.015C8263.4 656.681 8262.42 655.095 8261.79 653.36C8261.17 651.625 8260.91 649.779 8261.04 647.939H8261.13ZM8502.79 624.779C8505.96 624.771 8509.1 625.368 8512.05 626.539C8514.86 627.666 8517.43 629.334 8519.6 631.449C8521.74 633.545 8523.44 636.049 8524.6 638.814C8527.02 644.753 8527.02 651.403 8524.6 657.342C8523.45 660.108 8521.74 662.612 8519.6 664.707C8517.43 666.822 8514.86 668.49 8512.05 669.617C8505.94 671.99 8499.17 671.99 8493.06 669.617C8490.26 668.491 8487.71 666.823 8485.56 664.707C8483.43 662.604 8481.75 660.101 8480.6 657.342C8478.18 651.402 8478.18 644.754 8480.6 638.814C8481.75 636.056 8483.43 633.553 8485.56 631.449C8487.71 629.334 8490.26 627.665 8493.06 626.539C8496.11 625.274 8499.39 624.628 8502.69 624.64L8502.79 624.779ZM8502.79 634.043C8500.9 634.018 8499.03 634.364 8497.27 635.062C8495.62 635.724 8494.13 636.717 8492.87 637.98C8491.6 639.31 8490.6 640.886 8489.96 642.612C8488.54 646.311 8488.54 650.402 8489.96 654.1C8490.6 655.827 8491.6 657.403 8492.87 658.732C8494.12 659.996 8495.62 660.989 8497.27 661.65C8500.8 663.032 8504.72 663.032 8508.25 661.65C8509.98 661.01 8511.56 660.017 8512.88 658.732C8514.16 657.405 8515.16 655.828 8515.8 654.1C8517.22 650.402 8517.22 646.311 8515.8 642.612C8515.16 640.885 8514.16 639.308 8512.88 637.98C8511.56 636.696 8509.98 635.702 8508.25 635.062C8506.5 634.262 8504.61 633.821 8502.69 633.765L8502.79 634.043ZM8349.28 647.939C8349.28 634.043 8340.67 624.779 8328.3 624.779C8322.16 624.865 8316.3 627.388 8312.02 631.792C8307.73 636.196 8305.38 642.121 8305.46 648.264C8305.55 654.406 8308.07 660.263 8312.48 664.545C8316.88 668.828 8322.8 671.185 8328.95 671.099C8335.54 671.325 8341.99 669.115 8347.06 664.892L8342.43 657.759C8338.77 660.692 8334.24 662.322 8329.55 662.391C8326.36 662.665 8323.2 661.686 8320.72 659.662C8318.25 657.637 8316.66 654.728 8316.3 651.552H8349.14C8349.28 650.394 8349.28 649.236 8349.28 647.939ZM8316.35 644.048C8316.53 641.108 8317.84 638.351 8320.01 636.356C8322.17 634.361 8325.03 633.283 8327.97 633.348C8329.42 633.318 8330.85 633.571 8332.19 634.095C8333.54 634.618 8334.76 635.401 8335.81 636.399C8336.85 637.397 8337.68 638.59 8338.26 639.911C8338.84 641.231 8339.15 642.653 8339.18 644.095L8316.35 644.048ZM8389.81 637.1C8385.58 634.665 8380.8 633.357 8375.92 633.302C8370.64 633.302 8367.49 635.248 8367.49 638.49C8367.49 641.732 8370.82 642.288 8374.99 642.844L8379.62 643.493C8389.26 644.882 8395.09 648.958 8395.09 656.74C8395.09 664.522 8387.68 671.192 8374.94 671.192C8368.12 671.374 8361.41 669.36 8355.81 665.448L8360.44 657.944C8364.7 661.098 8369.88 662.73 8375.17 662.576C8381.75 662.576 8385.27 660.631 8385.27 657.203C8385.27 654.702 8382.77 653.312 8377.49 652.571L8372.86 651.923C8362.95 650.533 8357.57 646.086 8357.57 638.861C8357.57 630.06 8364.8 624.687 8376.1 624.687C8382.43 624.475 8388.68 626.082 8394.12 629.319L8389.81 637.1ZM8436.13 634.599H8420.43V654.563C8420.43 659.195 8422 661.974 8426.82 661.974C8429.83 661.875 8432.76 661.014 8435.34 659.473L8438.12 667.718C8434.51 669.972 8430.34 671.16 8426.08 671.146C8414.69 671.146 8410.7 665.031 8410.7 654.748V634.599H8401.72V625.798H8410.7V612.366H8420.43V625.798H8436.13V634.599ZM8469.44 624.687C8471.77 624.696 8474.09 625.103 8476.29 625.891L8473.33 635.155C8471.41 634.392 8469.37 634.014 8467.31 634.043C8461.01 634.043 8458.04 638.119 8458.04 645.438V670.219H8448.41V625.984H8457.95V631.357C8459.13 629.326 8460.84 627.651 8462.89 626.51C8464.95 625.369 8467.27 624.803 8469.62 624.872L8469.44 624.687ZM8536.04 663.595C8536.65 663.588 8537.24 663.698 8537.8 663.92C8538.34 664.137 8538.82 664.451 8539.24 664.846C8539.65 665.245 8539.98 665.717 8540.21 666.236C8540.45 666.777 8540.57 667.36 8540.57 667.95C8540.57 668.539 8540.45 669.122 8540.21 669.663C8539.98 670.182 8539.65 670.654 8539.24 671.053C8538.82 671.448 8538.34 671.762 8537.8 671.979C8537.25 672.224 8536.65 672.35 8536.04 672.35C8535.17 672.343 8534.31 672.087 8533.57 671.612C8532.83 671.136 8532.24 670.46 8531.88 669.663C8531.64 669.122 8531.52 668.539 8531.52 667.95C8531.52 667.36 8531.64 666.777 8531.88 666.236C8532.11 665.717 8532.44 665.245 8532.85 664.846C8533.26 664.451 8533.75 664.137 8534.28 663.92C8534.77 663.726 8535.29 663.616 8535.81 663.595H8536.04ZM8536.04 671.424C8536.51 671.426 8536.96 671.332 8537.39 671.146C8537.79 670.968 8538.15 670.716 8538.45 670.404C8538.85 670.009 8539.14 669.523 8539.3 668.99C8539.46 668.457 8539.49 667.892 8539.39 667.344C8539.28 666.796 8539.04 666.283 8538.7 665.848C8538.35 665.412 8537.9 665.068 8537.39 664.846C8536.96 664.661 8536.51 664.567 8536.04 664.568C8535.58 664.571 8535.13 664.665 8534.7 664.846C8534.28 665.017 8533.91 665.269 8533.59 665.587C8533.01 666.219 8532.69 667.046 8532.69 667.903C8532.69 668.761 8533.01 669.587 8533.59 670.219C8533.91 670.544 8534.29 670.801 8534.71 670.976C8535.14 671.151 8535.59 671.24 8536.04 671.238V671.424ZM8536.32 665.911C8536.75 665.89 8537.18 666.021 8537.53 666.282C8537.67 666.399 8537.78 666.549 8537.85 666.718C8537.92 666.887 8537.96 667.071 8537.94 667.255C8537.95 667.409 8537.92 667.562 8537.87 667.706C8537.81 667.849 8537.73 667.98 8537.62 668.088C8537.35 668.332 8537.01 668.479 8536.65 668.505L8537.99 670.034H8536.92L8535.67 668.505H8535.26V670.034H8534.38V665.772L8536.32 665.911ZM8535.3 666.699V667.811H8536.32C8536.5 667.865 8536.7 667.865 8536.88 667.811C8536.91 667.746 8536.93 667.674 8536.93 667.602C8536.93 667.53 8536.91 667.458 8536.88 667.394C8536.91 667.329 8536.93 667.258 8536.93 667.185C8536.93 667.113 8536.91 667.041 8536.88 666.977C8536.7 666.923 8536.5 666.923 8536.32 666.977L8535.3 666.699Z" fill="#000008"/>
<path d="M8422.24 288.311H8276.33V550.528H8422.24V288.311Z" fill="#7673C0"/>
<path d="M8285.59 419.443C8285.56 394.186 8291.29 369.254 8302.32 346.535C8313.35 323.816 8329.41 303.906 8349.28 288.311C8324.68 268.978 8295.14 256.956 8264.03 253.619C8232.92 250.282 8201.5 255.765 8173.36 269.44C8145.22 283.116 8121.49 304.432 8104.89 330.954C8088.29 357.476 8079.49 388.132 8079.49 419.42C8079.49 450.708 8088.29 481.364 8104.89 507.886C8121.49 534.408 8145.22 555.724 8173.36 569.4C8201.5 583.075 8232.92 588.558 8264.03 585.221C8295.14 581.884 8324.68 569.862 8349.28 550.529C8329.42 534.939 8313.36 515.036 8302.33 492.326C8291.3 469.615 8285.57 444.692 8285.59 419.443Z" fill="#EB001B"/>
<path d="M8603.16 522.736V517.549H8605.34V516.437H8599.83V517.549H8602V522.922L8603.16 522.736ZM8613.86 522.736V516.252H8612.19L8610.25 520.884L8608.3 516.252H8606.59V522.736H8607.79V517.873L8609.6 522.088H8610.85L8612.66 517.873V522.783L8613.86 522.736Z" fill="#00A1DF"/>
<path d="M8619.05 419.443C8619.04 450.725 8610.24 481.374 8593.64 507.888C8577.04 534.403 8553.31 555.713 8525.18 569.385C8497.04 583.057 8465.63 588.539 8434.52 585.204C8403.42 581.87 8373.88 569.854 8349.28 550.529C8369.14 534.925 8385.19 515.017 8396.22 492.305C8407.26 469.593 8413 444.671 8413 419.42C8413 394.168 8407.26 369.246 8396.22 346.534C8385.19 323.823 8369.14 303.915 8349.28 288.311C8373.88 268.972 8403.42 256.944 8434.53 253.602C8465.65 250.26 8497.07 255.739 8525.21 269.413C8553.36 283.087 8577.09 304.403 8593.69 330.925C8610.29 357.448 8619.09 388.106 8619.1 419.397L8619.05 419.443Z" fill="#00A1DF"/>
</g>
<g filter="url(#filter1_dd_1022_4853)">
<rect x="6537.09" y="111" width="1091.22" height="703" rx="125.91" fill="#006B93"/>
<rect x="6534.47" y="108.377" width="1096.47" height="708.246" rx="128.534" stroke="#D6DCE5" stroke-width="5.24627"/>
<path d="M6824.66 388.241C6832.9 385.487 6841.72 384.005 6850.9 384.005C6890.93 384.005 6924.35 412.435 6932.01 450.233L6988.75 438.654C6975.72 374.434 6918.97 326.098 6850.9 326.098C6835.3 326.098 6820.32 328.639 6806.3 333.322L6824.66 388.241Z" fill="#FFCB03"/>
<path d="M6757.69 572.141L6796.06 528.758C6778.94 513.581 6768.13 491.437 6768.13 466.762C6768.13 442.109 6778.92 419.971 6796.04 404.815L6757.66 361.428C6728.57 387.196 6710.22 424.844 6710.22 466.762C6710.22 508.71 6728.58 546.367 6757.69 572.141Z" fill="#00A4E0"/>
<path d="M6931.98 483.359C6924.29 521.132 6890.9 549.511 6850.89 549.511C6841.71 549.511 6832.87 548.031 6824.63 545.26L6806.24 600.196C6820.26 604.879 6835.28 607.412 6850.89 607.412C6918.89 607.412 6975.64 559.156 6988.72 494.995L6931.98 483.359Z" fill="#EF4023"/>
<path d="M7151.75 513.471C7151.73 513.484 7151.71 513.498 7151.7 513.517L7150.09 512.428C7145.45 519.967 7138.19 526.077 7129.04 530.045C7111.63 537.616 7095.5 535.668 7083.91 525.508L7082.85 527.129C7082.83 527.11 7082.83 527.097 7082.81 527.097L7063.05 556.653C7067.96 560.062 7073.23 562.949 7078.76 565.258C7100.58 574.323 7122.92 573.907 7144.92 564.336C7160.83 557.445 7173.32 546.926 7181.85 533.597L7151.75 513.471ZM7090.07 440.538C7071.68 448.44 7062.2 465.684 7064.15 485.909L7142.03 452.391C7128.64 436.653 7111.21 431.433 7090.07 440.538ZM7038.36 530.584C7036.5 527.572 7033.97 522.758 7032.45 519.212C7023.46 498.353 7023.03 476.762 7030.62 456.038C7038.96 433.312 7054.9 415.912 7075.49 407.05C7101.38 395.91 7130.02 398.107 7154.83 412.829C7170.6 421.87 7181.77 435.834 7190.25 455.576C7191.34 458.107 7192.29 460.804 7193.22 463.098L7038.36 530.584Z" fill="white"/>
<path d="M7247.35 363.511V527.852L7272.91 538.211L7258.39 572.088L7230.19 560.34C7223.86 557.599 7219.55 553.407 7216.29 548.671C7213.16 543.844 7210.83 537.219 7210.83 528.304V363.511H7247.35Z" fill="white"/>
<path d="M7313.54 485.993C7313.55 471.998 7319.73 459.455 7329.51 450.92L7303.29 421.695C7285.52 437.406 7274.32 460.371 7274.3 485.949C7274.27 511.546 7285.45 534.537 7303.21 550.288L7329.39 521.035C7319.66 512.466 7313.53 499.953 7313.54 485.993Z" fill="white"/>
<path d="M7360.11 532.627C7354.95 532.614 7349.98 531.759 7345.34 530.214L7332.82 567.438C7341.38 570.311 7350.54 571.875 7360.06 571.89C7401.57 571.93 7436.23 542.479 7444.26 503.33L7405.79 495.472C7401.4 516.698 7382.61 532.643 7360.11 532.627Z" fill="white"/>
<path d="M7360.23 400.169C7350.71 400.158 7341.55 401.707 7333.01 404.552L7345.42 441.806C7350.07 440.267 7355.04 439.421 7360.19 439.421C7382.75 439.442 7401.56 455.487 7405.83 476.765L7444.31 468.958C7436.39 429.757 7401.76 400.194 7360.23 400.169Z" fill="white"/>
</g>
<g filter="url(#filter2_dd_1022_4853)">
<rect x="5272.74" y="111" width="1091.22" height="703" rx="125.91" fill="#E5F0F5"/>
<rect x="5270.12" y="108.377" width="1096.47" height="708.246" rx="128.534" stroke="#D6DCE5" stroke-width="5.24627"/>
<path d="M5536.7 583.698C5536.7 593.51 5543.71 594.644 5549.94 594.644C5577.45 594.644 5586.47 573.901 5586.47 554.926C5586.47 531.131 5571.2 513.944 5546.63 513.944C5541.41 513.944 5539.01 514.308 5536.7 514.447V583.698ZM5524.23 523.983C5524.23 512.536 5518.24 513.29 5512.53 513.161V509.871C5517.48 510.101 5522.57 510.101 5527.54 510.101C5532.89 510.101 5540.15 509.871 5549.57 509.871C5582.53 509.871 5600.49 531.878 5600.49 554.424C5600.49 567.028 5593.11 598.724 5548.04 598.724C5541.56 598.724 5535.56 598.479 5529.58 598.479C5523.85 598.479 5518.24 598.611 5512.53 598.724V595.404C5520.14 594.644 5523.85 594.391 5524.23 585.739V523.983Z" fill="#231F20"/>
<path d="M5618.58 520.943C5615.25 520.943 5612.33 517.881 5612.33 514.579C5612.33 511.39 5615.38 508.451 5618.58 508.451C5621.88 508.451 5624.82 511.131 5624.82 514.579C5624.82 518.013 5622.01 520.943 5618.58 520.943ZM5604.95 595.408H5607.37C5610.93 595.408 5613.47 595.408 5613.47 591.191V556.71C5613.47 551.108 5611.58 550.34 5606.85 547.811V545.772C5612.84 543.976 5619.97 541.578 5620.48 541.175C5621.38 540.679 5622.13 540.549 5622.78 540.549C5623.41 540.549 5623.66 541.304 5623.66 542.324V591.191C5623.66 595.408 5626.47 595.408 5630.02 595.408H5632.19V598.726C5627.86 598.726 5623.41 598.476 5618.82 598.476C5614.24 598.476 5609.66 598.605 5604.95 598.726V595.408Z" fill="#231F20"/>
<path d="M5644.29 557.467C5644.29 552.771 5642.89 551.492 5636.91 549.086V546.652C5642.38 544.871 5647.59 543.202 5653.71 540.546C5654.09 540.546 5654.46 540.798 5654.46 541.802V550.099C5661.73 544.871 5667.98 540.546 5676.51 540.546C5687.32 540.546 5691.14 548.432 5691.14 558.366V591.195C5691.14 595.412 5693.95 595.412 5697.51 595.412H5699.8V598.723C5695.33 598.723 5690.88 598.479 5686.31 598.479C5681.72 598.479 5677.14 598.609 5672.56 598.723V595.412H5674.85C5678.42 595.412 5680.95 595.412 5680.95 591.195V558.244C5680.95 550.975 5676.51 547.419 5669.24 547.419C5665.17 547.419 5658.68 550.724 5654.46 553.531V591.195C5654.46 595.412 5657.29 595.412 5660.85 595.412H5663.14V598.723C5658.68 598.723 5654.21 598.479 5649.62 598.479C5645.05 598.479 5640.47 598.609 5635.88 598.723V595.412H5638.19C5641.74 595.412 5644.29 595.412 5644.29 591.195V557.467Z" fill="#231F20"/>
<path d="M5732.02 559.508C5735.19 559.508 5735.56 557.858 5735.56 556.334C5735.56 549.827 5731.62 544.612 5724.49 544.612C5716.74 544.612 5711.39 550.336 5709.86 559.508H5732.02ZM5709.48 563.596C5709.22 564.738 5709.22 566.642 5709.48 570.971C5710.23 583.075 5718.01 593.001 5728.19 593.001C5735.19 593.001 5740.68 589.171 5745.38 584.468L5747.16 586.248C5741.3 594.013 5734.06 600.627 5723.62 600.627C5703.36 600.627 5699.3 581.028 5699.3 572.883C5699.3 547.931 5716.1 540.548 5725 540.548C5735.32 540.548 5746.41 547.033 5746.52 560.521C5746.52 561.306 5746.52 562.058 5746.41 562.828L5745.24 563.596H5709.48Z" fill="#231F20"/>
<path d="M5749.45 595.408H5752.9C5756.46 595.408 5758.99 595.408 5758.99 591.191V555.431C5758.99 551.498 5754.29 550.728 5752.38 549.7V547.813C5761.66 543.854 5766.77 540.551 5767.92 540.551C5768.68 540.551 5769.06 540.916 5769.06 542.203V553.651H5769.33C5772.5 548.695 5777.85 540.551 5785.61 540.551C5788.79 540.551 5792.86 542.699 5792.86 547.288C5792.86 550.728 5790.46 553.795 5786.88 553.795C5782.92 553.795 5782.92 550.728 5778.48 550.728C5776.32 550.728 5769.18 553.651 5769.18 561.308V591.191C5769.18 595.408 5771.73 595.408 5775.29 595.408H5782.42V598.728C5775.42 598.607 5770.08 598.476 5764.61 598.476C5759.38 598.476 5754.04 598.607 5749.45 598.728V595.408Z" fill="#231F20"/>
<path d="M5798.46 581.03C5800.12 589.426 5805.22 596.564 5814.51 596.564C5822.01 596.564 5824.8 591.976 5824.8 587.522C5824.8 572.505 5797.07 577.322 5797.07 556.84C5797.07 549.7 5802.8 540.549 5816.81 540.549C5820.87 540.549 5826.35 541.692 5831.31 544.234L5832.21 557.22H5829.29C5828.01 549.206 5823.54 544.607 5815.4 544.607C5810.3 544.607 5805.48 547.545 5805.48 553.018C5805.48 567.923 5835 563.331 5835 583.32C5835 591.716 5828.26 600.629 5813.12 600.629C5808 600.629 5802.03 598.856 5797.57 596.315L5796.17 581.668L5798.46 581.03Z" fill="#231F20"/>
<path d="M5949.96 532.9H5946.78C5944.36 518.012 5933.79 512.03 5919.55 512.03C5904.89 512.03 5883.62 521.825 5883.62 552.364C5883.62 578.099 5901.99 596.564 5921.57 596.564C5934.18 596.564 5944.62 587.911 5947.17 574.536L5950.09 575.29L5947.17 593.886C5941.82 597.204 5927.42 600.629 5919.02 600.629C5889.23 600.629 5870.41 581.41 5870.41 552.767C5870.41 526.667 5893.69 507.948 5918.65 507.948C5928.97 507.948 5938.88 511.26 5948.69 514.692L5949.96 532.9Z" fill="#231F20"/>
<path d="M5954.54 595.408H5956.97C5960.54 595.408 5963.09 595.408 5963.09 591.191V520.32C5963.09 512.03 5961.18 511.772 5956.33 510.379V508.338C5961.42 506.68 5966.77 504.406 5969.45 502.857C5970.84 502.097 5971.87 501.448 5972.25 501.448C5973.02 501.448 5973.26 502.218 5973.26 503.244V591.191C5973.26 595.408 5976.07 595.408 5979.64 595.408H5981.8V598.728C5977.49 598.728 5973.02 598.476 5968.42 598.476C5963.85 598.476 5959.27 598.607 5954.54 598.728V595.408Z" fill="#231F20"/>
<path d="M6036.3 591.714C6036.3 594.021 6037.68 594.135 6039.86 594.135C6041.37 594.135 6043.3 594.021 6044.96 594.021V596.699C6039.46 597.202 6029.03 599.874 6026.6 600.634L6025.97 600.254V589.956C6018.35 596.19 6012.47 600.634 6003.42 600.634C5996.55 600.634 5989.44 596.19 5989.44 585.504V552.902C5989.44 549.582 5988.92 546.393 5981.81 545.77V543.349C5986.4 543.212 5996.55 542.465 5998.22 542.465C5999.64 542.465 5999.64 543.349 5999.64 546.15V578.987C5999.64 582.801 5999.64 593.753 6010.7 593.753C6015.02 593.753 6020.75 590.435 6026.1 586.013V551.737C6026.1 549.202 6019.99 547.809 6015.41 546.524V544.232C6026.87 543.463 6034.01 542.465 6035.27 542.465C6036.3 542.465 6036.3 543.349 6036.3 544.757V591.714Z" fill="#231F20"/>
<path d="M6061.62 584.337C6061.62 589.177 6066.2 597.322 6074.74 597.322C6088.37 597.322 6094.1 583.947 6094.1 572.613C6094.1 558.875 6083.65 547.419 6073.73 547.419C6068.99 547.419 6065.06 550.479 6061.62 553.417V584.337ZM6061.62 549.702C6066.71 545.386 6073.6 540.553 6080.59 540.553C6095.36 540.553 6104.27 553.417 6104.27 567.278C6104.27 583.947 6092.06 600.632 6073.83 600.632C6064.41 600.632 6059.46 597.58 6056.14 596.188L6052.33 599.103L6049.67 597.71C6050.78 590.205 6051.43 582.807 6051.43 575.049V520.32C6051.43 512.032 6049.53 511.766 6044.69 510.373V508.334C6049.8 506.68 6055.12 504.406 6057.8 502.853C6059.2 502.099 6060.22 501.452 6060.61 501.452C6061.37 501.452 6061.62 502.22 6061.62 503.248V549.702Z" fill="#231F20"/>
<path d="M5512.38 672.738H5513.35C5515.84 672.738 5518.48 672.41 5518.48 668.795V632.511C5518.48 628.895 5515.84 628.567 5513.35 628.567H5512.38V626.459C5515.09 626.459 5519.24 626.748 5522.64 626.748C5526.11 626.748 5530.26 626.459 5533.51 626.459V628.567H5532.54C5530.05 628.567 5527.41 628.895 5527.41 632.511V668.795C5527.41 672.41 5530.05 672.738 5532.54 672.738H5533.51V674.831C5530.19 674.831 5526.02 674.558 5522.57 674.558C5519.16 674.558 5515.09 674.831 5512.38 674.831V672.738Z" fill="#231F20"/>
<path d="M5533.21 674.532L5533.22 673.055H5532.55C5530.07 673.055 5527.12 672.623 5527.1 668.793V632.507C5527.12 628.679 5530.07 628.253 5532.55 628.253H5533.21V626.785C5530.01 626.785 5526 627.051 5522.64 627.051C5519.36 627.051 5515.37 626.791 5512.69 626.785V628.253H5513.35C5515.82 628.253 5518.77 628.679 5518.77 632.507V668.793C5518.77 672.623 5515.82 673.055 5513.35 673.055H5512.69V674.532C5515.37 674.494 5519.29 674.251 5522.57 674.251C5525.94 674.251 5529.95 674.509 5533.21 674.532ZM5533.51 675.127C5530.16 675.127 5526.01 674.853 5522.57 674.853C5519.17 674.853 5515.1 675.127 5512.38 675.127H5512.08V672.455H5513.35C5515.86 672.393 5518.15 672.188 5518.17 668.793V632.507C5518.15 629.121 5515.86 628.891 5513.35 628.847H5512.08V626.183H5512.38C5515.1 626.183 5519.25 626.449 5522.64 626.449C5526.09 626.449 5530.23 626.183 5533.51 626.183H5533.81V628.847H5532.55C5530.03 628.891 5527.72 629.121 5527.71 632.507V668.793C5527.72 672.188 5530.03 672.393 5532.55 672.455H5533.81V675.127H5533.51Z" fill="#231F20"/>
<path d="M5581.1 661.18L5581.24 661.043V635.065C5581.24 629.387 5577.29 628.563 5575.2 628.563H5573.69V626.464C5576.94 626.464 5580.14 626.746 5583.39 626.746C5586.22 626.746 5589.07 626.464 5591.9 626.464V628.563H5590.88C5587.95 628.563 5584.69 629.106 5584.69 637.349V668.876C5584.69 671.297 5584.77 673.716 5585.11 675.864H5582.48L5546.8 636.109V664.636C5546.8 670.68 5547.98 672.734 5553.31 672.734H5554.48V674.828C5551.52 674.828 5548.53 674.554 5545.55 674.554C5542.45 674.554 5539.25 674.828 5536.14 674.828V672.734H5537.11C5541.89 672.734 5543.35 669.501 5543.35 663.951V634.783C5543.35 630.902 5540.14 628.563 5537.04 628.563H5536.14V626.464C5538.76 626.464 5541.47 626.746 5544.09 626.746C5546.18 626.746 5548.2 626.464 5550.27 626.464L5581.1 661.18Z" fill="#231F20"/>
<path d="M5580.94 661.04V661.016L5580.88 660.972L5580.94 661.04ZM5582.47 675.563H5584.77C5584.46 673.485 5584.41 671.17 5584.41 668.88V637.345C5584.41 629.032 5587.89 628.257 5590.87 628.257H5591.6V626.779C5588.87 626.794 5586.14 627.053 5583.39 627.053C5580.22 627.053 5577.12 626.794 5573.99 626.779V628.257H5575.2C5577.34 628.257 5581.53 629.2 5581.53 635.069L5581.45 661.254L5581.3 661.383L5581.07 661.603L5550.27 626.779C5548.21 626.779 5546.2 627.053 5544.1 627.053C5541.56 627.053 5538.95 626.794 5536.44 626.779L5536.43 628.257H5537.04C5540.29 628.257 5543.64 630.738 5543.64 634.787V663.955C5543.64 669.505 5542.09 673.035 5537.11 673.059L5536.44 673.035V674.534C5539.44 674.498 5542.52 674.247 5545.55 674.247C5548.45 674.247 5551.33 674.498 5554.18 674.534V673.059H5553.31C5547.86 673.035 5546.5 670.676 5546.5 664.639V635.327L5582.47 675.563ZM5585.11 676.172L5582.25 676.064L5547.1 636.888V664.639C5547.19 670.676 5548.1 672.381 5553.31 672.457H5554.8V675.121H5554.49C5551.5 675.121 5548.51 674.855 5545.55 674.855C5542.46 674.855 5539.28 675.121 5536.13 675.121H5535.82V672.457H5537.11C5541.69 672.42 5542.99 669.482 5543.05 663.955V634.787C5543.04 631.102 5540.01 628.857 5537.04 628.849H5535.82V626.179H5536.13C5538.78 626.179 5541.48 626.453 5544.1 626.453C5546.15 626.453 5548.16 626.179 5550.5 626.285L5580.94 660.546V635.069C5580.9 629.557 5577.23 628.895 5575.2 628.849H5573.37V626.179H5573.68C5576.95 626.179 5580.15 626.453 5583.39 626.453C5586.2 626.453 5589.04 626.179 5591.9 626.179H5592.21V628.849H5590.87C5588 628.934 5585.08 629.192 5584.99 637.345V668.88C5584.99 671.286 5585.06 673.705 5585.4 675.821L5585.46 676.172H5585.11Z" fill="#231F20"/>
<path d="M5602.27 629.933C5597.07 629.933 5596.88 631.181 5595.83 636.234H5593.76C5594.04 634.303 5594.38 632.36 5594.6 630.344C5594.86 628.411 5595.01 626.463 5595.01 624.468H5596.68C5597.23 626.545 5598.96 626.463 5600.83 626.463H5636.58C5638.44 626.463 5640.18 626.401 5640.32 624.323L5641.97 624.612C5641.71 626.463 5641.43 628.342 5641.22 630.215C5641.07 632.078 5641.07 633.959 5641.07 635.825L5639 636.6C5638.87 634.027 5638.51 629.933 5633.87 629.933H5622.52V666.789C5622.52 672.14 5624.95 672.74 5628.27 672.74H5629.57V674.826C5626.88 674.826 5622.02 674.554 5618.29 674.554C5614.14 674.554 5609.27 674.826 5606.57 674.826V672.74H5607.89C5611.71 672.74 5613.63 672.406 5613.63 666.941V629.933H5602.27Z" fill="#231F20"/>
<path d="M5629.59 675.123C5626.86 675.123 5622.01 674.849 5618.29 674.849C5614.14 674.849 5609.3 675.123 5606.57 675.123H5606.28V672.451H5607.9C5611.72 672.36 5613.26 672.314 5613.33 666.939V630.228H5602.27V629.642H5613.94V666.939C5613.94 672.489 5611.7 673.06 5607.9 673.06H5606.88V674.521C5609.62 674.498 5614.27 674.249 5618.29 674.249C5621.9 674.249 5626.53 674.498 5629.27 674.521V673.06H5628.26C5624.92 673.06 5622.21 672.244 5622.21 666.789V629.642H5633.87C5638.53 629.65 5639.14 633.593 5639.28 636.166L5640.79 635.611C5640.79 633.815 5640.8 632.003 5640.92 630.167C5641.11 628.401 5641.37 626.628 5641.63 624.855L5640.58 624.68C5640.24 626.69 5638.3 626.804 5636.57 626.781H5600.47C5598.84 626.781 5597.07 626.698 5596.46 624.771H5595.3C5595.3 626.69 5595.16 628.538 5594.89 630.396C5594.69 632.293 5594.39 634.125 5594.13 635.937H5595.6C5596.53 631.127 5597.11 629.559 5602.27 629.642V630.228C5597.16 630.334 5597.27 631.187 5596.13 636.311L5596.09 636.546H5593.41L5593.46 636.19C5593.72 634.256 5594.09 632.314 5594.3 630.298C5594.57 628.38 5594.71 626.453 5594.71 624.466V624.163H5596.91L5596.96 624.383C5597.44 626.135 5598.71 626.142 5600.47 626.179H5636.57C5638.49 626.142 5639.9 626.111 5640.02 624.298L5640.04 623.98L5640.35 624.041L5642.3 624.344L5642.27 624.641C5642 626.507 5641.72 628.38 5641.52 630.228C5641.38 632.086 5641.38 633.959 5641.38 635.823V636.035L5641.18 636.12L5638.72 637.019L5638.72 636.599C5638.53 634.004 5638.25 630.228 5633.87 630.228H5622.82V666.789C5622.88 672.017 5624.96 672.383 5628.26 672.451H5629.87V675.123H5629.59Z" fill="#231F20"/>
<path d="M5644.19 672.738H5645.16C5647.65 672.738 5650.28 672.41 5650.28 668.795V632.511C5650.28 628.895 5647.65 628.567 5645.16 628.567H5644.19V626.459C5648.4 626.459 5655.63 626.748 5661.43 626.748C5667.26 626.748 5674.46 626.459 5679.15 626.459C5679.04 629.449 5679.11 634.033 5679.31 637.077L5677.22 637.633C5676.89 633.134 5676.05 629.534 5668.78 629.534H5659.17V647.664H5667.39C5671.56 647.664 5672.46 645.328 5672.87 641.584H5674.94C5674.81 644.284 5674.73 646.98 5674.73 649.682C5674.73 652.323 5674.81 654.949 5674.94 657.575L5672.87 657.993C5672.46 653.838 5672.25 651.137 5667.46 651.137H5659.17V667.273C5659.17 671.779 5663.18 671.779 5667.6 671.779C5675.93 671.779 5679.59 671.224 5681.66 663.33L5683.6 663.818C5682.7 667.5 5681.87 671.147 5681.25 674.831C5676.82 674.831 5668.85 674.558 5662.61 674.558C5656.37 674.558 5648.14 674.831 5644.19 674.831V672.738Z" fill="#231F20"/>
<path d="M5681 674.521C5681.59 671.027 5682.38 667.526 5683.24 664.04L5681.87 663.696C5679.79 671.453 5675.78 672.138 5667.6 672.078C5663.23 672.078 5658.87 672.078 5658.84 667.275V650.84H5667.46C5672.3 650.78 5672.78 653.711 5673.12 657.654L5674.63 657.341C5674.5 654.791 5674.43 652.219 5674.43 649.684C5674.43 647.088 5674.5 644.493 5674.63 641.865H5673.12C5672.74 645.49 5671.63 648.016 5667.38 647.971H5658.84V629.215H5668.78C5675.99 629.177 5677.19 632.9 5677.49 637.237L5678.98 636.834C5678.86 634.878 5678.8 632.389 5678.8 630.076C5678.8 628.866 5678.82 627.761 5678.85 626.781C5674.14 626.794 5667.13 627.055 5661.43 627.055C5655.75 627.055 5648.73 626.794 5644.49 626.781V628.257H5645.16C5647.63 628.257 5650.58 628.683 5650.59 632.503V668.797C5650.58 672.617 5647.63 673.03 5645.16 673.059H5644.49V674.521C5648.52 674.505 5656.53 674.247 5662.61 674.247C5668.72 674.247 5676.52 674.505 5681 674.521ZM5681.25 675.123C5676.8 675.123 5668.84 674.841 5662.61 674.841C5656.37 674.841 5648.15 675.123 5644.19 675.123H5643.89V672.459H5645.16C5647.66 672.412 5649.95 672.185 5649.98 668.797V632.503C5649.95 629.133 5647.66 628.903 5645.16 628.843H5643.89V626.179H5644.19C5648.41 626.179 5655.63 626.453 5661.43 626.453C5667.25 626.453 5674.44 626.179 5679.15 626.179H5679.47V626.484C5679.4 627.526 5679.38 628.752 5679.38 630.076C5679.38 632.458 5679.47 635.076 5679.59 637.048V637.299L5679.37 637.368L5676.94 638.007L5676.93 637.642C5676.52 633.159 5675.93 629.885 5668.78 629.825H5659.45V647.362H5667.38C5671.39 647.331 5672.09 645.284 5672.56 641.547L5672.59 641.281H5675.26V641.584C5675.11 644.286 5675.03 646.982 5675.03 649.684C5675.03 652.302 5675.11 654.936 5675.26 657.577V657.814L5675.01 657.874L5672.59 658.346L5672.56 658.026C5672.09 653.801 5672.07 651.488 5667.46 651.434L5659.45 651.419V667.275C5659.45 671.484 5663.08 671.461 5667.6 671.484C5675.95 671.438 5679.28 671.027 5681.37 663.247L5681.44 662.965L5681.73 663.027L5683.95 663.598L5683.89 663.887C5682.99 667.541 5682.17 671.218 5681.54 674.87L5681.5 675.123H5681.25Z" fill="#231F20"/>
<path d="M5701.82 649.883H5705.21C5712.14 649.883 5715.88 647.265 5715.88 639.083C5715.88 632.931 5711.93 628.967 5705.76 628.967C5703.67 628.967 5702.78 629.187 5701.82 629.248V649.883ZM5692.96 633.815C5692.96 628.753 5690.19 628.562 5688.04 628.562H5686.78V626.463C5688.99 626.463 5693.29 626.744 5697.52 626.744C5701.66 626.744 5705 626.463 5708.68 626.463C5717.39 626.463 5725.15 628.822 5725.15 638.671C5725.15 644.898 5721.01 648.702 5715.54 650.873L5727.39 668.585C5729.32 671.523 5730.69 672.337 5734.09 672.74V674.826C5731.81 674.826 5729.59 674.554 5727.31 674.554C5725.15 674.554 5722.94 674.826 5720.79 674.826C5715.47 667.84 5710.88 660.349 5706.39 652.372H5701.82V667.2C5701.82 672.551 5704.31 672.74 5707.49 672.74H5708.75V674.826C5704.79 674.826 5700.78 674.554 5696.82 674.554C5693.51 674.554 5690.25 674.826 5686.78 674.826V672.74H5688.04C5690.58 672.74 5692.96 671.577 5692.96 669.003V633.815Z" fill="#231F20"/>
<path d="M5705.21 649.588C5712.06 649.52 5715.52 647.146 5715.58 639.091C5715.55 633.049 5711.79 629.295 5705.76 629.258C5703.88 629.258 5703.01 629.426 5702.12 629.524V649.588H5705.21ZM5705.21 650.174H5701.52V628.961L5701.77 628.938C5702.73 628.862 5703.65 628.679 5705.76 628.679C5712.06 628.679 5716.17 632.781 5716.18 639.091C5716.16 647.358 5712.19 650.174 5705.21 650.174ZM5701.52 652.077H5706.55L5706.63 652.229C5711.14 660.198 5715.7 667.674 5720.8 674.532C5722.91 674.532 5725.14 674.251 5727.29 674.251C5729.51 674.251 5731.64 674.486 5733.8 674.517V672.995C5730.54 672.605 5729.02 671.633 5727.14 668.762L5715.07 650.722L5715.42 650.578C5720.84 648.448 5724.85 644.748 5724.86 638.657C5724.85 629.059 5717.38 626.814 5708.69 626.785C5705.03 626.785 5701.68 627.051 5697.53 627.051C5693.44 627.051 5689.34 626.791 5687.08 626.785V628.261H5688.03C5690.18 628.261 5693.23 628.61 5693.23 633.817V669.005C5693.23 671.793 5690.65 673.055 5688.03 673.055H5687.08V674.517C5690.42 674.509 5693.56 674.251 5696.81 674.251C5700.69 674.251 5704.6 674.509 5708.43 674.517V673.055H5707.49C5704.33 673.055 5701.52 672.667 5701.52 667.202V652.077ZM5734.09 675.119C5731.77 675.119 5729.57 674.853 5727.29 674.853C5725.19 674.853 5722.97 675.119 5720.55 675.019C5715.25 668.039 5710.7 660.602 5706.21 652.678H5702.12V667.202C5702.19 672.416 5704.29 672.37 5707.49 672.455H5709.04V675.119H5708.73C5704.76 675.119 5700.74 674.853 5696.81 674.853C5693.5 674.853 5690.26 675.119 5686.77 675.119H5686.49V672.455H5688.03C5690.53 672.432 5692.62 671.343 5692.64 669.005V633.817C5692.6 628.907 5690.18 628.915 5688.03 628.847H5686.49V626.183H5686.77C5689.03 626.183 5693.3 626.449 5697.53 626.449C5701.65 626.449 5704.99 626.183 5708.69 626.183C5717.4 626.183 5725.45 628.61 5725.47 638.657C5725.47 644.915 5721.33 648.82 5715.99 650.996L5727.62 668.421C5729.56 671.297 5730.76 672.021 5734.13 672.455L5734.38 672.478V675.119H5734.09Z" fill="#231F20"/>
<path d="M5781.12 661.18L5781.25 661.043V635.065C5781.25 629.387 5777.31 628.563 5775.24 628.563H5773.71V626.464C5776.97 626.464 5780.14 626.746 5783.41 626.746C5786.26 626.746 5789.09 626.464 5791.94 626.464V628.563H5790.91C5787.99 628.563 5784.73 629.106 5784.73 637.349V668.876C5784.73 671.297 5784.79 673.716 5785.13 675.864H5782.51L5746.84 636.109V664.636C5746.84 670.68 5748.02 672.734 5753.35 672.734H5754.54V674.828C5751.55 674.828 5748.57 674.554 5745.59 674.554C5742.47 674.554 5739.29 674.828 5736.17 674.828V672.734H5737.12C5741.92 672.734 5743.37 669.501 5743.37 663.951V634.783C5743.37 630.902 5740.18 628.563 5737.07 628.563H5736.17V626.464C5738.79 626.464 5741.52 626.746 5744.14 626.746C5746.21 626.746 5748.22 626.464 5750.29 626.464L5781.12 661.18Z" fill="#231F20"/>
<path d="M5780.95 661.04V661.016L5780.92 660.972L5780.95 661.04ZM5782.52 675.563H5784.78C5784.49 673.493 5784.43 671.17 5784.43 668.88V637.345C5784.43 629.032 5787.93 628.272 5790.9 628.257H5791.63V626.779C5788.9 626.794 5786.16 627.053 5783.41 627.053C5780.24 627.053 5777.13 626.794 5774.01 626.779V628.257H5775.24C5777.37 628.272 5781.57 629.2 5781.57 635.069L5781.47 661.254L5781.34 661.383L5781.12 661.618L5750.29 626.779C5748.24 626.779 5746.21 627.053 5744.14 627.053C5741.56 627.053 5738.98 626.794 5736.46 626.779V628.257H5737.07C5740.32 628.272 5743.67 630.722 5743.67 634.787V663.947C5743.67 669.505 5742.09 673.035 5737.12 673.059H5736.46V674.521C5739.46 674.498 5742.55 674.247 5745.59 674.247C5748.48 674.247 5751.36 674.498 5754.23 674.521V673.059H5753.36C5747.9 673.059 5746.53 670.684 5746.52 664.639V635.327L5782.52 675.563ZM5785.13 676.172L5782.29 676.064L5747.14 636.888V664.639C5747.22 670.684 5748.13 672.381 5753.36 672.457H5754.82V675.121H5754.53C5751.53 675.121 5748.55 674.839 5745.59 674.839C5742.49 674.839 5739.28 675.121 5736.17 675.121H5735.85V672.457H5737.12C5741.69 672.435 5743.02 669.482 5743.06 663.947V634.787C5743.05 631.087 5740.04 628.857 5737.07 628.849H5735.85V626.179H5736.17C5738.81 626.179 5741.53 626.453 5744.14 626.453C5746.18 626.453 5748.18 626.179 5750.5 626.262L5780.95 660.546V635.069C5780.95 629.557 5777.25 628.88 5775.24 628.849H5773.4V626.179H5773.71C5776.99 626.179 5780.18 626.453 5783.41 626.453C5786.23 626.453 5789.08 626.179 5791.93 626.179H5792.23V628.849H5790.9C5788.05 628.918 5785.1 629.192 5785.03 637.345V668.88C5785.03 671.286 5785.09 673.684 5785.44 675.821L5785.47 676.172H5785.13Z" fill="#231F20"/>
<path d="M5813.2 634.23H5813.06L5806.61 653.838H5819.56L5813.2 634.23ZM5803.09 664.921C5802.39 667.273 5801.54 669.092 5801.54 670.317C5801.54 672.405 5804.47 672.738 5806.75 672.738H5807.52V674.824C5804.73 674.687 5801.9 674.558 5799.12 674.558C5796.62 674.558 5794.14 674.687 5791.65 674.824V672.738H5792.06C5794.76 672.738 5797.06 671.147 5798.07 668.239L5809.17 636.462C5810.07 633.888 5811.33 630.433 5811.73 627.852C5813.95 627.099 5816.73 625.72 5818.04 624.883C5818.26 624.807 5818.36 624.753 5818.59 624.753C5818.79 624.753 5818.94 624.753 5819.08 624.952C5819.28 625.508 5819.49 626.131 5819.71 626.686L5832.45 662.919C5833.27 665.34 5834.11 667.911 5835 669.991C5835.84 671.924 5837.3 672.738 5839.59 672.738H5839.99V674.824C5836.88 674.687 5833.76 674.558 5830.44 674.558C5827.06 674.558 5823.59 674.687 5820.06 674.824V672.738H5820.82C5822.41 672.738 5825.11 672.48 5825.11 670.744C5825.11 669.839 5824.49 667.965 5823.71 665.751L5821.01 657.712H5805.29L5803.09 664.921Z" fill="#231F20"/>
<path d="M5807.01 653.545H5819.14L5813.11 634.97L5807.01 653.545ZM5806.18 654.145L5812.82 633.936H5813.4L5819.98 654.145H5806.18ZM5820.35 674.498C5823.77 674.392 5827.14 674.249 5830.44 674.249C5833.67 674.249 5836.68 674.392 5839.69 674.498V673.06H5839.58C5837.22 673.084 5835.59 672.131 5834.73 670.107C5833.83 668.006 5832.98 665.432 5832.17 663.013L5819.42 626.781C5819.21 626.225 5818.99 625.6 5818.83 625.106C5818.76 625.037 5818.78 625.037 5818.72 625.037H5818.59C5818.45 625.037 5818.37 625.076 5818.19 625.13C5816.86 625.988 5814.07 627.36 5812.01 627.9C5811.59 630.533 5810.35 633.981 5809.44 636.547L5798.37 668.347C5797.31 671.355 5794.88 673.06 5792.06 673.06H5791.95V674.498C5794.32 674.392 5796.72 674.249 5799.13 674.249C5801.81 674.249 5804.54 674.392 5807.19 674.498V673.06H5806.75C5804.49 673.03 5801.33 672.787 5801.26 670.327C5801.26 668.949 5802.1 667.169 5802.79 664.84L5803.09 664.921L5802.79 664.832L5805.07 657.426H5821.21L5823.99 665.654C5824.77 667.884 5825.4 669.727 5825.4 670.745C5825.3 672.87 5822.38 673.022 5820.82 673.06H5820.35V674.498ZM5839.97 675.123C5836.87 674.994 5833.76 674.841 5830.44 674.841C5827.06 674.841 5823.61 674.994 5820.06 675.123L5819.75 675.146V672.428H5820.82C5822.41 672.428 5824.79 672.079 5824.79 670.745C5824.8 669.955 5824.2 668.052 5823.43 665.853L5820.8 658.019H5805.51L5803.35 665.008C5802.64 667.381 5801.83 669.208 5801.83 670.327C5801.85 672.017 5804.45 672.428 5806.75 672.428H5807.8V675.146L5807.49 675.123C5804.72 674.994 5801.88 674.841 5799.13 674.841C5796.64 674.841 5794.14 674.994 5791.66 675.123L5791.36 675.146V672.428H5792.06C5794.64 672.428 5796.78 670.952 5797.78 668.143L5808.88 636.356C5809.79 633.784 5811.03 630.335 5811.63 627.58C5813.8 626.827 5816.58 625.432 5817.93 624.597C5818.12 624.528 5818.31 624.429 5818.59 624.429C5818.76 624.421 5819.14 624.474 5819.34 624.848C5819.56 625.411 5819.77 626.027 5819.98 626.584L5832.74 662.822C5833.55 665.243 5834.38 667.8 5835.28 669.841C5836.08 671.699 5837.36 672.428 5839.58 672.428H5840.3V675.146L5839.97 675.123Z" fill="#231F20"/>
<path d="M5843.05 629.933C5837.84 629.933 5837.65 631.181 5836.6 636.234H5834.52C5834.8 634.303 5835.15 632.36 5835.35 630.344C5835.64 628.411 5835.77 626.463 5835.77 624.468H5837.43C5837.99 626.545 5839.72 626.463 5841.59 626.463H5877.33C5879.2 626.463 5880.92 626.401 5881.07 624.323L5882.73 624.612C5882.46 626.463 5882.2 628.342 5881.97 630.215C5881.8 632.078 5881.8 633.959 5881.8 635.825L5879.75 636.6C5879.63 634.027 5879.27 629.933 5874.63 629.933H5863.27V666.789C5863.27 672.14 5865.7 672.74 5869.02 672.74H5870.33V674.826C5867.64 674.826 5862.79 674.554 5859.04 674.554C5854.89 674.554 5850.03 674.826 5847.32 674.826V672.74H5848.64C5852.47 672.74 5854.42 672.406 5854.42 666.941V629.933H5843.05Z" fill="#231F20"/>
<path d="M5870.32 675.123C5867.62 675.123 5862.77 674.849 5859.05 674.849C5854.9 674.849 5850.06 675.123 5847.32 675.123H5847.03V672.451H5848.65C5852.47 672.36 5853.99 672.314 5854.09 666.939V630.228H5843.05V629.642H5854.69V666.939C5854.69 672.489 5852.46 673.03 5848.65 673.06H5847.63V674.529C5850.37 674.498 5855.02 674.249 5859.05 674.249C5862.66 674.249 5867.3 674.498 5870.04 674.529L5870.02 673.06H5869.01C5865.67 673.03 5862.98 672.244 5862.97 666.789V629.642H5874.63C5879.29 629.65 5879.89 633.593 5880.02 636.166L5881.53 635.611C5881.53 633.815 5881.53 632.003 5881.67 630.184C5881.86 628.401 5882.14 626.628 5882.38 624.869L5881.35 624.68C5881.01 626.69 5879.07 626.804 5877.33 626.781H5841.23C5839.6 626.789 5837.84 626.698 5837.21 624.747H5836.07C5836.05 626.69 5835.93 628.538 5835.65 630.396C5835.46 632.306 5835.12 634.125 5834.86 635.937H5836.35C5837.27 631.127 5837.85 629.543 5843.05 629.642V630.228C5837.9 630.321 5838.02 631.187 5836.89 636.311L5836.84 636.546H5834.16L5834.21 636.19C5834.49 634.256 5834.84 632.314 5835.04 630.321C5835.33 628.38 5835.46 626.453 5835.46 624.466V624.163H5837.65L5837.71 624.383C5838.2 626.135 5839.47 626.142 5841.23 626.179H5877.33C5879.25 626.142 5880.65 626.111 5880.77 624.298L5880.78 623.98L5881.11 624.041L5883.08 624.344L5883.02 624.641C5882.72 626.507 5882.47 628.38 5882.27 630.228C5882.14 632.086 5882.14 633.959 5882.14 635.823V636.035L5881.93 636.12L5879.47 637.019V636.599C5879.29 634.004 5879.01 630.228 5874.63 630.228H5863.57V666.789C5863.64 672.017 5865.71 672.383 5869.01 672.451H5870.63V675.123H5870.32Z" fill="#231F20"/>
<path d="M5885.28 672.738H5886.25C5888.76 672.738 5891.38 672.41 5891.38 668.795V632.511C5891.38 628.895 5888.76 628.567 5886.25 628.567H5885.28V626.459C5887.99 626.459 5892.13 626.748 5895.53 626.748C5898.99 626.748 5903.15 626.459 5906.42 626.459V628.567H5905.45C5902.94 628.567 5900.3 628.895 5900.3 632.511V668.795C5900.3 672.41 5902.94 672.738 5905.45 672.738H5906.42V674.831C5903.09 674.831 5898.93 674.558 5895.47 674.558C5892.07 674.558 5887.99 674.831 5885.28 674.831V672.738Z" fill="#231F20"/>
<path d="M5906.1 674.521V673.059H5905.45C5902.97 673.059 5900.02 672.617 5900.02 668.797V632.503C5900.02 628.683 5902.97 628.257 5905.45 628.257H5906.1V626.781C5902.9 626.794 5898.91 627.055 5895.53 627.055C5892.24 627.055 5888.27 626.794 5885.59 626.781V628.257H5886.25C5888.71 628.257 5891.68 628.683 5891.68 632.503V668.797C5891.68 672.617 5888.71 673.059 5886.25 673.059H5885.59V674.521C5888.27 674.482 5892.17 674.247 5895.47 674.247C5898.83 674.247 5902.84 674.498 5906.1 674.521ZM5906.42 675.123C5903.07 675.123 5898.92 674.841 5895.47 674.841C5892.08 674.841 5887.99 675.123 5885.28 675.123H5884.99V672.459H5886.25C5888.76 672.412 5891.05 672.185 5891.06 668.797V632.503C5891.05 629.133 5888.76 628.895 5886.25 628.843H5884.99V626.179H5885.28C5887.99 626.179 5892.15 626.453 5895.53 626.453C5898.99 626.453 5903.14 626.179 5906.42 626.179H5906.7V628.843H5905.45C5902.92 628.895 5900.63 629.133 5900.61 632.503V668.797C5900.63 672.185 5902.92 672.412 5905.45 672.459H5906.7V675.123H5906.42Z" fill="#231F20"/>
<path d="M5935.08 672.819C5948.54 672.819 5950.86 660.968 5950.86 650.875C5950.86 640.744 5945.41 628.49 5933.91 628.49C5921.79 628.49 5918.19 639.29 5918.19 648.562C5918.19 660.968 5923.87 672.819 5935.08 672.819ZM5934.05 625.436C5948.81 625.436 5960.58 634.586 5960.58 649.345C5960.58 665.278 5949.16 675.866 5934.4 675.866C5919.69 675.866 5908.5 665.901 5908.5 650.99C5908.5 636.604 5919.65 625.436 5934.05 625.436Z" fill="#231F20"/>
<path d="M5917.88 648.562C5917.9 639.245 5921.55 628.178 5933.91 628.178C5945.68 628.199 5951.16 640.69 5951.17 650.875C5951.16 660.968 5948.78 673.109 5935.08 673.109V672.524C5948.27 672.515 5950.55 660.968 5950.58 650.875C5950.58 640.827 5945.16 628.801 5933.91 628.785C5922.03 628.801 5918.51 639.344 5918.49 648.562C5918.5 660.914 5924.13 672.491 5935.08 672.524V673.109C5923.59 673.093 5917.9 661.036 5917.88 648.562ZM5908.18 650.996C5908.22 636.429 5919.49 625.155 5934.04 625.124V625.741C5919.79 625.741 5908.77 636.747 5908.77 650.996C5908.79 665.726 5919.85 675.553 5934.39 675.561C5949 675.553 5960.26 665.108 5960.3 649.329C5960.29 634.76 5948.69 625.756 5934.04 625.741V625.124C5948.92 625.155 5960.85 634.395 5960.87 649.329C5960.86 665.429 5949.3 676.14 5934.39 676.168C5919.58 676.14 5908.22 666.046 5908.18 650.996Z" fill="#231F20"/>
<path d="M6007.27 661.18L6007.41 661.043V635.065C6007.41 629.387 6003.46 628.563 6001.36 628.563H5999.87V626.464C6003.1 626.464 6006.31 626.746 6009.55 626.746C6012.41 626.746 6015.24 626.464 6018.07 626.464V628.563H6017.04C6014.12 628.563 6010.86 629.106 6010.86 637.349V668.876C6010.86 671.297 6010.94 673.716 6011.28 675.864H6008.64L5972.97 636.109V664.636C5972.97 670.68 5974.15 672.734 5979.49 672.734H5980.66V674.828C5977.69 674.828 5974.72 674.554 5971.73 674.554C5968.61 674.554 5965.41 674.828 5962.29 674.828V672.734H5963.28C5968.07 672.734 5969.5 669.501 5969.5 663.951V634.783C5969.5 630.902 5966.33 628.563 5963.19 628.563H5962.29V626.464C5964.94 626.464 5967.63 626.746 5970.27 626.746C5972.34 626.746 5974.35 626.464 5976.43 626.464L6007.27 661.18Z" fill="#231F20"/>
<path d="M6007.09 661.04V661.016L6007.03 660.972L6007.09 661.04ZM6008.64 675.563H6010.93C6010.62 673.485 6010.57 671.17 6010.57 668.88V637.345C6010.57 629.024 6014.07 628.272 6017.04 628.257H6017.78V626.779C6015.03 626.794 6012.3 627.053 6009.53 627.053C6006.4 627.053 6003.3 626.794 6000.15 626.779V628.257H6001.35C6003.52 628.272 6007.7 629.215 6007.7 635.069L6007.61 661.254L6007.49 661.383L6007.27 661.618L5976.43 626.779C5974.39 626.779 5972.36 627.053 5970.27 627.053C5967.71 627.053 5965.1 626.794 5962.6 626.779V628.257H5963.19C5966.46 628.272 5969.8 630.722 5969.8 634.787V663.955C5969.8 669.505 5968.26 673.035 5963.27 673.059H5962.6V674.521C5965.6 674.498 5968.68 674.247 5971.73 674.247C5974.62 674.247 5977.5 674.498 5980.36 674.521V673.059H5979.46C5974.03 673.059 5972.68 670.684 5972.68 664.639V635.327L6008.64 675.563ZM6011.28 676.172L6008.41 676.064L5973.26 636.888V664.639C5973.34 670.684 5974.26 672.374 5979.46 672.435H5980.97V675.121H5980.67C5977.67 675.121 5974.69 674.855 5971.73 674.855C5968.63 674.855 5965.44 675.121 5962.29 675.121H5962.01V672.435H5963.27C5967.84 672.42 5969.16 669.482 5969.19 663.955V634.787C5969.19 631.087 5966.18 628.857 5963.19 628.849H5962.01V626.179H5962.29C5964.95 626.179 5967.65 626.453 5970.27 626.453C5972.32 626.453 5974.31 626.179 5976.67 626.285L6007.09 660.546V635.069C6007.08 629.557 6003.4 628.895 6001.35 628.849H5999.55V626.179H5999.86C6003.11 626.179 6006.32 626.453 6009.53 626.453C6012.38 626.453 6015.19 626.179 6018.07 626.179H6018.37V628.849H6017.04C6014.19 628.934 6011.23 629.192 6011.17 637.345V668.88C6011.17 671.286 6011.23 673.705 6011.55 675.821L6011.61 676.172H6011.28Z" fill="#231F20"/>
<path d="M6039.32 634.23H6039.19L6032.74 653.838H6045.71L6039.32 634.23ZM6029.21 664.921C6028.53 667.273 6027.69 669.092 6027.69 670.317C6027.69 672.405 6030.62 672.738 6032.87 672.738H6033.65V674.824C6030.87 674.687 6028.04 674.558 6025.26 674.558C6022.74 674.558 6020.27 674.687 6017.8 674.824V672.738H6018.18C6020.89 672.738 6023.19 671.147 6024.22 668.239L6035.32 636.462C6036.22 633.888 6037.46 630.433 6037.87 627.852C6040.08 627.099 6042.85 625.72 6044.17 624.883C6044.38 624.807 6044.53 624.753 6044.73 624.753C6044.93 624.753 6045.06 624.753 6045.22 624.952C6045.43 625.508 6045.63 626.131 6045.85 626.686L6058.59 662.919C6059.4 665.34 6060.26 667.911 6061.15 669.991C6061.97 671.924 6063.44 672.738 6065.73 672.738H6066.14V674.824C6063.03 674.687 6059.9 674.558 6056.58 674.558C6053.18 674.558 6049.71 674.687 6046.18 674.824V672.738H6046.95C6048.53 672.738 6051.25 672.48 6051.25 670.744C6051.25 669.839 6050.62 667.965 6049.85 665.751L6047.16 657.712H6031.45L6029.21 664.921Z" fill="#231F20"/>
<path d="M6033.17 653.527H6045.29L6039.25 634.986L6033.17 653.527ZM6032.32 654.121L6039 633.936H6039.55L6046.1 654.121H6032.32ZM6046.48 674.505C6049.9 674.392 6053.28 674.249 6056.59 674.249C6059.8 674.249 6062.81 674.392 6065.83 674.498V673.06H6065.72C6063.38 673.06 6061.73 672.131 6060.87 670.107C6059.94 668.006 6059.12 665.432 6058.3 663.013L6045.56 626.781C6045.36 626.225 6045.13 625.6 6044.96 625.129C6044.91 625.037 6044.91 625.037 6044.86 625.037H6044.73C6044.59 625.037 6044.51 625.075 6044.33 625.129C6042.99 625.974 6040.23 627.367 6038.15 627.9C6037.74 630.533 6036.47 633.981 6035.59 636.546L6024.49 668.347C6023.44 671.355 6021.04 673.06 6018.19 673.06H6018.07V674.498C6020.47 674.392 6022.86 674.249 6025.27 674.249C6027.95 674.249 6030.68 674.392 6033.36 674.498V673.06H6032.87C6030.63 673.03 6027.47 672.787 6027.39 670.319C6027.4 668.949 6028.26 667.176 6028.94 664.84L6029.21 664.921L6028.94 664.832L6031.21 657.426H6047.38L6050.14 665.654C6050.92 667.884 6051.53 669.727 6051.53 670.745C6051.43 672.869 6048.53 673.022 6046.93 673.06H6046.48V674.505ZM6066.12 675.123C6063 675.001 6059.87 674.849 6056.59 674.849C6053.2 674.849 6049.73 675.001 6046.2 675.123L6045.89 675.146V672.459H6046.93C6048.55 672.459 6050.94 672.078 6050.95 670.745C6050.96 669.954 6050.34 668.06 6049.55 665.853L6046.93 658.018H6031.64L6029.5 665.008C6028.81 667.389 6027.97 669.208 6028 670.319C6028 672.017 6030.59 672.459 6032.87 672.459H6033.94V675.146L6033.63 675.123C6030.87 675.001 6028.02 674.849 6025.27 674.849C6022.77 674.849 6020.29 675.001 6017.8 675.123L6017.49 675.146V672.459H6018.19C6020.76 672.428 6022.93 670.944 6023.94 668.143L6035.03 636.355C6035.91 633.784 6037.16 630.334 6037.76 627.58C6039.95 626.827 6042.73 625.432 6044.07 624.597C6044.25 624.528 6044.46 624.445 6044.73 624.445C6044.91 624.421 6045.27 624.474 6045.49 624.855C6045.69 625.403 6045.9 626.027 6046.12 626.584L6058.87 662.822C6059.69 665.243 6060.53 667.8 6061.43 669.856C6062.25 671.698 6063.49 672.428 6065.72 672.459H6066.43V675.146L6066.12 675.123Z" fill="#231F20"/>
<path d="M6083.6 668.039C6083.6 670.809 6085.53 671.641 6087.74 671.922C6090.58 672.134 6093.7 672.134 6096.9 671.785C6099.79 671.45 6102.3 669.775 6103.54 668.039C6104.64 666.509 6105.25 664.584 6105.69 663.046H6107.7C6106.93 666.997 6105.96 670.886 6105.12 674.829C6099.03 674.829 6092.93 674.556 6086.85 674.556C6080.75 674.556 6074.64 674.829 6068.55 674.829V672.736H6069.51C6072.02 672.736 6074.72 672.408 6074.72 668.1V632.507C6074.72 628.891 6072.02 628.565 6069.51 628.565H6068.55V626.464C6072.22 626.464 6075.83 626.746 6079.49 626.746C6083.03 626.746 6086.5 626.464 6090.04 626.464V628.565H6088.29C6085.67 628.565 6083.6 628.633 6083.6 632.31V668.039Z" fill="#231F20"/>
<path d="M6104.89 674.521C6105.69 670.769 6106.6 667.084 6107.32 663.339H6105.9C6105.48 664.869 6104.87 666.719 6103.77 668.218C6102.48 670.022 6099.91 671.712 6096.9 672.078C6095.08 672.275 6093.29 672.36 6091.6 672.36C6090.26 672.36 6088.94 672.298 6087.69 672.214C6085.46 671.963 6083.26 671.004 6083.29 668.043V632.306C6083.29 628.446 6085.71 628.257 6088.3 628.257H6089.73V626.781C6086.31 626.794 6082.93 627.055 6079.5 627.055C6075.9 627.055 6072.39 626.794 6068.85 626.781V628.257H6069.51C6071.99 628.257 6075.01 628.683 6075.01 632.495V668.097C6075.01 672.58 6072 673.059 6069.51 673.059H6068.85V674.521C6074.82 674.505 6080.83 674.247 6086.86 674.247C6092.87 674.247 6098.87 674.505 6104.89 674.521ZM6105.12 675.123C6099.02 675.123 6092.93 674.849 6086.86 674.849C6080.75 674.849 6074.65 675.123 6068.54 675.123H6068.26V672.459H6069.51C6072.02 672.397 6074.41 672.214 6074.43 668.097V632.495C6074.41 629.133 6072.04 628.895 6069.51 628.843H6068.26V626.179H6068.54C6072.24 626.179 6075.84 626.453 6079.5 626.453C6083.02 626.453 6086.48 626.179 6090.04 626.179H6090.31V628.843H6088.3C6085.61 628.918 6083.93 628.797 6083.87 632.306V668.043C6083.9 670.624 6085.59 671.309 6087.77 671.629C6088.97 671.712 6090.27 671.758 6091.6 671.758C6093.29 671.758 6095.05 671.675 6096.86 671.484C6099.67 671.149 6102.1 669.528 6103.3 667.875C6104.36 666.383 6104.97 664.489 6105.38 662.975L6105.45 662.737H6108.06L6108 663.119C6107.22 667.068 6106.27 670.944 6105.43 674.901L6105.35 675.123H6105.12Z" fill="#231F20"/>
<path d="M6105.69 631.822H6106.54C6107.49 631.822 6107.92 631.114 6107.92 629.964C6107.92 628.799 6107.23 628.396 6106.49 628.396H6105.69V631.822ZM6103.23 635.673V635.308C6104.11 635.186 6104.28 635.225 6104.28 634.652V629.264C6104.28 628.494 6104.2 628.235 6103.25 628.282V627.902H6106.99C6108.26 627.902 6109.44 628.525 6109.44 629.843C6109.44 630.938 6108.74 631.723 6107.72 632.042L6108.91 633.724C6109.48 634.463 6110.11 635.186 6110.53 635.437V635.673H6109.11C6108.43 635.673 6107.84 634.226 6106.49 632.316H6105.69V634.729C6105.69 635.225 6105.86 635.186 6106.74 635.308V635.673H6103.23ZM6106.85 637.735C6110.11 637.735 6112.62 634.965 6112.62 631.822C6112.62 628.677 6110.16 625.868 6106.85 625.868C6103.56 625.868 6101.06 628.677 6101.06 631.822C6101.06 634.965 6103.56 637.735 6106.85 637.735ZM6106.85 624.514C6111.02 624.514 6114.14 627.726 6114.14 631.822C6114.14 635.916 6111.02 639.089 6106.85 639.089C6102.69 639.089 6099.55 635.916 6099.55 631.822C6099.55 627.726 6102.69 624.514 6106.85 624.514Z" fill="#231F20"/>
<path d="M5674.39 380.092C5674.39 315.292 5726.92 262.766 5791.72 262.766C5856.52 262.766 5909.05 315.292 5909.05 380.092C5909.05 444.894 5856.52 497.42 5791.72 497.42C5726.92 497.42 5674.39 444.894 5674.39 380.092Z" fill="white"/>
<path d="M5862.68 377.781C5862.63 347.732 5843.85 322.114 5817.38 311.964V443.599C5843.85 433.434 5862.63 407.84 5862.68 377.781ZM5766.9 443.568V311.972C5740.46 322.16 5721.71 347.747 5721.64 377.781C5721.71 407.809 5740.46 433.404 5766.9 443.568ZM5792.16 266.522C5730.71 266.545 5680.93 316.336 5680.92 377.781C5680.93 439.22 5730.71 489.003 5792.16 489.011C5853.6 489.003 5903.4 439.22 5903.42 377.781C5903.4 316.336 5853.6 266.545 5792.16 266.522ZM5791.88 499.519C5724.64 499.832 5669.3 445.365 5669.3 379.05C5669.3 306.584 5724.64 256.457 5791.88 256.471H5823.4C5889.84 256.457 5950.48 306.553 5950.48 379.05C5950.48 445.334 5889.84 499.519 5823.4 499.519H5791.88Z" fill="#006699"/>
</g>
<g filter="url(#filter3_dd_1022_4853)">
<rect x="4008.39" y="111" width="1091.22" height="703" rx="125.91" fill="url(#paint0_linear_1022_4853)"/>
<rect x="4005.77" y="108.377" width="1096.47" height="708.246" rx="128.534" stroke="#D6DCE5" stroke-width="5.24627"/>
<path d="M4024.13 231.664C4024.13 173.715 4071.1 126.738 4129.05 126.738H4700.9C4886.33 126.738 5036.66 277.064 5036.66 462.499V462.499C5036.66 647.935 4886.33 798.261 4700.9 798.261H4129.05C4071.1 798.261 4024.13 751.284 4024.13 693.335V231.664Z" fill="white"/>
<path d="M4353.83 462.924C4353.83 504.208 4386.26 536.211 4427.96 536.211C4439.76 536.211 4449.85 533.886 4462.3 528.032V495.79C4451.35 506.737 4441.65 511.162 4429.23 511.162C4401.64 511.162 4382.06 491.161 4382.06 462.719C4382.06 435.764 4402.28 414.492 4427.96 414.492C4441.03 414.492 4450.92 419.144 4462.3 430.284V398.054C4450.29 391.962 4440.4 389.432 4428.61 389.432C4387.11 389.432 4353.83 422.093 4353.83 462.924Z" fill="#251F1F"/>
<path d="M4283.53 428.821C4283.53 436.399 4288.36 440.415 4304.8 446.496C4335.97 457.898 4345.2 467.995 4345.2 490.31C4345.2 517.492 4325.22 536.416 4296.76 536.416C4275.92 536.416 4260.76 528.213 4248.13 509.687L4265.83 492.647C4272.14 504.843 4282.67 511.378 4295.73 511.378C4307.95 511.378 4317 502.948 4317 491.569C4317 485.67 4314.25 480.599 4308.78 477.037C4306.03 475.346 4300.57 472.816 4289.85 469.038C4264.12 459.781 4255.29 449.877 4255.29 430.523C4255.29 407.538 4274.25 390.283 4299.09 390.283C4314.49 390.283 4328.58 395.547 4340.37 405.859L4326.03 424.623C4318.89 416.625 4312.15 413.244 4303.94 413.244C4292.13 413.244 4283.53 419.972 4283.53 428.821Z" fill="#251F1F"/>
<path fill-rule="evenodd" clip-rule="evenodd" d="M4122.43 392.608H4082.21V533.046H4122.22C4143.48 533.046 4158.85 528.032 4172.33 516.835C4188.35 503.572 4197.82 483.583 4197.82 462.924C4197.82 421.481 4166.85 392.608 4122.43 392.608ZM4154.42 498.116C4145.81 505.875 4134.64 509.268 4116.94 509.268H4109.59V416.41H4116.94C4134.64 416.41 4145.37 419.564 4154.42 427.766C4163.91 436.195 4169.59 449.265 4169.59 462.72C4169.59 476.197 4163.91 489.686 4154.42 498.116Z" fill="#251F1F"/>
<path d="M4237.82 392.608H4210.42V533.046H4237.82V392.608Z" fill="#251F1F"/>
<path d="M4642.05 392.608L4679.51 486.93L4717.45 392.608H4747.14L4686.47 536.654H4671.73L4612.13 392.608H4642.05Z" fill="#251F1F"/>
<path d="M4759.53 533.046H4837.22V509.268H4786.9V471.364H4835.36V447.574H4786.9V416.41H4837.22V392.608H4759.53V533.046Z" fill="#251F1F"/>
<path fill-rule="evenodd" clip-rule="evenodd" d="M4895.97 392.608C4927.57 392.608 4945.7 407.776 4945.7 434.063C4945.7 455.572 4934.32 469.685 4913.68 473.883L4957.89 533.046H4924.21L4886.29 476.628H4882.71V533.046H4855.36V392.608H4895.97ZM4882.71 457.263H4890.73C4908.22 457.263 4917.49 449.662 4917.49 435.549C4917.49 421.878 4908.22 414.72 4891.15 414.72H4882.71V457.263Z" fill="#251F1F"/>
<path fill-rule="evenodd" clip-rule="evenodd" d="M4967.52 399.971C4967.52 397.498 4965.81 396.148 4962.83 396.148H4958.86V408.537H4961.81V403.738L4965.27 408.537H4968.88L4964.81 403.432C4966.55 402.955 4967.52 401.684 4967.52 399.971ZM4962.3 401.662H4961.81V398.417H4962.34C4963.8 398.417 4964.56 398.95 4964.56 400.017C4964.56 401.106 4963.79 401.662 4962.3 401.662Z" fill="#251F1F"/>
<path fill-rule="evenodd" clip-rule="evenodd" d="M4952.63 402.319C4952.63 396.318 4957.41 391.519 4963.42 391.519C4969.27 391.519 4974.08 396.409 4974.08 402.319C4974.08 408.264 4969.27 413.12 4963.42 413.12C4957.46 413.12 4952.63 408.309 4952.63 402.319ZM4954.77 402.331C4954.77 407.254 4958.64 411.191 4963.37 411.191C4968.09 411.191 4971.92 407.209 4971.92 402.331C4971.92 397.498 4968.09 393.459 4963.37 393.459C4958.61 393.459 4954.77 397.407 4954.77 402.331Z" fill="#251F1F"/>
<g filter="url(#filter4_i_1022_4853)">
<path d="M4545.33 537.314C4504.29 537.314 4471 504.029 4471 462.983V462.882C4471 442.46 4479.27 423.878 4492.65 410.503C4492.65 410.4 4492.75 410.4 4492.75 410.299C4492.85 410.299 4492.85 410.196 4492.95 410.196C4506.33 396.82 4524.91 388.551 4545.33 388.551H4545.44C4586.48 388.551 4619.77 421.836 4619.77 462.882V462.983C4619.77 483.405 4611.5 501.886 4598.12 515.364C4598.12 515.465 4598.02 515.465 4598.02 515.568C4597.92 515.568 4597.92 515.669 4597.82 515.669C4584.34 529.044 4565.86 537.314 4545.44 537.314H4545.33Z" fill="url(#paint1_linear_1022_4853)"/>
</g>
</g>
<g filter="url(#filter5_dd_1022_4853)">
<rect x="2744.04" y="111" width="1091.22" height="703" rx="125.91" fill="#006FCF"/>
<rect x="2741.41" y="108.377" width="1096.47" height="708.246" rx="128.534" stroke="#D6DCE5" stroke-width="5.24627"/>
<path fill-rule="evenodd" clip-rule="evenodd" d="M3835.68 238.282H3745.35L3698.14 373.765L3648.88 238.282H3556.5V449.239L3462.08 238.282H3386.13L3291.7 453.819H3357.39L3375.86 410.714H3474.39L3492.87 453.819H3616.03V303.968L3671.46 453.819H3722.77L3778.2 303.968V453.819H3835.68V486.661H3759.72L3698.14 554.403L3634.51 486.661H3373.81V702.198H3632.46L3696.09 632.407L3759.72 702.198H3835.68V728.879H3745.35L3696.09 675.511L3646.82 728.879H3340.97V482.555H3242.43L3365.6 205.434H3484.66L3527.76 299.862V205.434H3675.56L3700.19 277.281L3724.83 205.434H3835.68V238.282ZM3835.68 533.872L3780.25 593.402L3835.68 652.931V702.198L3735.09 593.402L3835.68 486.661V533.872ZM3556.5 702.198V650.881H3433.34V618.038H3554.45V568.771H3433.34V535.929H3556.5V486.661L3659.14 593.402L3556.5 702.198ZM3394.33 363.497L3423.08 293.705L3451.81 363.497H3394.33Z" fill="white"/>
</g>
<g filter="url(#filter6_dd_1022_4853)">
<rect x="1479.69" y="111" width="1091.22" height="703" rx="125.91" fill="white"/>
<rect x="1477.06" y="108.377" width="1096.47" height="708.246" rx="128.534" stroke="#D6DCE5" stroke-width="5.24627"/>
<path d="M2103.69 318.139H1943.02V606.862H2103.69V318.139Z" fill="#FF5F00"/>
<path d="M1953.22 462.5C1953.2 434.694 1959.5 407.247 1971.65 382.236C1983.8 357.225 2001.48 335.306 2023.35 318.139C1996.27 296.847 1963.73 283.606 1929.48 279.93C1895.22 276.253 1860.62 282.288 1829.63 297.346C1798.64 312.404 1772.51 335.878 1754.23 365.083C1735.96 394.288 1726.26 428.046 1726.26 462.5C1726.26 496.954 1735.96 530.713 1754.23 559.918C1772.51 589.123 1798.64 612.596 1829.63 627.654C1860.62 642.712 1895.22 648.748 1929.48 645.071C1963.73 641.394 1996.27 628.153 2023.35 606.862C2001.48 589.694 1983.8 567.776 1971.65 542.765C1959.5 517.754 1953.2 490.306 1953.22 462.5Z" fill="#EB001B"/>
<path d="M2320.43 462.5C2320.44 496.954 2310.74 530.712 2292.47 559.917C2274.19 589.122 2248.06 612.596 2217.07 627.654C2186.08 642.712 2151.48 648.748 2117.23 645.071C2082.97 641.394 2050.44 628.153 2023.35 606.862C2045.21 589.677 2062.87 567.755 2075.02 542.748C2087.17 517.741 2093.48 490.302 2093.48 462.5C2093.48 434.699 2087.17 407.26 2075.02 382.253C2062.87 357.246 2045.21 335.323 2023.35 318.139C2050.44 296.847 2082.97 283.606 2117.23 279.93C2151.48 276.253 2186.08 282.288 2217.07 297.347C2248.06 312.405 2274.19 335.878 2292.47 365.083C2310.74 394.288 2320.44 428.047 2320.43 462.5Z" fill="#F79E1B"/>
<path d="M2302.92 576.282V570.371H2305.3V569.166H2299.23V570.371H2301.61V576.282H2302.92ZM2314.7 576.282V569.155H2312.84L2310.7 574.057L2308.56 569.155H2306.7V576.282H2308.01V570.906L2310.02 575.541H2311.38L2313.39 570.894V576.282H2314.7Z" fill="#F79E1B"/>
</g>
<g filter="url(#filter7_dd_1022_4853)">
<rect x="215.336" y="111" width="1091.22" height="703" rx="125.91" fill="#1434CB"/>
<rect x="212.713" y="108.377" width="1096.47" height="708.246" rx="128.534" stroke="#D6DCE5" stroke-width="5.24627"/>
<path d="M754.275 347.931L703.376 585.856H641.83L692.736 347.931H754.275ZM1013.22 501.56L1045.63 412.211L1064.27 501.56H1013.22ZM1081.89 585.856H1138.82L1089.15 347.931H1036.6C1024.79 347.931 1014.83 354.799 1010.39 365.386L918.054 585.856H982.688L995.52 550.327H1074.48L1081.89 585.856ZM921.262 508.172C921.526 445.375 834.421 441.918 835.024 413.868C835.204 405.32 843.345 396.254 861.124 393.927C869.957 392.775 894.243 391.894 921.82 404.582L932.618 354.128C917.806 348.752 898.746 343.578 875.041 343.578C814.209 343.578 771.391 375.921 771.03 422.234C770.646 456.482 801.596 475.595 824.918 486.981C848.895 498.646 856.952 506.116 856.847 516.545C856.689 532.518 837.72 539.551 820.023 539.83C789.073 540.319 771.113 531.478 756.797 524.806L745.645 576.94C760.02 583.544 786.565 589.282 814.104 589.576C878.753 589.576 921.052 557.632 921.262 508.172ZM666.326 347.931L566.608 585.856H501.537L452.469 395.975C449.487 384.28 446.896 380.003 437.837 375.071C423.055 367.051 398.619 359.513 377.119 354.844L378.588 347.931H483.314C496.658 347.931 508.669 356.817 511.696 372.186L537.616 509.873L601.662 347.931H666.326Z" fill="white"/>
</g>
<defs>
<filter id="filter0_dd_1022_4853" x="7586.34" y="0.828529" width="1521.42" height="1133.19" filterUnits="userSpaceOnUse" color-interpolation-filters="sRGB">
<feFlood flood-opacity="0" result="BackgroundImageFix"/>
<feColorMatrix in="SourceAlpha" type="matrix" values="0 0 0 0 0 0 0 0 0 0 0 0 0 0 0 0 0 0 127 0" result="hardAlpha"/>
<feOffset dy="10.4925"/>
<feGaussianBlur stdDeviation="52.4627"/>
<feColorMatrix type="matrix" values="0 0 0 0 0.717647 0 0 0 0 0.717647 0 0 0 0 0.717647 0 0 0 0.08 0"/>
<feBlend mode="normal" in2="BackgroundImageFix" result="effect1_dropShadow_1022_4853"/>
<feColorMatrix in="SourceAlpha" type="matrix" values="0 0 0 0 0 0 0 0 0 0 0 0 0 0 0 0 0 0 127 0" result="hardAlpha"/>
<feOffset dy="104.925"/>
<feGaussianBlur stdDeviation="104.925"/>
<feColorMatrix type="matrix" values="0 0 0 0 0.717647 0 0 0 0 0.717647 0 0 0 0 0.717647 0 0 0 0.08 0"/>
<feBlend mode="normal" in2="effect1_dropShadow_1022_4853" result="effect2_dropShadow_1022_4853"/>
<feBlend mode="normal" in="SourceGraphic" in2="effect2_dropShadow_1022_4853" result="shape"/>
</filter>
<filter id="filter1_dd_1022_4853" x="6321.99" y="0.828529" width="1521.42" height="1133.19" filterUnits="userSpaceOnUse" color-interpolation-filters="sRGB">
<feFlood flood-opacity="0" result="BackgroundImageFix"/>
<feColorMatrix in="SourceAlpha" type="matrix" values="0 0 0 0 0 0 0 0 0 0 0 0 0 0 0 0 0 0 127 0" result="hardAlpha"/>
<feOffset dy="10.4925"/>
<feGaussianBlur stdDeviation="52.4627"/>
<feColorMatrix type="matrix" values="0 0 0 0 0.717647 0 0 0 0 0.717647 0 0 0 0 0.717647 0 0 0 0.08 0"/>
<feBlend mode="normal" in2="BackgroundImageFix" result="effect1_dropShadow_1022_4853"/>
<feColorMatrix in="SourceAlpha" type="matrix" values="0 0 0 0 0 0 0 0 0 0 0 0 0 0 0 0 0 0 127 0" result="hardAlpha"/>
<feOffset dy="104.925"/>
<feGaussianBlur stdDeviation="104.925"/>
<feColorMatrix type="matrix" values="0 0 0 0 0.717647 0 0 0 0 0.717647 0 0 0 0 0.717647 0 0 0 0.08 0"/>
<feBlend mode="normal" in2="effect1_dropShadow_1022_4853" result="effect2_dropShadow_1022_4853"/>
<feBlend mode="normal" in="SourceGraphic" in2="effect2_dropShadow_1022_4853" result="shape"/>
</filter>
<filter id="filter2_dd_1022_4853" x="5057.64" y="0.828529" width="1521.42" height="1133.19" filterUnits="userSpaceOnUse" color-interpolation-filters="sRGB">
<feFlood flood-opacity="0" result="BackgroundImageFix"/>
<feColorMatrix in="SourceAlpha" type="matrix" values="0 0 0 0 0 0 0 0 0 0 0 0 0 0 0 0 0 0 127 0" result="hardAlpha"/>
<feOffset dy="10.4925"/>
<feGaussianBlur stdDeviation="52.4627"/>
<feColorMatrix type="matrix" values="0 0 0 0 0.717647 0 0 0 0 0.717647 0 0 0 0 0.717647 0 0 0 0.08 0"/>
<feBlend mode="normal" in2="BackgroundImageFix" result="effect1_dropShadow_1022_4853"/>
<feColorMatrix in="SourceAlpha" type="matrix" values="0 0 0 0 0 0 0 0 0 0 0 0 0 0 0 0 0 0 127 0" result="hardAlpha"/>
<feOffset dy="104.925"/>
<feGaussianBlur stdDeviation="104.925"/>
<feColorMatrix type="matrix" values="0 0 0 0 0.717647 0 0 0 0 0.717647 0 0 0 0 0.717647 0 0 0 0.08 0"/>
<feBlend mode="normal" in2="effect1_dropShadow_1022_4853" result="effect2_dropShadow_1022_4853"/>
<feBlend mode="normal" in="SourceGraphic" in2="effect2_dropShadow_1022_4853" result="shape"/>
</filter>
<filter id="filter3_dd_1022_4853" x="3793.29" y="0.828529" width="1521.42" height="1133.19" filterUnits="userSpaceOnUse" color-interpolation-filters="sRGB">
<feFlood flood-opacity="0" result="BackgroundImageFix"/>
<feColorMatrix in="SourceAlpha" type="matrix" values="0 0 0 0 0 0 0 0 0 0 0 0 0 0 0 0 0 0 127 0" result="hardAlpha"/>
<feOffset dy="10.4925"/>
<feGaussianBlur stdDeviation="52.4627"/>
<feColorMatrix type="matrix" values="0 0 0 0 0.717647 0 0 0 0 0.717647 0 0 0 0 0.717647 0 0 0 0.08 0"/>
<feBlend mode="normal" in2="BackgroundImageFix" result="effect1_dropShadow_1022_4853"/>
<feColorMatrix in="SourceAlpha" type="matrix" values="0 0 0 0 0 0 0 0 0 0 0 0 0 0 0 0 0 0 127 0" result="hardAlpha"/>
<feOffset dy="104.925"/>
<feGaussianBlur stdDeviation="104.925"/>
<feColorMatrix type="matrix" values="0 0 0 0 0.717647 0 0 0 0 0.717647 0 0 0 0 0.717647 0 0 0 0.08 0"/>
<feBlend mode="normal" in2="effect1_dropShadow_1022_4853" result="effect2_dropShadow_1022_4853"/>
<feBlend mode="normal" in="SourceGraphic" in2="effect2_dropShadow_1022_4853" result="shape"/>
</filter>
<filter id="filter4_i_1022_4853" x="4471" y="388.551" width="154.211" height="156.932" filterUnits="userSpaceOnUse" color-interpolation-filters="sRGB">
<feFlood flood-opacity="0" result="BackgroundImageFix"/>
<feBlend mode="normal" in="SourceGraphic" in2="BackgroundImageFix" result="shape"/>
<feColorMatrix in="SourceAlpha" type="matrix" values="0 0 0 0 0 0 0 0 0 0 0 0 0 0 0 0 0 0 127 0" result="hardAlpha"/>
<feOffset dx="5.44553" dy="8.1683"/>
<feGaussianBlur stdDeviation="5.44553"/>
<feComposite in2="hardAlpha" operator="arithmetic" k2="-1" k3="1"/>
<feColorMatrix type="matrix" values="0 0 0 0 0 0 0 0 0 0 0 0 0 0 0 0 0 0 0.35 0"/>
<feBlend mode="normal" in2="shape" result="effect1_innerShadow_1022_4853"/>
</filter>
<filter id="filter5_dd_1022_4853" x="2528.94" y="0.828529" width="1521.42" height="1133.19" filterUnits="userSpaceOnUse" color-interpolation-filters="sRGB">
<feFlood flood-opacity="0" result="BackgroundImageFix"/>
<feColorMatrix in="SourceAlpha" type="matrix" values="0 0 0 0 0 0 0 0 0 0 0 0 0 0 0 0 0 0 127 0" result="hardAlpha"/>
<feOffset dy="10.4925"/>
<feGaussianBlur stdDeviation="52.4627"/>
<feColorMatrix type="matrix" values="0 0 0 0 0.717647 0 0 0 0 0.717647 0 0 0 0 0.717647 0 0 0 0.08 0"/>
<feBlend mode="normal" in2="BackgroundImageFix" result="effect1_dropShadow_1022_4853"/>
<feColorMatrix in="SourceAlpha" type="matrix" values="0 0 0 0 0 0 0 0 0 0 0 0 0 0 0 0 0 0 127 0" result="hardAlpha"/>
<feOffset dy="104.925"/>
<feGaussianBlur stdDeviation="104.925"/>
<feColorMatrix type="matrix" values="0 0 0 0 0.717647 0 0 0 0 0.717647 0 0 0 0 0.717647 0 0 0 0.08 0"/>
<feBlend mode="normal" in2="effect1_dropShadow_1022_4853" result="effect2_dropShadow_1022_4853"/>
<feBlend mode="normal" in="SourceGraphic" in2="effect2_dropShadow_1022_4853" result="shape"/>
</filter>
<filter id="filter6_dd_1022_4853" x="1264.59" y="0.828529" width="1521.42" height="1133.19" filterUnits="userSpaceOnUse" color-interpolation-filters="sRGB">
<feFlood flood-opacity="0" result="BackgroundImageFix"/>
<feColorMatrix in="SourceAlpha" type="matrix" values="0 0 0 0 0 0 0 0 0 0 0 0 0 0 0 0 0 0 127 0" result="hardAlpha"/>
<feOffset dy="10.4925"/>
<feGaussianBlur stdDeviation="52.4627"/>
<feColorMatrix type="matrix" values="0 0 0 0 0.717647 0 0 0 0 0.717647 0 0 0 0 0.717647 0 0 0 0.08 0"/>
<feBlend mode="normal" in2="BackgroundImageFix" result="effect1_dropShadow_1022_4853"/>
<feColorMatrix in="SourceAlpha" type="matrix" values="0 0 0 0 0 0 0 0 0 0 0 0 0 0 0 0 0 0 127 0" result="hardAlpha"/>
<feOffset dy="104.925"/>
<feGaussianBlur stdDeviation="104.925"/>
<feColorMatrix type="matrix" values="0 0 0 0 0.717647 0 0 0 0 0.717647 0 0 0 0 0.717647 0 0 0 0.08 0"/>
<feBlend mode="normal" in2="effect1_dropShadow_1022_4853" result="effect2_dropShadow_1022_4853"/>
<feBlend mode="normal" in="SourceGraphic" in2="effect2_dropShadow_1022_4853" result="shape"/>
</filter>
<filter id="filter7_dd_1022_4853" x="0.23909" y="0.828529" width="1521.42" height="1133.19" filterUnits="userSpaceOnUse" color-interpolation-filters="sRGB">
<feFlood flood-opacity="0" result="BackgroundImageFix"/>
<feColorMatrix in="SourceAlpha" type="matrix" values="0 0 0 0 0 0 0 0 0 0 0 0 0 0 0 0 0 0 127 0" result="hardAlpha"/>
<feOffset dy="10.4925"/>
<feGaussianBlur stdDeviation="52.4627"/>
<feColorMatrix type="matrix" values="0 0 0 0 0.717647 0 0 0 0 0.717647 0 0 0 0 0.717647 0 0 0 0.08 0"/>
<feBlend mode="normal" in2="BackgroundImageFix" result="effect1_dropShadow_1022_4853"/>
<feColorMatrix in="SourceAlpha" type="matrix" values="0 0 0 0 0 0 0 0 0 0 0 0 0 0 0 0 0 0 127 0" result="hardAlpha"/>
<feOffset dy="104.925"/>
<feGaussianBlur stdDeviation="104.925"/>
<feColorMatrix type="matrix" values="0 0 0 0 0.717647 0 0 0 0 0.717647 0 0 0 0 0.717647 0 0 0 0.08 0"/>
<feBlend mode="normal" in2="effect1_dropShadow_1022_4853" result="effect2_dropShadow_1022_4853"/>
<feBlend mode="normal" in="SourceGraphic" in2="effect2_dropShadow_1022_4853" result="shape"/>
</filter>
<linearGradient id="paint0_linear_1022_4853" x1="4351.7" y1="111" x2="4772.42" y2="822.979" gradientUnits="userSpaceOnUse">
<stop stop-color="#E05026"/>
<stop offset="1" stop-color="#F9A020"/>
</linearGradient>
<linearGradient id="paint1_linear_1022_4853" x1="4506.4" y1="388.551" x2="4628.63" y2="491.986" gradientUnits="userSpaceOnUse">
<stop stop-color="#EF3823"/>
<stop offset="0.489583" stop-color="#F04D22"/>
<stop offset="1" stop-color="#F7911D"/>
</linearGradient>
</defs>
</svg>
