<svg width="163" height="213" viewBox="0 0 163 213" fill="none" xmlns="http://www.w3.org/2000/svg">
<path d="M94.7912 153.094L81.3272 0H0V139.781L94.7912 153.094Z" fill="white"/>
<path d="M162.999 139.781V46.5938L129.87 33.2812L116.618 0H81.3281L81.54 153.094L162.999 139.781Z" fill="#E8E6E6"/>
<path d="M162.999 139.781H0V213H162.999V139.781Z" fill="#B3DA73"/>
<path d="M64.4884 165.622L59.8474 171.144C57.7757 168.609 54.7123 167.025 51.9179 167.025C46.9174 167.025 43.1331 171.007 43.1331 176.213C43.1331 181.508 46.9174 185.535 51.9179 185.535C54.5766 185.535 57.64 184.087 59.8474 181.824L64.533 186.802C61.1535 190.287 56.1535 192.595 51.5131 192.595C42.0068 192.595 34.9346 185.58 34.9346 176.302C34.9346 167.16 42.1877 160.281 51.7846 160.281C56.4696 160.282 61.3344 162.363 64.4884 165.622Z" fill="white"/>
<path d="M93.8654 163.721L90.8466 170.012C87.513 168.065 83.3232 166.709 80.7551 166.709C78.6822 166.709 77.2863 167.478 77.2863 169.017C77.2863 174.493 93.9553 171.371 93.9553 182.82C93.9553 189.157 88.369 192.506 81.3409 192.506C76.0701 192.506 70.6635 190.515 66.9238 187.437L70.0319 181.237C73.2757 184.088 78.1417 185.989 81.4308 185.989C83.9531 185.989 85.53 185.039 85.53 183.228C85.53 177.616 68.8609 180.966 68.8609 169.742C68.8609 163.903 73.8615 160.192 81.4313 160.192C85.9818 160.191 90.6216 161.595 93.8654 163.721Z" fill="white"/>
<path d="M108.51 192.234L96.2559 160.554H104.816L112.88 183.862L120.945 160.554H129.189L116.8 192.234H108.51Z" fill="white"/>
</svg>
