<svg width="61" height="42" viewBox="0 0 61 42" fill="none" xmlns="http://www.w3.org/2000/svg">
<g filter="url(#filter0_dd_656_5799)">
<rect x="8.94922" y="5" width="43.3166" height="27.9059" rx="4.99807" fill="url(#paint0_linear_656_5799)"/>
<rect x="8.84509" y="4.89587" width="43.5249" height="28.1142" rx="5.1022" stroke="#D6DCE5" stroke-width="0.208253"/>
<path d="M9.57422 9.79007C9.57422 7.48977 11.439 5.625 13.7393 5.625H36.4389C43.7998 5.625 49.7671 11.5922 49.7671 18.9532V18.9532C49.7671 26.3142 43.7998 32.2814 36.4389 32.2814H13.7393C11.439 32.2814 9.57422 30.4166 9.57422 28.1163V9.79007Z" fill="white"/>
<path d="M22.6619 18.9681C22.6619 20.6069 23.949 21.8773 25.6045 21.8773C26.0728 21.8773 26.4732 21.785 26.9676 21.5526V20.2727C26.5331 20.7073 26.148 20.8829 25.6549 20.8829C24.5597 20.8829 23.7824 20.089 23.7824 18.96C23.7824 17.89 24.5849 17.0456 25.6045 17.0456C26.1232 17.0456 26.5159 17.2302 26.9676 17.6725V16.393C26.4907 16.1512 26.098 16.0508 25.6301 16.0508C23.9828 16.0508 22.6619 17.3473 22.6619 18.9681Z" fill="#251F1F"/>
<path d="M19.8712 17.6144C19.8712 17.9152 20.063 18.0746 20.7155 18.316C21.9526 18.7686 22.3192 19.1694 22.3192 20.0552C22.3192 21.1342 21.5262 21.8854 20.3963 21.8854C19.569 21.8854 18.9673 21.5598 18.4661 20.8244L19.1686 20.148C19.419 20.6321 19.8369 20.8915 20.3553 20.8915C20.8407 20.8915 21.1997 20.5569 21.1997 20.1052C21.1997 19.871 21.0907 19.6697 20.8736 19.5283C20.7642 19.4612 20.5476 19.3608 20.122 19.2108C19.1006 18.8433 18.7503 18.4502 18.7503 17.6819C18.7503 16.7695 19.5028 16.0846 20.489 16.0846C21.1001 16.0846 21.6595 16.2935 22.1274 16.7029L21.5581 17.4477C21.2749 17.1302 21.0074 16.996 20.6813 16.996C20.2125 16.996 19.8712 17.2631 19.8712 17.6144Z" fill="#251F1F"/>
<path fill-rule="evenodd" clip-rule="evenodd" d="M13.4763 16.1769H11.8799V21.7516H13.4678C14.3117 21.7516 14.9219 21.5526 15.4569 21.1081C16.0928 20.5817 16.4688 19.7882 16.4688 18.9681C16.4688 17.323 15.2394 16.1769 13.4763 16.1769ZM14.7463 20.365C14.4045 20.6731 13.9609 20.8077 13.2584 20.8077H12.9666V17.1217H13.2584C13.9609 17.1217 14.3869 17.2469 14.7463 17.5725C15.1228 17.9071 15.3484 18.4259 15.3484 18.96C15.3484 19.495 15.1228 20.0304 14.7463 20.365Z" fill="#251F1F"/>
<path d="M18.0568 16.1769H16.9692V21.7516H18.0568V16.1769Z" fill="#251F1F"/>
<path d="M34.1028 16.1769L35.5898 19.921L37.0958 16.1769H38.2743L35.8659 21.8948H35.2809L32.9153 16.1769H34.1028Z" fill="#251F1F"/>
<path d="M38.7661 21.7516H41.85V20.8077H39.8527V19.3031H41.7761V18.3588H39.8527V17.1217H41.85V16.1769H38.7661V21.7516Z" fill="#251F1F"/>
<path fill-rule="evenodd" clip-rule="evenodd" d="M44.1823 16.1769C45.4365 16.1769 46.1562 16.779 46.1562 17.8224C46.1562 18.6763 45.7045 19.2365 44.8853 19.4031L46.6403 21.7516H45.3032L43.7982 19.5121H43.6559V21.7516H42.5701V16.1769H44.1823ZM43.6559 18.7434H43.9743C44.6687 18.7434 45.0366 18.4416 45.0366 17.8814C45.0366 17.3388 44.6687 17.0546 43.9909 17.0546H43.6559V18.7434Z" fill="#251F1F"/>
<path fill-rule="evenodd" clip-rule="evenodd" d="M47.0226 16.4692C47.0226 16.371 46.9546 16.3174 46.8362 16.3174H46.6786V16.8092H46.7957V16.6187L46.933 16.8092H47.0767L46.915 16.6065C46.9839 16.5876 47.0226 16.5372 47.0226 16.4692ZM46.8155 16.5363H46.7957V16.4075H46.8168C46.8749 16.4075 46.9051 16.4286 46.9051 16.471C46.9051 16.5142 46.8745 16.5363 46.8155 16.5363Z" fill="#251F1F"/>
<path fill-rule="evenodd" clip-rule="evenodd" d="M46.4313 16.5624C46.4313 16.3241 46.6214 16.1336 46.8596 16.1336C47.092 16.1336 47.2829 16.3277 47.2829 16.5624C47.2829 16.7983 47.092 16.9911 46.8596 16.9911C46.6232 16.9911 46.4313 16.8001 46.4313 16.5624ZM46.5164 16.5628C46.5164 16.7583 46.67 16.9145 46.8578 16.9145C47.0451 16.9145 47.1973 16.7565 47.1973 16.5628C47.1973 16.371 47.0451 16.2106 46.8578 16.2106C46.6686 16.2106 46.5164 16.3674 46.5164 16.5628Z" fill="#251F1F"/>
<g filter="url(#filter1_i_656_5799)">
<path d="M30.2631 21.9208C28.6338 21.9208 27.3125 20.5996 27.3125 18.9702V18.9662C27.3125 18.1556 27.6408 17.418 28.1717 16.887C28.1717 16.8829 28.1758 16.8829 28.1758 16.8789C28.1798 16.8789 28.1798 16.8748 28.1839 16.8748C28.7148 16.3439 29.4526 16.0156 30.2631 16.0156H30.2672C31.8966 16.0156 33.2178 17.3369 33.2178 18.9662V18.9702C33.2178 19.7809 32.8895 20.5145 32.3585 21.0495C32.3585 21.0535 32.3545 21.0535 32.3545 21.0576C32.3504 21.0576 32.3504 21.0616 32.3464 21.0616C31.8114 21.5926 31.0778 21.9208 30.2672 21.9208H30.2631Z" fill="url(#paint1_linear_656_5799)"/>
</g>
</g>
<defs>
<filter id="filter0_dd_656_5799" x="0.411087" y="0.625954" width="60.3927" height="44.9825" filterUnits="userSpaceOnUse" color-interpolation-filters="sRGB">
<feFlood flood-opacity="0" result="BackgroundImageFix"/>
<feColorMatrix in="SourceAlpha" type="matrix" values="0 0 0 0 0 0 0 0 0 0 0 0 0 0 0 0 0 0 127 0" result="hardAlpha"/>
<feOffset dy="0.416506"/>
<feGaussianBlur stdDeviation="2.08253"/>
<feColorMatrix type="matrix" values="0 0 0 0 0.717647 0 0 0 0 0.717647 0 0 0 0 0.717647 0 0 0 0.08 0"/>
<feBlend mode="normal" in2="BackgroundImageFix" result="effect1_dropShadow_656_5799"/>
<feColorMatrix in="SourceAlpha" type="matrix" values="0 0 0 0 0 0 0 0 0 0 0 0 0 0 0 0 0 0 127 0" result="hardAlpha"/>
<feOffset dy="4.16506"/>
<feGaussianBlur stdDeviation="4.16506"/>
<feColorMatrix type="matrix" values="0 0 0 0 0.717647 0 0 0 0 0.717647 0 0 0 0 0.717647 0 0 0 0.08 0"/>
<feBlend mode="normal" in2="effect1_dropShadow_656_5799" result="effect2_dropShadow_656_5799"/>
<feBlend mode="normal" in="SourceGraphic" in2="effect2_dropShadow_656_5799" result="shape"/>
</filter>
<filter id="filter1_i_656_5799" x="27.3125" y="16.0156" width="6.12144" height="6.22854" filterUnits="userSpaceOnUse" color-interpolation-filters="sRGB">
<feFlood flood-opacity="0" result="BackgroundImageFix"/>
<feBlend mode="normal" in="SourceGraphic" in2="BackgroundImageFix" result="shape"/>
<feColorMatrix in="SourceAlpha" type="matrix" values="0 0 0 0 0 0 0 0 0 0 0 0 0 0 0 0 0 0 127 0" result="hardAlpha"/>
<feOffset dx="0.216163" dy="0.324244"/>
<feGaussianBlur stdDeviation="0.216163"/>
<feComposite in2="hardAlpha" operator="arithmetic" k2="-1" k3="1"/>
<feColorMatrix type="matrix" values="0 0 0 0 0 0 0 0 0 0 0 0 0 0 0 0 0 0 0.35 0"/>
<feBlend mode="normal" in2="shape" result="effect1_innerShadow_656_5799"/>
</filter>
<linearGradient id="paint0_linear_656_5799" x1="22.577" y1="5" x2="39.2779" y2="33.2623" gradientUnits="userSpaceOnUse">
<stop stop-color="#E05026"/>
<stop offset="1" stop-color="#F9A020"/>
</linearGradient>
<linearGradient id="paint1_linear_656_5799" x1="28.7176" y1="16.0156" x2="33.5698" y2="20.1215" gradientUnits="userSpaceOnUse">
<stop stop-color="#EF3823"/>
<stop offset="0.489583" stop-color="#F04D22"/>
<stop offset="1" stop-color="#F7911D"/>
</linearGradient>
</defs>
</svg>
