<svg width="512" height="512" viewBox="0 0 512 512" fill="none" xmlns="http://www.w3.org/2000/svg">
<g clip-path="url(#clip0_1027_4424)">
<path d="M242.957 -0.238416C244.356 -0.253175 244.356 -0.253175 245.783 -0.268232C300.528 -0.72646 352.08 10.865 398 41.9999C398.599 42.4041 399.199 42.8084 399.816 43.225C408.696 49.262 416.936 55.9187 425 62.9999C425.862 63.7501 426.724 64.5003 427.613 65.2733C437.979 74.4325 447.485 84.0845 456 94.9999C456.789 95.9834 457.577 96.967 458.39 97.9803C483.184 129.143 499.717 166.153 508 205C508.224 206.046 508.449 207.093 508.68 208.171C515.089 239.775 514.661 275.49 508 307C507.78 308.042 507.56 309.084 507.334 310.157C498.861 349.003 481.776 386.527 456 417C455.252 417.931 454.504 418.861 453.734 419.82C442.392 433.806 429.438 447.203 415 458C413.914 458.838 412.828 459.677 411.742 460.516C378.425 485.917 333.857 508.771 291.089 510.824C288.663 510.962 286.322 511.198 283.914 511.5C279.025 512.05 274.193 512.161 269.277 512.168C268.373 512.171 267.469 512.174 266.538 512.178C264.635 512.183 262.731 512.185 260.828 512.185C257.969 512.187 255.11 512.206 252.252 512.224C242.467 512.253 233.029 511.836 223.344 510.429C220.554 510.071 218.014 509.934 215.214 510.027C209.813 510.159 204.778 508.855 199.562 507.562C198.474 507.294 197.387 507.025 196.266 506.748C159.377 497.327 125.765 480.72 95.9996 457C95.1372 456.313 95.1372 456.313 94.2574 455.613C79.5373 443.746 65.3332 430.162 53.9996 415C53.1377 413.879 52.2757 412.758 51.4137 411.637C44.2341 402.183 37.942 392.27 31.9996 382C31.6053 381.323 31.211 380.645 30.8048 379.948C15.8647 353.973 6.47031 324.562 1.99961 295C1.73471 293.316 1.73471 293.316 1.46445 291.599C-0.192477 279.985 -0.398056 268.468 -0.375391 256.75C-0.37518 255.739 -0.374968 254.728 -0.37475 253.687C-0.34026 237.13 0.600574 221.249 3.99961 205C4.18685 204.093 4.37408 203.186 4.56699 202.251C8.7264 182.787 15.3012 163.888 23.9996 146C24.6512 144.658 24.6512 144.658 25.316 143.288C41.7615 109.808 65.524 79.073 94.9996 55.9999C95.9845 55.2097 96.9693 54.4195 97.984 53.6053C138.239 21.5857 191.124 0.212924 242.957 -0.238416Z" fill="#0C88EF"/>
<path d="M316.438 99.8119C317.727 99.8125 319.017 99.8132 320.346 99.8138C332.882 99.8703 345.302 100.509 357.688 102.499C358.967 102.695 358.967 102.695 360.271 102.894C363.916 103.46 367.415 104.103 371 104.999C371 126.449 371 147.899 371 169.999C350.312 170.249 350.312 170.249 343.868 170.297C331.382 170.472 318.751 170.831 308.652 179.222C302.963 185.341 300.911 191.97 300.795 200.145C300.774 201.403 300.754 202.661 300.734 203.958C300.717 205.276 300.701 206.594 300.684 207.952C300.656 209.775 300.656 209.775 300.627 211.634C300.559 216.172 300.499 220.711 300.438 225.249C300.293 235.397 300.149 245.544 300 255.999C322.11 255.999 344.22 255.999 367 255.999C365.875 267.249 365.875 267.249 365.076 272.18C364.811 273.832 364.811 273.832 364.54 275.517C364.352 276.671 364.163 277.826 363.969 279.015C363.773 280.23 363.577 281.444 363.375 282.696C362.753 286.547 362.126 290.398 361.5 294.249C361.079 296.851 360.659 299.452 360.238 302.054C357.44 319.36 357.44 319.36 356 327.999C337.19 327.999 318.38 327.999 299 327.999C299 387.399 299 446.799 299 507.999C286.939 512.824 273.466 512.346 260.65 512.315C257.899 512.312 255.149 512.335 252.398 512.361C250.576 512.363 248.753 512.364 246.93 512.363C246.145 512.372 245.359 512.381 244.551 512.391C234.46 512.313 225.215 510.459 215 508.999C215 449.269 215 389.539 215 327.999C193.88 327.999 172.76 327.999 151 327.999C151 304.239 151 280.479 151 255.999C172.12 255.999 193.24 255.999 215 255.999C214.977 251.253 214.954 246.507 214.93 241.617C214.919 238.581 214.91 235.546 214.902 232.511C214.89 227.71 214.877 222.909 214.849 218.108C214.827 214.231 214.815 210.354 214.81 206.476C214.807 205.008 214.799 203.541 214.789 202.073C214.583 173.282 221.823 147.163 241.75 125.812C262.184 106.386 288.853 99.5507 316.438 99.8119Z" fill="#FEFEFE"/>
</g>
<defs>
<clipPath id="clip0_1027_4424">
<rect width="512" height="512" fill="white"/>
</clipPath>
</defs>
</svg>
