<svg width="1024" height="1024" viewBox="0 0 1024 1024" fill="none" xmlns="http://www.w3.org/2000/svg">
<path d="M0 232C0 103.87 103.87 0 232 0H792C920.13 0 1024 103.87 1024 232V792C1024 920.13 920.13 1024 792 1024H232C103.87 1024 0 920.13 0 792V232Z" fill="url(#paint0_linear_2025_118)"/>
<mask id="path-2-inside-1_2025_118" fill="white">
<path d="M775.772 92.3862C787.406 90.2413 799.482 97.2682 804.778 107.575C808.084 114.327 809.208 122.119 807.965 129.535C807.319 133.874 805.662 137.953 804.142 142.034C799.877 153.419 795.171 164.647 791.293 176.171C797.216 183.604 801.249 192.299 805.156 200.902C817.645 229.482 819.876 261.859 814.229 292.347C812.433 302.312 809.973 312.141 807.578 321.979C814.026 321.721 820.481 321.288 826.948 321.565C829.803 321.713 832.225 319.935 834.714 318.775C839.172 316.398 844.155 315.246 849.092 314.318C872.663 309.962 896.225 305.493 919.823 301.276C931.088 299.248 943.191 303.827 950.505 312.596C958.877 322.499 963.602 335.697 962.303 348.703C961.464 358.209 957.091 367.041 951.416 374.577C934.486 396.785 917.04 418.606 900.101 440.803C912.564 459.889 924.521 479.286 936.817 498.473C941.716 505.961 942.565 515.273 941.855 523.988C955.819 534.819 965.83 550.624 969.562 567.905C971.413 576.065 971.403 584.493 971.274 592.811C970.26 619.909 960.009 646.483 943.124 667.632C947.739 677.626 954.768 686.403 958.479 696.839C962.641 709.274 959.483 723.248 952.353 733.978C943.244 748.522 927.613 758.599 910.748 761.444C827.821 775.887 744.804 789.814 661.832 803.98C570.32 819.537 478.829 835.243 387.346 850.965C315.879 863.17 244.448 875.641 172.942 887.633C162.064 889.936 150.449 888.231 140.778 882.725C126.962 874.904 117.917 859.983 116.066 844.361C114.584 833.768 117.412 823.296 118.737 812.85C124.972 772.266 132.231 731.848 138.476 691.266C122.818 686.255 107.988 678.305 95.7466 667.271C73.5116 647.643 59.5944 619.761 54.4902 590.765C48.5395 556.363 53.5336 520.577 66.4828 488.312C78.7714 457.611 97.2195 429.399 120.293 405.735C152.467 372.567 195.5 348.756 241.887 344.206C245.378 343.728 249.781 344.668 252.342 341.636C266.269 322.617 283.143 305.917 300.948 290.544C328.967 266.669 359.999 246.404 392.881 229.89C424.024 214.536 456.528 201.946 489.77 191.94C497.378 189.674 505.06 187.62 512.789 185.788C517.92 177.757 522.783 169.521 528.944 162.208C548.666 138.039 575.267 119.497 604.77 109.375C641.474 97.3537 682.049 100.357 717.871 114.025C719.676 115.048 721.593 113.961 723.288 113.241C733.485 108.562 743.929 104.445 754.238 99.9959C761.248 97.048 768.219 93.6959 775.772 92.3881V92.3862ZM777.568 113.543C757.81 121.418 738.071 129.368 718.148 136.837C716.776 137.748 715.375 136.78 714.077 136.357C691.703 127.883 667.515 123.702 643.595 125.617C626.039 127.1 608.686 131.816 593.035 139.977C569.648 152.125 550.021 171.046 536.131 193.372C532.999 198.335 530.732 203.779 527.794 208.855C504.583 211.241 482.043 217.918 460.269 226.088C410.126 244.187 362.486 269.795 320.972 303.367C310.074 312.412 299.023 321.411 289.553 331.986C294.887 329.775 299.75 326.635 304.881 324.027C335.764 307.346 368.114 293.391 401.411 282.283C435.419 271.01 470.722 263.244 506.518 260.942C506.573 267.868 506.573 274.795 506.592 281.723C460.556 287.562 415.864 303.738 376.718 328.653C363.593 337.403 350.67 346.642 339.46 357.786C356.002 352.867 372.489 347.627 389.373 343.961C412.337 338.637 435.732 335.275 459.239 333.58C479.759 332.354 500.476 331.83 520.906 334.547C527.418 335.256 532.898 339.142 538.397 342.374C545.13 346.29 548.989 353.3 554.452 358.615C562.86 367.779 572.983 375.112 583.476 381.706C571.254 384.718 558.643 385.861 546.421 388.862C543.712 389.58 541.28 390.971 538.813 392.233C536.74 393.513 534.253 392.582 532.016 392.501C527.133 391.681 522.289 392.869 517.481 393.56C506.391 395.327 495.357 397.409 484.277 399.188C478.429 400.228 472.182 400.883 467.218 404.446C461.784 408.61 457.813 414.284 453.559 419.561C450.676 416.623 447.886 413.426 444.163 411.53C438.084 408.288 430.854 407.984 424.212 409.328C411.648 411.833 398.984 413.859 386.391 416.228C381.28 417.103 377.751 421.258 374.564 424.988C369.572 414.136 363.464 403.609 354.954 395.117C342.869 382.203 326.998 373.231 310.162 368.1C294.375 363.228 277.684 361.827 261.224 362.582C240.158 363.586 219.314 368.459 199.824 376.49C170.469 389.018 144.706 409.254 124.331 433.708C104.159 457.997 88.9151 486.524 80.8821 517.103C76.1842 535.424 73.5875 554.434 74.8859 573.372C76.3417 593.654 82.0419 613.89 93.0417 631.115C108.47 655.495 134.795 672.197 163.1 677.087C162.52 683.258 161.221 689.328 160.272 695.453C153.042 738.579 145.894 781.722 138.351 824.803C137.098 832.982 136.519 841.548 138.996 849.57C142.037 860.429 152.832 870.239 164.695 867.733C301.274 844.439 437.763 820.564 574.371 797.399C658.56 783.011 742.811 768.955 826.971 754.421C836.202 752.975 844.388 748.341 852.063 743.249C857.516 746.288 863.806 748.655 870.144 747.385C881.778 745.515 893.365 743.287 904.989 741.36C915.14 739.804 924.553 734.405 931.259 726.678C936.325 720.746 939.816 712.981 938.905 705.05C938.601 700.869 936.115 697.359 934.236 693.768C928.625 683.506 922.75 673.412 917.074 663.196C935.644 649.351 945.896 626.793 949.138 604.31C951.653 585.695 950.749 565.054 939.08 549.44C934.427 542.504 927.171 538 919.553 534.961C923.044 526.753 923.697 516.936 918.826 509.133C904.615 486.308 889.969 463.75 875.691 440.963C896.24 414.233 917.084 387.723 937.764 361.094C944.599 352.085 944.119 338.481 937.064 329.74C933.461 325.329 927.639 322.214 921.865 323.385C897.899 327.89 873.812 331.785 849.91 336.648C840.828 338.666 835.448 347.213 832.022 355.191C828.005 347.37 819.145 342.037 810.294 343.069C794.589 345.161 779.069 348.356 763.409 350.705C771.663 340.288 778.69 328.848 783.765 316.552C797.591 282.038 797.905 241.943 782.742 207.799C778.828 198.21 772.959 189.644 767.517 180.895C773.937 164.233 781.25 147.93 788.224 131.498C789.891 127.529 791.024 122.922 789.448 118.74C787.782 114.071 782.135 111.749 777.575 113.535L777.568 113.543Z"/>
</mask>
<path d="M775.772 92.3862C787.406 90.2413 799.482 97.2682 804.778 107.575C808.084 114.327 809.208 122.119 807.965 129.535C807.319 133.874 805.662 137.953 804.142 142.034C799.877 153.419 795.171 164.647 791.293 176.171C797.216 183.604 801.249 192.299 805.156 200.902C817.645 229.482 819.876 261.859 814.229 292.347C812.433 302.312 809.973 312.141 807.578 321.979C814.026 321.721 820.481 321.288 826.948 321.565C829.803 321.713 832.225 319.935 834.714 318.775C839.172 316.398 844.155 315.246 849.092 314.318C872.663 309.962 896.225 305.493 919.823 301.276C931.088 299.248 943.191 303.827 950.505 312.596C958.877 322.499 963.602 335.697 962.303 348.703C961.464 358.209 957.091 367.041 951.416 374.577C934.486 396.785 917.04 418.606 900.101 440.803C912.564 459.889 924.521 479.286 936.817 498.473C941.716 505.961 942.565 515.273 941.855 523.988C955.819 534.819 965.83 550.624 969.562 567.905C971.413 576.065 971.403 584.493 971.274 592.811C970.26 619.909 960.009 646.483 943.124 667.632C947.739 677.626 954.768 686.403 958.479 696.839C962.641 709.274 959.483 723.248 952.353 733.978C943.244 748.522 927.613 758.599 910.748 761.444C827.821 775.887 744.804 789.814 661.832 803.98C570.32 819.537 478.829 835.243 387.346 850.965C315.879 863.17 244.448 875.641 172.942 887.633C162.064 889.936 150.449 888.231 140.778 882.725C126.962 874.904 117.917 859.983 116.066 844.361C114.584 833.768 117.412 823.296 118.737 812.85C124.972 772.266 132.231 731.848 138.476 691.266C122.818 686.255 107.988 678.305 95.7466 667.271C73.5116 647.643 59.5944 619.761 54.4902 590.765C48.5395 556.363 53.5336 520.577 66.4828 488.312C78.7714 457.611 97.2195 429.399 120.293 405.735C152.467 372.567 195.5 348.756 241.887 344.206C245.378 343.728 249.781 344.668 252.342 341.636C266.269 322.617 283.143 305.917 300.948 290.544C328.967 266.669 359.999 246.404 392.881 229.89C424.024 214.536 456.528 201.946 489.77 191.94C497.378 189.674 505.06 187.62 512.789 185.788C517.92 177.757 522.783 169.521 528.944 162.208C548.666 138.039 575.267 119.497 604.77 109.375C641.474 97.3537 682.049 100.357 717.871 114.025C719.676 115.048 721.593 113.961 723.288 113.241C733.485 108.562 743.929 104.445 754.238 99.9959C761.248 97.048 768.219 93.6959 775.772 92.3881V92.3862ZM777.568 113.543C757.81 121.418 738.071 129.368 718.148 136.837C716.776 137.748 715.375 136.78 714.077 136.357C691.703 127.883 667.515 123.702 643.595 125.617C626.039 127.1 608.686 131.816 593.035 139.977C569.648 152.125 550.021 171.046 536.131 193.372C532.999 198.335 530.732 203.779 527.794 208.855C504.583 211.241 482.043 217.918 460.269 226.088C410.126 244.187 362.486 269.795 320.972 303.367C310.074 312.412 299.023 321.411 289.553 331.986C294.887 329.775 299.75 326.635 304.881 324.027C335.764 307.346 368.114 293.391 401.411 282.283C435.419 271.01 470.722 263.244 506.518 260.942C506.573 267.868 506.573 274.795 506.592 281.723C460.556 287.562 415.864 303.738 376.718 328.653C363.593 337.403 350.67 346.642 339.46 357.786C356.002 352.867 372.489 347.627 389.373 343.961C412.337 338.637 435.732 335.275 459.239 333.58C479.759 332.354 500.476 331.83 520.906 334.547C527.418 335.256 532.898 339.142 538.397 342.374C545.13 346.29 548.989 353.3 554.452 358.615C562.86 367.779 572.983 375.112 583.476 381.706C571.254 384.718 558.643 385.861 546.421 388.862C543.712 389.58 541.28 390.971 538.813 392.233C536.74 393.513 534.253 392.582 532.016 392.501C527.133 391.681 522.289 392.869 517.481 393.56C506.391 395.327 495.357 397.409 484.277 399.188C478.429 400.228 472.182 400.883 467.218 404.446C461.784 408.61 457.813 414.284 453.559 419.561C450.676 416.623 447.886 413.426 444.163 411.53C438.084 408.288 430.854 407.984 424.212 409.328C411.648 411.833 398.984 413.859 386.391 416.228C381.28 417.103 377.751 421.258 374.564 424.988C369.572 414.136 363.464 403.609 354.954 395.117C342.869 382.203 326.998 373.231 310.162 368.1C294.375 363.228 277.684 361.827 261.224 362.582C240.158 363.586 219.314 368.459 199.824 376.49C170.469 389.018 144.706 409.254 124.331 433.708C104.159 457.997 88.9151 486.524 80.8821 517.103C76.1842 535.424 73.5875 554.434 74.8859 573.372C76.3417 593.654 82.0419 613.89 93.0417 631.115C108.47 655.495 134.795 672.197 163.1 677.087C162.52 683.258 161.221 689.328 160.272 695.453C153.042 738.579 145.894 781.722 138.351 824.803C137.098 832.982 136.519 841.548 138.996 849.57C142.037 860.429 152.832 870.239 164.695 867.733C301.274 844.439 437.763 820.564 574.371 797.399C658.56 783.011 742.811 768.955 826.971 754.421C836.202 752.975 844.388 748.341 852.063 743.249C857.516 746.288 863.806 748.655 870.144 747.385C881.778 745.515 893.365 743.287 904.989 741.36C915.14 739.804 924.553 734.405 931.259 726.678C936.325 720.746 939.816 712.981 938.905 705.05C938.601 700.869 936.115 697.359 934.236 693.768C928.625 683.506 922.75 673.412 917.074 663.196C935.644 649.351 945.896 626.793 949.138 604.31C951.653 585.695 950.749 565.054 939.08 549.44C934.427 542.504 927.171 538 919.553 534.961C923.044 526.753 923.697 516.936 918.826 509.133C904.615 486.308 889.969 463.75 875.691 440.963C896.24 414.233 917.084 387.723 937.764 361.094C944.599 352.085 944.119 338.481 937.064 329.74C933.461 325.329 927.639 322.214 921.865 323.385C897.899 327.89 873.812 331.785 849.91 336.648C840.828 338.666 835.448 347.213 832.022 355.191C828.005 347.37 819.145 342.037 810.294 343.069C794.589 345.161 779.069 348.356 763.409 350.705C771.663 340.288 778.69 328.848 783.765 316.552C797.591 282.038 797.905 241.943 782.742 207.799C778.828 198.21 772.959 189.644 767.517 180.895C773.937 164.233 781.25 147.93 788.224 131.498C789.891 127.529 791.024 122.922 789.448 118.74C787.782 114.071 782.135 111.749 777.575 113.535L777.568 113.543Z" fill="#CCCCCC" stroke="#CCCCCC" stroke-width="41.7186" mask="url(#path-2-inside-1_2025_118)"/>
<path d="M626.965 161.794C644.65 157.031 663.459 157.263 681.292 161.122C681.108 163.037 680.785 164.954 680.132 166.769C674.153 184.913 668.398 203.16 661.812 221.094C656.322 221.333 650.704 221.075 645.379 222.631C640.213 223.968 635.524 226.593 631.048 229.412C618.291 218.873 605.497 208.374 593.237 197.255C589.708 194.188 585.998 191.287 582.995 187.666C595.42 175.876 610.36 166.389 626.967 161.792L626.965 161.794Z" fill="#00FF57"/>
<path d="M692.676 165.217C699.363 166.57 705.405 169.989 711.374 173.166C722.511 179.272 732.155 187.903 739.653 198.138C749.056 210.666 755.791 225.246 758.82 240.628C739.883 243.925 720.928 247.057 701.988 250.345C699.97 250.677 697.935 250.806 695.91 250.916C693.431 245.243 690.705 239.531 686.33 235.055C682.894 231.122 678.307 228.524 674.319 225.227C680.674 205.304 686.55 185.223 692.676 165.217Z" fill="#00FF57"/>
<path d="M556.04 297.269C543.558 263.878 550.493 223.913 574.368 197.257C586.167 207.038 596.825 218.11 608.228 228.352C612.538 232.247 616.913 236.08 621.086 240.142C619.142 244.766 616.416 249.086 615.237 254.013C613.764 259.374 614.085 264.992 614.307 270.491C596.282 279.38 578.146 288.047 559.925 296.54C558.682 296.817 557.226 298.29 556.038 297.267L556.04 297.269Z" fill="#00FF57"/>
<path d="M746.637 255.159C751.409 254.255 756.153 252.985 761.035 252.847C760.932 262.353 761.735 271.969 759.949 281.382C755.564 306.841 740.965 329.904 721.318 346.41C710.633 332.096 700.474 317.397 690.368 302.658C688.269 299.572 686.039 296.578 684.252 293.3C691.05 285.525 695.37 275.753 697.019 265.583C713.516 261.87 730.042 258.344 746.639 255.157L746.637 255.159Z" fill="#00FF57"/>
<path d="M560.975 308.7C580.188 299.811 600.003 292.304 619.603 284.319C626.235 293.908 636.33 301.267 647.798 303.782C655.949 305.329 664.515 304.409 672.216 301.332C682.016 312.688 690.666 324.968 699.876 336.785C703.928 342.117 708.055 347.396 711.868 352.914C694.774 364.271 674.158 370.001 653.682 369.734C614.592 368.961 577.352 344.09 560.975 308.7Z" fill="#00FF57"/>
<path d="M858.149 359.924C876.147 357.041 894.045 353.55 912.06 350.76C900.271 365.784 888.482 380.796 876.893 395.957C874.443 398.481 872.15 401.142 870.29 404.145C860.858 417.307 850.393 429.687 841.045 442.906C852.715 461.004 864.984 478.735 876.903 496.678C882.466 504.96 888.463 512.972 893.565 521.567C874.959 524.127 856.509 527.637 837.94 530.437C823.267 509.99 809.541 488.877 794.806 468.466C792.872 484.824 790.256 501.082 787.806 517.366C786.562 524.67 786.027 532.103 784.26 539.307C769.088 541.619 754.02 544.603 738.803 546.63C746.937 489.651 755.391 432.718 763.728 375.766C779.194 373.215 794.658 370.618 810.132 368.113C807.055 390.587 803.205 412.951 800.035 435.417C811.899 420.109 822.944 404.193 834.669 388.772C839.845 381.671 844.911 374.458 850.613 367.752C852.631 364.804 854.142 360.577 858.147 359.922L858.149 359.924Z" fill="#00FF57"/>
<path d="M679.522 389.199C699.924 383.784 722.906 385.266 741.134 396.522C732.826 409.988 725.19 423.852 716.855 437.299C708.501 432.132 698.479 429.322 688.651 430.731C674.53 432.582 661.976 441.683 654.626 453.712C647.745 464.617 643.48 477.558 644.467 490.555C645.194 499.958 650.528 509.567 659.508 513.306C668.95 517.091 679.653 515.461 688.873 511.805C696.535 508.957 703.187 504.113 709.948 499.619C715.485 509.529 720.568 519.671 726.103 529.581C726.997 530.659 726.519 532.012 725.532 532.842C713.456 544.705 698.443 553.613 682.13 558.19C668.13 561.903 653.115 563.421 638.949 559.655C625.649 556.201 612.975 548.399 605.8 536.416C597.547 523.078 595.594 506.858 596.772 491.475C600.347 444.959 634.536 402.094 679.524 389.198L679.522 389.199Z" fill="#00FF57"/>
<path d="M210.544 401.996C228.874 394.156 248.685 389.599 268.656 389.377C284.894 389.174 301.391 392.48 315.741 400.255C332.147 409.235 344.775 424.434 351.388 441.853C357.052 456.452 358.73 472.351 357.44 487.898C355.035 521.353 341.44 553.388 321.481 580.11C330.296 592.01 339.977 603.239 348.818 615.112C330.019 617.857 311.413 621.818 292.559 624.259C290.754 621.855 288.884 619.507 286.802 617.352C270.903 628.618 254.306 639.073 236.353 646.772C241.768 639.716 248.19 633.507 253.55 626.416C239.834 632.329 225.604 637.22 210.792 639.467C192.048 642.516 172.338 643.731 154.072 637.514C135.981 631.518 121.171 617.407 112.89 600.394C104.426 582.984 102.398 563.054 104.12 543.958C107.049 510.826 121.796 479.546 142.66 453.957C160.704 431.548 184.017 413.282 210.544 401.997V401.996ZM203.405 459.379C177.797 478.51 161.799 509.476 159.929 541.272C159.487 554.869 163.052 569.228 172.383 579.478C180.6 588.717 192.978 593.451 205.174 593.876C222.01 594.263 239.052 589.897 253.273 580.788C240.948 563.646 227.935 547.02 215.407 530.035C234.99 526.774 254.6 523.671 274.117 520.068C280.27 526.423 285.014 533.949 291.001 540.443C299.06 524.231 303.012 505.938 302.017 487.849C300.839 474.613 296.38 460.825 286.193 451.759C276.816 443.165 263.616 440.044 251.172 440.661C233.754 441.553 217.202 448.988 203.405 459.377V459.379Z" fill="#00FF57"/>
<path d="M551.106 413.406C565.549 410.394 580.177 408.35 594.711 405.825C592.205 426.126 588.576 446.269 585.647 466.517C579.964 502.707 574.52 538.933 568.579 575.087C554.1 577.648 539.628 580.29 525.066 582.372C527.294 564.235 530.565 546.266 533.273 528.203C537.345 502.099 541.333 475.987 545.313 449.874C547.322 437.724 548.749 425.492 551.106 413.408V413.406Z" fill="#00FF57"/>
<path d="M481.278 425.494C495.996 422.675 510.807 420.382 525.573 417.802C520.94 450.021 515.744 482.159 511.176 514.397C508.541 531.805 506.037 550.052 496.098 565.057C485.773 580.624 468.475 589.816 451.129 595.435C436.531 599.846 421.258 602.591 405.959 602.113C396.601 601.845 386.883 599.497 379.562 593.381C373.785 588.683 369.697 581.812 369.025 574.333C367.404 562.866 370.204 551.491 371.798 540.199C375.427 516.553 378.983 492.901 382.492 469.246C384.113 459.943 384.749 450.473 386.877 441.273C402.001 438.877 417.042 435.977 432.176 433.61C426.264 469.432 420.774 505.318 415.127 541.176C414.15 547.395 414.501 554.606 419.041 559.423C422.606 562.978 428.076 562.453 432.683 562.232C442.438 561.561 452.919 557.912 458.593 549.465C464.783 540.301 465.842 528.99 467.37 518.342C472.206 487.421 476.453 456.416 481.28 425.495L481.278 425.494Z" fill="#00FF57"/>
<path d="M878.471 550.431C886.098 549.178 894.12 549.482 901.426 552.19C910.066 555.339 917.019 562.516 920.244 571.09C923.68 579.657 923.873 589.098 922.96 598.162C921.301 612.853 915.565 627.296 905.607 638.33C899.408 645.257 891.745 650.866 883.243 654.615C891.967 672.061 901.655 688.99 910.324 706.463C895.615 709.116 880.941 712.007 866.168 714.31C858.302 698.006 850.233 681.794 842.771 665.299C839.242 665.419 835.797 666.193 832.335 666.736C829.461 685.067 826.301 703.359 823.998 721.771C810.523 724.561 796.881 726.376 783.342 728.827C790.103 686.954 797.139 645.128 802.593 603.061C804.407 589.419 806.691 575.853 808.488 562.211C816.952 560.102 825.703 559.318 834.288 557.706C849.016 555.284 863.746 552.824 878.473 550.431H878.471ZM844.722 588.895C841.875 604.194 839.924 619.641 837.648 635.033C846.905 633.577 856.502 632.961 865.188 629.13C877.706 623.889 885.663 608.995 882.008 595.74C880.91 591.061 876.812 587.384 872.124 586.566C862.895 585.304 853.841 588.103 844.722 588.897V588.895Z" fill="#F3FFDD"/>
<path d="M692.653 581.297C724.826 576.121 756.861 570.096 789.063 565.142C787.232 577.845 785.673 590.602 783.251 603.211C764.591 606.463 745.882 609.456 727.203 612.617C725.969 621.726 724.255 630.773 723.112 639.899C740.199 636.97 757.332 634.309 774.408 631.315C772.197 643.511 770.549 655.798 768.385 668.012C751.216 670.979 733.945 673.418 716.839 676.789C716.083 685.678 713.901 694.374 713.081 703.252C732.119 700.165 751.102 696.777 770.169 693.92C768.429 706.585 766.779 719.27 764.393 731.834C731.713 737.581 698.913 742.657 666.287 748.744C674.954 692.907 683.769 637.097 692.649 581.299L692.653 581.297Z" fill="#F3FFDD"/>
<path d="M563.339 603.216C600.689 596.371 638.215 590.487 675.656 584.168C673.897 597.071 671.862 609.941 669.698 622.789C661.28 623.942 652.914 625.433 644.534 626.787C640.952 627.385 637.295 627.707 633.84 628.896C629.907 656.161 625.154 683.295 620.824 710.495C618.292 725.832 616.026 741.213 613.116 756.476C599.52 759.147 585.841 761.358 572.182 763.587C579.45 721.125 586.073 678.551 592.622 635.968C580.813 637.69 569.05 639.708 557.325 641.864C559.167 628.96 560.974 616.036 563.341 603.216H563.339Z" fill="#F3FFDD"/>
<path d="M441.32 623.729C477.537 617.852 513.663 611.468 549.824 605.269C547.67 618.311 545.753 631.391 543.754 644.453C532.599 646.47 521.409 648.294 510.216 650.081C503.519 692.36 496.483 734.582 489.556 776.814C475.979 779.191 462.413 781.687 448.752 783.528C455.245 741.461 462.135 699.451 468.849 657.421C457.639 659.207 446.466 661.196 435.294 663.168C436.123 654.573 437.761 646.091 438.932 637.534C439.697 632.929 440.001 628.221 441.318 623.727L441.32 623.729Z" fill="#F3FFDD"/>
<path d="M366.794 634.937C378.318 633.325 390.32 635.028 400.837 640.029C414.064 646.504 423.533 659.483 426.747 673.742C430.919 690.552 428.138 708.182 423.421 724.567C415.702 751.012 398.975 775.016 375.765 790.112C360.198 800.457 341.795 807.061 322.967 807.032C309.27 807.291 295.427 801.94 285.838 792.083C277.216 783.074 272.583 770.833 271.239 758.573C268.172 722.779 282.863 686.185 309.151 661.83C324.911 647.157 345.212 636.951 366.792 634.933L366.794 634.937ZM356.764 673.723C345.582 675.897 335.975 683.026 328.799 691.657C318.64 704.248 312.911 720.369 312.754 736.552C312.708 744.169 313.674 752.294 318.317 758.622C322.092 763.992 328.43 767.253 334.952 767.576C343.86 768.027 352.748 764.74 359.729 759.294C372.154 749.632 380.472 735.318 384.001 720.084C385.751 712.18 387.059 703.974 385.66 695.915C384.775 689.679 382.482 683.37 377.775 678.995C372.359 673.615 364.051 672.087 356.764 673.725V673.723Z" fill="#F3FFDD"/>
<path d="M191.413 665.806C205.091 663.64 218.76 661.347 232.392 658.925C225.963 701.24 218.953 743.463 212.036 785.704C228.937 783.163 245.785 780.27 262.66 777.542C260.938 790.19 258.717 802.77 256.838 815.399C226.102 820.934 195.291 826.01 164.48 831.121C173.728 776.058 182.884 720.977 191.413 665.804V665.806Z" fill="#F3FFDD"/>
<defs>
<linearGradient id="paint0_linear_2025_118" x1="34" y1="100.5" x2="885.5" y2="987.5" gradientUnits="userSpaceOnUse">
<stop/>
<stop offset="1" stop-color="#464646"/>
</linearGradient>
</defs>
</svg>
