<svg width="512" height="512" viewBox="0 0 512 512" fill="none" xmlns="http://www.w3.org/2000/svg">
<g clip-path="url(#clip0_1027_4425)">
<path d="M262.256 -0.0816842C263.457 -0.0805018 264.659 -0.0822624 265.861 -0.0869342C273.496 -0.116312 281.049 0.0703591 288.653 0.767128C288.955 0.793928 289.256 0.820727 289.567 0.848339C291.17 0.992362 292.769 1.1579 294.367 1.34313C294.598 1.36939 294.829 1.39566 295.067 1.42272C311.09 3.25694 326.878 6.64249 342.195 11.6033C342.717 11.7721 343.24 11.9395 343.763 12.1065C360.852 17.5759 377.25 25.1978 392.62 34.3031C393.167 34.6248 393.714 34.9465 394.26 35.2681C396.884 36.8167 399.48 38.3918 402.008 40.0864C402.636 40.5069 403.267 40.924 403.898 41.3411C406.771 43.2454 409.612 45.1862 412.41 47.1953C413.02 47.6326 413.632 48.0674 414.244 48.5021C416.603 50.1843 418.902 51.9182 421.153 53.7361C422.095 54.496 423.053 55.2333 424.016 55.9671C425.631 57.2018 427.198 58.4843 428.751 59.7916C429.218 60.181 429.69 60.5643 430.162 60.9471C434.305 64.3208 434.305 64.3208 434.727 66.3991C434.776 68.4387 433.553 70.0335 432.177 71.4628C431.704 71.9286 431.226 72.3909 430.746 72.8501C430.489 73.1002 430.232 73.3505 429.976 73.6011C429.305 74.2552 428.63 74.9053 427.954 75.5547C427.407 76.082 426.863 76.6122 426.318 77.1425C425.186 78.2457 424.051 79.3466 422.912 80.4428C422.712 80.6358 422.511 80.8287 422.305 81.0275C421.77 81.5215 421.228 81.9926 420.671 82.4614C419.482 83.4793 418.365 84.5586 417.251 85.6543C417.031 85.8693 416.812 86.0842 416.586 86.3057C415.982 86.897 415.379 87.489 414.776 88.0812C414.123 88.7217 413.47 89.3615 412.817 90.0014C411.687 91.1087 410.557 92.2165 409.428 93.3245C407.794 94.928 406.159 96.5308 404.524 98.1333C401.869 100.736 399.215 103.339 396.561 105.942C393.987 108.467 391.413 110.991 388.839 113.515C388.68 113.671 388.521 113.826 388.358 113.987C387.562 114.767 386.765 115.548 385.969 116.328C380.483 121.707 374.998 127.086 369.513 132.465C369.167 132.805 369.167 132.805 368.813 133.152C368.387 133.57 367.962 133.987 367.536 134.405C367.172 134.762 366.808 135.119 366.444 135.476C366.154 135.76 365.865 136.044 365.577 136.33C363.71 138.173 363.71 138.173 362.553 138.299C359.965 138.177 358.337 136.174 356.539 134.552C355.089 133.268 353.603 131.989 351.951 130.959C351.652 130.761 351.652 130.761 351.347 130.559C351.347 130.39 351.347 130.221 351.347 130.047C351.2 129.978 351.053 129.91 350.902 129.839C350.261 129.515 349.665 129.154 349.061 128.767C348.853 128.635 348.644 128.503 348.429 128.367C348.192 128.185 348.192 128.185 347.951 127.999C347.951 127.83 347.951 127.661 347.951 127.487C347.805 127.42 347.659 127.352 347.509 127.283C346.846 126.944 346.244 126.557 345.626 126.146C345.374 125.98 345.123 125.814 344.864 125.643C344.595 125.465 344.326 125.287 344.049 125.103C339.296 121.982 334.47 119.087 329.404 116.479C329.166 116.355 328.929 116.232 328.684 116.104C309.171 106.009 287.048 101.184 225.437 104.959C225.264 104.999 225.092 105.039 224.914 105.08C211.535 108.198 198.443 113.368 186.514 120.063C186.318 120.173 186.123 120.282 185.921 120.395C181.349 122.958 176.934 125.737 172.669 128.767C172.47 128.908 172.271 129.048 172.065 129.193C169.036 131.332 166.113 133.568 163.265 135.935C163.098 136.073 162.932 136.211 162.76 136.354C158.971 139.499 155.4 142.853 151.886 146.287C151.751 146.419 151.616 146.551 151.476 146.686C149.95 148.177 148.469 149.688 147.069 151.295C146.689 151.707 146.309 152.117 145.927 152.527C144.691 153.871 143.525 155.262 142.367 156.671C142.126 156.961 141.884 157.251 141.642 157.541C139.754 159.815 137.982 162.159 136.251 164.55C135.858 165.09 135.461 165.627 135.063 166.163C120.669 185.671 111.098 209.141 105.992 255.119C105.992 255.41 105.992 255.701 105.991 256.001C106 264.706 106.791 273.257 108.147 281.855C108.196 282.169 108.245 282.482 108.296 282.805C109.129 288.004 110.368 293.113 111.668 298.215C111.792 298.702 111.913 299.189 112.034 299.676C113.227 304.422 115.065 308.866 117.029 313.343C117.163 313.651 117.297 313.958 117.435 314.275C120.699 321.72 124.337 329.079 128.647 335.999C129.026 336.609 129.399 337.222 129.77 337.837C133.117 343.344 136.929 348.57 141.061 353.535C141.245 353.76 141.43 353.985 141.619 354.217C142.836 355.695 144.101 357.115 145.413 358.512C145.938 359.074 146.449 359.645 146.955 360.223C147.832 361.218 148.786 362.128 149.754 363.037C150.204 363.519 150.204 363.519 150.204 364.031C150.351 364.088 150.498 364.145 150.649 364.204C151.43 364.645 151.9 365.204 152.49 365.871C153.412 366.895 154.363 367.826 155.43 368.705C156.024 369.213 156.573 369.753 157.127 370.303C158.173 371.339 159.26 372.301 160.392 373.247C160.658 373.473 160.923 373.698 161.189 373.924C165.058 377.207 169.041 380.296 173.192 383.231C173.381 383.365 173.57 383.5 173.764 383.638C176.632 385.673 179.582 387.556 182.596 389.375C182.763 389.477 182.931 389.579 183.103 389.684C201.657 400.945 222.869 407.903 262.106 410.943C262.547 410.943 262.547 410.943 262.998 410.944C280.28 410.934 297.242 408.568 313.731 403.455C314.003 403.372 314.276 403.288 314.556 403.202C320.888 401.255 327.056 398.793 333.061 396.031C333.304 395.92 333.547 395.81 333.797 395.696C341.32 392.262 349.198 388.662 355.529 383.339C356.31 382.719 356.31 382.719 356.833 382.719C356.833 382.55 356.833 382.381 356.833 382.207C357.209 381.882 357.209 381.882 357.763 381.487C363.164 377.474 368.481 372.691 372.849 367.607C373.651 366.69 374.503 365.814 375.344 364.931C375.902 364.341 375.902 364.341 376.158 363.771C376.543 363.036 377.131 362.56 377.731 361.983C383.581 355.422 388.173 347.747 392.098 339.967C392.191 339.786 392.283 339.604 392.379 339.417C396.229 331.841 399.83 322.969 401.502 314.623C401.594 314.354 401.685 314.085 401.78 313.807C402.148 312.337 402.291 310.93 401.714 309.503C400.8 308.515 399.67 308.389 398.367 308.223C397.387 308.187 396.407 308.19 395.426 308.193C395.129 308.193 394.833 308.193 394.527 308.193C393.532 308.193 392.537 308.196 391.542 308.198C391.188 308.199 390.834 308.199 390.48 308.199C384.715 308.206 378.95 308.243 373.185 308.288C350.722 308.462 328.26 308.497 301.563 308.411C298.946 308.402 296.33 308.394 293.714 308.387C290.051 308.378 286.389 308.366 282.727 308.351C280.936 308.344 279.145 308.337 277.354 308.332C275.698 308.328 274.041 308.321 272.384 308.313C271.782 308.31 271.18 308.308 270.578 308.307C269.757 308.306 268.936 308.301 268.114 308.296C267.88 308.296 267.646 308.297 267.404 308.297C265.488 308.279 263.407 308.219 261.731 307.247C259.97 305.299 260.4 302.171 260.396 299.735C260.394 299.367 260.393 298.998 260.391 298.629C260.386 297.619 260.383 296.609 260.381 295.599C260.378 294.508 260.373 293.417 260.369 292.327C260.36 290.191 260.353 288.055 260.347 285.919C260.341 284.183 260.336 282.446 260.33 280.709C260.313 275.781 260.297 270.853 260.283 265.925C260.282 265.659 260.282 265.394 260.281 265.12C260.28 264.854 260.279 264.589 260.279 264.315C260.266 260.008 260.251 255.702 260.234 251.395C260.218 246.969 260.203 242.544 260.19 238.118C260.183 235.635 260.175 233.152 260.165 230.669C260.156 228.554 260.149 226.44 260.145 224.325C260.143 223.247 260.14 222.169 260.134 221.092C260.129 220.103 260.127 219.114 260.126 218.125C260.125 217.602 260.121 217.08 260.118 216.557C260.123 210.746 260.123 210.746 261.404 209.103C262.976 207.612 264.972 207.327 267.084 207.327C267.426 207.326 267.769 207.325 268.121 207.325C268.502 207.325 268.882 207.326 269.262 207.326C269.667 207.326 270.072 207.325 270.478 207.325C271.597 207.324 272.716 207.324 273.835 207.325C275.05 207.325 276.266 207.324 277.481 207.323C279.613 207.322 281.745 207.321 283.877 207.322C287.048 207.322 290.218 207.321 293.389 207.32C299.38 207.317 305.372 207.316 311.363 207.316C315.99 207.316 320.616 207.316 325.242 207.315C326.572 207.315 327.903 207.314 329.233 207.314C329.564 207.314 329.895 207.314 330.235 207.314C339.542 207.312 348.848 207.311 358.154 207.312C358.509 207.312 358.863 207.312 359.218 207.312C360.819 207.312 362.42 207.312 364.021 207.312C364.735 207.312 365.449 207.312 366.163 207.312C366.52 207.312 366.877 207.312 367.235 207.312C378.533 207.312 389.832 207.31 401.131 207.306C403.978 207.306 406.825 207.305 409.671 207.304C409.846 207.304 410.022 207.304 410.202 207.304C419.665 207.301 429.128 207.3 438.591 207.301C439.922 207.301 441.253 207.301 442.583 207.301C442.911 207.301 443.239 207.301 443.577 207.301C448.856 207.301 454.135 207.299 459.414 207.297C464.718 207.295 470.022 207.294 475.325 207.296C478.478 207.297 481.631 207.296 484.783 207.294C486.888 207.292 488.993 207.293 491.098 207.295C492.298 207.296 493.498 207.296 494.698 207.294C495.79 207.292 496.882 207.292 497.973 207.295C498.366 207.295 498.758 207.295 499.15 207.293C504.846 207.275 504.846 207.275 506.776 208.895C509.097 211.43 508.98 216.304 509.371 219.535C509.422 219.947 509.422 219.947 509.474 220.367C511.162 234.152 512.145 247.938 512.102 261.824C512.098 263.277 512.1 264.73 512.105 266.183C512.125 273.909 511.852 281.577 511.216 289.279C511.202 289.455 511.187 289.631 511.173 289.812C511.014 291.718 510.826 293.619 510.612 295.519C510.585 295.767 510.558 296.016 510.53 296.272C508.549 314.231 504.838 331.988 499.114 349.168C498.945 349.677 498.778 350.187 498.613 350.698C495.924 358.996 492.663 367.104 489.012 375.039C488.814 375.472 488.814 375.472 488.611 375.914C485.372 382.947 481.921 389.923 477.948 396.588C477.477 397.382 477.012 398.179 476.549 398.977C470.52 409.339 463.689 419.413 455.837 428.543C455.604 428.815 455.372 429.088 455.14 429.36C453.855 430.861 452.551 432.34 451.204 433.788C450.715 434.32 450.233 434.857 449.754 435.398C448.785 436.485 447.786 437.542 446.776 438.591C446.594 438.78 446.413 438.968 446.226 439.162C444.214 441.245 442.2 443.329 439.969 445.19C439.146 445.895 438.35 446.628 437.551 447.359C436.444 448.371 435.331 449.369 434.185 450.338C433.434 450.987 432.701 451.653 431.967 452.319C429.865 454.226 427.757 456.103 425.529 457.869C424.816 458.443 424.116 459.028 423.42 459.621C421.73 461.056 420 462.424 418.214 463.744C417.611 464.192 417.012 464.645 416.412 465.098C413.842 467.038 411.253 468.93 408.555 470.697C408.004 471.058 407.454 471.422 406.904 471.786C400.431 476.06 393.762 479.987 386.874 483.583C386.609 483.722 386.345 483.861 386.073 484.004C372.94 490.89 359.043 496.106 344.788 500.277C343.871 500.547 342.962 500.827 342.06 501.141C340.453 501.676 338.782 502.006 337.129 502.376C335.879 502.657 334.632 502.946 333.384 503.234C332.845 503.358 332.306 503.482 331.766 503.606C330.937 503.796 330.109 503.986 329.28 504.177C328.465 504.364 327.651 504.551 326.837 504.738C326.589 504.795 326.341 504.852 326.086 504.911C325.854 504.964 325.623 505.017 325.384 505.072C325.183 505.118 324.981 505.164 324.773 505.212C324.142 505.351 323.508 505.477 322.874 505.599C322.56 505.661 322.247 505.724 321.924 505.788C308.58 508.436 295.174 510.369 281.601 511.445C281.123 511.483 280.645 511.522 280.166 511.561C273.706 512.072 267.256 512.069 260.778 512.049C259.646 512.046 258.514 512.047 257.382 512.047C256.275 512.047 255.168 512.045 254.061 512.043C253.54 512.042 253.02 512.042 252.499 512.042C249.708 512.04 246.936 511.989 244.151 511.798C242.98 511.73 241.818 511.734 240.646 511.759C240.065 511.743 240.065 511.743 239.543 511.487C239.188 511.436 238.831 511.397 238.474 511.365C238.251 511.344 238.029 511.323 237.799 511.302C237.433 511.269 237.433 511.269 237.059 511.236C236.532 511.187 236.004 511.137 235.477 511.088C235.198 511.062 234.918 511.036 234.631 511.009C225.285 510.128 216.08 508.757 206.89 506.879C206.573 506.814 206.255 506.75 205.929 506.683C189.479 503.294 173.06 498.254 157.783 491.357C156.738 490.892 155.682 490.453 154.626 490.014C152.125 488.971 149.714 487.83 147.324 486.565C145.566 485.638 143.774 484.778 141.984 483.912C139.236 482.577 136.572 481.119 133.927 479.599C133.656 479.444 133.385 479.288 133.106 479.128C132.546 478.807 131.987 478.486 131.428 478.164C130.663 477.724 129.896 477.286 129.13 476.848C124.858 474.401 120.668 471.83 116.566 469.117C115.768 468.59 114.964 468.074 114.148 467.572C113.891 467.414 113.891 467.414 113.629 467.252C113.302 467.051 112.973 466.851 112.643 466.653C112.268 466.422 111.904 466.172 111.543 465.919C111.543 465.75 111.543 465.581 111.543 465.407C111.349 465.338 111.155 465.268 110.956 465.196C110.274 464.911 109.768 464.605 109.18 464.169C108.982 464.025 108.785 463.88 108.582 463.731C108.374 463.577 108.166 463.422 107.951 463.263C106.048 461.866 104.126 460.505 102.16 459.195C101.709 458.889 101.269 458.565 100.833 458.239C100.833 458.07 100.833 457.901 100.833 457.727C100.685 457.661 100.537 457.596 100.385 457.528C99.5006 457.065 98.7674 456.439 97.9908 455.822C97.4345 455.379 97.4345 455.379 96.6531 455.167C96.211 454.747 95.7767 454.319 95.347 453.887C94.8176 453.433 94.2864 452.985 93.747 452.543C93.5248 452.36 93.5248 452.36 93.2982 452.173C92.3614 451.402 91.4156 450.642 90.4653 449.887C89.0897 448.79 87.777 447.633 86.4653 446.463C85.3962 445.521 84.3171 444.622 83.1674 443.775C82.277 443.107 81.577 442.414 80.8779 441.559C80.4448 441.073 79.9896 440.67 79.4873 440.254C78.4124 439.344 77.4014 438.386 76.399 437.4C76.2208 437.226 76.0425 437.051 75.8589 436.871C75.4852 436.505 75.1118 436.139 74.7387 435.772C74.1729 435.217 73.6057 434.662 73.0383 434.108C72.6727 433.749 72.3073 433.391 71.9419 433.032C71.775 432.869 71.6082 432.706 71.4362 432.538C70.4498 431.566 69.5109 430.567 68.5991 429.527C67.885 428.724 67.1316 427.956 66.3837 427.183C65.0997 425.846 63.8837 424.486 62.7143 423.051C62.1565 422.381 61.5745 421.742 60.9796 421.103C59.837 419.871 58.7776 418.59 57.7306 417.279C57.5049 416.999 57.279 416.718 57.0531 416.438C56.3184 415.526 55.5874 414.611 54.8572 413.695C54.7487 413.56 54.6403 413.424 54.5286 413.284C52.709 411.006 50.9758 408.67 49.257 406.317C48.8745 405.794 48.491 405.271 48.1072 404.749C44.6694 400.064 44.6694 400.064 44.6694 399.359C44.497 399.359 44.3246 399.359 44.147 399.359C44.0693 399.219 43.9917 399.078 43.9118 398.933C43.1276 397.53 42.2876 396.176 41.4041 394.831C38.6739 390.631 36.1238 386.326 33.698 381.951C33.5463 381.678 33.3946 381.405 33.2383 381.124C29.679 374.715 29.679 374.715 28.3254 371.772C27.9578 370.973 27.5659 370.207 27.1133 369.452C26.6449 368.639 26.6449 368.639 26.6449 368.127C26.4725 368.043 26.3001 367.958 26.1225 367.871C25.8846 367.473 25.8846 367.473 25.6398 366.953C25.5013 366.663 25.5013 366.663 25.36 366.366C25.2121 366.05 25.2121 366.05 25.0612 365.727C24.8497 365.282 24.6382 364.836 24.4265 364.391C24.3182 364.162 24.2099 363.932 24.0982 363.696C23.6858 362.827 23.2662 361.961 22.8458 361.095C21.262 357.832 19.7248 354.557 18.2857 351.231C18.1629 350.955 18.04 350.679 17.9135 350.394C17.5178 349.49 17.1668 348.573 16.8245 347.647C16.7333 347.402 16.7333 347.402 16.6402 347.151C16.3835 346.46 16.128 345.769 15.8723 345.077C15.684 344.568 15.4951 344.06 15.3061 343.551C15.1949 343.25 15.0836 342.949 14.9689 342.639C14.7355 342.035 14.4869 341.437 14.226 340.844C13.8852 340.06 13.6 339.286 13.3388 338.473C13.2506 338.201 13.1623 337.928 13.0714 337.647C12.9819 337.367 12.8923 337.087 12.8 336.799C12.6206 336.242 12.441 335.686 12.2612 335.129C12.1744 334.859 12.0875 334.589 11.998 334.31C11.7998 333.704 11.5926 333.103 11.3796 332.501C7.58744 321.417 4.82413 309.507 3.249 297.935C3.17517 297.229 3.17517 297.229 2.87349 296.703C2.79256 296.084 2.72364 295.468 2.66124 294.847C2.39039 292.292 2.0364 289.749 1.67419 287.205C1.42299 285.407 1.22572 283.619 1.10978 281.808C1.0482 281.124 0.923767 280.479 0.783691 279.807C0.750966 279.442 0.726332 279.076 0.710222 278.71C0.700457 278.511 0.690691 278.312 0.68063 278.107C0.662218 277.693 0.643851 277.279 0.625528 276.865C0.61088 276.566 0.61088 276.566 0.595936 276.262C0.588023 276.083 0.58011 275.903 0.571957 275.718C0.53769 275.202 0.537698 275.202 0.393863 274.729C0.134615 273.647 0.157205 272.527 0.116344 271.42C0.105361 271.123 0.0943856 270.826 0.0830694 270.519C-0.0654675 265.902 -0.0391296 261.28 -0.0340384 256.66C-0.0325456 255.294 -0.0334209 253.927 -0.0349791 252.56C-0.0359338 251.487 -0.0356033 250.414 -0.0349312 249.341C-0.0347602 248.838 -0.0349651 248.335 -0.0355849 247.831C-0.0399841 243.262 0.095874 238.697 0.50614 234.143C0.528723 233.885 0.551305 233.627 0.574571 233.362C0.729674 231.64 0.926796 229.93 1.16022 228.217C1.32084 227.004 1.44272 225.787 1.5689 224.57C2.13042 219.194 2.95845 213.877 4.03662 208.577C4.1931 207.805 4.3461 207.032 4.499 206.259C5.02764 203.606 5.58326 200.971 6.27859 198.355C6.563 197.249 6.80889 196.138 7.05308 195.023C7.42171 193.352 7.86462 191.732 8.40308 190.105C8.58677 189.542 8.73787 188.988 8.88165 188.415C9.65758 185.379 10.6029 182.405 11.579 179.426C11.8347 178.645 12.0887 177.864 12.3424 177.083C13.7719 172.694 15.2502 168.329 17.0286 164.063C17.1362 163.802 17.2438 163.542 17.3546 163.273C17.5648 162.764 17.7755 162.255 17.9866 161.746C18.2754 161.048 18.5612 160.349 18.8459 159.65C19.2191 158.735 19.597 157.821 19.9837 156.911C20.0834 156.676 20.183 156.441 20.2857 156.198C21.2194 154.052 22.2108 151.929 23.2 149.807C23.3295 149.526 23.459 149.244 23.5924 148.955C24.3851 147.258 25.2569 145.645 26.2327 144.042C26.7436 143.195 27.1963 142.337 27.6408 141.455C27.7263 141.286 27.8117 141.118 27.8998 140.944C28.3905 139.969 28.8678 138.989 29.3378 138.004C30.8027 134.938 32.3765 131.954 34.0601 128.997C34.4953 128.231 34.926 127.462 35.3561 126.693C40.2558 117.972 45.9294 109.706 52.1406 101.832C52.9831 100.76 53.7849 99.6789 54.5061 98.5231C54.9898 97.8672 55.5771 97.3365 56.1633 96.7671C56.6267 96.2483 57.0835 95.7278 57.5347 95.1991C57.6594 95.054 57.7841 94.9088 57.9126 94.7593C58.6995 93.8413 59.4744 92.9144 60.2449 91.9831C61.1914 90.8435 62.1766 89.7466 63.1857 88.6601C63.6815 88.125 64.1691 87.5844 64.6531 87.0391C65.7275 85.8319 66.821 84.6423 67.9184 83.4551C68.2106 83.1354 68.2106 83.1354 68.5088 82.8092C71.0529 80.0621 73.7414 77.4535 76.4203 74.8339C77.1208 74.1489 77.8201 73.4627 78.519 72.7762C79.0649 72.2403 79.6115 71.7049 80.1582 71.1698C80.4163 70.9171 80.6741 70.6642 80.9317 70.4111C82.2427 69.124 83.5609 67.8619 84.9728 66.6808C85.738 66.0351 86.4657 65.3501 87.2 64.6711C88.5174 63.4618 89.8683 62.3176 91.2776 61.2111C91.9574 60.666 92.6082 60.0991 93.2572 59.5191C94.609 58.3147 96.0162 57.1884 97.4368 56.0631C97.7584 55.8044 98.0798 55.5453 98.401 55.2861C100.639 53.4848 102.915 51.748 105.244 50.0628C105.815 49.6496 106.383 49.234 106.951 48.8181C111.412 45.5622 115.962 42.4252 120.662 39.5073C121.231 39.1531 121.798 38.7958 122.364 38.4381C130.199 33.5151 138.396 29.1226 146.752 25.1101C147.163 24.912 147.573 24.7126 147.983 24.5121C162.339 17.5032 177.667 12.2199 193.198 8.3483C193.621 8.2429 194.044 8.13711 194.466 8.03096C208.09 4.61021 221.964 2.44478 235.951 1.08713C236.216 1.06121 236.482 1.0353 236.755 1.0086C238.641 0.826497 240.528 0.664967 242.416 0.511128C242.698 0.486989 242.979 0.46285 243.269 0.43798C249.591 -0.0923665 255.914 -0.0884269 262.256 -0.0816842Z" fill="#45AB42"/>
<path d="M262.256 -0.0816842C263.457 -0.0805018 264.659 -0.0822624 265.861 -0.0869342C273.496 -0.116312 281.049 0.0703591 288.653 0.767128C288.955 0.793928 289.256 0.820728 289.567 0.848339C291.17 0.992362 292.769 1.1579 294.367 1.34313C294.598 1.36939 294.829 1.39566 295.067 1.42272C311.09 3.25694 326.878 6.64249 342.195 11.6033C342.717 11.7721 343.24 11.9395 343.763 12.1065C360.852 17.5759 377.25 25.1978 392.62 34.3031C393.167 34.6248 393.714 34.9465 394.26 35.2681C396.884 36.8167 399.48 38.3918 402.008 40.0864C402.636 40.5069 403.267 40.924 403.898 41.3411C406.771 43.2454 409.612 45.1862 412.41 47.1953C413.02 47.6326 413.632 48.0674 414.244 48.5021C416.603 50.1843 418.902 51.9182 421.153 53.7361C422.095 54.496 423.053 55.2333 424.016 55.9671C425.631 57.2018 427.198 58.4843 428.751 59.7916C429.218 60.181 429.69 60.5644 430.162 60.9471C434.305 64.3208 434.305 64.3208 434.727 66.3991C434.776 68.4387 433.553 70.0335 432.177 71.4628C431.704 71.9286 431.226 72.3909 430.746 72.8501C430.489 73.1002 430.232 73.3505 429.976 73.6011C429.305 74.2552 428.63 74.9053 427.954 75.5547C427.407 76.082 426.863 76.6122 426.318 77.1425C425.186 78.2457 424.051 79.3466 422.912 80.4428C422.712 80.6358 422.511 80.8287 422.305 81.0275C421.77 81.5215 421.228 81.9926 420.671 82.4614C419.482 83.4793 418.365 84.5586 417.251 85.6544C417.031 85.8693 416.812 86.0842 416.586 86.3057C415.982 86.897 415.379 87.489 414.776 88.0812C414.123 88.7217 413.47 89.3615 412.817 90.0014C411.687 91.1087 410.557 92.2165 409.428 93.3246C407.794 94.928 406.159 96.5308 404.524 98.1333C401.869 100.736 399.215 103.339 396.561 105.942C393.987 108.467 391.413 110.991 388.839 113.515C388.68 113.671 388.521 113.826 388.358 113.987C387.562 114.767 386.765 115.548 385.969 116.328C380.483 121.707 374.998 127.086 369.513 132.465C369.167 132.805 369.167 132.805 368.813 133.152C368.387 133.57 367.962 133.987 367.536 134.405C367.172 134.762 366.808 135.119 366.444 135.476C366.154 135.76 365.865 136.044 365.577 136.33C363.71 138.173 363.71 138.173 362.553 138.299C359.965 138.177 358.337 136.174 356.539 134.552C355.089 133.269 353.603 131.989 351.951 130.959C351.652 130.761 351.652 130.761 351.347 130.559C351.347 130.39 351.347 130.221 351.347 130.047C351.2 129.978 351.053 129.91 350.902 129.839C350.261 129.515 349.665 129.154 349.061 128.767C348.852 128.635 348.644 128.503 348.429 128.367C348.192 128.185 348.192 128.185 347.951 127.999C347.951 127.83 347.951 127.661 347.951 127.487C347.805 127.42 347.659 127.352 347.509 127.283C346.846 126.944 346.244 126.557 345.626 126.146C345.374 125.98 345.123 125.814 344.864 125.643C344.595 125.465 344.326 125.287 344.049 125.103C339.296 121.982 334.47 119.087 329.404 116.479C329.166 116.356 328.929 116.232 328.684 116.105C309.171 106.009 287.048 101.184 225.437 104.959C225.264 104.999 225.092 105.039 224.914 105.08C211.535 108.198 198.443 113.368 186.514 120.063C186.318 120.173 186.122 120.282 185.921 120.395C181.349 122.958 176.934 125.737 172.669 128.767C172.47 128.908 172.271 129.048 172.065 129.193C169.036 131.332 166.113 133.568 163.265 135.935C163.098 136.073 162.932 136.212 162.76 136.354C158.971 139.499 155.4 142.853 151.886 146.287C151.751 146.419 151.616 146.551 151.476 146.686C149.95 148.177 148.469 149.688 147.069 151.295C146.689 151.707 146.309 152.118 145.927 152.527C144.691 153.871 143.525 155.262 142.367 156.671C142.126 156.961 141.884 157.251 141.642 157.541C139.754 159.815 137.982 162.159 136.251 164.55C135.858 165.09 135.461 165.627 135.063 166.163C120.669 185.671 111.098 209.142 105.992 255.119C105.992 255.41 105.992 255.701 105.991 256.001C106 264.706 106.791 273.257 108.147 281.855C108.196 282.169 108.245 282.482 108.296 282.806C109.373 289.528 110.988 296.231 112.934 302.763C113.551 304.865 113.551 304.865 113.371 305.663C112.794 306.222 112.794 306.222 111.967 306.799C111.655 307.022 111.343 307.246 111.031 307.47C110.776 307.65 110.776 307.65 110.517 307.834C109.536 308.539 108.582 309.28 107.625 310.015C106.278 311.043 104.929 312.069 103.576 313.087C101.638 314.545 99.7115 316.016 97.7843 317.487C96.798 318.239 95.8112 318.991 94.8245 319.743C94.4327 320.042 94.0408 320.34 93.649 320.639C92.8653 321.236 92.0816 321.834 91.298 322.431C91.0069 322.653 91.0069 322.653 90.7099 322.879C90.3191 323.177 89.9284 323.475 89.5376 323.773C88.5415 324.532 87.5456 325.291 86.55 326.051C84.5572 327.572 82.5613 329.088 80.5582 330.595C78.8932 331.85 77.2377 333.118 75.5802 334.383C74.5939 335.135 73.6072 335.887 72.6204 336.639C72.2286 336.938 71.8367 337.236 71.4449 337.535C70.6612 338.132 69.8776 338.73 69.0939 339.327C68.8028 339.549 68.8028 339.549 68.5058 339.775C68.1151 340.073 67.7243 340.371 67.3335 340.669C66.3374 341.428 65.3415 342.187 64.3459 342.947C62.3531 344.468 60.3572 345.984 58.3541 347.491C56.6891 348.746 55.0336 350.014 53.3762 351.279C52.1951 352.18 51.0134 353.08 49.8318 353.981C48.8356 354.74 47.8396 355.499 46.8439 356.259C44.8511 357.78 42.8552 359.296 40.8521 360.803C39.1905 362.056 37.5385 363.321 35.8845 364.583C34.8457 365.375 33.8065 366.167 32.7674 366.959C32.397 367.241 32.0265 367.524 31.6561 367.806C31.479 367.94 31.3018 368.074 31.1193 368.212C30.7187 368.52 30.3231 368.834 29.9308 369.151C29.7223 369.318 29.5138 369.484 29.299 369.656C29.1098 369.81 28.9205 369.964 28.7256 370.123C28.5562 370.225 28.3868 370.326 28.2123 370.431C27.4286 370.175 27.4286 370.175 26.9878 369.423C26.6449 368.639 26.6449 368.639 26.6449 368.127C26.4725 368.043 26.3001 367.958 26.1225 367.871C25.8846 367.473 25.8846 367.473 25.6398 366.953C25.5013 366.663 25.5013 366.663 25.36 366.366C25.2121 366.05 25.2121 366.05 25.0612 365.727C24.8497 365.282 24.6382 364.836 24.4265 364.391C24.3182 364.162 24.2099 363.932 24.0982 363.696C23.6858 362.827 23.2662 361.961 22.8458 361.095C21.262 357.832 19.7248 354.557 18.2857 351.231C18.1629 350.955 18.04 350.679 17.9135 350.395C17.5178 349.49 17.1668 348.573 16.8245 347.647C16.7333 347.402 16.7333 347.402 16.6402 347.151C16.3835 346.46 16.128 345.769 15.8723 345.077C15.684 344.568 15.4951 344.06 15.3061 343.551C15.1948 343.25 15.0836 342.949 14.9689 342.639C14.7355 342.035 14.4869 341.437 14.226 340.845C13.8852 340.06 13.6 339.286 13.3388 338.473C13.2506 338.201 13.1623 337.928 13.0714 337.647C12.9819 337.367 12.8923 337.087 12.8 336.799C12.6206 336.242 12.441 335.686 12.2612 335.129C12.1744 334.859 12.0875 334.589 11.998 334.31C11.7998 333.704 11.5926 333.103 11.3796 332.501C7.58744 321.417 4.82413 309.507 3.249 297.935C3.17517 297.229 3.17517 297.229 2.87349 296.703C2.79256 296.084 2.72364 295.468 2.66124 294.847C2.39039 292.292 2.0364 289.749 1.67419 287.205C1.42299 285.407 1.22572 283.62 1.10978 281.808C1.0482 281.124 0.923766 280.479 0.783691 279.807C0.750966 279.442 0.726332 279.076 0.710222 278.71C0.700457 278.511 0.690691 278.312 0.68063 278.107C0.662218 277.693 0.643851 277.279 0.625528 276.865C0.61088 276.566 0.61088 276.566 0.595936 276.262C0.588023 276.083 0.58011 275.903 0.571957 275.718C0.53769 275.202 0.537698 275.202 0.393863 274.729C0.134615 273.647 0.157205 272.527 0.116344 271.42C0.105361 271.123 0.0943856 270.826 0.0830694 270.519C-0.0654675 265.902 -0.0391296 261.28 -0.0340384 256.66C-0.0325456 255.294 -0.0334209 253.927 -0.0349791 252.56C-0.0359338 251.487 -0.0356033 250.414 -0.0349312 249.341C-0.0347602 248.838 -0.0349651 248.335 -0.0355849 247.831C-0.0399841 243.262 0.095874 238.697 0.50614 234.143C0.528722 233.885 0.551305 233.628 0.574571 233.362C0.729674 231.64 0.926796 229.93 1.16022 228.217C1.32084 227.004 1.44272 225.787 1.5689 224.57C2.13042 219.194 2.95845 213.877 4.03662 208.577C4.1931 207.805 4.3461 207.032 4.499 206.259C5.02764 203.606 5.58326 200.971 6.27859 198.355C6.563 197.249 6.80888 196.138 7.05308 195.023C7.4217 193.352 7.86462 191.732 8.40308 190.105C8.58677 189.542 8.73787 188.988 8.88165 188.415C9.65757 185.379 10.6029 182.405 11.579 179.426C11.8347 178.645 12.0887 177.864 12.3424 177.083C13.7719 172.694 15.2502 168.329 17.0286 164.063C17.1362 163.802 17.2438 163.542 17.3546 163.273C17.5648 162.764 17.7755 162.255 17.9866 161.746C18.2754 161.048 18.5612 160.349 18.8459 159.65C19.2191 158.735 19.597 157.821 19.9837 156.911C20.0834 156.676 20.183 156.441 20.2857 156.198C21.2194 154.052 22.2108 151.93 23.2 149.807C23.3295 149.526 23.459 149.244 23.5924 148.955C24.3851 147.258 25.2569 145.645 26.2327 144.042C26.7436 143.195 27.1963 142.337 27.6408 141.455C27.7263 141.286 27.8117 141.118 27.8998 140.944C28.3905 139.969 28.8678 138.989 29.3378 138.004C30.8027 134.938 32.3765 131.954 34.0601 128.997C34.4953 128.231 34.926 127.462 35.3561 126.693C40.2557 117.972 45.9294 109.706 52.1406 101.832C52.9831 100.76 53.7849 99.6789 54.5061 98.5231C54.9898 97.8672 55.5771 97.3366 56.1633 96.7671C56.6267 96.2483 57.0835 95.7278 57.5347 95.1991C57.6594 95.054 57.7841 94.9089 57.9126 94.7593C58.6995 93.8413 59.4744 92.9144 60.2449 91.9831C61.1914 90.8435 62.1766 89.7466 63.1857 88.6601C63.6815 88.125 64.1691 87.5844 64.6531 87.0391C65.7275 85.8319 66.821 84.6423 67.9184 83.4551C68.2106 83.1354 68.2106 83.1354 68.5088 82.8092C71.0528 80.0622 73.7414 77.4535 76.4203 74.8339C77.1208 74.1489 77.8201 73.4627 78.519 72.7762C79.0649 72.2403 79.6115 71.705 80.1582 71.1698C80.4163 70.9171 80.6741 70.6642 80.9317 70.4111C82.2427 69.124 83.5609 67.8619 84.9728 66.6808C85.738 66.0351 86.4656 65.3501 87.2 64.6711C88.5174 63.4619 89.8683 62.3176 91.2776 61.2111C91.9574 60.666 92.6082 60.0991 93.2572 59.5191C94.609 58.3147 96.0162 57.1884 97.4367 56.0631C97.7584 55.8044 98.0798 55.5453 98.401 55.2861C100.639 53.4848 102.915 51.748 105.244 50.0628C105.815 49.6496 106.383 49.234 106.951 48.8181C111.412 45.5622 115.962 42.4252 120.662 39.5073C121.231 39.1531 121.798 38.7958 122.364 38.4381C130.199 33.5151 138.396 29.1226 146.752 25.1101C147.163 24.912 147.573 24.7126 147.983 24.5121C162.339 17.5032 177.667 12.2199 193.198 8.3483C193.621 8.2429 194.044 8.13712 194.466 8.03096C208.09 4.61022 221.964 2.44478 235.951 1.08713C236.216 1.06121 236.482 1.0353 236.755 1.0086C238.641 0.826497 240.528 0.664967 242.416 0.511128C242.698 0.486989 242.979 0.46285 243.269 0.43798C249.591 -0.0923665 255.914 -0.0884269 262.256 -0.0816842Z" fill="#D62829"/>
<path d="M267.085 207.328C267.427 207.327 267.769 207.326 268.122 207.326C268.502 207.326 268.882 207.327 269.262 207.327C269.667 207.327 270.073 207.326 270.478 207.326C271.597 207.325 272.716 207.325 273.835 207.326C275.051 207.326 276.266 207.325 277.482 207.324C279.614 207.323 281.746 207.323 283.878 207.323C287.048 207.323 290.219 207.322 293.389 207.321C299.381 207.318 305.372 207.318 311.364 207.317C315.99 207.317 320.616 207.317 325.242 207.316C326.573 207.316 327.903 207.316 329.234 207.315C329.564 207.315 329.895 207.315 330.236 207.315C339.542 207.314 348.848 207.313 358.154 207.313C358.509 207.313 358.864 207.313 359.218 207.313C360.819 207.313 362.42 207.313 364.021 207.313C364.735 207.313 365.449 207.313 366.163 207.313C366.52 207.313 366.878 207.313 367.235 207.313C378.534 207.313 389.833 207.311 401.132 207.308C403.978 207.307 406.825 207.306 409.672 207.305C409.847 207.305 410.022 207.305 410.203 207.305C419.666 207.302 429.128 207.301 438.591 207.302C439.922 207.302 441.253 207.302 442.584 207.302C442.912 207.302 443.239 207.302 443.577 207.302C448.856 207.302 454.135 207.3 459.415 207.298C464.718 207.296 470.022 207.295 475.326 207.297C478.478 207.298 481.631 207.298 484.784 207.295C486.889 207.294 488.993 207.294 491.098 207.296C492.298 207.297 493.498 207.297 494.698 207.295C495.79 207.293 496.882 207.293 497.974 207.296C498.366 207.296 498.758 207.296 499.151 207.294C504.847 207.276 504.847 207.276 506.776 208.896C509.097 211.431 508.98 216.305 509.372 219.536C509.422 219.948 509.422 219.948 509.474 220.368C511.163 234.153 512.146 247.939 512.103 261.825C512.098 263.278 512.101 264.731 512.105 266.184C512.126 273.91 511.852 281.579 511.217 289.28C511.202 289.456 511.188 289.632 511.173 289.813C511.015 291.719 510.827 293.62 510.613 295.52C510.572 295.893 510.572 295.893 510.53 296.273C508.549 314.232 504.839 331.989 499.114 349.169C498.945 349.679 498.779 350.189 498.614 350.699C495.925 358.997 492.663 367.105 489.013 375.04C488.88 375.329 488.748 375.618 488.612 375.915C485.372 382.948 481.922 389.924 477.948 396.589C477.477 397.383 477.013 398.18 476.549 398.978C470.52 409.341 463.69 419.414 455.837 428.544C455.605 428.817 455.372 429.089 455.14 429.361C453.856 430.862 452.552 432.342 451.204 433.789C450.715 434.321 450.234 434.858 449.755 435.399C448.786 436.486 447.787 437.543 446.776 438.592C446.594 438.781 446.413 438.969 446.226 439.164C442.194 443.338 442.194 443.338 439.974 445.187C438.962 446.054 437.987 446.962 437.009 447.865C435.27 449.46 435.27 449.46 434.678 449.792C433.487 449.617 432.719 448.876 431.821 448.144C431.467 447.861 431.112 447.578 430.758 447.295C430.581 447.154 430.404 447.013 430.223 446.867C429.513 446.304 428.791 445.76 428.066 445.216C425.142 443.025 422.241 440.805 419.349 438.574C417.526 437.168 415.694 435.775 413.862 434.381C412.877 433.63 411.892 432.879 410.907 432.128C410.515 431.83 410.123 431.531 409.731 431.232C408.947 430.635 408.164 430.038 407.38 429.44C407.186 429.292 406.992 429.144 406.792 428.992C406.401 428.694 406.01 428.396 405.619 428.098C404.627 427.341 403.634 426.585 402.641 425.829C400.688 424.342 398.737 422.851 396.794 421.351C395.8 420.585 394.8 419.826 393.796 419.072C392.642 418.205 391.494 417.33 390.351 416.448C388.356 414.908 386.35 413.38 384.344 411.853C383.163 410.954 381.983 410.054 380.803 409.154C379.81 408.398 378.818 407.641 377.825 406.885C375.903 405.421 373.982 403.955 372.07 402.479C370.826 401.52 369.577 400.568 368.327 399.616C366.785 398.442 365.245 397.265 363.712 396.079C362.865 395.425 362.014 394.778 361.158 394.136C359.076 392.573 357.058 390.992 355.153 389.224C354.379 388.514 353.569 387.856 352.739 387.209C352.392 386.816 352.392 386.816 352.392 385.792C352.716 385.422 352.716 385.422 353.165 385.085C353.326 384.963 353.488 384.84 353.654 384.714C353.825 384.589 353.996 384.465 354.172 384.336C354.34 384.209 354.508 384.081 354.681 383.95C355.408 383.406 355.956 383.007 356.833 382.72C356.833 382.551 356.833 382.382 356.833 382.208C357.21 381.883 357.21 381.883 357.764 381.488C363.165 377.475 368.481 372.692 372.849 367.608C373.652 366.691 374.503 365.816 375.344 364.932C375.903 364.342 375.903 364.342 376.159 363.772C376.544 363.038 377.131 362.561 377.731 361.984C383.581 355.424 388.174 347.748 392.098 339.968C392.191 339.787 392.284 339.605 392.379 339.418C396.229 331.842 399.831 322.97 401.502 314.624C401.594 314.355 401.686 314.086 401.78 313.808C402.149 312.338 402.291 310.932 401.715 309.504C400.801 308.516 399.67 308.39 398.368 308.224C397.387 308.188 396.407 308.191 395.426 308.194C395.13 308.194 394.833 308.194 394.527 308.194C393.532 308.194 392.537 308.197 391.542 308.199C391.188 308.2 390.835 308.2 390.481 308.201C384.715 308.207 378.95 308.244 373.185 308.289C350.722 308.463 328.261 308.498 301.563 308.412C298.947 308.403 296.33 308.396 293.714 308.389C290.052 308.379 286.389 308.367 282.727 308.352C280.936 308.345 279.145 308.338 277.354 308.334C275.698 308.329 274.041 308.323 272.385 308.314C271.783 308.311 271.18 308.309 270.578 308.309C269.757 308.307 268.936 308.303 268.115 308.297C267.763 308.298 267.763 308.298 267.405 308.298C265.489 308.28 263.408 308.221 261.731 307.248C259.97 305.3 260.401 302.172 260.396 299.736C260.395 299.368 260.393 298.999 260.391 298.63C260.387 297.62 260.384 296.61 260.381 295.6C260.378 294.509 260.373 293.419 260.369 292.328C260.36 290.192 260.353 288.056 260.347 285.921C260.342 284.184 260.336 282.447 260.33 280.71C260.313 275.782 260.298 270.854 260.284 265.926C260.283 265.66 260.282 265.395 260.281 265.121C260.28 264.855 260.28 264.59 260.279 264.316C260.266 260.009 260.251 255.703 260.235 251.396C260.218 246.971 260.203 242.545 260.19 238.119C260.183 235.636 260.175 233.153 260.165 230.67C260.157 228.555 260.15 226.441 260.145 224.326C260.143 223.248 260.14 222.171 260.134 221.093C260.129 220.104 260.127 219.115 260.126 218.126C260.125 217.603 260.122 217.081 260.118 216.558C260.123 210.747 260.123 210.747 261.404 209.104C262.976 207.613 264.972 207.328 267.085 207.328Z" fill="#5D7FBD"/>
<path d="M27.951 141.057C29.6186 142.066 31.1338 143.228 32.6539 144.435C33.8378 145.372 35.0399 146.279 36.2612 147.169C38.3883 148.719 40.4782 150.314 42.5678 151.913C43.3093 152.479 44.0544 153.04 44.8 153.601C46.1325 154.603 47.4588 155.613 48.7837 156.625C50.8911 158.233 53.0111 159.826 55.1348 161.414C56.4383 162.39 57.7371 163.372 59.0368 164.353C59.6027 164.779 60.1687 165.206 60.7347 165.633C61.0177 165.846 61.3007 166.059 61.5837 166.273C61.7238 166.378 61.8639 166.484 62.0082 166.593C62.4327 166.913 62.8572 167.233 63.2817 167.553C63.4216 167.658 63.5616 167.764 63.7058 167.872C63.9899 168.087 64.274 168.301 64.558 168.515C65.2489 169.036 65.9401 169.556 66.6317 170.077C68.2626 171.304 69.8881 172.538 71.5102 173.777C73.6177 175.385 75.7377 176.978 77.8614 178.566C79.1648 179.542 80.4636 180.524 81.7633 181.505C82.3292 181.931 82.8952 182.358 83.4612 182.785C83.7442 182.998 84.0272 183.211 84.3102 183.425C84.4503 183.53 84.5904 183.636 84.7347 183.745C85.1592 184.065 85.5837 184.385 86.0082 184.705C86.1482 184.81 86.2881 184.916 86.4324 185.024C86.7164 185.239 87.0005 185.453 87.2845 185.667C87.9754 186.188 88.6666 186.708 89.3582 187.229C90.5962 188.16 91.8329 189.093 93.0633 190.035C94.9447 191.474 96.8291 192.907 98.7429 194.305C100.253 195.408 101.747 196.53 103.233 197.665C103.431 197.816 103.629 197.968 103.834 198.124C104.562 198.68 105.29 199.237 106.018 199.795C107.829 201.183 109.671 202.509 111.568 203.781C112.44 204.365 113.299 204.964 114.155 205.569C113.76 207.013 113.355 208.452 112.92 209.886C108.467 224.639 106 239.722 105.992 255.121C105.992 255.412 105.992 255.703 105.991 256.002C106 264.707 106.791 273.259 108.147 281.857C108.196 282.17 108.245 282.484 108.296 282.807C109.373 289.529 110.988 296.233 112.934 302.765C113.551 304.867 113.551 304.867 113.371 305.665C112.794 306.224 112.794 306.224 111.967 306.801C111.655 307.024 111.343 307.248 111.031 307.472C110.861 307.592 110.691 307.712 110.517 307.836C109.536 308.541 108.582 309.281 107.625 310.017C106.278 311.045 104.929 312.07 103.576 313.089C101.638 314.546 99.7115 316.018 97.7843 317.488C96.798 318.241 95.8112 318.993 94.8245 319.745C94.4327 320.043 94.0408 320.342 93.649 320.641C92.8653 321.238 92.0817 321.835 91.298 322.433C91.1039 322.581 90.9099 322.729 90.7099 322.881C90.3191 323.179 89.9284 323.477 89.5376 323.774C88.5415 324.534 87.5456 325.293 86.55 326.053C84.5572 327.573 82.5613 329.089 80.5582 330.597C78.8932 331.852 77.2377 333.119 75.5803 334.384C74.5939 335.137 73.6072 335.889 72.6204 336.641C72.2286 336.939 71.8368 337.238 71.4449 337.537C70.6612 338.134 69.8776 338.731 69.0939 339.329C68.8998 339.477 68.7058 339.624 68.5058 339.777C68.1151 340.075 67.7243 340.373 67.3335 340.67C66.3374 341.43 65.3415 342.189 64.3459 342.949C62.3531 344.469 60.3572 345.985 58.3541 347.493C56.6891 348.748 55.0336 350.015 53.3762 351.28C52.1951 352.181 51.0134 353.082 49.8318 353.982C48.8356 354.741 47.8396 355.501 46.8439 356.261C44.8511 357.781 42.8552 359.297 40.8521 360.805C39.1905 362.057 37.5385 363.322 35.8845 364.584C34.8457 365.377 33.8065 366.169 32.7674 366.961C32.397 367.243 32.0266 367.525 31.6561 367.808C31.479 367.942 31.3018 368.076 31.1193 368.214C30.7187 368.521 30.3231 368.835 29.9308 369.153C29.7223 369.319 29.5138 369.486 29.299 369.658C29.1098 369.812 28.9206 369.966 28.7256 370.125C28.5562 370.226 28.3868 370.328 28.2123 370.433C27.4286 370.177 27.4286 370.177 26.9878 369.425C26.6449 368.641 26.6449 368.641 26.6449 368.129C26.4725 368.044 26.3001 367.96 26.1225 367.873C25.8847 367.474 25.8847 367.474 25.6398 366.955C25.5475 366.761 25.4552 366.567 25.36 366.368C25.2121 366.051 25.2121 366.051 25.0612 365.729C24.8497 365.283 24.6382 364.838 24.4266 364.393C24.264 364.049 24.264 364.049 24.0982 363.698C23.6858 362.828 23.2662 361.962 22.8458 361.096C21.262 357.834 19.7248 354.559 18.2857 351.233C18.1629 350.957 18.04 350.68 17.9135 350.396C17.5178 349.491 17.1668 348.574 16.8245 347.649C16.7333 347.403 16.7333 347.403 16.6402 347.153C16.3835 346.462 16.128 345.77 15.8723 345.079C15.684 344.57 15.4951 344.061 15.3061 343.553C15.1949 343.252 15.0836 342.951 14.9689 342.641C14.7355 342.037 14.4869 341.439 14.226 340.846C13.8852 340.061 13.6 339.287 13.3388 338.475C13.2506 338.202 13.1623 337.929 13.0714 337.649C12.9819 337.369 12.8923 337.089 12.8 336.801C12.6206 336.244 12.441 335.687 12.2612 335.131C12.1744 334.86 12.0875 334.59 11.998 334.312C11.7998 333.706 11.5927 333.104 11.3796 332.503C7.58744 321.419 4.82413 309.509 3.249 297.937C3.17517 297.231 3.17517 297.231 2.87349 296.705C2.79256 296.086 2.72364 295.469 2.66124 294.849C2.39039 292.294 2.0364 289.751 1.67419 287.207C1.42299 285.409 1.22572 283.621 1.10978 281.809C1.0482 281.125 0.923768 280.481 0.783693 279.809C0.750968 279.444 0.726334 279.078 0.710224 278.712C0.700458 278.512 0.690693 278.313 0.680632 278.108C0.66222 277.694 0.643853 277.28 0.62553 276.866C0.615764 276.667 0.605999 276.468 0.595938 276.264C0.588025 276.084 0.580111 275.905 0.571958 275.72C0.537692 275.204 0.537692 275.204 0.393857 274.73C0.134609 273.648 0.157207 272.529 0.116346 271.422C0.099871 270.976 0.099871 270.976 0.0830632 270.521C-0.0654737 265.903 -0.0391279 261.282 -0.0340366 256.662C-0.0325439 255.295 -0.0334112 253.929 -0.0349693 252.562C-0.0359241 251.489 -0.0356095 250.416 -0.0349374 249.343C-0.0347664 248.84 -0.0349653 248.336 -0.0355852 247.833C-0.0399844 243.263 0.0958758 238.698 0.506142 234.145C0.528724 233.887 0.551307 233.629 0.574573 233.363C0.729676 231.642 0.926798 229.932 1.16022 228.219C1.32084 227.006 1.44272 225.789 1.5689 224.572C2.13042 219.195 2.95845 213.878 4.03663 208.578C4.1931 207.806 4.3461 207.033 4.499 206.261C5.02764 203.607 5.58326 200.973 6.27859 198.357C6.563 197.251 6.80889 196.14 7.05308 195.025C7.42171 193.354 7.86462 191.734 8.40308 190.107C8.58677 189.544 8.73787 188.99 8.88165 188.417C9.65758 185.381 10.6029 182.406 11.579 179.428C11.8347 178.647 12.0887 177.866 12.3424 177.084C13.7719 172.696 15.2502 168.33 17.0286 164.065C17.1362 163.804 17.2438 163.543 17.3546 163.275C17.5648 162.765 17.7755 162.256 17.9866 161.747C18.2754 161.05 18.5612 160.351 18.8459 159.652C19.2191 158.736 19.597 157.823 19.9837 156.913C20.0834 156.677 20.183 156.442 20.2857 156.2C21.2194 154.053 22.2108 151.931 23.2 149.809C23.3295 149.527 23.459 149.246 23.5924 148.956C24.384 147.262 25.249 145.644 26.2268 144.045C26.8269 143.063 27.3896 142.061 27.951 141.057Z" fill="#F3C200"/>
</g>
<defs>
<clipPath id="clip0_1027_4425">
<rect width="512" height="512" fill="white"/>
</clipPath>
</defs>
</svg>
