<svg width="710" height="615" viewBox="0 0 710 615" fill="none" xmlns="http://www.w3.org/2000/svg">
<mask id="path-1-inside-1_2025_67" fill="white">
<path d="M558.753 0.298144C567.734 -1.35773 577.057 4.06709 581.146 12.0241C583.698 17.2364 584.566 23.2518 583.606 28.977C583.108 32.3268 581.828 35.4759 580.655 38.6265C577.362 47.4158 573.729 56.0835 570.736 64.9798C575.308 70.7182 578.421 77.4311 581.437 84.0722C591.079 106.136 592.801 131.131 588.442 154.668C587.055 162.361 585.156 169.949 583.307 177.544C588.285 177.345 593.269 177.011 598.261 177.225C600.465 177.339 602.335 175.966 604.256 175.07C607.698 173.236 611.545 172.346 615.356 171.63C633.553 168.267 651.743 164.817 669.96 161.561C678.657 159.996 688.001 163.531 693.647 170.301C700.111 177.946 703.758 188.134 702.755 198.175C702.108 205.514 698.732 212.332 694.35 218.15C681.28 235.294 667.812 252.14 654.735 269.277C664.357 284.011 673.587 298.986 683.08 313.798C686.862 319.578 687.517 326.768 686.969 333.495C697.75 341.857 705.478 354.059 708.359 367.399C709.788 373.699 709.781 380.205 709.681 386.627C708.898 407.546 700.984 428.062 687.949 444.389C691.512 452.104 696.938 458.88 699.803 466.937C703.016 476.536 700.578 487.324 695.074 495.608C688.042 506.836 675.974 514.615 662.954 516.812C598.935 527.962 534.846 538.714 470.791 549.65C400.144 561.66 329.513 573.784 258.888 585.922C203.715 595.344 148.57 604.972 93.3677 614.23C84.9697 616.008 76.003 614.692 68.537 610.441C57.8705 604.403 50.888 592.884 49.4592 580.824C48.3148 572.646 50.4982 564.561 51.521 556.497C56.3348 525.166 61.9384 493.964 66.7594 462.634C54.6716 458.766 43.2226 452.629 33.7724 444.11C16.607 428.957 5.86287 407.432 1.92247 385.047C-2.67148 358.489 1.18393 330.862 11.1807 305.953C20.6676 282.252 34.9095 260.473 52.7226 242.204C77.5607 216.598 110.782 198.216 146.593 194.704C149.288 194.334 152.688 195.06 154.664 192.719C165.416 178.036 178.443 165.144 192.188 153.276C213.819 134.844 237.776 119.2 263.161 106.451C287.203 94.5979 312.296 84.8781 337.959 77.1541C343.832 75.4045 349.763 73.8189 355.73 72.4048C359.691 66.2048 363.445 59.8466 368.202 54.2005C383.427 35.5419 403.963 21.2281 426.739 13.4133C455.075 4.13303 486.399 6.45125 514.053 17.0034C515.447 17.7933 516.927 16.9536 518.236 16.3982C526.108 12.7861 534.17 9.60765 542.128 6.17281C547.54 3.89708 552.922 1.30925 558.753 0.299611V0.298144ZM560.139 16.6312C544.886 22.711 529.648 28.848 514.267 34.6143C513.208 35.3177 512.126 34.5703 511.124 34.2435C493.852 27.7021 475.178 24.4739 456.712 25.9524C443.159 27.0969 429.762 30.7384 417.68 37.038C399.625 46.4164 384.473 61.0233 373.75 78.259C371.332 82.091 369.582 86.2937 367.314 90.2121C349.395 92.054 331.994 97.2092 315.184 103.516C276.474 117.489 239.696 137.258 207.646 163.176C199.234 170.159 190.702 177.106 183.392 185.269C187.509 183.562 191.264 181.139 195.224 179.125C219.066 166.247 244.04 155.474 269.746 146.899C296 138.196 323.254 132.201 350.888 130.423C350.931 135.771 350.931 141.118 350.945 146.466C315.406 150.974 280.903 163.462 250.683 182.696C240.55 189.452 230.574 196.584 221.919 205.187C234.69 201.39 247.418 197.344 260.453 194.515C278.181 190.404 296.242 187.809 314.389 186.5C330.231 185.554 346.224 185.149 361.996 187.246C367.024 187.794 371.254 190.794 375.499 193.289C380.697 196.313 383.676 201.724 387.893 205.827C394.385 212.902 402.2 218.563 410.3 223.653C400.865 225.979 391.129 226.861 381.693 229.178C379.602 229.732 377.725 230.806 375.82 231.78C374.22 232.768 372.3 232.05 370.573 231.987C366.804 231.354 363.064 232.271 359.352 232.805C350.79 234.169 342.272 235.777 333.718 237.15C329.204 237.953 324.381 238.458 320.549 241.209C316.354 244.424 313.288 248.804 310.004 252.877C307.778 250.609 305.624 248.141 302.751 246.677C298.057 244.175 292.476 243.94 287.348 244.978C277.649 246.912 267.872 248.475 258.151 250.304C254.204 250.98 251.48 254.188 249.02 257.067C245.166 248.689 240.45 240.563 233.881 234.006C224.551 224.037 212.299 217.111 199.301 213.15C187.114 209.388 174.229 208.307 161.521 208.89C145.258 209.665 129.167 213.427 114.12 219.627C91.4583 229.298 71.5688 244.92 55.8395 263.799C40.2669 282.55 28.4985 304.573 22.297 328.18C18.6702 342.324 16.6656 357 17.6679 371.62C18.7919 387.277 23.1924 402.9 31.6842 416.198C43.5948 435.019 63.9181 447.913 85.7697 451.688C85.3213 456.452 84.319 461.138 83.5863 465.867C78.0047 499.16 72.4861 532.467 66.6627 565.725C65.6956 572.039 65.2486 578.652 67.1609 584.845C69.5085 593.228 77.8421 600.801 87.0007 598.867C192.44 580.884 297.809 562.453 403.271 544.569C468.265 533.462 533.307 522.611 598.279 511.39C605.405 510.274 611.725 506.697 617.649 502.765C621.86 505.111 626.716 506.938 631.609 505.958C640.59 504.515 649.535 502.794 658.509 501.307C666.345 500.105 673.612 495.938 678.789 489.972C682.7 485.393 685.395 479.398 684.692 473.276C684.457 470.048 682.538 467.338 681.087 464.566C676.755 456.644 672.22 448.851 667.839 440.964C682.174 430.276 690.089 412.861 692.592 395.504C694.533 381.133 693.836 365.199 684.827 353.144C681.235 347.79 675.633 344.312 669.752 341.966C672.447 335.63 672.951 328.051 669.191 322.027C658.22 304.406 646.913 286.991 635.89 269.4C651.755 248.764 667.846 228.299 683.811 207.741C689.088 200.786 688.717 190.284 683.27 183.536C680.489 180.13 675.995 177.726 671.537 178.63C653.035 182.107 634.44 185.114 615.988 188.868C608.976 190.426 604.823 197.025 602.178 203.184C599.077 197.146 592.237 193.029 585.404 193.826C573.279 195.441 561.298 197.907 549.209 199.721C555.581 191.679 561.005 182.847 564.924 173.354C575.598 146.71 575.839 115.756 564.134 89.3973C561.112 81.9942 556.581 75.381 552.38 68.6271C557.336 55.764 562.982 43.1779 568.366 30.4922C569.653 27.4281 570.527 23.8716 569.311 20.6434C568.025 17.0386 563.665 15.2464 560.145 16.6253L560.139 16.6312Z"/>
</mask>
<path d="M558.753 0.298144C567.734 -1.35773 577.057 4.06709 581.146 12.0241C583.698 17.2364 584.566 23.2518 583.606 28.977C583.108 32.3268 581.828 35.4759 580.655 38.6265C577.362 47.4158 573.729 56.0835 570.736 64.9798C575.308 70.7182 578.421 77.4311 581.437 84.0722C591.079 106.136 592.801 131.131 588.442 154.668C587.055 162.361 585.156 169.949 583.307 177.544C588.285 177.345 593.269 177.011 598.261 177.225C600.465 177.339 602.335 175.966 604.256 175.07C607.698 173.236 611.545 172.346 615.356 171.63C633.553 168.267 651.743 164.817 669.96 161.561C678.657 159.996 688.001 163.531 693.647 170.301C700.111 177.946 703.758 188.134 702.755 198.175C702.108 205.514 698.732 212.332 694.35 218.15C681.28 235.294 667.812 252.14 654.735 269.277C664.357 284.011 673.587 298.986 683.08 313.798C686.862 319.578 687.517 326.768 686.969 333.495C697.75 341.857 705.478 354.059 708.359 367.399C709.788 373.699 709.781 380.205 709.681 386.627C708.898 407.546 700.984 428.062 687.949 444.389C691.512 452.104 696.938 458.88 699.803 466.937C703.016 476.536 700.578 487.324 695.074 495.608C688.042 506.836 675.974 514.615 662.954 516.812C598.935 527.962 534.846 538.714 470.791 549.65C400.144 561.66 329.513 573.784 258.888 585.922C203.715 595.344 148.57 604.972 93.3677 614.23C84.9697 616.008 76.003 614.692 68.537 610.441C57.8705 604.403 50.888 592.884 49.4592 580.824C48.3148 572.646 50.4982 564.561 51.521 556.497C56.3348 525.166 61.9384 493.964 66.7594 462.634C54.6716 458.766 43.2226 452.629 33.7724 444.11C16.607 428.957 5.86287 407.432 1.92247 385.047C-2.67148 358.489 1.18393 330.862 11.1807 305.953C20.6676 282.252 34.9095 260.473 52.7226 242.204C77.5607 216.598 110.782 198.216 146.593 194.704C149.288 194.334 152.688 195.06 154.664 192.719C165.416 178.036 178.443 165.144 192.188 153.276C213.819 134.844 237.776 119.2 263.161 106.451C287.203 94.5979 312.296 84.8781 337.959 77.1541C343.832 75.4045 349.763 73.8189 355.73 72.4048C359.691 66.2048 363.445 59.8466 368.202 54.2005C383.427 35.5419 403.963 21.2281 426.739 13.4133C455.075 4.13303 486.399 6.45125 514.053 17.0034C515.447 17.7933 516.927 16.9536 518.236 16.3982C526.108 12.7861 534.17 9.60765 542.128 6.17281C547.54 3.89708 552.922 1.30925 558.753 0.299611V0.298144ZM560.139 16.6312C544.886 22.711 529.648 28.848 514.267 34.6143C513.208 35.3177 512.126 34.5703 511.124 34.2435C493.852 27.7021 475.178 24.4739 456.712 25.9524C443.159 27.0969 429.762 30.7384 417.68 37.038C399.625 46.4164 384.473 61.0233 373.75 78.259C371.332 82.091 369.582 86.2937 367.314 90.2121C349.395 92.054 331.994 97.2092 315.184 103.516C276.474 117.489 239.696 137.258 207.646 163.176C199.234 170.159 190.702 177.106 183.392 185.269C187.509 183.562 191.264 181.139 195.224 179.125C219.066 166.247 244.04 155.474 269.746 146.899C296 138.196 323.254 132.201 350.888 130.423C350.931 135.771 350.931 141.118 350.945 146.466C315.406 150.974 280.903 163.462 250.683 182.696C240.55 189.452 230.574 196.584 221.919 205.187C234.69 201.39 247.418 197.344 260.453 194.515C278.181 190.404 296.242 187.809 314.389 186.5C330.231 185.554 346.224 185.149 361.996 187.246C367.024 187.794 371.254 190.794 375.499 193.289C380.697 196.313 383.676 201.724 387.893 205.827C394.385 212.902 402.2 218.563 410.3 223.653C400.865 225.979 391.129 226.861 381.693 229.178C379.602 229.732 377.725 230.806 375.82 231.78C374.22 232.768 372.3 232.05 370.573 231.987C366.804 231.354 363.064 232.271 359.352 232.805C350.79 234.169 342.272 235.777 333.718 237.15C329.204 237.953 324.381 238.458 320.549 241.209C316.354 244.424 313.288 248.804 310.004 252.877C307.778 250.609 305.624 248.141 302.751 246.677C298.057 244.175 292.476 243.94 287.348 244.978C277.649 246.912 267.872 248.475 258.151 250.304C254.204 250.98 251.48 254.188 249.02 257.067C245.166 248.689 240.45 240.563 233.881 234.006C224.551 224.037 212.299 217.111 199.301 213.15C187.114 209.388 174.229 208.307 161.521 208.89C145.258 209.665 129.167 213.427 114.12 219.627C91.4583 229.298 71.5688 244.92 55.8395 263.799C40.2669 282.55 28.4985 304.573 22.297 328.18C18.6702 342.324 16.6656 357 17.6679 371.62C18.7919 387.277 23.1924 402.9 31.6842 416.198C43.5948 435.019 63.9181 447.913 85.7697 451.688C85.3213 456.452 84.319 461.138 83.5863 465.867C78.0047 499.16 72.4861 532.467 66.6627 565.725C65.6956 572.039 65.2486 578.652 67.1609 584.845C69.5085 593.228 77.8421 600.801 87.0007 598.867C192.44 580.884 297.809 562.453 403.271 544.569C468.265 533.462 533.307 522.611 598.279 511.39C605.405 510.274 611.725 506.697 617.649 502.765C621.86 505.111 626.716 506.938 631.609 505.958C640.59 504.515 649.535 502.794 658.509 501.307C666.345 500.105 673.612 495.938 678.789 489.972C682.7 485.393 685.395 479.398 684.692 473.276C684.457 470.048 682.538 467.338 681.087 464.566C676.755 456.644 672.22 448.851 667.839 440.964C682.174 430.276 690.089 412.861 692.592 395.504C694.533 381.133 693.836 365.199 684.827 353.144C681.235 347.79 675.633 344.312 669.752 341.966C672.447 335.63 672.951 328.051 669.191 322.027C658.22 304.406 646.913 286.991 635.89 269.4C651.755 248.764 667.846 228.299 683.811 207.741C689.088 200.786 688.717 190.284 683.27 183.536C680.489 180.13 675.995 177.726 671.537 178.63C653.035 182.107 634.44 185.114 615.988 188.868C608.976 190.426 604.823 197.025 602.178 203.184C599.077 197.146 592.237 193.029 585.404 193.826C573.279 195.441 561.298 197.907 549.209 199.721C555.581 191.679 561.005 182.847 564.924 173.354C575.598 146.71 575.839 115.756 564.134 89.3973C561.112 81.9942 556.581 75.381 552.38 68.6271C557.336 55.764 562.982 43.1779 568.366 30.4922C569.653 27.4281 570.527 23.8716 569.311 20.6434C568.025 17.0386 563.665 15.2464 560.145 16.6253L560.139 16.6312Z" fill="#CCCCCC" stroke="#CCCCCC" stroke-width="32.2068" mask="url(#path-1-inside-1_2025_67)"/>
<path d="M443.874 53.8809C457.527 50.2043 472.047 50.3831 485.814 53.3622C485.672 54.8407 485.423 56.3208 484.919 57.7217C480.303 71.7292 475.86 85.8158 470.775 99.6607C466.537 99.8453 462.2 99.6461 458.089 100.848C454.101 101.879 450.481 103.906 447.026 106.082C437.177 97.9462 427.3 89.8412 417.835 81.2571C415.111 78.889 412.246 76.6499 409.928 73.854C419.521 64.7526 431.055 57.4286 443.875 53.8795L443.874 53.8809Z" fill="#00FF57"/>
<path d="M494.602 56.5234C499.765 57.5682 504.429 60.2074 509.038 62.6604C517.635 67.3746 525.081 74.0376 530.869 81.9389C538.128 91.6104 543.327 102.866 545.666 114.741C531.046 117.287 516.413 119.705 501.791 122.243C500.234 122.499 498.663 122.599 497.099 122.684C495.186 118.304 493.081 113.894 489.704 110.439C487.051 107.403 483.509 105.397 480.431 102.851C485.337 87.4707 489.874 71.9685 494.602 56.5234Z" fill="#00FF57"/>
<path d="M389.12 158.468C379.483 132.69 384.838 101.837 403.269 81.2587C412.378 88.8097 420.606 97.3573 429.409 105.264C432.736 108.271 436.114 111.23 439.335 114.366C437.834 117.936 435.73 121.271 434.82 125.075C433.683 129.213 433.931 133.551 434.102 137.796C420.187 144.658 406.185 151.349 392.119 157.905C391.159 158.119 390.035 159.256 389.118 158.466L389.12 158.468Z" fill="#00FF57"/>
<path d="M536.261 125.959C539.945 125.261 543.607 124.281 547.376 124.174C547.296 131.513 547.916 138.936 546.537 146.203C543.152 165.858 531.882 183.662 516.714 196.405C508.465 185.355 500.623 174.007 492.821 162.628C491.2 160.246 489.479 157.935 488.1 155.404C493.347 149.402 496.682 141.858 497.956 134.007C510.691 131.14 523.449 128.418 536.262 125.957L536.261 125.959Z" fill="#00FF57"/>
<path d="M392.929 167.293C407.762 160.431 423.059 154.635 438.19 148.47C443.31 155.873 451.103 161.555 459.957 163.496C466.249 164.691 472.862 163.98 478.807 161.604C486.373 170.372 493.051 179.851 500.161 188.975C503.29 193.091 506.475 197.166 509.419 201.426C496.222 210.193 480.307 214.617 464.5 214.411C434.322 213.814 405.572 194.614 392.929 167.293Z" fill="#00FF57"/>
<path d="M622.348 206.838C636.243 204.612 650.06 201.917 663.968 199.763C654.866 211.362 645.765 222.951 636.819 234.655C634.927 236.604 633.157 238.659 631.721 240.977C624.439 251.138 616.361 260.695 609.144 270.9C618.153 284.872 627.625 298.56 636.826 312.412C641.121 318.806 645.75 324.991 649.689 331.626C635.326 333.603 621.082 336.313 606.746 338.474C595.419 322.689 584.823 306.39 573.447 290.632C571.954 303.261 569.935 315.812 568.043 328.383C567.083 334.022 566.67 339.761 565.306 345.322C553.593 347.107 541.961 349.41 530.213 350.975C536.492 306.987 543.019 263.035 549.455 219.068C561.395 217.098 573.333 215.094 585.279 213.16C582.903 230.51 579.932 247.775 577.484 265.119C586.643 253.301 595.17 241.013 604.222 229.109C608.218 223.627 612.129 218.058 616.531 212.881C618.088 210.605 619.255 207.342 622.347 206.836L622.348 206.838Z" fill="#00FF57"/>
<path d="M484.448 229.438C500.198 225.258 517.94 226.402 532.012 235.092C525.598 245.487 519.703 256.19 513.269 266.571C506.82 262.582 499.083 260.413 491.495 261.501C480.594 262.929 470.902 269.956 465.228 279.242C459.916 287.661 456.623 297.651 457.385 307.685C457.947 314.944 462.064 322.362 468.997 325.249C476.286 328.171 484.549 326.912 491.666 324.09C497.582 321.892 502.717 318.152 507.936 314.682C512.211 322.333 516.135 330.162 520.408 337.813C521.098 338.645 520.729 339.69 519.967 340.33C510.644 349.489 499.055 356.366 486.461 359.899C475.653 362.765 464.062 363.938 453.125 361.03C442.858 358.363 433.073 352.341 427.534 343.09C421.163 332.793 419.655 320.271 420.565 308.396C423.324 272.485 449.718 239.393 484.449 229.437L484.448 229.438Z" fill="#00FF57"/>
<path d="M122.396 239.317C136.547 233.265 151.841 229.747 167.258 229.575C179.795 229.418 192.53 231.971 203.608 237.973C216.274 244.906 226.023 256.639 231.128 270.087C235.501 281.357 236.796 293.631 235.8 305.634C233.943 331.461 223.448 356.192 208.04 376.822C214.845 386.008 222.318 394.677 229.144 403.843C214.631 405.962 200.267 409.021 185.712 410.905C184.318 409.048 182.875 407.236 181.267 405.573C168.993 414.27 156.18 422.341 142.321 428.284C146.501 422.838 151.459 418.044 155.597 412.57C145.008 417.134 134.022 420.911 122.588 422.646C108.117 424.999 92.9007 425.937 78.7994 421.138C64.8329 416.509 53.4001 405.615 47.0067 392.481C40.4726 379.04 38.9075 363.654 40.2366 348.912C42.4977 323.334 53.8822 299.186 69.9896 279.432C83.9194 262.131 101.917 248.03 122.396 239.318V239.317ZM116.885 283.617C97.1151 298.386 84.765 322.292 83.3216 346.839C82.9801 357.335 85.7321 368.421 92.9359 376.334C99.2795 383.466 108.835 387.121 118.25 387.449C131.248 387.748 144.404 384.377 155.383 377.345C145.868 364.111 135.822 351.276 126.15 338.164C141.268 335.646 156.407 333.25 171.474 330.469C176.225 335.375 179.887 341.185 184.509 346.198C190.731 333.683 193.782 319.561 193.014 305.596C192.104 295.378 188.662 284.733 180.797 277.735C173.558 271.099 163.368 268.69 153.761 269.167C140.314 269.855 127.536 275.595 116.885 283.615V283.617Z" fill="#00FF57"/>
<path d="M385.311 248.126C396.461 245.801 407.753 244.222 418.973 242.273C417.039 257.946 414.237 273.496 411.976 289.127C407.589 317.066 403.386 345.033 398.799 372.944C387.621 374.921 376.449 376.96 365.207 378.568C366.927 364.566 369.452 350.694 371.543 336.749C374.687 316.597 377.765 296.438 380.838 276.279C382.389 266.899 383.491 257.456 385.311 248.128V248.126Z" fill="#00FF57"/>
<path d="M331.403 257.457C342.765 255.281 354.199 253.511 365.599 251.52C362.022 276.393 358.011 301.203 354.484 326.091C352.45 339.53 350.517 353.617 342.844 365.201C334.873 377.218 321.519 384.315 308.128 388.652C296.858 392.058 285.068 394.177 273.257 393.808C266.032 393.601 258.53 391.788 252.878 387.067C248.419 383.44 245.262 378.135 244.743 372.362C243.492 363.51 245.653 354.728 246.884 346.01C249.686 327.756 252.431 309.496 255.14 291.234C256.392 284.053 256.883 276.742 258.525 269.639C270.201 267.79 281.813 265.551 293.496 263.723C288.932 291.378 284.694 319.082 280.334 346.765C279.58 351.565 279.851 357.132 283.356 360.851C286.108 363.596 290.331 363.19 293.888 363.02C301.418 362.501 309.51 359.685 313.89 353.164C318.669 346.089 319.486 337.357 320.666 329.136C324.4 305.265 327.678 281.33 331.404 257.459L331.403 257.457Z" fill="#00FF57"/>
<path d="M638.037 353.909C643.925 352.942 650.117 353.177 655.758 355.268C662.428 357.699 667.796 363.239 670.285 369.858C672.938 376.472 673.087 383.76 672.382 390.758C671.102 402.1 666.673 413.25 658.986 421.768C654.2 427.115 648.284 431.445 641.721 434.339C648.456 447.808 655.935 460.877 662.627 474.366C651.272 476.415 639.943 478.646 628.538 480.424C622.466 467.838 616.236 455.322 610.476 442.588C607.752 442.68 605.092 443.278 602.419 443.697C600.201 457.848 597.761 471.97 595.984 486.184C585.581 488.338 575.049 489.739 564.597 491.631C569.816 459.305 575.248 427.015 579.459 394.54C580.859 384.008 582.622 373.535 584.01 363.003C590.544 361.375 597.299 360.77 603.927 359.526C615.297 357.656 626.669 355.757 638.038 353.909H638.037ZM611.983 383.604C609.784 395.415 608.278 407.34 606.521 419.222C613.668 418.099 621.077 417.622 627.782 414.665C637.446 410.619 643.589 399.12 640.767 388.888C639.92 385.276 636.756 382.437 633.137 381.806C626.012 380.831 619.022 382.993 611.983 383.605V383.604Z" fill="#F3FFDD"/>
<path d="M494.585 377.738C519.423 373.742 544.154 369.091 569.014 365.266C567.6 375.073 566.397 384.921 564.527 394.656C550.121 397.166 535.678 399.477 521.257 401.917C520.305 408.949 518.982 415.933 518.099 422.979C531.291 420.718 544.517 418.663 557.7 416.352C555.993 425.767 554.721 435.253 553.05 444.682C539.796 446.973 526.462 448.856 513.256 451.458C512.673 458.321 510.988 465.033 510.355 471.887C525.053 469.504 539.708 466.889 554.427 464.683C553.084 474.46 551.81 484.253 549.968 493.953C524.739 498.39 499.417 502.308 474.23 507.008C480.921 463.901 487.727 420.816 494.582 377.74L494.585 377.738Z" fill="#F3FFDD"/>
<path d="M394.754 394.659C423.588 389.375 452.559 384.832 481.463 379.954C480.105 389.916 478.534 399.851 476.864 409.77C470.365 410.66 463.907 411.811 457.437 412.856C454.672 413.318 451.848 413.567 449.181 414.484C446.145 435.533 442.476 456.48 439.133 477.479C437.178 489.319 435.429 501.193 433.182 512.976C422.686 515.038 412.126 516.745 401.581 518.466C407.192 485.685 412.305 452.818 417.36 419.944C408.244 421.273 399.163 422.831 390.112 424.496C391.533 414.534 392.928 404.556 394.756 394.659H394.754Z" fill="#F3FFDD"/>
<path d="M300.556 410.495C328.515 405.958 356.404 401.03 384.321 396.244C382.658 406.313 381.178 416.411 379.635 426.494C371.023 428.052 362.384 429.46 353.743 430.839C348.573 463.479 343.141 496.075 337.794 528.678C327.312 530.512 316.839 532.439 306.293 533.861C311.306 501.385 316.625 468.953 321.808 436.506C313.154 437.884 304.529 439.42 295.903 440.943C296.544 434.307 297.808 427.759 298.712 421.153C299.303 417.598 299.537 413.964 300.554 410.494L300.556 410.495Z" fill="#F3FFDD"/>
<path d="M243.021 419.148C251.918 417.904 261.183 419.218 269.303 423.079C279.513 428.078 286.824 438.098 289.305 449.106C292.526 462.083 290.379 475.694 286.738 488.343C280.778 508.758 267.865 527.289 249.947 538.944C237.929 546.93 223.722 552.028 209.187 552.006C198.613 552.205 187.926 548.074 180.523 540.465C173.867 533.51 170.29 524.06 169.253 514.595C166.885 486.962 178.227 458.711 198.521 439.909C210.688 428.582 226.36 420.702 243.02 419.145L243.021 419.148ZM235.278 449.091C226.646 450.769 219.229 456.273 213.689 462.936C205.846 472.656 201.424 485.101 201.302 497.595C201.267 503.476 202.013 509.747 205.597 514.633C208.512 518.779 213.405 521.296 218.44 521.545C225.317 521.894 232.177 519.356 237.567 515.152C247.159 507.693 253.581 496.643 256.305 484.881C257.656 478.78 258.666 472.445 257.586 466.223C256.903 461.409 255.133 456.538 251.498 453.161C247.318 449.008 240.904 447.828 235.278 449.093V449.091Z" fill="#F3FFDD"/>
<path d="M107.627 442.979C118.187 441.307 128.739 439.537 139.263 437.667C134.3 470.334 128.888 502.93 123.548 535.541C136.596 533.578 149.603 531.345 162.63 529.24C161.301 539.003 159.586 548.716 158.136 558.465C134.407 562.738 110.621 566.656 86.835 570.603C93.9743 528.094 101.043 485.571 107.627 442.977V442.979Z" fill="#F3FFDD"/>
</svg>
