<svg width="18" height="18" viewBox="0 0 18 18" fill="none" xmlns="http://www.w3.org/2000/svg">
<rect x="0.402996" y="0.402996" width="16.9258" height="16.9258" rx="8.46291" stroke="#231F20" stroke-width="0.805991"/>
<path d="M8.23495 14.8057V6.58455H9.49809V14.8057H8.23495ZM8.87722 5.21437C8.63102 5.21437 8.41871 5.13051 8.2403 4.96281C8.06546 4.7951 7.97804 4.5935 7.97804 4.358C7.97804 4.1225 8.06546 3.9209 8.2403 3.75319C8.41871 3.58549 8.63102 3.50163 8.87722 3.50163C9.12343 3.50163 9.33395 3.58549 9.50879 3.75319C9.6872 3.9209 9.77641 4.1225 9.77641 4.358C9.77641 4.5935 9.6872 4.7951 9.50879 4.96281C9.33395 5.13051 9.12343 5.21437 8.87722 5.21437Z" fill="#231F20"/>
<a href="https://mmpb.app/gameinfo.aspx">
<rect fill="black" fill-opacity="0" x="0.211667" y="-1.06038" width="3.57533" height="18.2406"/>
</a>
</svg>
