<svg width="62" height="42" viewBox="0 0 62 42" fill="none" xmlns="http://www.w3.org/2000/svg">
<g filter="url(#filter0_dd_656_5789)">
<rect x="9.31641" y="5" width="43.3166" height="27.9059" rx="4.99807" fill="#000008"/>
<rect x="9.21228" y="4.89587" width="43.5249" height="28.1142" rx="5.1022" stroke="#D6DCE5" stroke-width="0.208253"/>
<path d="M34.0855 13.4314H27.7078V24.8924H34.0855V13.4314Z" fill="#FF5F00"/>
<path d="M28.1128 19.1619C28.1118 18.0581 28.3619 16.9686 28.8442 15.9758C29.3265 14.9829 30.0284 14.1129 30.8967 13.4314C29.8214 12.5862 28.5301 12.0606 27.1702 11.9147C25.8104 11.7687 24.4369 12.0083 23.2068 12.606C21.9766 13.2038 20.9395 14.1356 20.2139 15.2949C19.4883 16.4542 19.1035 17.7942 19.1035 19.1619C19.1035 20.5296 19.4883 21.8696 20.2139 23.0289C20.9395 24.1883 21.9766 25.12 23.2068 25.7178C24.4369 26.3155 25.8104 26.5551 27.1702 26.4091C28.5301 26.2632 29.8214 25.7376 30.8967 24.8924C30.0284 24.2109 29.3265 23.3409 28.8442 22.348C28.3619 21.3552 28.1118 20.2657 28.1128 19.1619Z" fill="#EB001B"/>
<path d="M42.6895 19.1619C42.6895 20.5295 42.3048 21.8696 41.5792 23.0289C40.8537 24.1882 39.8166 25.12 38.5865 25.7178C37.3564 26.3155 35.9829 26.5551 34.6231 26.4091C33.2632 26.2632 31.9719 25.7376 30.8967 24.8924C31.7642 24.2102 32.4655 23.34 32.9478 22.3474C33.43 21.3547 33.6806 20.2655 33.6806 19.1619C33.6806 18.0583 33.43 16.9691 32.9478 15.9764C32.4655 14.9838 31.7642 14.1136 30.8967 13.4314C31.9719 12.5862 33.2632 12.0606 34.6231 11.9147C35.9829 11.7687 37.3564 12.0083 38.5865 12.6061C39.8166 13.2038 40.8537 14.1356 41.5792 15.2949C42.3048 16.4542 42.6895 17.7943 42.6895 19.1619Z" fill="#F79E1B"/>
<path d="M41.9941 23.6785V23.4439H42.0887V23.3961H41.8477V23.4439H41.9424V23.6785H41.9941ZM42.4619 23.6785V23.3956H42.388L42.3031 23.5902L42.2181 23.3956H42.1442V23.6785H42.1964V23.4651L42.276 23.6491H42.3301L42.4098 23.4646V23.6785H42.4619Z" fill="#F79E1B"/>
</g>
<defs>
<filter id="filter0_dd_656_5789" x="0.778275" y="0.625954" width="60.3927" height="44.9825" filterUnits="userSpaceOnUse" color-interpolation-filters="sRGB">
<feFlood flood-opacity="0" result="BackgroundImageFix"/>
<feColorMatrix in="SourceAlpha" type="matrix" values="0 0 0 0 0 0 0 0 0 0 0 0 0 0 0 0 0 0 127 0" result="hardAlpha"/>
<feOffset dy="0.416506"/>
<feGaussianBlur stdDeviation="2.08253"/>
<feColorMatrix type="matrix" values="0 0 0 0 0.717647 0 0 0 0 0.717647 0 0 0 0 0.717647 0 0 0 0.08 0"/>
<feBlend mode="normal" in2="BackgroundImageFix" result="effect1_dropShadow_656_5789"/>
<feColorMatrix in="SourceAlpha" type="matrix" values="0 0 0 0 0 0 0 0 0 0 0 0 0 0 0 0 0 0 127 0" result="hardAlpha"/>
<feOffset dy="4.16506"/>
<feGaussianBlur stdDeviation="4.16506"/>
<feColorMatrix type="matrix" values="0 0 0 0 0.717647 0 0 0 0 0.717647 0 0 0 0 0.717647 0 0 0 0.08 0"/>
<feBlend mode="normal" in2="effect1_dropShadow_656_5789" result="effect2_dropShadow_656_5789"/>
<feBlend mode="normal" in="SourceGraphic" in2="effect2_dropShadow_656_5789" result="shape"/>
</filter>
</defs>
</svg>
