<svg width="164" height="213" viewBox="0 0 164 213" fill="none" xmlns="http://www.w3.org/2000/svg">
<path d="M95.3732 153.094L81.8266 0H0V139.781L95.3732 153.094Z" fill="white"/>
<path d="M164 139.781V46.5938L130.667 33.2812L117.333 0H81.8271L82.0404 153.094L164 139.781Z" fill="#E8E6E6"/>
<path d="M117.333 46.5938V0L164 46.5938H117.333Z" fill="white"/>
<path d="M164 139.781H0V213H164V139.781Z" fill="#FC0F1A"/>
<path d="M51.3759 160.554C59.49 160.554 64.1583 164.536 64.1583 171.596C64.1583 179.019 59.4894 183.318 51.3759 183.318H45.6193V192.234H37.5508V160.554H51.3759ZM45.6193 176.982H50.968C54.5043 176.982 56.5431 175.217 56.5431 171.868C56.5431 168.564 54.5031 166.89 50.968 166.89H45.6193V176.982Z" fill="white"/>
<path d="M83.1546 160.554C93.1267 160.554 100.016 166.98 100.016 176.394C100.016 185.762 93.0356 192.234 82.8366 192.234H69.5098V160.554H83.1546ZM77.5789 185.807H83.3355C88.2763 185.807 91.8114 182.005 91.8114 176.439C91.8114 170.827 88.0948 166.98 82.9725 166.98H77.5783V185.807H77.5789Z" fill="white"/>
<path d="M113.483 166.89V174.221H127.716V180.558H113.483V192.234H105.414V160.554H128.939V166.89H113.483V166.89Z" fill="white"/>
</svg>
