<svg width="280" height="200" fill="none" xmlns="http://www.w3.org/2000/svg"><rect width="14.286" height="116.79" rx="7.143" transform="scale(1 -1) rotate(-83 -17.763 -65.562)" fill="#D9E2FC"/><rect width="14.286" height="132.214" rx="7.143" transform="scale(1 -1) rotate(-83 -.757 -95.001)" fill="#D9E2FC"/><rect x="174.559" y="103.024" width="14.286" height="112.301" rx="7.143" transform="rotate(83 174.559 103.024)" fill="#D9E2FC"/><rect x="218.091" y="112.072" width="14.286" height="116.79" rx="7.143" transform="rotate(83 218.091 112.072)" fill="#D9E2FC"/><rect x="175.769" y="131.662" width="14.286" height="116.79" rx="7.143" transform="rotate(83 175.769 131.662)" fill="#D9E2FC"/><rect width="14.286" height="122.876" rx="7.143" transform="scale(-1 1) rotate(-83 -69.943 143.159)" fill="#D9E2FC"/><rect width="14.286" height="113.885" rx="7.143" transform="scale(1 -1) rotate(-83 -15.62 -96.245)" fill="#D9E2FC"/><path d="M94.498 91.265c-.464-3.779-3.79-6.505-7.529-6.26.134-.025.27-.045.406-.062l18.153-2.229c3.904-.48 7.458 2.306 7.938 6.222l-18.968 2.329ZM176.183 110.021c-.464-3.778 2.103-7.228 5.791-7.895a6.343 6.343 0 0 0-.409.038l-18.153 2.229c-3.903.479-6.678 4.042-6.197 7.957l18.968-2.329ZM176.663 138.748c-.464-3.778 2.103-7.228 5.791-7.895a6.343 6.343 0 0 0-.409.038l-18.153 2.229c-3.903.479-6.678 4.042-6.197 7.957l18.968-2.329ZM193.512 50.321c.464 3.779 3.79 6.505 7.53 6.26-.134.025-.27.045-.406.062l-18.154 2.23c-3.903.479-7.457-2.307-7.938-6.223l18.968-2.329ZM168.355 67.803c-.463-3.778 2.104-7.228 5.791-7.895a7.113 7.113 0 0 0-.408.038l-18.154 2.229c-3.903.48-6.677 4.042-6.197 7.957l18.968-2.329ZM168.355 67.803c.464 3.779 3.79 6.505 7.53 6.26-.134.025-.27.045-.406.062l-18.154 2.23c-3.903.478-7.457-2.307-7.938-6.223l18.968-2.329ZM101.237 133.616c.464 3.779-2.103 7.229-5.79 7.896.135-.009.271-.021.408-.038l18.153-2.229c3.903-.479 6.678-4.042 6.197-7.958l-18.968 2.329Z" fill="#D9E2FC"/><path d="M101.237 133.616c-.464-3.778-3.79-6.504-7.529-6.26.134-.024.27-.045.406-.061l18.153-2.229c3.903-.48 7.457 2.306 7.938 6.221l-18.968 2.329ZM94.498 91.265c.464 3.778-2.103 7.228-5.79 7.895.135-.008.271-.021.408-.038l18.153-2.229c3.904-.48 6.678-4.042 6.197-7.957l-18.968 2.329ZM176.183 110.021c.464 3.779 3.789 6.505 7.529 6.261a7.627 7.627 0 0 1-.406.061l-18.153 2.229c-3.904.479-7.457-2.306-7.938-6.222l18.968-2.329ZM82.683 107.108c.464 3.779-2.103 7.228-5.79 7.896.135-.009.271-.021.408-.038l18.153-2.229c3.904-.479 6.678-4.042 6.197-7.958l-18.968 2.329ZM195.717 93.23c-.464-3.779 2.103-7.229 5.791-7.896a7.24 7.24 0 0 0-.409.038l-18.153 2.23c-3.903.478-6.678 4.041-6.197 7.957l18.968-2.33Z" fill="#D9E2FC"/><path d="M32.023 114.932H14.847M43.921 114.932h-5.226M35.365 122.709H27.19M241.954 27.576h-17.176M254.705 27.576h-2.221M235.629 35.353h-8.175" stroke="#B1BEE2" stroke-width="2.5" stroke-linecap="round" stroke-linejoin="round"/><g filter="url(#a)"><path d="M139.5 144.998c23.472 0 42.614-19.027 42.755-42.499C182.395 79.028 163.482 60 140.01 60c-23.473 0-42.614 19.028-42.755 42.499-.14 23.472 18.773 42.499 42.245 42.499Z" fill="#fff"/></g><path d="M139.5 144.998c23.472 0 42.614-19.027 42.755-42.499C182.395 79.028 163.482 60 140.01 60c-23.473 0-42.614 19.028-42.755 42.499-.14 23.472 18.773 42.499 42.245 42.499Z" stroke="#000860" stroke-width="2.5"/><circle cx="123.5" cy="98.5" r="3.5" fill="#000860"/><circle cx="154.5" cy="98.5" r="3.5" fill="#000860"/><path d="M128 117s3.126-3 11.5-3 11.5 3 11.5 3" stroke="#000860" stroke-width="2" stroke-linecap="round"/><g filter="url(#b)"><path fill-rule="evenodd" clip-rule="evenodd" d="M77.87 81.276c-4.58-.052-8.218-3.982-8.551-8.747-.385-5.516 4.95-10.089 9.933-10.09-1.932-8.697 5.072-14.436 12.75-15.05 6.636-.53 12.564 3.633 14.26 9.34 8.515-1.488 13.996 5.336 13.92 12.052-.08 7.03-5.233 12.385-12.04 12.838l-20.541-.232" fill="#fff"/></g><path d="M77.87 81.276c-4.58-.052-8.218-3.982-8.551-8.747-.385-5.516 4.95-10.089 9.933-10.09-1.932-8.697 5.072-14.436 12.75-15.05 6.636-.53 12.564 3.633 14.26 9.34 8.515-1.488 13.996 5.336 13.92 12.052-.08 7.03-5.233 12.385-12.04 12.838l-20.541-.232" stroke="#000860" stroke-width="2.5" stroke-linecap="round" stroke-linejoin="round"/><g filter="url(#c)"><path fill-rule="evenodd" clip-rule="evenodd" d="M161.87 147.276c-4.58-.052-8.218-3.982-8.551-8.747-.385-5.516 4.95-10.089 9.933-10.089-1.932-8.698 5.072-14.437 12.751-15.05 6.635-.53 12.563 3.632 14.259 9.339 8.515-1.488 13.996 5.336 13.92 12.052-.08 7.03-5.233 12.385-12.04 12.839l-20.542-.233" fill="#fff"/></g><path d="M161.87 147.276c-4.58-.052-8.218-3.982-8.551-8.747-.385-5.516 4.95-10.089 9.933-10.089-1.932-8.698 5.072-14.437 12.751-15.05 6.635-.53 12.563 3.632 14.259 9.339 8.515-1.488 13.996 5.336 13.92 12.052-.08 7.03-5.233 12.385-12.04 12.839l-20.542-.233" stroke="#000860" stroke-width="2.5" stroke-linecap="round" stroke-linejoin="round"/><defs><filter id="a" x="96.002" y="58.752" width="87.505" height="87.495" filterUnits="userSpaceOnUse" color-interpolation-filters="sRGB"><feFlood flood-opacity="0" result="BackgroundImageFix"/><feBlend in="SourceGraphic" in2="BackgroundImageFix" result="shape"/><feColorMatrix in="SourceAlpha" values="0 0 0 0 0 0 0 0 0 0 0 0 0 0 0 0 0 0 127 0" result="hardAlpha"/><feOffset dx="-11" dy="-3"/><feComposite in2="hardAlpha" operator="arithmetic" k2="-1" k3="1"/><feColorMatrix values="0 0 0 0 0.917647 0 0 0 0 0.933333 0 0 0 0 0.984314 0 0 0 1 0"/><feBlend in2="shape" result="effect1_innerShadow_1914_79909"/></filter><filter id="b" x="68.049" y="46.094" width="52.133" height="35.526" filterUnits="userSpaceOnUse" color-interpolation-filters="sRGB"><feFlood flood-opacity="0" result="BackgroundImageFix"/><feBlend in="SourceGraphic" in2="BackgroundImageFix" result="shape"/><feColorMatrix in="SourceAlpha" values="0 0 0 0 0 0 0 0 0 0 0 0 0 0 0 0 0 0 127 0" result="hardAlpha"/><feMorphology radius="1.25" in="SourceAlpha" result="effect1_innerShadow_1914_79909"/><feOffset dx="-6" dy="-7"/><feComposite in2="hardAlpha" operator="arithmetic" k2="-1" k3="1"/><feColorMatrix values="0 0 0 0 0.917647 0 0 0 0 0.933333 0 0 0 0 0.984314 0 0 0 1 0"/><feBlend in2="shape" result="effect1_innerShadow_1914_79909"/></filter><filter id="c" x="152.049" y="112.094" width="52.133" height="35.526" filterUnits="userSpaceOnUse" color-interpolation-filters="sRGB"><feFlood flood-opacity="0" result="BackgroundImageFix"/><feBlend in="SourceGraphic" in2="BackgroundImageFix" result="shape"/><feColorMatrix in="SourceAlpha" values="0 0 0 0 0 0 0 0 0 0 0 0 0 0 0 0 0 0 127 0" result="hardAlpha"/><feMorphology radius="1.25" in="SourceAlpha" result="effect1_innerShadow_1914_79909"/><feOffset dx="-6" dy="-7"/><feComposite in2="hardAlpha" operator="arithmetic" k2="-1" k3="1"/><feColorMatrix values="0 0 0 0 0.917647 0 0 0 0 0.933333 0 0 0 0 0.984314 0 0 0 1 0"/><feBlend in2="shape" result="effect1_innerShadow_1914_79909"/></filter></defs></svg>