<svg width="61" height="42" viewBox="0 0 61 42" fill="none" xmlns="http://www.w3.org/2000/svg">
<g filter="url(#filter0_dd_656_5787)">
<rect x="9" y="5" width="43.3166" height="27.9059" rx="4.99807" fill="#1434CB"/>
<rect x="8.89587" y="4.89587" width="43.5249" height="28.1142" rx="5.1022" stroke="#D6DCE5" stroke-width="0.208253"/>
<path d="M30.3932 14.4052L28.3728 23.8497H25.9297L27.9504 14.4052H30.3932ZM40.6724 20.5036L41.9586 16.9568L42.6988 20.5036H40.6724ZM43.3983 23.8497H45.6581L43.6861 14.4052H41.6002C41.1315 14.4052 40.736 14.6778 40.56 15.0981L36.8946 23.8497H39.4602L39.9696 22.4394H43.1041L43.3983 23.8497ZM37.0219 20.766C37.0324 18.2733 33.5747 18.1361 33.5986 17.0226C33.6058 16.6833 33.9289 16.3234 34.6347 16.231C34.9853 16.1853 35.9494 16.1503 37.044 16.654L37.4727 14.6512C36.8847 14.4378 36.1281 14.2324 35.1871 14.2324C32.7724 14.2324 31.0727 15.5163 31.0583 17.3547C31.0431 18.7142 32.2717 19.4729 33.1975 19.9249C34.1492 20.3879 34.4691 20.6844 34.4649 21.0984C34.4586 21.7325 33.7056 22.0117 33.0032 22.0227C31.7746 22.0421 31.0616 21.6912 30.4934 21.4264L30.0507 23.4958C30.6213 23.758 31.675 23.9858 32.7682 23.9974C35.3345 23.9974 37.0135 22.7294 37.0219 20.766ZM26.9021 14.4052L22.9437 23.8497H20.3607L18.4129 16.3123C18.2945 15.8481 18.1917 15.6783 17.8321 15.4825C17.2453 15.1642 16.2753 14.8649 15.4219 14.6796L15.4802 14.4052H19.6373C20.167 14.4052 20.6438 14.7579 20.764 15.368L21.7929 20.8336L24.3352 14.4052H26.9021Z" fill="white"/>
</g>
<defs>
<filter id="filter0_dd_656_5787" x="0.461868" y="0.625954" width="60.3927" height="44.9825" filterUnits="userSpaceOnUse" color-interpolation-filters="sRGB">
<feFlood flood-opacity="0" result="BackgroundImageFix"/>
<feColorMatrix in="SourceAlpha" type="matrix" values="0 0 0 0 0 0 0 0 0 0 0 0 0 0 0 0 0 0 127 0" result="hardAlpha"/>
<feOffset dy="0.416506"/>
<feGaussianBlur stdDeviation="2.08253"/>
<feColorMatrix type="matrix" values="0 0 0 0 0.717647 0 0 0 0 0.717647 0 0 0 0 0.717647 0 0 0 0.08 0"/>
<feBlend mode="normal" in2="BackgroundImageFix" result="effect1_dropShadow_656_5787"/>
<feColorMatrix in="SourceAlpha" type="matrix" values="0 0 0 0 0 0 0 0 0 0 0 0 0 0 0 0 0 0 127 0" result="hardAlpha"/>
<feOffset dy="4.16506"/>
<feGaussianBlur stdDeviation="4.16506"/>
<feColorMatrix type="matrix" values="0 0 0 0 0.717647 0 0 0 0 0.717647 0 0 0 0 0.717647 0 0 0 0.08 0"/>
<feBlend mode="normal" in2="effect1_dropShadow_656_5787" result="effect2_dropShadow_656_5787"/>
<feBlend mode="normal" in="SourceGraphic" in2="effect2_dropShadow_656_5787" result="shape"/>
</filter>
</defs>
</svg>
