<svg width="328" height="140" viewBox="0 0 328 140" fill="none" xmlns="http://www.w3.org/2000/svg">
<path d="M71.498 76.8096V111.08H84.1943V124.619H71.498V136.58H54.1738V124.619H2.5V116.719L3.38867 115.97L49.123 77.3984L49.8213 76.8096H71.498ZM31.4297 111.203H54.2354V92.2021L31.4297 111.203Z" fill="#3E4982" stroke="white" stroke-width="5"/>
<path d="M102.013 76.7988V109.92H144.761V124.815H84.7012V76.7988H102.013ZM168.02 76.7988V124.815H150.709V76.7988H168.02ZM239.478 76.7988V91.5703H194.995V95.5439H238.61V109.635H194.995V124.815H177.685V76.7988H239.478ZM308.816 76.7988V91.5703H263.109V93.5137H308.816V107.667H263.109V110.044H308.816V124.815H246.039V76.7988H308.816Z" fill="#2D7F67" stroke="white" stroke-width="5"/>
<path d="M318.144 72.8633L318.661 71.8867H324.945V81.7031H320.583L320.575 81.7178H319.119L318.145 83.5605L317.17 81.7178H306.574V78.084H303.932V71.8867H315.828L315.827 71.8877L316.105 71.8867L317.622 71.877L318.144 72.8633ZM126.311 3.30469L127.057 4.38281L160.466 52.6777L163.18 56.5996H143.724L142.979 55.5068L136.229 45.5889H98.625L91.875 55.5068L91.1309 56.5996H72.1416L74.8564 52.6768L108.272 4.38281L109.019 3.30469H126.311ZM255.511 3.57324V22.4424H296.148V3.57324H312.717V56.5996H296.148V37.2012H255.511V56.5996H238.942V3.57324H255.511ZM108.444 31.0723H126.407L117.407 17.8115L108.444 31.0723ZM73.3291 26.5322L69.5615 24.3174L68.6602 23.7881L68.6533 23.7832C61.5909 19.5988 51.4986 17.0654 41.6025 17.0654C36.6134 17.0655 32.3078 17.5318 28.9053 18.3662C25.4436 19.2152 23.1779 20.3817 21.9824 21.5771C20.1914 23.3684 19.1436 26.0764 19.1436 30.0898C19.1436 34.0565 20.1523 36.5732 22.0518 38.4727C23.3061 39.7269 25.5996 40.9228 29.0254 41.79C32.4005 42.6444 36.6449 43.1221 41.541 43.1221C51.6048 43.1221 61.7842 40.7055 68.7363 36.8252L69.624 36.3301L73.3428 34.2549V50.5059L72.0566 51.2207L71.7471 51.3926L71.7432 51.3945C64.3835 55.466 53.3517 57.6728 41.541 57.6729C23.1077 57.6729 13.9865 52.9621 9.49414 48.4697C4.84437 43.8198 2.5 37.3955 2.5 30.083C2.50004 22.7723 4.81564 16.3816 9.49414 11.7031L9.49902 11.6982L9.93457 11.2783C14.579 6.92999 23.6781 2.5 41.5205 2.5C53.2982 2.50003 64.3127 4.69568 71.6689 8.77051L71.9854 8.93555L73.3291 9.63672V26.5322ZM226.374 23.5615L222.903 22.0986L222.07 21.748L222.069 21.7471C215.239 18.8637 203.713 16.7764 194.139 16.7764C187.575 16.7764 183.682 17.1013 181.329 17.542C179.178 17.9448 178.559 18.4014 178.367 18.5771C178.275 18.6857 178.202 18.8104 178.155 18.9453C178.103 19.0948 178.082 19.2532 178.094 19.4111L178.106 19.5879L178.095 19.7646C178.081 19.9611 178.134 20.155 178.241 20.3174C178.429 20.4466 179.129 20.8094 181.455 21.1729C183.817 21.542 187.492 21.871 193.322 22.1777L195.955 22.3076L195.966 22.3086L197.864 22.4092C207.143 22.9207 213.195 23.5685 217.361 24.4902C221.628 25.4341 224.099 26.7044 226.07 28.5205L226.458 28.8906L226.468 28.9004L226.703 29.1436C229.096 31.6871 230.255 35.3104 230.255 39.1875C230.255 43.8696 229.025 47.6471 226.082 50.5898L226.081 50.5889C222.5 54.177 215.874 57.4531 196.396 57.4531C183.448 57.4531 170.046 55.3683 162.244 51.9746L162.236 51.9717L162.229 51.9678L161.872 51.8096L160.383 51.1514V35.4209L163.972 37.1572L164.819 37.5674L165.436 37.8516C168.627 39.2681 173.485 40.6137 178.953 41.623C184.748 42.6926 191.03 43.3486 196.396 43.3486C202.999 43.3486 207.108 43.0744 209.723 42.6299C212.325 42.1875 213.102 41.6282 213.398 41.3359C213.523 41.207 213.621 41.0552 213.686 40.8877C213.751 40.7169 213.781 40.5344 213.772 40.3516L213.766 40.1914L213.778 40.0322C213.793 39.8563 213.772 39.679 213.716 39.5117C213.668 39.3701 213.595 39.2388 213.502 39.1221C213.346 39.0028 212.714 38.6518 210.229 38.2979C207.421 37.8979 202.778 37.5459 194.827 37.1289V37.1279C185.909 36.6803 179.647 36.1089 175.128 35.1611C170.572 34.2058 167.509 32.8144 165.23 30.5361L165.224 30.5303C162.708 27.9967 161.649 24.5792 161.649 20.5107C161.649 15.8493 162.883 12.0961 165.822 9.15723L165.824 9.15527L166.06 8.92676C168.523 6.58399 171.955 5.06779 176.381 4.11426C180.951 3.12982 186.796 2.69922 194.174 2.69922C205.751 2.69926 216.221 4.17208 223.706 6.99023L224.421 7.26758L224.424 7.26855L224.803 7.41992L226.374 8.04883V23.5615Z" fill="#2D7F67" stroke="white" stroke-width="5"/>
</svg>
