<svg width="424" height="181" viewBox="0 0 424 181" fill="none" xmlns="http://www.w3.org/2000/svg">
<path d="M420.646 70.002V178.208H2.62305V70.002H420.646Z" fill="#D40F41" stroke="white" stroke-width="5"/>
<path d="M420.546 2.5V59.3809H2.52246V2.5H420.546Z" fill="#155095" stroke="white" stroke-width="5"/>
<path d="M21.6804 159.459V91.6195H31.844V150.6H44.7844V159.464L21.6804 159.459ZM107.48 101.832C107.48 92.9682 114.48 90.3943 120.707 90.3943C127.036 90.3943 134.031 92.9682 134.031 101.832V149.472C134.031 158.335 127.036 160.909 120.707 160.909C114.475 160.909 107.48 158.335 107.48 149.472V101.832ZM117.64 148.612C117.64 152.041 118.693 152.804 120.804 152.804C122.818 152.804 123.872 152.041 123.872 148.612V102.687C123.872 99.2533 122.818 98.4952 120.804 98.4952C118.693 98.4952 117.64 99.2533 117.64 102.687V148.612ZM225.191 91.6195V100.479H216.371V159.459H206.203V100.479H197.291V91.6195H225.191ZM314.83 91.6195V100.479H306.01V159.459H295.851V100.479H286.935V91.6195H314.83ZM378.112 101.717C378.112 92.8536 385.107 90.2841 391.339 90.2841C397.663 90.2841 404.662 92.8536 404.662 101.717V149.357C404.662 158.225 397.668 160.795 391.339 160.795C385.107 160.795 378.112 158.225 378.112 149.357V101.717ZM388.271 148.502C388.271 151.931 389.329 152.694 391.431 152.694C393.445 152.694 394.503 151.931 394.503 148.502V102.572C394.503 99.1387 393.445 98.3806 391.431 98.3806C389.324 98.3806 388.271 99.1387 388.271 102.572V148.502ZM40.1433 11.06V49.8236H35.3744L24.6026 16.2167H24.5277V49.8236H21.4248V11.06H26.3391L36.9655 44.2393H37.036V11.06H40.1433ZM79.7576 49.8236V11.06H93.8218V15.3528H83.2351V27.8083H93.0681V32.1056H83.2351V45.5307H94.051V49.8236H79.7576ZM129.126 11.06H132.832L137.976 44.6669H138.051L143.529 11.06H148.029L152.979 44.6669H153.054L158.611 11.06H162.239L155.019 49.8236H150.784L145.605 16.2167H145.526L140.008 49.8236H135.776L129.126 11.06ZM229.845 11.06H233.362L225.913 35.0586V49.8236H222.436V35.0586L215.102 11.06H218.998L224.327 29.8005L229.845 11.06ZM269.953 35.6536V22.9249C269.953 15.1942 272.752 10.2578 278.534 10.2578C284.317 10.2578 287.111 15.1986 287.111 22.9249V35.6536C287.111 46.3902 284.317 50.6302 278.534 50.6302C272.752 50.6302 269.953 46.3902 269.953 35.6536ZM283.559 35.8652V22.7662C283.559 14.6565 279.632 14.392 278.534 14.392C277.437 14.392 273.501 14.6609 273.501 22.7662V35.8652C273.501 44.3495 275.246 46.496 278.534 46.496C281.822 46.496 283.559 44.3495 283.559 35.8652ZM329.859 31.9954V49.8192H326.382V11.06H335.791C340.631 11.06 342.337 15.895 342.337 20.7255C342.337 25.2917 340.56 28.7824 337.347 29.5889V29.6947C340.481 30.3911 341.614 31.8985 341.799 39.682C341.843 41.348 342.222 47.4127 342.746 49.828H339.115C338.141 47.1483 338.365 42.0973 338.057 36.9406C337.797 32.2158 335.113 31.9998 333.936 31.9998L329.859 31.9954ZM329.859 27.7025H335.082C337.576 27.7025 338.784 24.6438 338.784 21.2588C338.784 18.4645 337.806 15.3528 335.121 15.3528H329.859V27.7025ZM380.774 49.8236V11.06H384.256V28.0816H384.362L393.895 11.06H397.826L387.927 28.562L398.395 49.8236H393.935L384.366 29.5845H384.26V49.8236H380.774Z" fill="white"/>
</svg>
