<svg width="563" height="284" viewBox="0 0 563 284" fill="none" xmlns="http://www.w3.org/2000/svg">
<g clip-path="url(#clip0_22_1578)">
<path d="M1.04302 0.000301267L0.521484 283.203L561.973 283.984L562.495 0.780788L1.04302 0.000301267Z" fill="#FFD200"/>
<path d="M553.518 7.49756H7.9458V276.251H553.518V7.49756Z" fill="#FFE363"/>
<path d="M556.172 5.802H5.67773V42.1282H556.172V5.802Z" fill="#231F20"/>
<path d="M38.7285 34.2981V14.8838H49.3224L54.2223 22.7545C54.7826 23.6162 55.3112 24.5102 55.8103 25.4386C56.3093 26.3669 56.7789 27.3416 57.2167 28.3648C56.9263 27.4103 56.7154 26.4395 56.5815 25.4587C56.45 24.3387 56.3887 23.2146 56.4001 22.0885V14.8838H65.474V34.2981H55.2658L49.8441 25.9633C49.2702 25.0894 48.7394 24.1873 48.2562 23.259C47.773 22.3307 47.3261 21.3559 46.9178 20.3327C47.19 21.7858 47.401 23.1318 47.5529 24.369C47.7049 25.6061 47.7798 26.8048 47.7798 27.9612V34.2981H38.7285Z" fill="white"/>
<path d="M109.643 34.2981V14.8838H130.785V18.6375H119.102V22.4921H129.424V26.2256H119.102V30.5646H131.148V34.2981H109.643Z" fill="white"/>
<path d="M178.378 34.2978L171.232 14.8835H181.145L182.937 22.633C182.928 22.7198 182.928 22.8086 182.937 22.8954C183.466 25.0346 183.935 27.2404 184.344 29.5148C184.525 28.0618 184.714 26.7157 184.911 25.4786C185.108 24.2415 185.281 23.293 185.433 22.633L187.361 14.8431H196.73L198.613 22.5321C198.733 23.1113 198.892 24.0316 199.089 25.297C199.286 26.5623 199.475 27.9407 199.656 29.4341C199.899 27.7248 200.321 25.634 200.926 23.1578L201.108 22.411L202.991 14.8027H212.655L205.554 34.2978H194.802L192.896 26.0638C192.789 25.6461 192.669 24.9276 192.533 23.9045C192.397 22.8813 192.254 21.7511 192.102 20.514C191.936 21.4161 191.755 22.3243 191.558 23.2385C191.36 24.1527 191.142 25.1153 190.9 26.1244L188.972 34.1969L178.378 34.2978Z" fill="white"/>
<path d="M310.902 34.2981V26.6494L302.895 14.8838H312.944L314.555 18.476C314.843 19.1481 315.07 19.7414 315.235 20.252C315.392 20.7626 315.512 21.2812 315.598 21.8059C315.816 20.7484 316.158 19.7132 316.619 18.7182L318.275 14.9242H328.029L320.362 26.3265V34.2981H310.902Z" fill="white"/>
<path d="M368.478 20.5949C368.439 18.6878 369.667 16.9401 371.608 16.1349C377.629 14.139 384.258 14.139 390.278 16.1349C392.227 16.9522 393.447 18.7181 393.386 20.6353V28.6069C393.44 30.5221 392.222 32.2859 390.278 33.1073C384.269 35.1234 377.64 35.1234 371.631 33.1073C369.669 32.298 368.43 30.5301 368.478 28.6069V20.5949ZM378.028 19.8886V29.293C377.976 29.8238 378.232 30.3424 378.709 30.6653C379.401 31.0044 380.19 31.1517 380.977 31.0892C381.764 31.1537 382.554 31.0064 383.246 30.6653C383.722 30.3424 383.978 29.8238 383.926 29.293V19.8886C383.974 19.3538 383.709 18.8351 383.223 18.5163C382.531 18.1792 381.742 18.0319 380.955 18.0925C380.167 18.0198 379.373 18.1691 378.686 18.5163C378.221 18.8472 377.974 19.3619 378.028 19.8886Z" fill="white"/>
<path d="M436.894 34.2977V14.8834H450.505C453.186 14.7603 455.87 15.1114 458.399 15.9126C459.928 16.3445 460.976 17.5937 461.008 19.0205V20.3121C461.053 21.2304 460.606 22.1143 459.805 22.6935C458.623 23.4079 457.274 23.8701 455.858 24.0457C457.269 24.1688 458.626 24.5986 459.805 25.2969C460.617 25.8882 461.064 26.7863 461.008 27.7186V32.2796C460.985 32.7054 461.055 33.1292 461.212 33.5308C461.359 33.8477 461.593 34.1242 461.892 34.3381H452.342C452.097 34.1141 451.922 33.8356 451.843 33.5308C451.723 33.0606 451.668 32.5803 451.684 32.098V28.2434C451.816 27.4422 451.396 26.647 450.618 26.2252C449.227 25.8236 447.766 25.6602 446.308 25.7409V34.2977H436.894ZM446.24 22.7137C447.676 22.7541 449.112 22.6108 450.505 22.2899C451.176 22.1486 451.648 21.6118 451.639 20.9983V19.8883C451.659 19.2809 451.224 18.738 450.573 18.5564C449.282 18.2315 447.941 18.0962 446.603 18.1527H446.24V22.7137Z" fill="white"/>
<path d="M504.678 34.2978V14.8835H514.024V23.299C514.095 22.9781 514.21 22.6674 514.365 22.3707C514.521 22.066 514.712 21.7753 514.932 21.5029L520.263 14.8633H530.289L521.783 22.9358L530.312 34.2978H520.399L515.862 27.1133L513.934 28.8489V34.2978H504.678Z" fill="white"/>
<path d="M490.636 66.5879C466.93 66.5879 463.845 134.094 463.845 159.159C463.845 179.017 466.635 246.524 491.747 246.524C514.908 246.524 519.377 186.949 519.377 157.726C519.377 133.852 516.587 66.5879 490.636 66.5879ZM492.019 241.599C477.887 241.458 478.068 201.822 478.068 156.435C478.068 105.982 479.906 70.3012 491.679 70.3012C501.955 70.3012 504.836 106.083 504.836 156.435C504.882 198.694 504.7 241.741 492.042 241.619L492.019 241.599Z" fill="#231F20"/>
<path d="M398.375 69.675H424.599V240.267H435.76V244.242H400.599V240.509H411.76V73.3884H398.375V69.675Z" fill="#231F20"/>
<path d="M274.426 70.0591H309.588V73.7926H298.132V148.746L323.811 73.5504H314.034V69.8169H339.713V73.7926H329.097L304.552 146.768L338.035 240.328H348.629V244.061H326.034L298.427 166.626V240.086H309.588V244.061H274.426V240.328H285.587V73.7926H274.426V70.0591Z" fill="#231F20"/>
<path d="M242.35 69.8169H245.503V135.587H241.329C241.329 135.587 240.762 69.8169 220.414 69.8169C210.364 69.8169 206.667 91.6126 206.667 156.596C206.667 235.727 212.383 240.994 221.253 240.994C241.329 240.994 241.669 160.269 241.669 160.269H246.411C246.411 160.269 249.473 246.402 219.62 246.402C181.554 246.544 182.938 66.5879 219.189 66.5879C232.8 66.5879 233.707 76.517 236.475 76.2749C239.242 76.0327 242.35 69.8169 242.35 69.8169Z" fill="#231F20"/>
<path d="M128.244 70.0591H163.11V73.7926H151.949V240.086H163.11V244.304H127.949V240.328H139.11V74.0348H128.221L128.244 70.0591Z" fill="#231F20"/>
<path d="M96.1678 81.1585C86.6855 69.4333 76.3185 69.6754 76.3185 69.6754H43.4027V74.2566H54.5636V240.308H43.2212V244.344H78.3828V240.873H67.0403V158.432C67.0403 158.432 76.1143 158.029 80.4244 155.466C112.433 135.89 106.898 94.4378 96.1678 81.1585ZM84.9841 142.308C77.1351 155.91 66.8362 153.73 66.8362 153.73V74.2969C66.8362 74.2969 76.4319 73.7924 81.0596 75.7903C93.9673 81.3604 91.6535 130.744 84.9841 142.287V142.308Z" fill="#231F20"/>
</g>
<defs>
<clipPath id="clip0_22_1578">
<rect width="561.957" height="284" fill="white" transform="translate(0.521484)"/>
</clipPath>
</defs>
</svg>
