<svg width="347" height="75" viewBox="0 0 347 75" fill="none" xmlns="http://www.w3.org/2000/svg">
<g clip-path="url(#clip0_22_6)">
<path d="M338.604 58.8274H283.566V74.4117H338.604V58.8274Z" fill="white"/>
<path d="M203.401 58.4585V75H339.165V58.4585H203.401ZM337.884 73.7836H285.738V59.7248H337.884V73.7836Z" fill="#101820"/>
<path fill-rule="evenodd" clip-rule="evenodd" d="M207.283 60.8216H213.668C214.799 60.7326 215.921 61.0907 216.79 61.8187C217.141 62.1915 217.41 62.6329 217.58 63.1149C217.865 63.8669 217.929 64.684 217.767 65.4712C217.604 66.2584 217.22 66.9833 216.66 67.5618C215.683 68.3405 214.444 68.7185 213.197 68.6187H211.146V73.2252H207.243V60.8216H207.283ZM211.136 66.1061H212.077C212.626 66.1552 213.176 66.0182 213.638 65.7172C213.784 65.5955 213.9 65.442 213.978 65.2685C214.05 65.0946 214.087 64.9083 214.088 64.7202C214.09 64.536 214.056 64.3532 213.988 64.1817C213.917 64.0143 213.819 63.8595 213.698 63.7231C213.283 63.401 212.759 63.2542 212.237 63.3143H211.146V66.1061H211.136Z" fill="white"/>
<path fill-rule="evenodd" clip-rule="evenodd" d="M220.583 66.6345C220.489 65.7713 220.595 64.8982 220.893 64.082C221.182 63.268 221.651 62.5288 222.264 61.9184C222.873 61.3012 223.616 60.8306 224.435 60.5424C225.255 60.2478 226.13 60.1388 226.997 60.2233C227.866 60.1638 228.738 60.2826 229.559 60.5723C230.779 61.0028 231.823 61.8223 232.529 62.9039C233.234 63.9855 233.562 65.2687 233.461 66.5548C233.501 67.7819 233.251 69.0012 232.731 70.1143C232.249 71.0247 231.512 71.7763 230.609 72.278C229.544 72.8274 228.356 73.0952 227.157 73.0557C225.961 73.0952 224.771 72.8669 223.675 72.3877C222.735 71.9186 221.955 71.1832 221.433 70.2739C220.826 69.1662 220.532 67.9154 220.583 66.6545V66.6345ZM224.425 66.6345C224.337 67.5858 224.584 68.5381 225.126 69.3266C225.357 69.5988 225.648 69.8138 225.976 69.9548C226.307 70.097 226.667 70.1618 227.027 70.1442C227.369 70.1545 227.71 70.0933 228.028 69.9648C228.36 69.8253 228.657 69.6142 228.898 69.3466C229.442 68.4886 229.685 67.4752 229.589 66.465C229.659 65.5545 229.408 64.6481 228.878 63.9025C228.637 63.6349 228.34 63.4238 228.008 63.2844C227.692 63.1494 227.35 63.0848 227.007 63.0949C226.663 63.0916 226.322 63.1595 226.006 63.2943C225.684 63.4358 225.399 63.651 225.176 63.9225C224.63 64.7165 224.382 65.6766 224.475 66.6345H224.425Z" fill="white"/>
<path fill-rule="evenodd" clip-rule="evenodd" d="M235.983 60.7119H239.626L240.937 67.6316L242.818 60.7119H246.461L248.382 67.6316L249.693 60.7119H253.325L250.623 73.0956H246.821L244.639 65.2985L242.468 73.0956H238.705L235.983 60.7119Z" fill="white"/>
<path fill-rule="evenodd" clip-rule="evenodd" d="M256.828 60.7119H267.125V63.3641H260.68V65.3583H266.684V67.851H260.68V70.3437H267.315V73.1554H256.828V60.7119Z" fill="white"/>
<path fill-rule="evenodd" clip-rule="evenodd" d="M270.687 73.1056V60.7119H277.082C278 60.6748 278.918 60.779 279.804 61.021C280.426 61.2106 280.963 61.6086 281.325 62.1477C281.719 62.7373 281.922 63.4335 281.905 64.1419C281.926 64.7425 281.784 65.3377 281.493 65.8643C281.203 66.3909 280.774 66.8293 280.254 67.1331C279.832 67.3647 279.376 67.5295 278.903 67.6216C279.564 67.7676 280.142 68.1646 280.514 68.7284C280.714 68.9696 280.895 69.2263 281.054 69.4961L282.916 73.0956H278.623L276.621 69.3067C276.461 68.9289 276.222 68.5891 275.921 68.3096C275.644 68.1208 275.316 68.02 274.98 68.0205H274.64V73.0059L270.687 73.1056ZM274.54 65.7272H276.191C276.528 65.6992 276.863 65.6459 277.192 65.5677C277.438 65.5156 277.658 65.3778 277.812 65.1788C277.969 64.9686 278.054 64.7131 278.052 64.4509C278.063 64.28 278.032 64.1091 277.962 63.9524C277.904 63.7902 277.804 63.6459 277.672 63.5336C277.228 63.2645 276.707 63.1521 276.191 63.2146H274.5V65.7272H274.54Z" fill="white"/>
<path fill-rule="evenodd" clip-rule="evenodd" d="M290.851 62.038V66.7243H292.853C293.734 66.7877 294.615 66.59 295.384 66.156C295.659 65.9549 295.878 65.6873 296.02 65.3784C296.161 65.0696 296.222 64.7297 296.195 64.3911C296.228 64.0452 296.169 63.6966 296.025 63.3801C295.881 63.0635 295.657 62.7899 295.374 62.5864C294.571 62.1465 293.657 61.9491 292.742 62.0181L290.851 62.038ZM289.46 60.8216H292.462C293.151 60.8131 293.84 60.8498 294.524 60.9313C294.986 61.0089 295.434 61.1533 295.855 61.36C296.433 61.6575 296.925 62.0967 297.286 62.6363C297.6 63.1531 297.763 63.7471 297.756 64.3512C297.772 64.9569 297.622 65.5554 297.323 66.0825C297.023 66.6096 296.585 67.0452 296.055 67.3425C295.638 67.5751 295.184 67.7369 294.714 67.8211C294.053 67.9307 293.383 67.9807 292.712 67.9706H290.851V73.1155H289.46V60.8216Z" fill="#101820"/>
<path fill-rule="evenodd" clip-rule="evenodd" d="M306.862 72.9261H300.458V60.6222H301.859V71.7894H306.862V72.9261Z" fill="#101820"/>
<path fill-rule="evenodd" clip-rule="evenodd" d="M310.515 72.7865H309.044L314.538 60.4826H316.219L321.652 72.7865H320.221L318.53 68.9178H312.216L310.495 72.7865H310.515ZM318.01 67.8011L315.328 61.6292L312.646 67.8011H318.01Z" fill="#101820"/>
<path fill-rule="evenodd" clip-rule="evenodd" d="M329.578 68.6287V73.1554H328.227V68.6187L323.694 60.8216H325.285L328.877 67.2128L332.53 60.8216H334.071L329.578 68.6287Z" fill="#101820"/>
<path d="M313.217 0.22934C320.117 0.22934 326.735 2.96061 331.614 7.82229C336.493 12.684 339.235 19.2778 339.235 26.1533C339.235 29.5577 338.562 32.9287 337.254 36.074C335.947 39.2192 334.03 42.077 331.614 44.4843C329.198 46.8916 326.33 48.8011 323.173 50.1039C320.017 51.4067 316.633 52.0773 313.217 52.0773C306.316 52.0773 299.698 49.346 294.819 44.4843C289.94 39.6226 287.199 33.0288 287.199 26.1533C287.199 19.2778 289.94 12.684 294.819 7.82229C299.698 2.96061 306.316 0.22934 313.217 0.22934Z" fill="url(#paint0_radial_22_6)"/>
<path d="M313.216 0.72934C319.985 0.72934 326.476 3.40849 331.261 8.17661C336.046 12.9446 338.735 19.411 338.735 26.1532L338.727 26.7791C338.65 29.9042 337.994 32.9902 336.792 35.8817C335.51 38.9661 333.631 41.7688 331.261 44.1297C328.892 46.4906 326.079 48.3636 322.983 49.6414C319.887 50.9193 316.568 51.577 313.216 51.577C306.448 51.5769 299.958 48.8978 295.172 44.1297C290.387 39.3617 287.699 32.8954 287.699 26.1532L287.706 25.5223C287.869 19.0087 290.536 12.7957 295.172 8.17661C299.958 3.40861 306.448 0.72945 313.216 0.72934Z" fill="url(#paint1_linear_22_6)" stroke="black"/>
<path d="M255.837 0C262.737 0 269.355 2.73127 274.234 7.59295C279.114 12.4546 281.855 19.0485 281.855 25.924C281.855 32.7994 279.114 39.3933 274.234 44.255C269.355 49.1166 262.737 51.8479 255.837 51.8479C248.937 51.8479 242.319 49.1166 237.439 44.255C232.56 39.3933 229.819 32.7994 229.819 25.924C229.819 19.0485 232.56 12.4546 237.439 7.59295C242.319 2.73127 248.937 0 255.837 0Z" fill="url(#paint2_radial_22_6)"/>
<path d="M255.837 0C262.737 0 269.355 2.73127 274.234 7.59295C279.114 12.4546 281.855 19.0485 281.855 25.924C281.855 32.7994 279.114 39.3933 274.234 44.255C269.355 49.1166 262.737 51.8479 255.837 51.8479C248.937 51.8479 242.319 49.1166 237.439 44.255C232.56 39.3933 229.819 32.7994 229.819 25.924C229.819 19.0485 232.56 12.4546 237.439 7.59295C242.319 2.73127 248.937 0 255.837 0Z" fill="url(#paint3_linear_22_6)"/>
<path d="M198.497 0C205.398 0 212.015 2.73127 216.895 7.59295C221.774 12.4546 224.515 19.0485 224.515 25.924C224.515 32.7994 221.774 39.3933 216.895 44.255C212.015 49.1166 205.398 51.8479 198.497 51.8479C191.597 51.8479 184.979 49.1166 180.1 44.255C175.22 39.3933 172.479 32.7994 172.479 25.924C172.479 19.0485 175.22 12.4546 180.1 7.59295C184.979 2.73127 191.597 0 198.497 0Z" fill="url(#paint4_radial_22_6)"/>
<path d="M198.497 0C205.398 0 212.015 2.73127 216.895 7.59295C221.774 12.4546 224.515 19.0485 224.515 25.924C224.515 32.7994 221.774 39.3933 216.895 44.255C212.015 49.1166 205.398 51.8479 198.497 51.8479C191.597 51.8479 184.979 49.1166 180.1 44.255C175.22 39.3933 172.479 32.7994 172.479 25.924C172.479 19.0485 175.22 12.4546 180.1 7.59295C184.979 2.73127 191.597 0 198.497 0Z" fill="url(#paint5_linear_22_6)"/>
<path d="M141.098 0C147.998 0 154.616 2.73127 159.495 7.59295C164.374 12.4546 167.116 19.0485 167.116 25.924C167.116 32.7994 164.374 39.3933 159.495 44.255C154.616 49.1166 147.998 51.8479 141.098 51.8479C134.197 51.8479 127.579 49.1166 122.7 44.255C117.821 39.3933 115.08 32.7994 115.08 25.924C115.08 19.0485 117.821 12.4546 122.7 7.59295C127.579 2.73127 134.197 0 141.098 0Z" fill="url(#paint6_radial_22_6)"/>
<path d="M141.098 0C147.998 0 154.616 2.73127 159.495 7.59295C164.374 12.4546 167.116 19.0485 167.116 25.924C167.116 32.7994 164.374 39.3933 159.495 44.255C154.616 49.1166 147.998 51.8479 141.098 51.8479C134.197 51.8479 127.579 49.1166 122.7 44.255C117.821 39.3933 115.08 32.7994 115.08 25.924C115.08 19.0485 117.821 12.4546 122.7 7.59295C127.579 2.73127 134.197 0 141.098 0Z" fill="url(#paint7_linear_22_6)"/>
<path d="M83.4578 0C90.3582 0 96.9759 2.73127 101.855 7.59295C106.735 12.4546 109.476 19.0485 109.476 25.924C109.476 32.7994 106.735 39.3933 101.855 44.255C96.9759 49.1166 90.3582 51.8479 83.4578 51.8479C80.041 51.8479 76.6577 51.1774 73.5011 49.8746C70.3445 48.5718 67.4762 46.6622 65.0602 44.255C60.1809 39.3933 57.4398 32.7994 57.4398 25.924C57.4398 19.0485 60.1809 12.4546 65.0602 7.59295C69.9396 2.73127 76.5574 0 83.4578 0Z" fill="url(#paint8_radial_22_6)"/>
<path d="M83.4578 0C90.3582 0 96.9759 2.73127 101.855 7.59295C106.735 12.4546 109.476 19.0485 109.476 25.924C109.476 32.7994 106.735 39.3933 101.855 44.255C96.9759 49.1166 90.3582 51.8479 83.4578 51.8479C80.041 51.8479 76.6577 51.1774 73.5011 49.8746C70.3445 48.5718 67.4762 46.6622 65.0602 44.255C60.1809 39.3933 57.4398 32.7994 57.4398 25.924C57.4398 19.0485 60.1809 12.4546 65.0602 7.59295C69.9396 2.73127 76.5574 0 83.4578 0Z" fill="url(#paint9_linear_22_6)"/>
<path d="M26.018 0C32.9184 0 39.5362 2.73127 44.4155 7.59295C49.2948 12.4546 52.036 19.0485 52.036 25.924C52.036 32.7994 49.2948 39.3933 44.4155 44.255C39.5362 49.1166 32.9184 51.8479 26.018 51.8479C19.1176 51.8479 12.4998 49.1166 7.62049 44.255C2.74117 39.3933 0 32.7994 0 25.924C0 19.0485 2.74117 12.4546 7.62049 7.59295C12.4998 2.73127 19.1176 0 26.018 0Z" fill="url(#paint10_radial_22_6)"/>
<path d="M26.018 0C32.9184 0 39.5362 2.73127 44.4155 7.59295C49.2948 12.4546 52.036 19.0485 52.036 25.924C52.036 32.7994 49.2948 39.3933 44.4155 44.255C39.5362 49.1166 32.9184 51.8479 26.018 51.8479C19.1176 51.8479 12.4998 49.1166 7.62049 44.255C2.74117 39.3933 0 32.7994 0 25.924C0 19.0485 2.74117 12.4546 7.62049 7.59295C12.4998 2.73127 19.1176 0 26.018 0Z" fill="url(#paint11_linear_22_6)"/>
<path d="M339.465 46.5136C339.666 46.0536 339.955 45.637 340.315 45.2872C340.677 44.9387 341.101 44.6613 341.566 44.4696C342.051 44.279 342.567 44.1809 343.087 44.1804C343.595 44.1727 344.099 44.2677 344.568 44.4596C345.042 44.6506 345.474 44.9317 345.839 45.2872C346.211 45.6448 346.505 46.0742 346.705 46.549C346.905 47.0239 347.005 47.5343 347 48.0491C346.998 48.5793 346.892 49.1042 346.69 49.5945C346.489 50.0636 346.201 50.4901 345.839 50.8508C345.484 51.1996 345.062 51.4741 344.598 51.6585C343.636 52.0465 342.559 52.0465 341.596 51.6585C341.131 51.473 340.706 51.1986 340.345 50.8508C339.976 50.5009 339.686 50.0758 339.495 49.6045C339.29 49.1166 339.184 48.593 339.184 48.064C339.184 47.5351 339.29 47.0114 339.495 46.5235L339.465 46.5136ZM340.105 49.3752C340.267 49.7473 340.498 50.0855 340.786 50.3722C341.068 50.6725 341.409 50.9132 341.786 51.0802C342.193 51.2468 342.628 51.3315 343.067 51.3294C343.5 51.3316 343.929 51.2468 344.328 51.0802C344.703 50.9082 345.042 50.6681 345.329 50.3722C345.61 50.0804 345.84 49.7433 346.009 49.3752C346.168 48.9509 346.249 48.5018 346.25 48.0491C346.25 47.6027 346.169 47.16 346.009 46.7429C345.84 46.3748 345.61 46.0377 345.329 45.7458C345.044 45.4426 344.705 45.1957 344.328 45.018C343.938 44.8442 343.515 44.7525 343.087 44.7487C342.647 44.7501 342.212 44.8382 341.806 45.008C341.427 45.1678 341.086 45.4056 340.806 45.7059C340.518 45.9926 340.287 46.3309 340.125 46.703C339.817 47.5672 339.817 48.511 340.125 49.3752H340.105ZM343.327 45.7857C343.757 45.7572 344.183 45.8731 344.538 46.1147C344.676 46.2398 344.783 46.3949 344.85 46.5678C344.918 46.7407 344.945 46.9269 344.929 47.1118C344.944 47.2788 344.916 47.4468 344.849 47.6004C344.794 47.7569 344.701 47.8974 344.578 48.0092C344.332 48.1989 344.037 48.3163 343.728 48.3482L345.029 50.3423H344.238L342.997 48.3482H342.237V50.3423H341.526V45.7857H343.327ZM343.017 47.7798H343.468C343.598 47.7701 343.727 47.7399 343.848 47.6901C343.954 47.6398 344.047 47.5645 344.118 47.4708C344.186 47.3418 344.221 47.1977 344.218 47.052C344.228 46.9334 344.2 46.8148 344.138 46.713C344.085 46.6104 344.001 46.5268 343.898 46.4737C343.798 46.4212 343.69 46.3874 343.578 46.374H342.237V47.8596L343.017 47.7798Z" fill="#101820"/>
<path d="M291.432 34.9674C289.36 28.287 289.81 22.4043 291.432 16.2125C293.153 16.1127 294.874 16.033 296.595 15.9632C299.047 15.8635 300.598 16.8705 300.198 20.8289C300.098 22.4206 299.479 23.9364 298.436 25.1462C299.697 25.7245 300.378 27.599 300.548 29.7727C300.908 34.2495 299.547 35.7551 296.705 35.466C294.954 35.3064 293.203 35.117 291.432 34.9674ZM293.853 20.4899C293.663 21.5486 293.533 22.6172 293.463 23.6905H295.064C295.835 23.6905 296.405 23.1322 296.525 21.9855C296.685 20.47 295.985 20.44 295.174 20.45L293.853 20.4899ZM293.443 27.2002C293.503 28.3967 293.633 29.5886 293.833 30.7697L295.484 30.8495C296.415 30.8495 297.055 30.6102 296.915 29.1345C296.775 27.4096 295.915 27.27 294.664 27.2301L293.443 27.2002Z" fill="white"/>
<path d="M301.298 35.117C301.388 28.7955 303.62 22.3744 306.212 15.8934L310.795 15.8336C312.026 22.3046 314.257 28.7955 315.718 35.3064H311.215C310.985 34.4489 310.755 33.5915 310.535 32.734H305.841C305.751 33.5815 305.691 34.429 305.651 35.2765L301.298 35.117ZM308.033 21.7063C307.433 24.0295 306.902 26.3427 306.502 28.6859H309.574C308.994 26.3228 308.453 24.0096 308.033 21.7063Z" fill="white"/>
<path d="M317.219 35.3862C317.57 28.9132 317.57 22.4262 317.219 15.9532H321.392C322.046 20.8774 322.2 25.8546 321.853 30.8096L327.947 30.7299C327.745 32.2219 327.468 33.7028 327.116 35.1668C323.874 35.2865 320.542 35.3563 317.219 35.3862Z" fill="white"/>
<path d="M328.317 35.117C329.699 28.8801 329.727 22.4208 328.397 16.1726C329.468 16.2324 330.759 16.372 331.829 16.4517C333.053 21.0212 333.268 25.8005 332.46 30.4607H336.843C336.454 31.9229 335.952 33.3529 335.342 34.7381C332.81 34.8976 330.879 34.9575 328.317 35.117Z" fill="white"/>
<path d="M28.7399 10.4294C27.4089 10.4294 26.1881 10.4294 25.0173 10.3596C21.9238 10.2017 18.8227 10.2783 15.7409 10.589H15.4607L15.3806 10.8681C13.7095 17.5685 12.4386 25.924 14.52 42.0267V42.4256H15.2605C16.8717 42.4256 18.3727 42.5153 19.8937 42.5153C21.2547 42.5153 22.6356 42.5153 24.1267 42.3857H24.5269V41.9869C24.4469 38.8959 24.4469 35.795 24.4469 32.7539H29.1602C33.9635 32.6941 37.556 31.4577 39.8576 29.0747C40.7699 28.0703 41.4704 26.8933 41.9174 25.6138C42.3643 24.3344 42.5486 22.9784 42.4594 21.6266C42.1892 14.8664 36.9355 10.5989 28.7399 10.4294ZM32.4524 21.0084C32.4649 21.4442 32.39 21.878 32.2323 22.2846C32.0711 22.6914 31.8333 23.0637 31.5318 23.3814C30.6136 24.2112 29.4085 24.6544 28.1695 24.6178H24.3768C24.3768 23.4313 24.4269 22.1451 24.4569 20.8887C24.4569 19.8917 24.4569 18.9943 24.5269 18.1069H27.0187C28.6698 18.077 32.4524 18.3362 32.4524 21.0084Z" fill="#101820"/>
<path d="M83.5778 9.44229C80.3216 9.41386 77.1311 10.3554 74.4156 12.1462C71.7001 13.9369 69.5835 16.4952 68.3373 19.4928C67.4903 21.4763 67.0513 23.6089 67.0464 25.7644C67.1665 35.3662 74.0512 42.4156 83.5478 42.5252C85.737 42.5254 87.9045 42.0926 89.9245 41.2519C91.9446 40.4111 93.777 39.1792 95.3157 37.6276C96.8544 36.0759 98.0686 34.2354 98.888 32.2127C99.7074 30.19 100.116 28.0253 100.089 25.8442C100.055 21.496 98.3029 17.3364 95.2124 14.2663C92.1219 11.1963 87.9418 9.46314 83.5778 9.44229ZM77.9739 25.8043C77.9739 21.9157 79.4249 17.7679 83.5078 17.7479H83.7079C84.314 17.7359 84.9164 17.8444 85.48 18.0669C86.0435 18.2895 86.5569 18.6217 86.9902 19.0441C88.4112 20.4301 89.2718 22.9626 89.2718 25.8043C89.2718 28.9251 88.5312 34.1698 83.6279 34.1897C78.3742 34.1897 77.9739 27.7586 77.9739 25.8043Z" fill="#101820"/>
<path d="M158.93 11.4165H158.63C156.098 11.3367 155.628 11.3268 152.976 11.2669H151.034V11.6857C151.274 17.1712 150.714 22.6623 149.373 27.9879C148.683 24.1292 147.762 20.6295 146.802 16.9602C146.341 15.1755 145.861 13.3409 145.381 11.3766L145.311 11.1074H145.03C142.547 10.9778 140.059 10.9778 137.575 11.1074H137.285L137.215 11.3766C136.615 13.8494 135.954 16.1227 135.324 18.3562C134.393 21.5767 133.512 24.6377 132.872 28.0178C131.628 22.6477 131.173 17.1262 131.521 11.6259V11.2171H124.026L123.946 11.5162C121.794 19.6224 123.686 29.3639 129.95 42.1863L130.06 42.3956H130.29C132.362 42.3956 133.422 42.4654 134.443 42.4654C135.464 42.4654 136.304 42.4654 137.985 42.4056H138.326V42.0666C138.876 36.483 139.997 30.7299 141.098 25.1163C142.218 30.69 143.349 36.4431 143.91 42.0666V42.4255H144.27C145.851 42.3558 147.272 42.3558 148.693 42.3558H152.926L153.026 42.1364C158.6 30.67 160.681 19.8817 158.9 11.7755L158.93 11.4165Z" fill="#101820"/>
<path d="M196.076 34.3193V30.2513C200.218 30.2513 204.431 30.2513 208.594 30.1516H208.995V22.2547H208.574C204.471 22.155 200.258 22.1151 196.066 22.145V18.4957C199.348 18.4957 202.52 18.4957 205.872 18.6353L210.876 18.745H211.376L211.296 18.2564C210.879 15.9155 210.233 13.6212 209.365 11.4065L209.275 11.1672H209.025C201.68 10.1203 194.224 10.1203 186.879 11.1672H186.559L186.499 11.4564C184.258 21.2819 184.258 31.4833 186.499 41.3088L186.569 41.588H186.849C190.782 42.1295 194.747 42.4127 198.717 42.4355C202.507 42.4194 206.291 42.1529 210.045 41.6379H210.295L210.385 41.4085C211.194 39.1318 211.669 36.751 211.796 34.3393V33.8607H211.306C206.273 34.2396 201.139 34.3792 196.076 34.3193Z" fill="#101820"/>
<path d="M270.617 35.446C271.067 29.8225 268.846 28.3867 265.964 27.27C267.409 26.7412 268.633 25.7439 269.441 24.4384C270.248 23.1328 270.592 21.5948 270.417 20.0711C269.847 13.4904 265.273 10.1901 256.407 9.98072H254.686C251.196 9.85351 247.703 10.1076 244.269 10.7385H244.029L243.959 10.9678C240.476 21.2776 240.156 32.4149 243.098 41.5381L243.168 41.7774H243.418C245.73 42.186 248.075 42.3862 250.423 42.3757H252.495V41.9469C252.324 38.3974 252.264 34.758 252.214 31.2384V31.1387H254.966C256.968 31.1387 258.259 31.4976 258.969 32.2554C259.87 33.1827 259.97 34.7879 259.97 36.9217C259.821 38.6349 259.888 40.36 260.17 42.0566L260.27 42.3757H260.6C261.601 42.3059 262.602 42.276 263.532 42.2461C265.64 42.2264 267.745 42.0866 269.837 41.8273H270.137L270.437 40.1024L269.867 40.2021C269.909 39.8193 269.976 39.4397 270.067 39.0654C270.357 37.8842 270.568 36.6851 270.697 35.4759L270.617 35.446ZM260.4 21.3873C260.419 21.6807 260.381 21.9751 260.29 22.2547C260.191 22.5314 260.038 22.7856 259.84 23.0025C259.189 23.6606 257.898 23.9996 255.837 23.9996H252.174C252.174 22.2348 252.174 20.4101 252.264 18.4459C253.715 18.4459 255.186 18.3861 256.617 18.3861C258.959 18.396 260.36 19.4928 260.4 21.3873Z" fill="#101820"/>
</g>
<defs>
<radialGradient id="paint0_radial_22_6" cx="0" cy="0" r="1" gradientUnits="userSpaceOnUse" gradientTransform="translate(313.177 26.1932) scale(26.058 25.9638)">
<stop stop-color="#E42F43"/>
<stop offset="1" stop-color="#DA2D3F"/>
</radialGradient>
<linearGradient id="paint1_linear_22_6" x1="313.177" y1="52.157" x2="313.177" y2="0.22934" gradientUnits="userSpaceOnUse">
<stop stop-color="#8F1A26"/>
<stop offset="0.04" stop-color="#8F1A26" stop-opacity="0.83"/>
<stop offset="0.1" stop-color="#8F1A26" stop-opacity="0.61"/>
<stop offset="0.16" stop-color="#8F1A26" stop-opacity="0.42"/>
<stop offset="0.24" stop-color="#8F1A26" stop-opacity="0.26"/>
<stop offset="0.32" stop-color="#8F1A26" stop-opacity="0.14"/>
<stop offset="0.43" stop-color="#8F1A26" stop-opacity="0.06"/>
<stop offset="0.58" stop-color="#8F1A26" stop-opacity="0.01"/>
<stop offset="1" stop-color="#8F1A26" stop-opacity="0"/>
</linearGradient>
<radialGradient id="paint2_radial_22_6" cx="0" cy="0" r="1" gradientUnits="userSpaceOnUse" gradientTransform="translate(255.837 25.9638) scale(26.058 25.9638)">
<stop stop-color="white"/>
<stop offset="0.7" stop-color="#FDFDFD"/>
<stop offset="0.95" stop-color="#F6F6F6"/>
<stop offset="1" stop-color="#F4F4F4"/>
</radialGradient>
<linearGradient id="paint3_linear_22_6" x1="255.837" y1="51.9277" x2="255.837" y2="0" gradientUnits="userSpaceOnUse">
<stop stop-color="#939392"/>
<stop offset="0.04" stop-color="#939392" stop-opacity="0.8"/>
<stop offset="0.1" stop-color="#939392" stop-opacity="0.59"/>
<stop offset="0.17" stop-color="#939392" stop-opacity="0.4"/>
<stop offset="0.24" stop-color="#939392" stop-opacity="0.25"/>
<stop offset="0.33" stop-color="#939392" stop-opacity="0.14"/>
<stop offset="0.43" stop-color="#939392" stop-opacity="0.06"/>
<stop offset="0.58" stop-color="#939392" stop-opacity="0.01"/>
<stop offset="1" stop-color="#939392" stop-opacity="0"/>
</linearGradient>
<radialGradient id="paint4_radial_22_6" cx="0" cy="0" r="1" gradientUnits="userSpaceOnUse" gradientTransform="translate(198.497 25.9638) scale(26.058 25.9638)">
<stop stop-color="white"/>
<stop offset="0.7" stop-color="#FDFDFD"/>
<stop offset="0.95" stop-color="#F6F6F6"/>
<stop offset="1" stop-color="#F4F4F4"/>
</radialGradient>
<linearGradient id="paint5_linear_22_6" x1="198.497" y1="51.9277" x2="198.497" y2="0" gradientUnits="userSpaceOnUse">
<stop stop-color="#939392"/>
<stop offset="0.04" stop-color="#939392" stop-opacity="0.8"/>
<stop offset="0.1" stop-color="#939392" stop-opacity="0.59"/>
<stop offset="0.17" stop-color="#939392" stop-opacity="0.4"/>
<stop offset="0.24" stop-color="#939392" stop-opacity="0.25"/>
<stop offset="0.33" stop-color="#939392" stop-opacity="0.14"/>
<stop offset="0.43" stop-color="#939392" stop-opacity="0.06"/>
<stop offset="0.58" stop-color="#939392" stop-opacity="0.01"/>
<stop offset="1" stop-color="#939392" stop-opacity="0"/>
</linearGradient>
<radialGradient id="paint6_radial_22_6" cx="0" cy="0" r="1" gradientUnits="userSpaceOnUse" gradientTransform="translate(141.098 25.9638) scale(26.058 25.9638)">
<stop stop-color="white"/>
<stop offset="0.7" stop-color="#FDFDFD"/>
<stop offset="0.95" stop-color="#F6F6F6"/>
<stop offset="1" stop-color="#F4F4F4"/>
</radialGradient>
<linearGradient id="paint7_linear_22_6" x1="141.098" y1="51.9277" x2="141.098" y2="0" gradientUnits="userSpaceOnUse">
<stop stop-color="#939392"/>
<stop offset="0.04" stop-color="#939392" stop-opacity="0.8"/>
<stop offset="0.1" stop-color="#939392" stop-opacity="0.59"/>
<stop offset="0.17" stop-color="#939392" stop-opacity="0.4"/>
<stop offset="0.24" stop-color="#939392" stop-opacity="0.25"/>
<stop offset="0.33" stop-color="#939392" stop-opacity="0.14"/>
<stop offset="0.43" stop-color="#939392" stop-opacity="0.06"/>
<stop offset="0.58" stop-color="#939392" stop-opacity="0.01"/>
<stop offset="1" stop-color="#939392" stop-opacity="0"/>
</linearGradient>
<radialGradient id="paint8_radial_22_6" cx="0" cy="0" r="1" gradientUnits="userSpaceOnUse" gradientTransform="translate(83.4578 25.9638) scale(26.058 25.9638)">
<stop stop-color="white"/>
<stop offset="0.7" stop-color="#FDFDFD"/>
<stop offset="0.95" stop-color="#F6F6F6"/>
<stop offset="1" stop-color="#F4F4F4"/>
</radialGradient>
<linearGradient id="paint9_linear_22_6" x1="83.4578" y1="51.9277" x2="83.4578" y2="0" gradientUnits="userSpaceOnUse">
<stop stop-color="#939392"/>
<stop offset="0.04" stop-color="#939392" stop-opacity="0.8"/>
<stop offset="0.1" stop-color="#939392" stop-opacity="0.59"/>
<stop offset="0.17" stop-color="#939392" stop-opacity="0.4"/>
<stop offset="0.24" stop-color="#939392" stop-opacity="0.25"/>
<stop offset="0.33" stop-color="#939392" stop-opacity="0.14"/>
<stop offset="0.43" stop-color="#939392" stop-opacity="0.06"/>
<stop offset="0.58" stop-color="#939392" stop-opacity="0.01"/>
<stop offset="1" stop-color="#939392" stop-opacity="0"/>
</linearGradient>
<radialGradient id="paint10_radial_22_6" cx="0" cy="0" r="1" gradientUnits="userSpaceOnUse" gradientTransform="translate(26.058 25.9638) scale(26.058 25.9638)">
<stop stop-color="white"/>
<stop offset="0.7" stop-color="#FDFDFD"/>
<stop offset="0.95" stop-color="#F6F6F6"/>
<stop offset="1" stop-color="#F4F4F4"/>
</radialGradient>
<linearGradient id="paint11_linear_22_6" x1="26.058" y1="51.9277" x2="26.058" y2="0" gradientUnits="userSpaceOnUse">
<stop stop-color="#939392"/>
<stop offset="0.04" stop-color="#939392" stop-opacity="0.8"/>
<stop offset="0.1" stop-color="#939392" stop-opacity="0.59"/>
<stop offset="0.17" stop-color="#939392" stop-opacity="0.4"/>
<stop offset="0.24" stop-color="#939392" stop-opacity="0.25"/>
<stop offset="0.33" stop-color="#939392" stop-opacity="0.14"/>
<stop offset="0.43" stop-color="#939392" stop-opacity="0.06"/>
<stop offset="0.58" stop-color="#939392" stop-opacity="0.01"/>
<stop offset="1" stop-color="#939392" stop-opacity="0"/>
</linearGradient>
<clipPath id="clip0_22_6">
<rect width="347" height="75" fill="white"/>
</clipPath>
</defs>
</svg>
